<svg width="24" height="24" viewBox="0 0 24 24" fill="none" xmlns="http://www.w3.org/2000/svg">
<g clip-path="url(#clip0_322_917)">
<path d="M2.69761 13.4501C2.69761 13.4501 5.2587 14.4923 6.43409 14.946C6.56286 15.0022 6.69448 15.0515 6.82841 15.0937L7.253 15.1642C7.85285 15.2608 8.46795 15.1904 9.03208 14.9604L9.95089 15.3128L9.93475 15.4099C9.90691 15.551 9.90452 15.6959 9.92771 15.8376L10.1228 17.0448C10.1547 17.2419 10.2367 17.4272 10.3607 17.5827C10.4848 17.7381 10.6466 17.8584 10.8306 17.9318L11.922 18.3657C12.0866 18.4324 12.2644 18.4596 12.4415 18.4452C12.6185 18.4307 12.7899 18.3751 12.9423 18.2826L17.1976 19.9116C17.3333 19.9678 17.4752 20.0071 17.6203 20.0288C18.171 20.1267 18.7386 20.0112 19.2098 19.7054C20.5263 18.7845 22.5538 17.4002 22.6897 17.317C22.9659 17.1536 23.1881 16.9115 23.3285 16.6212C23.4688 16.3309 23.521 16.0054 23.4784 15.6858C23.4419 15.3802 23.3632 14.8385 23.2927 14.5272C23.2831 14.4735 23.2706 14.4205 23.2552 14.3682C23.2296 14.2773 23.1956 14.189 23.1535 14.1046L23.0527 13.941L22.9424 13.7994C22.802 13.6338 22.6237 13.5054 22.4228 13.4252L18.6834 11.9818C18.6299 11.8246 18.5434 11.6811 18.4299 11.5609C18.3163 11.4406 18.1784 11.3466 18.0254 11.2851L16.934 10.8512C16.7198 10.763 16.484 10.7422 16.2575 10.7917L15.9922 10.8475C16.0065 10.7618 15.9811 10.6695 15.9717 10.5857C15.9624 10.5019 15.9069 10.2753 15.8797 10.1592L15.8863 10.1192C15.8712 10.0447 15.8524 9.97095 15.8299 9.89835C15.7773 9.74207 15.7131 9.59004 15.6379 9.44353C15.6125 9.3759 15.5826 9.3101 15.5484 9.24658C15.4648 9.09966 15.3693 8.96002 15.2629 8.82909C15.2229 8.77222 15.1795 8.71792 15.1328 8.66651C15.0188 8.54218 14.8935 8.42894 14.7585 8.32826C14.7014 8.27745 14.6412 8.23019 14.5784 8.18674C14.4379 8.09831 14.2879 8.02611 14.1313 7.97151C14.0768 7.93905 14.0185 7.91358 13.9577 7.89569L11.7711 7.05083C11.7117 6.95286 11.6524 6.85489 11.5864 6.7617L11.5327 6.69991C11.1264 6.15664 10.5769 5.73975 9.94661 5.49663C9.61456 5.35924 6.53274 4.12487 5.83557 3.90921C5.70341 3.86871 5.56887 3.83656 5.4327 3.81293C3.46825 3.48664 1.39896 5.12247 0.624513 7.61364C-0.149939 10.1048 0.698735 12.6306 2.69761 13.4501ZM4.66533 4.89551C4.8409 4.87781 5.01795 4.88352 5.1919 4.91248C5.27767 4.92089 5.36277 4.93503 5.44666 4.9548C5.84477 5.07966 7.16732 5.59303 8.18233 5.99658C7.43584 6.24691 6.76275 6.68168 6.22447 7.26125C5.68618 7.84081 5.29982 8.54671 5.10065 9.31456C4.88906 9.92623 4.7989 10.5736 4.83533 11.2197C4.87176 11.8658 5.03407 12.4979 5.31297 13.0798C5.35098 13.1476 5.39249 13.2133 5.43734 13.2767L3.12432 12.3521C1.75747 11.7903 1.02419 9.93563 1.66041 7.89143C2.19244 6.22935 3.44029 5.02098 4.66533 4.89551ZM21.9631 14.5119C22.0019 14.5308 22.037 14.5565 22.0668 14.5879L22.1036 14.6469C22.1169 14.6683 22.1268 14.6917 22.1327 14.7163L22.1251 14.7621C22.1289 14.8128 22.1193 14.8636 22.0974 14.9094C22.0754 14.9553 22.042 14.9945 22.0003 15.0233L18.3598 17.5377C18.1333 17.687 17.8602 17.7463 17.5934 17.7041C17.5224 17.701 17.4521 17.6893 17.3839 17.6693L12.571 15.8243L12.1243 16.1319L11.0339 15.6924L11.196 14.9263L11.8504 14.4887C11.9211 14.5533 11.9853 14.6227 12.0616 14.6883L12.1918 14.7451C12.2549 14.7559 12.3198 14.7452 12.3762 14.7145C12.4326 14.6838 12.4773 14.635 12.5032 14.5758C12.5291 14.5167 12.5347 14.4505 12.519 14.3879C12.5034 14.3253 12.4674 14.2699 12.4169 14.2304C12.1364 14.0299 11.9015 13.7715 11.7276 13.4722C11.5536 13.173 11.4447 12.8397 11.408 12.4944L11.3891 12.4326C11.3934 12.1432 11.4411 11.856 11.5306 11.5808C11.6132 11.3171 11.7313 11.0659 11.8815 10.8344L12.0876 11.4149C12.0418 11.5094 12.0023 11.6069 11.9693 11.7066C11.638 12.7559 12.6254 14.3061 13.7462 13.6875C13.9092 13.5788 14.0651 13.4595 14.2127 13.3304C14.7407 12.9188 13.9217 12.7357 13.6619 12.0934C13.516 11.7461 13.5291 10.9318 13.0017 10.7796C12.909 10.7615 12.8133 10.7654 12.7222 10.791C12.6311 10.8167 12.5471 10.8634 12.4769 10.9274L12.3671 10.2572C12.4727 10.1671 12.595 10.0992 12.7268 10.0576C12.8586 10.0159 12.9973 10.0013 13.1346 10.0146L13.2195 10.0287C13.6025 10.1393 13.8418 10.555 13.8913 11.0977C13.8913 11.0977 13.8865 11.1263 13.8837 11.1435C13.8875 11.4794 14.0103 11.8026 14.2298 12.0545C14.4494 12.3064 14.7512 12.4705 15.0808 12.5171L15.1544 12.5293C15.229 12.5386 15.3043 12.518 15.3642 12.472C15.424 12.4259 15.4637 12.358 15.4746 12.2829C15.4823 12.229 15.4731 12.1741 15.4483 12.1258L16.4743 11.9027L17.5648 12.3423L17.1446 12.6308L21.9631 14.5119ZM5.65629 9.50671C6.25654 7.57401 7.82437 6.29544 9.23402 6.52957L9.47179 6.56907C9.80953 6.67 10.1168 6.85427 10.3659 7.10525L9.61592 6.82209L9.37249 6.78166C7.98548 6.55128 6.52062 7.73535 5.96014 9.53368C5.61316 10.5431 5.6741 11.6486 6.12974 12.6105C6.26451 12.8823 6.45189 13.1241 6.68086 13.3215C6.90982 13.5189 7.17574 13.668 7.46297 13.76L7.67617 13.8424L8.14123 14.0195C7.89872 14.0675 7.64984 14.0719 7.40608 14.0325L7.17397 13.9939L6.85701 13.8708C5.60345 13.2573 5.07968 11.4022 5.65629 9.50671ZM13.5188 8.96233L13.6159 9.00784C13.7225 9.04034 13.8243 9.08687 13.9187 9.14624C13.9417 9.1644 13.9637 9.18374 13.9847 9.2042C14.0811 9.26947 14.1699 9.34529 14.2497 9.4303L14.3062 9.51018C14.3803 9.60069 14.448 9.69633 14.5088 9.79641C14.5314 9.83541 14.5418 9.87824 14.5634 9.92296C14.6152 10.025 14.6599 10.1305 14.6971 10.2389C14.7169 10.295 14.7234 10.3607 14.7422 10.4226C14.7611 10.4844 14.7949 10.631 14.8118 10.7396C14.8286 10.8481 14.8229 10.9176 14.8323 11.0014C14.8416 11.0852 14.8472 11.1919 14.848 11.2919C14.8489 11.3919 14.81 11.5205 14.7901 11.6406C14.7901 11.6406 14.7815 11.692 14.7768 11.7206L14.6956 11.7541C14.5397 11.5587 14.4512 11.3172 14.4434 11.0661C14.425 10.7637 14.3454 10.4686 14.2093 10.199C14.1259 10.0253 14.0079 9.87101 13.8625 9.74578C13.7171 9.62055 13.5475 9.52708 13.3645 9.47123L13.2173 9.44678C12.3058 9.29539 11.3613 10.1136 10.958 11.3859C10.7052 12.0958 10.7362 12.8764 11.0445 13.5619C11.1418 13.7407 11.2713 13.8996 11.4262 14.0306L10.9862 14.3334C10.6604 13.9039 10.4495 13.3968 10.3735 12.8608C10.2976 12.3247 10.3591 11.7776 10.5523 11.2715C11.0266 9.74669 12.2356 8.73745 13.3225 8.91799L13.498 8.94714L13.5188 8.96233ZM10.0268 11.1079C9.67986 12.1173 9.7408 13.2228 10.1964 14.1846L7.63626 13.172C6.5268 12.8467 5.99708 11.2726 6.47338 9.66592C6.94967 8.0592 8.19343 7.1556 9.28039 7.33614C9.3397 7.34017 9.39847 7.34993 9.45589 7.36529L12.2765 8.42117C11.7243 8.6676 11.2347 9.03766 10.8449 9.50321C10.4551 9.96876 10.1753 10.5176 10.0268 11.1079ZM12.0106 16.6769C12.044 16.6852 12.0781 16.6909 12.1125 16.6939L12.2157 17.2984L11.2186 16.892L11.1266 16.3598L11.8907 16.6629L12.0106 16.6769ZM12.7539 17.0001L12.6695 16.4574L17.1588 18.1841C17.2611 18.2244 17.3674 18.2538 17.4758 18.272C17.8857 18.3391 18.3062 18.2474 18.6528 18.0152L22.2565 15.5475L22.3033 15.8607C22.3093 15.9319 22.2982 16.0034 22.271 16.0695C22.2439 16.1355 22.2014 16.194 22.1473 16.2401L22.0198 16.3423L18.5332 18.7354C18.3075 18.8868 18.0336 18.9463 17.7668 18.9018C17.6977 18.899 17.6292 18.8876 17.563 18.868L12.7539 17.0001Z" fill="#082F49"/>
<path d="M3.13185 12.3768L5.44486 13.3014C5.40002 13.2381 5.3585 13.1723 5.32049 13.1046C5.04159 12.5226 4.87929 11.8905 4.84286 11.2444C4.80642 10.5984 4.89658 9.95098 5.10818 9.33931C5.30735 8.57146 5.6937 7.86556 6.23199 7.28599C6.77028 6.70643 7.44337 6.27165 8.18986 6.02132C7.16447 5.61018 5.84192 5.09681 5.45418 4.97954C5.3703 4.95977 5.28519 4.94564 5.19942 4.93723C5.02547 4.90827 4.84843 4.90256 4.67286 4.92026C3.44781 5.04572 2.19712 6.27124 1.67451 7.94664C1.03172 9.96038 1.76499 11.815 3.13185 12.3768Z" fill="#3B82F6"/>
<path d="M7.40513 14.0382C7.64709 14.0766 7.894 14.0719 8.13462 14.0243L7.66956 13.8472L7.45636 13.7648C7.16913 13.6728 6.90321 13.5237 6.67425 13.3263C6.44528 13.1289 6.2579 12.8871 6.12313 12.6152C5.67383 11.6519 5.619 10.5476 5.97051 9.54128C6.53099 7.74295 7.99586 6.55888 9.38286 6.78926L9.6263 6.82969L10.3763 7.11285C10.1272 6.86187 9.8199 6.6776 9.48217 6.57666L9.24439 6.53717C7.83474 6.30303 6.26692 7.58161 5.66667 9.51431C5.06642 11.447 5.62514 13.2668 6.86833 13.8727L7.18529 13.9958L7.40513 14.0382Z" fill="white"/>
<path d="M13.3452 8.92175C12.2582 8.74121 11.0493 9.75045 10.575 11.2753C10.3799 11.7795 10.3159 12.3253 10.3888 12.8608C10.4618 13.3963 10.6694 13.9035 10.9918 14.3344L11.4319 14.0315C11.2769 13.9006 11.1475 13.7416 11.0502 13.5628C10.7419 12.8773 10.7108 12.0968 10.9637 11.3868C11.3613 10.1136 12.3115 9.29633 13.2229 9.44772L13.3701 9.47217C13.5532 9.52802 13.7228 9.62149 13.8681 9.74672C14.0135 9.87195 14.1316 10.0262 14.2149 10.1999C14.3485 10.4678 14.4266 10.7606 14.4443 11.0604C14.4561 11.3202 14.5543 11.5683 14.723 11.7645L14.8042 11.731C14.8089 11.7024 14.8137 11.6738 14.8174 11.651C14.8374 11.5309 14.8573 11.4109 14.8754 11.3023C14.8934 11.1937 14.8671 11.1071 14.8596 11.0118C14.8522 10.9166 14.8541 10.8347 14.8391 10.75C14.8241 10.6653 14.7931 10.5368 14.7696 10.433C14.7461 10.3292 14.7443 10.3054 14.7245 10.2493C14.6873 10.1409 14.6426 10.0354 14.5908 9.93338C14.5691 9.88866 14.5588 9.84583 14.5362 9.80683C14.4754 9.70675 14.4077 9.61111 14.3336 9.52059L14.277 9.44071C14.1973 9.35571 14.1084 9.27988 14.0121 9.21461C13.9911 9.19416 13.9691 9.17482 13.9461 9.15666C13.8517 9.09729 13.7499 9.05075 13.6433 9.01826L13.5462 8.97275L13.3452 8.92175Z" fill="white"/>
<path d="M12.267 8.47834L9.4464 7.42245C9.38897 7.40709 9.3302 7.39733 9.2709 7.3933C8.18394 7.21276 6.97499 8.222 6.50066 9.74682C6.02634 11.2716 6.51446 12.9211 7.66355 13.2529L10.2237 14.2655C9.76808 13.3037 9.70714 12.1982 10.0541 11.1888C10.1955 10.5978 10.4682 10.0466 10.8516 9.57699C11.235 9.10738 11.719 8.73168 12.267 8.47834Z" fill="#3B82F6"/>
<path d="M16.7856 15.7725C17.0175 15.5613 17.2939 15.4063 17.5939 15.3193C17.8871 15.2191 18.1987 15.1866 18.5056 15.2241C18.5327 15.1543 18.5331 15.0768 18.5068 15.0069C18.4663 14.93 18.4068 14.8649 18.3342 14.8178C18.2615 14.7708 18.1781 14.7434 18.0918 14.7383C17.8532 14.7063 17.6103 14.7303 17.3821 14.8084C17.2025 14.8633 17.0342 14.9508 16.8854 15.0666C16.6654 15.2356 16.5604 15.4473 16.6263 15.6109C16.6666 15.6763 16.7211 15.7315 16.7856 15.7725Z" fill="white"/>
<path d="M16.4819 11.9274L15.4558 12.1506C15.4806 12.1988 15.4898 12.2538 15.4821 12.3077C15.4712 12.3828 15.4316 12.4506 15.3717 12.4967C15.3118 12.5428 15.2365 12.5634 15.1619 12.5541L15.0883 12.5418C14.7587 12.4952 14.4569 12.3312 14.2373 12.0793C14.0178 11.8273 13.895 11.5042 13.8912 11.1682C13.8912 11.1682 13.8969 11.1339 13.8988 11.1225C13.8493 10.5797 13.6101 10.164 13.227 10.0534L13.1421 10.0393C13.0048 10.026 12.8661 10.0407 12.7343 10.0823C12.6025 10.124 12.4802 10.1918 12.3746 10.2819L12.4712 10.9265C12.5414 10.8624 12.6254 10.8157 12.7165 10.7901C12.8076 10.7644 12.9033 10.7605 12.996 10.7787C13.5234 10.9309 13.5103 11.7452 13.6563 12.0925C13.918 12.7234 14.735 12.9178 14.2071 13.3294C14.0594 13.4586 13.9035 13.5779 13.7405 13.6866C12.6197 14.3052 11.6332 12.7492 11.9637 11.7056C11.9967 11.6059 12.0362 11.5085 12.0819 11.414L11.8758 10.8334C11.7256 11.065 11.6075 11.3162 11.525 11.5799C11.4354 11.8551 11.3877 12.1423 11.3835 12.4316L11.4023 12.4935C11.4391 12.8388 11.548 13.172 11.7219 13.4713C11.8958 13.7705 12.1308 14.0289 12.4113 14.2294C12.4618 14.2689 12.4977 14.3244 12.5134 14.387C12.529 14.4496 12.5234 14.5157 12.4976 14.5749C12.4717 14.6341 12.427 14.6829 12.3706 14.7135C12.3141 14.7442 12.2492 14.755 12.1861 14.7442L12.056 14.6873C11.9796 14.6218 11.9155 14.5524 11.8448 14.4878L11.1904 14.9254L11.0282 15.6914L12.1187 16.131L12.5654 15.8234L17.3783 17.6684C17.4464 17.6884 17.5167 17.7 17.5877 17.7031C17.8545 17.7453 18.1276 17.686 18.3542 17.5368L22.0173 15.0261C22.0609 14.9978 22.0962 14.9581 22.1193 14.9113C22.1424 14.8644 22.1526 14.8122 22.1487 14.7601L22.1563 14.7144C22.1503 14.6898 22.1405 14.6663 22.1272 14.6449L22.0904 14.5859C22.0606 14.5546 22.0255 14.5288 21.9867 14.51L17.153 12.6498L17.5733 12.3613L16.4819 11.9274ZM17.21 14.2335C17.5261 14.1292 17.8614 14.0985 18.1905 14.1438C18.378 14.1625 18.5569 14.232 18.7081 14.345C18.8594 14.458 18.9774 14.6103 19.0496 14.7858C19.0914 14.9035 19.109 15.0286 19.1012 15.1536C19.0935 15.2785 19.0606 15.4007 19.0045 15.5125C18.8885 15.7165 18.7337 15.8956 18.5491 16.0393C18.3645 16.183 18.1537 16.2886 17.9288 16.35C17.6126 16.4527 17.2776 16.4814 16.9492 16.434C16.7621 16.416 16.5835 16.3474 16.4321 16.2355C16.2808 16.1235 16.1623 15.9723 16.0892 15.7978C16.0474 15.679 16.0299 15.5529 16.0378 15.427C16.0457 15.3011 16.0789 15.1781 16.1352 15.0653C16.2515 14.8622 16.4063 14.6842 16.5907 14.5415C16.7751 14.3987 16.9856 14.2941 17.21 14.2335Z" fill="white"/>
<path d="M11.1531 16.3407L11.245 16.8729L12.2421 17.2793L12.1389 16.6748C12.1045 16.6718 12.0705 16.6661 12.037 16.6578L11.9181 16.6381L11.1531 16.3407Z" fill="white"/>
<path d="M17.7951 18.9065C18.0619 18.951 18.3359 18.8915 18.5615 18.7401L22.0481 16.347L22.1756 16.2448C22.2297 16.1987 22.2722 16.1402 22.2993 16.0742C22.3265 16.0081 22.3376 15.9366 22.3317 15.8654L22.2848 15.5522L18.6811 18.0199C18.3345 18.2521 17.914 18.3438 17.5041 18.2767C17.3957 18.2585 17.2894 18.2291 17.1871 18.1888L12.6978 16.4621L12.7822 17.0048L17.5951 18.8498C17.6591 18.877 17.7263 18.896 17.7951 18.9065Z" fill="white"/>
<path d="M16.1352 15.0653C16.0789 15.1781 16.0457 15.3011 16.0378 15.427C16.0299 15.5529 16.0474 15.679 16.0892 15.7978C16.1623 15.9723 16.2808 16.1235 16.4321 16.2355C16.5835 16.3474 16.7621 16.416 16.9492 16.434C17.2776 16.4814 17.6126 16.4527 17.9288 16.35C18.1537 16.2886 18.3645 16.183 18.5491 16.0393C18.7337 15.8956 18.8885 15.7165 19.0045 15.5125C19.0622 15.4017 19.0969 15.2803 19.1066 15.1557C19.1163 15.0311 19.1007 14.9059 19.0609 14.7876C18.9887 14.6122 18.8707 14.4599 18.7194 14.3469C18.5682 14.2339 18.3894 14.1643 18.2019 14.1457C17.8727 14.1004 17.5375 14.1311 17.2213 14.2354C16.995 14.2944 16.7825 14.3981 16.596 14.5406C16.4096 14.6831 16.2529 14.8614 16.1352 15.0653ZM16.8864 15.0608C17.0351 14.9451 17.2034 14.8576 17.383 14.8026C17.6113 14.7246 17.8542 14.7006 18.0928 14.7326C18.179 14.7377 18.2625 14.7651 18.3351 14.8121C18.4078 14.8592 18.4672 14.9243 18.5077 15.0012C18.5341 15.0711 18.5337 15.1485 18.5065 15.2183C18.1996 15.1809 17.8881 15.2134 17.5948 15.3136C17.2949 15.4006 17.0184 15.5556 16.7866 15.7668C16.7211 15.7206 16.6675 15.6593 16.6301 15.5881C16.5642 15.4244 16.6635 15.2118 16.8864 15.0608Z" fill="#082F49"/>
</g>
<defs>
<clipPath id="clip0_322_917">
<rect width="24" height="24" fill="white"/>
</clipPath>
</defs>
</svg>
