<svg width="24" height="24" viewBox="0 0 24 24" fill="none" xmlns="http://www.w3.org/2000/svg">
<path d="M7.78008 5H7.1831C6.89584 5.10261 6.71874 5.2126 6.46172 5.35566C6.16529 5.51992 5.87077 5.68793 5.57857 5.85964L4.50656 6.46588C4.30414 6.57974 4.12609 6.66333 3.93011 6.79531C3.28386 7.23044 2.69578 7.8389 2.35828 8.54464C2.06075 9.16685 1.86874 10.0032 2.1077 10.6703C2.17763 10.8702 2.30135 11.047 2.46531 11.1813C2.72425 11.3932 3.00659 11.5304 3.29125 11.6971L4.92069 12.6345L6.31911 13.4436C6.82563 13.7393 7.27275 14.0648 7.90339 14.1469C8.98362 14.2876 10.245 14.1616 11.3186 14.2963C11.5382 14.3239 12.4408 14.9049 12.6702 15.0375L16.3922 17.1818C16.5816 17.2914 16.7453 17.4395 16.9062 17.5308L19.0879 18.7557C19.1688 18.8019 19.2205 18.8313 19.3039 18.8704C19.3661 18.8995 19.5463 18.9692 19.593 19H20.0161C20.1276 18.9275 20.347 18.8697 20.4798 18.7912C21.4594 18.2125 22.1944 16.8136 21.9541 15.6815C21.836 15.1251 21.23 14.919 20.7916 14.6833C20.4007 14.4718 20.0138 14.2532 19.6309 14.0274L17.9797 13.0516C17.7078 12.8883 17.4437 12.7172 17.1673 12.5596C16.3193 12.0838 15.4755 11.6006 14.636 11.1098C14.4679 11.0137 13.618 10.5847 13.5545 10.4517C13.2833 9.88295 13.4707 8.48175 12.9789 8.0508C12.4918 7.62397 11.6532 7.20289 11.0799 6.88032L9.95874 6.23469C9.76576 6.12554 9.56691 6.02698 9.37462 5.91651C9.13142 5.77583 8.90287 5.60962 8.65105 5.48428C8.35516 5.33697 8.06269 5.17161 7.78008 5Z" fill="#262626"/>
<path d="M12.2876 8.06002C12.1933 7.97848 11.594 7.65468 11.4491 7.57274L9.8734 6.66839L8.57036 5.92316C8.23684 5.73123 7.7384 5.38256 7.35752 5.40588C7.02112 5.42647 6.53117 5.81855 6.23473 5.98159L4.8218 6.77072C4.29257 7.06902 3.65932 7.3978 3.27188 7.87556C2.72663 8.54767 2.3489 9.40655 2.43937 10.2868C2.4952 10.8299 2.83461 10.945 3.26243 11.1894L4.22578 11.7385L6.01617 12.7818C6.34723 12.9708 6.64531 13.1585 6.99717 13.3145C6.98869 13.229 6.97185 13.0952 6.97281 13.0133L6.99936 12.9957C7.02372 12.9939 7.03194 13.0017 7.05342 13.0141L7.06136 13.0188L7.07806 12.9878C7.12719 13.1667 7.21437 13.4893 7.39379 13.5809C7.79109 13.7839 8.19072 13.7787 8.62264 13.7787L9.58503 13.7797C9.89817 13.7819 10.2132 13.7931 10.5258 13.7971C10.6523 13.7988 11.0378 13.8031 11.1548 13.7775C11.0628 13.6892 10.9237 13.5407 10.8815 13.4224C10.504 12.3612 11.2297 11.0149 12.2313 10.576C12.5181 10.4504 12.7348 10.4528 13.0112 10.5568C13.1063 10.4192 12.8943 9.01942 12.8778 8.77275C12.8666 8.60441 12.7676 8.32165 12.608 8.24224C12.5525 8.21465 12.4577 8.12563 12.3911 8.13675L12.373 8.17936L12.369 8.1236C12.3375 8.07555 12.3446 8.08891 12.2876 8.06002Z" fill="#3B82F6"/>
<path d="M13.0112 10.5568C13.1063 10.4192 12.8943 9.01942 12.8778 8.77275C12.8666 8.60441 12.7676 8.32165 12.608 8.24224C12.5525 8.21465 12.4577 8.12563 12.3911 8.13675L12.373 8.17936L12.3515 8.26621C12.2677 8.58764 12.2445 8.95852 12.1938 9.27816C12.1343 9.67882 12.1143 10.4708 11.7219 10.708C11.4489 10.873 10.7167 10.738 10.3854 10.7328C9.58503 10.7203 8.64892 10.433 7.89894 10.8092C7.7488 10.8845 7.59374 11.0723 7.49028 11.1983C7.10351 11.6962 6.95352 12.3727 7.07806 12.9878C7.12719 13.1667 7.21437 13.4893 7.39379 13.5809C7.79109 13.7839 8.19072 13.7787 8.62264 13.7787L9.58503 13.7797C9.89817 13.7819 10.2132 13.7931 10.5258 13.7971C10.6523 13.7988 11.0378 13.8031 11.1548 13.7775C11.0628 13.6892 10.9237 13.5407 10.8815 13.4224C10.504 12.3612 11.2297 11.0149 12.2313 10.576C12.5181 10.4504 12.7348 10.4528 13.0112 10.5568Z" fill="#3B82F6"/>
<path d="M12.373 8.17936L12.369 8.1236C12.3375 8.07555 12.3446 8.08891 12.2876 8.06002L12.2605 8.18655C12.2047 8.48747 12.1473 8.78944 12.0986 9.09167C12.025 9.54962 12.0248 10.265 11.7008 10.6263C11.2695 10.6889 10.3973 10.649 9.98646 10.5972C8.76253 10.4429 7.72377 10.2411 7.14335 11.5989C6.89455 12.1808 6.96734 12.405 6.97281 13.0133L6.99936 12.9957C7.02372 12.9939 7.03194 13.0017 7.05342 13.0141L7.06136 13.0188L7.07806 12.9878C6.95352 12.3727 7.10351 11.6962 7.49028 11.1983C7.59374 11.0723 7.7488 10.8845 7.89894 10.8092C8.64892 10.433 9.58503 10.7203 10.3854 10.7328C10.7167 10.738 11.4489 10.873 11.7219 10.708C12.1143 10.4708 12.1343 9.67882 12.1938 9.27816C12.2445 8.95852 12.2677 8.58764 12.3515 8.26621L12.373 8.17936Z" fill="#0A0A0A"/>
<path d="M3.37916 8.37791C3.33154 8.38796 3.28952 8.38843 3.27857 8.44038C3.35398 8.56579 4.94209 9.4097 5.17667 9.54168L6.61902 10.3505C6.80405 10.4527 6.98744 10.5629 7.17522 10.659C7.21436 10.6699 7.19903 10.6705 7.23502 10.6607C7.30756 10.5514 7.20026 10.4794 7.11814 10.4305C6.9494 10.3299 6.77148 10.2457 6.60095 10.1488L4.60638 9.03492L3.86734 8.61978C3.71844 8.53714 3.53778 8.42846 3.37916 8.37791Z" fill="#0A0A0A"/>
<path d="M13.0112 10.5568C12.7348 10.4528 12.5181 10.4504 12.2313 10.576C11.2297 11.0149 10.504 12.3612 10.8815 13.4224C10.9237 13.5407 11.0628 13.6892 11.1548 13.7775C11.6146 14.0248 12.066 14.3104 12.5186 14.5667L16.6493 16.9432C17.2383 17.2913 17.8309 17.6332 18.4271 17.9689C18.6419 18.0914 18.8691 18.2417 19.0854 18.3542C19.1209 18.379 19.1407 18.3825 19.1814 18.3942C19.214 18.4153 19.2471 18.4358 19.2805 18.4557C19.5706 18.6301 19.7862 18.7023 20.1249 18.6068C21.1569 18.3158 21.919 16.9259 21.687 15.8961C21.5789 15.4161 21.2347 15.3097 20.8657 15.0922C20.6674 14.9588 20.4413 14.8391 20.2339 14.719C19.2137 14.1281 18.1843 13.5435 17.1631 12.956L13.0112 10.5568Z" fill="#FAFAFA"/>
<path d="M19.1814 18.3942C19.214 18.4153 19.2471 18.4358 19.2805 18.4557C19.5706 18.6301 19.7862 18.7023 20.1249 18.6068C21.1569 18.3158 21.919 16.9259 21.687 15.8961C21.5789 15.4161 21.2347 15.3097 20.8657 15.0922C20.8417 15.2045 20.8098 15.1289 20.755 15.1689L20.761 15.1912C20.2845 15.3622 20.1646 15.4461 19.7959 15.7902C19.1482 16.3947 18.8154 17.3344 19.0923 18.1974C19.1064 18.2398 19.1531 18.3629 19.1814 18.3942Z" fill="#FAFAFA"/>
<path d="M20.9241 15.4653C20.8263 15.4633 20.6214 15.4604 20.5274 15.4817C20.2862 15.5364 19.9989 15.7491 19.8238 15.9213C19.4392 16.2996 19.1478 16.941 19.1221 17.4826C19.1078 17.7842 19.2242 18.0486 19.4315 18.2596C19.5575 18.3878 19.6267 18.4087 19.7941 18.4117C19.763 18.3944 19.7214 18.3904 19.6852 18.3841C19.3959 18.2692 19.1885 17.9174 19.179 17.6123C19.1613 17.0447 19.4099 16.4427 19.7842 16.0187C19.9856 15.7905 20.3622 15.5177 20.6789 15.5049C20.8573 15.5018 21.0312 15.52 21.2119 15.5094C21.1148 15.4861 21.023 15.477 20.9241 15.4653Z" fill="#737373"/>
<path d="M21.0204 17.7548C20.9062 17.8557 20.7539 17.988 20.6553 18.1005C20.7656 18.0644 20.9519 17.8542 21.0204 17.7548Z" fill="#737373"/>
<path d="M20.755 15.1689C20.1644 15.2966 19.6803 15.7576 19.3527 16.2461C18.9596 16.8323 18.8049 17.6761 19.1098 18.3303C19.1069 18.3358 19.104 18.3412 19.1011 18.3466L19.0854 18.3542C19.1209 18.379 19.1407 18.3825 19.1814 18.3942C19.1531 18.3629 19.1064 18.2398 19.0923 18.1974C18.8154 17.3344 19.1482 16.3947 19.7959 15.7902C20.1646 15.4461 20.2845 15.3622 20.761 15.1912L20.755 15.1689Z" fill="#737373"/>
<path d="M12.2876 8.06002C12.1933 7.97848 11.594 7.65468 11.4491 7.57274L9.8734 6.66839L8.57036 5.92316C8.23684 5.73123 7.7384 5.38256 7.35752 5.40588C7.02112 5.42647 6.53117 5.81855 6.23473 5.98159L4.8218 6.77072C4.29257 7.06902 3.65932 7.3978 3.27188 7.87556C2.72663 8.54767 2.3489 9.40655 2.43937 10.2868C2.4952 10.8299 2.83461 10.945 3.26243 11.1894L4.22578 11.7385L6.01617 12.7818C6.34723 12.9708 6.64531 13.1585 6.99717 13.3145C6.98869 13.229 6.97185 13.0952 6.97281 13.0133M12.2876 8.06002C12.3446 8.08891 12.3375 8.07555 12.369 8.1236L12.373 8.17936M12.2876 8.06002L12.2605 8.18655C12.2047 8.48747 12.1473 8.78944 12.0986 9.09167C12.025 9.54962 12.0248 10.265 11.7008 10.6263C11.2695 10.6889 10.3973 10.649 9.98646 10.5972C8.76253 10.4429 7.72377 10.2411 7.14335 11.5989C6.89454 12.1808 6.96734 12.405 6.97281 13.0133M6.97281 13.0133L6.99936 12.9957C7.02372 12.9939 7.03194 13.0017 7.05342 13.0141L7.06136 13.0188L7.07806 12.9878M7.07806 12.9878C7.12719 13.1667 7.21437 13.4893 7.39379 13.5809C7.79109 13.7839 8.19072 13.7787 8.62265 13.7787L9.58504 13.7797C9.89817 13.7819 10.2132 13.7931 10.5258 13.7971C10.6523 13.7988 11.0378 13.8031 11.1548 13.7775M7.07806 12.9878C6.95352 12.3727 7.10351 11.6962 7.49028 11.1983C7.59374 11.0723 7.7488 10.8845 7.89894 10.8092C8.64892 10.433 9.58504 10.7203 10.3854 10.7328C10.7167 10.738 11.4489 10.873 11.7219 10.708C12.1143 10.4708 12.1343 9.67882 12.1938 9.27816C12.2445 8.95852 12.2677 8.58764 12.3515 8.26621L12.373 8.17936M11.1548 13.7775C11.0628 13.6892 10.9237 13.5407 10.8815 13.4224C10.504 12.3612 11.2297 11.0149 12.2313 10.576C12.5181 10.4504 12.7348 10.4528 13.0112 10.5568M11.1548 13.7775C11.6146 14.0248 12.066 14.3104 12.5186 14.5667L16.6493 16.9432C17.2383 17.2913 17.8309 17.6332 18.4271 17.9689C18.6419 18.0914 18.8691 18.2417 19.0854 18.3542M13.0112 10.5568C13.1063 10.4192 12.8943 9.01942 12.8778 8.77275C12.8666 8.60441 12.7676 8.32165 12.608 8.24224C12.5525 8.21465 12.4577 8.12563 12.3911 8.13675L12.373 8.17936M13.0112 10.5568L17.1631 12.956C18.1843 13.5435 19.2137 14.1281 20.2339 14.719C20.4413 14.8391 20.6674 14.9588 20.8657 15.0922M19.0854 18.3542C19.1209 18.379 19.1407 18.3825 19.1814 18.3942M19.0854 18.3542L19.1011 18.3466C19.104 18.3412 19.1069 18.3358 19.1098 18.3303C18.8049 17.6761 18.9596 16.8323 19.3527 16.2461C19.6803 15.7576 20.1644 15.2966 20.755 15.1689M19.1814 18.3942C19.214 18.4153 19.2471 18.4358 19.2805 18.4557C19.5706 18.6301 19.7862 18.7023 20.1249 18.6068C21.1569 18.3158 21.919 16.9259 21.687 15.8961C21.5789 15.4161 21.2347 15.3097 20.8657 15.0922M19.1814 18.3942C19.1531 18.3629 19.1064 18.2398 19.0923 18.1974C18.8154 17.3344 19.1482 16.3947 19.7959 15.7902C20.1646 15.4461 20.2845 15.3622 20.761 15.1912L20.755 15.1689M20.8657 15.0922C20.8417 15.2045 20.8098 15.1289 20.755 15.1689M7.78008 5H7.1831C6.89584 5.10261 6.71874 5.2126 6.46172 5.35566C6.16529 5.51992 5.87077 5.68793 5.57857 5.85964L4.50656 6.46588C4.30414 6.57974 4.12609 6.66333 3.93011 6.79531C3.28386 7.23044 2.69578 7.8389 2.35828 8.54464C2.06075 9.16685 1.86874 10.0032 2.1077 10.6703C2.17763 10.8702 2.30135 11.047 2.46531 11.1813C2.72425 11.3932 3.00659 11.5304 3.29125 11.6971L4.92069 12.6345L6.31911 13.4436C6.82563 13.7393 7.27275 14.0648 7.90339 14.1469C8.98362 14.2876 10.245 14.1616 11.3186 14.2963C11.5382 14.3239 12.4408 14.9049 12.6702 15.0375L16.3922 17.1818C16.5816 17.2914 16.7453 17.4395 16.9062 17.5308L19.0879 18.7557C19.1688 18.8019 19.2205 18.8313 19.3039 18.8704C19.3661 18.8995 19.5463 18.9692 19.593 19H20.0161C20.1276 18.9275 20.347 18.8697 20.4798 18.7912C21.4594 18.2125 22.1944 16.8136 21.9541 15.6815C21.836 15.1251 21.23 14.919 20.7916 14.6833C20.4007 14.4718 20.0138 14.2532 19.6309 14.0274L17.9797 13.0516C17.7078 12.8883 17.4436 12.7172 17.1673 12.5596C16.3193 12.0839 15.4755 11.6006 14.636 11.1098C14.4679 11.0137 13.618 10.5847 13.5545 10.4517C13.2833 9.88295 13.4707 8.48175 12.9789 8.0508C12.4918 7.62397 11.6532 7.20289 11.0799 6.88032L9.95874 6.23469C9.76576 6.12554 9.56691 6.02698 9.37462 5.91651C9.13142 5.77583 8.90287 5.60962 8.65105 5.48428C8.35516 5.33697 8.06269 5.17161 7.78008 5ZM3.37916 8.37791C3.33154 8.38796 3.28952 8.38843 3.27857 8.44038C3.35398 8.56579 4.94209 9.4097 5.17667 9.54168L6.61902 10.3505C6.80405 10.4527 6.98744 10.5629 7.17522 10.659C7.21436 10.6699 7.19903 10.6705 7.23502 10.6607C7.30756 10.5514 7.20026 10.4794 7.11814 10.4305C6.9494 10.3299 6.77148 10.2457 6.60095 10.1488L4.60638 9.03492L3.86734 8.61978C3.71844 8.53714 3.53778 8.42846 3.37916 8.37791ZM20.9241 15.4653C20.8263 15.4633 20.6214 15.4604 20.5274 15.4817C20.2862 15.5364 19.9989 15.7491 19.8238 15.9213C19.4392 16.2996 19.1478 16.941 19.1221 17.4826C19.1078 17.7842 19.2242 18.0486 19.4315 18.2596C19.5575 18.3878 19.6267 18.4087 19.7941 18.4117C19.763 18.3944 19.7214 18.3904 19.6852 18.3841C19.3959 18.2692 19.1885 17.9174 19.179 17.6123C19.1613 17.0447 19.4099 16.4427 19.7842 16.0187C19.9856 15.7905 20.3622 15.5177 20.6789 15.5049C20.8573 15.5018 21.0312 15.52 21.2119 15.5094C21.1148 15.4861 21.023 15.477 20.9241 15.4653ZM21.0204 17.7548C20.9062 17.8557 20.7539 17.988 20.6553 18.1005C20.7656 18.0644 20.9519 17.8542 21.0204 17.7548Z" stroke="black" stroke-width="0.5"/>
</svg>
