<svg width="24" height="24" viewBox="0 0 24 24" fill="none" xmlns="http://www.w3.org/2000/svg">
<g clip-path="url(#clip0_322_920)">
<path d="M23.5036 13.6904C23.5133 13.6299 23.4846 13.5633 23.4723 13.4994C23.4479 13.3982 23.4127 13.3 23.3674 13.2064C23.316 13.1116 23.2526 13.0238 23.1789 12.9452L23.1156 12.8844C23.0374 12.8088 22.9525 12.7405 22.8618 12.6805C22.7973 12.6389 22.7301 12.6018 22.6605 12.5695L22.5948 12.559L19.5593 11.421L17.4385 10.6375C17.3305 10.5965 17.2185 10.5673 17.1043 10.5504C16.5634 10.4928 16.0171 10.508 15.4801 10.5958L15.4888 10.5408C15.5029 10.4529 15.4786 10.3588 15.4652 10.2665C15.4519 10.1742 15.4079 9.9924 15.3799 9.88646L15.3869 9.84249C15.3672 9.75479 15.3512 9.67896 15.3289 9.60776C15.2469 9.40005 15.1537 9.19701 15.0497 8.99955C14.9692 8.86423 14.8792 8.73495 14.7801 8.61271C14.7387 8.55353 14.6933 8.49732 14.6441 8.44447C14.5366 8.32567 14.4161 8.21946 14.2848 8.12786C14.2287 8.07602 14.1687 8.02875 14.1052 7.98649C13.9699 7.904 13.8265 7.8358 13.6773 7.78296C13.6221 7.75254 13.5639 7.72814 13.5036 7.71017L11.3854 6.91016L11.205 6.63337L11.1527 6.57429C10.7563 6.0545 10.2226 5.65691 9.61204 5.4267C9.29033 5.29648 6.3047 4.12703 5.62973 3.92357C5.49995 3.88511 5.36793 3.85465 5.23443 3.83234C3.34003 3.53025 1.35367 5.10749 0.62236 7.51056C-0.108946 9.91364 0.753044 12.289 2.69426 13.072C2.69426 13.072 5.17554 14.0596 6.31412 14.4892C6.43891 14.5424 6.56639 14.5891 6.69606 14.629L6.75629 14.6386L7.10407 14.711C7.68418 14.8005 8.27784 14.7296 8.82112 14.5056L10.4102 15.1029C10.3947 15.2551 10.3966 15.4086 10.4158 15.5604C10.4361 15.9331 10.482 16.3039 10.5533 16.6702C10.5734 16.9385 10.6676 17.1958 10.8253 17.4131C10.983 17.6304 11.1981 17.7992 11.4463 17.9006L11.4736 17.9049L11.6372 17.9705L11.692 17.9792L16.4618 19.7545C16.5943 19.8046 16.7313 19.8415 16.8709 19.8648C17.4002 19.9537 17.9437 19.8391 18.3931 19.5439L18.8697 19.2309C19.1361 19.0732 19.3501 18.8399 19.4846 18.5603C19.6191 18.2808 19.6681 17.9676 19.6254 17.6604C19.5788 17.215 19.497 16.7741 19.3809 16.3418L20.0644 16.5974L20.5469 16.7758C20.6791 16.8263 20.8162 16.8633 20.956 16.8861C21.4836 16.9749 22.0255 16.86 22.4726 16.5643L22.9556 16.2467C23.1846 16.0903 23.3723 15.8803 23.5023 15.6349L23.5102 15.5854C23.6465 15.3118 23.6957 15.0028 23.6513 14.7004C23.6393 14.5294 23.5704 14.011 23.5036 13.6904ZM16.9526 11.6423L17.073 11.6615L22.236 13.6122C22.282 13.6289 22.3226 13.658 22.3532 13.6964C22.3838 13.7348 22.4032 13.7809 22.4094 13.8297C22.4156 13.8784 22.4082 13.928 22.3881 13.9728C22.368 14.0177 22.336 14.0562 22.2955 14.084L21.6656 14.5134C21.4604 14.6578 21.2074 14.7165 20.9601 14.6771C20.8937 14.672 20.8278 14.6615 20.763 14.6457L17.6999 13.4695C17.6058 13.4339 17.5081 13.4089 17.4086 13.3948C17.0384 13.3352 16.6593 13.42 16.349 13.6317L15.0848 14.518C15.0153 14.5759 14.9608 14.6499 14.9262 14.7336C14.8916 14.8173 14.8778 14.9081 14.8861 14.9983C14.8944 15.0885 14.9245 15.1753 14.9738 15.2511C15.0231 15.3269 15.0901 15.3895 15.169 15.4334L18.1735 16.5551C18.2071 16.5675 18.2365 16.589 18.2587 16.6172C18.2808 16.6454 18.2947 16.6792 18.2989 16.7149C18.3031 16.7505 18.2974 16.7867 18.2824 16.8193C18.2674 16.8519 18.2437 16.8798 18.214 16.8998L17.4334 17.4292C17.243 17.5615 17.0092 17.6151 16.7807 17.5788C16.7197 17.5746 16.6593 17.565 16.6 17.5499L11.7141 15.728C11.3074 15.5673 11.5631 14.7738 11.8308 14.2923L11.8691 14.2984L11.9898 14.3514C12.0597 14.3798 12.138 14.3791 12.2075 14.3494C12.277 14.3198 12.3319 14.2637 12.3602 14.1935C12.3886 14.1232 12.3879 14.0446 12.3585 13.9749C12.3291 13.9052 12.2733 13.8501 12.2034 13.8218C11.901 13.6213 11.6459 13.357 11.4558 13.0473C11.2657 12.7375 11.1451 12.3899 11.1026 12.0285C11.0976 12.0083 11.0914 11.9885 11.084 11.9691C11.086 11.6911 11.1301 11.4149 11.2146 11.1501C11.2925 10.8962 11.4048 10.6543 11.5482 10.431L11.7514 10.9876C11.7054 11.0776 11.6679 11.1716 11.6392 11.2685C11.3124 12.3325 12.2947 13.8476 13.3554 13.2163C13.5121 13.111 13.6618 12.9956 13.8035 12.8707C14.3106 12.4724 13.5182 12.3009 13.2627 11.6852C13.1193 11.3523 13.1262 10.5699 12.6157 10.4265C12.526 10.4095 12.4336 10.4138 12.3458 10.4389C12.2579 10.4641 12.1771 10.5094 12.1097 10.5713L12.0119 9.95253C12.1132 9.86544 12.2309 9.79958 12.3579 9.75885C12.4849 9.71811 12.6188 9.70332 12.7515 9.71535L12.8282 9.72758C13.2044 9.83267 13.4385 10.2308 13.491 10.7465C13.4858 10.7624 13.4831 10.7791 13.4831 10.7959C13.5108 11.1424 13.6604 11.4675 13.9051 11.7131C14.1499 11.9586 14.4738 12.1087 14.8189 12.1363C14.8916 12.1479 14.9658 12.1301 15.0254 12.0867C15.0849 12.0433 15.1249 11.978 15.1365 11.9051C15.1418 11.8601 15.1355 11.8145 15.1184 11.7726C15.7177 11.6225 16.3384 11.5784 16.9526 11.6423ZM16.7898 14.0008L16.8993 14.5819C16.755 14.6201 16.618 14.6821 16.4939 14.7653L15.952 15.1355L15.422 14.9382L16.6819 14.0794C16.7158 14.0504 16.7519 14.0242 16.7898 14.0008ZM5.52427 9.26745C6.09038 7.40736 7.59029 6.16967 8.95908 6.38795L9.18903 6.42462C9.50722 6.52608 9.79506 6.70567 10.0265 6.94711L9.30552 6.67995L9.07009 6.6424C7.72868 6.42849 6.32208 7.57395 5.79342 9.30473C5.63125 9.79009 5.56587 10.3027 5.60103 10.8131C5.63618 11.3236 5.77119 11.822 5.99832 12.2799C6.13589 12.5386 6.32379 12.7668 6.55092 12.9512C6.77804 13.1356 7.03977 13.2722 7.32059 13.3532L7.53806 13.433L7.98307 13.5997C7.7491 13.6467 7.50881 13.6523 7.27304 13.6162L7.04856 13.5804L6.74327 13.4528C5.4998 12.8712 4.96429 11.0891 5.52427 9.26745ZM13.5871 8.9467C13.6708 9.00576 13.7484 9.0729 13.819 9.14715L13.8889 9.23721C13.9565 9.32074 14.0194 9.40793 14.0774 9.49839L14.1265 9.61331C14.1809 9.7121 14.2264 9.81557 14.2625 9.92248C14.2563 9.96096 14.2822 10.0102 14.297 10.0576C14.3119 10.1051 14.3568 10.2814 14.3767 10.4029C14.3834 10.452 14.3867 10.5015 14.3868 10.5511C14.4037 10.6778 14.4133 10.8055 14.4157 10.9334C14.4078 10.9828 14.3981 11.0433 14.3894 11.0983C14.3789 11.1999 14.3628 11.3008 14.3411 11.4006C14.1442 11.2246 14.0225 10.9791 14.0013 10.7151C13.9802 10.4249 13.9012 10.142 13.769 9.88325C13.6873 9.71685 13.5721 9.56925 13.4308 9.44972C13.2895 9.33018 13.1251 9.24128 12.9478 9.1886L12.8055 9.1659C11.924 9.02533 11.0174 9.81649 10.6369 11.041C10.3977 11.7245 10.4332 12.4743 10.7358 13.1312C10.8211 13.288 10.9338 13.4282 11.0685 13.545C11.1375 13.6405 11.201 13.7352 11.2818 13.827C11.2748 13.854 11.2704 13.8816 11.2686 13.9095L11.2187 14.2228C10.2643 13.8001 9.82594 12.3942 10.2816 10.9449C10.7373 9.49562 11.8896 8.50126 12.9409 8.6689L13.1106 8.69596C13.1503 8.71021 13.1889 8.72766 13.2258 8.74816C13.32 8.78085 13.4112 8.82179 13.4982 8.87052L13.5871 8.9467ZM9.94297 13.7375L7.46279 12.7783C6.3888 12.4718 5.86596 10.9623 6.31466 9.41604C6.76335 7.8698 7.92266 6.97239 8.97389 7.14002L9.14362 7.16709L11.8713 8.19394C11.3474 8.42911 10.8827 8.77928 10.5114 9.21861C10.1401 9.65794 9.87173 10.1752 9.72603 10.7323C9.55941 11.2225 9.49275 11.7411 9.53002 12.2574C9.56729 12.7738 9.70773 13.2771 9.94297 13.7375ZM4.99362 9.10955C4.79294 9.69733 4.71018 10.319 4.75011 10.9388C4.79004 11.5586 4.95187 12.1641 5.22627 12.7204C5.26347 12.7854 5.30403 12.8483 5.3478 12.9089L3.10699 12.033C1.78269 11.5005 1.06124 9.72258 1.66132 7.75516C2.22655 5.90057 3.70807 4.6374 5.03853 4.84957L5.29038 4.88973C5.67035 5.00669 6.95698 5.49372 7.9403 5.876C7.21773 6.12229 6.56869 6.54788 6.05351 7.11321C5.53833 7.67854 5.17374 8.36527 4.99362 9.10955ZM16.4046 18.0712C16.4962 18.1085 16.5918 18.1351 16.6895 18.1505C16.742 18.1616 16.795 18.17 16.8483 18.1758L16.9634 18.7916L16.8156 18.7681L14.7651 18.0014L12.0495 17.0047L12.0166 16.9994L11.8476 16.933C11.7807 16.9027 11.7249 16.8524 11.6878 16.789C11.6506 16.7255 11.634 16.652 11.6402 16.5786C11.6234 16.5083 11.6137 16.4278 11.6004 16.3355L16.4046 18.0712ZM17.5219 18.7398L17.3965 18.0828C17.5188 18.0409 17.6355 17.9837 17.7437 17.9127L18.4336 17.459C18.4603 17.6437 18.485 17.8054 18.4918 17.8685C18.4967 17.9639 18.4736 18.0586 18.4256 18.1411C18.3775 18.2236 18.3065 18.2902 18.2213 18.3327C18.0443 18.4567 17.751 18.641 17.751 18.641C17.6792 18.6837 17.6022 18.7169 17.5219 18.7398ZM17.4451 14.5393L17.3356 13.9582C17.3929 13.9618 17.4498 13.9708 17.5053 13.9852L20.5683 15.1276C20.6635 15.1513 20.7606 15.1668 20.8585 15.1738L20.9673 15.7943L20.907 15.7847L20.439 15.5861L17.8658 14.612C17.7709 14.5791 17.6735 14.5542 17.5745 14.5374L17.4451 14.5393ZM21.5297 15.7882L21.4202 15.207C21.6204 15.1649 21.8106 15.0842 21.9803 14.9694L22.5403 14.5909C22.5585 14.7234 22.5738 14.8386 22.5832 14.8852C22.5959 14.9641 22.583 15.045 22.5464 15.1161C22.4908 15.2086 22.4149 15.2871 22.3245 15.3456L21.8543 15.6539C21.755 15.7179 21.645 15.7634 21.5297 15.7882Z" fill="#082F49"/>
<path d="M5.03765 4.85507C3.70719 4.6429 2.22568 5.90606 1.66044 7.76066C1.06036 9.72807 1.78181 11.506 3.10611 12.0385L5.34692 12.9144C5.30316 12.8538 5.26259 12.7909 5.22539 12.7259C4.9504 12.1688 4.78832 11.5623 4.74854 10.9415C4.70875 10.3207 4.79206 9.69807 4.99362 9.10955C5.1787 8.36988 5.54624 7.68866 6.06236 7.12866C6.57847 6.56867 7.22655 6.14793 7.94686 5.90523C6.95348 5.51571 5.66685 5.02868 5.29695 4.91896L5.03765 4.85507Z" fill="#3B82F6"/>
<path d="M7.24654 13.6063C7.48231 13.6424 7.72261 13.6369 7.95657 13.5899L7.51156 13.4231L7.32059 13.3532C7.03977 13.2722 6.77804 13.1356 6.55092 12.9512C6.32379 12.7668 6.13589 12.5386 5.99832 12.2799C5.55018 11.3565 5.48378 10.2924 5.81357 9.31922C6.34222 7.58844 7.74882 6.44298 9.09023 6.65689L9.32567 6.69443L10.0265 6.94711C9.7867 6.70689 9.49016 6.53161 9.1645 6.43762L8.93455 6.40095C7.56576 6.18267 6.06585 7.42035 5.49974 9.28045C4.93362 11.1405 5.48622 12.8859 6.69137 13.4614L6.9984 13.578L7.24654 13.6063Z" fill="white"/>
<path d="M13.2304 8.75453C13.1935 8.73403 13.1549 8.71658 13.1152 8.70233L12.9455 8.67527C11.8942 8.50763 10.7336 9.48375 10.2862 10.9513C9.83886 12.4188 10.2689 13.8064 11.2233 14.2292L11.2732 13.9159C11.275 13.888 11.2794 13.8604 11.2864 13.8334C11.2056 13.7416 11.1421 13.6469 11.0731 13.5514C10.9384 13.4346 10.8257 13.2944 10.7404 13.1376C10.4378 12.4806 10.4023 11.7308 10.6415 11.0474C11.0165 9.82199 11.9286 9.0317 12.8101 9.17227L12.9524 9.19497C13.1297 9.24765 13.2941 9.33655 13.4354 9.45609C13.5767 9.57562 13.6919 9.72322 13.7736 9.88962C13.9172 10.1529 14.0047 10.4432 14.0307 10.7423C14.0518 11.0063 14.1735 11.2518 14.3705 11.4278C14.3922 11.328 14.4083 11.2271 14.4187 11.1255C14.4275 11.0705 14.4371 11.0101 14.445 10.9606C14.4427 10.8327 14.433 10.7051 14.4161 10.5783C14.4161 10.5288 14.4127 10.4793 14.4061 10.4302C14.3862 10.3086 14.3535 10.1963 14.3264 10.0849C14.2992 9.97344 14.3076 9.99168 14.2918 9.9497C14.2557 9.84279 14.2102 9.73933 14.1558 9.64054L14.1068 9.52562C14.0487 9.43516 13.9858 9.34796 13.9182 9.26444L13.8484 9.17438C13.7778 9.10013 13.7001 9.03299 13.6165 8.97393L13.5322 8.90411C13.4368 8.84436 13.3357 8.79425 13.2304 8.75453Z" fill="white"/>
<path d="M9.75734 10.7824C9.90304 10.2253 10.1714 9.70803 10.5427 9.2687C10.914 8.82937 11.3787 8.4792 11.9026 8.24403L9.17493 7.21718L9.0052 7.19011C7.95397 7.02247 6.79334 7.99859 6.34597 9.46613C5.8986 10.9337 6.38179 12.5158 7.4941 12.8284L9.97428 13.7876C9.73904 13.3272 9.5986 12.8238 9.56133 12.3075C9.52406 11.7912 9.59072 11.2725 9.75734 10.7824Z" fill="#3B82F6"/>
<path d="M18.4944 17.852C18.5041 17.7916 18.4629 17.6272 18.4362 17.4425L17.7463 17.8962C17.6381 17.9672 17.5215 18.0244 17.3991 18.0663L17.5246 18.7233C17.6066 18.6955 17.6845 18.6567 17.7563 18.6081C17.7563 18.6081 18.0496 18.4237 18.2265 18.2997C18.3087 18.258 18.3774 18.1938 18.4248 18.1146C18.4722 18.0354 18.4963 17.9444 18.4944 17.852Z" fill="white"/>
<path d="M11.8563 16.878L12.0254 16.9445L12.0583 16.9497L14.7739 17.9464L16.8244 18.7131L16.9722 18.7367L16.8571 18.1208C16.8038 18.1151 16.7508 18.1066 16.6983 18.0955C16.6006 18.0801 16.505 18.0535 16.4134 18.0162L11.6179 16.2256C11.6313 16.3179 11.6409 16.3984 11.6577 16.4687C11.638 16.5495 11.647 16.6347 11.6833 16.7095C11.7196 16.7843 11.7808 16.8439 11.8563 16.878Z" fill="white"/>
<path d="M15.3975 14.9512L15.9275 15.1485L16.4693 14.7783C16.5935 14.6951 16.7305 14.6331 16.8748 14.5949L16.7653 14.0138C16.7223 14.0338 16.681 14.0574 16.6418 14.0843L15.3975 14.9512Z" fill="white"/>
<path d="M22.53 15.1134C22.5666 15.0424 22.5795 14.9615 22.5668 14.8826C22.5738 14.8386 22.542 14.7208 22.5239 14.5882L21.9638 14.9668C21.7942 15.0816 21.604 15.1623 21.4038 15.2044L21.5133 15.7856C21.6249 15.759 21.731 15.7129 21.8269 15.6496L22.2971 15.3412C22.3913 15.2845 22.4711 15.2065 22.53 15.1134Z" fill="white"/>
<path d="M20.439 15.5861L20.9215 15.7645L20.9708 15.7723L20.8668 15.1921C20.7689 15.1851 20.6718 15.1696 20.5766 15.1458L17.5137 14.0035C17.4581 13.989 17.4012 13.98 17.3439 13.9764L17.4534 14.5575L17.5574 14.5741C17.6564 14.5909 17.7538 14.6159 17.8487 14.6488L20.439 15.5861Z" fill="white"/>
<path d="M15.1477 11.9407C15.1361 12.0136 15.0961 12.0789 15.0365 12.1223C14.977 12.1657 14.9027 12.1835 14.8301 12.1719C14.485 12.1443 14.1611 11.9942 13.9163 11.7487C13.6716 11.5031 13.522 11.178 13.4943 10.8315C13.4943 10.8147 13.4969 10.798 13.5022 10.7821C13.4497 10.2664 13.2156 9.86827 12.8394 9.76318L12.7627 9.75096C12.6299 9.73892 12.4961 9.75371 12.3691 9.79445C12.242 9.83519 12.1244 9.90104 12.0231 9.98814L12.1209 10.6069C12.1883 10.545 12.2691 10.4997 12.3569 10.4745C12.4447 10.4494 12.5371 10.4451 12.6268 10.4621C13.1373 10.6055 13.1305 11.3879 13.2739 11.7208C13.5312 12.3256 14.3218 12.508 13.8147 12.9063C13.673 13.0312 13.5233 13.1466 13.3666 13.2519C12.2883 13.8523 11.3244 12.3626 11.6362 11.3582C11.6648 11.2613 11.7024 11.1673 11.7483 11.0773L11.5451 10.5207C11.4017 10.744 11.2894 10.9859 11.2115 11.2398C11.127 11.5046 11.0829 11.7808 11.0809 12.0588C11.0883 12.0782 11.0945 12.098 11.0995 12.1182C11.1421 12.4796 11.2626 12.8272 11.4527 13.137C11.6428 13.4467 11.8979 13.711 12.2003 13.9115C12.2702 13.9398 12.326 13.9949 12.3555 14.0646C12.3849 14.1343 12.3855 14.213 12.3572 14.2832C12.3288 14.3534 12.2739 14.4095 12.2044 14.4391C12.1349 14.4688 12.0566 14.4695 11.9867 14.4411L11.8621 14.3423L11.8238 14.3362C11.5561 14.8178 11.3004 15.6113 11.7071 15.7719L16.5921 17.5994C16.6514 17.6144 16.7118 17.6241 16.7728 17.6282C17.0013 17.6646 17.2351 17.611 17.4255 17.4786L18.2061 16.9492C18.2358 16.9293 18.2595 16.9014 18.2745 16.8688C18.2895 16.8361 18.2952 16.8 18.291 16.7643C18.2868 16.7287 18.2729 16.6949 18.2508 16.6667C18.2286 16.6385 18.1992 16.617 18.1656 16.6046L15.169 15.4334C15.0832 15.3933 15.0091 15.3317 14.9538 15.2547C14.8984 15.1776 14.8637 15.0876 14.8528 14.9932C14.842 14.8988 14.8554 14.8031 14.8919 14.7153C14.9283 14.6275 14.9865 14.5505 15.0609 14.4917L16.3251 13.6054C16.6487 13.3943 17.0418 13.3194 17.4196 13.3966C17.5191 13.4107 17.6168 13.4357 17.7108 13.4712L20.7593 14.6338C20.824 14.6496 20.89 14.6602 20.9564 14.6652C21.2037 14.7046 21.4567 14.6459 21.6619 14.5015L22.2918 14.0721C22.3322 14.0443 22.3643 14.0058 22.3844 13.961C22.4045 13.9161 22.4118 13.8666 22.4057 13.8178C22.3995 13.769 22.3801 13.7229 22.3495 13.6845C22.3189 13.6462 22.2783 13.6171 22.2323 13.6004L17.0693 11.6497L16.9489 11.6305C16.3363 11.5795 15.7195 11.6356 15.1258 11.7963C15.1463 11.8415 15.1539 11.8915 15.1477 11.9407Z" fill="white"/>
</g>
<defs>
<clipPath id="clip0_322_920">
<rect width="24" height="24" fill="white"/>
</clipPath>
</defs>
</svg>
