<svg width="24" height="24" viewBox="0 0 24 24" fill="none" xmlns="http://www.w3.org/2000/svg">
<path d="M23.9557 13.4965L23.434 11.9323C23.3762 11.7653 23.2734 11.6159 23.136 11.4992C22.9986 11.3825 22.8315 11.3026 22.6515 11.2676L19.1251 10.5879V10.538C19.0335 10.368 18.8928 10.2268 18.7199 10.1311C18.547 10.0355 18.3491 9.98934 18.1496 9.99824H18.0453L17.847 9.57345C17.7595 9.38602 17.6137 9.22897 17.4297 9.12368C17.2154 8.97814 16.9618 8.89486 16.6994 8.8838H16.569C16.4814 8.8884 16.3943 8.89842 16.3081 8.91378C16.1779 8.93891 16.0504 8.97572 15.9273 9.02373C15.798 9.076 15.674 9.13957 15.5569 9.21363C15.3396 9.34785 15.1604 9.53157 15.0353 9.74836V9.71838C14.9452 9.55406 14.8092 9.417 14.6424 9.32255C14.4757 9.22811 14.2847 9.18001 14.0911 9.18365H13.9867L13.7885 8.76386C13.7018 8.57458 13.556 8.41569 13.3712 8.30909C13.1511 8.17032 12.8938 8.09567 12.6304 8.0942H12.5261C12.4368 8.09848 12.3479 8.1085 12.26 8.12418C12.1296 8.15104 12.0021 8.18952 11.8792 8.23912C11.6144 8.34243 11.376 8.49925 11.1802 8.69889C11.1082 8.77893 11.0453 8.86604 10.9924 8.95876V8.93377C10.905 8.76988 10.772 8.63228 10.6082 8.53617C10.4443 8.44005 10.256 8.38914 10.0638 8.38905H9.91777L9.72475 7.96426C9.63718 7.77683 9.49146 7.61978 9.30742 7.51449C9.08892 7.37206 8.83095 7.29548 8.56666 7.2946H8.43625C8.34851 7.2967 8.26118 7.30674 8.17542 7.32458C8.04456 7.34736 7.91681 7.38424 7.7946 7.43453C7.67362 7.48083 7.55819 7.53947 7.45031 7.60944C7.23013 7.74684 7.0505 7.93614 6.92865 8.15916V8.12918C6.84123 7.96528 6.70827 7.82769 6.54443 7.73157C6.38058 7.63545 6.19221 7.58454 6.00009 7.58445H5.84881L5.65579 7.16466C5.56911 6.97538 5.42331 6.8165 5.23846 6.70989C5.01775 6.57315 4.76055 6.50027 4.4977 6.5H4.36729C4.278 6.50428 4.18912 6.5143 4.10124 6.52999C3.97098 6.55511 3.84348 6.59192 3.72043 6.63993C3.49889 6.7193 3.29742 6.84272 3.12928 7.00207C2.96114 7.16143 2.83014 7.3531 2.74492 7.56446C2.64314 7.82208 2.64314 8.10645 2.74492 8.36406L0.319191 10.6379C0.177522 10.7688 0.077369 10.9353 0.0302934 11.1184C-0.0167823 11.3014 -0.00886067 11.4935 0.0531437 11.6724L0.574805 13.2366C0.632643 13.4036 0.735452 13.5529 0.872845 13.6696C1.01024 13.7863 1.17735 13.8662 1.3573 13.9013L19.8293 17.4945C19.8969 17.5018 19.9652 17.5018 20.0328 17.4945C20.3025 17.4961 20.5624 17.3976 20.7579 17.2196L23.6896 14.496C23.8247 14.3683 23.9208 14.2078 23.9676 14.0316C24.0145 13.8555 24.0104 13.6705 23.9557 13.4965ZM22.9645 13.8113L20.2415 16.3101L19.8815 15.2706L22.6046 12.7718L22.9645 13.8113ZM4.12211 7.57446C4.22867 7.52775 4.34403 7.50225 4.46119 7.4995C4.58638 7.4995 4.67507 7.53448 4.70637 7.59945C4.73767 7.66441 4.58638 7.91429 4.32034 8.01923C4.21167 8.06521 4.09477 8.09066 3.97604 8.0942C3.85606 8.0942 3.76216 8.05921 3.73086 7.98925C3.69956 7.91928 3.85606 7.67941 4.12211 7.57446ZM16.3186 9.95326C16.4255 9.90827 16.5408 9.88447 16.6576 9.88329C16.7776 9.88329 16.8715 9.91828 16.9028 9.98324C16.9341 10.0482 16.7828 10.2981 16.5116 10.403C16.408 10.4556 16.2945 10.4879 16.1777 10.498C16.0525 10.498 15.9638 10.463 15.9325 10.393C15.9012 10.3231 16.0473 10.0582 16.3186 9.95326ZM19.4903 14.9507L1.04952 11.3576L3.38656 9.20364L3.24571 9.35856C3.17935 9.43261 3.13707 9.52365 3.12409 9.62045C3.11111 9.71725 3.128 9.81557 3.17268 9.90328L3.20398 9.96825C2.81273 10.1731 2.59364 10.468 2.71884 10.6929C2.84403 10.9178 3.21441 10.8928 3.59523 10.7379L3.84041 11.2376C3.8883 11.3335 3.96688 11.4123 4.06472 11.4625C4.26155 11.5464 4.47536 11.5873 4.69072 11.5824C5.12234 11.5697 5.54594 11.4674 5.93227 11.2826C6.40959 11.0457 6.82095 10.703 7.13209 10.2831C7.18273 10.2098 7.21228 10.125 7.21778 10.0372C7.22327 9.9495 7.20451 9.86192 7.16339 9.78334L6.8817 9.2836L7.49204 9.40354L7.67984 9.81333L7.30946 10.2131C7.24203 10.2876 7.19912 10.3796 7.18612 10.4774C7.17313 10.5752 7.19063 10.6745 7.23643 10.7629L7.89894 11.9972C7.94909 12.092 8.02949 12.1691 8.12847 12.2171C8.32223 12.3046 8.53524 12.3457 8.74924 12.3371C9.18037 12.3251 9.60378 12.2246 9.9908 12.0422C10.469 11.8066 10.8807 11.4637 11.1906 11.0427C11.2413 10.9694 11.2708 10.8846 11.2763 10.7969C11.2818 10.7091 11.263 10.6215 11.2219 10.543L10.9611 9.99824L11.5662 10.1132L11.7592 10.528L11.3941 10.9328C11.3258 11.0067 11.2819 11.0984 11.268 11.1963C11.2541 11.2941 11.2707 11.3937 11.3158 11.4825L11.9835 12.7918C12.0345 12.8873 12.1146 12.9657 12.2131 13.0167C12.4068 13.1042 12.6199 13.1453 12.8339 13.1367C13.2657 13.1252 13.6896 13.0229 14.0754 12.8368C14.5559 12.6024 14.9695 12.2593 15.2805 11.8373C15.3303 11.7636 15.3589 11.6785 15.3635 11.5908C15.3681 11.5031 15.3484 11.4157 15.3065 11.3376L15.0196 10.8028L15.63 10.9178L15.823 11.3426L15.4578 11.7474C15.3906 11.8209 15.3474 11.9117 15.3335 12.0085C15.3196 12.1053 15.3356 12.2039 15.3796 12.2921L16.0473 13.6064C16.0983 13.7019 16.1783 13.7803 16.2768 13.8313C16.4717 13.9154 16.6839 13.9564 16.8976 13.9512C17.3294 13.9398 17.7533 13.8374 18.1392 13.6514C18.6184 13.4152 19.0316 13.0725 19.3442 12.6519C19.39 12.5759 19.4141 12.4897 19.4141 12.402C19.4141 12.3143 19.39 12.2281 19.3442 12.1522L19.0521 11.6074L22.4377 12.2271L19.4903 14.9507ZM5.36888 9.02873C5.41583 9.15366 5.24368 9.33857 4.98285 9.44352C4.87593 9.48097 4.76282 9.4996 4.64898 9.49849C4.60691 9.50252 4.56444 9.49742 4.5247 9.48358C4.48497 9.46974 4.449 9.4475 4.41945 9.41853V9.39354L4.03864 8.57895C4.21775 8.57469 4.39454 8.53913 4.5603 8.47401C4.73493 8.40569 4.89298 8.30362 5.02458 8.17416L5.36888 9.02873ZM5.33758 10.553L5.50451 10.8878C5.24472 10.9928 4.96727 11.0521 4.6855 11.0627C4.55506 11.069 4.42484 11.0468 4.30469 10.9977L4.22122 10.8328L4.2786 10.7878C4.59482 10.5996 4.96719 10.517 5.33758 10.553ZM10.7576 10.7629C10.5637 11.035 10.3155 11.2676 10.0273 11.4475L9.8656 11.1077C10.0052 10.8505 10.2452 10.6565 10.5333 10.5679H10.6429L10.7576 10.7629ZM8.35278 11.5824C8.66528 11.3987 9.03059 11.3147 9.39611 11.3426L9.55782 11.6824C9.29791 11.7864 9.02034 11.844 8.73881 11.8523C8.60888 11.8582 8.47911 11.8378 8.358 11.7923L8.27453 11.6274L8.35278 11.5824ZM14.8318 11.5575C14.631 11.8274 14.3799 12.0595 14.0911 12.2421L13.9241 11.9023C13.9956 11.7729 14.0934 11.6586 14.2116 11.5659C14.3299 11.4732 14.4662 11.4041 14.6127 11.3625H14.7223L14.8318 11.5575ZM12.4165 12.372C12.7291 12.1887 13.0948 12.1064 13.4599 12.1372L13.6216 12.477C13.3618 12.5814 13.0841 12.639 12.8026 12.6469C12.6721 12.6532 12.5419 12.631 12.4217 12.5819L12.3383 12.422L12.4165 12.372ZM18.8956 12.3471C18.7008 12.6182 18.4549 12.8521 18.1705 13.0367L18.0035 12.6969C18.1438 12.4391 18.3833 12.2438 18.6713 12.1522H18.7808L18.8956 12.3471ZM16.4803 13.1666C16.7928 12.9833 17.1585 12.901 17.5236 12.9318L17.6853 13.2666C17.4258 13.3726 17.1482 13.4319 16.8663 13.4415C16.7359 13.4478 16.6056 13.4256 16.4855 13.3765L16.402 13.2116L16.4803 13.1666ZM18.5356 11.6674C18.1227 11.7896 17.775 12.0599 17.5653 12.422C17.0813 12.3802 16.5966 12.4946 16.1881 12.7469L15.8386 12.0622L16.0473 11.8323L16.1047 11.9523V11.9972C16.1517 12.095 16.2303 12.1756 16.329 12.2271C16.4749 12.3177 16.6455 12.3647 16.8194 12.362C16.9989 12.3574 17.176 12.3201 17.341 12.2521C17.5463 12.1958 17.727 12.0772 17.8559 11.9141C17.9848 11.7509 18.0549 11.5521 18.0557 11.3476C18.0506 11.2871 18.0347 11.2279 18.0087 11.1726L17.9409 10.9977H18.1496L18.5356 11.6674ZM17.5758 11.4025C17.6227 11.5275 17.4506 11.7124 17.1845 11.8173C17.0806 11.8603 16.969 11.884 16.8559 11.8873C16.8139 11.8906 16.7716 11.8852 16.732 11.8714C16.6923 11.8576 16.6563 11.8357 16.6263 11.8073V11.7823L16.209 10.9977C16.3881 10.9935 16.5649 10.9579 16.7307 10.8928C16.9067 10.8269 17.0652 10.7245 17.195 10.5929L17.5758 11.4025ZM14.4719 10.8778C14.0595 10.9983 13.7118 11.2669 13.5016 11.6274C13.0178 11.5883 12.5339 11.7024 12.1244 11.9523L11.7749 11.2676L11.9835 11.0377L12.0409 11.1626V11.2276C12.0879 11.3254 12.1666 11.406 12.2652 11.4575C12.4097 11.551 12.5814 11.5983 12.7556 11.5924C12.935 11.5902 13.1121 11.5546 13.2773 11.4875C13.4834 11.431 13.6648 11.3116 13.7937 11.1475C13.9227 10.9833 13.9923 10.7834 13.9919 10.5779C13.9906 10.5191 13.9764 10.4612 13.9502 10.408L13.8459 10.1831H14.0911L14.4719 10.8778ZM13.512 10.6079C13.5537 10.7329 13.3868 10.9128 13.1208 11.0177C13.0175 11.0626 12.9055 11.0864 12.7921 11.0877C12.7505 11.0917 12.7085 11.087 12.6689 11.0741C12.6293 11.0612 12.593 11.0402 12.5626 11.0127L12.5261 10.9977L12.1505 10.1831C12.3296 10.1789 12.5064 10.1433 12.6721 10.0782C12.8461 10.011 13.0041 9.91068 13.1364 9.78334L13.512 10.6079ZM10.4081 10.0832C9.99438 10.2039 9.64621 10.4747 9.43784 10.8378C8.95327 10.7887 8.46604 10.9036 8.06065 11.1626L7.70071 10.498L7.90937 10.2681L7.96675 10.393V10.458C8.01238 10.555 8.08913 10.6356 8.18585 10.6879C8.33996 10.7857 8.52297 10.833 8.70751 10.8228C8.8868 10.8201 9.06388 10.7845 9.22917 10.7179C9.43492 10.6623 9.61609 10.5439 9.74511 10.3806C9.87412 10.2173 9.94391 10.0181 9.94385 9.81333C9.9431 9.75284 9.92887 9.69321 9.90212 9.63842L9.79778 9.41353H10.0117L10.4081 10.0832ZM9.44827 9.81833C9.49 9.94326 9.32307 10.1282 9.05703 10.2331C8.95254 10.2738 8.84115 10.2958 8.72838 10.2981C8.68675 10.3021 8.64471 10.2974 8.60511 10.2845C8.56551 10.2716 8.52927 10.2506 8.49885 10.2231L8.12325 9.41353C8.30299 9.41011 8.48027 9.37275 8.64491 9.30359C8.81988 9.2382 8.97819 9.13766 9.10919 9.00874L9.44827 9.81833ZM6.70433 9.96325C6.50927 10.2358 6.26133 10.47 5.974 10.6529L5.81229 10.3131C5.87975 10.1846 5.97369 10.0705 6.08846 9.97771C6.20322 9.88494 6.33642 9.81542 6.48002 9.77335H6.58957L6.70433 9.96325ZM12.6043 9.0837C12.7243 9.0837 12.8182 9.11868 12.8443 9.18864C12.8704 9.25861 12.7243 9.49849 12.4583 9.60843C12.3505 9.65108 12.2357 9.67478 12.1192 9.6784C11.994 9.6784 11.9053 9.64342 11.874 9.57345C11.8427 9.50349 11.994 9.26361 12.26 9.15366C12.3666 9.11381 12.4795 9.09183 12.5939 9.0887L12.6043 9.0837ZM8.53536 8.2891C8.66056 8.2891 8.75446 8.32408 8.78054 8.39405C8.80663 8.46401 8.66056 8.70889 8.39452 8.81383C8.28757 8.85882 8.17223 8.88262 8.05544 8.8838C7.93024 8.8838 7.83634 8.84882 7.81025 8.78385C7.78417 8.71888 7.93024 8.46901 8.19628 8.36406C8.30013 8.32073 8.41171 8.29698 8.52493 8.2941L8.53536 8.2891ZM6.34438 9.28859C5.92999 9.41055 5.58061 9.68082 5.36888 10.0432C4.88672 10.0041 4.40453 10.1183 3.99691 10.3681L3.65783 9.68839L3.86649 9.45851L3.92387 9.57845V9.64841C3.9695 9.74543 4.04625 9.82597 4.14297 9.8783C4.29812 9.97386 4.48037 10.021 4.66463 10.0132C4.84423 10.0087 5.02128 9.97136 5.1863 9.90328C5.39055 9.84664 5.56989 9.72762 5.69702 9.56434C5.82415 9.40105 5.8921 9.20244 5.89054 8.99874C5.88663 8.93865 5.87253 8.87958 5.84881 8.82383L5.74447 8.60394H5.95835L6.34438 9.28859ZM1.2321 11.9023L19.3859 15.4005L19.7407 16.4L1.57118 12.9218L1.2321 11.9023Z" fill="#171717"/>
<path d="M20.2415 16.3001L22.9697 13.7913L22.6046 12.7518L19.8815 15.2606L20.2415 16.3001Z" fill="white"/>
<path d="M19.7407 16.435L19.3859 15.4155L1.2321 11.9073L1.58683 12.9218L19.7407 16.435Z" fill="white"/>
<path d="M19.3494 12.1222C19.3952 12.1981 19.4193 12.2843 19.4193 12.372C19.4193 12.4598 19.3952 12.5459 19.3494 12.6219C19.0368 13.0425 18.6236 13.3852 18.1444 13.6214C17.7585 13.8075 17.3346 13.9098 16.9028 13.9213C16.6891 13.9264 16.4769 13.8854 16.282 13.8013C16.1835 13.7503 16.1035 13.6719 16.0525 13.5764L15.3848 12.2621C15.3408 12.1739 15.3248 12.0753 15.3387 11.9785C15.3526 11.8817 15.3958 11.7909 15.463 11.7174L15.8282 11.3126L15.6352 10.8878L15.0248 10.7728L15.3117 11.3076C15.3536 11.3857 15.3733 11.4731 15.3687 11.5608C15.3641 11.6485 15.3355 11.7336 15.2857 11.8073C14.9747 12.2293 14.5611 12.5724 14.0806 12.8068C13.6948 12.9929 13.2709 13.0952 12.8391 13.1067C12.6251 13.1153 12.4121 13.0742 12.2183 12.9867C12.1198 12.9358 12.0397 12.8573 11.9888 12.7618L11.295 11.4975C11.2498 11.4087 11.2332 11.3091 11.2471 11.2113C11.2611 11.1134 11.3049 11.0217 11.3732 10.9478L11.7384 10.543L11.5454 10.1282L10.9611 9.99824L11.2428 10.523C11.2839 10.6016 11.3027 10.6891 11.2972 10.7769C11.2917 10.8646 11.2621 10.9494 11.2115 11.0227C10.9016 11.4437 10.4899 11.7866 10.0117 12.0222C9.62465 12.2046 9.20123 12.3051 8.77011 12.3171C8.55611 12.3257 8.3431 12.2846 8.14933 12.1971C8.05036 12.1491 7.96996 12.0721 7.9198 11.9772L7.23121 10.6979C7.1861 10.6091 7.16946 10.5095 7.18339 10.4117C7.19732 10.3138 7.24119 10.2221 7.30946 10.1482L7.67984 9.74836L7.49204 9.33857L6.8817 9.21863L7.16339 9.71838C7.20451 9.79696 7.22327 9.88454 7.21778 9.97228C7.21228 10.06 7.18273 10.1448 7.13209 10.2181C6.82095 10.6381 6.40959 10.9807 5.93227 11.2176C5.54594 11.4025 5.12234 11.5048 4.69072 11.5175C4.47536 11.5224 4.26155 11.4814 4.06472 11.3975C3.96688 11.3473 3.8883 11.2686 3.84041 11.1726L3.59523 10.6729C3.21441 10.8278 2.8336 10.8178 2.71884 10.6279C2.60407 10.438 2.81273 10.1282 3.20398 9.90328L3.17268 9.83832C3.128 9.75061 3.11111 9.65228 3.12409 9.55548C3.13707 9.45868 3.17935 9.36764 3.24571 9.29359L3.38656 9.13867L1.04952 11.3576L19.4955 14.9258L22.4377 12.2271L19.0729 11.5774L19.3494 12.1222ZM20.6744 12.9018C20.7996 13.1117 20.5649 13.4415 20.1528 13.6464C19.7407 13.8513 19.3025 13.8463 19.1773 13.6464C19.0521 13.4465 19.2868 13.1067 19.6989 12.9018C20.111 12.6969 20.5492 12.6919 20.6744 12.9018Z" fill="#FB923C"/>
<path d="M19.1773 13.6364C19.3025 13.8463 19.7354 13.8513 20.1528 13.6364C20.5701 13.4215 20.7996 13.1017 20.6744 12.8918C20.5492 12.6819 20.111 12.6769 19.6989 12.8918C19.2868 13.1067 19.0521 13.4265 19.1773 13.6364Z" fill="#171717"/>
<path d="M16.8767 13.4415C17.1586 13.4319 17.4363 13.3726 17.6957 13.2666L17.534 12.9318C17.169 12.901 16.8032 12.9833 16.4907 13.1666L16.4333 13.2116L16.5168 13.3765C16.6305 13.4227 16.7533 13.4448 16.8767 13.4415Z" fill="white"/>
<path d="M17.9931 12.6969L18.16 13.0367C18.4444 12.8521 18.6903 12.6182 18.8851 12.3471L18.786 12.1372H18.6765C18.5296 12.1826 18.3936 12.2555 18.2763 12.3515C18.159 12.4476 18.0628 12.565 17.9931 12.6969Z" fill="white"/>
<path d="M18.1496 10.9977H17.9409L18.04 11.2176C18.066 11.2729 18.0819 11.3321 18.087 11.3925C18.0862 11.5971 18.0161 11.7959 17.8872 11.959C17.7583 12.1222 17.5776 12.2408 17.3723 12.2971C17.2073 12.365 17.0302 12.4023 16.8507 12.407C16.6768 12.4096 16.5062 12.3627 16.3603 12.2721C16.2616 12.2206 16.183 12.14 16.136 12.0422V11.9972L16.0786 11.8773L15.8699 12.1072L16.1777 12.7518C16.5862 12.4996 17.0709 12.3852 17.5549 12.427C17.7646 12.0649 18.1122 11.7945 18.5252 11.6724L18.1496 10.9977Z" fill="white"/>
<path d="M16.6994 10.8678C16.5336 10.9329 16.3568 10.9685 16.1777 10.9727L16.5533 11.7873V11.8123C16.5833 11.8407 16.6193 11.8626 16.6589 11.8764C16.6986 11.8902 16.7408 11.8956 16.7828 11.8923C16.896 11.889 17.0075 11.8653 17.1115 11.8223C17.3775 11.7174 17.5497 11.5325 17.5027 11.4075L17.1115 10.5679C16.9969 10.6938 16.8566 10.7958 16.6994 10.8678Z" fill="white"/>
<path d="M15.9273 10.373C15.9586 10.443 16.0473 10.478 16.1725 10.478C16.2896 10.4748 16.4049 10.4494 16.5116 10.403C16.7828 10.2981 16.955 10.1082 16.9028 9.98324C16.8507 9.85831 16.7776 9.88329 16.6576 9.88329C16.5408 9.88447 16.4255 9.90827 16.3186 9.95326C16.0473 10.0582 15.8751 10.2481 15.9273 10.373Z" fill="white"/>
<path d="M13.9293 11.9023L14.0963 12.2421C14.3795 12.0581 14.6252 11.826 14.8214 11.5575L14.7066 11.3476H14.5971C14.453 11.3932 14.3198 11.4657 14.2052 11.5609C14.0906 11.6561 13.9969 11.7721 13.9293 11.9023Z" fill="white"/>
<path d="M12.813 12.6469C13.0933 12.6454 13.3709 12.5945 13.632 12.497L13.4703 12.1571C13.1052 12.1264 12.7395 12.2087 12.427 12.392L12.3696 12.442L12.453 12.6019C12.5683 12.6413 12.691 12.6566 12.813 12.6469Z" fill="white"/>
<path d="M14.0911 10.1831H13.8772L13.9815 10.408C14.0077 10.4612 14.0219 10.5191 14.0232 10.5779C14.0255 10.7857 13.9563 10.9885 13.8261 11.1547C13.696 11.3209 13.5122 11.4414 13.3034 11.4975C13.1382 11.5646 12.961 11.6002 12.7817 11.6024C12.6075 11.6083 12.4358 11.561 12.2913 11.4675C12.1927 11.416 12.114 11.3354 12.067 11.2376V11.1726L12.0096 11.0477L11.801 11.2776L12.1505 11.9622C12.56 11.7124 13.0439 11.5983 13.5277 11.6374C13.7379 11.2769 14.0856 11.0083 14.498 10.8878L14.0911 10.1831Z" fill="white"/>
<path d="M12.6461 10.0732C12.4803 10.1383 12.3035 10.1739 12.1244 10.1781L12.5261 10.9977V11.0227C12.5565 11.0502 12.5927 11.0712 12.6323 11.0841C12.6719 11.097 12.714 11.1017 12.7556 11.0977C12.869 11.0964 12.9809 11.0726 13.0843 11.0277C13.3503 10.9228 13.5172 10.7429 13.4755 10.6179L13.0843 9.78334C12.9591 9.90616 12.8103 10.0046 12.6461 10.0732Z" fill="white"/>
<path d="M11.8636 9.57845C11.8949 9.64841 11.9835 9.6834 12.1087 9.6834C12.2252 9.67977 12.3401 9.65607 12.4478 9.61343C12.7139 9.50349 12.8912 9.31858 12.8339 9.19364C12.7765 9.0687 12.7139 9.0887 12.5939 9.0887C12.4757 9.09226 12.3591 9.11595 12.2496 9.15866C12.0044 9.2686 11.8062 9.45351 11.8636 9.57845Z" fill="white"/>
<path d="M8.74924 11.8523C9.03078 11.844 9.30834 11.7864 9.56825 11.6824L9.39611 11.3426C9.03059 11.3147 8.66528 11.3987 8.35278 11.5824L8.2954 11.6274L8.37886 11.7923C8.49673 11.8364 8.6228 11.8568 8.74924 11.8523Z" fill="white"/>
<path d="M9.8656 11.1077L10.0273 11.4475C10.3155 11.2676 10.5637 11.035 10.7576 10.7629L10.6429 10.553H10.5333C10.3893 10.5986 10.2561 10.6711 10.1415 10.7663C10.0269 10.8615 9.9331 10.9775 9.8656 11.1077Z" fill="white"/>
<path d="M9.91777 9.61843C9.94452 9.67322 9.95875 9.73285 9.9595 9.79334C9.95924 9.99878 9.8887 10.1985 9.75868 10.3618C9.62866 10.5252 9.44633 10.6432 9.23961 10.6979C9.07432 10.7645 8.89723 10.8001 8.71795 10.8028C8.53341 10.813 8.35039 10.7657 8.19628 10.6679C8.09957 10.6156 8.02281 10.535 7.97719 10.438V10.373L7.9198 10.2481L7.71114 10.478L8.06065 11.1676C8.46604 10.9086 8.95327 10.7937 9.43784 10.8428C9.64621 10.4797 9.99438 10.2089 10.4081 10.0882L10.0325 9.38854H9.81865L9.91777 9.61843Z" fill="white"/>
<path d="M8.58231 9.2786C8.41767 9.34776 8.24039 9.38512 8.06065 9.38854L8.43625 10.1981C8.46667 10.2256 8.50291 10.2466 8.54251 10.2595C8.58211 10.2724 8.62415 10.2771 8.66578 10.2731C8.77855 10.2709 8.88994 10.2488 8.99443 10.2081C9.26047 10.1032 9.42741 9.91828 9.38567 9.79334L9.04659 8.99874C8.9141 9.12227 8.75589 9.21763 8.58231 9.2786Z" fill="white"/>
<path d="M7.79982 8.78885C7.8259 8.85381 7.9198 8.8888 8.045 8.8888C8.1618 8.88762 8.27714 8.86382 8.38408 8.81883C8.65013 8.71388 8.82749 8.52398 8.77011 8.39904C8.71273 8.2741 8.65013 8.2941 8.52493 8.2941C8.40783 8.29725 8.29256 8.32274 8.18585 8.36906C7.9198 8.49899 7.74244 8.66391 7.79982 8.78885Z" fill="white"/>
<path d="M4.2786 10.7878L4.22122 10.8328L4.30469 10.9977C4.42484 11.0468 4.55506 11.069 4.6855 11.0627C4.96727 11.0521 5.24472 10.9928 5.50451 10.8878L5.33758 10.553C4.96719 10.517 4.59482 10.5996 4.2786 10.7878Z" fill="white"/>
<path d="M5.80186 10.3181L5.96357 10.6579C6.2509 10.475 6.49884 10.2408 6.6939 9.96825L6.57913 9.75836H6.46958C6.32412 9.80271 6.18976 9.8753 6.07487 9.9716C5.95999 10.0679 5.86705 10.1858 5.80186 10.3181Z" fill="white"/>
<path d="M5.84881 8.82383C5.87253 8.87958 5.88663 8.93865 5.89054 8.99874C5.89146 9.20373 5.822 9.40333 5.69286 9.56678C5.56372 9.73024 5.38206 9.84847 5.17586 9.90328C5.01085 9.97136 4.8338 10.0087 4.6542 10.0132C4.46993 10.021 4.28768 9.97386 4.13254 9.8783C4.03582 9.82597 3.95906 9.74543 3.91344 9.64841V9.57845L3.85606 9.45851L3.64739 9.68839L3.99691 10.373C4.40453 10.1233 4.88672 10.0091 5.36888 10.0482C5.58061 9.68582 5.92999 9.41555 6.34438 9.29359L5.96879 8.59394H5.75491L5.84881 8.82383Z" fill="white"/>
<path d="M4.98285 8.18915C4.85125 8.31861 4.6932 8.42069 4.51857 8.489C4.3528 8.55412 4.17601 8.58969 3.99691 8.59394L4.37772 9.40853V9.43352C4.41312 9.46603 4.45677 9.48913 4.50434 9.50052C4.55192 9.51192 4.60178 9.51122 4.64898 9.49849C4.76202 9.49422 4.87334 9.47052 4.97763 9.42852C5.23846 9.32358 5.41061 9.13867 5.36366 9.01373L4.98285 8.18915Z" fill="white"/>
<path d="M3.97604 8.09919C4.09477 8.09566 4.21167 8.0702 4.32034 8.02423C4.58638 7.91928 4.75853 7.72938 4.70637 7.60444C4.6542 7.47951 4.58638 7.50449 4.46119 7.50449C4.34439 7.50567 4.22905 7.52947 4.12211 7.57446C3.85606 7.67941 3.67869 7.86931 3.73086 7.99425C3.78303 8.11918 3.85606 8.09919 3.97604 8.09919Z" fill="white"/>
</svg>
