<svg width="48" height="48" viewBox="0 0 48 48" fill="none" xmlns="http://www.w3.org/2000/svg">
<path d="M13.1191 26.3395H13.2291C13.4691 26.3395 13.7091 26.2495 13.9391 26.1895H14.0291C11.8191 25.7395 10.6191 23.7295 11.1091 21.2995C11.2277 20.3481 11.6776 19.4689 12.3798 18.8161C13.082 18.1632 13.9916 17.7786 14.9491 17.7295H15.0991C15.0291 17.6795 14.9691 17.6195 14.8891 17.5695C14.6109 17.3889 14.3163 17.2349 14.0091 17.1095C13.7168 16.9814 13.4118 16.8842 13.0991 16.8195L7.55914 15.5895C7.34905 15.5426 7.1344 15.5191 6.91914 15.5195C4.99914 15.5195 3.52914 17.3595 2.99914 19.7395C2.45914 22.3895 3.32914 24.7395 5.56914 25.1595L10.9991 26.2695C11.2007 26.3108 11.4043 26.3408 11.6091 26.3595C11.8189 26.3745 12.0294 26.3745 12.2391 26.3595C12.5326 26.3738 12.8267 26.3671 13.1191 26.3395Z" fill="white"/>
<path d="M17.3499 25.8197C16.9957 24.8005 16.9333 23.7025 17.1699 22.6497C17.3904 21.4345 17.9806 20.317 18.8599 19.4497L16.7199 18.9997L15.5199 18.7497C15.3268 18.7024 15.1287 18.6789 14.9299 18.6797C14.2038 18.7321 13.5193 19.0384 12.9964 19.5449C12.4735 20.0513 12.1455 20.7257 12.0699 21.4497C11.7099 23.2197 12.4399 24.7997 14.2099 25.1597L15.5299 25.4497L17.3499 25.8197Z" fill="white"/>
<path d="M24.4496 23.9998C24.5683 23.1588 24.9399 22.3737 25.5149 21.7486C26.09 21.1236 26.8414 20.6881 27.6696 20.4998C27.5496 20.4998 27.4396 20.4098 27.3096 20.3798L22.3096 19.3198C22.0985 19.2809 21.8843 19.2608 21.6696 19.2598H21.5996C21.4318 19.261 21.2644 19.2778 21.0996 19.3098H20.9196C20.7652 19.3497 20.6146 19.4032 20.4696 19.4698L20.2696 19.5698C19.7035 19.9154 19.2202 20.3812 18.8539 20.9341C18.4876 21.4871 18.2472 22.1137 18.1496 22.7698C17.8814 23.8611 18.0312 25.0133 18.5696 25.9998C18.6757 26.1785 18.7997 26.346 18.9396 26.4998C19.0709 26.6424 19.2148 26.773 19.3696 26.8898C19.4284 26.9194 19.4852 26.9528 19.5396 26.9898C19.6661 27.0749 19.8 27.1485 19.9396 27.2098C20.1579 27.3069 20.3858 27.3806 20.6196 27.4298L25.5496 28.4298C25.8096 28.4838 26.0741 28.5139 26.3396 28.5198H26.4696C25.6744 28.1025 25.0427 27.4297 24.6763 26.6098C24.3099 25.7899 24.23 24.8706 24.4496 23.9998Z" fill="white"/>
<path d="M29.8892 25.1905C30.1318 24.0163 30.7286 22.9448 31.5992 22.1205L28.8792 21.5405C28.685 21.501 28.4874 21.4809 28.2892 21.4805C27.564 21.5306 26.8797 21.8348 26.3566 22.3396C25.8335 22.8444 25.5051 23.5175 25.4292 24.2405C25.0692 26.0005 25.7992 27.6005 27.5692 28.0005L29.6592 28.4405L30.1692 28.5505C29.7488 27.4821 29.6514 26.3137 29.8892 25.1905Z" fill="white"/>
<path d="M37.2499 27.0001C37.3471 26.035 37.6577 25.1037 38.1593 24.2735C38.6609 23.4433 39.3408 22.735 40.1499 22.2001L36.6799 21.5101C36.3513 21.4401 36.0159 21.4066 35.6799 21.4101C35.4934 21.3998 35.3064 21.3998 35.1199 21.4101H34.8899C34.6567 21.4525 34.4262 21.5093 34.1999 21.5801C33.9601 21.6603 33.7262 21.7572 33.4999 21.8701C33.276 21.9857 33.0619 22.1194 32.8599 22.2701C31.8672 22.9672 31.1711 24.0104 30.9084 25.1946C30.6456 26.3788 30.8352 27.6185 31.4399 28.6701C31.5999 28.96 31.791 29.2316 32.0099 29.4801C32.249 29.7484 32.5136 29.9929 32.7999 30.2101L33.0499 30.3701C33.2596 30.511 33.4803 30.6348 33.7099 30.7401L33.8399 30.7901C34.1209 30.907 34.4122 30.9973 34.7099 31.0601L38.3399 31.7801C37.3744 30.3867 36.9839 28.6743 37.2499 27.0001Z" fill="white"/>
<path d="M45.209 26.9997V26.8197C45.2043 26.5654 45.1843 26.3116 45.149 26.0597V25.9397C45.1446 25.9132 45.1446 25.8862 45.149 25.8597C45.099 25.6297 45.059 25.3997 44.989 25.1797V25.1197C44.989 24.9997 44.889 24.8997 44.849 24.7897C44.809 24.6797 44.749 24.5197 44.689 24.3997C44.6526 24.3342 44.6126 24.2707 44.569 24.2097C44.4839 24.058 44.3904 23.9111 44.289 23.7697L43.999 23.5797C43.8966 23.4655 43.7863 23.3586 43.669 23.2597L43.599 23.1997C43.4473 23.09 43.2867 22.993 43.119 22.9097L42.999 22.8397C42.8014 22.7665 42.5971 22.7129 42.389 22.6797H42.099C40.299 22.6797 38.609 24.6197 38.259 27.1797C37.909 29.7397 39.129 32.2597 41.029 32.4797C41.1288 32.4896 41.2293 32.4896 41.329 32.4797C42.899 32.4797 44.389 30.9997 44.969 28.9097C45.0567 28.6046 45.1235 28.2939 45.169 27.9797C45.2024 27.6541 45.2158 27.3269 45.209 26.9997ZM44.049 27.8197C43.759 29.9097 42.479 31.4897 41.199 31.3397C39.919 31.1897 39.119 29.3397 39.409 27.3397C39.699 25.3397 40.979 23.6797 42.259 23.8197C43.539 23.9597 44.349 25.7397 44.049 27.8297V27.8197Z" fill="white"/>
<path d="M42.2601 23.7899C40.9801 23.6499 39.7101 25.2199 39.4101 27.3099C39.1101 29.3999 39.9201 31.2099 41.2001 31.3099C42.4801 31.4099 43.7601 29.8799 44.0501 27.7899C44.3401 25.6999 43.5501 23.9399 42.2601 23.7899Z" fill="#212C3A"/>
<path d="M47.1185 25.7795V25.5795C47.0664 25.241 46.9895 24.9068 46.8885 24.5795V24.4595C46.7797 24.1154 46.6426 23.781 46.4785 23.4595V23.3895C46.3056 23.066 46.1048 22.7582 45.8785 22.4695L45.8185 22.4095C45.5908 22.1318 45.3362 21.8773 45.0585 21.6495L44.9485 21.5695C44.6823 21.3645 44.3938 21.1901 44.0885 21.0495L43.8885 20.9595C43.7558 20.8993 43.6188 20.8491 43.4785 20.8095H43.3885L43.0885 20.7395L37.1885 19.5695C35.6197 19.2462 33.9871 19.487 32.5785 20.2495L30.4585 19.7995C29.7277 19.1223 28.8248 18.6587 27.8485 18.4595L22.8485 17.3995C21.9043 17.1998 20.9229 17.2727 20.0185 17.6095L17.6185 17.0995C16.5367 15.9608 15.1468 15.1616 13.6185 14.7995L7.99851 13.6295C7.64939 13.5598 7.29451 13.523 6.93851 13.5195C4.14851 13.5195 1.80851 15.8595 1.09851 19.3395C0.298514 23.2595 1.99851 26.4595 5.22851 27.1195L10.6385 28.2295C11.1811 28.3432 11.7341 28.4002 12.2885 28.3995C13.5421 28.4055 14.7793 28.1142 15.8985 27.5495L17.4385 27.8795C18.1732 28.715 19.1656 29.2816 20.2585 29.4895L25.1785 30.4895C25.5731 30.5731 25.9752 30.6166 26.3785 30.6195C27.1247 30.6161 27.8625 30.4631 28.5485 30.1695L30.2185 30.5195C31.2283 31.8621 32.6932 32.7901 34.3385 33.1295C40.6485 34.3895 40.6885 34.3995 40.7985 34.4095C40.975 34.4195 41.152 34.4195 41.3285 34.4095C44.1485 34.4095 46.6585 31.7295 47.1485 28.1895C47.1916 27.7944 47.2117 27.397 47.2085 26.9995C47.2137 26.9129 47.2137 26.8261 47.2085 26.7395C47.1885 26.4095 47.1585 26.0895 47.1185 25.7795ZM41.3085 32.4795C41.2088 32.4895 41.1083 32.4895 41.0085 32.4795C39.1085 32.2595 37.8585 29.8795 38.2385 27.1795C38.6185 24.4795 40.2385 22.6795 42.0785 22.6795H42.3685C42.5766 22.7128 42.7809 22.7664 42.9785 22.8395L43.1385 22.9095C43.3062 22.9928 43.4668 23.0898 43.6185 23.1995L43.6885 23.2595C43.8058 23.3584 43.9161 23.4653 44.0185 23.5795L44.1685 23.7295C44.2699 23.8709 44.3633 24.0178 44.4485 24.1695C44.492 24.2306 44.5321 24.294 44.5685 24.3595C44.6285 24.4795 44.6685 24.6195 44.7285 24.7495C44.7885 24.8795 44.8285 24.9595 44.8685 25.0795V25.1395C44.9385 25.3595 44.9785 25.5895 45.0285 25.8195C45.024 25.846 45.024 25.8731 45.0285 25.8995V26.0195C45.0638 26.2714 45.0838 26.5252 45.0885 26.7795V26.9995C45.0894 27.3338 45.0694 27.6678 45.0285 27.9995C44.983 28.3137 44.9162 28.6244 44.8285 28.9295C44.3685 30.9995 42.8785 32.4795 41.3085 32.4795ZM33.8485 30.9395L33.7185 30.8895C33.4889 30.7842 33.2682 30.6605 33.0585 30.5195L32.8085 30.3595C32.5222 30.1424 32.2576 29.8979 32.0185 29.6295C31.7996 29.3811 31.6085 29.1095 31.4485 28.8195C30.8438 27.768 30.6542 26.5283 30.917 25.3441C31.1797 24.1598 31.8758 23.1167 32.8685 22.4195C33.0705 22.2689 33.2846 22.1351 33.5085 22.0195C33.7348 21.9067 33.9687 21.8097 34.2085 21.7295C34.4348 21.6588 34.6652 21.602 34.8985 21.5595H35.1285C35.315 21.5492 35.502 21.5492 35.6885 21.5595C36.0245 21.556 36.3599 21.5895 36.6885 21.6595L40.1585 22.3495C39.3494 22.8845 38.6695 23.5927 38.1679 24.4229C37.6663 25.2531 37.3557 26.1845 37.2585 27.1495C36.963 28.8641 37.3585 30.6259 38.3585 32.0495L34.7285 31.3295C34.4231 31.2288 34.1283 31.0982 33.8485 30.9395ZM25.5685 28.5695L20.6385 27.5695C20.4047 27.5204 20.1768 27.4466 19.9585 27.3495C19.8189 27.2883 19.685 27.2146 19.5585 27.1295C19.5041 27.0925 19.4473 27.0591 19.3885 27.0295C19.2458 26.8982 19.1153 26.7543 18.9985 26.5995C18.8586 26.4458 18.7347 26.2783 18.6285 26.0995C18.0901 25.1131 17.9403 23.9609 18.2085 22.8695C18.3061 22.2135 18.5465 21.5868 18.9128 21.0339C19.2791 20.4809 19.7624 20.0152 20.3285 19.6695L20.5285 19.5695C20.6735 19.503 20.8241 19.4494 20.9785 19.4095H21.1585C21.3233 19.3775 21.4907 19.3608 21.6585 19.3595H21.7185C21.9332 19.3606 22.1474 19.3806 22.3585 19.4195L27.3585 20.4795C27.4885 20.4795 27.5985 20.5595 27.7185 20.5995C26.8951 20.7724 26.1428 21.1892 25.5596 21.7956C24.9763 22.402 24.5892 23.17 24.4485 23.9995C24.2048 24.8808 24.2703 25.819 24.6342 26.6578C24.9981 27.4966 25.6385 28.1854 26.4485 28.6095H26.3185C26.0678 28.6178 25.8169 28.6045 25.5685 28.5695ZM10.9985 26.2695L5.60851 25.1595C3.36851 24.6995 2.49851 22.3895 2.99851 19.7395C3.48851 17.3595 4.99851 15.5195 6.87851 15.5195C7.09378 15.5191 7.30843 15.5426 7.51851 15.5895L12.9985 16.7695C13.3111 16.8341 13.6161 16.9313 13.9085 17.0595C14.2156 17.1849 14.5103 17.3389 14.7885 17.5195C14.8685 17.5195 14.9285 17.6295 14.9985 17.6795H14.8485C13.891 17.7286 12.9813 18.1132 12.2792 18.7661C11.577 19.4189 11.1271 20.2981 11.0085 21.2495C10.5185 23.6795 11.7185 25.6895 13.9285 26.1395H13.8385C13.6085 26.1995 13.3685 26.2495 13.1285 26.2895H13.0185C12.7369 26.3291 12.4529 26.3491 12.1685 26.3495C11.9588 26.3644 11.7482 26.3644 11.5385 26.3495C11.3573 26.3317 11.1771 26.305 10.9985 26.2695ZM14.1785 25.1495C12.4085 24.7895 11.6785 23.2095 12.0385 21.4395C12.1141 20.7155 12.4421 20.0412 12.965 19.5347C13.488 19.0282 14.1724 18.722 14.8985 18.6695C15.0973 18.6687 15.2954 18.6923 15.4885 18.7395L16.6885 18.9895L18.8285 19.4495C17.9493 20.3168 17.3591 21.4344 17.1385 22.6495C16.902 23.7023 16.9643 24.8003 17.3185 25.8195L15.4985 25.4395L14.1785 25.1495ZM27.5685 27.9995C25.7985 27.6395 25.0685 26.0595 25.4285 24.2795C25.5044 23.5566 25.8328 22.8835 26.3559 22.3787C26.879 21.8739 27.5633 21.5697 28.2885 21.5195C28.4867 21.52 28.6843 21.5401 28.8785 21.5795L31.5985 22.1595C30.7512 22.9613 30.1625 23.9978 29.9077 25.1362C29.653 26.2745 29.7438 27.4631 30.1685 28.5495L29.6585 28.4395L27.5685 27.9995Z" fill="#212C3A"/>
</svg>
