<svg width="48" height="48" viewBox="0 0 48 48" fill="none" xmlns="http://www.w3.org/2000/svg">
<path d="M8.49106 29.2698C8.49106 29.2698 13.1911 30.3198 15.3411 30.7598C15.5785 30.8191 15.8188 30.8658 16.0611 30.8998H16.1711H16.8111C17.8698 30.8946 18.907 30.6008 19.8111 30.0498L21.4911 30.3898V30.5598C21.4835 30.8078 21.5207 31.0551 21.6011 31.2898L22.2811 33.2898C22.3923 33.6165 22.5861 33.9087 22.8437 34.1383C23.1013 34.3678 23.4139 34.5268 23.7511 34.5998L25.7511 35.0298C26.053 35.0968 26.3664 35.0929 26.6666 35.0182C26.9668 34.9436 27.2456 34.8004 27.4811 34.5998L35.2611 36.1698C35.5102 36.2272 35.7654 36.254 36.0211 36.2498C36.9956 36.2608 37.9384 35.9037 38.6611 35.2498C40.6611 33.3098 43.7511 30.3798 43.9611 30.1998C44.3891 29.8435 44.702 29.3685 44.8604 28.8346C45.0187 28.3007 45.0155 27.7319 44.8511 27.1998C44.7011 26.6898 44.4111 25.7898 44.2011 25.2798C44.1692 25.1912 44.1325 25.1044 44.0911 25.0198C44.0212 24.8722 43.9375 24.7316 43.8411 24.5998L43.6211 24.3498L43.3911 24.1398C43.1025 23.8977 42.7592 23.7296 42.3911 23.6498L35.5511 22.2498C35.4142 21.9975 35.2245 21.7775 34.995 21.605C34.7655 21.4324 34.5015 21.3113 34.2211 21.2498L32.2211 20.8198C31.8277 20.7301 31.4163 20.7615 31.0411 20.9098L30.6011 21.0798C30.6011 20.9298 30.5311 20.7798 30.4911 20.6398C30.4511 20.4998 30.2911 20.1298 30.2111 19.9398V19.8698C30.1638 19.7472 30.1104 19.6271 30.0511 19.5098C29.916 19.2587 29.7622 19.018 29.5911 18.7898C29.5281 18.6819 29.458 18.5783 29.3811 18.4798C29.1955 18.2534 28.9915 18.0426 28.7711 17.8498C28.6861 17.7643 28.5959 17.6842 28.5011 17.6098C28.2696 17.4304 28.0219 17.2731 27.7611 17.1398C27.6483 17.0695 27.5315 17.0061 27.4111 16.9498C27.1443 16.839 26.8658 16.7585 26.5811 16.7098C26.4781 16.67 26.3706 16.6431 26.2611 16.6298L22.2611 15.8098C22.1311 15.6598 22.0011 15.5098 21.8611 15.3698L21.7511 15.2798C20.8975 14.4699 19.8339 13.9155 18.6811 13.6798C18.0711 13.5398 12.4211 12.3098 11.1611 12.1398C10.9223 12.1083 10.6819 12.0916 10.4411 12.0898C6.97106 12.0898 3.88106 15.4598 3.26106 19.9198C2.64106 24.3798 4.82106 28.4398 8.49106 29.2698ZM9.43107 14.1498C9.72782 14.0701 10.0338 14.0297 10.3411 14.0298C10.4909 14.0199 10.6412 14.0199 10.7911 14.0298C11.5111 14.1298 13.9311 14.6298 15.7911 15.0298C14.5793 15.6671 13.5465 16.5976 12.7866 17.7365C12.0268 18.8753 11.5642 20.1863 11.4411 21.5498C11.252 22.651 11.2818 23.7786 11.5289 24.8682C11.776 25.9578 12.2355 26.988 12.8811 27.8998C12.9658 28.0045 13.0559 28.1046 13.1511 28.1998L8.91106 27.2798C6.40106 26.7098 4.61106 23.7598 5.12106 20.0998C5.56106 17.1198 7.36106 14.7098 9.43107 14.1498ZM41.9111 25.6298C41.9832 25.651 42.0509 25.6849 42.1111 25.7298L42.1911 25.8198C42.2201 25.8525 42.2437 25.8897 42.2611 25.9298V26.0098C42.2819 26.0951 42.2799 26.1843 42.2554 26.2686C42.2308 26.3529 42.1845 26.4292 42.1211 26.4898L36.5811 31.7998C36.2343 32.1181 35.7817 32.2962 35.3111 32.2998C35.1882 32.3146 35.064 32.3146 34.9411 32.2998L26.1411 30.5198L25.4611 31.1698L23.4611 30.7298L23.5211 29.3798L24.5211 28.4498C24.6611 28.5398 24.7911 28.6398 24.9411 28.7298L25.1811 28.7898C25.2926 28.7904 25.4011 28.7537 25.4893 28.6855C25.5775 28.6173 25.6405 28.5216 25.668 28.4135C25.6956 28.3055 25.6863 28.1913 25.6416 28.0892C25.5968 27.9871 25.5192 27.9028 25.4211 27.8498C24.8817 27.5878 24.404 27.2143 24.0196 26.7541C23.6352 26.2938 23.3528 25.7573 23.1911 25.1798L23.1411 25.0798C23.0657 24.586 23.0657 24.0837 23.1411 23.5898C23.2077 23.1175 23.339 22.6565 23.5311 22.2198L24.0511 23.1498C23.9994 23.3237 23.9594 23.5007 23.9311 23.6798C23.6611 25.5598 25.8011 27.9198 27.5511 26.5498C27.8003 26.3187 28.0341 26.0715 28.2511 25.8098C29.0411 24.9598 27.5811 24.8798 26.9511 23.8598C26.6011 23.3098 26.3911 21.9198 25.4411 21.8098C25.2765 21.8052 25.1131 21.8389 24.9638 21.9083C24.8146 21.9777 24.6835 22.081 24.5811 22.2098L24.2011 21.0998C24.3568 20.9167 24.5476 20.7666 24.7623 20.6584C24.977 20.5502 25.2112 20.4861 25.4511 20.4698H25.6011C26.2911 20.5498 26.8211 21.1898 27.0611 22.0998C27.0611 22.0998 27.0611 22.1498 27.0611 22.1798C27.1635 22.7507 27.4668 23.2662 27.9162 23.633C28.3655 23.9998 28.9312 24.1937 29.5111 24.1798H29.6411C29.7719 24.1746 29.8955 24.1183 29.9853 24.0229C30.075 23.9276 30.1238 23.8008 30.1211 23.6698C30.1189 23.5759 30.0875 23.485 30.0311 23.4098L31.7311 22.7398L33.7311 23.1798L33.0911 23.7898L41.9111 25.6298ZM12.4511 21.7198C12.9311 18.2598 15.2611 15.6398 17.7511 15.6398H18.1711C18.7804 15.7162 19.3612 15.943 19.8611 16.2998L18.4911 16.0298H18.0611C15.6111 16.0298 13.4311 18.4598 12.9811 21.6798C12.6728 23.4964 13.0932 25.3612 14.1511 26.8698C14.4604 27.2946 14.8515 27.6532 15.3014 27.9245C15.7514 28.1959 16.2511 28.3745 16.7711 28.4498L17.1611 28.5298L18.0111 28.6998C17.6079 28.8502 17.1813 28.928 16.7511 28.9298H16.3411L15.7611 28.8098C13.4311 28.1198 12.0011 25.1098 12.4511 21.7198ZM25.8111 18.5698L25.9911 18.6198C26.1835 18.645 26.3718 18.6955 26.5511 18.7698C26.5957 18.7943 26.6391 18.821 26.6811 18.8498C26.8653 18.9337 27.0397 19.0377 27.2011 19.1598L27.3211 19.2798C27.4742 19.413 27.6179 19.5567 27.7511 19.7098C27.8011 19.7698 27.8311 19.8398 27.8811 19.9098C27.9992 20.0689 28.1062 20.2359 28.2011 20.4098C28.2511 20.4998 28.2811 20.6098 28.3311 20.7098C28.3811 20.8098 28.4811 21.0498 28.5411 21.2298C28.6011 21.4098 28.6111 21.5298 28.6511 21.6698C28.6911 21.8098 28.7311 21.9898 28.7611 22.1598C28.7911 22.3298 28.7611 22.5598 28.7611 22.7698C28.7611 22.7698 28.7611 22.8598 28.7611 22.9098L28.6311 22.9898C28.3073 22.7012 28.0862 22.3151 28.0011 21.8898C27.8832 21.3803 27.662 20.9004 27.3511 20.4798C27.1582 20.2078 26.9112 19.9785 26.6255 19.8064C26.3399 19.6343 26.0217 19.5232 25.6911 19.4798H25.4311C23.8211 19.4798 22.4311 21.1398 22.1011 23.4198C21.8692 24.7 22.1454 26.0201 22.8711 27.0998C23.0894 27.3767 23.3573 27.6107 23.6611 27.7898L22.9911 28.4298C22.3085 27.7907 21.8011 26.9871 21.5175 26.096C21.2339 25.2049 21.1835 24.256 21.3711 23.3398C21.7511 20.6098 23.5411 18.5498 25.4611 18.5498H25.7711L25.8111 18.5698ZM20.4211 23.2098C20.1128 25.0264 20.5332 26.8912 21.5911 28.3998L16.9011 27.3998C14.9011 27.1598 13.5411 24.6298 13.9011 21.7598C14.2611 18.8898 16.1411 16.9998 18.0611 16.9998C18.1642 16.9899 18.268 16.9899 18.3711 16.9998L23.5211 17.9998C22.6423 18.5755 21.9064 19.3439 21.3692 20.2467C20.832 21.1495 20.5078 22.1629 20.4211 23.2098ZM25.4211 32.1298C25.481 32.1345 25.5412 32.1345 25.6011 32.1298L25.9511 33.1298L24.1211 32.7198L23.8111 31.8398L25.2111 32.1398L25.4211 32.1298ZM26.7911 32.4698L26.4911 31.5698L34.7011 33.2398C34.8885 33.2796 35.0795 33.2997 35.2711 33.2998C35.9949 33.2983 36.6914 33.0232 37.2211 32.5298L42.7111 27.3098L42.8811 27.8298C42.9116 27.9493 42.913 28.0743 42.8851 28.1943C42.8573 28.3144 42.801 28.426 42.7211 28.5198L42.5311 28.7298L37.2211 33.7898C36.8764 34.1114 36.4225 34.2901 35.9511 34.2898C35.8315 34.3046 35.7106 34.3046 35.5911 34.2898L26.7911 32.4698Z" fill="#212C3A"/>
<path d="M8.92975 27.32L13.1698 28.24C13.0746 28.1447 12.9844 28.0446 12.8998 27.94C12.2542 27.0281 11.7947 25.9979 11.5476 24.9083C11.3005 23.8187 11.2707 22.6911 11.4598 21.59C11.5829 20.2264 12.0455 18.9154 12.8053 17.7766C13.5651 16.6377 14.598 15.7072 15.8098 15.07C13.9298 14.66 11.5098 14.16 10.8098 14.07C10.6599 14.06 10.5096 14.06 10.3598 14.07C10.0525 14.0698 9.7465 14.1102 9.44975 14.19C7.37975 14.75 5.57975 17.19 5.15975 20.19C4.62975 23.8 6.41975 26.75 8.92975 27.32Z" fill="white"/>
<path d="M16.7493 28.9404C17.1762 28.9374 17.5993 28.8596 17.9993 28.7104L17.1493 28.5404L16.7593 28.4604C16.2393 28.385 15.7396 28.2064 15.2896 27.9351C14.8397 27.6637 14.4486 27.3051 14.1393 26.8804C13.0919 25.3675 12.6823 23.503 12.9993 21.6904C13.4493 18.4704 15.6293 16.0404 18.0793 16.0404H18.5093L19.8793 16.3104C19.3794 15.9535 18.7986 15.7267 18.1893 15.6504H17.7693C15.2793 15.6504 12.9493 18.2704 12.4693 21.7304C11.9893 25.1904 13.4693 28.1304 15.7793 28.8104L16.3593 28.9304L16.7493 28.9404Z" fill="white"/>
<path d="M25.499 18.5508C23.579 18.5508 21.789 20.6108 21.409 23.3408C21.2178 24.2544 21.2635 25.2017 21.5418 26.0927C21.8201 26.9836 22.3218 27.7885 22.999 28.4308L23.669 27.7908C23.3653 27.6116 23.0974 27.3777 22.879 27.1008C22.1534 26.021 21.8772 24.7009 22.109 23.4208C22.429 21.1408 23.829 19.4808 25.439 19.4808H25.699C26.0297 19.5241 26.3479 19.6353 26.6335 19.8074C26.9192 19.9794 27.1662 20.2087 27.359 20.4808C27.6652 20.8992 27.8829 21.3755 27.999 21.8808C28.0935 22.3199 28.333 22.7144 28.679 23.0008L28.809 22.9208C28.809 22.8708 28.809 22.8208 28.809 22.7808C28.809 22.5708 28.809 22.3608 28.809 22.1708C28.809 21.9808 28.739 21.8408 28.699 21.6808C28.659 21.5208 28.639 21.3808 28.589 21.2408C28.539 21.1008 28.449 20.8908 28.379 20.7208C28.309 20.5508 28.299 20.5108 28.249 20.4208C28.1541 20.2469 28.0472 20.0798 27.929 19.9208C27.879 19.8508 27.849 19.7808 27.799 19.7208C27.6659 19.5676 27.5222 19.4239 27.369 19.2908L27.249 19.1708C27.0877 19.0486 26.9133 18.9447 26.729 18.8608C26.6871 18.8319 26.6437 18.8052 26.599 18.7808C26.4198 18.7064 26.2315 18.656 26.039 18.6308L25.859 18.5808L25.499 18.5508Z" fill="white"/>
<path d="M23.5217 18.0992L18.3717 17.0992C18.2686 17.0893 18.1648 17.0893 18.0617 17.0992C16.1417 17.0992 14.3517 19.1592 13.9717 21.8892C13.5917 24.6192 14.9017 27.2892 16.9717 27.5292L21.6617 28.5292C20.6039 27.0206 20.1835 25.1558 20.4917 23.3392C20.566 22.2931 20.8775 21.2777 21.4024 20.3698C21.9274 19.4619 22.6521 18.6855 23.5217 18.0992Z" fill="white"/>
<path d="M33.3708 29.2402C33.709 28.8151 34.14 28.4731 34.6308 28.2402C35.1062 27.9868 35.6325 27.8432 36.1708 27.8202C36.1975 27.6937 36.1761 27.5618 36.1108 27.4502C36.0192 27.3307 35.8985 27.2367 35.7601 27.1772C35.6218 27.1176 35.4705 27.0946 35.3208 27.1102C34.9015 27.1233 34.4909 27.2328 34.1208 27.4302C33.8277 27.5746 33.5634 27.7711 33.3408 28.0102C33.0108 28.3602 32.8908 28.7502 33.0508 29.0102C33.1387 29.1101 33.2481 29.1887 33.3708 29.2402Z" fill="white"/>
<path d="M31.7507 22.7798L30.0507 23.4498C30.1071 23.5249 30.1386 23.6158 30.1407 23.7098C30.1434 23.8407 30.0947 23.9675 30.0049 24.0628C29.9152 24.1582 29.7916 24.2146 29.6607 24.2198H29.5307C28.9509 24.2337 28.3851 24.0397 27.9358 23.6729C27.4865 23.3061 27.1832 22.7907 27.0807 22.2198C27.0807 22.2198 27.0807 22.1598 27.0807 22.1398C26.8407 21.2298 26.3107 20.5898 25.6207 20.5098H25.4707C25.2308 20.526 24.9967 20.5901 24.782 20.6983C24.5673 20.8065 24.3764 20.9566 24.2207 21.1398L24.5707 22.2098C24.6732 22.0809 24.8042 21.9776 24.9535 21.9082C25.1028 21.8388 25.2662 21.8051 25.4307 21.8098C26.3807 21.9198 26.5907 23.3098 26.9407 23.8598C27.5707 24.8598 29.0307 24.9598 28.2407 25.8098C28.0237 26.0714 27.7899 26.3186 27.5407 26.5498C25.7907 27.9198 23.6507 25.5498 23.9207 23.6798C23.949 23.5007 23.9891 23.3236 24.0407 23.1498L23.5207 22.2198C23.3286 22.6564 23.1974 23.1174 23.1307 23.5898C23.0554 24.0836 23.0554 24.586 23.1307 25.0798L23.1807 25.1798C23.3425 25.7572 23.6249 26.2937 24.0093 26.754C24.3937 27.2142 24.8713 27.5877 25.4107 27.8498C25.5089 27.9027 25.5865 27.987 25.6312 28.0891C25.676 28.1913 25.6853 28.3054 25.6577 28.4135C25.6301 28.5215 25.5672 28.6172 25.479 28.6854C25.3907 28.7536 25.2822 28.7903 25.1707 28.7898L24.9307 28.7298C24.7807 28.6398 24.6507 28.5398 24.5107 28.4498L23.5107 29.3798L23.4507 30.7298L25.4507 31.1698L26.1307 30.5198L34.9307 32.2998C35.0536 32.3145 35.1778 32.3145 35.3007 32.2998C35.7714 32.2962 36.2239 32.118 36.5707 31.7998L42.1507 26.4898C42.2176 26.4292 42.2669 26.3517 42.2933 26.2654C42.3197 26.1792 42.3222 26.0874 42.3007 25.9998V25.9198C42.2834 25.8796 42.2598 25.8425 42.2307 25.8098L42.1507 25.7198C42.0905 25.6748 42.0228 25.6409 41.9507 25.6198L33.1107 23.8198L33.7507 23.2098L31.7507 22.7798ZM33.6607 26.4998C34.1744 26.2328 34.742 26.0858 35.3207 26.0698C35.6484 26.0485 35.9756 26.1163 36.2679 26.266C36.5601 26.4156 36.8064 26.6415 36.9807 26.9198C37.0862 27.1084 37.1521 27.3165 37.1745 27.5314C37.1968 27.7463 37.1751 27.9635 37.1107 28.1698C36.9695 28.5499 36.7545 28.8984 36.4782 29.1953C36.202 29.4922 35.8698 29.7316 35.5007 29.8998C34.9864 30.1639 34.4188 30.3075 33.8407 30.3198C33.5141 30.342 33.1874 30.2757 32.8953 30.1279C32.6031 29.9801 32.3563 29.7562 32.1807 29.4798C32.075 29.2894 32.0089 29.0797 31.9866 28.8631C31.9643 28.6465 31.9861 28.4277 32.0507 28.2198C32.1926 27.8412 32.4079 27.4943 32.6842 27.1992C32.9605 26.904 33.2923 26.6663 33.6607 26.4998Z" fill="white"/>
<path d="M23.8516 31.8008L24.1616 32.6808L25.9916 33.0908L25.6416 32.0908C25.5817 32.0954 25.5215 32.0954 25.4616 32.0908H25.2516L23.8516 31.8008Z" fill="white"/>
<path d="M35.9991 34.2905C36.4705 34.2908 36.9244 34.1121 37.2691 33.7905L42.5791 28.7305L42.7691 28.5205C42.849 28.4267 42.9053 28.3151 42.9331 28.195C42.961 28.075 42.9596 27.95 42.9291 27.8305L42.7591 27.3105L37.2691 32.5305C36.7394 33.0239 36.0429 33.299 35.3191 33.3005C35.1275 33.3004 34.9365 33.2803 34.7491 33.2405L26.5391 31.5705L26.8391 32.4705L35.6391 34.2505C35.757 34.2787 35.8779 34.2921 35.9991 34.2905Z" fill="white"/>
<path d="M32.0492 28.2202C31.9845 28.4281 31.9627 28.647 31.9851 28.8635C32.0074 29.0801 32.0734 29.2899 32.1792 29.4802C32.3547 29.7566 32.6016 29.9805 32.8937 30.1283C33.1859 30.2762 33.5125 30.3425 33.8392 30.3202C34.4172 30.308 34.9849 30.1644 35.4992 29.9002C35.8682 29.732 36.2004 29.4927 36.4767 29.1958C36.753 28.8989 36.9679 28.5504 37.1092 28.1702C37.1766 27.9653 37.2016 27.7488 37.1827 27.5339C37.1638 27.319 37.1014 27.1102 36.9992 26.9202C36.8249 26.642 36.5786 26.4161 36.2863 26.2664C35.9941 26.1168 35.6668 26.049 35.3392 26.0702C34.7605 26.0862 34.1929 26.2333 33.6792 26.5002C33.3071 26.6646 32.9714 26.9013 32.6915 27.1966C32.4117 27.4919 32.1934 27.8398 32.0492 28.2202ZM33.3392 28.0002C33.5618 27.7611 33.8261 27.5646 34.1192 27.4202C34.4893 27.2228 34.8999 27.1133 35.3192 27.1002C35.469 27.0846 35.6202 27.1076 35.7585 27.1671C35.8969 27.2267 36.0176 27.3207 36.1092 27.4402C36.1745 27.5518 36.1959 27.6837 36.1692 27.8102C35.6309 27.8332 35.1046 27.9767 34.6292 28.2302C34.1384 28.463 33.7074 28.8051 33.3692 29.2302C33.2434 29.1701 33.1338 29.081 33.0492 28.9702C32.8892 28.7102 32.9992 28.3202 33.3392 28.0002Z" fill="#212C3A"/>
</svg>
