<svg width="48" height="48" viewBox="0 0 48 48" fill="none" xmlns="http://www.w3.org/2000/svg">
<path d="M13.9981 44C13.821 43.9997 13.647 43.9523 13.4942 43.8627C13.3413 43.7731 13.215 43.6445 13.1281 43.49L3.20815 26C3.12177 25.8476 3.07694 25.6752 3.07815 25.5V22.54C3.07694 22.3648 3.12177 22.1924 3.20815 22.04L13.2081 4.51C13.2879 4.36674 13.4017 4.24529 13.5395 4.15635C13.6772 4.06742 13.8347 4.01372 13.9981 4H33.9981C34.1753 4.00031 34.3493 4.04769 34.5021 4.1373C34.655 4.22691 34.7813 4.35553 34.8681 4.51L44.7882 22C44.8745 22.1524 44.9194 22.3248 44.9181 22.5V25.42C44.9194 25.5952 44.8745 25.7676 44.7882 25.92L34.7882 43.45C34.7134 43.6007 34.6018 43.7302 34.4637 43.8263C34.3256 43.9225 34.1655 43.9822 33.9981 44H13.9981Z" fill="white"/>
<path d="M33.9991 5L43.9991 22.54V25.46L33.9991 43H13.9991L3.99911 25.46V22.54L13.9991 5H33.9991ZM33.9991 3H13.9991C13.6535 3.00557 13.3152 3.10061 13.0173 3.27587C12.7193 3.45113 12.4719 3.70062 12.2991 4L2.29911 21.54C2.12635 21.8448 2.03669 22.1896 2.03911 22.54V25.46C2.03669 25.8104 2.12635 26.1552 2.29911 26.46L12.2991 44C12.4719 44.2994 12.7193 44.5489 13.0173 44.7241C13.3152 44.8994 13.6535 44.9944 13.9991 45H33.9991C34.3515 45.0014 34.6981 44.9096 35.0036 44.734C35.3092 44.5584 35.5629 44.3052 35.7391 44L45.7391 26.46C45.9119 26.1552 46.0015 25.8104 45.9991 25.46V22.54C46.0015 22.1896 45.9119 21.8448 45.7391 21.54L35.6991 4C35.5263 3.70062 35.2789 3.45113 34.9809 3.27587C34.683 3.10061 34.3447 3.00557 33.9991 3Z" fill="#212C3A"/>
</svg>
