<svg width="48" height="48" viewBox="0 0 48 48" fill="none" xmlns="http://www.w3.org/2000/svg">
<path d="M24 44C35.0457 44 44 35.0457 44 24C44 12.9543 35.0457 4 24 4C12.9543 4 4 12.9543 4 24C4 35.0457 12.9543 44 24 44Z" fill="white"/>
<path d="M24 5C27.7579 5 31.4313 6.11433 34.5558 8.20208C37.6804 10.2898 40.1157 13.2572 41.5537 16.729C42.9918 20.2008 43.368 24.0211 42.6349 27.7067C41.9018 31.3924 40.0922 34.7778 37.435 37.435C34.7778 40.0922 31.3924 41.9018 27.7067 42.6349C24.0211 43.368 20.2008 42.9918 16.729 41.5537C13.2572 40.1156 10.2898 37.6804 8.20209 34.5558C6.11434 31.4313 5.00001 27.7578 5.00001 24C5.00001 18.9609 7.00179 14.1282 10.565 10.565C14.1282 7.00178 18.9609 5 24 5ZM24 3C19.8466 3 15.7865 4.23163 12.333 6.53914C8.8796 8.84665 6.18798 12.1264 4.59854 15.9636C3.0091 19.8009 2.59323 24.0233 3.40352 28.0969C4.21381 32.1705 6.21386 35.9123 9.15077 38.8492C12.0877 41.7861 15.8295 43.7862 19.9031 44.5965C23.9767 45.4068 28.1991 44.9909 32.0364 43.4015C35.8736 41.812 39.1534 39.1204 41.4609 35.667C43.7684 32.2135 45 28.1534 45 24C45 18.4305 42.7875 13.089 38.8493 9.15076C34.911 5.21249 29.5696 3 24 3Z" fill="#212C3A"/>
<path fill-rule="evenodd" clip-rule="evenodd" d="M21.9392 9.28906C18.5472 9.76807 15.4246 11.4035 13.0992 13.9191L16.9992 16.1091C15.5206 17.4138 14.4394 19.1084 13.8792 20.9991L10.2392 18.3991C8.94128 21.5823 8.79277 25.1182 9.81918 28.3991L13.6692 26.1091C14.068 28.051 15.0034 29.8421 16.3692 31.2791L12.2892 33.1291C14.3941 35.8356 17.374 37.7268 20.7192 38.4791L20.6592 33.9991C22.5409 34.6257 24.5607 34.7123 26.4892 34.2491L26.0592 38.7091C29.4512 38.2301 32.5738 36.5946 34.8992 34.0791L30.9992 31.8891C32.4777 30.5844 33.559 28.8897 34.1192 26.9991L37.7592 29.5991C39.0571 26.4158 39.2056 22.8799 38.1792 19.5991L34.3292 21.8891C33.9303 19.9472 32.9949 18.156 31.6292 16.7191L35.7092 14.8691C33.6043 12.1625 30.6244 10.2713 27.2792 9.51906L27.3392 13.9991C25.4574 13.3725 23.4377 13.2859 21.5092 13.7491L21.9392 9.28906Z" fill="#212C3A"/>
</svg>
