<svg width="48" height="48" viewBox="0 0 48 48" fill="none" xmlns="http://www.w3.org/2000/svg">
<path d="M24 44C35.0457 44 44 35.0457 44 24C44 12.9543 35.0457 4 24 4C12.9543 4 4 12.9543 4 24C4 35.0457 12.9543 44 24 44Z" fill="white"/>
<path d="M24 5C27.7579 5 31.4313 6.11433 34.5558 8.20208C37.6804 10.2898 40.1157 13.2572 41.5537 16.729C42.9918 20.2008 43.368 24.0211 42.6349 27.7067C41.9018 31.3924 40.0922 34.7778 37.435 37.435C34.7778 40.0922 31.3924 41.9018 27.7067 42.6349C24.0211 43.368 20.2008 42.9918 16.729 41.5537C13.2572 40.1156 10.2898 37.6804 8.20209 34.5558C6.11434 31.4313 5.00001 27.7578 5.00001 24C5.00001 18.9609 7.00179 14.1282 10.565 10.565C14.1282 7.00178 18.9609 5 24 5ZM24 3C19.8466 3 15.7865 4.23163 12.333 6.53914C8.8796 8.84665 6.18798 12.1264 4.59854 15.9636C3.0091 19.8009 2.59323 24.0233 3.40352 28.0969C4.21381 32.1705 6.21386 35.9123 9.15077 38.8492C12.0877 41.7861 15.8295 43.7862 19.9031 44.5965C23.9767 45.4068 28.1991 44.9909 32.0364 43.4015C35.8736 41.812 39.1534 39.1204 41.4609 35.667C43.7684 32.2135 45 28.1534 45 24C45 18.4305 42.7875 13.089 38.8493 9.15076C34.911 5.21249 29.5696 3 24 3Z" fill="#212C3A"/>
<path d="M42.001 29.37C41.979 29.8456 41.895 30.3162 41.751 30.77C40.3794 34.3666 37.9478 37.4618 34.7781 39.6457C31.6085 41.8297 27.8502 42.9994 24.001 43C23.521 43 23.051 43 22.581 42.94L22.521 42H22.431C22.431 42 22.361 40.3 22.261 37.81L21.371 23.48H13.081C13.081 23.48 9.43096 23.31 8.31096 22.58C7.59926 22.2011 7.00658 21.6322 6.59878 20.9367C6.19098 20.2411 5.98404 19.4461 6.00096 18.64C6.02743 18.1543 6.11478 17.6739 6.26096 17.21C7.63511 13.6187 10.0665 10.5289 13.234 8.34887C16.4014 6.1688 20.1558 5.00107 24.001 5C24.481 5 24.951 5 25.421 5.06L25.481 5.99H25.571C25.571 5.99 25.641 7.69 25.741 10.18L26.631 24.51H34.921C34.921 24.51 38.571 24.68 39.691 25.41C40.405 25.7914 40.9991 26.3635 41.4069 27.0628C41.8148 27.762 42.0205 28.5607 42.001 29.37Z" fill="#212C3A"/>
</svg>
