<svg width="48" height="48" viewBox="0 0 48 48" fill="none" xmlns="http://www.w3.org/2000/svg">
<path d="M24 43.8008C35.0457 43.8008 44 34.8465 44 23.8008C44 12.7551 35.0457 3.80078 24 3.80078C12.9543 3.80078 4 12.7551 4 23.8008C4 34.8465 12.9543 43.8008 24 43.8008Z" fill="white"/>
<path d="M24 4.80078C34.5 4.80078 43 13.3008 43 23.8008C43 34.3008 34.5 42.8008 24 42.8008C13.5 42.8008 5 34.3008 5 23.8008C5 13.3008 13.5 4.80078 24 4.80078ZM24 2.80078C12.4 2.80078 3 12.2008 3 23.8008C3 35.4008 12.4 44.8008 24 44.8008C35.6 44.8008 45 35.4008 45 23.8008C45 12.2008 35.6 2.80078 24 2.80078Z" fill="#212C3A"/>
<path fill-rule="evenodd" clip-rule="evenodd" d="M39.4016 22.0996C37.1016 21.5996 35.1016 20.1996 33.8016 18.0996C32.7016 15.9996 32.5016 13.4996 33.2016 11.2996C32.3016 10.5996 31.3016 10.0996 30.3016 9.59961C28.7016 11.2996 26.4016 12.3996 24.1016 12.4996C21.7016 12.3996 19.5016 11.3996 17.9016 9.59961C16.9016 10.0996 15.9016 10.5996 15.0016 11.2996C15.7016 13.5996 15.5016 15.9996 14.4016 18.0996C13.1016 20.0996 11.1016 21.4996 8.80156 22.0996C8.70156 23.1996 8.70156 24.3996 8.80156 25.4996C11.1016 25.9996 13.1016 27.3996 14.4016 29.3996C15.5016 31.4996 15.7016 33.9996 15.0016 36.1996C15.9016 36.8996 16.9016 37.3996 17.9016 37.8996C19.5016 36.1996 21.8016 35.0996 24.1016 34.9996C26.5016 35.0996 28.7016 36.0996 30.3016 37.8996C31.3016 37.3996 32.3016 36.8996 33.2016 36.1996C32.5016 33.8996 32.7016 31.4996 33.8016 29.3996C35.1016 27.3996 37.1016 25.9996 39.4016 25.4996C39.5016 24.3996 39.5016 23.1996 39.4016 22.0996ZM24.0016 28.7996C21.2016 28.7996 19.0016 26.5996 19.0016 23.7996C19.0016 20.9996 21.2016 18.7996 24.0016 18.7996C26.8016 18.7996 29.0016 20.9996 29.0016 23.7996C29.0016 26.5996 26.8016 28.7996 24.0016 28.7996Z" fill="#212C3A"/>
</svg>
