<svg width="48" height="48" viewBox="0 0 48 48" fill="none" xmlns="http://www.w3.org/2000/svg">
<path d="M24 44C35.0457 44 44 35.0457 44 24C44 12.9543 35.0457 4 24 4C12.9543 4 4 12.9543 4 24C4 35.0457 12.9543 44 24 44Z" fill="white"/>
<path d="M24 5C27.7579 5 31.4313 6.11433 34.5558 8.20208C37.6804 10.2898 40.1157 13.2572 41.5537 16.729C42.9918 20.2008 43.368 24.0211 42.6349 27.7067C41.9018 31.3924 40.0922 34.7778 37.435 37.435C34.7778 40.0922 31.3924 41.9018 27.7067 42.6349C24.0211 43.368 20.2008 42.9918 16.729 41.5537C13.2572 40.1156 10.2898 37.6804 8.20209 34.5558C6.11434 31.4313 5.00001 27.7578 5.00001 24C5.00001 18.9609 7.00179 14.1282 10.565 10.565C14.1282 7.00178 18.9609 5 24 5ZM24 3C19.8466 3 15.7865 4.23163 12.333 6.53914C8.8796 8.84665 6.18798 12.1264 4.59854 15.9636C3.0091 19.8009 2.59323 24.0233 3.40352 28.0969C4.21381 32.1705 6.21386 35.9123 9.15077 38.8492C12.0877 41.7861 15.8295 43.7862 19.9031 44.5965C23.9767 45.4068 28.1991 44.9909 32.0364 43.4015C35.8736 41.812 39.1534 39.1204 41.4609 35.667C43.7684 32.2135 45 28.1534 45 24C45 18.4305 42.7875 13.089 38.8493 9.15076C34.911 5.21249 29.5696 3 24 3Z" fill="#212C3A"/>
<path fill-rule="evenodd" clip-rule="evenodd" d="M17.5109 11.2709C17.0709 11.5043 16.6409 11.7543 16.2209 12.0209C15.9958 13.0656 15.5453 14.0485 14.9009 14.9009C14.0426 15.548 13.0526 15.9986 12.0009 16.2209C11.7343 16.6409 11.4843 17.0709 11.2509 17.5109C11.578 18.5302 11.6837 19.6075 11.5609 20.6709C11.1352 21.6529 10.5044 22.5326 9.71094 23.2509C9.71094 23.7509 9.71094 24.2509 9.71094 24.7509C10.5044 25.4693 11.1352 26.3489 11.5609 27.3309C11.6837 28.3943 11.578 29.4717 11.2509 30.4909C11.4843 30.9309 11.7343 31.3609 12.0009 31.7809C13.0526 32.0033 14.0426 32.4539 14.9009 33.1009C15.548 33.9593 15.9986 34.9493 16.2209 36.0009C16.6409 36.2743 17.0709 36.5243 17.5109 36.7509C18.5302 36.4239 19.6075 36.3182 20.6709 36.4409C21.6529 36.8667 22.5326 37.4975 23.2509 38.2909C23.7509 38.2909 24.2509 38.2909 24.7509 38.2909C25.4693 37.4975 26.3489 36.8667 27.3309 36.4409C28.3943 36.3182 29.4717 36.4239 30.4909 36.7509C30.9309 36.5243 31.3609 36.2743 31.7809 36.0009C32.0033 34.9493 32.4539 33.9593 33.1009 33.1009C33.9593 32.4539 34.9493 32.0033 36.0009 31.7809C36.2743 31.3609 36.5243 30.9309 36.7509 30.4909C36.4239 29.4717 36.3182 28.3943 36.4409 27.3309C36.8667 26.3489 37.4975 25.4693 38.2909 24.7509C38.2909 24.2509 38.2909 23.7509 38.2909 23.2509C37.4975 22.5326 36.8667 21.6529 36.4409 20.6709C36.3182 19.6075 36.4239 18.5302 36.7509 17.5109C36.5243 17.0709 36.2743 16.6409 36.0009 16.2209C34.9493 15.9986 33.9593 15.548 33.1009 14.9009C32.4539 14.0426 32.0033 13.0526 31.7809 12.0009C31.3609 11.7343 30.9309 11.4843 30.4909 11.2509C29.4717 11.578 28.3943 11.6837 27.3309 11.5609C26.3489 11.1352 25.4693 10.5044 24.7509 9.71094C24.2509 9.71094 23.7509 9.71094 23.2509 9.71094C22.5326 10.5044 21.6529 11.1352 20.6709 11.5609C19.609 11.6901 18.5317 11.5913 17.5109 11.2709Z" fill="#212C3A"/>
</svg>
