<svg width="48" height="48" viewBox="0 0 48 48" fill="none" xmlns="http://www.w3.org/2000/svg">
<path d="M24 44C35.0457 44 44 35.0457 44 24C44 12.9543 35.0457 4 24 4C12.9543 4 4 12.9543 4 24C4 35.0457 12.9543 44 24 44Z" fill="white"/>
<path d="M24 5C27.7579 5 31.4313 6.11433 34.5558 8.20208C37.6804 10.2898 40.1157 13.2572 41.5537 16.729C42.9918 20.2008 43.368 24.0211 42.6349 27.7067C41.9018 31.3924 40.0922 34.7778 37.435 37.435C34.7778 40.0922 31.3924 41.9018 27.7067 42.6349C24.0211 43.368 20.2008 42.9918 16.729 41.5537C13.2572 40.1156 10.2898 37.6804 8.20209 34.5558C6.11434 31.4313 5.00001 27.7578 5.00001 24C5.00001 18.9609 7.00179 14.1282 10.565 10.565C14.1282 7.00178 18.9609 5 24 5ZM24 3C19.8466 3 15.7865 4.23163 12.333 6.53914C8.8796 8.84665 6.18798 12.1264 4.59854 15.9636C3.0091 19.8009 2.59323 24.0233 3.40352 28.0969C4.21381 32.1705 6.21386 35.9123 9.15077 38.8492C12.0877 41.7861 15.8295 43.7862 19.9031 44.5965C23.9767 45.4068 28.1991 44.9909 32.0364 43.4015C35.8736 41.812 39.1534 39.1204 41.4609 35.667C43.7684 32.2135 45 28.1534 45 24C45 18.4305 42.7875 13.089 38.8493 9.15076C34.911 5.21249 29.5696 3 24 3Z" fill="#212C3A"/>
<path fill-rule="evenodd" clip-rule="evenodd" d="M17.7813 9.83008C16.7435 10.2904 15.7579 10.8603 14.8413 11.5301C15.5383 13.7976 15.3119 16.2486 14.2113 18.3501C12.9409 20.3516 10.9321 21.771 8.62125 22.3001C8.50125 23.4302 8.50125 24.5699 8.62125 25.7001C10.9321 26.2291 12.9409 27.6486 14.2113 29.6501C15.3119 31.7515 15.5383 34.2026 14.8413 36.4701C15.7579 37.1398 16.7435 37.7097 17.7813 38.1701C19.3984 36.4354 21.632 35.4048 24.0013 35.3001C26.3705 35.4048 28.6041 36.4354 30.2213 38.1701C31.259 37.7097 32.2446 37.1398 33.1613 36.4701C32.4642 34.2026 32.6906 31.7515 33.7913 29.6501C35.0616 27.6486 37.0704 26.2291 39.3813 25.7001C39.5013 24.5699 39.5013 23.4302 39.3813 22.3001C37.0704 21.771 35.0616 20.3516 33.7913 18.3501C32.6906 16.2486 32.4642 13.7976 33.1613 11.5301C32.2446 10.8603 31.259 10.2904 30.2213 9.83008C28.6041 11.5648 26.3705 12.5954 24.0013 12.7001C21.632 12.5954 19.3984 11.5648 17.7813 9.83008Z" fill="#212C3A"/>
</svg>
