<svg width="24" height="24" viewBox="0 0 24 24" fill="none" xmlns="http://www.w3.org/2000/svg">
<g clip-path="url(#clip0_322_915)">
<path d="M4.30801 15.0657L6.49269 16.1638C6.60438 16.2198 6.72646 16.252 6.85122 16.2583C6.97598 16.2647 7.10071 16.2451 7.21751 16.2008L7.36512 16.1444L15.7695 20.2441C15.942 20.3301 16.1376 20.3586 16.3276 20.3255C16.3874 20.3097 16.4454 20.2876 16.5005 20.2593C16.6261 20.212 16.7395 20.1372 16.8325 20.0405L16.9349 19.9288L17.0011 19.8744L22.5263 14.4637C22.6645 14.3069 22.7596 14.117 22.8025 13.9125C22.8454 13.7079 22.8347 13.4958 22.7713 13.2967L22.7535 13.2503L22.6989 12.9811C22.6219 12.5271 22.5294 12.0452 22.4427 11.6288L22.3836 11.3227C22.3611 11.1972 22.3299 11.0734 22.2902 10.9523C22.2512 10.7938 22.1927 10.6408 22.116 10.4968C22.0353 10.321 21.9248 10.1604 21.7894 10.0222C21.4406 9.74227 21.0582 9.50689 20.6512 9.32153L20.519 9.24154C20.3801 9.16899 19.9182 8.93474 18.7505 8.4097C17.5827 7.88467 15.8222 7.07392 15.4005 6.84362C15.1559 6.73122 14.8903 6.67204 14.6212 6.66999C14.352 6.66793 14.0855 6.72306 13.8392 6.83172C13.6289 6.90924 13.4305 7.01606 13.2499 7.149C13.2916 6.33536 12.8395 5.34317 11.9749 4.46045C10.9051 3.39516 9.64352 2.91567 8.74943 3.25769C8.60543 3.30928 8.47066 3.38368 8.35028 3.47806L8.28727 3.54084L6.65728 5.13128L6.56214 5.21119C6.52873 5.24261 6.49818 5.27695 6.47086 5.31379L5.95415 5.82086L5.87428 5.89009L5.80768 5.96875L4.91293 6.85249C4.86481 6.8836 4.82037 6.92006 4.78046 6.96118C4.73744 7.0031 4.6983 7.04882 4.66351 7.09778L1.69771 10.0114L1.63309 10.07C1.59444 10.1057 1.5593 10.145 1.52817 10.1875C1.32828 10.4572 1.20451 10.7756 1.1698 11.1095C1.13509 11.4434 1.19072 11.7805 1.33086 12.0856L1.35506 12.1488C1.40669 12.2838 1.4567 12.4145 1.5051 12.541C1.51962 12.579 1.53575 12.6212 1.57297 12.6553L1.58588 12.689C1.63671 12.7899 1.69347 12.8876 1.75587 12.9818C1.78007 13.045 1.84124 13.1038 1.88392 13.1648L1.92425 13.2703C1.96019 13.3236 1.99917 13.3749 2.04101 13.4238C2.15453 13.5689 2.28071 13.7092 2.4095 13.8437C2.70075 14.1418 3.02542 14.4053 3.37708 14.629C3.42544 14.6687 3.47878 14.7019 3.53575 14.7278L3.58401 14.7529C3.67048 14.802 3.75534 14.8469 3.8428 14.8859L4.30801 15.0657ZM2.79451 12.8407C2.7687 12.7732 2.71076 12.7228 2.66386 12.6634C2.61696 12.604 2.57428 12.543 2.53159 12.482C2.48891 12.4209 2.44733 12.287 2.38617 12.2282C2.325 12.1694 2.35874 12.1565 2.34583 12.1227C2.30389 12.0131 2.26356 11.9077 2.22645 11.8107L2.21354 11.7769C2.13193 11.6098 2.0963 11.4239 2.11031 11.2384C2.12432 11.0529 2.18747 10.8745 2.29326 10.7215L2.31248 10.6706C2.35559 10.6363 2.40419 10.6095 2.45624 10.5915C2.9792 10.3914 3.92315 10.799 4.71757 11.6119C5.4492 12.3618 5.81851 13.2261 5.71898 13.7621C5.63081 13.9361 5.32402 13.8165 5.36393 13.6175C5.36463 13.5953 5.36749 13.5731 5.37248 13.5514C5.54011 13.0039 4.84977 12.185 4.49283 11.8332C4.13588 11.4815 3.3122 10.7185 2.73441 10.9395C2.66011 10.9666 2.59233 11.009 2.53546 11.064C1.98465 11.6082 2.86072 12.622 3.28565 13.0251C3.61217 13.379 4.00311 13.6675 4.43758 13.8752L6.63912 14.9669L6.70603 15.2555L4.38043 14.105C3.90266 13.8847 3.47109 13.5756 3.10866 13.1943C2.99637 13.0777 2.88831 12.9595 2.79451 12.8407ZM11.3091 5.12124C12.1828 6.01499 12.5375 7.06861 12.1933 7.53385L12.168 7.54353L12.0667 7.64514C11.9557 6.82074 11.5671 6.0588 10.9648 5.485C10.4091 4.85284 9.65206 4.43199 8.8218 4.29361L8.93677 4.17711C8.98438 4.1414 9.03712 4.11308 9.09318 4.0931C9.59505 3.90112 10.5147 4.30835 11.3091 5.12124ZM7.52907 8.86365C7.26937 8.59557 6.98044 8.35744 6.66768 8.15373C6.46117 8.02053 6.24176 7.90848 6.01278 7.81928C5.80829 7.73849 5.59334 7.68724 5.3744 7.66705L5.42475 7.60911C5.4565 7.57812 5.49119 7.55028 5.52832 7.52598L5.62954 7.48726C5.72234 7.45202 5.82121 7.43556 5.92042 7.43883C6.08336 7.43859 6.24525 7.46484 6.39976 7.51654C6.61787 7.59185 6.82655 7.69209 7.02166 7.81527C7.33541 8.00952 7.62397 8.24175 7.88081 8.50671C8.13889 8.76643 8.36378 9.05715 8.55032 9.37221C8.67199 9.57619 8.76703 9.79492 8.83313 10.0231C8.88211 10.1798 8.90706 10.343 8.90714 10.5072C8.90809 10.6357 8.87676 10.7624 8.81602 10.8756L8.66533 11.0251C8.65573 10.9222 8.64077 10.8198 8.6205 10.7184C8.5971 10.6058 8.56455 10.4954 8.52319 10.3882C8.44774 10.1555 8.35034 9.93051 8.23231 9.71625C8.03087 9.40639 7.79495 9.12036 7.52907 8.86365ZM10.4928 9.24314L10.4418 9.28681C10.4328 9.13312 10.4069 8.98089 10.3648 8.83281C10.3519 8.79907 10.3406 8.76955 10.3277 8.73581C10.272 8.56821 10.2018 8.4058 10.1179 8.25044C9.89899 7.84214 9.62221 7.46765 9.29612 7.13859C8.97474 6.80298 8.60479 6.51752 8.19864 6.29176C8.04103 6.20451 7.87671 6.12995 7.70725 6.0688L7.62302 6.03817C7.46922 5.99153 7.31134 5.95966 7.15149 5.94298L7.2723 5.82908C7.31319 5.8061 7.35724 5.78925 7.40304 5.77907C7.45197 5.7556 7.50275 5.73617 7.55486 5.72099C7.70726 5.70262 7.86174 5.71235 8.01062 5.7497C8.64514 5.93584 9.2164 6.29257 9.66213 6.78103C10.1302 7.23402 10.4684 7.80407 10.6418 8.43196C10.6808 8.58721 10.6884 8.74873 10.6639 8.90694C10.6494 9.00623 10.613 9.10106 10.5574 9.18458L10.4928 9.24314ZM11.4967 8.24029L11.4294 8.30468L11.1391 8.59463L11.1238 8.44094C11.1018 8.30296 11.0676 8.16718 11.0218 8.03519C10.7976 7.43274 10.4451 6.88628 9.98857 6.43376C9.45903 5.85221 8.76695 5.44321 8.00211 5.25983L7.84395 5.23815L8.19309 4.88703C8.24355 4.84437 8.3011 4.8109 8.36314 4.78814C8.8861 4.58809 9.82422 4.99308 10.6128 5.80337C11.5014 6.71077 11.8794 7.7748 11.4967 8.24029ZM6.55168 6.51085L6.57277 6.50278C6.61929 6.47759 6.66892 6.4586 6.72038 6.44632C6.81318 6.41107 6.91205 6.39461 7.01127 6.39789C7.31149 6.40694 7.60535 6.48667 7.86898 6.63059C8.28271 6.84471 8.65815 7.12582 8.98009 7.46254C9.31163 7.79526 9.58626 8.18018 9.79304 8.60192C9.93682 8.87386 10.0128 9.17651 10.0145 9.48412C10.0149 9.6433 9.96405 9.79838 9.86942 9.92638L9.80616 9.95058L9.40604 10.3454C9.39921 10.2623 9.38701 10.1798 9.36953 10.0983C9.34979 9.99716 9.323 9.89755 9.28935 9.80019L9.24579 9.68632C9.15807 9.45201 9.04624 9.22745 8.91211 9.01626C8.71949 8.70756 8.4932 8.42119 8.2374 8.16241C7.97572 7.91298 7.68973 7.69037 7.38371 7.4979C7.17428 7.3612 6.95188 7.24548 6.71975 7.1524C6.59546 7.10431 6.46763 7.06592 6.33741 7.03759C6.25592 7.01832 6.17318 7.00474 6.0898 6.99694L6.47206 6.61866L6.55168 6.51085ZM8.27995 12.0525L8.35561 11.9848L8.43064 11.903L8.88695 11.4528L9.18573 11.1597L10.0983 10.2594L10.1574 10.2368L10.7235 9.68186L10.8212 9.59613C10.8552 9.56347 10.8871 9.52866 10.9167 9.49191L11.7465 8.69105L11.7971 8.67169L11.8406 8.62119L12.1189 8.35035L12.769 8.67215C12.7191 8.84326 12.6842 9.01838 12.6646 9.19553C12.5669 10.0016 12.7867 11.044 13.3888 11.3793C13.5442 11.4697 18.6664 14.0161 19.3078 14.3026C19.373 14.331 19.4441 14.3435 19.5152 14.3392C19.627 14.3344 19.7372 14.3102 19.8408 14.2679C19.9488 14.227 20.0487 14.1675 20.1361 14.092C20.1757 14.0593 20.2119 14.0228 20.2443 13.983L20.292 13.9309C20.372 13.8168 20.408 13.6777 20.3936 13.5391L20.8639 13.7701L16.6903 17.8613C16.6311 17.6181 16.5809 17.3858 16.5439 17.226C16.5376 17.2042 16.5295 17.1831 16.5197 17.1627C16.422 16.7827 16.4071 16.386 16.4761 15.9997L17.2212 16.3045C17.2707 16.3278 17.3228 16.3452 17.3764 16.3564C17.4922 16.3884 17.6153 16.382 17.7272 16.3382C17.8338 16.2942 17.9297 16.2278 18.0084 16.1435C18.0871 16.0592 18.1467 15.9589 18.1832 15.8495C18.1941 15.8187 18.2013 15.7867 18.2048 15.7542C18.2048 15.7542 18.1951 15.7289 18.2156 15.7066L18.2075 15.6855C18.2045 15.5513 18.1173 14.1101 17.6272 13.7513C17.341 13.5465 15.6596 12.7152 12.0004 10.9725L11.783 10.8719C11.5626 10.7671 11.3233 10.708 11.0794 10.6983C10.8355 10.6886 10.5922 10.7283 10.3641 10.8152C10.0701 10.9281 9.80821 11.1113 9.60133 11.3488C9.29072 11.7081 9.06639 12.1337 8.94548 12.5931C8.82457 13.0524 8.81029 13.5333 8.90373 13.9991C8.95388 14.2313 9.0635 14.7453 9.17088 15.2409L7.15977 14.2552C7.13234 14.2417 7.10245 14.2339 7.07191 14.2323C7.04138 14.2307 7.01083 14.2353 6.98213 14.2458C6.95061 14.251 6.92047 14.2625 6.89356 14.2797L6.70194 14.4739L6.10435 14.1755L8.27995 12.0525ZM13.7078 7.97944C13.8416 7.86373 13.9957 7.77367 14.1621 7.71378C14.2897 7.65322 14.4283 7.61944 14.5695 7.61451C14.7106 7.60958 14.8512 7.63361 14.9827 7.68511L15.1609 7.77167L15.7102 8.04499L16.8763 8.56581C18.2446 9.19786 19.9254 9.95206 20.1 10.0545L20.4087 10.2168L20.1978 10.2975C19.7977 10.4992 19.4648 10.8128 19.2396 11.2002C19.0144 11.5876 18.9067 12.0321 18.9295 12.4796C18.9725 12.9079 19.0805 13.4177 19.1313 13.6642C17.8116 13.0329 13.6667 10.9684 13.5803 10.9193C13.2052 10.7098 13.0031 9.87824 13.0825 9.17586C13.1015 8.94476 13.1666 8.71981 13.274 8.5143C13.3813 8.3088 13.5289 8.12692 13.7078 7.97944ZM7.44634 15.156L7.38365 14.8658L9.14081 15.731L9.40804 15.8608C9.44146 15.8768 9.47842 15.8839 9.51538 15.8815C9.55234 15.8791 9.58806 15.8672 9.61915 15.8471C9.65023 15.827 9.67564 15.7992 9.69294 15.7665C9.71025 15.7337 9.71888 15.6971 9.718 15.6601L9.68361 15.4943L9.34967 13.901C9.26983 13.5007 9.28386 13.0873 9.39066 12.6933C9.49746 12.2993 9.69412 11.9354 9.96521 11.6302C10.1189 11.45 10.3146 11.3105 10.5349 11.2237C10.7061 11.1583 10.8887 11.1283 11.0718 11.1356C11.2549 11.1428 11.4346 11.1871 11.6001 11.2658C12.5809 11.7318 15.3934 13.0684 16.7049 13.7415C16.1225 14.025 15.6498 14.4926 15.3601 15.0719C15.0704 15.6512 14.9799 16.3098 15.1024 16.9458C15.1522 17.2024 15.459 18.5982 15.597 19.1739L9.93781 16.3737L7.44634 15.156ZM21.497 11.4442C21.5465 11.6622 21.7845 12.891 21.8918 13.4494C21.9149 13.5856 21.9722 13.7861 21.9066 13.8547L16.3908 19.2522C16.3625 19.2813 16.3284 19.3042 16.2908 19.3194C16.266 19.329 16.2393 19.3328 16.2128 19.3305C16.1863 19.3283 16.1606 19.3201 16.1378 19.3065C16.1149 19.2929 16.0954 19.2743 16.0807 19.2521C16.0661 19.2299 16.0566 19.2047 16.0531 19.1783C15.9553 18.771 15.5984 17.1429 15.5432 16.8594C15.4308 16.3035 15.5128 15.7258 15.7755 15.2231C16.0382 14.7203 16.4657 14.3232 16.9863 14.098C17.0611 14.0722 17.1422 14.0707 17.218 14.0939C17.2937 14.117 17.3602 14.1636 17.4078 14.2268C17.5969 14.3672 17.7655 15.579 17.7647 15.6905C17.7516 15.7398 17.7267 15.7852 17.6923 15.8228C17.6578 15.8604 17.6148 15.8891 17.5669 15.9064L17.4897 15.9069C17.4481 15.5184 17.3634 15.1357 17.237 14.766C17.1998 14.7081 17.143 14.6657 17.077 14.6465C17.011 14.6273 16.9403 14.6327 16.8779 14.6616C16.7239 14.7337 16.5875 14.8387 16.4783 14.9691C16.0275 15.4462 15.8266 16.0838 16.0658 17.1768C16.1198 17.4317 16.2324 18.08 16.3389 18.5227C16.3418 18.5373 16.3477 18.5512 16.3564 18.5634C16.365 18.5755 16.3762 18.5856 16.3892 18.5931C16.4021 18.6005 16.4165 18.6051 16.4314 18.6065C16.4462 18.6078 16.4612 18.606 16.4753 18.601L16.5132 18.5865L21.3871 13.773C21.4155 13.7458 21.4365 13.7119 21.4484 13.6744C21.4602 13.637 21.4625 13.5971 21.4549 13.5585C21.3742 13.1833 21.1525 11.9338 21.0831 11.5881C21.0726 11.4782 21.0324 11.3733 20.9669 11.2844C20.9009 11.2168 20.8154 11.1716 20.7224 11.1552C20.6294 11.1387 20.5335 11.1518 20.4484 11.1927C20.3004 11.2511 20.1705 11.3475 20.0718 11.4721C19.8667 11.7523 19.7541 12.0895 19.7494 12.4367C19.749 12.4872 19.7521 12.5377 19.7589 12.5878C19.7718 12.7859 19.8857 13.2983 19.9255 13.4909C19.9431 13.6002 19.8438 13.6817 19.751 13.7172C19.6582 13.7527 19.6148 13.7403 19.6061 13.705C19.5077 13.2853 19.4324 12.8606 19.3805 12.4328C19.3678 12.0789 19.4556 11.7287 19.6337 11.4227C19.8119 11.1167 20.073 10.8674 20.387 10.7037L20.425 10.6892C20.564 10.6359 20.7154 10.6234 20.8613 10.6532C21.0072 10.6831 21.1415 10.754 21.2484 10.8577C21.3851 11.0259 21.47 11.2303 21.4928 11.4459L21.497 11.4442ZM16.7146 15.3719L16.7838 15.2874L16.8175 15.2745L16.8847 15.2101C16.9234 15.3113 16.9452 15.4819 16.9804 15.7005L16.6167 15.5205L16.7146 15.3719ZM20.2355 12.7342L20.2145 12.6794C20.2016 12.6456 20.1887 12.6119 20.2017 12.5827C20.1949 12.5423 20.1921 12.5012 20.1935 12.4602C20.1975 12.2781 20.2372 12.0986 20.3106 11.9319C20.3408 11.8739 20.3741 11.8176 20.4104 11.7632C20.461 11.7047 20.5246 11.6589 20.5961 11.6293L20.6298 11.6164L20.6556 11.6839C20.6916 11.8539 20.7613 12.2381 20.8342 12.6309L20.9488 13.259L20.2637 12.9216C20.2531 12.8435 20.2432 12.7796 20.2355 12.7342ZM4.97141 13.4003C4.9828 13.496 4.97736 13.593 4.95533 13.6868C4.77192 13.5939 4.59375 13.491 4.42162 13.3785C4.11362 13.1985 3.83099 12.9782 3.58121 12.7234C3.01558 12.1421 2.68663 11.5476 2.84836 11.389L2.89475 11.3713C3.10141 11.2922 3.64318 11.6216 4.16415 12.162C4.51377 12.4766 4.7788 12.8739 4.93492 13.3175C4.94964 13.3439 4.96186 13.3716 4.97141 13.4003ZM4.09615 8.90054L4.71679 8.28603L4.75474 8.27151C4.80498 8.22853 4.8626 8.19502 4.9248 8.17262C5.01305 8.1405 5.10593 8.12293 5.19981 8.1206C5.559 8.13031 5.90888 8.23702 6.21234 8.42944L6.34124 8.501C6.6612 8.69582 6.95446 8.93141 7.21367 9.20186C7.44633 9.42347 7.65406 9.66985 7.83316 9.93662C7.85658 9.97071 7.87816 10.006 7.8978 10.0424C8.11581 10.3792 8.2367 10.7696 8.24718 11.1706C8.24939 11.3201 8.20368 11.4663 8.11675 11.5879L8.09144 11.5976L8.00115 11.6902L7.42144 12.26L6.2279 13.4369C6.2145 13.2414 6.17337 13.0488 6.10575 12.8648C5.87139 12.2703 5.51104 11.7336 5.04947 11.2916C4.48979 10.6611 3.73346 10.2383 2.90323 10.0917L4.09615 8.90054Z" fill="#082F49"/>
<path d="M6.10658 14.194L6.70417 14.4924L6.8958 14.2982C6.92271 14.281 6.95284 14.2695 6.98436 14.2643C7.01306 14.2538 7.04361 14.2492 7.07415 14.2508C7.10468 14.2524 7.13457 14.2602 7.162 14.2737L9.1689 15.261C9.06152 14.7654 8.9519 14.2514 8.90175 14.0191C8.80805 13.5496 8.82385 13.0647 8.94794 12.6022C9.07202 12.1397 9.30104 11.712 9.61721 11.3524C9.82409 11.1149 10.086 10.9317 10.38 10.8188C10.6081 10.7319 10.8514 10.6921 11.0953 10.7019C11.3391 10.7116 11.5785 10.7707 11.7989 10.8755L12.0163 10.9761C15.6755 12.7188 17.3526 13.5518 17.6431 13.7549C18.1332 14.1137 18.2204 15.5549 18.2234 15.6891L18.2315 15.7102C18.2315 15.7102 18.2315 15.7102 18.2207 15.7578C18.2172 15.7903 18.21 15.8223 18.1991 15.8531C18.1626 15.9625 18.103 16.0628 18.0243 16.1471C17.9456 16.2314 17.8497 16.2978 17.7431 16.3418C17.6312 16.3856 17.5081 16.392 17.3923 16.36C17.3387 16.3488 17.2866 16.3314 17.2371 16.3081L16.4555 15.9206C16.3868 16.301 16.3995 16.6916 16.4927 17.0667C16.5025 17.0871 16.5106 17.1082 16.5169 17.1299C16.5538 17.2898 16.604 17.5221 16.6632 17.7653L20.8368 13.6741L20.3665 13.4431C20.381 13.5817 20.3449 13.7208 20.265 13.8349L20.2172 13.887C20.1848 13.9268 20.1486 13.9633 20.1091 13.996C20.0217 14.0715 19.9217 14.131 19.8137 14.1718C19.7101 14.2142 19.6 14.2384 19.4881 14.2432C19.417 14.2475 19.346 14.235 19.2807 14.2065C18.6393 13.9201 13.5172 11.3737 13.3617 11.2833C12.7512 10.9512 12.5398 9.9056 12.6376 9.09952C12.6571 8.92237 12.692 8.74725 12.7419 8.57614L12.0919 8.25434L11.8135 8.52518L11.77 8.57568L11.7194 8.59504L10.8896 9.3959C10.8601 9.43265 10.8282 9.46746 10.7941 9.50012L10.6964 9.58585L10.1303 10.1408L10.0713 10.1634L9.18573 11.1597L8.88695 11.4528L8.43064 11.903L8.35561 11.9848L8.27995 12.0525L6.10658 14.194Z" fill="white"/>
<path d="M16.8968 15.191L16.8295 15.2554L16.7958 15.2683L16.7266 15.3528L16.6239 15.4888L16.9876 15.6687C16.9572 15.4628 16.9228 15.2971 16.8968 15.191Z" fill="white"/>
<path d="M20.8351 12.6208C20.7623 12.2281 20.6926 11.8438 20.6566 11.6739L20.6308 11.6064L20.5971 11.6193C20.5256 11.6489 20.462 11.6947 20.4114 11.7532C20.3751 11.8076 20.3417 11.8639 20.3115 11.9219C20.2382 12.0886 20.1985 12.2681 20.1945 12.4501C20.1931 12.4911 20.1959 12.5322 20.2027 12.5727C20.2108 12.5938 20.2237 12.6275 20.2155 12.6693L20.2365 12.7241C20.2575 12.779 20.2801 12.838 20.2705 12.9142L20.9556 13.2516L20.8351 12.6208Z" fill="white"/>
<path d="M2.90323 10.0917C3.73346 10.2383 4.48979 10.6611 5.04947 11.2916C5.4997 11.7464 5.84591 12.2936 6.0642 12.8952C6.13182 13.0792 6.17295 13.2718 6.18635 13.4673L7.37989 12.2904L7.9596 11.7206L8.04989 11.628L8.0752 11.6183C8.16212 11.4967 8.20783 11.3505 8.20563 11.201C8.2054 10.7943 8.09147 10.3958 7.87672 10.0505C7.86421 10.0118 7.84967 9.97379 7.83316 9.93662C7.65989 9.66033 7.45649 9.40412 7.22669 9.1727C6.96748 8.90226 6.67422 8.66666 6.35426 8.47184L6.21234 8.42944C5.91026 8.23718 5.56193 8.12993 5.20402 8.11898C5.11014 8.12132 5.01726 8.13888 4.92902 8.171C4.86682 8.19341 4.8092 8.22692 4.75896 8.2699L4.721 8.28442L4.10036 8.89893L2.90323 10.0917Z" fill="#3B82F6"/>
<path d="M4.37881 14.1008L6.70442 15.2513L6.63751 14.9627L4.43596 13.871C4.0015 13.6633 3.61056 13.3748 3.28403 13.0208C2.88019 12.6097 1.99767 11.5791 2.53385 11.0597C2.59071 11.0048 2.6585 10.9624 2.7328 10.9353C3.31059 10.7143 4.15598 11.4835 4.49121 11.829C4.82645 12.1746 5.53204 12.9828 5.37087 13.5472C5.36588 13.5689 5.36302 13.5911 5.36232 13.6133C5.32241 13.8123 5.6292 13.9318 5.71737 13.7579C5.83439 13.2297 5.44759 12.3576 4.71595 11.6077C3.92154 10.7948 2.97759 10.3872 2.45463 10.5873C2.40258 10.6053 2.35397 10.6321 2.31087 10.6664L2.24364 10.7308C2.13785 10.8838 2.0747 11.0622 2.06069 11.2477C2.04668 11.4332 2.08231 11.6191 2.16392 11.7862L2.17683 11.82C2.21394 11.917 2.25427 12.0224 2.29622 12.1321C2.30912 12.1658 2.32364 12.2038 2.33655 12.2375C2.34946 12.2712 2.42961 12.4049 2.48197 12.4913C2.53434 12.5776 2.57156 12.6117 2.61424 12.6727C2.65692 12.7338 2.69799 12.7906 2.74489 12.85C2.83869 12.9688 2.94676 13.087 3.06227 13.212C3.43987 13.5902 3.88689 13.892 4.37881 14.1008Z" fill="white"/>
<path d="M8.80071 4.30168C9.63745 4.43329 10.4024 4.85159 10.9648 5.485C11.5839 6.0528 11.9887 6.81641 12.1111 7.64749L12.2124 7.54588L12.2377 7.5362C12.6004 7.06872 12.2272 6.01734 11.3535 5.12359C10.5591 4.3107 9.62259 3.90992 9.09964 4.10997C9.04357 4.12995 8.99084 4.15827 8.94322 4.19398L8.80071 4.30168Z" fill="#3B82F6"/>
<path d="M4.17779 12.1471C3.65261 11.6084 3.11083 11.279 2.9084 11.3564L2.86201 11.3742C2.70027 11.5327 3.02922 12.1272 3.59485 12.7086C3.83996 12.9609 4.11718 13.18 4.41938 13.36C4.59151 13.4725 4.76968 13.5754 4.95309 13.6683C4.97513 13.5745 4.98057 13.4775 4.96917 13.3818C4.95989 13.3452 4.94636 13.3098 4.92884 13.2764C4.77449 12.8443 4.51662 12.4565 4.17779 12.1471Z" fill="white"/>
<path d="M10.6701 8.88523C10.6946 8.72701 10.687 8.5655 10.648 8.41025C10.4729 7.77415 10.1286 7.19743 9.65182 6.74146C9.20609 6.253 8.63484 5.89627 8.00032 5.71013C7.85144 5.67278 7.69696 5.66305 7.54456 5.68142C7.49245 5.6966 7.44167 5.71603 7.39274 5.7395C7.34694 5.74968 7.30289 5.76653 7.262 5.78951L7.14119 5.90341C7.30103 5.92009 7.45892 5.95196 7.61271 5.99861L7.69695 6.02923C7.86641 6.09038 8.03073 6.16494 8.18834 6.25219C8.59449 6.47795 8.96444 6.76341 9.28581 7.09902C9.6119 7.42808 9.88869 7.80257 10.1076 8.21087C10.1915 8.36623 10.2617 8.52864 10.3174 8.69624C10.3303 8.72997 10.3416 8.7595 10.3545 8.79324C10.3966 8.94132 10.4225 9.09355 10.4315 9.24724L10.4825 9.20357L10.5533 9.1233C10.6075 9.05241 10.6472 8.97151 10.6701 8.88523Z" fill="#3B82F6"/>
<path d="M8.61789 10.7242C8.63816 10.8256 8.65313 10.928 8.66272 11.031L8.81342 10.8815C8.87415 10.7682 8.90548 10.6415 8.90454 10.513C8.9059 10.347 8.88181 10.1818 8.83313 10.0231C8.76411 9.79562 8.66623 9.57798 8.54188 9.37544C8.35534 9.06038 8.13046 8.76966 7.87238 8.50993C7.61834 8.24439 7.33263 8.01109 7.02166 7.81527C6.82 7.68842 6.60394 7.58605 6.37805 7.51034C6.2264 7.45843 6.06742 7.43111 5.90715 7.42941C5.80794 7.42613 5.70906 7.44259 5.61626 7.47783L5.51504 7.51655C5.47791 7.54085 5.44323 7.56869 5.41148 7.59968L5.36112 7.65762C5.58006 7.67781 5.79501 7.72907 5.9995 7.80985C6.23344 7.90123 6.45735 8.01647 6.66768 8.15373C6.98044 8.35744 7.26937 8.59557 7.52907 8.86365C7.79495 9.12036 8.03087 9.40639 8.23231 9.71625C8.36065 9.92706 8.46849 10.1497 8.55432 10.3811C8.58494 10.4935 8.6062 10.6083 8.61789 10.7242Z" fill="#3B82F6"/>
<path d="M8.37059 4.79496C8.30855 4.81772 8.25099 4.85119 8.20053 4.89386L7.85139 5.24497L8.00955 5.26665C8.7744 5.45004 9.46648 5.85903 9.99601 6.44058C10.4475 6.89468 10.7951 7.44125 11.015 8.04264C11.0608 8.17463 11.095 8.3104 11.117 8.44838L11.1323 8.60208L11.4226 8.31213L11.4898 8.24774C11.8726 7.78224 11.4946 6.71821 10.6134 5.81764C9.8148 5.00636 8.89354 4.59491 8.37059 4.79496Z" fill="#3B82F6"/>
<path d="M6.31409 7.02718C6.44431 7.05551 6.57214 7.09389 6.69642 7.14199C6.93702 7.23696 7.1673 7.35622 7.38371 7.4979C7.69021 7.70326 7.97492 7.93939 8.23344 8.20261C8.48924 8.46138 8.71553 8.74775 8.90815 9.05645C9.02491 9.26291 9.12105 9.48037 9.19518 9.70568L9.22583 9.78581C9.25948 9.88317 9.28627 9.98278 9.30601 10.0839C9.3235 10.1654 9.33569 10.2479 9.34252 10.331L9.77825 9.96609L9.84151 9.94189C9.93614 9.81389 9.98701 9.65881 9.98658 9.49963C9.98488 9.19202 9.90891 8.88937 9.76513 8.61743C9.55836 8.19569 9.28372 7.81077 8.95218 7.47805C8.63025 7.14133 8.2548 6.86022 7.84107 6.6461C7.58634 6.4889 7.29823 6.39376 6.99997 6.36837C6.90076 6.36509 6.80188 6.38155 6.70909 6.41679C6.65763 6.42908 6.608 6.44807 6.56148 6.47326L6.54039 6.48133L6.43744 6.57872L6.05519 6.95701C6.14311 6.97395 6.22965 6.9974 6.31409 7.02718Z" fill="#3B82F6"/>
<path d="M13.5835 10.9277C13.6699 10.9768 17.8149 13.0413 19.1345 13.6727C19.0837 13.4262 18.9757 12.9164 18.9327 12.488C18.9099 12.0405 19.0177 11.596 19.2428 11.2086C19.468 10.8212 19.8009 10.5076 20.201 10.3059L20.4119 10.2253L20.1032 10.0629C19.9086 9.95852 18.2478 9.2063 16.8504 8.56122L15.6843 8.0404L15.1349 7.76709L14.9568 7.68053C14.8253 7.62902 14.6847 7.60499 14.5435 7.60992C14.4024 7.61485 14.2638 7.64863 14.1362 7.70919C13.9786 7.77326 13.8335 7.86476 13.7078 7.97944C13.5285 8.12818 13.381 8.31153 13.2741 8.51854C13.1672 8.72555 13.1032 8.95198 13.0858 9.1843C12.9999 9.86981 13.202 10.7014 13.5835 10.9277Z" fill="white"/>
<path d="M21.2336 10.844C21.1266 10.7404 20.9923 10.6694 20.8464 10.6396C20.7005 10.6098 20.5491 10.6222 20.4101 10.6756L20.3721 10.6901C20.0582 10.8538 19.797 11.103 19.6188 11.409C19.4407 11.715 19.3529 12.0653 19.3656 12.4191C19.4175 12.847 19.4928 13.2717 19.5912 13.6913C19.6041 13.7251 19.6686 13.7294 19.7361 13.7036C19.8036 13.6778 19.9283 13.5866 19.9106 13.4773C19.874 13.2931 19.7602 12.7807 19.744 12.5741C19.7372 12.524 19.7341 12.4735 19.7346 12.423C19.7374 12.0778 19.8471 11.742 20.0485 11.4617C20.1472 11.337 20.2771 11.2407 20.4251 11.1823C20.5102 11.1414 20.6061 11.1283 20.6991 11.1447C20.7921 11.1612 20.8776 11.2064 20.9436 11.274C21.0091 11.3628 21.0492 11.4678 21.0598 11.5777C21.1292 11.9234 21.3509 13.1729 21.4316 13.5481C21.4391 13.5867 21.4369 13.6265 21.425 13.664C21.4132 13.7015 21.3921 13.7354 21.3638 13.7626L16.5042 18.5755L16.4662 18.59C16.4521 18.5949 16.4372 18.5968 16.4223 18.5954C16.4074 18.594 16.3931 18.5895 16.3801 18.582C16.3672 18.5746 16.356 18.5645 16.3473 18.5523C16.3387 18.5402 16.3327 18.5263 16.3299 18.5116C16.2234 18.0689 16.1124 17.4249 16.0568 17.1657C15.8175 16.0728 16.0184 15.4351 16.4692 14.9581C16.5853 14.8273 16.7293 14.7243 16.8906 14.6567C16.9529 14.6278 17.0237 14.6225 17.0897 14.6417C17.1557 14.6608 17.2125 14.7033 17.2496 14.7611C17.376 15.1309 17.4608 15.5135 17.5024 15.9021L17.5795 15.9016C17.6275 15.8842 17.6705 15.8555 17.7049 15.8179C17.7394 15.7803 17.7642 15.735 17.7773 15.6857C17.7782 15.5742 17.6095 14.3624 17.4205 14.222C17.3728 14.1587 17.3064 14.1122 17.2306 14.089C17.1549 14.0659 17.0738 14.0673 16.9989 14.0932C16.4783 14.3183 16.0509 14.7155 15.7882 15.2182C15.5254 15.7209 15.4434 16.2986 15.5558 16.8546C15.6111 17.138 15.968 18.7661 16.0658 19.1735C16.0693 19.1998 16.0787 19.2251 16.0934 19.2473C16.108 19.2695 16.1275 19.2881 16.1504 19.3016C16.1733 19.3152 16.199 19.3234 16.2255 19.3257C16.252 19.3279 16.2786 19.3241 16.3035 19.3146C16.3411 19.2993 16.3751 19.2764 16.4034 19.2474L21.9024 13.8563C21.968 13.7877 21.9107 13.5872 21.8876 13.451C21.7803 12.8926 21.5375 11.6511 21.4928 11.4459C21.4683 11.2239 21.378 11.0143 21.2336 10.844Z" fill="white"/>
<path d="M9.93781 16.3737L15.5805 19.1561C15.4505 18.6015 15.1438 17.2056 15.0859 16.928C14.9633 16.292 15.0539 15.6333 15.3436 15.054C15.6333 14.4747 16.106 14.0071 16.6884 13.7237C15.3769 13.0505 12.5644 11.714 11.5836 11.248C11.4181 11.1693 11.2384 11.125 11.0553 11.1177C10.8722 11.1105 10.6896 11.1404 10.5184 11.2058C10.2981 11.2926 10.1024 11.4322 9.94871 11.6123C9.67782 11.921 9.48264 12.2885 9.37865 12.6858C9.27466 13.0831 9.26474 13.4992 9.34967 13.901L9.69205 15.4911L9.72644 15.6568C9.72731 15.6939 9.71868 15.7305 9.70138 15.7632C9.68407 15.796 9.65867 15.8237 9.62758 15.8439C9.5965 15.864 9.56077 15.8758 9.52381 15.8782C9.48686 15.8806 9.4499 15.8735 9.41647 15.8576L9.14925 15.7278L7.39208 14.8626L7.45477 15.1528L9.35932 16.0873L9.93781 16.3737Z" fill="white"/>
</g>
<defs>
<clipPath id="clip0_322_915">
<rect width="24" height="24" fill="white"/>
</clipPath>
</defs>
</svg>
