<svg width="48" height="48" viewBox="0 0 48 48" fill="none" xmlns="http://www.w3.org/2000/svg">
<path d="M5.64869 24.2193L9.29869 28.2193C9.48543 28.4234 9.71249 28.5866 9.96552 28.6985C10.2185 28.8104 10.492 28.8685 10.7687 28.8693H11.1187L25.2587 43.9993C25.5476 44.3138 25.9296 44.5276 26.3487 44.6093C26.485 44.6241 26.6224 44.6241 26.7587 44.6093C27.0559 44.6107 27.3497 44.5458 27.6187 44.4193L27.9187 44.2693L28.0987 44.2093L43.8087 37.3893C44.2184 37.1742 44.5655 36.8567 44.8161 36.4677C45.0667 36.0786 45.2123 35.6313 45.2387 35.1693V35.0593L45.3387 34.4593C45.5387 33.4593 45.7287 32.3893 45.8787 31.4593L45.9987 30.7793C46.0515 30.502 46.085 30.2213 46.0987 29.9393C46.1434 29.5807 46.1434 29.2179 46.0987 28.8593C46.0708 28.4318 45.9693 28.0123 45.7987 27.6193C45.2987 26.7642 44.694 25.9748 43.9987 25.2693L43.7887 24.9993C43.5587 24.7393 42.7887 23.8893 40.7887 21.8793C38.7887 19.8693 35.7887 16.7993 35.0987 15.9893C34.6818 15.5633 34.1791 15.2307 33.624 15.0135C33.0689 14.7963 32.474 14.6994 31.8787 14.7293C31.3822 14.7232 30.8873 14.7872 30.4087 14.9193C31.1387 13.2693 30.9887 10.8593 29.8987 8.34932C28.5287 5.29932 26.2987 3.30931 24.1787 3.30931C23.84 3.30208 23.5024 3.34935 23.1787 3.44931L22.9987 3.52931L18.3687 5.52931L18.1087 5.61931C18.0147 5.65787 17.9244 5.70472 17.8387 5.75932L16.3687 6.39931L16.1487 6.47931L15.9487 6.58931L13.3987 7.70931C13.2745 7.73559 13.1538 7.77585 13.0387 7.82931C12.9165 7.88199 12.7994 7.94558 12.6887 8.01932L4.24869 11.6993L4.06869 11.7693C3.96047 11.8126 3.85666 11.8662 3.75869 11.9293C3.13182 12.329 2.62384 12.8898 2.28784 13.553C1.95185 14.2162 1.80018 14.9574 1.84869 15.6993V15.8493C1.84869 16.1693 1.84869 16.4793 1.84869 16.7793C1.84869 16.8693 1.84869 16.9693 1.89869 17.0693V17.1493C1.92403 17.3981 1.96411 17.6452 2.01869 17.8893C2.01869 18.0393 2.09869 18.2093 2.13869 18.3693V18.4993V18.6193C2.17078 18.7582 2.21085 18.8951 2.25869 19.0293C2.37869 19.4193 2.52869 19.8093 2.68869 20.1893C3.05524 21.0364 3.51831 21.8384 4.06869 22.5793C4.13728 22.6997 4.22133 22.8107 4.31869 22.9093L4.39869 22.9993C4.53869 23.1693 4.67869 23.3293 4.82869 23.4793L5.64869 24.2193ZM4.27869 18.4193C4.27869 18.2593 4.19869 18.1093 4.14869 17.9493C4.09869 17.7893 4.05869 17.6293 4.01869 17.4693C3.97869 17.3093 3.99869 16.9993 3.91869 16.8293C3.83869 16.6593 3.91869 16.6593 3.91869 16.5793C3.91869 16.3193 3.91869 16.0693 3.91869 15.8393V15.7593C3.88214 15.349 3.95551 14.9363 4.13126 14.5637C4.30701 14.1911 4.57879 13.8721 4.91869 13.6393L4.99869 13.5493C5.115 13.5124 5.23673 13.4955 5.35869 13.4993C6.59869 13.4993 8.22869 15.0893 9.22869 17.3993C10.1487 19.5293 10.2287 21.6093 9.59869 22.6393C9.27869 22.9293 8.73869 22.4393 8.97869 22.0593C8.99775 22.0138 9.02119 21.9703 9.04869 21.9293C9.82869 20.9293 9.04869 18.6893 8.58869 17.6793C8.12869 16.6693 7.02869 14.4393 5.65869 14.4393C5.48356 14.4365 5.30981 14.4706 5.14869 14.5393C3.57869 15.2293 4.58869 18.0193 5.14869 19.1893C5.54403 20.1798 6.12437 21.0859 6.85869 21.8593L10.5487 25.8593L10.4587 26.5093L6.55869 22.2893C5.74477 21.4556 5.09661 20.4749 4.64869 19.3993C4.50869 19.0693 4.37869 18.7393 4.27869 18.4193ZM27.9987 9.18931C29.0987 11.7293 28.9987 14.1893 27.9187 14.8793H27.8587L27.5687 15.0093C27.9915 13.2163 27.7904 11.3327 26.9987 9.66931C26.3494 7.92198 25.1166 6.45249 23.5087 5.50932L23.8387 5.35931C23.9654 5.32312 24.0969 5.30627 24.2287 5.30931C25.4187 5.30931 26.9987 6.87931 27.9987 9.18931ZM17.2187 13.9393C16.8936 13.1793 16.4844 12.4581 15.9987 11.7893C15.6769 11.3504 15.3117 10.945 14.9087 10.5793C14.5496 10.2504 14.1456 9.97431 13.7087 9.75932L13.8587 9.67932C13.9489 9.64033 14.0427 9.61019 14.1387 9.58931H14.3787C14.5985 9.58984 14.8161 9.63403 15.0187 9.71932C15.3559 9.84774 15.67 10.0301 15.9487 10.2593C16.3402 10.5877 16.6926 10.9601 16.9987 11.3693C17.494 12.0194 17.9071 12.728 18.2287 13.4793C18.557 14.2207 18.7921 15 18.9287 15.7993C19.019 16.3175 19.0425 16.8451 18.9987 17.3693C18.976 17.7322 18.8985 18.0896 18.7687 18.4293C18.669 18.6959 18.5039 18.9331 18.2887 19.1193L17.8587 19.3093C17.9203 19.0887 17.9704 18.8651 18.0087 18.6393C18.0493 18.388 18.0694 18.1339 18.0687 17.8793C18.0967 17.3383 18.0733 16.7959 17.9987 16.2593C17.8272 15.459 17.5655 14.6807 17.2187 13.9393ZM23.0487 17.0693L22.9087 17.1193C23.0116 16.7943 23.0786 16.4589 23.1087 16.1193C23.1087 16.0393 23.1087 15.9693 23.1087 15.8893C23.1262 15.4986 23.1094 15.1071 23.0587 14.7193C22.929 13.7016 22.6528 12.708 22.2387 11.7693C21.8395 10.8208 21.3002 9.93764 20.6387 9.14931C20.3817 8.84412 20.1008 8.55989 19.7987 8.29931L19.6487 8.16931C19.3675 7.95115 19.0661 7.76028 18.7487 7.59931L19.0887 7.45931C19.1915 7.44412 19.2959 7.44412 19.3987 7.45931C19.5185 7.44948 19.6389 7.44948 19.7587 7.45931C20.0885 7.54189 20.4003 7.68424 20.6787 7.87931C21.8439 8.7664 22.7432 9.95629 23.2787 11.3193C23.8884 12.6267 24.137 14.0734 23.9987 15.5093C23.9567 15.8614 23.8445 16.2014 23.6687 16.5093C23.5601 16.7032 23.4098 16.8706 23.2287 16.9993L23.0487 17.0693ZM25.9187 15.7893L25.7287 15.8693L24.8987 16.2393L24.9887 15.9093C25.0523 15.6065 25.0891 15.2986 25.0987 14.9893C25.1118 13.5658 24.8149 12.1566 24.2287 10.8593C23.5935 9.23741 22.4856 7.84381 21.0487 6.85931L20.7387 6.68931L21.7387 6.23931C21.8768 6.19099 22.0224 6.1673 22.1687 6.16931C23.4087 6.16931 25.0287 7.74932 26.0187 10.0493C27.1387 12.6293 27.0787 15.1293 25.9187 15.7893ZM17.0587 8.29931H17.1087C17.2249 8.28401 17.3425 8.28401 17.4587 8.29931C17.6785 8.29984 17.8961 8.34403 18.0987 8.42932C18.7125 8.68559 19.2573 9.08301 19.6887 9.58931C20.3751 10.3596 20.9292 11.2381 21.3287 12.1893C21.7512 13.1399 22.0147 14.1534 22.1087 15.1893C22.1909 15.8656 22.1086 16.5517 21.8687 17.1893C21.7436 17.5189 21.5157 17.7994 21.2187 17.9893H21.1387H21.0687L19.9287 18.4893C19.9803 18.3121 20.0204 18.1317 20.0487 17.9493C20.0879 17.7246 20.1112 17.4973 20.1187 17.2693V16.9993C20.1226 16.4453 20.069 15.8923 19.9587 15.3493C19.8045 14.5584 19.563 13.787 19.2387 13.0493C18.8948 12.3263 18.4794 11.6396 17.9987 10.9993C17.6736 10.5508 17.3052 10.1355 16.8987 9.75932C16.6797 9.56149 16.4456 9.38095 16.1987 9.21932C16.0454 9.11497 15.885 9.02141 15.7187 8.93931L16.8087 8.45931L17.0587 8.29931ZM16.2487 21.1293L16.4587 21.0493L16.6787 20.9393L17.9787 20.3693L18.8287 19.9993L21.4287 18.8593H21.4887H21.5687L23.1787 18.1593L23.4487 18.0593C23.5449 18.0187 23.6384 17.9719 23.7287 17.9193L26.0787 16.9193H26.1987L26.3287 16.8493L27.1187 16.5093L28.2087 17.6893C27.9701 18.0038 27.7593 18.3384 27.5787 18.6893C26.7387 20.2793 26.3687 22.6093 27.3487 23.7793C27.5987 24.0893 36.1787 33.4093 37.2787 34.5093C37.3912 34.6197 37.5283 34.702 37.6787 34.7493C37.9139 34.8278 38.1608 34.865 38.4087 34.8593C38.6644 34.8603 38.9182 34.8163 39.1587 34.7293C39.2664 34.6929 39.3702 34.6461 39.4687 34.5893L39.6087 34.5193C39.8643 34.3466 40.049 34.0874 40.1287 33.7893L40.9187 34.6393L38.4387 35.7193L29.0487 39.7993C29.1187 39.2493 29.1987 38.7293 29.2487 38.3693C29.2529 38.3194 29.2529 38.2692 29.2487 38.2193C29.3472 37.3559 29.6303 36.5237 30.0787 35.7793L31.3787 36.9993C31.4628 37.0866 31.5567 37.1638 31.6587 37.2293C31.8729 37.3873 32.1326 37.4715 32.3987 37.4693C32.654 37.4627 32.905 37.4013 33.1345 37.2891C33.364 37.177 33.5666 37.0167 33.7287 36.8193C33.7755 36.7641 33.8157 36.7037 33.8487 36.6393C33.8487 36.6393 33.8487 36.5793 33.9087 36.5493V36.4993C34.0087 36.2193 34.9687 33.1693 34.2387 32.0393C33.8087 31.3893 30.9887 28.3393 24.7987 21.8393L24.4287 21.4593C24.0557 21.0681 23.6074 20.7565 23.1107 20.5434C22.6139 20.3303 22.0792 20.22 21.5387 20.2193C20.8412 20.2201 20.1545 20.3918 19.5387 20.7193C18.6119 21.2169 17.8111 21.9197 17.1975 22.7742C16.584 23.6287 16.1739 24.6121 15.9987 25.6493C15.9187 26.1693 15.7387 27.3193 15.5687 28.4293L12.1887 24.7993C12.1426 24.7497 12.087 24.7099 12.0251 24.6824C11.9632 24.6549 11.8964 24.6402 11.8287 24.6393C11.7594 24.625 11.688 24.625 11.6187 24.6393L11.0687 24.8893L10.0687 23.7993L16.2487 21.1293ZM30.6987 16.9993C31.0671 16.8659 31.4569 16.8015 31.8487 16.8093C32.1605 16.785 32.4739 16.8248 32.7698 16.9263C33.0656 17.0277 33.3375 17.1887 33.5687 17.3993L33.8687 17.7193L34.7887 18.7193L36.7887 20.7193C39.1187 23.1093 41.9987 25.9993 42.2787 26.3493L42.7887 26.9293H42.4487H42.2887C41.3015 27.0299 40.3647 27.4152 39.5925 28.0383C38.8202 28.6615 38.2456 29.4956 37.9387 30.4393C37.6887 31.3593 37.5087 32.4993 37.4187 33.0493C35.1887 30.6993 28.2487 23.1493 28.1087 22.9793C27.4987 22.2493 27.7387 20.3693 28.4587 18.9793C28.6807 18.5163 28.9933 18.1025 29.3781 17.7624C29.7628 17.4223 30.2119 17.1628 30.6987 16.9993ZM12.0687 26.8893L12.1687 26.2393L15.1187 29.4193L15.5687 29.8993C15.6252 29.9587 15.696 30.0027 15.7744 30.027C15.8527 30.0512 15.936 30.055 16.0162 30.038C16.0964 30.0209 16.171 29.9836 16.2327 29.9296C16.2944 29.8755 16.3412 29.8066 16.3687 29.7293L16.4287 29.3593L16.9987 25.7993C17.1503 24.9081 17.5064 24.0641 18.0391 23.3336C18.5718 22.6032 19.2665 22.0061 20.0687 21.5893C20.5292 21.3384 21.0443 21.2044 21.5687 21.1993C21.9745 21.1995 22.376 21.282 22.749 21.4419C23.122 21.6017 23.4587 21.8356 23.7387 22.1293C25.3987 23.8693 30.1587 28.8593 32.3387 31.2893C30.9098 31.4148 29.5621 32.008 28.5045 32.977C27.4469 33.9461 26.7384 35.2368 26.4887 36.6493C26.3887 37.2193 25.9187 40.3493 25.7487 41.6493L16.2587 31.3793L15.2587 30.3093L12.0687 26.8893ZM44.0687 30.3293C43.9987 30.8193 43.5187 33.5493 43.2987 34.7893C43.2387 35.0893 43.1987 35.5493 43.0087 35.6393L27.3287 42.4393C27.2471 42.4771 27.1586 42.4975 27.0687 42.4993C27.0098 42.4994 26.9516 42.4861 26.8986 42.4605C26.8455 42.4349 26.799 42.3976 26.7624 42.3514C26.7258 42.3052 26.7002 42.2513 26.6874 42.1938C26.6747 42.1363 26.6751 42.0766 26.6887 42.0193C26.8087 41.0993 27.3587 37.4493 27.4687 36.8193C27.6761 35.5804 28.3029 34.4504 29.2441 33.6184C30.1853 32.7865 31.3837 32.3031 32.6387 32.2493C32.814 32.2552 32.9829 32.3164 33.1212 32.4242C33.2596 32.5319 33.3602 32.6808 33.4087 32.8493C33.6887 33.2893 33.0787 35.9293 32.9887 36.1593C32.9226 36.2508 32.8353 36.325 32.7343 36.3755C32.6333 36.426 32.5216 36.4513 32.4087 36.4493L32.2487 36.3893C32.4701 35.5528 32.5976 34.6941 32.6287 33.8293C32.5976 33.6803 32.5137 33.5476 32.3924 33.4557C32.271 33.3637 32.1205 33.3189 31.9687 33.3293C31.5929 33.3566 31.2277 33.4658 30.8987 33.6493C29.5887 34.2793 28.6687 35.4393 28.2987 37.8893C28.2087 38.4593 27.9287 39.8893 27.7987 40.8893C27.7929 40.9219 27.7942 40.9553 27.8026 40.9873C27.8109 41.0192 27.826 41.0491 27.8469 41.0747C27.8677 41.1003 27.8939 41.1211 27.9235 41.1357C27.9532 41.1503 27.9857 41.1584 28.0187 41.1593H28.1087L41.9987 35.0593C42.0789 35.0254 42.1493 34.972 42.2034 34.9039C42.2576 34.8357 42.2938 34.7551 42.3087 34.6693C42.4387 33.8293 42.9687 31.0693 43.0987 30.2993C43.1639 30.0637 43.1639 29.8149 43.0987 29.5793C43.0157 29.3873 42.8746 29.2261 42.6952 29.1185C42.5158 29.0108 42.3072 28.9622 42.0987 28.9793C41.7465 28.983 41.4016 29.0796 41.0987 29.2593C40.4528 29.6766 39.953 30.2848 39.6687 30.9993C39.6277 31.1034 39.5943 31.2104 39.5687 31.3193C39.4387 31.7393 39.2687 32.8893 39.1987 33.3193C39.1487 33.5593 38.8787 33.6493 38.6587 33.6493C38.4387 33.6493 38.3587 33.5893 38.3687 33.5093C38.4971 32.5635 38.6774 31.6254 38.9087 30.6993C39.1624 29.9573 39.6211 29.3024 40.2316 28.8104C40.8422 28.3184 41.5797 28.0094 42.3587 27.9193H42.4487C42.7785 27.919 43.1015 28.013 43.3796 28.1902C43.6578 28.3673 43.8795 28.6203 44.0187 28.9193C44.1682 29.3755 44.1821 29.8654 44.0587 30.3293H44.0687ZM31.0687 34.6693L31.2787 34.5493H31.3587L31.5487 34.4693C31.5487 34.7093 31.4587 35.0793 31.3587 35.5593L30.7487 34.8993L31.0687 34.6693ZM40.4387 31.9993V31.8693C40.4387 31.7893 40.4387 31.7093 40.4887 31.6593C40.5065 31.5702 40.5333 31.483 40.5687 31.3993C40.7209 31.0259 40.9451 30.6861 41.2287 30.3993C41.337 30.3032 41.4506 30.2131 41.5687 30.1293C41.7197 30.0484 41.8875 30.0039 42.0587 29.9993H42.1387V30.1593C42.0787 30.5393 41.9187 31.3893 41.7587 32.2593L41.4987 33.6493L40.3487 32.4093C40.3887 32.2393 40.4187 32.0993 40.4387 31.9993ZM8.33869 21.2993C8.28652 21.5063 8.19852 21.7026 8.07869 21.8793C7.77284 21.542 7.48574 21.1881 7.21869 20.8193C6.72406 20.2032 6.31378 19.5239 5.99869 18.7993C5.28869 17.1493 5.07869 15.6593 5.53869 15.4593H5.64869C6.13869 15.4593 6.99869 16.5693 7.64869 18.0993C8.12296 19.0266 8.35677 20.0582 8.32869 21.0993C8.33827 21.1655 8.34162 21.2325 8.33869 21.2993ZM10.0887 11.2993L11.8587 10.5193H11.9487C12.0866 10.4702 12.2323 10.4464 12.3787 10.4493C12.5866 10.4527 12.7927 10.4899 12.9887 10.5593C13.724 10.8636 14.3632 11.3612 14.8387 11.9993L15.0487 12.2493C15.5564 12.9055 15.9765 13.6248 16.2987 14.3893C16.6046 15.0318 16.8393 15.7058 16.9987 16.3993C17.0202 16.4884 17.0369 16.5785 17.0487 16.6693C17.2331 17.5384 17.1743 18.4415 16.8787 19.2793C16.765 19.5902 16.5547 19.8566 16.2787 20.0393H16.2187L15.9587 20.1593L14.3087 20.8793L10.9087 22.3693C11.0357 21.9543 11.103 21.5233 11.1087 21.0893C11.0944 19.6741 10.7737 18.2788 10.1687 16.9993C9.5099 15.2524 8.28002 13.7793 6.67869 12.8193L10.0887 11.2993Z" fill="#212C3A"/>
<path d="M10.0586 23.8391L11.0586 24.9291L11.6086 24.6791C11.6779 24.6648 11.7493 24.6648 11.8186 24.6791C11.8863 24.68 11.9531 24.6946 12.015 24.7221C12.0769 24.7496 12.1326 24.7894 12.1786 24.8391L15.5486 28.4691C15.7186 27.3591 15.8986 26.2091 15.9786 25.6891C16.1564 24.6436 16.5727 23.6531 17.1953 22.7947C17.8179 21.9362 18.63 21.2328 19.5686 20.7391C20.1844 20.4115 20.8711 20.2399 21.5686 20.2391C22.1091 20.2398 22.6439 20.35 23.1406 20.5631C23.6373 20.7763 24.0856 21.0878 24.4586 21.4791L24.8286 21.8591C31.0186 28.3591 33.8286 31.4091 34.2686 32.0591C34.9986 33.1891 34.0386 36.2391 33.9386 36.5191V36.5691C33.9386 36.5691 33.9386 36.5691 33.8786 36.6591C33.8457 36.7235 33.8054 36.7839 33.7586 36.8391C33.5965 37.0365 33.3939 37.1967 33.1644 37.3089C32.9349 37.421 32.6839 37.4825 32.4286 37.4891C32.1625 37.4912 31.9028 37.407 31.6886 37.2491C31.5866 37.1835 31.4927 37.1063 31.4086 37.0191L30.0986 35.5991C29.6555 36.3315 29.3727 37.1494 29.2686 37.9991C29.2728 38.049 29.2728 38.0992 29.2686 38.1491C29.2186 38.5091 29.1386 39.0291 29.0686 39.5791L38.4586 35.4991L40.9386 34.4191L40.1486 33.5691C40.0689 33.8671 39.8842 34.1263 39.6286 34.2991L39.4886 34.3691C39.3901 34.4258 39.2863 34.4727 39.1786 34.5091C38.9382 34.596 38.6843 34.64 38.4286 34.6391C38.1807 34.6448 37.9338 34.6075 37.6986 34.5291C37.5482 34.4817 37.4111 34.3995 37.2986 34.2891C36.1986 33.1891 27.6186 23.8691 27.3686 23.5591C26.3686 22.3891 26.7586 20.0591 27.5986 18.4691C27.7792 18.1181 27.99 17.7835 28.2286 17.4691L27.1386 16.2891L26.3486 16.6291L26.2186 16.6991H26.0986L23.7486 17.6991C23.6584 17.7517 23.5648 17.7984 23.4686 17.8391L23.1986 17.9391L21.5886 18.6391H21.5086H21.4486L18.8286 19.9991L17.9786 20.3691L16.6786 20.9391L16.4586 21.0491L16.2486 21.1291L10.0586 23.8391Z" fill="white"/>
<path d="M31.5891 34.4395L31.3991 34.5195H31.3191L31.1091 34.6395L30.7891 34.8395L31.3991 35.4995C31.4991 35.0495 31.5591 34.6795 31.5891 34.4395Z" fill="white"/>
<path d="M41.7711 32.2405C41.9311 31.3705 42.0911 30.5205 42.1511 30.1405V29.9805H42.0711C41.8999 29.9851 41.7321 30.0296 41.5811 30.1105C41.463 30.1942 41.3495 30.2844 41.2411 30.3805C40.9576 30.6672 40.7333 31.007 40.5811 31.3805C40.5457 31.4642 40.5189 31.5513 40.5011 31.6405C40.5011 31.6905 40.5011 31.7705 40.4511 31.8505V31.9805C40.4511 32.1105 40.4511 32.2505 40.3711 32.4005L41.5211 33.6405L41.7711 32.2405Z" fill="white"/>
<path d="M6.67969 12.8195C8.28102 13.7795 9.5109 15.2525 10.1697 16.9995C10.741 18.2966 11.0242 19.7023 10.9997 21.1195C10.994 21.5534 10.9267 21.9844 10.7997 22.3995L14.1997 20.9095L15.8497 20.1895L16.1097 20.0695H16.1697C16.4457 19.8867 16.656 19.6204 16.7697 19.3095C17.091 18.4681 17.1706 17.5537 16.9997 16.6695C17.0044 16.5795 17.0044 16.4894 16.9997 16.3995C16.8599 15.6908 16.6419 15 16.3497 14.3395C16.0275 13.575 15.6073 12.8556 15.0997 12.1995L14.8397 11.9995C14.367 11.3628 13.7313 10.8653 12.9997 10.5595C12.8037 10.49 12.5976 10.4528 12.3897 10.4495C12.2433 10.4466 12.0976 10.4703 11.9597 10.5195H11.8697L10.0997 11.2995L6.67969 12.8195Z" fill="white"/>
<path d="M6.55993 22.2808L10.4599 26.5008L10.5499 25.8508L6.85993 21.8508C6.12561 21.0774 5.54527 20.1712 5.14993 19.1808C4.63993 18.0108 3.62993 15.1808 5.14993 14.5308C5.31105 14.4621 5.4848 14.428 5.65993 14.4308C7.02993 14.4308 8.16993 16.6908 8.58993 17.6708C9.00993 18.6508 9.82993 20.8808 9.04993 21.9208C9.02243 21.9617 8.99899 22.0053 8.97993 22.0508C8.73993 22.4308 9.27993 22.9208 9.59993 22.6308C10.2599 21.6308 10.1499 19.5208 9.22993 17.3908C8.22993 15.0808 6.59993 13.4908 5.35993 13.4908C5.23797 13.487 5.11624 13.5039 4.99993 13.5408L4.80993 13.6208C4.47004 13.8535 4.19825 14.1726 4.0225 14.5452C3.84675 14.9178 3.77338 15.3304 3.80993 15.7408V15.8208C3.80993 16.0508 3.80993 16.3008 3.80993 16.5608C3.80993 16.6408 3.80993 16.7308 3.80993 16.8108C3.80993 16.8908 3.86993 17.2308 3.90993 17.4508C3.94993 17.6708 3.99993 17.7708 4.03993 17.9308C4.07993 18.0908 4.11993 18.2408 4.16993 18.4008C4.26993 18.7208 4.39993 19.0508 4.53993 19.4008C5.02175 20.4817 5.70762 21.4596 6.55993 22.2808Z" fill="white"/>
<path d="M23.4609 5.50996C25.0875 6.44428 26.3389 7.91482 27.0009 9.66996C27.8322 11.3343 28.0653 13.234 27.6609 15.05L27.9509 14.92H28.0109C29.1309 14.24 29.1909 11.77 28.0909 9.22996C27.0909 6.91996 25.4709 5.34996 24.2309 5.34996C24.0992 5.34691 23.9677 5.36377 23.8409 5.39996L23.4609 5.50996Z" fill="white"/>
<path d="M7.69017 18.0795C7.03017 16.5495 6.17017 15.4395 5.69017 15.4395H5.58017C5.12017 15.6395 5.33017 17.1295 6.04017 18.7795C6.34749 19.4954 6.74758 20.1678 7.23017 20.7795C7.49722 21.1483 7.78432 21.5021 8.09017 21.8395C8.21001 21.6628 8.298 21.4665 8.35017 21.2595C8.35994 21.1764 8.35994 21.0925 8.35017 21.0095C8.37282 19.9935 8.14621 18.9875 7.69017 18.0795Z" fill="white"/>
<path d="M23.7017 16.4708C23.8775 16.1629 23.9897 15.8228 24.0317 15.4708C24.1729 14.0165 23.9172 12.5512 23.2917 11.2308C22.7562 9.86774 21.8569 8.67785 20.6917 7.79077C20.4133 7.5957 20.1015 7.45334 19.7717 7.37077C19.6519 7.36093 19.5315 7.36093 19.4117 7.37077C19.3089 7.35558 19.2045 7.35558 19.1017 7.37077L18.7617 7.51077C19.0792 7.67174 19.3805 7.8626 19.6617 8.08077L19.8117 8.21077C20.1139 8.47134 20.3947 8.75557 20.6517 9.06077C21.3132 9.8491 21.8525 10.7323 22.2517 11.6808C22.6658 12.6194 22.942 13.613 23.0717 14.6308C23.1225 15.0186 23.1392 15.4101 23.1217 15.8008C23.1217 15.8808 23.1217 15.9508 23.1217 16.0308C23.0917 16.3704 23.0246 16.7057 22.9217 17.0308L23.0617 16.9808L23.2717 16.8708C23.44 16.7671 23.5861 16.6311 23.7017 16.4708Z" fill="white"/>
<path d="M18.0014 18.6505C17.9631 18.8763 17.913 19.1 17.8514 19.3205L18.2814 19.1305C18.4966 18.9443 18.6617 18.7071 18.7614 18.4405C18.8956 18.0982 18.9765 17.7374 19.0014 17.3705C19.0386 16.8455 19.0084 16.3179 18.9114 15.8005C18.7749 15.0013 18.5397 14.222 18.2114 13.4805C17.8961 12.7303 17.4897 12.0216 17.0014 11.3705C16.6847 10.9486 16.3187 10.5659 15.9114 10.2305C15.6388 10.0032 15.3316 9.82089 15.0014 9.69055C14.7988 9.60526 14.5812 9.56107 14.3614 9.56055H14.1214C14.0254 9.58143 13.9316 9.61157 13.8414 9.65055L13.6914 9.73055C14.1283 9.94554 14.5324 10.2216 14.8914 10.5505C15.303 10.9247 15.675 11.3402 16.0014 11.7905C16.4871 12.4594 16.8964 13.1805 17.2214 13.9405C17.5682 14.6819 17.8299 15.4602 18.0014 16.2605C18.1001 16.7982 18.1469 17.344 18.1414 17.8905C18.1158 18.1473 18.0689 18.4015 18.0014 18.6505Z" fill="white"/>
<path d="M22.18 6.18957C22.0337 6.18755 21.8881 6.21125 21.75 6.25957L20.75 6.70957L21.06 6.87957C22.4969 7.86407 23.6048 9.25767 24.24 10.8796C24.8145 12.1761 25.1011 13.5817 25.08 14.9996C25.0704 15.3089 25.0336 15.6167 24.97 15.9196L24.88 16.2496L25.71 15.8796L25.9 15.7996C27.06 15.1396 27.12 12.6396 26.01 10.0796C25 7.76957 23.42 6.18957 22.18 6.18957Z" fill="white"/>
<path d="M16.1597 9.18023C16.4066 9.34187 16.6407 9.52241 16.8597 9.72023C17.2822 10.1071 17.6642 10.5359 17.9997 11.0002C18.4712 11.6675 18.8732 12.3812 19.1997 13.1302C19.524 13.8679 19.7655 14.6393 19.9197 15.4302C19.9978 15.9497 20.0246 16.4755 19.9997 17.0002V17.1902C19.9922 17.4182 19.9689 17.6455 19.9297 17.8702C19.9014 18.0526 19.8613 18.233 19.8097 18.4102L20.9997 18.0002H21.0697H21.1497C21.4467 17.8104 21.6746 17.5298 21.7997 17.2002C22.0396 16.5626 22.1219 15.8765 22.0397 15.2002C21.9457 14.1643 21.6822 13.1508 21.2597 12.2002C20.8602 11.249 20.3061 10.3705 19.6197 9.60023C19.2172 9.0735 18.6965 8.64875 18.0997 8.36023C17.8971 8.27494 17.6795 8.23075 17.4597 8.23023C17.3435 8.21492 17.2259 8.21492 17.1097 8.23023H17.0597L16.7697 8.35023L15.6797 8.83023C15.8481 8.93483 16.0086 9.05182 16.1597 9.18023Z" fill="white"/>
<path d="M28.1095 23.0004C28.2495 23.1704 35.1895 30.7204 37.4195 33.0704C37.5095 32.5204 37.6895 31.3804 37.9395 30.4604C38.2465 29.5167 38.821 28.6825 39.5933 28.0594C40.3656 27.4362 41.3023 27.0509 42.2895 26.9504H42.4495H42.7895L42.2795 26.3704C41.9595 26.0004 39.1195 23.1304 36.7395 20.6904L34.7395 18.6904L33.8195 17.6904L33.5195 17.3704C33.2883 17.1598 33.0164 16.9988 32.7206 16.8973C32.4248 16.7959 32.1113 16.7561 31.7995 16.7804C31.4227 16.7882 31.0503 16.8626 30.6995 17.0004C30.2109 17.1662 29.7608 17.4287 29.3759 17.7723C28.9911 18.116 28.6794 18.5336 28.4595 19.0004C27.7395 20.3504 27.4995 22.2304 28.1095 23.0004Z" fill="white"/>
<path d="M44.0015 28.8809C43.8623 28.5819 43.6406 28.3289 43.3624 28.1517C43.0843 27.9745 42.7613 27.8806 42.4315 27.8809H42.3415C41.5625 27.971 40.825 28.2799 40.2144 28.7719C39.6038 29.2639 39.1451 29.9189 38.8915 30.6609C38.6602 31.5869 38.4799 32.525 38.3515 33.4709C38.3515 33.5509 38.4815 33.6109 38.6415 33.6109C38.8015 33.6109 39.1315 33.5209 39.1815 33.2809C39.2515 32.8709 39.4215 31.7209 39.5515 31.2809C39.5771 31.1719 39.6105 31.065 39.6515 30.9609C39.9304 30.2491 40.423 29.6413 41.0615 29.2209C41.3643 29.0411 41.7093 28.9445 42.0615 28.9409C42.27 28.9237 42.4786 28.9724 42.658 29.08C42.8374 29.1876 42.9785 29.3488 43.0615 29.5409C43.1266 29.7764 43.1266 30.0253 43.0615 30.2609C42.9315 31.0309 42.4015 33.7909 42.2715 34.6309C42.2566 34.7166 42.2204 34.7973 42.1662 34.8654C42.112 34.9335 42.0416 34.987 41.9615 35.0209L28.1015 41.1309H28.0115C27.9784 41.1299 27.946 41.1219 27.9163 41.1073C27.8867 41.0927 27.8605 41.0719 27.8396 41.0462C27.8188 41.0206 27.8037 40.9908 27.7953 40.9588C27.787 40.9268 27.7857 40.8934 27.7915 40.8609C27.9215 39.8609 28.2015 38.4409 28.2915 37.8609C28.6615 35.4109 29.5815 34.2509 30.8915 33.6209C31.235 33.4421 31.6144 33.343 32.0015 33.3309C32.1533 33.3204 32.3038 33.3653 32.4251 33.4572C32.5465 33.5491 32.6304 33.6819 32.6615 33.8309C32.6304 34.6957 32.5029 35.5543 32.2815 36.3909L32.4415 36.4509C32.5544 36.4529 32.6661 36.4276 32.7671 36.3771C32.8681 36.3266 32.9553 36.2524 33.0215 36.1609C33.1115 35.9309 33.7215 33.2909 33.4415 32.8509C33.393 32.6823 33.2923 32.5335 33.154 32.4257C33.0157 32.3179 32.8467 32.2567 32.6715 32.2509C31.4165 32.3047 30.218 32.788 29.2769 33.62C28.3357 34.4519 27.7089 35.5819 27.5015 36.8209C27.3915 37.4509 26.8415 41.1009 26.7215 42.0209C26.7079 42.0782 26.7074 42.1378 26.7202 42.1954C26.733 42.2529 26.7586 42.3067 26.7952 42.3529C26.8317 42.3991 26.8783 42.4364 26.9313 42.4621C26.9844 42.4877 27.0426 42.5009 27.1015 42.5009C27.1913 42.4991 27.2799 42.4786 27.3615 42.4409L43.0015 35.6409C43.1915 35.5509 43.2315 35.0909 43.2915 34.7909C43.5115 33.5509 43.9915 30.7909 44.0615 30.3309C44.1865 29.8524 44.1656 29.3474 44.0015 28.8809Z" fill="white"/>
<path d="M16.2598 31.3804L25.7298 41.6004C25.8998 40.3504 26.3698 37.2204 26.4698 36.6004C26.7195 35.1879 27.4281 33.8971 28.4857 32.9281C29.5433 31.9591 30.8909 31.3659 32.3198 31.2404C30.1398 28.8104 25.3798 23.8204 23.7198 22.0804C23.4398 21.7867 23.1032 21.5528 22.7302 21.393C22.3572 21.2331 21.9556 21.1506 21.5498 21.1504C21.0254 21.1555 20.5103 21.2894 20.0498 21.5404C19.2453 21.9645 18.5507 22.5704 18.0213 23.3099C17.4918 24.0493 17.1421 24.9021 16.9998 25.8004L16.4498 29.3604L16.3898 29.7304C16.3624 29.8077 16.3155 29.8766 16.2538 29.9306C16.1921 29.9847 16.1176 30.022 16.0374 30.0391C15.9571 30.0561 15.8739 30.0523 15.7955 30.028C15.7172 30.0038 15.6464 29.9598 15.5898 29.9004L15.1398 29.4204L12.1898 26.2404L12.0898 26.8904L15.2898 30.3304L16.2598 31.3804Z" fill="white"/>
</svg>
