<svg width="48" height="48" viewBox="0 0 48 48" fill="none" xmlns="http://www.w3.org/2000/svg">
<g clip-path="url(#clip0_498_3219)">
<path d="M17.019 42.3605C16.5439 42.3679 16.0818 42.2058 15.7154 41.9035C15.3489 41.6012 15.102 41.1783 15.019 40.7105C14.973 40.4511 14.9787 40.1852 15.0358 39.9279C15.093 39.6707 15.2003 39.4274 15.3518 39.2118C15.5033 38.9962 15.6958 38.8127 15.9184 38.6717C16.1411 38.5308 16.3893 38.4352 16.649 38.3905L30.619 35.9605C30.7354 35.9507 30.8525 35.9507 30.969 35.9605C31.3347 35.9593 31.6937 36.0584 32.0071 36.247C32.3204 36.4356 32.576 36.7065 32.7461 37.0302C32.9162 37.3539 32.9943 37.7181 32.9719 38.0831C32.9495 38.4482 32.8274 38.8001 32.619 39.1005C32.4669 39.3191 32.2726 39.5051 32.0477 39.6477C31.8227 39.7902 31.5716 39.8864 31.309 39.9305L17.379 42.3305C17.2601 42.351 17.1396 42.361 17.019 42.3605Z" fill="white"/>
<path d="M31.0202 36.9292C31.1515 36.9181 31.2838 36.9329 31.4094 36.9728C31.535 37.0127 31.6515 37.077 31.7522 37.162C31.853 37.247 31.936 37.3509 31.9966 37.468C32.0571 37.5851 32.094 37.7129 32.1052 37.8442C32.1164 37.9755 32.1016 38.1078 32.0616 38.2334C32.0217 38.359 31.9574 38.4755 31.8724 38.5762C31.7874 38.677 31.6835 38.76 31.5664 38.8206C31.4494 38.8811 31.3215 38.9181 31.1902 38.9292L17.2102 41.3492H17.0202C16.755 41.3718 16.4917 41.288 16.2882 41.1164C16.0847 40.9448 15.9577 40.6994 15.9352 40.4342C15.9127 40.169 15.9964 39.9057 16.168 39.7022C16.3396 39.4987 16.585 39.3718 16.8502 39.3492L30.7802 36.9192H30.9602M30.9602 34.9192C30.7857 34.9207 30.6118 34.9375 30.4402 34.9692L16.5102 37.4092C16.1193 37.4767 15.7457 37.6211 15.411 37.8339C15.0763 38.0468 14.7871 38.3239 14.5602 38.6492C14.1067 39.3015 13.9305 40.1071 14.0702 40.8892C14.1959 41.5899 14.5666 42.2231 15.1162 42.6756C15.6658 43.1281 16.3584 43.3704 17.0702 43.3592C17.2432 43.3743 17.4172 43.3743 17.5902 43.3592L31.5302 40.9292C31.9242 40.8951 32.3076 40.7837 32.6585 40.6014C33.0094 40.419 33.3209 40.1694 33.5754 39.8667C33.8298 39.564 34.0221 39.2141 34.1413 38.8371C34.2606 38.46 34.3043 38.0632 34.2702 37.6692C34.2361 37.2752 34.1247 36.8919 33.9423 36.541C33.76 36.19 33.5104 35.8785 33.2077 35.624C32.905 35.3696 32.5551 35.1773 32.178 35.0581C31.801 34.9389 31.4042 34.8951 31.0102 34.9292L30.9602 34.9192Z" fill="#212C3A"/>
<path d="M17.019 35.3605C16.5439 35.3679 16.0818 35.2058 15.7154 34.9035C15.3489 34.6012 15.102 34.1783 15.019 33.7105C14.973 33.4511 14.9787 33.1852 15.0358 32.9279C15.093 32.6707 15.2003 32.4274 15.3518 32.2118C15.5033 31.9962 15.6958 31.8127 15.9184 31.6717C16.1411 31.5308 16.3893 31.4352 16.649 31.3905L30.619 28.9605C30.7354 28.9507 30.8525 28.9507 30.969 28.9605C31.3347 28.9593 31.6937 29.0584 32.0071 29.247C32.3204 29.4356 32.576 29.7065 32.7461 30.0302C32.9162 30.3539 32.9943 30.7181 32.9719 31.0831C32.9495 31.4482 32.8274 31.8001 32.619 32.1005C32.4669 32.3191 32.2726 32.5051 32.0477 32.6477C31.8227 32.7902 31.5716 32.8864 31.309 32.9305L17.379 35.3305C17.2601 35.351 17.1396 35.361 17.019 35.3605Z" fill="white"/>
<path d="M31.0202 29.9292C31.2854 29.9067 31.5487 29.9904 31.7522 30.162C31.9557 30.3336 32.0827 30.579 32.1052 30.8442C32.1277 31.1094 32.044 31.3727 31.8724 31.5762C31.7008 31.7797 31.4554 31.9067 31.1902 31.9292L17.2102 34.3492H17.0202C16.8889 34.3604 16.7566 34.3456 16.631 34.3056C16.5055 34.2657 16.389 34.2014 16.2882 34.1164C16.0847 33.9448 15.9577 33.6994 15.9352 33.4342C15.9127 33.169 15.9964 32.9057 16.168 32.7022C16.3396 32.4987 16.585 32.3718 16.8502 32.3492L30.7802 29.9192H30.9602M30.9602 27.9192C30.7857 27.9207 30.6118 27.9375 30.4402 27.9692L16.5102 30.4092C16.1193 30.4767 15.7457 30.6211 15.411 30.8339C15.0763 31.0468 14.7871 31.3239 14.5602 31.6492C14.1067 32.3016 13.9305 33.1071 14.0702 33.8892C14.1959 34.5899 14.5666 35.2231 15.1162 35.6756C15.6658 36.1281 16.3584 36.3704 17.0702 36.3592C17.2432 36.3743 17.4172 36.3743 17.5902 36.3592L31.5302 33.9292C32.3259 33.8603 33.0615 33.4781 33.5754 32.8667C34.0892 32.2553 34.3392 31.4649 34.2702 30.6692C34.2012 29.8736 33.819 29.1379 33.2077 28.6241C32.5963 28.1102 31.8059 27.8603 31.0102 27.9292L30.9602 27.9192Z" fill="#212C3A"/>
<path d="M17.0181 28.3605C16.5431 28.3679 16.081 28.2058 15.7145 27.9035C15.3481 27.6012 15.1012 27.1783 15.0181 26.7105C14.9724 26.449 14.9793 26.1809 15.0383 25.922C15.0973 25.6631 15.2072 25.4185 15.3618 25.2025C15.5163 24.9866 15.7123 24.8036 15.9383 24.6641C16.1643 24.5247 16.4158 24.4317 16.6781 24.3905L30.6181 21.9605C30.7346 21.9507 30.8517 21.9507 30.9681 21.9605C31.329 21.963 31.6825 22.0631 31.9912 22.2502C32.2998 22.4372 32.5521 22.7043 32.7212 23.0231C32.8903 23.342 32.9701 23.7006 32.9519 24.0611C32.9338 24.4215 32.8184 24.7703 32.6181 25.0705C32.466 25.2891 32.2718 25.4751 32.0468 25.6177C31.8219 25.7602 31.5707 25.8564 31.3081 25.9005L17.3781 28.3305C17.2592 28.351 17.1388 28.361 17.0181 28.3605Z" fill="white"/>
<path d="M31.0202 22.9302C31.1515 22.919 31.2838 22.9338 31.4094 22.9738C31.535 23.0137 31.6515 23.078 31.7522 23.1629C31.853 23.2479 31.936 23.3519 31.9966 23.4689C32.0571 23.586 32.094 23.7138 32.1052 23.8452C32.1164 23.9765 32.1016 24.1087 32.0616 24.2343C32.0217 24.3599 31.9574 24.4764 31.8724 24.5772C31.7874 24.6779 31.6835 24.7609 31.5664 24.8215C31.4494 24.8821 31.3215 24.919 31.1902 24.9302L17.2102 27.3502H17.0202C16.8889 27.3613 16.7566 27.3465 16.631 27.3066C16.5055 27.2666 16.389 27.2023 16.2882 27.1174C16.0847 26.9458 15.9577 26.7004 15.9352 26.4352C15.9127 26.1699 15.9964 25.9066 16.168 25.7032C16.3396 25.4997 16.585 25.3727 16.8502 25.3502L30.7902 22.9502H30.9702M30.9702 20.9502C30.7972 20.9351 30.6232 20.9351 30.4502 20.9502L16.5102 23.4102C16.1193 23.4777 15.7457 23.622 15.411 23.8349C15.0763 24.0477 14.7871 24.3248 14.5602 24.6502C14.1067 25.3025 13.9305 26.1081 14.0702 26.8902C14.1959 27.5909 14.5666 28.2241 15.1162 28.6765C15.6658 29.129 16.3584 29.3713 17.0702 29.3602C17.2432 29.3752 17.4172 29.3752 17.5902 29.3602L31.4902 26.8902C32.2859 26.8212 33.0215 26.439 33.5354 25.8276C34.0492 25.2163 34.2992 24.4258 34.2302 23.6302C34.1612 22.8345 33.779 22.0988 33.1677 21.585C32.5563 21.0711 31.7659 20.8212 30.9702 20.8902V20.9502Z" fill="#212C3A"/>
<path d="M18.0195 45.5C17.7812 45.5 17.5507 45.4149 17.3695 45.26C17.2598 45.1661 17.1716 45.0496 17.1112 44.9184C17.0508 44.7872 17.0195 44.6444 17.0195 44.5V19.5C17.0195 19.2348 17.1249 18.9804 17.3124 18.7929C17.5 18.6054 17.7543 18.5 18.0195 18.5H30.0195C30.2847 18.5 30.5391 18.6054 30.7266 18.7929C30.9142 18.9804 31.0195 19.2348 31.0195 19.5V42.5C31.0226 42.7397 30.9395 42.9725 30.7853 43.1561C30.6311 43.3396 30.4162 43.4617 30.1795 43.5L18.1795 45.5H18.0195Z" fill="white"/>
<path d="M30.0195 19.5V42.5L18.0195 44.5V19.5H30.0195ZM30.0195 17.5H18.0195C17.4891 17.5 16.9804 17.7107 16.6053 18.0858C16.2302 18.4609 16.0195 18.9696 16.0195 19.5V44.5C16.0193 44.7913 16.0827 45.0792 16.2054 45.3435C16.328 45.6078 16.5069 45.8421 16.7295 46.03C17.0906 46.334 17.5475 46.5005 18.0195 46.5C18.1293 46.5099 18.2398 46.5099 18.3495 46.5L30.3495 44.5C30.821 44.4212 31.2486 44.1761 31.5549 43.8093C31.8612 43.4424 32.0261 42.9779 32.0195 42.5V19.5C32.0195 18.9696 31.8088 18.4609 31.4337 18.0858C31.0587 17.7107 30.55 17.5 30.0195 17.5Z" fill="#212C3A"/>
<path d="M17.0189 41.86C16.6645 41.861 16.3211 41.7374 16.0487 41.5107C15.7763 41.284 15.5923 40.9687 15.5289 40.62C15.496 40.4256 15.5016 40.2267 15.5456 40.0345C15.5896 39.8423 15.6711 39.6607 15.7853 39.5C15.8995 39.3394 16.0443 39.2028 16.2114 39.0981C16.3785 38.9934 16.5645 38.9227 16.7589 38.89L30.6989 36.5H30.9689C31.2428 36.5015 31.5112 36.5774 31.7452 36.7197C31.9793 36.8619 32.1702 37.0652 32.2976 37.3076C32.425 37.5501 32.4841 37.8227 32.4684 38.0961C32.4528 38.3696 32.3631 38.6336 32.2089 38.86C32.0914 39.0242 31.9425 39.1636 31.7709 39.27C31.5993 39.3764 31.4083 39.4478 31.2089 39.48L17.2889 41.84C17.2001 41.8578 17.1094 41.8645 17.0189 41.86Z" fill="white"/>
<path d="M31.0181 36.9295C31.1494 36.9184 31.2817 36.9332 31.4073 36.9731C31.5329 37.0131 31.6494 37.0773 31.7501 37.1623C31.8509 37.2473 31.9339 37.3513 31.9945 37.4683C32.055 37.5854 32.092 37.7132 32.1031 37.8445C32.1143 37.9758 32.0995 38.1081 32.0595 38.2337C32.0196 38.3593 31.9553 38.4758 31.8703 38.5765C31.7854 38.6773 31.6814 38.7603 31.5643 38.8209C31.4473 38.8814 31.3194 38.9184 31.1881 38.9295L17.2081 41.3495H17.0181C16.7529 41.3721 16.4896 41.2883 16.2861 41.1167C16.0826 40.9451 15.9557 40.6997 15.9331 40.4345C15.9106 40.1693 15.9943 39.906 16.1659 39.7025C16.3375 39.499 16.5829 39.3721 16.8481 39.3495L30.7781 36.9195H30.9581M30.9581 35.9195C30.8417 35.9096 30.7246 35.9096 30.6081 35.9195L16.6781 38.3895C16.4158 38.4307 16.1643 38.5237 15.9383 38.6631C15.7123 38.8025 15.5163 38.9856 15.3618 39.2015C15.2072 39.4175 15.0973 39.662 15.0383 39.921C14.9793 40.1799 14.9724 40.4479 15.0181 40.7095C15.1012 41.1773 15.3481 41.6002 15.7145 41.9025C16.081 42.2048 16.5431 42.3668 17.0181 42.3595C17.1346 42.3694 17.2517 42.3694 17.3681 42.3595L31.3081 39.8995C31.57 39.8574 31.8206 39.762 32.0442 39.6193C32.2678 39.4765 32.4597 39.2894 32.6081 39.0695C32.9142 38.6374 33.0365 38.1016 32.9481 37.5795C32.865 37.1118 32.6182 36.6889 32.2517 36.3865C31.8853 36.0842 31.4231 35.9222 30.9481 35.9295L30.9581 35.9195Z" fill="#212C3A"/>
<path d="M17.0189 34.86C16.6645 34.861 16.3211 34.7374 16.0487 34.5107C15.7763 34.284 15.5923 33.9687 15.5289 33.62C15.496 33.4256 15.5016 33.2267 15.5456 33.0345C15.5896 32.8423 15.6711 32.6607 15.7853 32.5C15.8995 32.3394 16.0443 32.2028 16.2114 32.0981C16.3785 31.9934 16.5645 31.9227 16.7589 31.89L30.6989 29.5H30.9689C31.2428 29.5015 31.5112 29.5774 31.7452 29.7196C31.9793 29.8619 32.1702 30.0652 32.2976 30.3076C32.425 30.5501 32.4841 30.8227 32.4684 31.0961C32.4528 31.3696 32.3631 31.6336 32.2089 31.86C32.0914 32.0242 31.9425 32.1636 31.7709 32.27C31.5993 32.3764 31.4083 32.4478 31.2089 32.48L17.2889 34.84C17.2001 34.8578 17.1094 34.8645 17.0189 34.86Z" fill="white"/>
<path d="M31.0181 29.9295C31.2833 29.907 31.5466 29.9907 31.7501 30.1623C31.9536 30.3339 32.0806 30.5793 32.1031 30.8445C32.1257 31.1097 32.0419 31.373 31.8703 31.5765C31.6987 31.78 31.4533 31.907 31.1881 31.9295L17.2081 34.3495H17.0181C16.8868 34.3607 16.7546 34.3459 16.629 34.3059C16.5034 34.266 16.3869 34.2017 16.2861 34.1167C16.0826 33.9451 15.9557 33.6997 15.9331 33.4345C15.9106 33.1693 15.9943 32.906 16.1659 32.7025C16.3375 32.499 16.5829 32.3721 16.8481 32.3495L30.7781 29.9195H30.9581M30.9581 28.9195C30.8417 28.9096 30.7246 28.9096 30.6081 28.9195L16.6781 31.3895C16.4158 31.4307 16.1643 31.5237 15.9383 31.6631C15.7123 31.8025 15.5163 31.9856 15.3618 32.2015C15.2072 32.4175 15.0973 32.662 15.0383 32.921C14.9793 33.1799 14.9724 33.4479 15.0181 33.7095C15.1012 34.1773 15.3481 34.6002 15.7145 34.9025C16.081 35.2048 16.5431 35.3668 17.0181 35.3595C17.1346 35.3694 17.2517 35.3694 17.3681 35.3595L31.3081 32.8995C31.57 32.8574 31.8206 32.762 32.0442 32.6193C32.2678 32.4765 32.4597 32.2894 32.6081 32.0695C32.9142 31.6374 33.0365 31.1016 32.9481 30.5795C32.865 30.1118 32.6182 29.6889 32.2517 29.3865C31.8853 29.0842 31.4231 28.9222 30.9481 28.9295L30.9581 28.9195Z" fill="#212C3A"/>
<path d="M17.0206 27.86C16.668 27.8587 16.3269 27.734 16.0566 27.5075C15.7862 27.281 15.6037 26.967 15.5406 26.62C15.5077 26.4256 15.5134 26.2267 15.5574 26.0345C15.6013 25.8423 15.6828 25.6607 15.797 25.5C15.9113 25.3394 16.0561 25.2028 16.2231 25.0981C16.3902 24.9934 16.5762 24.9227 16.7706 24.89L30.7006 22.5H30.9706C31.2445 22.5015 31.5129 22.5774 31.7469 22.7196C31.981 22.8619 32.1719 23.0652 32.2993 23.3076C32.4267 23.5501 32.4858 23.8227 32.4702 24.0961C32.4545 24.3696 32.3648 24.6336 32.2106 24.86C32.0931 25.0242 31.9443 25.1636 31.7726 25.27C31.601 25.3764 31.41 25.4478 31.2106 25.48L17.2906 27.84C17.2018 27.8578 17.1111 27.8645 17.0206 27.86Z" fill="white"/>
<path d="M31.0181 22.9299C31.1494 22.9188 31.2817 22.9336 31.4073 22.9735C31.5329 23.0135 31.6494 23.0777 31.7501 23.1627C31.8509 23.2477 31.9339 23.3517 31.9945 23.4687C32.055 23.5858 32.092 23.7136 32.1031 23.8449C32.1143 23.9762 32.0995 24.1085 32.0595 24.2341C32.0196 24.3597 31.9553 24.4762 31.8703 24.5769C31.7854 24.6777 31.6814 24.7607 31.5643 24.8213C31.4473 24.8818 31.3194 24.9188 31.1881 24.9299L17.2081 27.3499H17.0181C16.8868 27.3611 16.7546 27.3463 16.629 27.3063C16.5034 27.2664 16.3869 27.2021 16.2861 27.1171C16.0826 26.9455 15.9557 26.7001 15.9331 26.4349C15.9106 26.1697 15.9943 25.9064 16.1659 25.7029C16.3375 25.4994 16.5829 25.3725 16.8481 25.3499L30.7881 22.9499H30.9681M30.9681 21.9499C30.8517 21.94 30.7346 21.94 30.6181 21.9499L16.6781 24.3899C16.4158 24.4311 16.1643 24.5241 15.9383 24.6635C15.7123 24.8029 15.5163 24.986 15.3618 25.2019C15.2072 25.4179 15.0973 25.6625 15.0383 25.9214C14.9793 26.1803 14.9724 26.4483 15.0181 26.7099C15.1012 27.1777 15.3481 27.6006 15.7145 27.9029C16.081 28.2052 16.5431 28.3672 17.0181 28.3599C17.1346 28.3698 17.2517 28.3698 17.3681 28.3599L31.3081 25.8999C31.57 25.8578 31.8206 25.7624 32.0442 25.6197C32.2678 25.4769 32.4597 25.2898 32.6081 25.0699C32.9142 24.6379 33.0365 24.102 32.9481 23.5799C32.865 23.1122 32.6182 22.6893 32.2517 22.3869C31.8853 22.0846 31.4231 21.9226 30.9481 21.9299L30.9681 21.9499Z" fill="#212C3A"/>
</g>
<path d="M35.95 2H12.05C10.9178 2 10 2.91782 10 4.05V16.95C10 18.0822 10.9178 19 12.05 19H35.95C37.0822 19 38 18.0822 38 16.95V4.05C38 2.91782 37.0822 2 35.95 2Z" fill="white"/>
<path d="M36 3.00078C36.2652 3.00078 36.5196 3.10614 36.7071 3.29367C36.8946 3.48121 37 3.73556 37 4.00078V17.0008C37 17.266 36.8946 17.5204 36.7071 17.7079C36.5196 17.8954 36.2652 18.0008 36 18.0008H12.05C11.9145 18.0076 11.7791 17.9867 11.6519 17.9395C11.5248 17.8923 11.4086 17.8197 11.3103 17.7262C11.2121 17.6326 11.134 17.5201 11.0806 17.3954C11.0273 17.2707 10.9998 17.1364 11 17.0008V4.05078C10.9998 3.91514 11.0273 3.78089 11.0806 3.65619C11.134 3.53148 11.2121 3.41894 11.3103 3.32539C11.4086 3.23185 11.5248 3.15927 11.6519 3.11206C11.7791 3.06485 11.9145 3.044 12.05 3.05078H36M36 1.05078H12.05C11.2505 1.05324 10.4836 1.36854 9.91362 1.92921C9.3436 2.48988 9.01567 3.25139 9 4.05078V17.0008C9.01567 17.8002 9.3436 18.5617 9.91362 19.1224C10.4836 19.683 11.2505 19.9983 12.05 20.0008H36C36.7908 19.9854 37.545 19.6644 38.1043 19.1051C38.6636 18.5458 38.9846 17.7916 39 17.0008V4.05078C38.9846 3.25994 38.6636 2.50577 38.1043 1.94646C37.545 1.38714 36.7908 1.06614 36 1.05078Z" fill="#212C3A"/>
<path d="M24 19V2" stroke="#212C3A" stroke-width="2" stroke-linejoin="round"/>
<defs>
<clipPath id="clip0_498_3219">
<rect width="19.96" height="29" fill="white" transform="translate(14.0195 17.5)"/>
</clipPath>
</defs>
</svg>
