<svg width="48" height="48" viewBox="0 0 48 48" fill="none" xmlns="http://www.w3.org/2000/svg">
<g clip-path="url(#clip0_498_2611)">
<path d="M17.019 41.8605C16.5439 41.8679 16.0818 41.7058 15.7154 41.4035C15.3489 41.1012 15.102 40.6783 15.019 40.2105C14.973 39.9511 14.9787 39.6852 15.0358 39.4279C15.093 39.1707 15.2003 38.9274 15.3518 38.7118C15.5033 38.4962 15.6958 38.3127 15.9184 38.1717C16.1411 38.0308 16.3893 37.9352 16.649 37.8905L30.619 35.4605C30.7354 35.4507 30.8525 35.4507 30.969 35.4605C31.3347 35.4593 31.6937 35.5584 32.0071 35.747C32.3204 35.9356 32.576 36.2065 32.7461 36.5302C32.9162 36.8539 32.9943 37.2181 32.9719 37.5831C32.9495 37.9482 32.8274 38.3001 32.619 38.6005C32.4669 38.8191 32.2726 39.0051 32.0477 39.1477C31.8227 39.2902 31.5716 39.3864 31.309 39.4305L17.379 41.8305C17.2601 41.851 17.1396 41.861 17.019 41.8605Z" fill="white"/>
<path d="M31.0202 36.4292C31.1515 36.4181 31.2838 36.4329 31.4094 36.4728C31.535 36.5127 31.6515 36.577 31.7522 36.662C31.853 36.747 31.936 36.8509 31.9966 36.968C32.0571 37.0851 32.094 37.2129 32.1052 37.3442C32.1164 37.4755 32.1016 37.6078 32.0616 37.7334C32.0217 37.859 31.9574 37.9755 31.8724 38.0762C31.7874 38.177 31.6835 38.26 31.5664 38.3206C31.4494 38.3811 31.3215 38.4181 31.1902 38.4292L17.2102 40.8492H17.0202C16.755 40.8718 16.4917 40.788 16.2882 40.6164C16.0847 40.4448 15.9577 40.1994 15.9352 39.9342C15.9127 39.669 15.9964 39.4057 16.168 39.2022C16.3396 38.9987 16.585 38.8718 16.8502 38.8492L30.7802 36.4192H30.9602M30.9602 34.4192C30.7857 34.4207 30.6118 34.4375 30.4402 34.4692L16.5102 36.9092C16.1193 36.9767 15.7457 37.1211 15.411 37.3339C15.0763 37.5468 14.7871 37.8239 14.5602 38.1492C14.1067 38.8015 13.9305 39.6071 14.0702 40.3892C14.1959 41.0899 14.5666 41.7231 15.1162 42.1756C15.6658 42.6281 16.3584 42.8704 17.0702 42.8592C17.2432 42.8743 17.4172 42.8743 17.5902 42.8592L31.5302 40.4292C31.9242 40.3951 32.3076 40.2837 32.6585 40.1014C33.0094 39.919 33.3209 39.6694 33.5754 39.3667C33.8298 39.064 34.0221 38.7141 34.1413 38.3371C34.2606 37.96 34.3043 37.5632 34.2702 37.1692C34.2361 36.7752 34.1247 36.3919 33.9423 36.041C33.76 35.69 33.5104 35.3785 33.2077 35.124C32.905 34.8696 32.5551 34.6773 32.178 34.5581C31.801 34.4389 31.4042 34.3951 31.0102 34.4292L30.9602 34.4192Z" fill="#212C3A"/>
<path d="M17.019 34.8605C16.5439 34.8679 16.0818 34.7058 15.7154 34.4035C15.3489 34.1012 15.102 33.6783 15.019 33.2105C14.973 32.9511 14.9787 32.6852 15.0358 32.4279C15.093 32.1707 15.2003 31.9274 15.3518 31.7118C15.5033 31.4962 15.6958 31.3127 15.9184 31.1717C16.1411 31.0308 16.3893 30.9352 16.649 30.8905L30.619 28.4605C30.7354 28.4507 30.8525 28.4507 30.969 28.4605C31.3347 28.4593 31.6937 28.5584 32.0071 28.747C32.3204 28.9356 32.576 29.2065 32.7461 29.5302C32.9162 29.8539 32.9943 30.2181 32.9719 30.5831C32.9495 30.9482 32.8274 31.3001 32.619 31.6005C32.4669 31.8191 32.2726 32.0051 32.0477 32.1477C31.8227 32.2902 31.5716 32.3864 31.309 32.4305L17.379 34.8305C17.2601 34.851 17.1396 34.861 17.019 34.8605Z" fill="white"/>
<path d="M31.0202 29.4292C31.2854 29.4067 31.5487 29.4904 31.7522 29.662C31.9557 29.8336 32.0827 30.079 32.1052 30.3442C32.1277 30.6094 32.044 30.8727 31.8724 31.0762C31.7008 31.2797 31.4554 31.4067 31.1902 31.4292L17.2102 33.8492H17.0202C16.8889 33.8604 16.7566 33.8456 16.631 33.8056C16.5055 33.7657 16.389 33.7014 16.2882 33.6164C16.0847 33.4448 15.9577 33.1994 15.9352 32.9342C15.9127 32.669 15.9964 32.4057 16.168 32.2022C16.3396 31.9987 16.585 31.8718 16.8502 31.8492L30.7802 29.4192H30.9602M30.9602 27.4192C30.7857 27.4207 30.6118 27.4375 30.4402 27.4692L16.5102 29.9092C16.1193 29.9767 15.7457 30.1211 15.411 30.3339C15.0763 30.5468 14.7871 30.8239 14.5602 31.1492C14.1067 31.8016 13.9305 32.6071 14.0702 33.3892C14.1959 34.0899 14.5666 34.7231 15.1162 35.1756C15.6658 35.6281 16.3584 35.8704 17.0702 35.8592C17.2432 35.8743 17.4172 35.8743 17.5902 35.8592L31.5302 33.4292C32.3259 33.3603 33.0615 32.9781 33.5754 32.3667C34.0892 31.7553 34.3392 30.9649 34.2702 30.1692C34.2012 29.3736 33.819 28.6379 33.2077 28.1241C32.5963 27.6102 31.8059 27.3603 31.0102 27.4292L30.9602 27.4192Z" fill="#212C3A"/>
<path d="M17.0181 27.8605C16.5431 27.8679 16.081 27.7058 15.7145 27.4035C15.3481 27.1012 15.1012 26.6783 15.0181 26.2105C14.9724 25.949 14.9793 25.6809 15.0383 25.422C15.0973 25.1631 15.2072 24.9185 15.3618 24.7025C15.5163 24.4866 15.7123 24.3036 15.9383 24.1641C16.1643 24.0247 16.4158 23.9317 16.6781 23.8905L30.6181 21.4605C30.7346 21.4507 30.8517 21.4507 30.9681 21.4605C31.329 21.463 31.6825 21.5631 31.9912 21.7502C32.2998 21.9372 32.5521 22.2043 32.7212 22.5231C32.8903 22.842 32.9701 23.2006 32.9519 23.5611C32.9338 23.9215 32.8184 24.2703 32.6181 24.5705C32.466 24.7891 32.2718 24.9751 32.0468 25.1177C31.8219 25.2602 31.5707 25.3564 31.3081 25.4005L17.3781 27.8305C17.2592 27.851 17.1388 27.861 17.0181 27.8605Z" fill="white"/>
<path d="M31.0202 22.4302C31.1515 22.419 31.2838 22.4338 31.4094 22.4738C31.535 22.5137 31.6515 22.578 31.7522 22.6629C31.853 22.7479 31.936 22.8519 31.9966 22.9689C32.0571 23.086 32.094 23.2138 32.1052 23.3452C32.1164 23.4765 32.1016 23.6087 32.0616 23.7343C32.0217 23.8599 31.9574 23.9764 31.8724 24.0772C31.7874 24.1779 31.6835 24.2609 31.5664 24.3215C31.4494 24.3821 31.3215 24.419 31.1902 24.4302L17.2102 26.8502H17.0202C16.8889 26.8613 16.7566 26.8465 16.631 26.8066C16.5055 26.7666 16.389 26.7023 16.2882 26.6174C16.0847 26.4458 15.9577 26.2004 15.9352 25.9352C15.9127 25.6699 15.9964 25.4066 16.168 25.2032C16.3396 24.9997 16.585 24.8727 16.8502 24.8502L30.7902 22.4502H30.9702M30.9702 20.4502C30.7972 20.4351 30.6232 20.4351 30.4502 20.4502L16.5102 22.9102C16.1193 22.9777 15.7457 23.122 15.411 23.3349C15.0763 23.5477 14.7871 23.8248 14.5602 24.1502C14.1067 24.8025 13.9305 25.6081 14.0702 26.3902C14.1959 27.0909 14.5666 27.7241 15.1162 28.1765C15.6658 28.629 16.3584 28.8713 17.0702 28.8602C17.2432 28.8752 17.4172 28.8752 17.5902 28.8602L31.4902 26.3902C32.2859 26.3212 33.0215 25.939 33.5354 25.3276C34.0492 24.7163 34.2992 23.9258 34.2302 23.1302C34.1612 22.3345 33.779 21.5988 33.1677 21.085C32.5563 20.5711 31.7659 20.3212 30.9702 20.3902V20.4502Z" fill="#212C3A"/>
<path d="M18.0195 45C17.7812 45 17.5507 44.9149 17.3695 44.76C17.2598 44.6661 17.1716 44.5496 17.1112 44.4184C17.0508 44.2872 17.0195 44.1444 17.0195 44V19C17.0195 18.7348 17.1249 18.4804 17.3124 18.2929C17.5 18.1054 17.7543 18 18.0195 18H30.0195C30.2847 18 30.5391 18.1054 30.7266 18.2929C30.9142 18.4804 31.0195 18.7348 31.0195 19V42C31.0226 42.2397 30.9395 42.4725 30.7853 42.6561C30.6311 42.8396 30.4162 42.9617 30.1795 43L18.1795 45H18.0195Z" fill="white"/>
<path d="M30.0195 19V42L18.0195 44V19H30.0195ZM30.0195 17H18.0195C17.4891 17 16.9804 17.2107 16.6053 17.5858C16.2302 17.9609 16.0195 18.4696 16.0195 19V44C16.0193 44.2913 16.0827 44.5792 16.2054 44.8435C16.328 45.1078 16.5069 45.3421 16.7295 45.53C17.0906 45.834 17.5475 46.0005 18.0195 46C18.1293 46.0099 18.2398 46.0099 18.3495 46L30.3495 44C30.821 43.9212 31.2486 43.6761 31.5549 43.3093C31.8612 42.9424 32.0261 42.4779 32.0195 42V19C32.0195 18.4696 31.8088 17.9609 31.4337 17.5858C31.0587 17.2107 30.55 17 30.0195 17Z" fill="#212C3A"/>
<path d="M17.0189 41.36C16.6645 41.361 16.3211 41.2374 16.0487 41.0107C15.7763 40.784 15.5923 40.4687 15.5289 40.12C15.496 39.9256 15.5016 39.7267 15.5456 39.5345C15.5896 39.3423 15.6711 39.1607 15.7853 39C15.8995 38.8394 16.0443 38.7028 16.2114 38.5981C16.3785 38.4934 16.5645 38.4227 16.7589 38.39L30.6989 36H30.9689C31.2428 36.0015 31.5112 36.0774 31.7452 36.2197C31.9793 36.3619 32.1702 36.5652 32.2976 36.8076C32.425 37.0501 32.4841 37.3227 32.4684 37.5961C32.4528 37.8696 32.3631 38.1336 32.2089 38.36C32.0914 38.5242 31.9425 38.6636 31.7709 38.77C31.5993 38.8764 31.4083 38.9478 31.2089 38.98L17.2889 41.34C17.2001 41.3578 17.1094 41.3645 17.0189 41.36Z" fill="white"/>
<path d="M31.0181 36.4295C31.1494 36.4184 31.2817 36.4332 31.4073 36.4731C31.5329 36.5131 31.6494 36.5773 31.7501 36.6623C31.8509 36.7473 31.9339 36.8513 31.9945 36.9683C32.055 37.0854 32.092 37.2132 32.1031 37.3445C32.1143 37.4758 32.0995 37.6081 32.0595 37.7337C32.0196 37.8593 31.9553 37.9758 31.8703 38.0765C31.7854 38.1773 31.6814 38.2603 31.5643 38.3209C31.4473 38.3814 31.3194 38.4184 31.1881 38.4295L17.2081 40.8495H17.0181C16.7529 40.8721 16.4896 40.7883 16.2861 40.6167C16.0826 40.4451 15.9557 40.1997 15.9331 39.9345C15.9106 39.6693 15.9943 39.406 16.1659 39.2025C16.3375 38.999 16.5829 38.8721 16.8481 38.8495L30.7781 36.4195H30.9581M30.9581 35.4195C30.8417 35.4096 30.7246 35.4096 30.6081 35.4195L16.6781 37.8895C16.4158 37.9307 16.1643 38.0237 15.9383 38.1631C15.7123 38.3025 15.5163 38.4856 15.3618 38.7015C15.2072 38.9175 15.0973 39.162 15.0383 39.421C14.9793 39.6799 14.9724 39.9479 15.0181 40.2095C15.1012 40.6773 15.3481 41.1002 15.7145 41.4025C16.081 41.7048 16.5431 41.8668 17.0181 41.8595C17.1346 41.8694 17.2517 41.8694 17.3681 41.8595L31.3081 39.3995C31.57 39.3574 31.8206 39.262 32.0442 39.1193C32.2678 38.9765 32.4597 38.7894 32.6081 38.5695C32.9142 38.1374 33.0365 37.6016 32.9481 37.0795C32.865 36.6118 32.6182 36.1889 32.2517 35.8865C31.8853 35.5842 31.4231 35.4222 30.9481 35.4295L30.9581 35.4195Z" fill="#212C3A"/>
<path d="M17.0189 34.36C16.6645 34.361 16.3211 34.2374 16.0487 34.0107C15.7763 33.784 15.5923 33.4687 15.5289 33.12C15.496 32.9256 15.5016 32.7267 15.5456 32.5345C15.5896 32.3423 15.6711 32.1607 15.7853 32C15.8995 31.8394 16.0443 31.7028 16.2114 31.5981C16.3785 31.4934 16.5645 31.4227 16.7589 31.39L30.6989 29H30.9689C31.2428 29.0015 31.5112 29.0774 31.7452 29.2196C31.9793 29.3619 32.1702 29.5652 32.2976 29.8076C32.425 30.0501 32.4841 30.3227 32.4684 30.5961C32.4528 30.8696 32.3631 31.1336 32.2089 31.36C32.0914 31.5242 31.9425 31.6636 31.7709 31.77C31.5993 31.8764 31.4083 31.9478 31.2089 31.98L17.2889 34.34C17.2001 34.3578 17.1094 34.3645 17.0189 34.36Z" fill="white"/>
<path d="M31.0181 29.4295C31.2833 29.407 31.5466 29.4907 31.7501 29.6623C31.9536 29.8339 32.0806 30.0793 32.1031 30.3445C32.1257 30.6097 32.0419 30.873 31.8703 31.0765C31.6987 31.28 31.4533 31.407 31.1881 31.4295L17.2081 33.8495H17.0181C16.8868 33.8607 16.7546 33.8459 16.629 33.8059C16.5034 33.766 16.3869 33.7017 16.2861 33.6167C16.0826 33.4451 15.9557 33.1997 15.9331 32.9345C15.9106 32.6693 15.9943 32.406 16.1659 32.2025C16.3375 31.999 16.5829 31.8721 16.8481 31.8495L30.7781 29.4195H30.9581M30.9581 28.4195C30.8417 28.4096 30.7246 28.4096 30.6081 28.4195L16.6781 30.8895C16.4158 30.9307 16.1643 31.0237 15.9383 31.1631C15.7123 31.3025 15.5163 31.4856 15.3618 31.7015C15.2072 31.9175 15.0973 32.162 15.0383 32.421C14.9793 32.6799 14.9724 32.9479 15.0181 33.2095C15.1012 33.6773 15.3481 34.1002 15.7145 34.4025C16.081 34.7048 16.5431 34.8668 17.0181 34.8595C17.1346 34.8694 17.2517 34.8694 17.3681 34.8595L31.3081 32.3995C31.57 32.3574 31.8206 32.262 32.0442 32.1193C32.2678 31.9765 32.4597 31.7894 32.6081 31.5695C32.9142 31.1374 33.0365 30.6016 32.9481 30.0795C32.865 29.6118 32.6182 29.1889 32.2517 28.8865C31.8853 28.5842 31.4231 28.4222 30.9481 28.4295L30.9581 28.4195Z" fill="#212C3A"/>
<path d="M17.0206 27.36C16.668 27.3587 16.3269 27.234 16.0566 27.0075C15.7862 26.781 15.6037 26.467 15.5406 26.12C15.5077 25.9256 15.5134 25.7267 15.5574 25.5345C15.6013 25.3423 15.6828 25.1607 15.797 25C15.9113 24.8394 16.0561 24.7028 16.2231 24.5981C16.3902 24.4934 16.5762 24.4227 16.7706 24.39L30.7006 22H30.9706C31.2445 22.0015 31.5129 22.0774 31.7469 22.2196C31.981 22.3619 32.1719 22.5652 32.2993 22.8076C32.4267 23.0501 32.4858 23.3227 32.4702 23.5961C32.4545 23.8696 32.3648 24.1336 32.2106 24.36C32.0931 24.5242 31.9443 24.6636 31.7726 24.77C31.601 24.8764 31.41 24.9478 31.2106 24.98L17.2906 27.34C17.2018 27.3578 17.1111 27.3645 17.0206 27.36Z" fill="white"/>
<path d="M31.0181 22.4299C31.1494 22.4188 31.2817 22.4336 31.4073 22.4735C31.5329 22.5135 31.6494 22.5777 31.7501 22.6627C31.8509 22.7477 31.9339 22.8517 31.9945 22.9687C32.055 23.0858 32.092 23.2136 32.1031 23.3449C32.1143 23.4762 32.0995 23.6085 32.0595 23.7341C32.0196 23.8597 31.9553 23.9762 31.8703 24.0769C31.7854 24.1777 31.6814 24.2607 31.5643 24.3213C31.4473 24.3818 31.3194 24.4188 31.1881 24.4299L17.2081 26.8499H17.0181C16.8868 26.8611 16.7546 26.8463 16.629 26.8063C16.5034 26.7664 16.3869 26.7021 16.2861 26.6171C16.0826 26.4455 15.9557 26.2001 15.9331 25.9349C15.9106 25.6697 15.9943 25.4064 16.1659 25.2029C16.3375 24.9994 16.5829 24.8725 16.8481 24.8499L30.7881 22.4499H30.9681M30.9681 21.4499C30.8517 21.44 30.7346 21.44 30.6181 21.4499L16.6781 23.8899C16.4158 23.9311 16.1643 24.0241 15.9383 24.1635C15.7123 24.3029 15.5163 24.486 15.3618 24.7019C15.2072 24.9179 15.0973 25.1625 15.0383 25.4214C14.9793 25.6803 14.9724 25.9483 15.0181 26.2099C15.1012 26.6777 15.3481 27.1006 15.7145 27.4029C16.081 27.7052 16.5431 27.8672 17.0181 27.8599C17.1346 27.8698 17.2517 27.8698 17.3681 27.8599L31.3081 25.3999C31.57 25.3578 31.8206 25.2624 32.0442 25.1197C32.2678 24.9769 32.4597 24.7898 32.6081 24.5699C32.9142 24.1379 33.0365 23.602 32.9481 23.0799C32.865 22.6122 32.6182 22.1893 32.2517 21.8869C31.8853 21.5846 31.4231 21.4226 30.9481 21.4299L30.9681 21.4499Z" fill="#212C3A"/>
</g>
<path d="M4 18C3.73478 18 3.48043 17.8946 3.29289 17.7071C3.10536 17.5196 3 17.2652 3 17V14.65C3 14.23 3.78 6 24 6C44.22 6 45 14.23 45 14.58V17C45 17.2652 44.8946 17.5196 44.7071 17.7071C44.5196 17.8946 44.2652 18 44 18H4Z" fill="white"/>
<path d="M24 7C43.52 7 44 14.65 44 14.65V17H4V14.65C4 14.65 4.48 7 24 7ZM24 5C3.21 5 2.07 13.55 2 14.52V17C2 17.5304 2.21071 18.0391 2.58579 18.4142C2.96086 18.7893 3.46957 19 4 19H44C44.5304 19 45.0391 18.7893 45.4142 18.4142C45.7893 18.0391 46 17.5304 46 17V14.52C45.94 13.55 44.8 5 24 5Z" fill="#212C3A"/>
<path d="M4 14.5H44" stroke="#212C3A" stroke-miterlimit="10"/>
<defs>
<clipPath id="clip0_498_2611">
<rect width="19.96" height="29" fill="white" transform="translate(14.0195 17)"/>
</clipPath>
</defs>
</svg>
