<svg width="48" height="48" viewBox="0 0 48 48" fill="none" xmlns="http://www.w3.org/2000/svg">
<path d="M20 44C19.7348 44 19.4804 43.8946 19.2929 43.7071C19.1054 43.5196 19 43.2652 19 43V19.07L8.63 14.93C8.44394 14.8559 8.28441 14.7276 8.17208 14.5618C8.05976 14.396 7.99981 14.2003 8 14V10C8 9.73478 8.10536 9.48043 8.29289 9.29289C8.48043 9.10536 8.73478 9 9 9H32C32.2652 9 32.5196 9.10536 32.7071 9.29289C32.8946 9.48043 33 9.73478 33 10V16.52C33.0005 16.7113 32.9461 16.8987 32.8433 17.0599C32.7405 17.2212 32.5936 17.3497 32.42 17.43L29 19V43C29 43.2652 28.8946 43.5196 28.7071 43.7071C28.5196 43.8946 28.2652 44 28 44H20Z" fill="white"/>
<path d="M32 10V16.52L28 18.39V43H20V18.39L9 14V10H32ZM32 8H9C8.46957 8 7.96086 8.21071 7.58579 8.58579C7.21071 8.96086 7 9.46957 7 10V14C6.99961 14.4006 7.11951 14.792 7.34416 15.1236C7.56881 15.4553 7.88787 15.7118 8.26 15.86L18 19.75V43C18 43.5304 18.2107 44.0391 18.5858 44.4142C18.9609 44.7893 19.4696 45 20 45H28C28.5304 45 29.0391 44.7893 29.4142 44.4142C29.7893 44.0391 30 43.5304 30 43V19.67L32.85 18.33C33.1937 18.1686 33.4844 17.9127 33.6881 17.5922C33.8917 17.2716 33.9999 16.8998 34 16.52V10C34 9.46957 33.7893 8.96086 33.4142 8.58579C33.0391 8.21071 32.5304 8 32 8Z" fill="#212C3A"/>
<path d="M31.5 14.5H9.5" stroke="#212C3A" stroke-miterlimit="10" stroke-linecap="square"/>
<path d="M29 18.5H19" stroke="#212C3A" stroke-miterlimit="10"/>
</svg>
