<svg width="48" height="48" viewBox="0 0 48 48" fill="none" xmlns="http://www.w3.org/2000/svg">
<path d="M20.0003 33C19.7351 33 19.4807 32.8946 19.2932 32.7071C19.1057 32.5196 19.0003 32.2652 19.0003 32V13.8L10.7803 12C10.5547 11.9492 10.3537 11.8218 10.2115 11.6395C10.0693 11.4571 9.99465 11.2312 10.0003 11V7C10.0003 6.73478 10.1057 6.48043 10.2932 6.29289C10.4807 6.10536 10.7351 6 11.0003 6H37.0003C37.2655 6 37.5199 6.10536 37.7074 6.29289C37.8949 6.48043 38.0003 6.73478 38.0003 7V11C38.0059 11.2312 37.9313 11.4571 37.7891 11.6395C37.6469 11.8218 37.4459 11.9492 37.2203 12L29.0003 13.8V32C29.0003 32.2652 28.8949 32.5196 28.7074 32.7071C28.5199 32.8946 28.2655 33 28.0003 33H20.0003Z" fill="white"/>
<path d="M37.0005 7V11L28.0005 13V32H20.0005V13L11.0005 11V7H37.0005ZM37.0005 5H11.0005C10.4701 5 9.9614 5.21071 9.58633 5.58579C9.21126 5.96086 9.00054 6.46957 9.00054 7V11C8.98973 11.4637 9.14041 11.9168 9.42682 12.2816C9.71322 12.6464 10.1175 12.9004 10.5705 13L18.0005 14.6V32C18.0005 32.5304 18.2113 33.0391 18.5863 33.4142C18.9614 33.7893 19.4701 34 20.0005 34H28.0005C28.531 34 29.0397 33.7893 29.4148 33.4142C29.7898 33.0391 30.0005 32.5304 30.0005 32V14.6L37.4305 13C37.8836 12.9004 38.2879 12.6464 38.5743 12.2816C38.8607 11.9168 39.0114 11.4637 39.0005 11V7C39.0005 6.46957 38.7898 5.96086 38.4148 5.58579C38.0397 5.21071 37.531 5 37.0005 5Z" fill="#212C3A"/>
<path d="M11.5 11.5H37.5" stroke="#212C3A" stroke-miterlimit="10" stroke-linecap="square"/>
<path d="M20.0003 44C19.7351 44 19.4807 43.8946 19.2932 43.7071C19.1057 43.5196 19.0003 43.2652 19.0003 43V33.8L10.7803 32C10.5547 31.9492 10.3537 31.8218 10.2115 31.6395C10.0693 31.4571 9.99465 31.2312 10.0003 31V27C10.0003 26.7348 10.1057 26.4804 10.2932 26.2929C10.4807 26.1054 10.7351 26 11.0003 26H37.0003C37.2655 26 37.5199 26.1054 37.7074 26.2929C37.8949 26.4804 38.0003 26.7348 38.0003 27V31C38.0059 31.2312 37.9313 31.4571 37.7891 31.6395C37.6469 31.8218 37.4459 31.9492 37.2203 32L29.0003 33.8V43C29.0003 43.2652 28.8949 43.5196 28.7074 43.7071C28.5199 43.8946 28.2655 44 28.0003 44H20.0003Z" fill="white"/>
<path d="M37.0005 27V31L28.0005 33V43H20.0005V33L11.0005 31V27H37.0005ZM37.0005 25H11.0005C10.4701 25 9.9614 25.2107 9.58633 25.5858C9.21126 25.9609 9.00054 26.4696 9.00054 27V31C8.98973 31.4637 9.14041 31.9168 9.42682 32.2816C9.71322 32.6464 10.1175 32.9004 10.5705 33L18.0005 34.6V43C18.0005 43.5304 18.2113 44.0391 18.5863 44.4142C18.9614 44.7893 19.4701 45 20.0005 45H28.0005C28.531 45 29.0397 44.7893 29.4148 44.4142C29.7898 44.0391 30.0005 43.5304 30.0005 43V34.6L37.4305 33C37.8836 32.9004 38.2879 32.6464 38.5743 32.2816C38.8607 31.9168 39.0114 31.4637 39.0005 31V27C39.0005 26.4696 38.7898 25.9609 38.4148 25.5858C38.0397 25.2107 37.531 25 37.0005 25Z" fill="#212C3A"/>
<path d="M11.5 31.5H37.5" stroke="#212C3A" stroke-miterlimit="10" stroke-linecap="square"/>
<path d="M20 13.5H28" stroke="#212C3A" stroke-miterlimit="10" stroke-linecap="square"/>
<path d="M20 33.5H28" stroke="#212C3A" stroke-miterlimit="10" stroke-linecap="square"/>
</svg>
