<svg width="48" height="48" viewBox="0 0 48 48" fill="none" xmlns="http://www.w3.org/2000/svg">
<path d="M20 44C19.7348 44 19.4804 43.8946 19.2929 43.7071C19.1054 43.5196 19 43.2652 19 43V18.82L8.61 14.37C8.42925 14.2934 8.27503 14.1654 8.16656 14.0018C8.05809 13.8382 8.00016 13.6463 8 13.45V11C8 10.7348 8.10536 10.4804 8.29289 10.2929C8.48043 10.1054 8.73478 10 9 10H39C39.2652 10 39.5196 10.1054 39.7071 10.2929C39.8946 10.4804 40 10.7348 40 11V13.45C39.9998 13.6463 39.9419 13.8382 39.8334 14.0018C39.725 14.1654 39.5707 14.2934 39.39 14.37L29 18.82V43C29 43.2652 28.8946 43.5196 28.7071 43.7071C28.5196 43.8946 28.2652 44 28 44H20Z" fill="white"/>
<path d="M39 11V13.45L28 18.16V43H20V18.16L9 13.45V11H39ZM39 9H9C8.46957 9 7.96086 9.21071 7.58579 9.58579C7.21072 9.96086 7 10.4696 7 11V13.45C6.99949 13.8415 7.11386 14.2245 7.32895 14.5515C7.54403 14.8786 7.85038 15.1354 8.21 15.29L18 19.48V43C18 43.5304 18.2107 44.0391 18.5858 44.4142C18.9609 44.7893 19.4696 45 20 45H28C28.5304 45 29.0391 44.7893 29.4142 44.4142C29.7893 44.0391 30 43.5304 30 43V19.48L39.79 15.29C40.1496 15.1354 40.456 14.8786 40.6711 14.5515C40.8861 14.2245 41.0005 13.8415 41 13.45V11C41 10.4696 40.7893 9.96086 40.4142 9.58579C40.0391 9.21071 39.5304 9 39 9Z" fill="#212C3A"/>
<path d="M19.5 18.5H28" stroke="#212C3A" stroke-miterlimit="10" stroke-linecap="square"/>
<path d="M8.5 13.5H38.5" stroke="#212C3A" stroke-miterlimit="10" stroke-linecap="square"/>
</svg>
