<svg width="48" height="48" viewBox="0 0 48 48" fill="none" xmlns="http://www.w3.org/2000/svg">
<g clip-path="url(#clip0_498_3243)">
<path d="M16.9989 18.8605C16.6332 18.8618 16.2742 18.7627 15.9608 18.5741C15.6475 18.3855 15.3919 18.1146 15.2217 17.7909C15.0516 17.4671 14.9735 17.103 14.996 16.7379C15.0184 16.3729 15.1404 16.021 15.3489 15.7205C15.4999 15.503 15.6925 15.3177 15.9157 15.1752C16.1388 15.0327 16.3881 14.9359 16.6489 14.8905L30.5889 12.4605C30.7054 12.4507 30.8225 12.4507 30.9389 12.4605C31.3046 12.4593 31.6637 12.5584 31.977 12.747C32.2903 12.9356 32.546 13.2065 32.7161 13.5302C32.8862 13.8539 32.9643 14.2181 32.9419 14.5831C32.9194 14.9482 32.7974 15.3001 32.5889 15.6005C32.4368 15.8191 32.2426 16.0051 32.0176 16.1477C31.7927 16.2902 31.5415 16.3864 31.2789 16.4305L17.3789 18.8305C17.2534 18.8522 17.1262 18.8622 16.9989 18.8605Z" fill="white"/>
<path d="M30.9994 13.4299C31.2646 13.4074 31.5279 13.4911 31.7314 13.6627C31.9349 13.8343 32.0619 14.0797 32.0844 14.3449C32.107 14.6101 32.0232 14.8734 31.8516 15.0769C31.68 15.2804 31.4346 15.4074 31.1694 15.4299L17.2094 17.8499H16.9994C16.8681 17.8611 16.7359 17.8463 16.6103 17.8063C16.4847 17.7664 16.3682 17.7021 16.2674 17.6171C16.0639 17.4455 15.937 17.2001 15.9144 16.9349C15.8919 16.6697 15.9756 16.4064 16.1472 16.2029C16.3188 15.9994 16.5642 15.8725 16.8294 15.8499L30.7594 13.4199H30.9394M30.9394 11.4199C30.765 11.4214 30.591 11.4382 30.4194 11.4699L16.5094 13.9099C16.1097 13.9711 15.7265 14.1125 15.3828 14.3256C15.0391 14.5387 14.742 14.8191 14.5094 15.1499C14.0559 15.8023 13.8797 16.6078 14.0194 17.3899C14.1451 18.0906 14.5159 18.7238 15.0654 19.1763C15.615 19.6288 16.3076 19.8711 17.0194 19.8599C17.1924 19.875 17.3664 19.875 17.5394 19.8599L31.4794 17.4299C31.8703 17.3624 32.2439 17.2181 32.5786 17.0052C32.9133 16.7924 33.2025 16.5153 33.4294 16.1899C33.7538 15.7421 33.9482 15.2134 33.9909 14.6621C34.0337 14.1108 33.9233 13.5584 33.6719 13.0659C33.4205 12.5734 33.0378 12.16 32.5662 11.8713C32.0946 11.5826 31.5524 11.4298 30.9994 11.4299L30.9394 11.4199Z" fill="#212C3A"/>
<path d="M16.9989 39.8605C16.6332 39.8618 16.2742 39.7627 15.9608 39.5741C15.6475 39.3855 15.3919 39.1146 15.2217 38.7909C15.0516 38.4671 14.9735 38.103 14.996 37.7379C15.0184 37.3729 15.1404 37.021 15.3489 36.7205C15.4999 36.503 15.6925 36.3177 15.9157 36.1752C16.1388 36.0327 16.3881 35.9359 16.6489 35.8905L30.5889 33.4605C30.7054 33.4507 30.8225 33.4507 30.9389 33.4605C31.3046 33.4593 31.6637 33.5584 31.977 33.747C32.2903 33.9356 32.546 34.2065 32.7161 34.5302C32.8862 34.8539 32.9643 35.2181 32.9419 35.5831C32.9194 35.9482 32.7974 36.3001 32.5889 36.6005C32.4368 36.8191 32.2426 37.0051 32.0176 37.1477C31.7927 37.2902 31.5415 37.3864 31.2789 37.4305L17.3789 39.8305C17.2534 39.8522 17.1262 39.8622 16.9989 39.8605Z" fill="white"/>
<path d="M30.9994 34.4295C31.2646 34.4069 31.5279 34.4907 31.7314 34.6623C31.9349 34.8339 32.0619 35.0793 32.0844 35.3445C32.107 35.6097 32.0232 35.873 31.8516 36.0765C31.68 36.28 31.4346 36.4069 31.1694 36.4295L17.2094 38.8495H16.9994C16.7342 38.872 16.4709 38.7883 16.2674 38.6167C16.0639 38.4451 15.937 38.1997 15.9144 37.9345C15.8919 37.6693 15.9756 37.406 16.1472 37.2025C16.3188 36.999 16.5642 36.872 16.8294 36.8495L30.7594 34.4195H30.9394M30.9394 32.4195C30.7664 32.4044 30.5924 32.4044 30.4194 32.4195L16.5094 34.9095C16.1097 34.9707 15.7265 35.1121 15.3828 35.3252C15.0391 35.5383 14.742 35.8187 14.5094 36.1495C14.0559 36.8018 13.8797 37.6074 14.0194 38.3895C14.1451 39.0902 14.5159 39.7234 15.0654 40.1759C15.615 40.6284 16.3076 40.8707 17.0194 40.8595C17.1924 40.8745 17.3664 40.8745 17.5394 40.8595L31.4794 38.4295C31.8703 38.362 32.2439 38.2176 32.5786 38.0048C32.9133 37.7919 33.2025 37.5148 33.4294 37.1895C33.7538 36.7417 33.9482 36.2129 33.9909 35.6616C34.0337 35.1103 33.9233 34.5579 33.6719 34.0654C33.4205 33.573 33.0378 33.1595 32.5662 32.8708C32.0946 32.5821 31.5524 32.4294 30.9994 32.4295L30.9394 32.4195Z" fill="#212C3A"/>
<path d="M16.9989 32.8605C16.6332 32.8618 16.2742 32.7627 15.9608 32.5741C15.6475 32.3855 15.3919 32.1146 15.2217 31.7909C15.0516 31.4671 14.9735 31.103 14.996 30.7379C15.0184 30.3729 15.1404 30.021 15.3489 29.7205C15.4999 29.503 15.6925 29.3177 15.9157 29.1752C16.1388 29.0327 16.3881 28.9359 16.6489 28.8905L30.5889 26.4605C30.7054 26.4507 30.8225 26.4507 30.9389 26.4605C31.3046 26.4593 31.6637 26.5584 31.977 26.747C32.2903 26.9356 32.546 27.2065 32.7161 27.5302C32.8862 27.8539 32.9643 28.2181 32.9419 28.5831C32.9194 28.9482 32.7974 29.3001 32.5889 29.6005C32.4368 29.8191 32.2426 30.0051 32.0176 30.1477C31.7927 30.2902 31.5415 30.3864 31.2789 30.4305L17.3789 32.8305C17.2534 32.8522 17.1262 32.8622 16.9989 32.8605Z" fill="white"/>
<path d="M30.9994 27.4299C31.2646 27.4074 31.5279 27.4911 31.7314 27.6627C31.9349 27.8343 32.0619 28.0797 32.0844 28.3449C32.107 28.6101 32.0232 28.8734 31.8516 29.0769C31.68 29.2804 31.4346 29.4074 31.1694 29.4299L17.2094 31.8499H16.9994C16.7342 31.8725 16.4709 31.7887 16.2674 31.6171C16.0639 31.4455 15.937 31.2001 15.9144 30.9349C15.8919 30.6697 15.9756 30.4064 16.1472 30.2029C16.3188 29.9994 16.5642 29.8725 16.8294 29.8499L30.7594 27.4199H30.9394M30.9394 25.4199C30.765 25.4214 30.591 25.4382 30.4194 25.4699L16.5094 27.9099C16.1097 27.9711 15.7265 28.1125 15.3828 28.3256C15.0391 28.5387 14.742 28.8191 14.5094 29.1499C14.0559 29.8023 13.8797 30.6078 14.0194 31.3899C14.1451 32.0906 14.5159 32.7238 15.0654 33.1763C15.615 33.6288 16.3076 33.8711 17.0194 33.8599C17.1924 33.875 17.3664 33.875 17.5394 33.8599L31.4794 31.4299C31.8703 31.3624 32.2439 31.2181 32.5786 31.0052C32.9133 30.7924 33.2025 30.5153 33.4294 30.1899C33.7538 29.7421 33.9482 29.2134 33.9909 28.6621C34.0337 28.1108 33.9233 27.5584 33.6719 27.0659C33.4205 26.5734 33.0378 26.16 32.5662 25.8713C32.0946 25.5826 31.5524 25.4298 30.9994 25.4299L30.9394 25.4199Z" fill="#212C3A"/>
<path d="M16.9989 25.8605C16.6332 25.8618 16.2742 25.7627 15.9608 25.5741C15.6475 25.3855 15.3919 25.1146 15.2217 24.7909C15.0516 24.4671 14.9735 24.103 14.996 23.7379C15.0184 23.3729 15.1404 23.021 15.3489 22.7205C15.4999 22.503 15.6925 22.3177 15.9157 22.1752C16.1388 22.0327 16.3881 21.9359 16.6489 21.8905L30.5889 19.4605C30.7054 19.4507 30.8225 19.4507 30.9389 19.4605C31.3046 19.4593 31.6637 19.5584 31.977 19.747C32.2903 19.9356 32.546 20.2065 32.7161 20.5302C32.8862 20.8539 32.9643 21.2181 32.9419 21.5831C32.9194 21.9482 32.7974 22.3001 32.5889 22.6005C32.4368 22.8191 32.2426 23.0051 32.0176 23.1477C31.7927 23.2902 31.5415 23.3864 31.2789 23.4305L17.3789 25.8305C17.2534 25.8522 17.1262 25.8622 16.9989 25.8605Z" fill="white"/>
<path d="M30.9994 20.4299C31.2646 20.4074 31.5279 20.4911 31.7314 20.6627C31.9349 20.8343 32.0619 21.0797 32.0844 21.3449C32.107 21.6101 32.0232 21.8734 31.8516 22.0769C31.68 22.2804 31.4346 22.4074 31.1694 22.4299L17.2094 24.8499H16.9994C16.7342 24.8725 16.4709 24.7887 16.2674 24.6171C16.0639 24.4455 15.937 24.2001 15.9144 23.9349C15.8919 23.6697 15.9756 23.4064 16.1472 23.2029C16.3188 22.9994 16.5642 22.8725 16.8294 22.8499L30.7594 20.4199H30.9394M30.9394 18.4199C30.765 18.4214 30.591 18.4382 30.4194 18.4699L16.5094 20.9099C16.1097 20.9711 15.7265 21.1125 15.3828 21.3256C15.0391 21.5387 14.742 21.8191 14.5094 22.1499C14.0559 22.8023 13.8797 23.6078 14.0194 24.3899C14.1451 25.0906 14.5159 25.7238 15.0654 26.1763C15.615 26.6288 16.3076 26.8711 17.0194 26.8599C17.1924 26.875 17.3664 26.875 17.5394 26.8599L31.4794 24.4299C31.8703 24.3624 32.2439 24.2181 32.5786 24.0052C32.9133 23.7924 33.2025 23.5153 33.4294 23.1899C33.7538 22.7421 33.9482 22.2134 33.9909 21.6621C34.0337 21.1108 33.9233 20.5584 33.6719 20.0659C33.4205 19.5734 33.0378 19.16 32.5662 18.8713C32.0946 18.5826 31.5524 18.4298 30.9994 18.4299L30.9394 18.4199Z" fill="#212C3A"/>
<path d="M18 43C17.7348 43 17.4804 42.8946 17.2929 42.7071C17.1054 42.5196 17 42.2652 17 42V11C17.0015 10.804 17.0606 10.6127 17.17 10.45L19.17 7.45C19.2606 7.31244 19.3838 7.19938 19.5285 7.12088C19.6733 7.04238 19.8353 7.00085 20 7H28C28.1647 7.00085 28.3267 7.04238 28.4715 7.12088C28.6162 7.19938 28.7394 7.31244 28.83 7.45L30.83 10.45C30.9394 10.6127 30.9985 10.804 31 11V40C31.0031 40.2397 30.92 40.4725 30.7658 40.6561C30.6116 40.8396 30.3966 40.9617 30.16 41L18.16 43H18Z" fill="white"/>
<path d="M28 8L30 11V40L24 41L18 42V11L20 8H28ZM28 6H20C19.6715 6.00061 19.3482 6.08213 19.0587 6.23735C18.7691 6.39258 18.5223 6.61673 18.34 6.89L16.34 9.89C16.1194 10.2182 16.0011 10.6045 16 11V42C15.9998 42.2913 16.0632 42.5792 16.1858 42.8435C16.3085 43.1078 16.4874 43.3421 16.71 43.53C17.0711 43.834 17.528 44.0005 18 44C18.1098 44.0099 18.2202 44.0099 18.33 44L24.33 43L30.33 42C30.8014 41.9212 31.229 41.6761 31.5354 41.3093C31.8417 40.9424 32.0065 40.4779 32 40V11C31.9989 10.6045 31.8806 10.2182 31.66 9.89L29.66 6.89C29.4777 6.61673 29.2309 6.39258 28.9413 6.23735C28.6518 6.08213 28.3285 6.00061 28 6Z" fill="#212C3A"/>
<path d="M16.9989 39.36C16.6011 39.3944 16.2059 39.2695 15.9002 39.0126C15.5945 38.7556 15.4034 38.3878 15.3689 37.99C15.3344 37.5921 15.4594 37.1969 15.7163 36.8912C15.9732 36.5855 16.3411 36.3944 16.7389 36.36L30.7089 34C30.7953 33.9896 30.8826 33.9896 30.9689 34C31.3233 33.999 31.6668 34.1226 31.9392 34.3493C32.2116 34.576 32.3955 34.8913 32.4589 35.24C32.4933 35.4339 32.489 35.6328 32.4461 35.825C32.4031 36.0172 32.3225 36.1991 32.2089 36.36C32.0914 36.5242 31.9425 36.6635 31.7709 36.7699C31.5993 36.8763 31.4083 36.9477 31.2089 36.98L17.2889 39.34C17.1936 39.3594 17.096 39.3662 16.9989 39.36Z" fill="white"/>
<path d="M30.9999 34.4295C31.2651 34.407 31.5284 34.4907 31.7319 34.6623C31.9354 34.8339 32.0624 35.0793 32.0849 35.3445C32.1075 35.6097 32.0237 35.873 31.8521 36.0765C31.6805 36.28 31.4351 36.407 31.1699 36.4295L17.2099 38.8495H16.9999C16.7347 38.8721 16.4714 38.7883 16.2679 38.6167C16.0644 38.4451 15.9375 38.1997 15.9149 37.9345C15.8924 37.6693 15.9761 37.406 16.1477 37.2025C16.3193 36.999 16.5647 36.8721 16.8299 36.8495L30.7599 34.4195H30.9399M30.9399 33.4195C30.8235 33.4096 30.7064 33.4096 30.5899 33.4195L16.6899 35.8895C16.4294 35.9331 16.18 36.0278 15.9563 36.1682C15.7326 36.3086 15.5389 36.492 15.3864 36.7077C15.2339 36.9234 15.1257 37.1672 15.0679 37.425C15.0102 37.6827 15.004 37.9494 15.0499 38.2095C15.133 38.6773 15.3799 39.1002 15.7463 39.4025C16.1128 39.7048 16.5749 39.8668 17.0499 39.8595C17.1664 39.8694 17.2835 39.8694 17.3999 39.8595L31.3099 37.3995C31.5725 37.3554 31.8237 37.2592 32.0486 37.1167C32.2736 36.9741 32.4678 36.7881 32.6199 36.5695C32.827 36.2711 32.9488 35.922 32.9725 35.5596C32.9961 35.1972 32.9206 34.8351 32.7541 34.5124C32.5876 34.1896 32.3363 33.9183 32.0273 33.7275C31.7182 33.5368 31.3631 33.4337 30.9999 33.4295L30.9399 33.4195Z" fill="#212C3A"/>
<path d="M16.9989 32.36C16.6011 32.3944 16.2059 32.2695 15.9002 32.0126C15.5945 31.7556 15.4034 31.3878 15.3689 30.99C15.3344 30.5921 15.4594 30.1969 15.7163 29.8912C15.9732 29.5855 16.3411 29.3944 16.7389 29.36L30.7089 27C30.7953 26.9896 30.8826 26.9896 30.9689 27C31.3233 26.999 31.6668 27.1226 31.9392 27.3493C32.2116 27.576 32.3955 27.8913 32.4589 28.24C32.4933 28.4339 32.489 28.6328 32.4461 28.825C32.4031 29.0172 32.3225 29.1991 32.2089 29.36C32.0914 29.5242 31.9425 29.6635 31.7709 29.7699C31.5993 29.8763 31.4083 29.9477 31.2089 29.98L17.2889 32.34C17.1936 32.3594 17.096 32.3662 16.9989 32.36Z" fill="white"/>
<path d="M30.9999 27.4295C31.2651 27.407 31.5284 27.4907 31.7319 27.6623C31.9354 27.8339 32.0624 28.0793 32.0849 28.3445C32.1075 28.6097 32.0237 28.873 31.8521 29.0765C31.6805 29.28 31.4351 29.407 31.1699 29.4295L17.2099 31.8495H16.9999C16.7347 31.8721 16.4714 31.7883 16.2679 31.6167C16.0644 31.4451 15.9375 31.1997 15.9149 30.9345C15.8924 30.6693 15.9761 30.406 16.1477 30.2025C16.3193 29.999 16.5647 29.8721 16.8299 29.8495L30.7599 27.4195H30.9399M30.9399 26.4195C30.8235 26.4096 30.7064 26.4096 30.5899 26.4195L16.6899 28.8895C16.4294 28.9331 16.18 29.0278 15.9563 29.1682C15.7326 29.3086 15.5389 29.492 15.3864 29.7077C15.2339 29.9234 15.1257 30.1672 15.0679 30.425C15.0102 30.6827 15.004 30.9494 15.0499 31.2095C15.133 31.6773 15.3799 32.1002 15.7463 32.4025C16.1128 32.7048 16.5749 32.8668 17.0499 32.8595C17.1664 32.8694 17.2835 32.8694 17.3999 32.8595L31.3099 30.3995C31.5725 30.3554 31.8237 30.2592 32.0486 30.1167C32.2736 29.9741 32.4678 29.7881 32.6199 29.5695C32.827 29.2711 32.9488 28.922 32.9725 28.5596C32.9961 28.1972 32.9206 27.8351 32.7541 27.5124C32.5876 27.1896 32.3363 26.9183 32.0273 26.7275C31.7182 26.5368 31.3631 26.4337 30.9999 26.4295L30.9399 26.4195Z" fill="#212C3A"/>
<path d="M16.9989 25.36C16.6011 25.3944 16.2059 25.2695 15.9002 25.0126C15.5945 24.7556 15.4034 24.3878 15.3689 23.99C15.3344 23.5921 15.4594 23.1969 15.7163 22.8912C15.9732 22.5855 16.3411 22.3944 16.7389 22.36L30.7089 20C30.7953 19.9896 30.8826 19.9896 30.9689 20C31.3233 19.999 31.6668 20.1226 31.9392 20.3493C32.2116 20.576 32.3955 20.8913 32.4589 21.24C32.4933 21.4339 32.489 21.6328 32.4461 21.825C32.4031 22.0172 32.3225 22.1991 32.2089 22.36C32.0914 22.5242 31.9425 22.6635 31.7709 22.7699C31.5993 22.8763 31.4083 22.9477 31.2089 22.98L17.2889 25.34C17.1936 25.3594 17.096 25.3662 16.9989 25.36Z" fill="white"/>
<path d="M30.9999 20.4295C31.2651 20.407 31.5284 20.4907 31.7319 20.6623C31.9354 20.8339 32.0624 21.0793 32.0849 21.3445C32.1075 21.6097 32.0237 21.873 31.8521 22.0765C31.6805 22.28 31.4351 22.407 31.1699 22.4295L17.2099 24.8495H16.9999C16.7347 24.8721 16.4714 24.7883 16.2679 24.6167C16.0644 24.4451 15.9375 24.1997 15.9149 23.9345C15.8924 23.6693 15.9761 23.406 16.1477 23.2025C16.3193 22.999 16.5647 22.8721 16.8299 22.8495L30.7599 20.4195H30.9399M30.9399 19.4195C30.8235 19.4096 30.7064 19.4096 30.5899 19.4195L16.6899 21.8895C16.4294 21.9331 16.18 22.0278 15.9563 22.1682C15.7326 22.3086 15.5389 22.492 15.3864 22.7077C15.2339 22.9234 15.1257 23.1672 15.0679 23.425C15.0102 23.6827 15.004 23.9494 15.0499 24.2095C15.133 24.6773 15.3799 25.1002 15.7463 25.4025C16.1128 25.7048 16.5749 25.8668 17.0499 25.8595C17.1664 25.8694 17.2835 25.8694 17.3999 25.8595L31.3099 23.3995C31.5725 23.3554 31.8237 23.2592 32.0486 23.1167C32.2736 22.9741 32.4678 22.7881 32.6199 22.5695C32.827 22.2711 32.9488 21.922 32.9725 21.5596C32.9961 21.1972 32.9206 20.8351 32.7541 20.5124C32.5876 20.1896 32.3363 19.9183 32.0273 19.7275C31.7182 19.5368 31.3631 19.4337 30.9999 19.4295L30.9399 19.4195Z" fill="#212C3A"/>
<path d="M16.9989 18.36C16.6011 18.3944 16.2059 18.2695 15.9002 18.0126C15.5945 17.7556 15.4034 17.3878 15.3689 16.99C15.3344 16.5921 15.4594 16.1969 15.7163 15.8912C15.9732 15.5855 16.3411 15.3944 16.7389 15.36L30.7089 13C30.7953 12.9896 30.8826 12.9896 30.9689 13C31.3233 12.999 31.6668 13.1226 31.9392 13.3493C32.2116 13.576 32.3955 13.8913 32.4589 14.24C32.4933 14.4339 32.489 14.6328 32.4461 14.825C32.4031 15.0172 32.3225 15.1991 32.2089 15.36C32.0914 15.5242 31.9425 15.6635 31.7709 15.7699C31.5993 15.8763 31.4083 15.9477 31.2089 15.98L17.2889 18.34C17.1936 18.3594 17.096 18.3662 16.9989 18.36Z" fill="white"/>
<path d="M30.9999 13.4295C31.2651 13.407 31.5284 13.4907 31.7319 13.6623C31.9354 13.8339 32.0624 14.0793 32.0849 14.3445C32.1075 14.6097 32.0237 14.873 31.8521 15.0765C31.6805 15.28 31.4351 15.407 31.1699 15.4295L17.2099 17.8495H16.9999C16.8686 17.8607 16.7364 17.8459 16.6108 17.8059C16.4852 17.766 16.3687 17.7017 16.2679 17.6167C16.0644 17.4451 15.9375 17.1997 15.9149 16.9345C15.8924 16.6693 15.9761 16.406 16.1477 16.2025C16.3193 15.999 16.5647 15.8721 16.8299 15.8495L30.7599 13.4195H30.9399M30.9399 12.4195C30.8235 12.4096 30.7064 12.4096 30.5899 12.4195L16.6899 14.8895C16.4294 14.9331 16.18 15.0278 15.9563 15.1682C15.7326 15.3086 15.5389 15.492 15.3864 15.7077C15.2339 15.9234 15.1257 16.1672 15.0679 16.425C15.0102 16.6827 15.004 16.9494 15.0499 17.2095C15.133 17.6773 15.3799 18.1002 15.7463 18.4025C16.1128 18.7048 16.5749 18.8668 17.0499 18.8595C17.1664 18.8694 17.2835 18.8694 17.3999 18.8595L31.3099 16.3995C31.5725 16.3554 31.8237 16.2592 32.0486 16.1167C32.2736 15.9741 32.4678 15.7881 32.6199 15.5695C32.827 15.2711 32.9488 14.922 32.9725 14.5596C32.9961 14.1972 32.9206 13.8351 32.7541 13.5124C32.5876 13.1896 32.3363 12.9183 32.0273 12.7275C31.7182 12.5368 31.3631 12.4337 30.9999 12.4295L30.9399 12.4195Z" fill="#212C3A"/>
<path d="M17 10.5H31" stroke="#212C3A" stroke-miterlimit="10"/>
</g>
<defs>
<clipPath id="clip0_498_3243">
<rect width="48" height="48" fill="white"/>
</clipPath>
</defs>
</svg>
