<svg width="48" height="48" viewBox="0 0 48 48" fill="none" xmlns="http://www.w3.org/2000/svg">
<path d="M19.9992 44.0001C19.734 44.0001 19.4797 43.8948 19.2921 43.7072C19.1046 43.5197 18.9992 43.2653 18.9992 43.0001V18.2301L16.5092 14.7301C16.4311 14.6232 16.3749 14.5019 16.344 14.3732C16.3131 14.2444 16.3081 14.1108 16.3292 13.9801L18.0492 3.83011C18.0881 3.60368 18.2038 3.39756 18.3768 3.24641C18.5499 3.09525 18.7696 3.00827 18.9992 3.00011H28.9992C29.2375 2.99664 29.4691 3.07835 29.6524 3.23052C29.8358 3.38269 29.9588 3.59531 29.9992 3.83011L31.6692 14.0001C31.6904 14.1308 31.6854 14.2644 31.6545 14.3932C31.6236 14.5219 31.5674 14.6432 31.4892 14.7501L28.9992 18.2301V43.0001C28.9992 43.2653 28.8939 43.5197 28.7063 43.7072C28.5188 43.8948 28.2645 44.0001 27.9992 44.0001H19.9992Z" fill="white"/>
<path d="M28.9997 4.00019L30.7097 14.1502L27.9997 17.9102V43.0002H19.9997V17.9102L17.3197 14.1502L18.9997 4.00019H28.9997ZM28.9997 2.00019H18.9997C18.5218 1.99364 18.0574 2.15847 17.6905 2.46482C17.3236 2.77116 17.0786 3.19877 16.9997 3.67019L15.3497 13.8102C15.3046 14.0703 15.3114 14.3367 15.3698 14.5942C15.4281 14.8516 15.5369 15.095 15.6897 15.3102L17.9997 18.5502V43.0002C17.9997 43.5306 18.2105 44.0393 18.5855 44.4144C18.9606 44.7895 19.4693 45.0002 19.9997 45.0002H27.9997C28.5302 45.0002 29.0389 44.7895 29.414 44.4144C29.789 44.0393 29.9997 43.5306 29.9997 43.0002V18.5502L32.3097 15.3102C32.4626 15.095 32.5713 14.8516 32.6297 14.5942C32.6881 14.3367 32.6949 14.0703 32.6497 13.8102L30.9397 3.67019C30.8626 3.20893 30.6263 2.78927 30.2719 2.48417C29.9175 2.17907 29.4673 2.00782 28.9997 2.00019Z" fill="#212C3A"/>
<path d="M17.5 14.5H30.5" stroke="#212C3A" stroke-miterlimit="10" stroke-linecap="square"/>
<path d="M20.5 18.5H27.5" stroke="#212C3A" stroke-miterlimit="10" stroke-linecap="square"/>
</svg>
