<svg width="48" height="48" viewBox="0 0 48 48" fill="none" xmlns="http://www.w3.org/2000/svg">
<path d="M28 18H20C19.4477 18 19 18.4477 19 19V43C19 43.5523 19.4477 44 20 44H28C28.5523 44 29 43.5523 29 43V19C29 18.4477 28.5523 18 28 18Z" fill="white"/>
<path d="M28 19V43H20V19H28ZM28 17H20C19.4696 17 18.9609 17.2107 18.5858 17.5858C18.2107 17.9609 18 18.4696 18 19V43C18 43.5304 18.2107 44.0391 18.5858 44.4142C18.9609 44.7893 19.4696 45 20 45H28C28.5304 45 29.0391 44.7893 29.4142 44.4142C29.7893 44.0391 30 43.5304 30 43V19C30 18.4696 29.7893 17.9609 29.4142 17.5858C29.0391 17.2107 28.5304 17 28 17Z" fill="#212C3A"/>
<path d="M12.1505 17.9995C12.0134 17.9991 11.8778 17.9705 11.7523 17.9154C11.6267 17.8604 11.5137 17.7801 11.4205 17.6795C11.3265 17.5797 11.254 17.4616 11.2076 17.3326C11.1611 17.2036 11.1417 17.0664 11.1505 16.9295C11.1505 16.8395 11.8905 7.76953 24.0005 7.76953C36.1105 7.76953 36.8505 16.8395 36.8505 16.9295C36.8593 17.0664 36.8399 17.2036 36.7935 17.3326C36.747 17.4616 36.6745 17.5797 36.5805 17.6795C36.4873 17.7801 36.3744 17.8604 36.2488 17.9154C36.1232 17.9705 35.9876 17.9991 35.8505 17.9995H12.1505Z" fill="white"/>
<path d="M23.9988 8.76953C35.3188 8.76953 35.8488 16.9995 35.8488 16.9995H12.1488C12.1488 16.9995 12.6888 8.76953 23.9988 8.76953ZM23.9988 6.76953C13.5688 6.76953 10.3788 13.3795 10.1488 16.8695C10.131 17.1429 10.1695 17.417 10.262 17.6749C10.3545 17.9327 10.499 18.1688 10.6865 18.3686C10.874 18.5683 11.1006 18.7273 11.3521 18.8359C11.6037 18.9444 11.8748 19.0001 12.1488 18.9995H35.8488C36.1227 19.0001 36.3939 18.9444 36.6454 18.8359C36.8969 18.7273 37.1235 18.5683 37.311 18.3686C37.4985 18.1688 37.643 17.9327 37.7355 17.6749C37.828 17.417 37.8666 17.1429 37.8488 16.8695C37.6188 13.3795 34.4388 6.76953 23.9988 6.76953Z" fill="#212C3A"/>
</svg>
