<svg width="48" height="48" viewBox="0 0 48 48" fill="none" xmlns="http://www.w3.org/2000/svg">
<path d="M20 44C19.7348 44 19.4804 43.8946 19.2929 43.7071C19.1054 43.5196 19 43.2652 19 43V18.32C15.45 13.42 6.72 9.91 6.63 9.87C6.44394 9.7959 6.28441 9.66763 6.17208 9.50182C6.05976 9.336 5.99981 9.14028 6 8.94V7C6 6.73478 6.10536 6.48043 6.29289 6.29289C6.48043 6.10536 6.73478 6 7 6H41C41.2652 6 41.5196 6.10536 41.7071 6.29289C41.8946 6.48043 42 6.73478 42 7V8.94C42.0002 9.14028 41.9402 9.336 41.8279 9.50182C41.7156 9.66763 41.5561 9.7959 41.37 9.87C41.28 9.87 32.54 13.43 29 18.32V43C29 43.2652 28.8946 43.5196 28.7071 43.7071C28.5196 43.8946 28.2652 44 28 44H20Z" fill="white"/>
<path d="M41 7V8.94C41 8.94 31.64 12.67 28 18V43H20V18C16.36 12.67 7 8.94 7 8.94V7H41ZM41 5H7C6.46957 5 5.96086 5.21071 5.58579 5.58579C5.21071 5.96086 5 6.46957 5 7V8.94C4.99961 9.34056 5.11951 9.732 5.34416 10.0636C5.56881 10.3953 5.88787 10.6518 6.26 10.8C6.34 10.8 14.52 14.14 18 18.65V43C18 43.5304 18.2107 44.0391 18.5858 44.4142C18.9609 44.7893 19.4696 45 20 45H28C28.5304 45 29.0391 44.7893 29.4142 44.4142C29.7893 44.0391 30 43.5304 30 43V18.65C32.91 14.9 39.39 11.74 41.74 10.8C42.1121 10.6518 42.4312 10.3953 42.6558 10.0636C42.8805 9.732 43.0004 9.34056 43 8.94V7C43 6.46957 42.7893 5.96086 42.4142 5.58579C42.0391 5.21071 41.5304 5 41 5Z" fill="#212C3A"/>
<path d="M29 18.5H19" stroke="#212C3A" stroke-miterlimit="10"/>
<path d="M7 9.5H41" stroke="#212C3A" stroke-miterlimit="10"/>
</svg>
