<svg width="48" height="48" viewBox="0 0 48 48" fill="none" xmlns="http://www.w3.org/2000/svg">
<path d="M10.15 14C7.70998 14 5.43998 16.65 4.99998 20.1C4.47998 23.76 6.27998 26.71 8.78998 27.28L13 28.2C12.91 28.1 12.81 28.02 12.72 27.91C12.0741 26.9964 11.6145 25.9645 11.3674 24.8732C11.1204 23.782 11.0906 22.6527 11.28 21.55C11.3991 20.1827 11.8586 18.867 12.6167 17.7229C13.3748 16.5787 14.4073 15.6427 15.62 15C13.74 14.6 11.32 14.09 10.62 14H10.15Z" fill="white"/>
<path d="M16.56 28.9004C16.9893 28.8973 17.4151 28.8229 17.82 28.6804L17 28.5004L16.61 28.4204C16.0916 28.3483 15.5931 28.172 15.1445 27.9022C14.696 27.6324 14.3067 27.2746 14 26.8504C12.9361 25.3406 12.5119 23.4715 12.82 21.6504C13.27 18.4304 15.45 16.0004 17.9 16.0004C18.0432 15.9901 18.1869 15.9901 18.33 16.0004L19.7 16.2704L19.41 16.0704C18.9762 15.8262 18.4958 15.6763 18 15.6304C17.8602 15.6206 17.7199 15.6206 17.58 15.6304C15.08 15.6304 12.75 18.2404 12.27 21.7104C11.79 25.1804 13.27 28.1004 15.58 28.7804L16.17 28.9004C16.2999 28.9099 16.4302 28.9099 16.56 28.9004Z" fill="white"/>
<path d="M21.3985 28.3605C20.3406 26.852 19.9202 24.9871 20.2285 23.1705C20.3323 22.1406 20.6655 21.147 21.2037 20.2627C21.7419 19.3784 22.4713 18.6259 23.3385 18.0605H23.1085L22.1785 17.8705L18.1785 17.0605H17.8585C15.9485 17.0605 14.1485 19.1205 13.7785 21.8505C13.3785 24.7305 14.6985 27.2505 16.7285 27.4905C16.7285 27.4905 18.8885 27.9405 20.8785 28.3505L21.4185 28.4605C21.4185 28.4605 21.4085 28.3705 21.3985 28.3605Z" fill="white"/>
<path d="M23.6496 28.8096L22.7296 27.0696C22.004 25.9898 21.7278 24.6697 21.9596 23.3896C22.2796 21.1096 23.6896 19.4596 25.2996 19.4596H25.5496C25.8817 19.5028 26.2014 19.6138 26.4887 19.7859C26.776 19.9579 27.0248 20.1872 27.2196 20.4596C27.5197 20.8852 27.7369 21.3635 27.8596 21.8696C27.9792 22.3544 28.224 22.7992 28.5696 23.1596H28.6696V23.0996C28.6746 23.0197 28.6746 22.9395 28.6696 22.8596C28.6696 22.6296 28.6696 22.3896 28.6196 22.1596C28.6196 22.1596 28.6196 22.1596 28.6196 22.0996C28.5936 21.9341 28.5568 21.7704 28.5096 21.6096C28.5096 21.4696 28.4596 21.3296 28.4196 21.1996C28.3796 21.0696 28.2796 20.8696 28.2096 20.6996L28.1496 20.5496C28.1496 20.4896 28.0996 20.4296 28.0796 20.3796C28.0004 20.2276 27.9066 20.0835 27.7996 19.9496V19.8896L27.6796 19.6896L27.6096 19.6096C27.4998 19.4798 27.3794 19.3594 27.2496 19.2496C27.2072 19.2121 27.1671 19.1721 27.1296 19.1296H27.0796C26.9369 19.028 26.7865 18.9377 26.6296 18.8596C26.5964 18.8338 26.5593 18.8135 26.5196 18.7996C26.3541 18.738 26.1834 18.6912 26.0096 18.6596C25.9396 18.6596 25.8696 18.6096 25.7896 18.5996H25.4796C23.5596 18.5996 21.7696 20.6696 21.3896 23.3996C21.0096 26.1296 21.9296 28.2296 23.6496 28.8096Z" fill="white"/>
<path d="M33.4811 33.4305H33.3811C32.9695 33.5366 32.5461 33.5903 32.1211 33.5905C31.784 33.5928 31.448 33.5525 31.1211 33.4705L31.3111 33.9805C31.7466 34.2149 32.2368 34.3288 32.7311 34.3105C33.0683 34.3052 33.4037 34.2615 33.7311 34.1805C35.2024 33.8568 36.6342 33.374 38.0011 32.7405C39.6376 31.9987 41.0713 30.8736 42.1811 29.4605C42.7212 28.82 43.0465 28.0259 43.1111 27.1905C43.1161 27.1474 43.1161 27.1037 43.1111 27.0605C42.915 27.5166 42.6631 27.9465 42.3611 28.3405C41.1611 30.0005 38.6411 32.1905 33.4811 33.4305Z" fill="white"/>
<path d="M38.5998 26.5505C38.5998 26.5505 38.5998 26.5005 38.5998 26.4805C38.6148 26.4142 38.6163 26.3455 38.6043 26.2785C38.5922 26.2115 38.5669 26.1476 38.5298 26.0905C38.4698 26.0205 38.2198 25.8105 37.5298 25.8105C36.6963 25.8519 35.8783 26.0521 35.1198 26.4005C32.5998 27.4005 27.2898 29.9805 27.2398 30.0005C27.1898 30.0205 27.1398 30.0005 27.0898 30.0005C27.1326 30.0421 27.1696 30.0892 27.1998 30.1405L27.4298 30.7805C27.4298 30.7805 32.7898 28.2105 35.3598 27.1505C35.6498 27.0305 35.9298 26.9305 36.1898 26.8405C36.8341 26.6198 37.509 26.5017 38.1898 26.4905L38.5998 26.5505Z" fill="white"/>
<path d="M25.8891 29.4498L25.6991 28.9198L25.5391 28.8498L24.5391 28.3398L24.6891 28.6298C24.7474 28.7375 24.8179 28.8382 24.8991 28.9298L25.0491 29.0798L25.1691 29.1998L25.3191 29.2998L25.5091 29.4098L25.6391 29.4698L25.9691 29.5698C25.9447 29.5283 25.918 29.4883 25.8891 29.4498Z" fill="white"/>
<path d="M30.4912 24.5099H30.2712C30.093 24.5436 29.9125 24.5637 29.7312 24.5699C28.3512 24.5699 27.4012 23.7499 26.9012 22.1299V22.0499C26.6512 21.1399 26.1212 20.4999 25.4312 20.4199H25.2912C25.0507 20.4333 24.8155 20.4961 24.6005 20.6045C24.3854 20.7129 24.195 20.8645 24.0412 21.0499L24.3812 22.0999C24.4862 21.9727 24.6196 21.872 24.7708 21.806C24.9219 21.74 25.0865 21.7105 25.2512 21.7199C25.8712 21.7899 26.2512 22.5999 26.4012 23.1199C26.8012 24.2599 27.4012 24.5199 27.5212 25.1199C27.6812 26.1899 26.4512 26.8599 25.5212 26.5299C24.9304 26.3261 24.4301 25.9208 24.1083 25.385C23.7865 24.8492 23.6636 24.2173 23.7612 23.5999C23.7845 23.4166 23.8246 23.2358 23.8812 23.0599L23.3612 22.1399C23.1691 22.5766 23.0379 23.0376 22.9712 23.5099C22.8753 24.1535 22.9093 24.8097 23.0712 25.4399C23.1102 25.4801 23.1408 25.5277 23.1612 25.5799C23.3844 26.1008 23.724 26.5636 24.1539 26.9328C24.5838 27.302 25.0926 27.5679 25.6412 27.7099C25.8912 27.8099 26.1112 27.8999 26.2812 27.9899C26.4538 28.1149 26.5981 28.2747 26.7049 28.459C26.8117 28.6434 26.8786 28.8481 26.9012 29.0599C27.0612 28.9899 32.2912 26.4899 34.8212 25.4399C35.6997 25.0414 36.6472 24.8172 37.6112 24.7799C37.9262 24.7544 38.2431 24.7955 38.5412 24.9006C38.8393 25.0057 39.1118 25.1724 39.3412 25.3899C39.5441 25.6599 39.6603 25.9851 39.6746 26.3225C39.6889 26.6599 39.6005 26.9937 39.4212 27.2799C39.4212 27.2799 39.4212 27.2799 39.4212 27.3299C39.3348 27.4768 39.2379 27.6171 39.1312 27.7499C39.1055 27.7816 39.0821 27.815 39.0612 27.8499C38.9388 27.9873 38.8086 28.1175 38.6712 28.2399C38.6295 28.2883 38.5825 28.3319 38.5312 28.3699C38.3078 28.5652 38.0668 28.7393 37.8112 28.8899C35.5225 30.144 33.1655 31.2691 30.7512 32.2599C31.1921 32.4885 31.6849 32.5988 32.1812 32.5799C32.5186 32.5781 32.8545 32.5344 33.1812 32.4499C34.0712 32.2299 39.0812 31.1199 41.6012 27.7199C41.9469 27.3443 42.2045 26.8961 42.355 26.4083C42.5055 25.9204 42.5452 25.4051 42.4712 24.8999C42.3283 24.4967 42.087 24.1355 41.7692 23.8491C41.4514 23.5627 41.0671 23.3602 40.6512 23.2599C40.4908 23.2061 40.3272 23.1626 40.1612 23.1299H40.0412C39.8927 23.1001 39.7423 23.0801 39.5912 23.0699H39.4612C39.268 23.06 39.0744 23.06 38.8812 23.0699C38.6612 23.0699 38.4512 23.0699 38.2312 23.0699C35.7824 23.3796 33.3547 23.8371 30.9612 24.4399L30.6812 24.5099C30.6194 24.5298 30.553 24.5298 30.4912 24.5099Z" fill="white"/>
<path d="M45.0795 26.5493C44.8742 25.7566 44.617 24.9782 44.3095 24.2193C43.6795 22.2193 41.5495 20.9793 38.8195 20.9793C38.5395 20.9793 38.2595 20.9793 37.9795 20.9793C35.4919 21.2958 33.0269 21.7701 30.5995 22.3993C30.5932 22.2019 30.5765 22.0049 30.5495 21.8093C30.5201 21.6304 30.48 21.4534 30.4295 21.2793V21.1693V21.0693C30.4001 20.9068 30.36 20.7465 30.3095 20.5893C30.2223 20.3846 30.1186 20.1872 29.9995 19.9993V19.9093C29.9468 19.7663 29.8867 19.6261 29.8195 19.4893C29.6908 19.2451 29.5437 19.0111 29.3795 18.7893C29.3076 18.6672 29.2275 18.5503 29.1395 18.4393C28.9545 18.2186 28.754 18.0114 28.5395 17.8193C28.4545 17.7306 28.3644 17.6472 28.2695 17.5693C28.0329 17.3922 27.782 17.235 27.5195 17.0993C27.4119 17.029 27.2981 16.9688 27.1795 16.9193C26.9119 16.8084 26.6338 16.7246 26.3495 16.6693C26.2444 16.6368 26.1375 16.6101 26.0295 16.5893L22.0295 15.7693C21.8895 15.6093 21.7595 15.4693 21.6195 15.3293L21.5195 15.2293C20.6623 14.4245 19.6002 13.871 18.4495 13.6293C17.8395 13.4993 12.1895 12.2593 10.9195 12.0893C10.6797 12.0744 10.4392 12.0744 10.1995 12.0893C6.67947 11.9993 3.59947 15.3593 2.99947 19.8193C2.39947 24.2793 4.62947 28.3993 8.29947 29.2293C8.29947 29.2293 12.9995 30.2793 15.1495 30.7193C15.3889 30.7843 15.633 30.8311 15.8795 30.8593H15.9895C16.1995 30.8593 16.4095 30.8593 16.6195 30.8593C17.6769 30.8453 18.7119 30.5521 19.6195 30.0093L23.9495 30.8793H24.1895C24.6123 31.1628 25.0888 31.3568 25.5895 31.4493C25.6878 31.7061 25.838 31.9399 26.0307 32.136C26.2234 32.3322 26.4544 32.4865 26.7095 32.5893C26.9475 32.6871 27.2022 32.738 27.4595 32.7393C27.7608 32.739 28.0582 32.6707 28.3295 32.5393L28.6895 32.3693C28.7103 32.5465 28.7506 32.7209 28.8095 32.8893L29.4395 34.6093C29.5919 35.0228 29.8767 35.3743 30.2495 35.6093C31.0074 36.0402 31.8678 36.2579 32.7395 36.2393C33.2488 36.2396 33.7561 36.1757 34.2495 36.0493H34.3395C39.7895 34.7393 42.4995 32.3493 43.7995 30.5793C44.5833 29.6144 45.048 28.4298 45.1295 27.1893C45.1377 26.9515 45.1209 26.7136 45.0795 26.4793V26.5493ZM43.1295 27.1893C43.0649 28.0247 42.7396 28.8187 42.1995 29.4593C41.084 30.8749 39.6432 32.0001 37.9995 32.7393C36.6398 33.3782 35.2148 33.8678 33.7495 34.1993C33.4221 34.2803 33.0866 34.3239 32.7495 34.3293C32.2519 34.3494 31.758 34.2354 31.3195 33.9993L31.1295 33.4893C31.4564 33.5713 31.7924 33.6116 32.1295 33.6093C32.5545 33.6091 32.9779 33.5553 33.3895 33.4493H33.4895C38.6495 32.2093 41.1695 29.9993 42.3795 28.3593C42.6815 27.9653 42.9334 27.5353 43.1295 27.0793C43.133 27.1159 43.133 27.1527 43.1295 27.1893ZM35.3895 27.1893C32.8195 28.2493 27.4595 30.8193 27.4595 30.8193L27.2295 30.1793C27.1992 30.1279 27.1622 30.0809 27.1195 30.0393C27.1695 30.0393 27.2195 30.0393 27.2695 30.0393C27.3195 30.0393 32.6295 27.4693 35.1495 26.4393C35.9079 26.0909 36.7259 25.8906 37.5595 25.8493C38.2395 25.8493 38.4895 26.0593 38.5595 26.1293C38.5966 26.1863 38.6219 26.2502 38.6339 26.3172C38.6459 26.3842 38.6444 26.4529 38.6295 26.5193C38.6295 26.5193 38.6295 26.5693 38.6295 26.5893H38.2095C37.5286 26.6005 36.8537 26.7186 36.2095 26.9393C35.9995 26.9993 35.6795 27.0693 35.3895 27.1893ZM25.5095 29.4093L25.3195 29.2993L25.1695 29.1993L25.0495 29.0793L24.8995 28.9293C24.8183 28.8376 24.7478 28.7369 24.6895 28.6293L24.5395 28.3393L25.5395 28.8493L25.6995 28.9193L25.8895 29.4493C25.9184 29.4877 25.9451 29.5278 25.9695 29.5693L25.6395 29.4693L25.5095 29.4093ZM38.1695 22.9993C38.3895 22.9993 38.5995 22.9993 38.8195 22.9993C39.0127 22.9893 39.2063 22.9893 39.3995 22.9993H39.5295C39.6806 23.0094 39.8309 23.0295 39.9795 23.0593H40.0995C40.2654 23.092 40.4291 23.1354 40.5895 23.1893C41.0054 23.2896 41.3896 23.4921 41.7075 23.7785C42.0253 24.0649 42.2666 24.426 42.4095 24.8293C42.4835 25.3345 42.4438 25.8498 42.2933 26.3376C42.1428 26.8255 41.8852 27.2736 41.5395 27.6493C39.0195 31.0493 34.0095 32.1593 33.1195 32.3793C32.7928 32.4638 32.4569 32.5075 32.1195 32.5093C31.6231 32.5282 31.1304 32.4179 30.6895 32.1893C33.1038 31.1984 35.4608 30.0733 37.7495 28.8193C38.0051 28.6687 38.2461 28.4946 38.4695 28.2993C38.5208 28.2613 38.5678 28.2177 38.6095 28.1693C38.7469 28.0469 38.8771 27.9167 38.9995 27.7793C39.0204 27.7443 39.0438 27.7109 39.0695 27.6793C39.1762 27.5465 39.2731 27.4061 39.3595 27.2593C39.3595 27.2593 39.3595 27.2593 39.3595 27.2093C39.5388 26.9231 39.6272 26.5893 39.6129 26.2519C39.5986 25.9144 39.4823 25.5893 39.2795 25.3193C39.0501 25.1018 38.7775 24.9351 38.4795 24.83C38.1814 24.7249 37.8645 24.6838 37.5495 24.7093C36.5855 24.7466 35.638 24.9707 34.7595 25.3693C32.2395 26.5193 26.9995 28.9993 26.8495 29.0893C26.8296 28.874 26.764 28.6653 26.6571 28.4774C26.5502 28.2894 26.4044 28.1264 26.2295 27.9993C26.0595 27.9093 25.8395 27.8193 25.5895 27.7193C25.0409 27.5772 24.5321 27.3114 24.1022 26.9422C23.6723 26.573 23.3327 26.1102 23.1095 25.5893C23.0891 25.5371 23.0585 25.4895 23.0195 25.4493C22.8575 24.8191 22.8235 24.1628 22.9195 23.5193C22.9861 23.0469 23.1174 22.5859 23.3095 22.1493L23.8295 23.0693C23.7729 23.2452 23.7328 23.426 23.7095 23.6093C23.6119 24.2266 23.7348 24.8586 24.0566 25.3944C24.3784 25.9302 24.8786 26.3355 25.4695 26.5393C26.4695 26.8693 27.6595 26.1993 27.4695 25.1293C27.3895 24.5493 26.7495 24.2893 26.3495 23.1293C26.1595 22.6093 25.8195 21.7993 25.1995 21.7293C25.0348 21.7198 24.8702 21.7493 24.7191 21.8153C24.5679 21.8814 24.4345 21.9821 24.3295 22.1093L23.9995 21.0693C24.1533 20.8839 24.3437 20.7323 24.5587 20.6239C24.7738 20.5155 25.009 20.4526 25.2495 20.4393H25.3895C26.0795 20.5193 26.6095 21.1593 26.8595 22.0693V22.1493C27.3595 23.7693 28.3095 24.5893 29.6895 24.5893C29.8707 24.583 30.0513 24.563 30.2295 24.5293H30.4495C30.4969 24.5197 30.5414 24.4992 30.5795 24.4693L30.8595 24.3993C33.2655 23.7847 35.7067 23.3172 38.1695 22.9993ZM21.1695 23.2993C21.5495 20.5693 23.3395 18.5093 25.2595 18.4993H25.5695C25.6495 18.4993 25.7195 18.4993 25.7895 18.5593C25.9633 18.5908 26.1339 18.6377 26.2995 18.6993C26.3391 18.7132 26.3763 18.7335 26.4095 18.7593C26.5663 18.8374 26.7168 18.9277 26.8595 19.0293H26.9095C26.9469 19.0717 26.987 19.1118 27.0295 19.1493C27.1593 19.2591 27.2797 19.3795 27.3895 19.5093L27.4595 19.5893L27.5795 19.7893V19.8493C27.6865 19.9832 27.7803 20.1272 27.8595 20.2793C27.8595 20.3293 27.9095 20.3893 27.9295 20.4493L27.9895 20.5993C28.0595 20.7693 28.1395 20.9193 28.1995 21.0993C28.2595 21.2793 28.2595 21.3693 28.2895 21.5093C28.3367 21.6701 28.3734 21.8338 28.3995 21.9993C28.3995 21.9993 28.3995 21.9993 28.3995 22.0593C28.3995 22.2893 28.3995 22.5293 28.4495 22.7593C28.4544 22.8392 28.4544 22.9194 28.4495 22.9993V23.0593H28.3495C28.0039 22.6989 27.7591 22.2541 27.6395 21.7693C27.5167 21.2632 27.2996 20.7849 26.9995 20.3593C26.8046 20.0869 26.5558 19.8576 26.2685 19.6855C25.9812 19.5135 25.6616 19.4025 25.3295 19.3593H25.0795C23.4695 19.3593 22.0795 21.0093 21.7395 23.2893C21.5076 24.5694 21.7838 25.8895 22.5095 26.9693L23.4295 28.7093C21.9295 28.2293 20.8595 25.9193 21.2195 23.3093L21.1695 23.2993ZM12.1695 21.6793C12.6495 18.2093 14.9795 15.5993 17.4795 15.5993C17.6193 15.5895 17.7596 15.5895 17.8995 15.5993C18.3871 15.6585 18.8571 15.8186 19.2795 16.0693L19.5695 16.2693L18.2995 15.9993C18.1563 15.989 18.0126 15.989 17.8695 15.9993C15.4195 15.9993 13.2395 18.4293 12.7895 21.6493C12.49 23.4744 12.925 25.3439 13.9995 26.8493C14.3061 27.2735 14.6954 27.6313 15.144 27.9011C15.5925 28.1709 16.091 28.3472 16.6095 28.4193L16.9995 28.4993L17.8495 28.6793C17.4445 28.8218 17.0188 28.8962 16.5895 28.8993C16.4563 28.9093 16.3226 28.9093 16.1895 28.8993L15.5995 28.7793C13.2495 28.0793 11.7895 25.0793 12.2595 21.6893L12.1695 21.6793ZM11.1695 21.5393C10.9801 22.642 11.0099 23.7713 11.2569 24.8625C11.504 25.9538 11.9636 26.9857 12.6095 27.8993C12.6995 28.0093 12.7995 28.0893 12.8895 28.1893L8.64947 27.2693C6.23947 26.7093 4.43947 23.7593 4.99947 20.0993C5.43947 16.6493 7.70947 13.9993 10.1495 13.9993H10.5995C11.3195 14.0993 13.7395 14.6093 15.5995 14.9993C14.3886 15.6432 13.3581 16.5798 12.6018 17.7239C11.8456 18.8679 11.3875 20.183 11.2695 21.5493L11.1695 21.5393ZM16.6395 27.4193C14.6395 27.1793 13.2895 24.6593 13.6895 21.7793C14.1595 19.0593 15.9995 16.9993 17.8695 16.9993H18.1895L22.1895 17.8093L23.1195 17.9993H23.3495C22.4823 18.5647 21.7529 19.3172 21.2147 20.2014C20.6765 21.0857 20.3433 22.0793 20.2395 23.1093C19.9312 24.9258 20.3516 26.7907 21.4095 28.2993L20.8695 28.1893C18.8995 27.8793 16.7395 27.4393 16.7395 27.4293L16.6395 27.4193Z" fill="#212C3A"/>
</svg>
