<svg width="24" height="24" viewBox="0 0 24 24" fill="none" xmlns="http://www.w3.org/2000/svg">
<path d="M4.11874 6.11315C2.73203 6.11315 1.44192 7.64861 1.19186 9.64759C0.896327 11.7683 1.91932 13.4775 3.34582 13.8078L5.73848 14.3409C5.68733 14.2829 5.6305 14.2366 5.57935 14.1728C5.21228 13.6435 4.95108 13.0456 4.81066 12.4133C4.67024 11.781 4.65335 11.1267 4.76095 10.4877C4.82863 9.69551 5.0898 8.93316 5.52064 8.27024C5.95148 7.60732 6.53828 7.06494 7.2275 6.69257C6.15904 6.4608 4.78369 6.1653 4.38586 6.11315H4.11874Z" fill="#3B82F6"/>
<path d="M7.76172 14.7465C8.0057 14.7446 8.24768 14.7016 8.47782 14.619L8.01179 14.5147L7.79014 14.4683C7.49549 14.4266 7.21218 14.3244 6.95726 14.1681C6.70234 14.0118 6.48108 13.8044 6.30681 13.5586C5.70213 12.6839 5.46108 11.6009 5.63618 10.5457C5.89193 8.67997 7.13088 7.27199 8.52328 7.27199C8.60464 7.26603 8.68631 7.26603 8.76766 7.27199L9.54628 7.42843L9.38146 7.31254C9.1349 7.17106 8.86184 7.08419 8.58012 7.0576C8.50065 7.05192 8.42089 7.05192 8.34142 7.0576C6.9206 7.0576 5.5964 8.56988 5.3236 10.5804C5.0508 12.591 5.89193 14.2829 7.20476 14.6769L7.54008 14.7465C7.61386 14.7519 7.68794 14.7519 7.76172 14.7465Z" fill="#3B82F6"/>
<path d="M10.5124 14.4336C9.91122 13.5595 9.6723 12.4789 9.84749 11.4264C9.90649 10.8296 10.0959 10.2539 10.4017 9.74154C10.7076 9.22918 11.1222 8.79318 11.615 8.46558H11.4843L10.9557 8.35549L8.68242 7.88617H8.50055C7.41505 7.88617 6.39206 9.07976 6.18177 10.6616C5.95444 12.3303 6.70464 13.7904 7.85834 13.9295C7.85834 13.9295 9.08593 14.1902 10.2169 14.4278L10.5238 14.4915C10.5238 14.4915 10.5181 14.4394 10.5124 14.4336Z" fill="#3B82F6"/>
<path d="M11.7912 14.6943L11.2683 13.6861C10.8559 13.0605 10.6989 12.2956 10.8307 11.5539C11.0126 10.2328 11.8139 9.27676 12.7289 9.27676H12.871C13.0597 9.30177 13.2414 9.36612 13.4047 9.4658C13.568 9.56549 13.7094 9.69837 13.8201 9.85618C13.9907 10.1028 14.1141 10.3799 14.1838 10.6732C14.2518 10.954 14.3909 11.2118 14.5873 11.4206H14.6442V11.3858C14.647 11.3395 14.647 11.2931 14.6442 11.2468C14.6442 11.1135 14.6442 10.9745 14.6158 10.8412C14.6158 10.8412 14.6158 10.8412 14.6158 10.8064C14.601 10.7105 14.5801 10.6157 14.5532 10.5225C14.5532 10.4414 14.5248 10.3603 14.5021 10.2849C14.4794 10.2096 14.4225 10.0937 14.3827 9.99524L14.3486 9.90833C14.3486 9.87356 14.3202 9.8388 14.3089 9.80983C14.2638 9.72172 14.2106 9.63828 14.1497 9.56068V9.52591L14.0815 9.41003L14.0417 9.36368C13.9793 9.28847 13.9109 9.2187 13.8371 9.15509C13.813 9.13338 13.7902 9.11016 13.7689 9.08556H13.7405C13.6594 9.02667 13.5739 8.97436 13.4848 8.92911C13.4659 8.91417 13.4448 8.90243 13.4223 8.89435C13.3282 8.85866 13.2312 8.83152 13.1324 8.81323C13.0926 8.81323 13.0529 8.78426 13.0074 8.77847H12.8312C11.74 8.77847 10.7227 9.97786 10.5067 11.5597C10.2908 13.1415 10.8136 14.3582 11.7912 14.6943Z" fill="white"/>
<path d="M17.3778 17.3712H17.321C17.0871 17.4326 16.8465 17.4638 16.6049 17.4639C16.4133 17.4652 16.2224 17.4419 16.0366 17.3944L16.1446 17.6899C16.3921 17.8257 16.6707 17.8917 16.9516 17.8811C17.1432 17.878 17.3339 17.8527 17.5199 17.8058C18.3561 17.6182 19.1698 17.3384 19.9467 16.9714C20.8767 16.5415 21.6916 15.8897 22.3223 15.0709C22.6292 14.6998 22.8141 14.2397 22.8508 13.7556C22.8536 13.7306 22.8536 13.7054 22.8508 13.6803C22.7394 13.9446 22.5962 14.1937 22.4246 14.422C21.7426 15.3838 20.3104 16.6527 17.3778 17.3712Z" fill="white"/>
<path d="M20.2877 13.3848C20.2877 13.3848 20.2877 13.3559 20.2877 13.3443C20.2962 13.3058 20.297 13.266 20.2902 13.2272C20.2833 13.1884 20.269 13.1513 20.2479 13.1183C20.2138 13.0777 20.0717 12.9561 19.6796 12.9561C19.2058 12.98 18.7409 13.096 18.3099 13.2979C16.8777 13.8773 13.8599 15.3722 13.8315 15.3838C13.803 15.3954 13.7746 15.3838 13.7462 15.3838C13.7705 15.4079 13.7915 15.4352 13.8087 15.4649L13.9394 15.8358C13.9394 15.8358 16.9857 14.3467 18.4463 13.7325C18.6111 13.6629 18.7702 13.605 18.918 13.5529C19.2841 13.425 19.6677 13.3565 20.0547 13.3501L20.2877 13.3848Z" fill="white"/>
<path d="M13.0642 15.0651L12.9562 14.758L12.8653 14.7175L12.297 14.422L12.3822 14.59C12.4154 14.6524 12.4554 14.7107 12.5016 14.7638L12.655 14.9203L12.7403 14.9782L12.8483 15.042L12.9221 15.0767L13.1097 15.1347C13.0959 15.1106 13.0807 15.0874 13.0642 15.0651Z" fill="white"/>
<path d="M15.6785 12.2028H15.5535C15.4522 12.2223 15.3496 12.234 15.2466 12.2376C14.4623 12.2376 13.9224 11.7625 13.6382 10.8238V10.7775C13.4962 10.2502 13.1949 9.87936 12.8028 9.833H12.7232C12.5865 9.84073 12.4529 9.87714 12.3307 9.93995C12.2084 10.0028 12.1002 10.0906 12.0128 10.198L12.206 10.8064C12.2657 10.7327 12.3416 10.6744 12.4275 10.6361C12.5134 10.5979 12.6069 10.5808 12.7005 10.5862C13.0529 10.6268 13.2688 11.0961 13.3541 11.3974C13.5814 12.058 13.9224 12.2086 13.9906 12.5563C14.0815 13.1762 13.3825 13.5644 12.8539 13.3732C12.5182 13.2552 12.2339 13.0203 12.051 12.7099C11.8681 12.3994 11.7982 12.0332 11.8537 11.6755C11.8669 11.5693 11.8897 11.4646 11.9219 11.3627L11.6264 10.8296C11.5172 11.0826 11.4426 11.3497 11.4047 11.6234C11.3502 11.9963 11.3695 12.3765 11.4615 12.7417C11.4837 12.765 11.5011 12.7925 11.5127 12.8228C11.6396 13.1246 11.8326 13.3927 12.0769 13.6067C12.3212 13.8206 12.6104 13.9746 12.9221 14.0569C13.0642 14.1149 13.1893 14.167 13.2859 14.2192C13.3839 14.2916 13.466 14.3842 13.5267 14.491C13.5874 14.5978 13.6254 14.7164 13.6382 14.8392C13.7292 14.7986 16.7015 13.3501 18.1394 12.7417C18.6387 12.5107 19.1772 12.3809 19.725 12.3593C19.9041 12.3445 20.0842 12.3683 20.2536 12.4292C20.423 12.4901 20.5779 12.5867 20.7082 12.7127C20.8235 12.8691 20.8896 13.0575 20.8977 13.2531C20.9058 13.4486 20.8556 13.642 20.7537 13.8078C20.7537 13.8078 20.7537 13.8078 20.7537 13.8368C20.7046 13.9218 20.6495 14.0032 20.5889 14.0801C20.5743 14.0985 20.561 14.1178 20.5491 14.1381C20.4795 14.2177 20.4055 14.2931 20.3274 14.364C20.3038 14.3921 20.2771 14.4173 20.2479 14.4394C20.121 14.5525 19.984 14.6534 19.8387 14.7407C18.538 15.4673 17.1984 16.1192 15.8263 16.6933C16.0769 16.8257 16.3569 16.8896 16.639 16.8787C16.8308 16.8777 17.0217 16.8523 17.2073 16.8034C17.7131 16.6759 20.5605 16.0328 21.9926 14.0627C22.1891 13.8451 22.3355 13.5854 22.4211 13.3027C22.5066 13.0201 22.5292 12.7215 22.4871 12.4288C22.4059 12.1951 22.2687 11.9859 22.0881 11.8199C21.9075 11.654 21.6891 11.5366 21.4527 11.4785C21.3616 11.4473 21.2686 11.4222 21.1743 11.4032H21.1061C21.0216 11.386 20.9362 11.3743 20.8503 11.3685H20.7764C20.6666 11.3627 20.5566 11.3627 20.4468 11.3685C20.3218 11.3685 20.2024 11.3685 20.0774 11.3685C18.6857 11.5479 17.3059 11.813 15.9456 12.1623L15.7865 12.2028C15.7514 12.2143 15.7136 12.2143 15.6785 12.2028Z" fill="white"/>
<path d="M23.9704 13.3848C23.8538 12.9255 23.7076 12.4745 23.5328 12.0348C23.1748 10.876 21.9642 10.1575 20.4127 10.1575C20.2536 10.1575 20.0944 10.1575 19.9353 10.1575C18.5215 10.3409 17.1206 10.6157 15.741 10.9802C15.7375 10.8659 15.728 10.7518 15.7126 10.6384C15.6959 10.5347 15.6732 10.4322 15.6444 10.3313V10.2096C15.6277 10.1155 15.605 10.0226 15.5762 9.9315C15.5267 9.81288 15.4678 9.69855 15.4 9.58965V9.5375C15.3701 9.45463 15.336 9.3734 15.2977 9.29415C15.2246 9.15268 15.141 9.01709 15.0477 8.88856C15.0069 8.81783 14.9613 8.75007 14.9113 8.68576C14.8061 8.55791 14.6922 8.43786 14.5703 8.32652C14.522 8.27516 14.4708 8.22679 14.4168 8.18167C14.2824 8.07907 14.1398 7.98798 13.9906 7.90934C13.9295 7.86862 13.8648 7.83371 13.7974 7.80505C13.6453 7.7408 13.4872 7.69227 13.3257 7.66019C13.2659 7.64135 13.2052 7.62588 13.1438 7.61384L10.8705 7.13872C10.7909 7.04601 10.717 6.96489 10.6375 6.88378L10.5806 6.82583C10.0935 6.35951 9.48985 6.03879 8.83587 5.89877C8.48919 5.82345 5.27813 5.10497 4.55636 5.00647C4.42009 4.99784 4.28343 4.99784 4.14716 5.00647C2.14665 4.95432 0.396199 6.90116 0.0552019 9.48535C-0.285795 12.0695 0.981576 14.4567 3.06734 14.9377C3.06734 14.9377 5.73848 15.546 6.96038 15.801C7.09648 15.8386 7.23516 15.8657 7.37526 15.8821H7.43778C7.55713 15.8821 7.67648 15.8821 7.79583 15.8821C8.39679 15.874 8.98498 15.7041 9.50081 15.3896L11.9617 15.8937H12.0981C12.3384 16.058 12.6092 16.1704 12.8937 16.224C12.9496 16.3728 13.0349 16.5082 13.1445 16.6219C13.254 16.7355 13.3853 16.8249 13.5302 16.8845C13.6655 16.9412 13.8103 16.9707 13.9565 16.9714C14.1278 16.9713 14.2968 16.9316 14.4509 16.8555L14.6555 16.757C14.6674 16.8597 14.6903 16.9607 14.7237 17.0583L15.0818 18.0549C15.1684 18.2945 15.3303 18.4982 15.5421 18.6343C15.9729 18.884 16.4619 19.0101 16.9573 18.9994C17.2467 18.9995 17.535 18.9625 17.8154 18.8893H17.8666C20.964 18.1302 22.5041 16.7454 23.243 15.7199C23.6884 15.1608 23.9526 14.4744 23.9988 13.7556C24.0035 13.6179 23.994 13.48 23.9704 13.3443V13.3848ZM22.8622 13.7556C22.8255 14.2397 22.6406 14.6998 22.3336 15.0709C21.6997 15.8911 20.8808 16.5431 19.9467 16.9714C19.1739 17.3416 18.364 17.6253 17.5313 17.8174C17.3452 17.8643 17.1546 17.8896 16.9629 17.8927C16.6801 17.9043 16.3995 17.8383 16.1502 17.7015L16.0423 17.406C16.2281 17.4535 16.419 17.4768 16.6106 17.4755C16.8522 17.4754 17.0927 17.4442 17.3267 17.3828H17.3835C20.3161 16.6643 21.7483 15.3838 22.4359 14.4336C22.6076 14.2053 22.7507 13.9562 22.8622 13.6919C22.8642 13.7131 22.8642 13.7345 22.8622 13.7556ZM18.4633 13.7556C17.0027 14.3698 13.9565 15.8589 13.9565 15.8589L13.8258 15.4881C13.8086 15.4583 13.7876 15.4311 13.7633 15.407C13.7917 15.407 13.8201 15.407 13.8485 15.407C13.8769 15.407 16.8948 13.9179 18.3269 13.3211C18.758 13.1192 19.2229 13.0032 19.6966 12.9792C20.0831 12.9792 20.2252 13.1009 20.2649 13.1415C20.286 13.1745 20.3004 13.2115 20.3072 13.2504C20.3141 13.2892 20.3132 13.329 20.3047 13.3674C20.3047 13.3674 20.3047 13.3964 20.3047 13.408H20.066C19.6791 13.4145 19.2955 13.4829 18.9294 13.6108C18.81 13.6456 18.6281 13.6861 18.4633 13.7556ZM12.8483 15.042L12.7403 14.9782L12.655 14.9203L12.5016 14.7638C12.4554 14.7107 12.4154 14.6524 12.3822 14.59L12.297 14.422L12.8653 14.7175L12.9562 14.758L13.0642 15.0651C13.0807 15.0874 13.0959 15.1106 13.1097 15.1347L12.9221 15.0767L12.8483 15.042ZM20.0433 11.3279C20.1683 11.3279 20.2877 11.3279 20.4127 11.3279C20.5225 11.3221 20.6325 11.3221 20.7423 11.3279H20.8162C20.9021 11.3338 20.9875 11.3454 21.072 11.3627H21.1402C21.2345 11.3816 21.3275 11.4068 21.4186 11.438C21.655 11.4961 21.8734 11.6134 22.054 11.7794C22.2346 11.9453 22.3718 12.1546 22.453 12.3882C22.4951 12.6809 22.4725 12.9795 22.387 13.2622C22.3014 13.5449 22.1551 13.8045 21.9585 14.0222C20.5264 15.9922 17.679 16.6353 17.1732 16.7628C16.9876 16.8118 16.7967 16.8371 16.6049 16.8381C16.3228 16.8491 16.0428 16.7852 15.7922 16.6527C17.1643 16.0786 18.5039 15.4267 19.8046 14.7001C19.9499 14.6128 20.0869 14.512 20.2138 14.3988C20.243 14.3768 20.2697 14.3515 20.2934 14.3235C20.3714 14.2526 20.4454 14.1771 20.515 14.0975C20.5269 14.0773 20.5402 14.0579 20.5548 14.0396C20.6154 13.9626 20.6705 13.8813 20.7196 13.7962C20.7196 13.7962 20.7196 13.7962 20.7196 13.7672C20.8215 13.6014 20.8717 13.408 20.8636 13.2125C20.8555 13.017 20.7894 12.8286 20.6741 12.6721C20.5438 12.5461 20.3889 12.4495 20.2195 12.3886C20.0501 12.3277 19.87 12.3039 19.6909 12.3187C19.1431 12.3403 18.6046 12.4702 18.1053 12.7011C16.6731 13.3674 13.6951 14.8044 13.6098 14.8565C13.5985 14.7318 13.5613 14.6109 13.5005 14.502C13.4397 14.3931 13.3569 14.2986 13.2575 14.225C13.1608 14.1728 13.0358 14.1207 12.8937 14.0627C12.5819 13.9804 12.2928 13.8264 12.0485 13.6125C11.8042 13.3985 11.6111 13.1304 11.4843 12.8286C11.4727 12.7983 11.4553 12.7708 11.4331 12.7475C11.3411 12.3823 11.3218 12.0021 11.3763 11.6292C11.4142 11.3555 11.4888 11.0884 11.5979 10.8354L11.8935 11.3685C11.8613 11.4704 11.8385 11.5751 11.8253 11.6813C11.7698 12.039 11.8396 12.4052 12.0225 12.7157C12.2055 13.0261 12.4897 13.2609 12.8255 13.379C13.3939 13.5702 14.0702 13.182 13.9622 12.5621C13.9167 12.226 13.553 12.0753 13.3257 11.4032C13.2177 11.1019 13.0244 10.6326 12.6721 10.592C12.5785 10.5866 12.485 10.6036 12.3991 10.6419C12.3131 10.6802 12.2373 10.7385 12.1776 10.8122L11.9901 10.2096C12.0775 10.1022 12.1857 10.0143 12.3079 9.95154C12.4302 9.88873 12.5638 9.85232 12.7005 9.84459H12.7801C13.1722 9.89095 13.4734 10.2618 13.6155 10.789V10.8354C13.8997 11.774 14.4396 12.2492 15.2239 12.2492C15.3269 12.2455 15.4295 12.2339 15.5308 12.2144H15.6558C15.6827 12.2089 15.708 12.1969 15.7297 12.1796L15.8888 12.1391C17.2562 11.783 18.6436 11.5121 20.0433 11.3279ZM10.3817 11.5017C10.5977 9.91992 11.615 8.72632 12.7062 8.72052H12.8824C12.9278 8.72052 12.9676 8.72052 13.0074 8.75529C13.1062 8.77358 13.2032 8.80072 13.2972 8.83641C13.3198 8.84449 13.3409 8.85623 13.3598 8.87117C13.4489 8.91642 13.5344 8.96873 13.6155 9.02762H13.6439C13.6652 9.05222 13.688 9.07544 13.7121 9.09715C13.7859 9.16076 13.8543 9.23053 13.9167 9.30574L13.9565 9.35209L14.0247 9.46797V9.50274C14.0855 9.58034 14.1388 9.66378 14.1838 9.75189C14.1838 9.78086 14.2122 9.81562 14.2236 9.85039L14.2577 9.9373C14.2975 10.0358 14.343 10.1227 14.3771 10.227C14.4112 10.3313 14.4112 10.3834 14.4282 10.4646C14.455 10.5577 14.4759 10.6526 14.4907 10.7485C14.4907 10.7485 14.4907 10.7485 14.4907 10.7832C14.4907 10.9165 14.4907 11.0556 14.5191 11.1888C14.522 11.2351 14.522 11.2816 14.5191 11.3279V11.3627H14.4623C14.2659 11.1539 14.1268 10.8961 14.0588 10.6152C13.989 10.322 13.8656 10.0448 13.6951 9.79824C13.5843 9.64043 13.4429 9.50755 13.2796 9.40786C13.1164 9.30818 12.9347 9.24383 12.746 9.21882H12.6039C11.6889 9.21882 10.8989 10.1749 10.7057 11.4959C10.5739 12.2377 10.7309 13.0025 11.1433 13.6282L11.6661 14.6364C10.8136 14.3582 10.2055 13.0198 10.4101 11.5075L10.3817 11.5017ZM5.26677 10.5631C5.53956 8.55249 6.86377 7.04022 8.28459 7.04022C8.36405 7.03453 8.44382 7.03453 8.52328 7.04022C8.80042 7.07454 9.06751 7.16728 9.30758 7.31254L9.47239 7.42843L8.75062 7.27199C8.66926 7.26603 8.58759 7.26603 8.50624 7.27199C7.11383 7.27199 5.87488 8.67997 5.61913 10.5457C5.44893 11.6032 5.69616 12.6864 6.30681 13.5586C6.48108 13.8044 6.70234 14.0118 6.95726 14.1681C7.21218 14.3244 7.49549 14.4266 7.79014 14.4683L8.01179 14.5147L8.49487 14.619C8.26473 14.7016 8.02275 14.7446 7.77878 14.7465C7.7031 14.7522 7.62712 14.7522 7.55144 14.7465L7.21613 14.6769C5.88056 14.2713 5.0508 12.5331 5.31792 10.5689L5.26677 10.5631ZM4.69844 10.4819C4.59083 11.1209 4.60772 11.7752 4.74814 12.4075C4.88856 13.0398 5.14976 13.6377 5.51683 14.167C5.56798 14.2308 5.62481 14.2771 5.67596 14.3351L3.26625 13.802C1.89658 13.4775 0.873594 11.7683 1.19186 9.64759C1.44192 7.64861 2.73203 6.11315 4.11874 6.11315L4.37449 6.11315C4.78369 6.17109 6.15904 6.4666 7.21613 6.69257C6.52797 7.06566 5.94231 7.60836 5.51249 8.27123C5.08268 8.9341 4.82237 9.69607 4.75527 10.4877L4.69844 10.4819ZM7.80719 13.8889C6.67054 13.7499 5.90329 12.2897 6.13062 10.621C6.39774 9.045 7.44346 7.8514 8.50624 7.8514H8.6881L10.9614 8.32073L11.49 8.43082H11.6207C11.1279 8.75842 10.7133 9.19441 10.4074 9.70678C10.1016 10.2191 9.91217 10.7949 9.85317 11.3916C9.67798 12.4442 9.91691 13.5247 10.5181 14.3988L10.2112 14.3351C9.09161 14.1554 7.86402 13.9005 7.86402 13.8947L7.80719 13.8889Z" fill="#082F49"/>
</svg>
