<svg width="48" height="48" viewBox="0 0 48 48" fill="none" xmlns="http://www.w3.org/2000/svg">
<g clip-path="url(#clip0_500_3676)">
<path d="M4.15888 19.33C4.28845 19.6137 4.46417 19.8738 4.67888 20.1L15.9389 32.19L15.6489 32.31C15.4248 32.4077 15.2213 32.5468 15.0489 32.72C14.2391 33.4022 13.7116 34.3609 13.5689 35.41C13.5378 35.9262 13.5378 36.4438 13.5689 36.96C13.5962 37.7229 13.809 38.4678 14.1889 39.13V39.2L14.6489 39.94V40.14C14.6987 40.6084 14.9068 41.0458 15.2389 41.38L18.0089 44.06C18.3805 44.4234 18.8791 44.6279 19.3989 44.63H19.6589L20.0089 44.77C20.2417 44.8605 20.4891 44.908 20.7389 44.91C21.0178 44.9104 21.2937 44.8525 21.5489 44.74L24.1689 43.57L24.9789 44.42C25.1775 44.6178 25.4154 44.7716 25.6772 44.8715C25.9391 44.9715 26.219 45.0152 26.4989 45C26.7775 44.9976 27.0528 44.9398 27.3089 44.83L40.3889 39.04C40.673 38.9143 40.924 38.7242 41.1219 38.4847C41.3198 38.2451 41.4591 37.9628 41.5289 37.66L41.6389 37.19C41.719 36.8615 41.719 36.5185 41.6389 36.19C41.8258 36.0515 41.9881 35.8825 42.1189 35.69L42.6989 35.43C43.1429 35.2296 43.4985 34.874 43.6989 34.43L44.0889 33.55L44.4289 32.81C44.4983 32.6567 44.5487 32.4955 44.5789 32.33C44.7564 31.4568 44.7373 30.555 44.5228 29.6901C44.3083 28.8253 43.9039 28.019 43.3389 27.33L42.6289 26.17C42.3448 25.7314 42.0091 25.3285 41.6289 24.97C41.2651 24.6159 40.8625 24.304 40.4289 24.04C40.2657 23.9471 40.0908 23.8764 39.9089 23.83L39.4089 23.7L38.6689 23.26C38.366 23.0802 38.0211 22.9837 37.6689 22.98C37.4017 22.9794 37.1368 23.0304 36.8889 23.13L35.0489 23.91L34.1489 22.91C33.9613 22.7077 33.7338 22.5464 33.4808 22.4363C33.2278 22.3261 32.9548 22.2695 32.6789 22.27C32.5375 22.2718 32.3967 22.2885 32.2589 22.32C32.0239 21.9472 31.6723 21.6625 31.2589 21.51C31.176 21.1888 31.0145 20.8932 30.7889 20.65L21.9989 11.13L22.2089 10.13L22.7889 9.88C23.09 9.74638 23.3534 9.54046 23.5558 9.28052C23.7582 9.02058 23.8932 8.71468 23.9489 8.39L24.1689 7C24.2196 6.70346 24.2028 6.39929 24.1197 6.11015C24.0366 5.821 23.8893 5.55434 23.6889 5.33L22.2189 3.67C22.0351 3.46347 21.8104 3.2973 21.5591 3.18198C21.3078 3.06666 21.0353 3.00469 20.7589 3H19.9189C19.6402 3.00129 19.3646 3.05912 19.1089 3.17L5.72888 9C5.44053 9.12638 5.18609 9.31904 4.98626 9.56231C4.78643 9.80559 4.64685 10.0926 4.57888 10.4C4.57888 10.53 3.82888 13.67 3.52888 15.63L3.38888 16.33C3.2662 16.9512 3.34321 17.5953 3.60888 18.17L4.15888 19.33ZM35.5189 25.83L37.6789 24.92L38.1289 25.18L35.8489 26.18L35.5189 25.83ZM42.6689 31.05C42.6795 31.2499 42.6795 31.4501 42.6689 31.65C42.6689 31.75 42.6689 31.85 42.6689 31.94L41.9189 32.27L41.5389 32.44C41.4989 32.2799 41.4199 32.1322 41.3089 32.01L39.5389 30.09L39.2889 29.82L41.7289 28.75C41.7879 28.7134 41.8446 28.6733 41.8989 28.63C42.4233 29.3256 42.6949 30.1792 42.6689 31.05ZM19.9989 11C19.9989 11.05 19.9989 11.11 19.9989 11.17L7.70888 16.58C7.79888 16.07 7.95888 15.23 8.10888 14.44C8.16836 14.5227 8.23903 14.5967 8.31888 14.66C8.49046 14.7842 8.69705 14.8508 8.90888 14.85C9.047 14.8479 9.1832 14.8173 9.30888 14.76L20.1789 10L19.9989 11ZM21.9989 8L9.99888 13.39L10.0989 12.52L22.0989 7.25L21.9989 8ZM20.7189 5L21.8489 6.26L9.74888 11.56L8.39888 10.3L8.19888 10.11L19.8889 5H20.7189ZM6.52888 10.85L7.46888 10.79L9.06888 12.29L8.89888 13.77L7.48888 12.32C7.48888 12.32 6.77888 16.06 6.65888 16.78C6.625 17.112 6.67187 17.4472 6.79549 17.7571C6.91912 18.067 7.11583 18.3425 7.36888 18.56L16.3089 28.13L16.7589 29.56L17.5289 29.33L17.8189 30.54L18.4389 31.23V31.82V31.9L6.12888 18.73L5.41888 17.32C5.15888 16.8 6.52888 10.85 6.52888 10.85ZM40.8989 27.15L41.2489 27.83L38.4889 29.05L36.5689 27L39.4289 25.74C40.0238 26.0867 40.5277 26.57 40.8989 27.15ZM16.7089 39.94L16.6389 39.28L15.9989 38.28C15.7342 37.867 15.5856 37.3903 15.5689 36.9C15.5689 36.45 15.5689 35.9 15.5689 35.55C15.71 35.0013 16.026 34.5134 16.4689 34.16C16.4689 34.16 17.6289 34.76 18.4689 35.33C18.529 35.3911 18.5961 35.4448 18.6689 35.49C18.7702 35.5534 18.8671 35.6235 18.9589 35.7L19.0889 35.81C19.7143 36.579 20.2698 37.4023 20.7489 38.27C21.2299 39.0079 21.4869 39.8692 21.4889 40.75L20.9989 40.22C20.9989 40.11 20.7789 39.37 20.7389 39.22C20.3389 38.29 19.6589 37.69 19.0889 37.69C18.9909 37.687 18.8939 37.7112 18.8089 37.76L18.5989 37.9C18.5884 37.5922 18.5276 37.2882 18.4189 37L18.3189 36.72C17.9189 35.8 17.2489 35.18 16.6889 35.18L16.4289 35.25C15.8289 35.53 15.7289 36.65 16.1989 37.75C16.4153 38.3037 16.7956 38.7782 17.2889 39.11C17.4565 39.2073 17.6453 39.2622 17.8389 39.27C17.9418 39.2695 18.0437 39.2491 18.1389 39.21L18.3489 39.05C18.3652 39.4577 18.4602 39.8584 18.6289 40.23C19.0289 41.16 19.7089 41.77 20.2689 41.77H20.4289L21.0389 42.27L20.8989 42.86L19.8989 42.48L19.5289 42.6L16.7089 39.94ZM29.8589 27.54C30.7551 28.3872 31.4696 29.4079 31.9589 30.54L31.4589 33.86L29.1189 31L27.0589 29.3L27.6689 26C27.6689 26 28.5089 26.05 29.8589 27.54ZM32.9389 30.54L33.7689 30.19L33.3289 33.1L32.5389 33.42L32.9989 30.67C32.9843 30.618 32.9642 30.5677 32.9389 30.52V30.54ZM31.7289 26.79C32.4267 27.5227 33.0405 28.331 33.5589 29.2L32.6189 29.59C32.0625 28.6103 31.3911 27.7005 30.6189 26.88C30.1503 26.3366 29.6045 25.8649 28.9989 25.48L29.5689 25.24C29.5689 25.24 30.3789 25.28 31.7289 26.77V26.79ZM23.4989 35.64L21.1089 36.7L20.6589 36C20.2833 35.4105 19.768 34.9228 19.1589 34.58L21.5189 33.58L23.4989 35.64ZM26.9989 39.79L26.6589 39.43C26.6689 39.2535 26.6689 39.0765 26.6589 38.9L26.8389 39.1C26.8977 39.1554 26.9613 39.2056 27.0289 39.25L26.9989 39.79ZM18.3789 33.32L19.3789 32.89L19.6389 32.78C19.8877 32.7892 20.1323 32.847 20.3589 32.95L18.1589 33.95L17.6789 33.67L18.3789 33.32ZM22.5289 40.79C22.5289 40.79 22.5289 40.79 22.5289 40.73C22.5219 39.6631 22.2058 38.621 21.6189 37.73L21.5589 37.63L24.2589 36.44L24.3789 36.54L24.8889 37.08C25.4084 37.7508 25.6772 38.582 25.6489 39.43L25.0589 39.69L22.5289 40.79ZM39.1589 35.14L27.9389 40.06V39.3L40.4089 33.8V34.21V34.57L39.1589 35.14ZM37.1589 29.08L38.0889 30.08L40.4989 32.69L27.4989 38.41L25.5989 36.41C25.4255 36.1793 25.2277 35.9681 25.0089 35.78L21.7389 32.35L20.9989 31.6L19.6989 30.2L19.4989 30L26.4989 27L26.0989 29.16C26.0674 29.3352 26.0832 29.5156 26.1448 29.6826C26.2063 29.8496 26.3113 29.9971 26.4489 30.11L28.4489 31.75L30.7289 34.53C30.8239 34.645 30.9435 34.7372 31.0789 34.8C31.2107 34.8601 31.354 34.8908 31.4989 34.89H31.7689H31.8389L33.7089 34C33.8695 33.9341 34.0102 33.8276 34.1172 33.6908C34.2242 33.554 34.2937 33.3918 34.3189 33.22L34.8189 29.9C34.8441 29.7645 34.8441 29.6255 34.8189 29.49C34.2867 28.2072 33.4932 27.0492 32.4889 26.09C32.0957 25.6472 31.6528 25.2513 31.1689 24.91L32.6489 24.27H32.7089L32.7889 24.36L33.3089 24.92L34.5589 26.27L37.1589 29.08ZM25.2189 41.14L25.5489 41.49L26.0589 42.49V42.56L25.1989 41.66L25.2189 41.14ZM39.5789 37.23L26.9989 42.78V42.45C27.0086 42.3538 26.9912 42.2569 26.9489 42.17L26.7489 41.78L39.4489 36.19L39.6189 36.76L39.5789 37.23ZM29.9989 24.32C29.8622 24.2799 29.7212 24.2564 29.5789 24.25C29.4482 24.2516 29.3191 24.2788 29.1989 24.33L27.3289 25.1C27.2428 25.1353 27.162 25.1824 27.0889 25.24L27.0289 25.29C27.0289 25.35 26.9189 25.41 26.8789 25.47L26.8289 25.55C26.7962 25.621 26.7695 25.6946 26.7489 25.77L19.0989 29.07C19.0096 29.1079 18.9282 29.1622 18.8589 29.23C18.7757 29.3127 18.7049 29.407 18.6489 29.51L18.5489 29.06C18.526 28.9729 18.4924 28.8889 18.4489 28.81L30.6489 23.42L30.7289 24L29.9989 24.32ZM17.3789 28.2L17.2589 27.83C17.2116 27.6899 17.1368 27.5608 17.0389 27.45L8.10888 17.88L7.86888 17.6L20.2489 12.17L20.3389 12.31L29.3389 21.98L29.4589 22.88L17.3789 28.2Z" fill="#212C3A"/>
<path d="M26.8203 41.7795L27.0203 42.1695C27.0627 42.2563 27.08 42.3533 27.0703 42.4495V42.7795L39.6203 37.2295L39.7303 36.7595L39.5603 36.1895L26.8203 41.7795Z" fill="white"/>
<path d="M26.0614 42.4806L25.5514 41.4906L25.2214 41.1406L25.1914 41.6506L26.0514 42.5506L26.0614 42.4806Z" fill="white"/>
<path d="M20.3411 12.3099L20.2511 12.1699L7.87109 17.5999L8.11109 17.8799L17.0011 27.4499C17.099 27.5607 17.1738 27.6899 17.2211 27.8299L17.3411 28.1999L29.3411 22.8799L29.3011 21.9999L20.3411 12.3099Z" fill="white"/>
<path d="M8.91094 14.85C8.69911 14.8508 8.49252 14.7842 8.32094 14.66C8.24109 14.5967 8.17041 14.5227 8.11094 14.44C7.96094 15.23 7.80094 16.07 7.71094 16.58L19.9409 11.21C19.9409 11.15 19.9409 11.09 19.9409 11.04L20.1809 10L9.31094 14.76C9.18525 14.8173 9.04906 14.8479 8.91094 14.85Z" fill="white"/>
<path d="M18.3984 28.8407C18.442 28.9196 18.4756 29.0036 18.4984 29.0907L18.5984 29.5407C18.6545 29.4377 18.7252 29.3434 18.8084 29.2607C18.8778 29.1929 18.9592 29.1387 19.0484 29.1007L26.6584 25.7907C26.679 25.7153 26.7058 25.6417 26.7384 25.5707L26.7884 25.4907C26.7884 25.4307 26.8884 25.3707 26.9384 25.3107L26.9984 25.2607C27.0715 25.2031 27.1523 25.156 27.2384 25.1207L29.1084 24.3507C29.2287 24.2995 29.3578 24.2723 29.4884 24.2707C29.6307 24.2771 29.7717 24.3006 29.9084 24.3407L30.5884 24.0507L30.5084 23.4707L18.3984 28.8407Z" fill="white"/>
<path d="M10.0492 12.52L9.94922 13.39L21.9492 8.08L22.0892 7.25L10.0492 12.52Z" fill="white"/>
<path d="M8.19922 10.1105L8.39922 10.3005L9.74922 11.5605L21.8492 6.26047L20.7192 5.00047L19.8892 4.98047L8.19922 10.1105Z" fill="white"/>
<path d="M5.41954 17.3191L6.12954 18.7291L18.4095 31.8991V31.8191V31.2291L17.7895 30.5391L17.4995 29.3291L16.7295 29.5591L16.2795 28.1291L7.36954 18.5591C7.11649 18.3416 6.91978 18.0661 6.79615 17.7562C6.67253 17.4462 6.62566 17.111 6.65954 16.7791C6.77954 16.0591 7.48954 12.3191 7.48954 12.3191L8.89954 13.7691L9.06954 12.2891L7.46954 10.7891L6.52954 10.8491C6.52954 10.8491 5.15954 16.7991 5.41954 17.3191Z" fill="white"/>
<path d="M39.2109 29.8191L39.4609 30.0891L41.2309 31.9991C41.3419 32.1213 41.4209 32.269 41.4609 32.4291L41.8409 32.2591L42.5909 31.9291C42.5909 31.8391 42.5909 31.7391 42.5909 31.6391C42.6015 31.4393 42.6015 31.239 42.5909 31.0391C42.5942 30.1588 42.294 29.3041 41.7409 28.6191C41.6867 28.6624 41.6299 28.7025 41.5709 28.7391L39.2109 29.8191Z" fill="white"/>
<path d="M37.6795 24.9102L35.5195 25.8302L35.8495 26.1802L38.1295 25.1802L37.6795 24.9102Z" fill="white"/>
<path d="M18.0994 33.9102L20.2994 32.9102C20.0727 32.8072 19.8282 32.7494 19.5794 32.7402L19.3194 32.8502L18.3194 33.2802L17.6094 33.5902L18.0994 33.9102Z" fill="white"/>
<path d="M26.6094 38.9004C26.6194 39.0769 26.6194 39.2539 26.6094 39.4304L26.9494 39.7904V39.2504C26.8818 39.206 26.8182 39.1558 26.7594 39.1004L26.6094 38.9004Z" fill="white"/>
<path d="M25.6095 39.4099C25.6378 38.562 25.369 37.7307 24.8495 37.0599L24.3395 36.5199L24.2195 36.4199L21.5195 37.6099L21.5795 37.7099C22.1664 38.601 22.4825 39.643 22.4895 40.7099C22.4895 40.7099 22.4895 40.7099 22.4895 40.7699L24.9995 39.6699L25.6095 39.4099Z" fill="white"/>
<path d="M40.4214 34.2108L40.4414 33.8008L27.9814 39.3008L27.9414 40.0608L39.1114 35.1408L40.4114 34.5708L40.4214 34.2108Z" fill="white"/>
<path d="M19.8394 42.5104L20.8394 42.8904L20.9994 42.3004L20.3894 41.8004H20.2294C19.6694 41.8004 18.9894 41.1904 18.5894 40.2604C18.4207 39.8888 18.3256 39.4881 18.3094 39.0804L18.0994 39.2404C18.0042 39.2795 17.9023 39.2999 17.7994 39.3004C17.6057 39.2926 17.4169 39.2377 17.2494 39.1404C16.7561 38.8086 16.3758 38.3341 16.1594 37.7804C15.6894 36.6804 15.7894 35.5604 16.3894 35.2804L16.6494 35.2104C17.2094 35.2104 17.8794 35.8304 18.2794 36.7504L18.3794 37.0304C18.4881 37.3185 18.5489 37.6226 18.5594 37.9304L18.7694 37.7904C18.8544 37.7416 18.9514 37.7174 19.0494 37.7204C19.6194 37.7204 20.2994 38.3204 20.6994 39.2504C20.6994 39.3604 20.9294 40.1004 20.9594 40.2504L21.4794 40.7704C21.4774 39.8896 21.2204 39.0282 20.7394 38.2904C20.2603 37.4226 19.7048 36.5994 19.0794 35.8304L18.9994 35.6904C18.9076 35.6139 18.8107 35.5437 18.7094 35.4804C18.6366 35.4352 18.5695 35.3815 18.5094 35.3204C17.6594 34.7504 16.5094 34.1504 16.5094 34.1504C16.0664 34.5037 15.7505 34.9916 15.6094 35.5404C15.6094 35.8904 15.6094 36.4404 15.6094 36.8904C15.6141 37.3769 15.7487 37.8534 15.9994 38.2704L16.6394 39.2704L16.7094 39.9304L19.4694 42.6204L19.8394 42.5104Z" fill="white"/>
<path d="M38.4903 29.0492L41.2503 27.8292L40.9003 27.1492C40.5341 26.5547 40.0298 26.0573 39.4303 25.6992L36.5703 26.9992L38.4903 29.0492Z" fill="white"/>
<path d="M19.1602 34.6008C19.767 34.9379 20.282 35.4186 20.6602 36.0008L21.1102 36.6808L23.5002 35.6208L21.5002 33.5508L19.1602 34.6008Z" fill="white"/>
<path d="M34.5409 26.2402L33.2909 24.8902L32.7709 24.3302L32.6909 24.2402H32.6309L31.1509 24.8802C31.6348 25.2215 32.0778 25.6175 32.4709 26.0602C33.4753 27.0195 34.2688 28.1774 34.8009 29.4602C34.8262 29.5957 34.8262 29.7347 34.8009 29.8702L34.3009 33.1902C34.2757 33.362 34.2062 33.5243 34.0993 33.661C33.9923 33.7978 33.8516 33.9044 33.6909 33.9702L31.8209 34.7402H31.7509H31.4809C31.3361 34.741 31.1928 34.7103 31.0609 34.6502C30.9256 34.5875 30.806 34.4952 30.7109 34.3802L28.4109 31.7002L26.4109 30.0602C26.2733 29.9474 26.1684 29.7998 26.1068 29.6328C26.0453 29.4658 26.0295 29.2854 26.0609 29.1102L26.4609 26.9502L19.4609 29.9502L19.6609 30.1602L21.0009 31.6002L21.7309 32.3602L25.0009 35.7902C25.2198 35.9783 25.4176 36.1896 25.5909 36.4202L27.4909 38.4202L40.4909 32.7002L38.0809 30.0902L37.1509 29.0902L34.5409 26.2402Z" fill="white"/>
<path d="M32.5391 33.3999L33.3291 33.0799L33.7691 30.1699L32.9391 30.5199C32.944 30.5698 32.944 30.62 32.9391 30.6699L32.5391 33.3999Z" fill="white"/>
<path d="M29.5388 25.2402L28.9688 25.4802C29.5765 25.8582 30.1257 26.3231 30.5988 26.8602C31.3709 27.6807 32.0424 28.5905 32.5987 29.5702L33.5388 29.1802C33.0204 28.3113 32.4066 27.5029 31.7087 26.7702C30.3787 25.2802 29.5388 25.2402 29.5388 25.2402Z" fill="white"/>
<path d="M27.6686 26L27.0586 29.28L29.1186 31L31.4586 33.85L31.9586 30.53C31.4694 29.3979 30.7549 28.3772 29.8586 27.53C28.5086 26.05 27.6686 26 27.6686 26Z" fill="white"/>
</g>
<defs>
<clipPath id="clip0_500_3676">
<rect width="48" height="48" fill="white"/>
</clipPath>
</defs>
</svg>
