<svg width="24" height="24" viewBox="0 0 24 24" fill="none" xmlns="http://www.w3.org/2000/svg">
<path d="M2.69351 6.84191C2.55737 7.10847 2.37964 7.4394 2.28782 7.71405C1.92371 8.80391 1.77847 10.2556 2.62999 11.1547C2.82994 11.3807 3.11292 11.4855 3.35691 11.6485C3.8872 12.0026 4.467 12.2892 5.00999 12.6165C5.80838 13.0978 6.61442 13.5927 7.42897 14.043C7.86152 14.2821 8.69874 14.1992 9.13302 13.9828C9.19741 13.9511 9.30583 13.93 9.35983 13.8765C9.41628 13.8113 9.46493 13.899 9.53163 13.9185C10.3302 14.3682 11.1174 14.8476 11.9064 15.3132L16.3687 17.9415C17.2002 18.4277 18.0427 18.966 18.8939 19.409C19.2935 19.6008 19.7819 19.4566 20.1562 19.2783C21.4985 18.6393 22.6129 16.2893 21.6189 14.9586C21.4618 14.7483 20.5165 14.2337 20.2204 14.0599L18.319 12.9474C18.117 12.8304 17.9284 12.6977 17.7258 12.5785L14.9049 10.9194C14.19 10.4942 13.448 10.0954 12.7445 9.64476C12.5712 9.53377 12.2212 9.36459 12.0546 9.25439C12.0087 9.22406 11.9697 8.80789 11.9518 8.71226C11.8794 8.33152 11.6497 7.73011 11.3349 7.48562C10.8645 7.12026 10.2562 6.81747 9.74502 6.51036L7.94424 5.44648C7.46622 5.15902 6.92135 4.80909 6.41244 4.58824C6.22302 4.50608 5.83263 4.48394 5.62632 4.51087C4.83024 4.61483 4.06781 5.1294 3.51399 5.70415C3.35128 5.87297 3.16533 6.12631 3.01243 6.31088C2.93259 6.44793 2.78302 6.72055 2.69351 6.84191Z" fill="#713F12"/>
<path d="M11.579 9.30479C11.1828 9.1471 10.9007 9.13904 10.5014 9.31596C9.33515 9.8325 8.34907 11.6656 8.86564 12.923C8.96685 13.1692 9.18168 13.3479 9.39448 13.4939C10.2828 14.0264 11.1756 14.5511 12.0728 15.0679L14.8886 16.7289C15.8394 17.2934 16.7857 17.8737 17.7495 18.4117C17.9825 18.5417 18.2181 18.7142 18.4501 18.8319C18.5985 18.908 18.7434 19.0073 18.8913 19.0884C19.154 19.2322 19.5184 19.2111 19.7975 19.1204C20.4983 18.8935 21.0493 18.2366 21.3724 17.5872C21.7062 16.916 21.9296 15.9086 21.4742 15.2407C21.326 15.0232 21.1193 14.9294 20.8965 14.8149C20.865 14.7858 20.7906 14.7437 20.7512 14.7198C20.4616 14.5258 20.2655 14.4308 19.9795 14.2581C19.3197 13.8565 18.6544 13.4643 17.9838 13.0818L15.0545 11.3609C14.8308 11.2311 14.6144 11.0841 14.3917 10.9521L12.7117 9.96934C12.3896 9.77767 11.9004 9.46771 11.579 9.30479Z" fill="#F5F5F5"/>
<path d="M20.8965 14.8149C20.865 14.7858 20.7906 14.7437 20.7512 14.7198C20.7301 14.7509 20.7274 14.7687 20.6857 14.7718C19.3166 14.8713 18.3354 16.4663 18.2392 17.7572C18.2167 18.0599 18.3213 18.4623 18.4577 18.7285C18.4578 18.7611 18.4613 18.8027 18.4501 18.8319C18.5985 18.908 18.7434 19.0073 18.8913 19.0884C19.154 19.2322 19.5184 19.2111 19.7975 19.1204C20.4983 18.8935 21.0493 18.2366 21.3724 17.5872C21.7062 16.916 21.9296 15.9086 21.4742 15.2407C21.326 15.0232 21.1193 14.9294 20.8965 14.8149Z" fill="#F5F5F5"/>
<path d="M20.8965 14.8149C20.865 14.7858 20.7906 14.7437 20.7512 14.7198C20.7301 14.7509 20.7274 14.7687 20.6857 14.7718C19.3166 14.8713 18.3354 16.4663 18.2392 17.7572C18.2167 18.0599 18.3213 18.4623 18.4577 18.7285L18.4672 18.7266C18.4749 18.6917 18.4036 18.5101 18.384 18.4499C18.1525 17.74 18.3738 16.9591 18.7211 16.3173C19.0738 15.6653 19.5984 15.0818 20.3321 14.8664C20.5362 14.8065 20.7641 14.8559 20.8837 14.819L20.8965 14.8149Z" fill="#737373"/>
<path d="M20.8287 15.1437C20.7591 15.1256 20.7326 15.1226 20.6638 15.1158C20.2055 15.0709 19.8818 15.2392 19.5368 15.5371C19.1014 15.9133 18.8208 16.3833 18.6389 16.9317C18.5917 17.074 18.5405 17.2136 18.5296 17.3657C18.5097 17.6175 18.4921 17.9704 18.5557 18.2145C18.5805 18.1799 18.5818 18.1705 18.5926 18.1288C18.5638 17.9655 18.5759 17.5354 18.5825 17.3612C18.6326 16.8374 19.0339 16.0861 19.3986 15.7248C19.629 15.4964 19.981 15.2532 20.301 15.1707C20.4098 15.1426 20.7062 15.1453 20.8287 15.1437Z" fill="#737373"/>
<path d="M21.3007 15.4876C21.2938 15.5253 21.3322 15.6203 21.3488 15.6623C21.4863 16.0111 21.4561 16.3251 21.448 16.6959C21.4454 16.6323 21.475 16.5524 21.4828 16.4847C21.5193 16.1688 21.5044 15.7488 21.3007 15.4876Z" fill="#E5E5E5"/>
<path d="M18.6121 18.3683C18.69 18.5607 18.867 18.7833 19.0584 18.858C19.0859 18.8687 19.2151 18.8873 19.2409 18.8729C18.9532 18.7971 18.8846 18.7434 18.7387 18.4808C18.7184 18.4443 18.6841 18.3741 18.6534 18.3483L18.6121 18.3683Z" fill="#E5E5E5"/>
<path d="M18.5926 18.1288C18.5818 18.1705 18.5805 18.1799 18.5557 18.2145C18.5655 18.2707 18.589 18.3167 18.6121 18.3683L18.6534 18.3483C18.6148 18.2551 18.6096 18.2267 18.5926 18.1288Z" fill="#404040"/>
<path d="M11.579 9.30479C11.6297 9.30158 11.6797 9.30803 11.7131 9.27936C11.733 9.18315 11.7121 9.07449 11.7017 8.97701C11.6641 8.62169 11.5872 8.31224 11.4005 8.00726C11.157 7.60911 10.8216 7.49258 10.45 7.27195L9.33179 6.59536L7.45782 5.49223C7.18899 5.33421 6.9271 5.16272 6.65784 5.01019C5.95171 4.61008 5.05053 4.83123 4.41933 5.2837C3.34952 6.05137 2.59314 7.3048 2.34496 8.6114C2.21228 9.30987 2.21893 10.0761 2.61292 10.693C2.90268 11.1467 3.38532 11.3435 3.82624 11.6018L5.52812 12.594C5.75709 12.7265 6.55101 13.2594 6.74071 13.3083C6.77926 13.3307 6.89924 13.3836 6.94284 13.3935C7.09703 13.4828 7.23259 13.5929 7.38289 13.6835C7.75941 13.9128 8.21217 13.9733 8.63403 13.8507C8.80381 13.8026 9.30006 13.6401 9.39448 13.4939C9.18168 13.3479 8.96685 13.1692 8.86564 12.923C8.34907 11.6656 9.33515 9.8325 10.5014 9.31596C10.9007 9.13904 11.1828 9.1471 11.579 9.30479Z" fill="#FEFCE8"/>
<path d="M7.0432 9.84806C7.32762 9.4444 7.50708 9.00415 7.85227 8.62119C8.34878 8.07048 9.15366 7.38978 9.91234 7.33981C9.92476 7.31486 9.93703 7.30842 9.96013 7.29431C9.81114 7.25042 9.33225 7.40543 9.18412 7.47621C8.66336 7.72502 8.26576 8.07465 7.87552 8.49803C7.76406 8.61904 7.57998 8.7882 7.49264 8.91975C7.32358 9.1749 7.11063 9.52333 7.00523 9.80544L7.0432 9.84806Z" fill="#CA8A04"/>
<path d="M7.00523 9.80544C6.63289 10.7611 6.32611 11.6851 6.61876 12.7261L6.66568 12.73C6.6329 12.6241 6.6111 12.4588 6.59392 12.3458C6.46211 11.4739 6.71042 10.6418 7.0432 9.84806L7.00523 9.80544Z" fill="#713F12"/>
<path d="M6.61876 12.7261C6.64922 12.9919 6.84336 13.1787 6.86213 13.3092L6.8386 13.3266L6.82705 13.3216C6.79211 13.3068 6.77854 13.2988 6.74071 13.3083C6.77926 13.3307 6.89924 13.3836 6.94284 13.3935C6.9489 13.3808 6.95598 13.366 6.96421 13.349C6.90545 13.1243 6.73714 12.9689 6.66568 12.73L6.61876 12.7261Z" fill="#A16207"/>
<path d="M11.579 9.30479C11.1828 9.1471 10.9007 9.13904 10.5014 9.31596C9.33515 9.8325 8.34907 11.6656 8.86564 12.923C8.96685 13.1692 9.18168 13.3479 9.39448 13.4939M11.579 9.30479C11.9004 9.46771 12.3896 9.77767 12.7117 9.96934L14.3917 10.9521C14.6144 11.0841 14.8308 11.2311 15.0545 11.3609L17.9838 13.0818C18.6544 13.4643 19.3197 13.8565 19.9795 14.2581C20.2655 14.4308 20.4616 14.5258 20.7512 14.7198M11.579 9.30479C11.6297 9.30158 11.6797 9.30803 11.7131 9.27936C11.733 9.18315 11.7121 9.07449 11.7017 8.97701C11.6641 8.62169 11.5872 8.31224 11.4005 8.00726C11.157 7.60911 10.8216 7.49258 10.45 7.27195L9.33179 6.59536L7.45782 5.49223C7.18899 5.33421 6.9271 5.16272 6.65784 5.01019C5.95171 4.61008 5.05053 4.83123 4.41933 5.2837C3.34952 6.05137 2.59314 7.3048 2.34496 8.6114C2.21228 9.30987 2.21893 10.0761 2.61292 10.693C2.90268 11.1467 3.38532 11.3435 3.82624 11.6018L5.52812 12.594C5.75709 12.7265 6.55101 13.2594 6.74071 13.3083M9.39448 13.4939C10.2828 14.0264 11.1756 14.5511 12.0728 15.0679L14.8886 16.7289C15.8394 17.2934 16.7857 17.8737 17.7495 18.4117C17.9825 18.5417 18.2181 18.7142 18.4501 18.8319M9.39448 13.4939C9.30006 13.6401 8.80381 13.8026 8.63403 13.8507C8.21217 13.9733 7.75941 13.9128 7.38289 13.6835C7.23259 13.5929 7.09703 13.4828 6.94284 13.3935M18.4501 18.8319C18.5985 18.908 18.7434 19.0073 18.8913 19.0884C19.154 19.2322 19.5184 19.2111 19.7975 19.1204C20.4983 18.8935 21.0493 18.2366 21.3724 17.5872C21.7062 16.916 21.9296 15.9086 21.4742 15.2407C21.326 15.0232 21.1193 14.9294 20.8965 14.8149M18.4501 18.8319C18.4613 18.8027 18.4578 18.7611 18.4577 18.7285M20.8965 14.8149C20.865 14.7858 20.7906 14.7437 20.7512 14.7198M20.8965 14.8149L20.8837 14.819C20.7641 14.8559 20.5362 14.8065 20.3321 14.8664C19.5984 15.0818 19.0738 15.6653 18.7211 16.3173C18.3738 16.9591 18.1525 17.74 18.384 18.4499C18.4036 18.5101 18.4749 18.6917 18.4672 18.7266L18.4577 18.7285M20.7512 14.7198C20.7301 14.7509 20.7274 14.7687 20.6857 14.7718C19.3166 14.8713 18.3354 16.4663 18.2392 17.7572C18.2167 18.0599 18.3213 18.4623 18.4577 18.7285M18.5557 18.2145C18.4921 17.9704 18.5097 17.6175 18.5296 17.3657C18.5405 17.2136 18.5917 17.074 18.6389 16.9317C18.8208 16.3833 19.1014 15.9133 19.5368 15.5371C19.8818 15.2392 20.2055 15.0709 20.6638 15.1158C20.7326 15.1226 20.7591 15.1256 20.8287 15.1437C20.7062 15.1453 20.4098 15.1426 20.301 15.1707C19.981 15.2532 19.629 15.4964 19.3986 15.7248C19.0339 16.0861 18.6326 16.8374 18.5825 17.3612C18.5759 17.5354 18.5638 17.9655 18.5926 18.1288M18.5557 18.2145C18.5805 18.1799 18.5818 18.1705 18.5926 18.1288M18.5557 18.2145C18.5655 18.2707 18.589 18.3167 18.6121 18.3683M18.5926 18.1288C18.6096 18.2267 18.6148 18.2551 18.6534 18.3483M18.6121 18.3683C18.69 18.5607 18.867 18.7833 19.0584 18.858C19.0859 18.8687 19.2151 18.8873 19.2409 18.8729C18.9532 18.7971 18.8846 18.7434 18.7387 18.4808C18.7184 18.4443 18.6841 18.3741 18.6534 18.3483M18.6121 18.3683L18.6534 18.3483M6.74071 13.3083C6.77926 13.3307 6.89924 13.3836 6.94284 13.3935M6.74071 13.3083C6.77854 13.2988 6.79211 13.3068 6.82705 13.3216L6.8386 13.3266L6.86213 13.3092C6.84336 13.1787 6.64922 12.9919 6.61876 12.7261M6.94284 13.3935C6.9489 13.3808 6.95598 13.366 6.96421 13.349C6.90545 13.1243 6.73714 12.9689 6.66568 12.73M7.0432 9.84806C7.32762 9.4444 7.50708 9.00415 7.85227 8.62119C8.34878 8.07048 9.15366 7.38978 9.91234 7.33981C9.92476 7.31486 9.93703 7.30842 9.96013 7.29431C9.81114 7.25042 9.33225 7.40543 9.18412 7.47621C8.66336 7.72502 8.26576 8.07465 7.87552 8.49803C7.76406 8.61904 7.57998 8.7882 7.49264 8.91975C7.32358 9.1749 7.11063 9.52333 7.00523 9.80544M7.0432 9.84806L7.00523 9.80544M7.0432 9.84806C6.71042 10.6418 6.46211 11.4739 6.59392 12.3458C6.6111 12.4588 6.6329 12.6241 6.66568 12.73M7.00523 9.80544C6.63289 10.7611 6.32611 11.6851 6.61876 12.7261M6.61876 12.7261L6.66568 12.73M2.69351 6.84191C2.55737 7.10847 2.37964 7.4394 2.28782 7.71405C1.92371 8.80391 1.77847 10.2556 2.62999 11.1547C2.82994 11.3807 3.11292 11.4855 3.35691 11.6485C3.8872 12.0026 4.467 12.2892 5.00999 12.6165C5.80838 13.0978 6.61442 13.5927 7.42897 14.043C7.86152 14.2821 8.69874 14.1992 9.13302 13.9828C9.19741 13.9511 9.30583 13.93 9.35983 13.8765C9.41628 13.8113 9.46493 13.899 9.53163 13.9185C10.3302 14.3682 11.1174 14.8476 11.9064 15.3132L16.3687 17.9415C17.2002 18.4277 18.0427 18.966 18.8939 19.409C19.2935 19.6008 19.7819 19.4566 20.1562 19.2783C21.4985 18.6393 22.6129 16.2893 21.6189 14.9586C21.4618 14.7483 20.5165 14.2337 20.2204 14.0599L18.319 12.9474C18.117 12.8304 17.9284 12.6977 17.7258 12.5785L14.9049 10.9194C14.19 10.4942 13.448 10.0954 12.7445 9.64476C12.5712 9.53377 12.2212 9.36459 12.0546 9.25439C12.0087 9.22406 11.9697 8.80789 11.9518 8.71226C11.8794 8.33152 11.6497 7.73011 11.3349 7.48562C10.8645 7.12026 10.2562 6.81747 9.74502 6.51036L7.94424 5.44648C7.46622 5.15902 6.92135 4.80909 6.41244 4.58824C6.22302 4.50608 5.83263 4.48394 5.62632 4.51087C4.83024 4.61483 4.06781 5.1294 3.51399 5.70415C3.35128 5.87297 3.16533 6.12631 3.01243 6.31088C2.93259 6.44793 2.78302 6.72055 2.69351 6.84191ZM21.3007 15.4876C21.2938 15.5253 21.3322 15.6203 21.3488 15.6623C21.4863 16.0111 21.4561 16.3251 21.448 16.6959C21.4454 16.6323 21.475 16.5524 21.4828 16.4847C21.5193 16.1688 21.5044 15.7488 21.3007 15.4876Z" stroke="black" stroke-width="0.5"/>
</svg>
