<svg width="48" height="48" viewBox="0 0 48 48" fill="none" xmlns="http://www.w3.org/2000/svg">
<path d="M46.9102 27L45.9102 23.87C45.7993 23.5359 45.6022 23.237 45.3388 23.0035C45.0755 22.77 44.7551 22.6101 44.4102 22.54L37.6502 21.18V21.08C37.4745 20.7399 37.2049 20.4574 36.8734 20.2659C36.542 20.0745 36.1625 19.9822 35.7802 20H35.5802L35.2002 19.15C35.0323 18.7749 34.7529 18.4607 34.4002 18.25C33.9893 17.9588 33.5033 17.7921 33.0002 17.77H32.7502C32.5824 17.7792 32.4154 17.7992 32.2502 17.83C32.0005 17.8803 31.756 17.9539 31.5202 18.05C31.2723 18.1546 31.0346 18.2818 30.8102 18.43C30.3935 18.6986 30.05 19.0662 29.8102 19.5V19.44C29.6375 19.1112 29.3768 18.8369 29.0571 18.648C28.7374 18.459 28.3714 18.3627 28.0002 18.37H27.8002L27.4202 17.53C27.254 17.1512 26.9745 16.8333 26.6202 16.62C26.1984 16.3423 25.7051 16.1929 25.2002 16.19H25.0002C24.829 16.1986 24.6586 16.2186 24.4902 16.25C24.2402 16.3037 23.9958 16.3807 23.7602 16.48C23.2525 16.6867 22.7954 17.0005 22.4202 17.4C22.2822 17.5602 22.1615 17.7345 22.0602 17.92V17.87C21.8926 17.542 21.6377 17.2667 21.3236 17.0744C21.0095 16.8821 20.6484 16.7802 20.2802 16.78H20.0002L19.6302 15.93C19.4623 15.5549 19.1829 15.2407 18.8302 15.03C18.4113 14.745 17.9168 14.5918 17.4102 14.59H17.1602C16.992 14.5942 16.8246 14.6143 16.6602 14.65C16.4093 14.6956 16.1644 14.7694 15.9302 14.87C15.6982 14.9626 15.477 15.08 15.2702 15.22C14.8481 15.4949 14.5038 15.8737 14.2702 16.32V16.26C14.1026 15.932 13.8477 15.6567 13.5336 15.4644C13.2195 15.2721 12.8584 15.1702 12.4902 15.17H12.2002L11.8302 14.33C11.664 13.9512 11.3845 13.6333 11.0302 13.42C10.6071 13.1464 10.114 13.0005 9.61016 13H9.36016C9.189 13.0086 9.01862 13.0286 8.85016 13.06C8.60046 13.1103 8.35605 13.1839 8.12015 13.28C7.69548 13.4388 7.30927 13.6858 6.98695 14.0047C6.66464 14.3235 6.41352 14.7071 6.25015 15.13C6.05505 15.6455 6.05505 16.2145 6.25015 16.73L1.60016 21.28C1.32858 21.5418 1.13659 21.8751 1.04635 22.2414C0.95611 22.6077 0.971296 22.992 1.09016 23.35L2.09016 26.48C2.20103 26.8141 2.39811 27.113 2.66148 27.3465C2.92486 27.58 3.2452 27.7399 3.59015 27.81L39.0002 35C39.1297 35.0148 39.2606 35.0148 39.3902 35C39.9072 35.0032 40.4053 34.8061 40.7802 34.45L46.4002 29C46.659 28.7445 46.8432 28.4233 46.9331 28.0709C47.0229 27.7185 47.015 27.3482 46.9102 27ZM45.0102 27.63L39.7902 32.63L39.1002 30.55L44.3202 25.55L45.0102 27.63ZM8.89016 15.15C9.09444 15.0565 9.31557 15.0055 9.54016 15C9.78016 15 9.95016 15.07 10.0102 15.2C10.0702 15.33 9.78016 15.83 9.27016 16.04C9.06185 16.132 8.83776 16.1829 8.61015 16.19C8.38015 16.19 8.20016 16.12 8.14016 15.98C8.08016 15.84 8.38016 15.36 8.89016 15.15ZM32.2702 19.91C32.4752 19.82 32.6963 19.7724 32.9202 19.77C33.1502 19.77 33.3302 19.84 33.3902 19.97C33.4502 20.1 33.1602 20.6 32.6402 20.81C32.4416 20.9153 32.224 20.9799 32.0002 21C31.7602 21 31.5902 20.93 31.5302 20.79C31.4702 20.65 31.7502 20.12 32.2702 19.91ZM38.3502 29.91L3.00015 22.72L7.48015 18.41L7.21016 18.72C7.08293 18.8682 7.00188 19.0503 6.977 19.244C6.95213 19.4377 6.98451 19.6345 7.07016 19.81L7.13016 19.94C6.38016 20.35 5.96016 20.94 6.20015 21.39C6.44015 21.84 7.15016 21.79 7.88016 21.48L8.35016 22.48C8.44197 22.6719 8.5926 22.8296 8.78015 22.93C9.15746 23.0978 9.56732 23.1798 9.98015 23.17C10.8076 23.1446 11.6196 22.9399 12.3602 22.57C13.2752 22.096 14.0637 21.4103 14.6602 20.57C14.7572 20.4233 14.8139 20.2536 14.8244 20.0781C14.8349 19.9025 14.799 19.7272 14.7202 19.57L14.1802 18.57L15.3502 18.81L15.7102 19.63L15.0002 20.43C14.8709 20.5791 14.7886 20.7631 14.7637 20.9588C14.7388 21.1546 14.7724 21.3533 14.8602 21.53L16.1302 24C16.2263 24.1897 16.3804 24.3439 16.5702 24.44C16.9416 24.615 17.3499 24.6974 17.7602 24.68C18.5866 24.6561 19.3983 24.4549 20.1402 24.09C21.0569 23.6186 21.846 22.9324 22.4402 22.09C22.5372 21.9433 22.5939 21.7736 22.6044 21.5981C22.6149 21.4225 22.579 21.2472 22.5002 21.09L22.0002 20L23.1602 20.23L23.5302 21.06L22.8302 21.87C22.6993 22.018 22.6152 22.2015 22.5885 22.3973C22.5618 22.593 22.5937 22.7923 22.6802 22.97L23.9602 25.59C24.0579 25.7811 24.2113 25.938 24.4002 26.04C24.7716 26.215 25.1799 26.2974 25.5902 26.28C26.4179 26.2571 27.2305 26.0523 27.9702 25.68C28.8912 25.2109 29.6841 24.5245 30.2802 23.68C30.3756 23.5324 30.4305 23.3623 30.4393 23.1867C30.4481 23.0111 30.4104 22.8364 30.3302 22.68L29.7802 21.61L30.9502 21.84L31.3202 22.69L30.6202 23.5C30.4913 23.6471 30.4084 23.8288 30.3818 24.0225C30.3551 24.2163 30.3858 24.4136 30.4702 24.59L31.7502 27.22C31.8479 27.4111 32.0013 27.568 32.1902 27.67C32.5638 27.8383 32.9705 27.9203 33.3802 27.91C34.2079 27.8871 35.0205 27.6823 35.7602 27.31C36.6788 26.8373 37.4709 26.1515 38.0702 25.31C38.1579 25.158 38.2041 24.9855 38.2041 24.81C38.2041 24.6345 38.1579 24.462 38.0702 24.31L37.5102 23.22L44.0002 24.46L38.3502 29.91ZM11.2802 18.06C11.3702 18.31 11.0402 18.68 10.5402 18.89C10.3352 18.9649 10.1184 19.0022 9.90016 19C9.81951 19.0081 9.73808 18.9979 9.66191 18.9702C9.58574 18.9425 9.51679 18.898 9.46016 18.84V18.79L8.73015 17.16C9.07349 17.1515 9.41239 17.0803 9.73015 16.95C10.0649 16.8133 10.3679 16.6091 10.6202 16.35L11.2802 18.06ZM11.2202 21.11L11.5402 21.78C11.0422 21.9902 10.5103 22.1088 9.97016 22.13C9.72011 22.1426 9.47047 22.0982 9.24016 22L9.08016 21.67L9.19016 21.58C9.79632 21.2034 10.5101 21.0381 11.2202 21.11ZM21.6102 21.53C21.2384 22.0745 20.7626 22.5401 20.2102 22.9L19.9002 22.22C20.1678 21.7053 20.6278 21.3172 21.1802 21.14H21.3902L21.6102 21.53ZM17.0002 23.17C17.5992 22.8023 18.2995 22.6343 19.0002 22.69L19.3102 23.37C18.8119 23.5781 18.2798 23.6933 17.7402 23.71C17.4911 23.7219 17.2423 23.681 17.0102 23.59L16.8502 23.26L17.0002 23.17ZM29.4202 23.12C29.0352 23.6602 28.5538 24.1246 28.0002 24.49L27.6802 23.81C27.8172 23.5512 28.0046 23.3223 28.2312 23.1369C28.4579 22.9514 28.7193 22.8131 29.0002 22.73H29.2102L29.4202 23.12ZM24.7902 24.75C25.3893 24.3832 26.0904 24.2184 26.7902 24.28L27.1002 24.96C26.6022 25.1689 26.0699 25.2842 25.5302 25.3C25.2801 25.3126 25.0305 25.2682 24.8002 25.17L24.6402 24.85L24.7902 24.75ZM37.2102 24.7C36.8368 25.2425 36.3654 25.7105 35.8202 26.08L35.5002 25.4C35.7691 24.8843 36.2281 24.4934 36.7802 24.31H36.9902L37.2102 24.7ZM32.5802 26.34C33.1793 25.9732 33.8804 25.8084 34.5802 25.87L34.8902 26.54C34.3928 26.7521 33.8605 26.8708 33.3202 26.89C33.0701 26.9026 32.8205 26.8582 32.5902 26.76L32.4302 26.43L32.5802 26.34ZM36.5202 23.34C35.7285 23.5844 35.0621 24.1255 34.6602 24.85C33.7323 24.7664 32.8031 24.9952 32.0202 25.5L31.3502 24.13L31.7502 23.67L31.8602 23.91V24C31.9502 24.1956 32.101 24.357 32.2902 24.46C32.5698 24.6412 32.897 24.7352 33.2302 24.73C33.5744 24.7206 33.9138 24.646 34.2302 24.51C34.6237 24.3974 34.9701 24.16 35.2172 23.8336C35.4642 23.5072 35.5986 23.1094 35.6002 22.7C35.5904 22.579 35.56 22.4607 35.5102 22.35L35.3802 22H35.7802L36.5202 23.34ZM34.6802 22.81C34.7702 23.06 34.4402 23.43 33.9302 23.64C33.7309 23.726 33.5171 23.7735 33.3002 23.78C33.2196 23.7867 33.1386 23.7758 33.0626 23.7482C32.9867 23.7206 32.9176 23.6768 32.8602 23.62V23.57L32.0602 22C32.4035 21.9915 32.7424 21.9203 33.0602 21.79C33.3975 21.6582 33.7015 21.4533 33.9502 21.19L34.6802 22.81ZM28.7302 21.76C27.9397 22.0011 27.2732 22.5386 26.8702 23.26C25.9427 23.1817 25.0152 23.4101 24.2302 23.91L23.5602 22.54L23.9602 22.08L24.0702 22.33V22.38V22.46C24.1602 22.6556 24.311 22.817 24.5002 22.92C24.777 23.1072 25.1062 23.2017 25.4402 23.19C25.784 23.1855 26.1236 23.1142 26.4402 22.98C26.8354 22.8669 27.1829 22.628 27.4302 22.2996C27.6774 21.9712 27.8108 21.5711 27.8102 21.16C27.8076 21.0423 27.7803 20.9265 27.7302 20.82L27.5302 20.37H28.0002L28.7302 21.76ZM26.8902 21.22C26.9702 21.47 26.6502 21.83 26.1402 22.04C25.9421 22.1298 25.7276 22.1775 25.5102 22.18C25.4303 22.188 25.3498 22.1787 25.2739 22.1528C25.1979 22.1269 25.1285 22.0851 25.0702 22.03L25.0002 22L24.2802 20.37C24.6235 20.3615 24.9624 20.2903 25.2802 20.16C25.6137 20.0255 25.9164 19.8248 26.1702 19.57L26.8902 21.22ZM20.9402 20.17C20.147 20.4116 19.4796 20.9534 19.0802 21.68C18.1513 21.5818 17.2173 21.8117 16.4402 22.33L15.7502 21L16.1502 20.54L16.2602 20.79V20.85V20.92C16.3476 21.1141 16.4948 21.2753 16.6802 21.38C16.9756 21.5757 17.3264 21.6704 17.6802 21.65C18.0238 21.6445 18.3633 21.5732 18.6802 21.44C19.0746 21.3288 19.4219 21.0918 19.6692 20.7651C19.9165 20.4384 20.0503 20.0398 20.0502 19.63C20.0487 19.509 20.0214 19.3896 19.9702 19.28L19.7702 18.83H20.1802L20.9402 20.17ZM19.1002 19.64C19.1802 19.89 18.8602 20.26 18.3502 20.47C18.1499 20.5514 17.9363 20.5955 17.7202 20.6C17.6403 20.608 17.5598 20.5987 17.4839 20.5728C17.4079 20.5469 17.3385 20.5051 17.2802 20.45L16.5602 18.83C16.9047 18.8231 17.2445 18.7484 17.5602 18.61C17.8956 18.4792 18.199 18.278 18.4502 18.02L19.1002 19.64ZM13.8402 19.93C13.4662 20.4755 12.9909 20.944 12.4402 21.31L12.1302 20.63C12.2595 20.3728 12.4396 20.1445 12.6596 19.9589C12.8796 19.7733 13.1349 19.6342 13.4102 19.55H13.6202L13.8402 19.93ZM25.1502 18.17C25.3802 18.17 25.5602 18.24 25.6102 18.38C25.6602 18.52 25.3802 19 24.8702 19.22C24.6637 19.3053 24.4435 19.3528 24.2202 19.36C23.9802 19.36 23.8102 19.29 23.7502 19.15C23.6902 19.01 23.9802 18.53 24.4902 18.31C24.6944 18.2302 24.9109 18.1863 25.1302 18.18L25.1502 18.17ZM17.3502 16.58C17.5902 16.58 17.7702 16.65 17.8202 16.79C17.8702 16.93 17.5902 17.42 17.0802 17.63C16.8751 17.72 16.654 17.7676 16.4302 17.77C16.1902 17.77 16.0102 17.7 15.9602 17.57C15.9102 17.44 16.1902 16.94 16.7002 16.73C16.8992 16.6433 17.1131 16.5958 17.3302 16.59L17.3502 16.58ZM13.1502 18.58C12.3558 18.824 11.686 19.3649 11.2802 20.09C10.3559 20.0117 9.43156 20.2402 8.65015 20.74L8.00015 19.38L8.40015 18.92L8.51016 19.16V19.21V19.3C8.59761 19.4941 8.74475 19.6553 8.93016 19.76C9.22756 19.9512 9.57693 20.0455 9.93016 20.03C10.2744 20.0209 10.6138 19.9462 10.9302 19.81C11.3217 19.6967 11.6655 19.4585 11.9092 19.1318C12.1529 18.805 12.2831 18.4076 12.2802 18C12.2727 17.8798 12.2456 17.7616 12.2002 17.65L12.0002 17.21H12.4102L13.1502 18.58ZM3.35015 23.81L38.1502 30.81L38.8302 32.81L4.00015 25.85L3.35015 23.81Z" fill="#212C3A"/>
<path d="M39.7916 32.6098L45.0216 27.5898L44.3216 25.5098L39.1016 30.5298L39.7916 32.6098Z" fill="white"/>
<path d="M38.8316 32.8803L38.1516 30.8403L3.35156 23.8203L4.03156 25.8503L38.8316 32.8803Z" fill="white"/>
<path d="M38.08 24.2493C38.1678 24.4013 38.214 24.5738 38.214 24.7493C38.214 24.9248 38.1678 25.0973 38.08 25.2493C37.4807 26.0908 36.6886 26.7766 35.77 27.2493C35.0303 27.6216 34.2178 27.8264 33.39 27.8493C32.9803 27.8596 32.5736 27.7776 32.2 27.6093C32.0112 27.5073 31.8577 27.3504 31.76 27.1593L30.48 24.5293C30.3957 24.3528 30.365 24.1555 30.3916 23.9618C30.4183 23.7681 30.5012 23.5864 30.63 23.4393L31.33 22.6293L30.96 21.7793L29.79 21.5493L30.34 22.6193C30.4203 22.7757 30.4579 22.9504 30.4492 23.126C30.4404 23.3016 30.3855 23.4717 30.29 23.6193C29.694 24.4638 28.9011 25.1502 27.98 25.6193C27.2403 25.9916 26.4278 26.1964 25.6 26.2193C25.1898 26.2367 24.7814 26.1543 24.41 25.9793C24.2212 25.8773 24.0677 25.7204 23.97 25.5293L22.64 22.9993C22.5535 22.8216 22.5216 22.6223 22.5483 22.4266C22.575 22.2308 22.6591 22.0473 22.79 21.8993L23.49 21.0893L23.12 20.2593L22 19.9993L22.54 21.0493C22.6188 21.2065 22.6548 21.3818 22.6443 21.5574C22.6337 21.7329 22.5771 21.9026 22.48 22.0493C21.8859 22.8917 21.0968 23.5779 20.18 24.0493C19.4381 24.4142 18.6264 24.6154 17.8 24.6393C17.3898 24.6567 16.9814 24.5743 16.61 24.3993C16.4203 24.3032 16.2661 24.149 16.17 23.9593L14.85 21.3993C14.7635 21.2216 14.7316 21.0223 14.7583 20.8266C14.785 20.6308 14.8691 20.4473 15 20.2993L15.71 19.4993L15.35 18.6793L14.18 18.4393L14.72 19.4393C14.7988 19.5965 14.8348 19.7718 14.8243 19.9474C14.8137 20.1229 14.7571 20.2926 14.66 20.4393C14.0635 21.2796 13.275 21.9653 12.36 22.4393C11.6194 22.8092 10.8074 23.0139 9.98 23.0393C9.56717 23.0491 9.15731 22.9671 8.78 22.7993C8.59245 22.6989 8.44181 22.5412 8.35 22.3493L7.88 21.3493C7.15 21.6593 6.42 21.6393 6.2 21.2593C5.98 20.8793 6.38 20.2593 7.13 19.8093L7.07 19.6793C6.98435 19.5038 6.95197 19.307 6.97685 19.1133C7.00173 18.9196 7.08278 18.7375 7.21 18.5893L7.48 18.2793L3 22.7193L38.36 29.8593L44 24.4593L37.55 23.1593L38.08 24.2493ZM40.62 25.8093C40.86 26.2293 40.41 26.8893 39.62 27.2993C38.83 27.7093 37.99 27.6993 37.75 27.2993C37.51 26.8993 37.96 26.2193 38.75 25.8093C39.54 25.3993 40.38 25.3893 40.62 25.8093Z" fill="white"/>
<path d="M37.7482 27.2795C37.9882 27.6995 38.8182 27.7095 39.6182 27.2795C40.4182 26.8495 40.8582 26.2095 40.6182 25.7895C40.3782 25.3695 39.5382 25.3595 38.7482 25.7895C37.9582 26.2195 37.5082 26.8595 37.7482 27.2795Z" fill="#212C3A"/>
<path d="M33.3383 26.89C33.8787 26.8708 34.4109 26.7522 34.9083 26.54L34.5983 25.87C33.8985 25.8085 33.1974 25.9732 32.5983 26.34L32.4883 26.43L32.6483 26.76C32.8663 26.8524 33.1016 26.8967 33.3383 26.89Z" fill="white"/>
<path d="M35.4805 25.3993L35.8005 26.0793C36.3457 25.7098 36.8171 25.2418 37.1905 24.6993L37.0005 24.2793H36.7905C36.509 24.3702 36.2483 24.516 36.0234 24.7083C35.7986 24.9005 35.6141 25.1354 35.4805 25.3993Z" fill="white"/>
<path d="M35.7802 22H35.3802L35.5702 22.44C35.62 22.5507 35.6504 22.669 35.6602 22.79C35.6586 23.1994 35.5242 23.5972 35.2772 23.9236C35.0301 24.25 34.6837 24.4874 34.2902 24.6C33.9738 24.736 33.6344 24.8106 33.2902 24.82C32.957 24.8252 32.6298 24.7312 32.3502 24.55C32.161 24.447 32.0102 24.2856 31.9202 24.09V24L31.8102 23.76L31.4102 24.22L32.0002 25.51C32.7831 25.0052 33.7123 24.7764 34.6402 24.86C35.0421 24.1355 35.7085 23.5944 36.5002 23.35L35.7802 22Z" fill="white"/>
<path d="M33 21.7406C32.6822 21.8709 32.3433 21.9421 32 21.9506L32.72 23.5806V23.6306C32.7775 23.6875 32.8465 23.7312 32.9225 23.7588C32.9984 23.7864 33.0795 23.7973 33.16 23.7906C33.377 23.7841 33.5907 23.7366 33.79 23.6506C34.3 23.4406 34.63 23.0706 34.54 22.8206L33.79 21.1406C33.5703 21.3924 33.3015 21.5966 33 21.7406Z" fill="white"/>
<path d="M31.5217 20.7497C31.5817 20.8897 31.7517 20.9597 31.9917 20.9597C32.2162 20.9534 32.4372 20.9024 32.6417 20.8097C33.1617 20.5997 33.4917 20.2197 33.3917 19.9697C33.2917 19.7197 33.1517 19.7697 32.9217 19.7697C32.6979 19.7721 32.4768 19.8197 32.2717 19.9097C31.7517 20.1197 31.4217 20.4997 31.5217 20.7497Z" fill="white"/>
<path d="M27.6914 23.8092L28.0114 24.4892C28.5542 24.1209 29.0253 23.6567 29.4014 23.1192L29.1814 22.6992H28.9714C28.6953 22.7905 28.44 22.9355 28.2203 23.1261C28.0006 23.3166 27.8208 23.5488 27.6914 23.8092Z" fill="white"/>
<path d="M25.5492 25.2993C26.0865 25.2962 26.6187 25.1945 27.1192 24.9993L26.8092 24.3193C26.1094 24.2577 25.4084 24.4225 24.8092 24.7893L24.6992 24.8893L24.8592 25.2093C25.0802 25.288 25.3154 25.3186 25.5492 25.2993Z" fill="white"/>
<path d="M27.9994 20.3691H27.5894L27.7894 20.8191C27.8396 20.9256 27.8668 21.0415 27.8694 21.1591C27.8738 21.5749 27.741 21.9806 27.4915 22.3132C27.242 22.6459 26.8898 22.887 26.4894 22.9991C26.1728 23.1334 25.8332 23.2047 25.4894 23.2091C25.1554 23.2208 24.8263 23.1263 24.5494 22.9391C24.3602 22.8361 24.2094 22.6748 24.1194 22.4791V22.3991V22.3491L24.0094 22.0991L23.6094 22.5591L24.2794 23.9291C25.0645 23.4292 25.9919 23.2009 26.9194 23.2791C27.3224 22.5577 27.989 22.0202 28.7794 21.7791L27.9994 20.3691Z" fill="white"/>
<path d="M25.2305 20.1503C24.9127 20.2806 24.5738 20.3518 24.2305 20.3603L25.0005 22.0003V22.0503C25.0588 22.1054 25.1283 22.1472 25.2042 22.1731C25.2801 22.199 25.3607 22.2083 25.4405 22.2003C25.6579 22.1978 25.8724 22.1501 26.0705 22.0603C26.5805 21.8503 26.9005 21.4903 26.8205 21.2403L26.0705 19.5703C25.8305 19.8161 25.5453 20.013 25.2305 20.1503Z" fill="white"/>
<path d="M23.7301 19.1601C23.7901 19.3001 23.9601 19.3701 24.2001 19.3701C24.4234 19.3628 24.6436 19.3154 24.8501 19.2301C25.3601 19.0101 25.7001 18.6401 25.5901 18.3901C25.4801 18.1401 25.3601 18.1801 25.1301 18.1801C24.9035 18.1872 24.68 18.2346 24.4701 18.3201C24.0001 18.5401 23.6201 18.9101 23.7301 19.1601Z" fill="white"/>
<path d="M17.7606 23.7101C18.3003 23.6934 18.8324 23.5782 19.3306 23.3701L19.0006 22.6901C18.3 22.6344 17.5997 22.8025 17.0006 23.1701L16.8906 23.2601L17.0506 23.5901C17.2766 23.6784 17.5182 23.7192 17.7606 23.7101Z" fill="white"/>
<path d="M19.8984 22.2194L20.2084 22.8994C20.7609 22.5395 21.2367 22.0739 21.6084 21.5294L21.3884 21.1094H21.1784C20.9023 21.2006 20.647 21.3457 20.4273 21.5362C20.2076 21.7267 20.0278 21.9589 19.8984 22.2194Z" fill="white"/>
<path d="M19.9995 19.2393C20.0508 19.3489 20.0781 19.4683 20.0795 19.5893C20.079 20.0004 19.9438 20.4 19.6946 20.7269C19.4453 21.0538 19.0958 21.29 18.6995 21.3993C18.3827 21.5325 18.0432 21.6038 17.6995 21.6093C17.3458 21.6297 16.9949 21.535 16.6995 21.3393C16.5141 21.2346 16.367 21.0734 16.2795 20.8793V20.8093V20.7493L16.1695 20.4993L15.7695 20.9593L16.4395 22.3393C17.2166 21.821 18.1506 21.5911 19.0795 21.6893C19.479 20.9627 20.1464 20.4209 20.9395 20.1793L20.2195 18.7793H19.8095L19.9995 19.2393Z" fill="white"/>
<path d="M17.4414 18.56C17.1258 18.6984 16.786 18.7731 16.4414 18.78L17.1614 20.4C17.2197 20.4551 17.2892 20.4969 17.3651 20.5228C17.441 20.5487 17.5216 20.558 17.6014 20.55C17.8176 20.5455 18.0311 20.5015 18.2314 20.42C18.7414 20.21 19.0614 19.84 18.9814 19.59L18.3314 18C18.0774 18.2472 17.7742 18.438 17.4414 18.56Z" fill="white"/>
<path d="M15.9387 17.5802C15.9887 17.7102 16.1687 17.7802 16.4087 17.7802C16.6326 17.7779 16.8537 17.7303 17.0587 17.6402C17.5687 17.4302 17.9087 17.0502 17.7987 16.8002C17.6887 16.5502 17.5687 16.5902 17.3287 16.5902C17.1042 16.5966 16.8832 16.6476 16.6787 16.7402C16.1687 17.0002 15.8287 17.3302 15.9387 17.5802Z" fill="white"/>
<path d="M9.18812 21.5802L9.07812 21.6702L9.23812 22.0002C9.46844 22.0983 9.71808 22.1428 9.96813 22.1302C10.5083 22.109 11.0401 21.9904 11.5381 21.7802L11.2181 21.1102C10.5081 21.0383 9.79429 21.2036 9.18812 21.5802Z" fill="white"/>
<path d="M12.1094 20.6395L12.4194 21.3195C12.9702 20.9535 13.4455 20.485 13.8194 19.9395L13.5994 19.5195H13.3894C13.1105 19.6083 12.853 19.7535 12.6327 19.9462C12.4125 20.1389 12.2344 20.3749 12.1094 20.6395Z" fill="white"/>
<path d="M12.2005 17.6495C12.246 17.761 12.273 17.8792 12.2805 17.9995C12.2822 18.4096 12.1491 18.809 11.9015 19.1361C11.654 19.4632 11.3057 19.6998 10.9105 19.8095C10.5941 19.9457 10.2548 20.0203 9.91047 20.0295C9.55724 20.045 9.20787 19.9507 8.91047 19.7595C8.72507 19.6547 8.57792 19.4936 8.49047 19.2995V19.2095V19.1595L8.38047 18.9195L7.98047 19.3795L8.65047 20.7495C9.43187 20.2496 10.3562 20.0212 11.2805 20.0995C11.6863 19.3743 12.3561 18.8335 13.1505 18.5895L12.4305 17.1895H12.0205L12.2005 17.6495Z" fill="white"/>
<path d="M10.5384 16.3809C10.2862 16.6399 9.9832 16.8442 9.64844 16.9809C9.33067 17.1112 8.99178 17.1823 8.64844 17.1909L9.37844 18.8209V18.8709C9.4463 18.9359 9.52997 18.9821 9.62117 19.0049C9.71237 19.0277 9.80794 19.0263 9.89844 19.0009C10.1151 18.9923 10.3285 18.9449 10.5284 18.8609C11.0284 18.6509 11.3584 18.2809 11.2684 18.0309L10.5384 16.3809Z" fill="white"/>
<path d="M8.60856 16.1999C8.83616 16.1929 9.06025 16.1419 9.26856 16.0499C9.77856 15.8399 10.1086 15.4599 10.0086 15.2099C9.90856 14.9599 9.77856 15.0099 9.53856 15.0099C9.31467 15.0123 9.09357 15.0599 8.88856 15.1499C8.37856 15.3599 8.03856 15.7399 8.13856 15.9899C8.23856 16.2399 8.37856 16.1999 8.60856 16.1999Z" fill="white"/>
</svg>
