<svg width="48" height="48" viewBox="0 0 48 48" fill="none" xmlns="http://www.w3.org/2000/svg">
<path d="M43.8187 22.1203C43.9387 21.0603 43.3387 20.1903 42.0187 18.7603L41.5687 18.2803L39.7487 16.2803L38.8187 15.2802L36.2387 12.5203C36.0687 9.33025 33.3787 6.52025 29.5987 5.42025L27.9187 3.62025C27.6033 3.26546 27.2146 2.98336 26.7795 2.79344C26.3444 2.60352 25.8733 2.51031 25.3987 2.52025C24.7663 2.53295 24.1433 2.67592 23.5687 2.94025C21.7187 3.75025 15.3587 6.57025 11.7887 8.23025C11.396 8.40967 11.0239 8.63096 10.6787 8.89025L10.5887 9.00025C8.95091 10.3474 7.91502 12.2897 7.70867 14.4002C7.51867 15.6902 6.86867 18.7302 6.70867 19.2102C6.61567 19.5664 6.46356 19.9044 6.25868 20.2102C6.15868 20.4002 6.03867 20.5903 5.90867 20.8403C5.38095 21.7589 4.9997 22.7542 4.77868 23.7903C4.6147 24.8397 4.74986 25.9141 5.16867 26.8902V27.0002C5.15867 27.0815 5.14195 27.1618 5.11867 27.2402C5.01807 27.6604 5.02586 28.0992 5.14131 28.5155C5.25675 28.9318 5.47607 29.3119 5.77868 29.6203L7.55867 31.4503C7.99517 31.9012 8.58266 32.1754 9.20867 32.2203H9.39867C9.68106 32.2184 9.96132 32.1712 10.2287 32.0803L10.4987 32.0002L11.3187 31.6302C11.2919 32.522 11.4698 33.408 11.8387 34.2203V34.3303C11.7499 34.7469 11.7665 35.1791 11.887 35.5877C12.0075 35.9963 12.228 36.3684 12.5287 36.6702L13.8587 38.0002L14.3387 38.4802C14.7716 38.9085 15.3417 39.1705 15.9487 39.2202H16.1487C16.5544 39.2503 16.961 39.1745 17.3287 39.0002L17.8287 38.7502C17.8084 38.9965 17.8084 39.244 17.8287 39.4902C17.8923 40.0569 18.0336 40.6121 18.2487 41.1402L18.3187 41.3402V41.4302C18.254 41.8199 18.2819 42.2194 18.4 42.5963C18.5181 42.9733 18.7232 43.3172 18.9987 43.6002L19.5987 44.2002L20.4987 45.1102L20.5887 45.1902L20.8187 45.4302C21.2092 45.8238 21.7191 46.077 22.2687 46.1502C22.3918 46.1601 22.5155 46.1601 22.6387 46.1502C22.865 46.1505 23.0904 46.1202 23.3087 46.0602C23.4862 46.0146 23.6575 45.9474 23.8187 45.8602L24.3787 45.5702L24.5087 45.5102H24.5587H24.6487C24.9388 45.3532 25.1994 45.1468 25.4187 44.9002C25.4577 44.8555 25.4945 44.8088 25.5287 44.7602C25.7832 44.4236 25.9483 44.028 26.0087 43.6102V43.4102C26.0405 43.2083 26.0606 43.0046 26.0687 42.8002C26.0836 42.6039 26.0836 42.4066 26.0687 42.2102V42.1602C26.0687 42.1002 26.0687 42.0302 26.0687 41.9602C26.0585 41.8388 26.0384 41.7184 26.0087 41.6002C25.9588 41.3814 25.8815 41.1697 25.7787 40.9702C25.746 40.8983 25.7092 40.8281 25.6687 40.7602C25.6291 40.5124 25.6639 40.2584 25.7687 40.0302C26.5052 38.9612 27.0781 37.7883 27.4687 36.5502C27.4687 36.4502 27.5287 36.2902 27.5687 36.0802C27.6887 35.4502 27.8987 34.3202 28.1787 32.8202L28.3287 31.9902C28.388 31.7872 28.4791 31.5948 28.5987 31.4202L29.5287 32.3403C29.615 32.4221 29.7088 32.4957 29.8087 32.5603L29.9287 32.6402C30.1859 32.7882 30.4729 32.877 30.7687 32.9003H30.9987C31.311 32.9015 31.6192 32.8296 31.8987 32.6902L33.3087 31.9802C33.6419 31.8147 33.9223 31.5594 34.1184 31.2432C34.3145 30.927 34.4185 30.5623 34.4187 30.1903C34.542 29.7196 34.7377 29.2709 34.9987 28.8603C35.3587 30.1203 35.1787 30.4303 34.8687 30.9802L34.8087 31.0903C34.6587 31.3603 34.5187 31.5903 34.3787 31.8002C33.9011 32.4368 33.5606 33.1655 33.3787 33.9402C33.2787 34.4702 33.1887 35.1202 33.1887 35.1202C33.1837 35.1735 33.1837 35.227 33.1887 35.2802C33.1616 35.6235 33.2236 35.968 33.3687 36.2802C33.4716 36.4954 33.6102 36.6915 33.7787 36.8602L34.2987 37.3702L34.4787 37.5402L35.5587 38.6002L36.1587 39.2002L36.3487 39.3602L36.4387 39.4302C36.6987 39.6071 36.9968 39.7202 37.3087 39.7602H37.5687C37.8776 39.7599 38.1822 39.688 38.4587 39.5502L39.8687 38.8502C40.2149 38.6831 40.5057 38.4197 40.7061 38.0916C40.9065 37.7635 41.0081 37.3846 40.9987 37.0002C41.1705 36.5097 41.4094 36.0453 41.7087 35.6202C42.379 34.5641 42.8186 33.3782 42.9987 32.1402C43.0598 31.4904 42.9779 30.8351 42.7587 30.2202C42.7587 30.1102 42.6887 30.0002 42.6687 29.8902C42.5993 29.5414 42.5824 29.1841 42.6187 28.8302C42.7332 27.6987 42.9236 26.5762 43.1887 25.4702L43.3387 24.7502C43.4787 24.0802 43.6087 23.4002 43.7087 22.7502C43.7787 22.5103 43.7987 22.3103 43.8187 22.1203ZM27.9287 7.12025C31.7087 7.70025 34.5287 10.4703 34.2287 13.3003C33.9587 15.7902 31.3987 17.5002 28.2287 17.5002C27.7633 17.4976 27.2987 17.4609 26.8387 17.3902C23.0587 16.8102 20.2387 14.0402 20.5387 11.2002C20.5686 10.8965 20.6357 10.5976 20.7387 10.3103C21.4587 8.31025 23.7387 7.01025 26.5487 7.01025C27.0117 7.02657 27.4729 7.0767 27.9287 7.16025V7.12025ZM33.6287 16.5303C33.1387 18.7803 30.7087 20.3102 27.7187 20.3102C27.2535 20.3111 26.7889 20.2776 26.3287 20.2102C22.5487 19.6302 19.7287 16.8603 20.0287 14.0203V13.8903C20.698 15.1112 21.6484 16.1553 22.8013 16.9361C23.9542 17.7169 25.2765 18.2119 26.6587 18.3802C27.1681 18.4599 27.683 18.5 28.1987 18.5002C30.189 18.5757 32.1325 17.8849 33.6287 16.5702V16.5303ZM11.8287 10.4802C12.0693 10.3015 12.3273 10.1474 12.5987 10.0203C16.2087 8.35025 22.5987 5.50025 24.3387 4.76025C24.6502 4.60462 24.9908 4.51604 25.3387 4.50025C25.5315 4.50133 25.7216 4.54595 25.8948 4.6308C26.0679 4.71565 26.2197 4.83853 26.3387 4.99025L27.3387 6.08025C27.0387 6.08025 26.7387 6.08025 26.4387 6.08025C26.1387 6.08025 25.9687 6.08025 25.7487 6.08025H25.5087L25.0787 6.13025H24.8387L24.4287 6.21025L24.2087 6.27025L23.8087 6.37025L23.5787 6.45025L23.2187 6.58025L22.9987 6.68025C22.8855 6.71902 22.7752 6.76581 22.6687 6.82025L22.5587 7.00025L22.2387 7.17025L22.0487 7.30025L21.7587 7.49025L21.5787 7.64025L21.3087 7.85025L21.1487 8.00025L20.9087 8.24025L20.7687 8.40025C20.6887 8.48025 20.6187 8.57025 20.5487 8.65025L20.4287 8.83025L20.2387 9.10025C20.2015 9.16146 20.1681 9.22492 20.1387 9.29025L19.9987 9.56025L19.9187 9.77025C19.8727 9.86433 19.8326 9.96118 19.7987 10.0603C19.7728 10.1318 19.7527 10.2054 19.7387 10.2802C19.7387 10.3802 19.6687 10.4802 19.6487 10.5802C19.6431 10.6568 19.6431 10.7337 19.6487 10.8103C19.6272 10.906 19.6105 11.0028 19.5987 11.1003L19.4787 11.7603L18.9987 14.0002C18.6487 17.3503 21.8487 20.6203 26.1487 21.2803L26.9187 21.3603H27.6887C31.4087 21.3603 34.3487 19.2502 34.6887 16.3603C34.8587 15.3603 34.9787 14.7302 35.0487 14.3602L36.1187 15.5002L36.5387 15.9402L37.2587 16.7102L38.6587 18.2102L40.1087 19.7603L40.5087 20.1903C40.5087 20.1903 40.9487 20.6802 41.1087 20.8802C40.8134 20.9086 40.5238 20.9793 40.2487 21.0903H40.1287L39.6287 21.3102H39.5487L36.5487 22.6203L35.0487 23.2903L34.1287 23.6903L33.2387 24.0903L32.9087 24.2302L32.3187 24.4802L32.0387 24.6103H31.9687L29.4787 25.7102L27.9987 26.4802L27.1887 26.8403L26.8987 27.0002L26.7387 27.0802C26.4054 27.2655 26.0935 27.4868 25.8087 27.7402C25.7187 27.8302 25.6487 27.9503 25.5587 28.0403L10.5587 11.9703C10.8766 11.4039 11.3091 10.91 11.8287 10.5203V10.4802ZM10.6387 27.2302L10.8087 27.6803C10.9994 28.1544 11.0276 28.6784 10.8887 29.1702L10.7287 29.7003L9.72867 30.1203C9.87678 29.2137 9.79073 28.2842 9.47867 27.4202C9.28045 26.4939 9.42619 25.527 9.88868 24.7003L10.5387 23.5702L11.2087 24.3002C11.0587 24.5502 10.9087 24.8202 10.7787 25.0702C10.6115 25.4025 10.513 25.7649 10.489 26.136C10.4649 26.5071 10.5158 26.8792 10.6387 27.2302ZM17.5487 32.0002C17.3091 32.4129 17.1715 32.8768 17.1471 33.3533C17.1228 33.8298 17.2124 34.3053 17.4087 34.7402C17.6569 35.24 17.7069 35.8152 17.5487 36.3502C17.5299 36.463 17.4776 36.5676 17.3987 36.6502C17.3581 36.7008 17.3069 36.7418 17.2487 36.7702L16.4987 37.1502C16.6255 36.2746 16.5327 35.3812 16.2287 34.5502C16.0344 33.6226 16.1837 32.6561 16.6487 31.8302C16.8187 31.5303 17.0187 31.1903 17.2087 30.8302L17.7587 31.4303L17.8387 31.5103C17.7387 31.6702 17.6387 31.8202 17.5487 32.0002ZM22.1787 38.3302C21.9125 38.7913 21.7297 39.2957 21.6387 39.8202C21.4917 40.4788 21.4917 41.1617 21.6387 41.8202C21.8657 42.4055 21.958 43.0344 21.9087 43.6602L20.4187 42.1702C20.3547 42.1074 20.3068 42.03 20.2789 41.9448C20.2511 41.8595 20.2441 41.7688 20.2587 41.6802C20.3186 41.3967 20.3186 41.1038 20.2587 40.8202C20.1687 40.5002 19.9887 40.1102 19.8787 39.6402C19.818 39.3097 19.818 38.9708 19.8787 38.6402C19.8738 38.5703 19.8738 38.5002 19.8787 38.4302C20.3074 37.0983 20.8598 35.8093 21.5287 34.5802C21.5773 34.4791 21.5937 34.3654 21.5759 34.2546C21.558 34.1437 21.5066 34.041 21.4287 33.9602L21.3787 33.9003L18.9987 31.2803L18.2787 30.5002L17.7187 29.8802L16.9987 29.0903L16.8787 29.0002C16.8787 29.1003 16.5987 29.7703 16.5287 30.0002C16.5315 30.0201 16.5315 30.0404 16.5287 30.0602C16.3487 30.4002 16.1087 30.8102 15.8087 31.3202C15.2044 32.3886 15.0258 33.6458 15.3087 34.8402C15.546 35.4785 15.6316 36.1632 15.5587 36.8402L13.9587 35.2402C13.89 35.1743 13.8393 35.092 13.8113 35.001C13.7833 34.91 13.7789 34.8134 13.7987 34.7202C13.8539 34.4835 13.8907 34.2427 13.9087 34.0002C13.9087 33.7402 13.1587 32.5502 13.3787 31.4902C13.7522 30.334 14.2344 29.2157 14.8187 28.1502L15.1087 27.5502C15.1343 27.5037 15.1512 27.4529 15.1587 27.4002C15.1807 27.3324 15.1876 27.2605 15.179 27.1897C15.1703 27.1189 15.1464 27.0508 15.1087 26.9902L11.1087 22.6203L10.3687 21.8302C9.98697 22.6456 9.55618 23.4371 9.07867 24.2003C8.47191 25.2676 8.28981 26.5245 8.56867 27.7202C8.82057 28.3793 8.90642 29.0902 8.81867 29.7903L7.26867 28.2102C7.20272 28.1428 7.1552 28.0596 7.13068 27.9686C7.10616 27.8775 7.10547 27.7817 7.12867 27.6903C7.21299 27.3637 7.25334 27.0274 7.24867 26.6903V26.5802C6.88633 25.8212 6.74097 24.9768 6.82867 24.1402C7.01493 23.3056 7.33219 22.5057 7.76867 21.7703C8.19755 21.1199 8.5341 20.4131 8.76868 19.6702C8.76868 19.6702 9.53868 16.1403 9.76868 14.6702C9.86051 14.0572 10.0112 13.4544 10.2187 12.8702L24.9987 28.8503C24.743 29.3268 24.561 29.8392 24.4587 30.3703C24.2987 31.2502 24.0987 32.5102 23.9187 33.6202C23.8287 34.2102 23.7287 34.8202 23.6687 35.2202C23.6687 35.4202 23.6087 35.5602 23.5887 35.6402C23.224 36.582 22.7508 37.478 22.1787 38.3102V38.3302ZM32.3987 30.0702L31.1887 30.6803H31.1287C31.1366 30.446 31.1566 30.2124 31.1887 29.9802H31.2487L32.5087 29.4303C32.4392 29.6366 32.4021 29.8525 32.3987 30.0702ZM36.8187 37.0002L36.6687 36.8602L35.9587 36.1602L35.2287 35.4502C35.2287 35.4502 35.3187 34.8402 35.4087 34.3502C35.675 33.5522 36.0629 32.8 36.5587 32.1202C36.9612 31.5296 37.1835 30.8348 37.1987 30.1203C37.1783 29.4574 37.0638 28.8009 36.8587 28.1702C36.8 27.9872 36.7009 27.8197 36.5687 27.6803L35.8487 26.9102C36.8487 26.4303 37.8487 26.0103 38.4787 25.7402L38.8387 25.5903L39.1287 25.4802C39.1287 25.6803 39.0487 25.8302 39.0087 26.0103C38.9087 26.4102 38.7787 26.9202 38.5387 28.1903C38.2364 29.1913 38.2364 30.2592 38.5387 31.2603C38.5987 31.4802 38.6687 31.7003 38.7287 32.0002C38.7147 32.9121 38.3942 33.7928 37.8187 34.5002L37.6187 34.8402C37.1914 35.4901 36.9178 36.2288 36.8187 37.0002ZM40.6587 28.7202V28.7903C40.6587 28.9503 40.6587 29.1103 40.6587 29.2803C40.6553 29.6465 40.6922 30.012 40.7687 30.3703C40.9237 30.8245 41.0309 31.2937 41.0887 31.7703C41.0887 31.8302 41.0887 31.9002 41.0887 31.9602C40.9447 32.9164 40.6042 33.8323 40.0887 34.6502C39.5418 35.3346 39.1679 36.1407 38.9987 37.0002L37.7287 37.6302C37.7312 36.7792 37.9928 35.949 38.4787 35.2502C39.164 34.3512 39.6049 33.2902 39.7587 32.1702C39.7734 32.0173 39.7734 31.8632 39.7587 31.7102C39.5499 31.0604 39.4124 30.3898 39.3487 29.7102C39.3612 29.2255 39.4215 28.7432 39.5287 28.2703C39.9187 26.2703 39.9887 26.2102 40.1687 25.3302C40.2091 25.1529 40.2326 24.9721 40.2387 24.7903C40.2503 24.7162 40.2445 24.6406 40.2216 24.5692C40.1987 24.4979 40.1595 24.4329 40.107 24.3794C40.0545 24.326 39.9903 24.2856 39.9194 24.2614C39.8485 24.2372 39.7729 24.23 39.6987 24.2402H39.5787C39.4055 24.2549 39.2345 24.2884 39.0687 24.3403C38.727 24.4357 38.3928 24.556 38.0687 24.7003C37.4087 24.9803 35.3387 25.9102 35.3287 25.9102L34.1387 26.4503L33.9487 26.5303L32.6687 27.1103L32.5287 27.1702L31.1887 27.7703L30.9987 27.9002C30.1287 28.2802 29.4087 28.6003 28.9987 28.7703L28.7287 28.8802C28.4825 28.965 28.2475 29.0791 28.0287 29.2202C27.8855 29.3147 27.7486 29.4182 27.6187 29.5303C27.0871 30.0269 26.7089 30.6654 26.5287 31.3703C26.5287 31.5103 26.4587 31.6502 26.4287 31.8002C26.3487 32.2502 26.2587 32.7102 26.1787 33.1702C26.0087 34.1702 25.8487 35.0702 25.7387 35.6102C25.7387 35.7402 25.6887 35.8602 25.6687 35.9402C25.2726 36.9889 24.77 37.9942 24.1687 38.9402C23.899 39.419 23.761 39.9608 23.7687 40.5102C23.7515 40.9175 23.8448 41.3217 24.0387 41.6802C24.1053 41.777 24.1529 41.8856 24.1787 42.0002C24.1787 42.0002 24.1787 42.0702 24.1787 42.1102C24.189 42.2133 24.189 42.3172 24.1787 42.4202C24.1787 42.4202 24.1787 42.4802 24.1787 42.5102C24.1882 42.6401 24.1882 42.7704 24.1787 42.9002C24.1787 43.0202 24.1787 43.1502 24.1287 43.2802C24.1131 43.3656 24.0779 43.4462 24.0258 43.5156C23.9737 43.585 23.9062 43.6414 23.8287 43.6802L22.9987 44.1102C23.1246 43.2379 23.0318 42.3479 22.7287 41.5202C22.4926 40.6169 22.5884 39.6589 22.9987 38.8202C23.6 37.8742 24.1026 36.8689 24.4987 35.8202C24.5239 35.7281 24.5439 35.6346 24.5587 35.5402C24.6487 35.0202 24.7987 34.0202 24.9687 32.9802C25.1387 31.9403 25.2587 31.1803 25.3787 30.5103C25.4887 29.9724 25.699 29.4602 25.9987 29.0002L26.0787 28.8802C26.2525 28.6468 26.4539 28.4352 26.6787 28.2502C26.8459 28.1121 27.0268 27.9915 27.2187 27.8902L27.3187 27.8403H27.3987L27.5787 27.7603L27.6987 27.7003L28.7987 27.2202L32.0587 25.7703L33.0587 25.3302H33.1287L34.0187 24.9403L34.3987 24.7703L35.3987 24.3503L38.1487 23.1203L39.3087 22.6103L39.5787 22.5002L39.9887 22.3102L40.5587 22.0602C40.7353 21.9837 40.9197 21.9267 41.1087 21.8902H41.2787C41.5687 21.8902 41.7587 22.0503 41.7487 22.5103C41.4687 24.5203 40.8287 26.5702 40.6587 28.6702V28.7202Z" fill="#212C3A"/>
<path d="M23.6514 35.2204C23.7114 34.8204 23.8114 34.2204 23.9014 33.6204C24.0814 32.5104 24.2814 31.2504 24.4414 30.3704C24.55 29.8383 24.7388 29.3258 25.0014 28.8504L10.1414 12.9004C9.93396 13.4845 9.78326 14.0873 9.69142 14.7004C9.47142 16.1704 8.69142 19.7004 8.69142 19.7004C8.45685 20.4433 8.1203 21.15 7.69143 21.8004C7.25494 22.5358 6.93768 23.3357 6.75143 24.1704C6.66372 25.0069 6.80908 25.8514 7.17143 26.6104V26.7204C7.17609 27.0576 7.13574 27.3939 7.05143 27.7204C7.02822 27.8118 7.02891 27.9076 7.05343 27.9987C7.07795 28.0898 7.12547 28.173 7.19143 28.2404L8.74142 29.8204C8.82917 29.1203 8.74332 28.4094 8.49142 27.7504C8.21256 26.5547 8.39467 25.2978 9.00143 24.2304C9.47211 23.4667 9.89621 22.6753 10.2714 21.8604L11.0114 22.6504L15.0114 27.0204C15.0491 27.081 15.0731 27.149 15.0817 27.2199C15.0904 27.2907 15.0834 27.3625 15.0614 27.4304C15.054 27.483 15.037 27.5338 15.0114 27.5804L14.7214 28.1804C14.1371 29.2458 13.655 30.3641 13.2814 31.5204C13.0614 32.5804 13.8114 33.7704 13.8114 34.0304C13.7934 34.2729 13.7567 34.5136 13.7014 34.7504C13.6817 34.8435 13.686 34.9401 13.714 35.0311C13.742 35.1221 13.7928 35.2045 13.8614 35.2704L15.4614 36.8704C15.5343 36.1934 15.4487 35.5086 15.2114 34.8704C14.9285 33.676 15.1071 32.4188 15.7114 31.3504C16.0114 30.8404 16.2514 30.4304 16.4314 30.0904C16.4343 30.0705 16.4343 30.0503 16.4314 30.0304C16.5014 29.8004 16.7414 29.1304 16.7814 29.0304L16.8914 29.1504L17.6114 29.9404L18.1714 30.5604L18.8914 31.3404L21.2414 33.9204L21.2914 33.9804C21.3694 34.0612 21.4207 34.1639 21.4386 34.2747C21.4565 34.3855 21.44 34.4992 21.3914 34.6004C20.7226 35.8295 20.1702 37.1184 19.7414 38.4504C19.7366 38.5203 19.7366 38.5905 19.7414 38.6604C19.6808 38.991 19.6808 39.3298 19.7414 39.6604C19.8514 40.1304 20.0314 40.5204 20.1214 40.8404C20.1813 41.1239 20.1813 41.4169 20.1214 41.7004C20.1069 41.7889 20.1139 41.8796 20.1417 41.9649C20.1695 42.0502 20.2175 42.1275 20.2814 42.1904L21.7714 43.6804C21.8207 43.0546 21.7285 42.4257 21.5014 41.8404C21.3544 41.1818 21.3544 40.499 21.5014 39.8404C21.5925 39.3159 21.7753 38.8115 22.0414 38.3504C22.6066 37.5172 23.073 36.6212 23.4314 35.6804C23.5914 35.5604 23.6114 35.4204 23.6514 35.2204Z" fill="white"/>
<path d="M11.2617 24.3003L10.5917 23.5703L9.94165 24.7003C9.47917 25.5271 9.33343 26.4939 9.53165 27.4203C9.8437 28.2843 9.92976 29.2137 9.78165 30.1203L10.7817 29.7003L10.9417 29.1703C11.0805 28.6785 11.0524 28.1545 10.8617 27.6803L10.6917 27.2303C10.5764 26.876 10.5339 26.5021 10.5665 26.1309C10.5992 25.7598 10.7063 25.3991 10.8817 25.0703C11.0017 24.8203 11.1117 24.5503 11.2617 24.3003Z" fill="white"/>
<path d="M17.2115 30.8203C17.0215 31.1703 16.8215 31.5103 16.6515 31.8203C16.1865 32.6461 16.0372 33.6127 16.2315 34.5403C16.5355 35.3712 16.6283 36.2647 16.5015 37.1403L17.2515 36.7603C17.3097 36.7318 17.3609 36.6909 17.4015 36.6403C17.4804 36.5576 17.5327 36.4531 17.5515 36.3403C17.7097 35.8052 17.6597 35.2301 17.4115 34.7303C17.2169 34.2967 17.1281 33.8231 17.1525 33.3484C17.1768 32.8738 17.3136 32.4117 17.5515 32.0003C17.6415 31.8403 17.7415 31.6903 17.8415 31.5203L17.7615 31.4403L17.2115 30.8203Z" fill="white"/>
<path d="M31.2006 29.9999C31.1686 30.2321 31.1485 30.4657 31.1406 30.6999H31.2006L32.4106 30.0899C32.4141 29.8616 32.4546 29.6353 32.5306 29.4199L31.2606 29.9999H31.2006Z" fill="white"/>
<path d="M41.2993 21.8105H41.1293C40.9403 21.847 40.7559 21.904 40.5793 21.9805L40.0093 22.2305L39.5993 22.4205L39.3293 22.5305L38.1693 23.0405L35.3993 24.3005L34.3993 24.7205L34.0193 24.8905L33.1293 25.2805H33.0593L32.0593 25.7205L28.7993 27.2205L27.6993 27.7005L27.5793 27.7605L27.3993 27.8405H27.3193L27.2193 27.8905C27.0275 27.9918 26.8465 28.1124 26.6793 28.2505C26.4546 28.4355 26.2531 28.6471 26.0793 28.8805L25.9993 29.0005C25.7114 29.4695 25.5146 29.9886 25.4193 30.5305C25.2993 31.2005 25.1493 32.1105 25.0093 33.0005C24.8693 33.8905 24.6893 35.0005 24.5993 35.5605C24.5845 35.6549 24.5645 35.7484 24.5393 35.8405C24.1433 36.8892 23.6406 37.8945 23.0393 38.8405C22.5768 39.6673 22.4311 40.6342 22.6293 41.5605C22.9325 42.3882 23.0253 43.2782 22.8993 44.1505L23.7293 43.7205C23.8069 43.6817 23.8744 43.6253 23.9264 43.5559C23.9785 43.4865 24.0137 43.4059 24.0293 43.3205C24.0293 43.1905 24.0293 43.0605 24.0793 42.9405C24.0889 42.8107 24.0889 42.6804 24.0793 42.5505C24.0793 42.5505 24.0793 42.4905 24.0793 42.4605C24.0897 42.3575 24.0897 42.2536 24.0793 42.1505C24.0793 42.1505 24.0793 42.0805 24.0793 42.0405C24.0535 41.9259 24.006 41.8173 23.9393 41.7205C23.7455 41.362 23.6522 40.9578 23.6693 40.5505C23.6616 40.0011 23.7996 39.4593 24.0693 38.9805C24.6706 38.0345 25.1733 37.0292 25.5693 35.9805C25.5693 35.9005 25.5693 35.7805 25.6393 35.6505C25.7493 35.1105 25.9093 34.1805 26.0793 33.2105C26.1593 32.7505 26.2493 32.2905 26.3293 31.8405C26.3293 31.6905 26.3893 31.5505 26.4293 31.4105C26.6095 30.7057 26.9878 30.0672 27.5193 29.5705C27.6492 29.4585 27.7861 29.355 27.9293 29.2605C28.1481 29.1194 28.3831 29.0053 28.6293 28.9205L28.8993 28.8105C29.3293 28.6405 30.0493 28.3205 30.8993 27.9405L31.1493 27.8305L32.4893 27.2305L32.6293 27.1705L33.9993 26.5505L34.1893 26.4705L35.1893 26.0305L35.4393 25.9205C36.5293 25.4405 37.4993 25.0005 38.1593 24.7205C38.4834 24.5763 38.8176 24.456 39.1593 24.3605C39.3251 24.3087 39.4962 24.2752 39.6693 24.2605H39.7893C39.8635 24.2503 39.9391 24.2575 40.01 24.2817C40.0809 24.3058 40.1452 24.3463 40.1976 24.3997C40.2501 24.4532 40.2894 24.5182 40.3122 24.5895C40.3351 24.6608 40.3409 24.7365 40.3293 24.8105C40.3232 24.9924 40.2998 25.1732 40.2593 25.3505C40.0793 26.2305 40.0093 26.2605 39.6193 28.2905C39.5121 28.7635 39.4519 29.2458 39.4393 29.7305C39.503 30.4101 39.6405 31.0807 39.8493 31.7305C39.864 31.8835 39.864 32.0376 39.8493 32.1905C39.6956 33.3105 39.2546 34.3715 38.5693 35.2705C38.0834 35.9693 37.8218 36.7995 37.8193 37.6505L38.9993 37.0005C39.1295 36.1211 39.4728 35.2869 39.9993 34.5705C40.5148 33.7526 40.8553 32.8367 40.9993 31.8805C40.9993 31.8205 40.9993 31.7505 40.9993 31.6905C40.9416 31.214 40.8343 30.7448 40.6793 30.2905C40.6028 29.9323 40.5659 29.5668 40.5693 29.2005C40.5693 29.0305 40.5693 28.8705 40.5693 28.7105V28.6405C40.7393 26.5405 41.3793 24.4905 41.6793 22.4005C41.7793 22.0005 41.5893 21.8105 41.2993 21.8105Z" fill="white"/>
<path d="M25.8097 27.6998C26.0946 27.4463 26.4064 27.225 26.7397 27.0398L26.8997 26.9998L27.1697 26.8798L27.9797 26.5198L29.5097 25.8398L31.9997 24.6998H32.0697L32.3497 24.5698L32.9397 24.3198L33.2697 24.1798L34.1597 23.7798L35.0797 23.3798L36.5797 22.7098L39.5797 21.3998H39.6597L40.1597 21.1798H40.2797C40.5548 21.0689 40.8444 20.9981 41.1397 20.9698C40.9797 20.7698 40.5697 20.3098 40.5397 20.2798L40.1397 19.8498L38.6897 18.2998L37.2897 16.7998L36.5697 16.0298L36.1497 15.5898L35.0797 14.4498C35.0097 14.8598 34.8897 15.4998 34.7197 16.4498C34.3797 19.3798 31.4397 21.4498 27.7197 21.4498H26.9497L26.1797 21.3698C21.8797 20.7098 18.6797 17.4398 19.0297 14.0898L19.4197 11.8898L19.5397 11.2298C19.5515 11.1323 19.5682 11.0355 19.5897 10.9398C19.5841 10.8632 19.5841 10.7863 19.5897 10.7098C19.5897 10.6098 19.6497 10.5098 19.6797 10.4098C19.6937 10.3349 19.7138 10.2614 19.7397 10.1898C19.7736 10.0907 19.8137 9.99384 19.8597 9.89977L19.9997 9.55977L20.1597 9.27977C20.1891 9.21443 20.2225 9.15098 20.2597 9.08977L20.4497 8.81977L20.5697 8.63977C20.6397 8.55977 20.7097 8.46977 20.7897 8.38977L20.9297 8.22976L21.1497 7.99977L21.3097 7.84977L21.5797 7.63977L21.7597 7.48977L22.0497 7.29977L22.2397 7.16977L22.5597 6.99977L22.7697 6.88977C22.8762 6.83532 22.9865 6.78854 23.0997 6.74977L23.3197 6.64977L23.6797 6.51977L23.9097 6.43977L24.3097 6.33977L24.5297 6.27977L24.9397 6.19977H25.1797L25.6097 6.14977H25.8497C26.0697 6.14977 26.2997 6.14977 26.5397 6.14977C26.8397 6.14977 27.1397 6.14977 27.4397 6.14977L26.4197 4.99977C26.3007 4.84804 26.1489 4.72517 25.9758 4.64032C25.8026 4.55547 25.6125 4.51084 25.4197 4.50977C25.0718 4.52556 24.7312 4.61413 24.4197 4.76977C22.6997 5.50977 16.2897 8.35977 12.6797 10.0298C12.4083 10.157 12.1503 10.3111 11.9097 10.4898C11.4088 10.872 10.9904 11.3516 10.6797 11.8998L25.5597 27.9998C25.6497 27.9098 25.7197 27.7898 25.8097 27.6998Z" fill="white"/>
<path d="M37.8583 34.4009C38.4338 33.6934 38.7543 32.8127 38.7683 31.9009C38.7083 31.6009 38.6383 31.3809 38.5783 31.1609C38.276 30.1598 38.276 29.0919 38.5783 28.0909C38.8183 26.8209 38.9483 26.3109 39.0483 25.9109C39.0483 25.7309 39.1283 25.5809 39.1683 25.3809L38.8783 25.4909L38.5183 25.6409C37.8783 25.9109 36.9383 26.3309 35.8883 26.8109L36.6083 27.5809C36.7405 27.7203 36.8396 27.8878 36.8983 28.0709C37.0914 28.6965 37.1957 29.3462 37.2083 30.0009C37.1931 30.7154 36.9708 31.4102 36.5683 32.0009C36.0725 32.6806 35.6846 33.4328 35.4183 34.2309C35.3283 34.7209 35.2383 35.3309 35.2383 35.3309L35.9683 36.0409L36.6783 36.7409L36.8283 36.8809C36.932 36.0887 37.2197 35.3319 37.6683 34.6709L37.8583 34.4009Z" fill="white"/>
<path d="M20.7297 10.3508C20.6268 10.6381 20.5596 10.937 20.5297 11.2408C20.2297 14.0808 23.0497 16.8508 26.8297 17.4308C27.2897 17.5014 27.7543 17.5382 28.2197 17.5408C31.3997 17.5408 33.9597 15.8308 34.2197 13.3408C34.5197 10.5108 31.6997 7.74078 27.9197 7.16078C27.4597 7.09015 26.9951 7.05339 26.5297 7.05078C23.7597 7.05078 21.4497 8.36078 20.7297 10.3508ZM27.9997 10.1708L29.4397 11.1708L32.7197 11.0008L32.9997 12.6208L29.8397 12.7608L28.7297 14.0008L29.1997 16.4408H27.1997L26.7697 14.2008L25.1897 13.0008L22.0497 13.1408L21.7197 11.5208L24.7897 11.3808L25.9997 10.0808L25.4997 7.76078H27.4997L27.9997 10.1708Z" fill="white"/>
<path d="M26.6792 18.4197C25.297 18.2513 23.9748 17.7563 22.8219 16.9755C21.669 16.1947 20.7185 15.1507 20.0492 13.9297V14.0597C19.7492 16.8997 22.5692 19.6697 26.3492 20.2497C26.8095 20.3171 27.2741 20.3505 27.7392 20.3497C30.7392 20.3497 33.1592 18.8197 33.6492 16.5697C32.1688 17.9049 30.2322 18.6208 28.2392 18.5697C27.7161 18.5606 27.1945 18.5104 26.6792 18.4197Z" fill="white"/>
<path d="M25.9488 10.0802L24.7888 11.3502L21.7188 11.4902L22.0487 13.1102L25.1888 12.9702L26.7388 14.1802L27.1788 16.4202L29.1988 16.4102L28.7288 13.9702L29.8787 12.7602L33.0388 12.6202L32.7188 11.0002L29.4288 11.1502L27.9888 10.1702L27.5188 7.74023L25.4988 7.76023L25.9488 10.0802Z" fill="#212C3A"/>
</svg>
