<svg width="48" height="48" viewBox="0 0 48 48" fill="none" xmlns="http://www.w3.org/2000/svg">
<path d="M44.2384 26.6699C44.0994 26.4197 43.9388 26.1822 43.7584 25.9599L43.4484 25.6299L43.3884 25.5799C42.8782 25.1261 42.263 24.8064 41.5984 24.6499C40.243 24.2555 38.9247 23.7436 37.6584 23.1199C36.8751 22.744 36.0172 22.5492 35.1484 22.5499H34.8584C33.5178 22.4879 32.1906 22.256 30.9084 21.8599C30.6255 21.7547 30.3485 21.6345 30.0784 21.4999C29.7178 20.7325 29.1747 20.065 28.4966 19.556C27.8185 19.047 27.026 18.7119 26.1884 18.5799L22.2684 17.7799C22.1395 17.6262 22.0026 17.4794 21.8584 17.3399L21.7984 17.2899C20.9429 16.4806 19.8805 15.9235 18.7284 15.6799C18.1184 15.5499 12.4684 14.3199 11.1984 14.1499C10.9588 14.1297 10.7179 14.1297 10.4784 14.1499C7.01837 14.1499 3.92837 17.5099 3.30837 21.9799C2.68837 26.4499 4.96837 30.5499 8.63837 31.3899C8.63837 31.3899 13.5484 32.4599 15.4284 32.8499C15.6844 32.9236 15.9449 32.9804 16.2084 33.0199H16.3284C16.5381 33.0349 16.7486 33.0349 16.9584 33.0199C18.0171 33.0147 19.0543 32.7209 19.9584 32.1699L24.0684 32.9999H24.1684H24.3184H24.3884C24.5315 33.0099 24.6752 33.0099 24.8184 32.9999C25.7133 32.9949 26.5905 32.7497 27.3584 32.2899H27.9784H28.4384C28.775 32.2854 29.1108 32.3224 29.4384 32.3999C30.5837 32.654 31.7098 32.9881 32.8084 33.3999C33.4397 33.674 34.1201 33.8169 34.8084 33.8199H36.2784C37.3879 33.8002 38.4975 33.8604 39.5984 33.9999C39.8623 34.0476 40.1301 34.071 40.3984 34.0699C41.1823 34.0761 41.9514 33.8557 42.6131 33.4353C43.2747 33.0148 43.8009 32.4123 44.1284 31.6999C44.4024 31.2065 44.598 30.6735 44.7084 30.1199C44.9206 29.1154 44.8265 28.0704 44.4384 27.1199C44.3837 26.9649 44.3168 26.8144 44.2384 26.6699ZM8.92837 29.2599C6.41837 28.6899 4.62837 25.7299 5.13837 22.0699C5.198 21.6481 5.28484 21.2306 5.39837 20.8199C6.18837 17.9999 8.19837 15.9999 10.3284 15.9999H10.7884C11.4984 16.0899 13.9284 16.5999 15.7884 16.9999C14.5749 17.635 13.5406 18.5649 12.7805 19.7042C12.0203 20.8435 11.5588 22.1556 11.4384 23.5199C11.2463 24.6226 11.2746 25.7524 11.5218 26.8441C11.7689 27.9357 12.23 28.9676 12.8784 29.8799C12.9631 29.9846 13.0532 30.0847 13.1484 30.1799L8.92837 29.2599ZM16.7484 30.8799C16.6119 30.8898 16.4749 30.8898 16.3384 30.8799L15.7484 30.7599C13.4284 30.0799 11.9684 27.0799 12.4484 23.6899C12.9284 20.2999 15.2484 17.6099 17.7484 17.6099H18.1684C18.7758 17.6884 19.3537 17.9188 19.8484 18.2799L18.4884 17.9999H18.0584C15.6084 17.9999 13.4284 20.4299 12.9784 23.6599C12.6701 25.4765 13.0905 27.3413 14.1484 28.8499C14.7755 29.7007 15.7138 30.2688 16.7584 30.4299L17.1484 30.4999L18.0084 30.6799C17.6032 30.8193 17.1768 30.8869 16.7484 30.8799ZM16.9284 29.4099C14.9284 29.1699 13.5684 26.6399 13.9284 23.7599C14.3484 20.9999 16.1384 18.9999 18.0584 18.9999H18.3684L23.5184 19.9999C22.6533 20.5643 21.9258 21.3154 21.3894 22.198C20.8529 23.0806 20.5211 24.0722 20.4184 25.0999C20.1074 26.9197 20.5279 28.7887 21.5884 30.2999L16.9284 29.4099ZM24.6784 30.9399H24.3884C22.3884 30.6999 21.0484 28.1699 21.4484 25.2999C21.8484 22.4299 23.6184 20.5099 25.5284 20.5099H25.8084L26.0284 20.5699C26.2065 20.5965 26.381 20.6435 26.5484 20.7099L26.7184 20.8099C26.8818 20.8913 27.0389 20.9849 27.1884 21.0899L27.3284 21.2399C27.4729 21.3545 27.6038 21.4854 27.7184 21.6299H27.5884C27.3055 21.6342 27.0277 21.7062 26.7784 21.8399C26.4801 21.6336 26.1376 21.5 25.7784 21.4499H25.4884C23.8784 21.4499 22.4884 23.1099 22.1584 25.3899C21.9273 26.6424 22.1888 27.9357 22.8884 28.9999L23.0684 29.1999C23.2586 29.4987 23.4988 29.7625 23.7784 29.9799C24.2531 30.3451 24.7831 30.6321 25.3484 30.8299C25.131 30.8967 24.9056 30.9337 24.6784 30.9399ZM36.1084 31.7499H34.6284C34.2152 31.7426 33.8075 31.6542 33.4284 31.4899C32.2109 31.038 30.9648 30.6672 29.6984 30.3799C29.2452 30.2801 28.7824 30.2298 28.3184 30.2299H27.8284C26.6068 30.2778 25.4028 29.9268 24.3984 29.2299C23.0684 28.2299 23.1884 25.6699 23.1884 25.6699L24.9984 25.9999C25.2833 24.9852 25.8003 24.0506 26.5084 23.2699C26.9684 22.7599 27.2684 22.5699 27.5984 22.5699C28.1384 22.5699 28.7384 23.1199 30.1684 23.6399C31.6676 24.1213 33.2251 24.3971 34.7984 24.4599H35.0884C35.66 24.4609 36.224 24.5908 36.7384 24.8399C37.5084 25.1999 38.6484 25.7099 39.7384 26.0899C39.277 26.3932 38.8821 26.7872 38.5778 27.248C38.2735 27.7087 38.0662 28.2265 37.9684 28.7699C37.7395 29.7994 37.9263 30.8776 38.4884 31.7699C37.6684 31.7699 36.8584 31.7499 36.1084 31.7499ZM40.5684 31.9799H40.3084C39.2584 31.7799 38.6384 30.4599 38.9184 28.9799C38.9762 28.4105 39.2218 27.8764 39.6165 27.4619C40.0111 27.0473 40.5325 26.7757 41.0984 26.6899H41.3584C41.6096 26.7397 41.8438 26.8533 42.0384 27.0199L42.1984 27.1999C42.2827 27.2914 42.3565 27.392 42.4184 27.4999V27.5599C42.6487 28.046 42.7487 28.5836 42.7084 29.1199L41.8084 28.7599C41.7933 28.5488 41.7115 28.3479 41.575 28.1862C41.4384 28.0244 41.254 27.9102 41.0484 27.8599C40.4684 27.7599 39.8784 28.3099 39.7184 29.0999C39.6139 29.4145 39.6346 29.7573 39.7761 30.0571C39.9176 30.3568 40.1691 30.5906 40.4784 30.7099C40.6874 30.7366 40.8992 30.6907 41.0784 30.5799L42.0084 31.0599C41.8534 31.3138 41.6437 31.53 41.3946 31.6926C41.1454 31.8552 40.8632 31.9602 40.5684 31.9999V31.9799Z" fill="#212C3A"/>
<path d="M16.7598 30.3996C15.7152 30.2385 14.7768 29.6704 14.1498 28.8196C13.0989 27.3081 12.6857 25.4435 12.9998 23.6296C13.4298 20.3996 15.6098 17.9996 18.0598 17.9996H18.4898L19.8498 18.2696C19.355 17.9085 18.7772 17.678 18.1698 17.5996H17.7498C15.2498 17.5996 12.9298 20.2196 12.4498 23.6796C11.9698 27.1396 13.4498 30.0696 15.7498 30.7496L16.3398 30.8696C16.4762 30.8795 16.6133 30.8795 16.7498 30.8696C17.176 30.869 17.5989 30.7946 17.9998 30.6496L17.1398 30.4696L16.7598 30.3996Z" fill="white"/>
<path d="M11.4618 23.52C11.5823 22.1557 12.0438 20.8436 12.8039 19.7043C13.564 18.565 14.5983 17.6351 15.8118 17C13.9318 16.6 11.5018 16.09 10.8118 16H10.3518C8.20179 16 6.19179 18 5.40179 20.82C5.28826 21.2306 5.20142 21.6482 5.14179 22.07C4.63179 25.73 6.42179 28.69 8.93179 29.26L13.1718 30.18C13.0766 30.0848 12.9865 29.9847 12.9018 29.88C12.2534 28.9676 11.7924 27.9358 11.5452 26.8441C11.298 25.7525 11.2697 24.6227 11.4618 23.52Z" fill="white"/>
<path d="M23.0709 29.2207L22.8909 29.0207C22.1618 27.9461 21.8852 26.6277 22.1209 25.3507C22.4409 23.0707 23.8409 21.4107 25.4509 21.4107H25.7409C26.1001 21.4607 26.4426 21.5943 26.7409 21.8007C26.9902 21.667 27.268 21.595 27.5509 21.5907H27.6809C27.5663 21.4461 27.4354 21.3153 27.2909 21.2007L27.1509 21.0507C27.0014 20.9457 26.8443 20.8521 26.6809 20.7707L26.5109 20.6707C26.3435 20.6043 26.169 20.5573 25.9909 20.5307L25.7709 20.4707H25.4909C23.5809 20.4707 21.7809 22.5307 21.4109 25.2607C21.0409 27.9907 22.3309 30.6607 24.3509 30.9007H24.6409C24.8672 30.9009 25.0926 30.8707 25.3109 30.8107C24.7621 30.6213 24.246 30.3481 23.7809 30.0007C23.5012 29.7833 23.2611 29.5195 23.0709 29.2207Z" fill="white"/>
<path d="M20.4207 25.14C20.5234 24.1123 20.8552 23.1206 21.3917 22.2381C21.9281 21.3555 22.6556 20.6044 23.5207 20.04L18.3707 19H18.0607C16.1407 19 14.3507 21 14.0007 23.76C13.6007 26.64 14.9307 29.17 17.0007 29.41L21.6907 30.41C21.1392 29.6601 20.7429 28.8078 20.5248 27.9029C20.3067 26.998 20.2713 26.0587 20.4207 25.14Z" fill="white"/>
<path d="M40.5488 30.77C40.2395 30.6507 39.988 30.4169 39.8465 30.1171C39.705 29.8174 39.6843 29.4746 39.7888 29.16C39.9488 28.37 40.5388 27.82 41.1188 27.92C41.3244 27.9703 41.5088 28.0845 41.6454 28.2462C41.7819 28.408 41.8637 28.6089 41.8788 28.82L42.7788 29.18C42.8191 28.6436 42.7191 28.106 42.4888 27.62V27.56C42.4269 27.4521 42.3531 27.3514 42.2688 27.26L42.1088 27.08C41.9142 26.9134 41.68 26.7997 41.4288 26.75H41.1688C40.5962 26.8196 40.0635 27.079 39.6556 27.4868C39.2478 27.8947 38.9883 28.4274 38.9188 29C38.6388 30.44 39.2588 31.76 40.3088 32H40.5688C40.869 31.9795 41.1606 31.8915 41.4221 31.7426C41.6835 31.5937 41.908 31.3877 42.0788 31.14L41.1488 30.66C40.9671 30.7638 40.7555 30.8026 40.5488 30.77Z" fill="white"/>
<path d="M37.9381 28.7996C38.0359 28.2562 38.2433 27.7384 38.5476 27.2776C38.8519 26.8169 39.2467 26.4229 39.7081 26.1196C38.6381 25.7396 37.4981 25.2296 36.7081 24.8696C36.1937 24.6205 35.6297 24.4906 35.0581 24.4896H34.7681C33.1948 24.4268 31.6373 24.1509 30.1381 23.6696C28.7081 23.1496 28.1381 22.5996 27.5681 22.5996C27.2381 22.5996 26.9381 22.7896 26.4781 23.2996C25.7848 24.0746 25.2785 24.9983 24.9981 25.9996L23.1981 25.6096C23.1981 25.6096 23.0781 28.1396 24.4081 29.1696C25.4126 29.8665 26.6165 30.2175 27.8381 30.1696H28.3281C28.7922 30.1695 29.2549 30.2198 29.7081 30.3196C30.9746 30.6069 32.2206 30.9777 33.4381 31.4296C33.8173 31.5939 34.225 31.6822 34.6381 31.6896H36.1181C36.8681 31.6896 37.6781 31.6896 38.4781 31.7696C37.9171 30.8881 37.7233 29.8221 37.9381 28.7996Z" fill="white"/>
</svg>
