<svg width="24" height="24" viewBox="0 0 24 24" fill="none" xmlns="http://www.w3.org/2000/svg">
<g clip-path="url(#clip0_322_910)">
<path d="M23.2855 15.3306C23.2296 15.1694 23.1602 15.0138 23.0781 14.8656L22.9322 14.6417L22.9027 14.6066C22.6542 14.2912 22.3334 14.0462 21.9693 13.8938C21.2337 13.5384 20.5302 13.1163 19.8666 12.6325C19.4553 12.339 18.9846 12.1467 18.4895 12.0696L18.3242 12.0437C17.5661 11.8872 16.8314 11.631 16.1377 11.281C15.9863 11.1932 15.8397 11.097 15.6983 10.9929C15.5643 10.5043 15.317 10.059 14.9779 9.69575C14.6389 9.33254 14.2185 9.06254 13.7535 8.90937L11.5943 8.08394C11.5352 7.98103 11.4709 7.88148 11.4017 7.78569L11.3721 7.7506C10.9601 7.19301 10.4065 6.76688 9.7727 6.51928C9.43722 6.38755 6.33228 5.15207 5.62444 4.93769C5.48981 4.90429 5.35257 4.88281 5.21417 4.87346C3.24261 4.56482 1.16907 6.28739 0.399635 8.89042C-0.369801 11.4934 0.547672 14.1351 2.56069 14.962C2.56069 14.962 5.25887 16.0364 6.29381 16.436C6.43283 16.5026 6.57601 16.5596 6.72244 16.6067L6.79082 16.6174C6.90894 16.6449 7.0289 16.6637 7.1498 16.6736C7.75354 16.7649 8.37193 16.6827 8.93838 16.4357L11.203 17.2959L11.3854 17.3244C11.466 17.3431 11.5479 17.356 11.6304 17.3628C12.1408 17.4396 12.6635 17.372 13.1438 17.1671L13.7592 17.2635C13.9514 17.2908 14.1394 17.3427 14.3188 17.4181C14.9478 17.6713 15.5584 17.9705 16.146 18.3134C16.4802 18.5327 16.8546 18.6784 17.2465 18.7416L18.0841 18.8727C18.7182 18.96 19.3448 19.0947 19.9592 19.2759C20.1052 19.3278 20.2556 19.3656 20.4085 19.3889C20.8546 19.4625 21.3134 19.4 21.7296 19.209C22.1457 19.018 22.5017 18.7066 22.7546 18.3122C22.9566 18.0432 23.1177 17.7436 23.2321 17.4243C23.4466 16.8458 23.4903 16.216 23.3576 15.6161C23.3409 15.519 23.3168 15.4236 23.2855 15.3306ZM2.92424 13.7212C1.54707 13.1583 0.802671 11.2383 1.43402 9.10718C1.50727 8.86163 1.59563 8.62107 1.69854 8.38699C2.41124 6.7804 3.74276 5.77028 4.95647 5.96028L5.21858 6.00132C5.61477 6.11817 6.95194 6.63824 7.97456 7.04203C7.22399 7.31147 6.54803 7.77224 6.00884 8.38198C5.46964 8.99172 5.08451 9.73088 4.88886 10.5315C4.67674 11.1701 4.58771 11.8445 4.62691 12.5158C4.66612 13.1871 4.83279 13.8418 5.11728 14.4422C5.1558 14.512 5.19783 14.5796 5.2432 14.6447L2.92424 13.7212ZM7.22937 15.3822C7.15067 15.3759 7.07259 15.3637 6.99575 15.3456L6.67073 15.2216C5.41206 14.6103 4.85943 12.6959 5.44854 10.7227C6.03766 8.74944 7.61007 7.35663 9.0346 7.57964L9.27393 7.61711C9.61276 7.71794 9.92057 7.90653 10.1688 8.16542L9.41996 7.87758L9.17494 7.83923C7.77889 7.62068 6.31047 8.87135 5.75334 10.7521C5.40857 11.8049 5.47451 12.9515 5.93684 13.943C6.21496 14.5049 6.69675 14.9264 7.27696 15.1154L7.49267 15.1919L7.96596 15.3756C7.7221 15.4223 7.47284 15.4245 7.22937 15.3822ZM7.46879 14.524C6.35151 14.2029 5.8121 12.577 6.28535 10.8963C6.78163 9.2924 7.9878 8.26266 9.08184 8.43393L9.25848 8.46159L12.0999 9.51568C11.5545 9.77415 11.07 10.1559 10.6822 10.633C10.2943 11.11 10.0129 11.6701 9.8587 12.2721C9.51208 13.3267 9.5777 14.4756 10.0413 15.469L7.46879 14.524ZM11.7424 16.1252L11.5772 16.0994C10.4599 15.7782 9.93187 14.1541 10.427 12.483C10.9221 10.8118 12.1094 9.8279 13.1978 9.99828L13.3573 10.0233L13.4771 10.0786C13.5761 10.1103 13.6712 10.1538 13.7604 10.2082L13.8479 10.2828C13.9335 10.3458 14.0143 10.4155 14.0897 10.4913L14.1555 10.593C14.2272 10.674 14.2896 10.7635 14.3414 10.8597L14.2673 10.8481C14.1057 10.8254 13.9408 10.8434 13.7862 10.9007C13.6355 10.7514 13.4528 10.6414 13.2527 10.5796L13.0875 10.5537C12.1701 10.4101 11.2235 11.2733 10.8232 12.5998C10.5749 13.324 10.6035 14.1165 10.9031 14.8118L10.987 14.9468C11.0676 15.1415 11.1799 15.3198 11.319 15.474C11.5555 15.7335 11.8307 15.9515 12.1344 16.1196C12.0044 16.1399 11.8725 16.1418 11.7424 16.1252ZM18.18 17.6265L17.3367 17.4945C17.1019 17.4533 16.8778 17.3644 16.6771 17.2328C16.0254 16.8555 15.3499 16.5238 14.655 16.24C14.4061 16.1402 14.1471 16.069 13.8826 16.0277L13.6034 15.984C12.9029 15.9035 12.2495 15.5873 11.7421 15.0833C11.0773 14.37 11.384 12.8582 11.384 12.8582L12.3847 13.2159C12.6415 12.6379 13.0231 12.1282 13.4992 11.7271C13.8088 11.4648 13.9975 11.3786 14.1855 11.408C14.4932 11.4562 14.7839 11.8368 15.5503 12.2736C16.3598 12.6936 17.2216 12.9966 18.1122 13.1743L18.2775 13.2001C18.6031 13.2517 18.9124 13.3792 19.1823 13.5733C19.5875 13.8561 20.1896 14.2611 20.7754 14.5843C20.4842 14.7235 20.2225 14.9226 20.0063 15.1695C19.79 15.4163 19.6236 15.7058 19.5173 16.0202C19.291 16.612 19.2971 17.2699 19.5343 17.8507C19.067 17.7776 18.6074 17.6934 18.18 17.6265ZM20.7 18.1611L20.5518 18.1379C19.9721 17.9253 19.7417 17.085 20.0391 16.2298C20.125 15.8964 20.3147 15.6007 20.5782 15.3893C20.8417 15.178 21.164 15.063 21.4944 15.0624L21.6426 15.0856C21.7811 15.1376 21.904 15.2261 21.9994 15.3425L22.0738 15.4639C22.1133 15.5258 22.146 15.5922 22.1712 15.6619L22.1656 15.6976C22.2516 16.0072 22.2585 16.3358 22.1856 16.6512L21.7063 16.3568C21.7173 16.2299 21.6895 16.1031 21.6267 15.9948C21.5639 15.8864 21.4695 15.802 21.357 15.7538C21.0358 15.6426 20.6485 15.917 20.4837 16.3726C20.3949 16.5504 20.3748 16.756 20.4275 16.9469C20.4803 17.1378 20.6018 17.2993 20.7669 17.3978C20.8835 17.4323 21.0085 17.4239 21.1209 17.374L21.6061 17.7425C21.4942 17.8796 21.3546 17.9895 21.1975 18.064C21.0404 18.1384 20.8698 18.1757 20.6981 18.173L20.7 18.1611Z" fill="#082F49"/>
<path d="M7.27976 15.0976C6.69954 14.9086 6.21775 14.4871 5.93963 13.9251C5.48155 12.9325 5.41972 11.7868 5.76753 10.736C6.31326 8.85351 7.77889 7.62068 9.17494 7.83923L9.41996 7.87758L10.1698 8.15947C9.9215 7.90058 9.61369 7.71199 9.27486 7.61116L9.03554 7.57369C7.611 7.35069 6.04511 8.70186 5.44948 10.7167C4.85384 12.7316 5.42439 14.6061 6.67166 15.2157L6.99668 15.3396C7.07353 15.3577 7.1516 15.3699 7.2303 15.3762C7.47324 15.4139 7.72115 15.4074 7.96305 15.3569L7.48977 15.1731L7.27976 15.0976Z" fill="white"/>
<path d="M4.90025 10.5333C5.09591 9.73266 5.48104 8.99351 6.02023 8.38376C6.55943 7.77402 7.23538 7.31325 7.98595 7.04382C6.95194 6.63824 5.61477 6.11817 5.22998 6.0031L4.96786 5.96207C3.74276 5.77028 2.41124 6.7804 1.69854 8.38699C1.59563 8.62107 1.50727 8.86163 1.43402 9.10718C0.802671 11.2383 1.54707 13.1583 2.92424 13.7212L5.2546 14.6465C5.20923 14.5814 5.1672 14.5138 5.12868 14.444C4.84419 13.8436 4.67752 13.1888 4.63831 12.5176C4.5991 11.8463 4.68813 11.1719 4.90025 10.5333Z" fill="#3B82F6"/>
<path d="M10.9851 14.9587L10.9012 14.8237C10.5858 14.1196 10.5509 13.3109 10.8041 12.5725C11.1987 11.2451 12.151 10.3828 13.0684 10.5264L13.2337 10.5522C13.4337 10.614 13.6164 10.724 13.7672 10.8734C13.9217 10.8161 14.0867 10.798 14.2483 10.8207L14.3223 10.8323C14.2705 10.7362 14.2081 10.6467 14.1364 10.5656L14.0706 10.4639C13.9952 10.3882 13.9144 10.3185 13.8289 10.2555L13.7413 10.1808C13.6521 10.1264 13.5571 10.0829 13.458 10.0512L13.3383 9.9959L13.1787 9.97092C12.0904 9.80054 10.8729 10.8651 10.4079 12.4556C9.94293 14.0461 10.4294 15.7491 11.5581 16.072L11.7233 16.0979C11.8523 16.1182 11.9835 16.1203 12.1135 16.1041C11.8184 15.9425 11.5498 15.734 11.3171 15.4859C11.178 15.3317 11.0657 15.1534 10.9851 14.9587Z" fill="white"/>
<path d="M9.85498 12.2959C10.0092 11.6939 10.2906 11.1338 10.6784 10.6568C11.0663 10.1797 11.5508 9.79794 12.0962 9.53947L9.25848 8.46159L9.08184 8.43393C7.9878 8.26266 6.78163 9.2924 6.32524 10.9026C5.82919 12.5796 6.35151 14.2029 7.50868 14.5303L10.088 15.5433C9.84361 15.0482 9.69711 14.5059 9.6571 13.9484C9.61709 13.3908 9.68436 12.829 9.85498 12.2959Z" fill="#3B82F6"/>
<path d="M20.8012 17.4398C20.6361 17.3412 20.5146 17.1798 20.4618 16.9889C20.4091 16.798 20.4292 16.5923 20.518 16.4145C20.6828 15.959 21.0701 15.6845 21.3913 15.7957C21.5038 15.8439 21.5983 15.9283 21.661 16.0367C21.7238 16.145 21.7516 16.2718 21.7406 16.3987L22.2199 16.6931C22.2928 16.3777 22.2859 16.0491 22.1999 15.7395L22.2055 15.7038C22.1803 15.6341 22.1476 15.5677 22.1081 15.5058L22.0337 15.3845C21.9383 15.268 21.8154 15.1795 21.6769 15.1276L21.5287 15.1044C21.196 15.0947 20.8683 15.2014 20.5979 15.4076C20.3276 15.6137 20.1301 15.9074 20.0372 16.2417C19.7436 17.0731 19.974 17.9135 20.5499 18.1498L20.6981 18.173C20.871 18.1876 21.0454 18.1613 21.2083 18.0961C21.3711 18.0308 21.5182 17.9284 21.6386 17.7963L21.1533 17.4279C21.0402 17.4734 20.9159 17.4776 20.8012 17.4398Z" fill="white"/>
<path d="M19.4974 16.0354C19.6037 15.7209 19.7701 15.4315 19.9864 15.1846C20.2027 14.9378 20.4643 14.7387 20.7555 14.5995C20.1811 14.278 19.579 13.873 19.1624 13.5885C18.8925 13.3944 18.5832 13.2669 18.2576 13.2153L18.0923 13.1894C17.2017 13.0117 16.3399 12.7087 15.5304 12.2888C14.764 11.852 14.4904 11.474 14.1656 11.4232C13.9776 11.3937 13.789 11.48 13.4794 11.7422C13.0122 12.1413 12.6377 12.6455 12.3847 13.2159L11.3953 12.8234C11.3953 12.8234 11.0914 14.3173 11.7534 15.0485C12.2608 15.5526 12.9142 15.8687 13.6147 15.9492L13.8939 15.9929C14.1584 16.0342 14.4173 16.1054 14.6663 16.2052C15.3612 16.489 16.0367 16.8207 16.6884 17.198C16.8891 17.3296 17.1132 17.4185 17.3479 17.4597L18.1913 17.5917C18.6186 17.6586 19.0802 17.7309 19.5286 17.8498C19.291 17.2756 19.2798 16.6243 19.4974 16.0354Z" fill="white"/>
</g>
<defs>
<clipPath id="clip0_322_910">
<rect width="24" height="24" fill="white"/>
</clipPath>
</defs>
</svg>
