<svg width="48" height="48" viewBox="0 0 48 48" fill="none" xmlns="http://www.w3.org/2000/svg">
<path d="M44.9184 23.5505C44.9184 23.4405 44.8484 23.3305 44.8084 23.2205C44.7362 23.048 44.6457 22.8837 44.5384 22.7305C44.4198 22.5768 44.2821 22.439 44.1284 22.3205L43.9984 22.2305C43.8377 22.1184 43.6669 22.0213 43.4884 21.9405C43.3618 21.8849 43.2315 21.8381 43.0984 21.8005H42.9784L37.2484 20.6405L33.2484 19.8505C33.0445 19.8083 32.8366 19.7882 32.6284 19.7905C31.6486 19.8412 30.68 20.0228 29.7484 20.3305V20.2305C29.7484 20.0705 29.6784 19.9105 29.6284 19.7505C29.5784 19.5905 29.4484 19.2805 29.3684 19.1005V19.0205C29.3084 18.8705 29.2584 18.7405 29.1984 18.6205C28.9935 18.2752 28.7698 17.9413 28.5284 17.6205C28.3467 17.4032 28.1495 17.1993 27.9384 17.0105C27.8479 16.9172 27.751 16.8303 27.6484 16.7505C27.4232 16.5701 27.1783 16.4158 26.9184 16.2905C26.8039 16.2144 26.6835 16.1475 26.5584 16.0905C26.2941 15.9824 26.0193 15.902 25.7384 15.8505C25.6316 15.8121 25.521 15.7853 25.4084 15.7705L21.4084 14.9505L21.0084 14.5105L20.8984 14.4205C20.0449 13.6105 18.9813 13.0561 17.8284 12.8205C17.2184 12.6805 11.5684 11.4505 10.3084 11.2805C10.0663 11.249 9.82255 11.2323 9.57842 11.2305C6.11842 11.2305 3.02842 14.5905 2.40842 19.0605C1.78842 23.5305 3.99842 27.5005 7.67842 28.3405C7.67842 28.3405 12.3784 29.3905 14.5284 29.8305C14.7658 29.8897 15.0061 29.9364 15.2484 29.9705H15.3584L15.9984 30.0005C17.0571 29.9953 18.0943 29.7014 18.9984 29.1505L21.9984 29.7605C22.0141 30.0349 22.0611 30.3067 22.1384 30.5705C22.2803 31.226 22.4674 31.8708 22.6984 32.5005C22.8104 32.9707 23.0513 33.4004 23.394 33.7413C23.7367 34.0823 24.1676 34.3209 24.6384 34.4305H24.6884L24.9984 34.5005H25.0984L34.0984 36.3005C34.3485 36.3518 34.6031 36.3786 34.8584 36.3805C35.8264 36.3884 36.7619 36.0313 37.4784 35.3805L38.2384 34.6905C38.6682 34.3354 38.983 33.8609 39.1432 33.3269C39.3034 32.7929 39.3017 32.2235 39.1384 31.6905C38.9289 30.9136 38.658 30.1545 38.3284 29.4205L39.6184 29.6805L40.5284 29.8605C40.7784 29.9128 41.033 29.9396 41.2884 29.9405C42.2535 29.9488 43.186 29.5915 43.8984 28.9405L44.6684 28.2405C45.0319 27.8983 45.3065 27.4727 45.4684 27.0005V26.9105C45.6334 26.3865 45.6334 25.8245 45.4684 25.3005C45.3984 25.0005 45.1284 24.1005 44.9184 23.5505ZM32.6684 21.7705H32.8884L42.6384 23.7705C42.7252 23.787 42.8057 23.8272 42.8711 23.8866C42.9365 23.946 42.9842 24.0223 43.009 24.1071C43.0339 24.1919 43.0348 24.2819 43.0117 24.3672C42.9887 24.4525 42.9426 24.5297 42.8784 24.5905L41.8784 25.5305C41.554 25.8446 41.1201 26.0204 40.6684 26.0205C40.5486 26.0303 40.4282 26.0303 40.3084 26.0205L34.5184 24.8005C34.3408 24.764 34.1597 24.7473 33.9784 24.7505C33.3021 24.7494 32.651 25.007 32.1584 25.4705L30.1584 27.4005C30.051 27.5227 29.975 27.6694 29.9372 27.8277C29.8993 27.9859 29.9006 28.1511 29.941 28.3087C29.9814 28.4664 30.0596 28.6118 30.169 28.7323C30.2783 28.8529 30.4154 28.9449 30.5684 29.0005L36.2384 30.1405C36.3017 30.153 36.3603 30.1828 36.4078 30.2265C36.4552 30.2703 36.4896 30.3263 36.5072 30.3884C36.5248 30.4505 36.5249 30.5162 36.5074 30.5784C36.49 30.6405 36.4557 30.6966 36.4084 30.7405L35.1684 31.9005C34.867 32.1891 34.4658 32.3503 34.0484 32.3505C33.9386 32.3604 33.8282 32.3604 33.7184 32.3505L24.4984 30.5005C23.7284 30.3305 23.9584 28.8505 24.2984 27.9205H24.3684L24.5984 27.9805C24.731 28.011 24.8703 27.9875 24.9857 27.9153C25.101 27.8431 25.1829 27.7281 25.2134 27.5955C25.2439 27.4629 25.2205 27.3236 25.1483 27.2082C25.0761 27.0929 24.961 27.011 24.8284 26.9805C24.2329 26.7103 23.7034 26.3136 23.2769 25.8179C22.8503 25.3223 22.5369 24.7396 22.3584 24.1105C22.3438 24.0762 22.3271 24.0428 22.3084 24.0105C22.2331 23.5167 22.2331 23.0143 22.3084 22.5205C22.3751 22.0481 22.5063 21.5871 22.6984 21.1505L23.2184 22.0805C23.1621 22.253 23.1219 22.4305 23.0984 22.6105C22.8184 24.5905 24.9984 27.0005 26.7084 25.5805C26.9576 25.3493 27.1914 25.1021 27.4084 24.8405C28.1984 23.9905 26.7384 23.9105 26.1084 22.8905C25.7584 22.3405 25.5484 20.9505 24.5984 20.8405C24.4339 20.8358 24.2705 20.8695 24.1212 20.9389C23.9719 21.0083 23.8409 21.1116 23.7384 21.2405L23.3884 20.1705C23.5441 19.9873 23.735 19.8372 23.9497 19.729C24.1644 19.6208 24.3986 19.5567 24.6384 19.5405H24.7784C25.4784 19.6205 26.0084 20.2605 26.2484 21.1605C26.2436 21.1903 26.2436 21.2207 26.2484 21.2505C26.3961 21.8572 26.7549 22.3917 27.2606 22.7581C27.7663 23.1245 28.3858 23.2991 29.0084 23.2505C29.141 23.2505 29.2682 23.1978 29.362 23.104C29.4557 23.0103 29.5084 22.8831 29.5084 22.7505C29.505 22.6691 29.4809 22.59 29.4384 22.5205C30.4633 22.0846 31.5563 21.8308 32.6684 21.7705ZM33.0484 26.0005L33.4084 27.0005C33.1623 27.109 32.9359 27.2577 32.7384 27.4405L31.8784 28.2505L30.8784 28.0505L32.8784 26.1705C32.9306 26.1095 32.9875 26.0527 33.0484 26.0005ZM11.6384 20.7905C12.1184 17.3305 14.4384 14.7105 16.9384 14.7105H17.3584C17.954 14.8005 18.5177 15.0376 18.9984 15.4005L17.6384 15.1305H17.2084C14.7584 15.1305 12.5784 17.5605 12.1284 20.7805C11.9774 21.6874 12.0066 22.6152 12.2142 23.5108C12.4218 24.4065 12.8038 25.2525 13.3384 26.0005C13.6569 26.4205 14.0564 26.7723 14.5133 27.0351C14.9703 27.2979 15.4752 27.4663 15.9984 27.5305L16.4084 27.6105L17.2484 27.7805C16.845 27.93 16.4186 28.0078 15.9884 28.0105H15.5784L14.9984 27.8705C12.6184 27.1905 11.1584 24.1805 11.6384 20.7905ZM25.9084 17.9405C26.0742 18.0216 26.2316 18.1187 26.3784 18.2305L26.5284 18.3705C26.6725 18.4995 26.8094 18.6364 26.9384 18.7805L27.0584 18.9705C27.1833 19.1303 27.2938 19.301 27.3884 19.4805C27.3884 19.5505 27.4484 19.6305 27.4884 19.7105C27.5284 19.7905 27.6584 20.0905 27.7284 20.3005C27.7542 20.3857 27.7742 20.4726 27.7884 20.5605C27.8545 20.7806 27.908 21.0043 27.9484 21.2305C27.9484 21.3205 27.9484 21.4305 27.9484 21.5305C27.9587 21.7137 27.9587 21.8973 27.9484 22.0805C27.5476 21.8239 27.2611 21.4228 27.1484 20.9605C27.0284 20.4517 26.8074 19.9722 26.4984 19.5505C26.3056 19.2784 26.0586 19.0491 25.7729 18.877C25.4872 18.705 25.1691 18.5938 24.8384 18.5505H24.5784C22.9684 18.5505 21.5784 20.2105 21.2484 22.4905C21.0166 23.7706 21.2928 25.0907 22.0184 26.1705C22.2148 26.4246 22.4553 26.6414 22.7284 26.8105C22.8784 26.9605 23.0184 27.1105 23.1884 27.2505C23.1837 27.3004 23.1837 27.3506 23.1884 27.4005V27.9705C21.3684 27.4905 20.1884 25.1205 20.5884 22.4205C20.9884 19.7205 22.7584 17.6305 24.6784 17.6305H24.9884C25.0633 17.6445 25.1368 17.6646 25.2084 17.6905C25.3855 17.7218 25.5595 17.7687 25.7284 17.8305L25.9084 17.9405ZM20.7784 27.4705L16.0884 26.4705C14.0884 26.2305 12.7284 23.7005 13.0884 20.8305C13.4484 17.9605 15.2584 16.0405 17.1784 16.0405H17.4884L22.6384 17.0905C21.7722 17.6559 21.0439 18.4085 20.5074 19.293C19.9708 20.1774 19.6397 21.171 19.5384 22.2005C19.3809 23.1172 19.4095 24.0562 19.6225 24.9616C19.8355 25.867 20.2287 26.7202 20.7784 27.4705ZM10.6484 20.6605C10.4579 21.76 10.4871 22.8863 10.7343 23.9745C10.9814 25.0627 11.4417 26.0911 12.0884 27.0005C12.1731 27.1051 12.2632 27.2053 12.3584 27.3005L8.11842 26.3805C5.60842 25.8105 3.81842 22.8605 4.32842 19.2005C4.80842 15.7505 7.08842 13.0905 9.51842 13.0905H9.97842C10.6884 13.1905 13.1184 13.6905 14.9784 14.0905C13.7614 14.7318 12.7262 15.6704 11.9692 16.8191C11.2122 17.9677 10.7578 19.2891 10.6484 20.6605ZM33.5184 33.3305C33.6922 33.3707 33.87 33.3908 34.0484 33.3905C34.145 33.3954 34.2418 33.3954 34.3384 33.3905L34.7184 34.4505H34.4484L30.5784 33.6705L25.4584 32.6705H25.3984L25.0784 32.6005C24.9508 32.5657 24.837 32.4922 24.7529 32.3901C24.6687 32.2881 24.6182 32.1624 24.6084 32.0305C24.5584 31.9105 24.5184 31.7705 24.4684 31.6105L33.5184 33.3305ZM35.6984 34.2005L35.2884 33.0705C35.4944 32.9615 35.6859 32.8271 35.8584 32.6705L36.9584 31.6705C37.0584 31.9905 37.1484 32.2705 37.1784 32.3805C37.2142 32.5483 37.2001 32.7229 37.1379 32.8828C37.0757 33.0427 36.9681 33.1809 36.8284 33.2805C36.5484 33.5505 36.0784 33.9605 36.0784 33.9605C35.9627 34.0566 35.8349 34.1372 35.6984 34.2005ZM34.3684 26.7705L34.0084 25.7705C34.1115 25.7606 34.2153 25.7606 34.3184 25.7705L40.0984 26.9305C40.2748 26.9457 40.4521 26.9457 40.6284 26.9305L40.9984 28.0005H40.8884L39.9984 27.7805L35.1384 26.7805C34.9601 26.749 34.7795 26.7322 34.5984 26.7305L34.3684 26.7705ZM41.9984 27.8305L41.6384 26.8305C41.983 26.6991 42.2989 26.5022 42.5684 26.2505L43.4584 25.4205C43.5284 25.6505 43.5884 25.8505 43.6184 25.9305C43.6634 26.0669 43.6634 26.2141 43.6184 26.3505C43.5457 26.5303 43.4329 26.6911 43.2884 26.8205L42.5384 27.5005C42.3797 27.642 42.1968 27.7538 41.9984 27.8305Z" fill="#212C3A"/>
<path d="M9.51929 13.0996C7.08929 13.0996 4.80929 15.7596 4.32929 19.2096C3.81929 22.8696 5.60929 25.8196 8.11929 26.3896L12.3593 27.3096C12.2641 27.2144 12.174 27.1143 12.0893 27.0096C11.4412 26.099 10.9803 25.0689 10.7331 23.9789C10.4859 22.8889 10.4574 21.7607 10.6493 20.6596C10.7689 19.2951 11.23 17.9826 11.9902 16.8431C12.7504 15.7037 13.7853 14.7739 14.9993 14.1396C13.1193 13.7296 10.6893 13.2296 9.99929 13.1396L9.51929 13.0996Z" fill="white"/>
<path d="M15.9382 28.0002C16.3684 27.9976 16.7948 27.9198 17.1982 27.7702L16.3582 27.6002L15.9982 27.5302C15.475 27.4661 14.97 27.2976 14.5131 27.0348C14.0562 26.772 13.6567 26.4202 13.3382 26.0002C12.2777 24.489 11.8572 22.62 12.1682 20.8002C12.6182 17.5802 14.7982 15.1502 17.2482 15.1502H17.6782L18.9982 15.4002C18.5029 15.0419 17.9249 14.8149 17.3182 14.7402H16.8982C14.3982 14.7402 12.0782 17.3602 11.5982 20.8202C11.1182 24.2802 12.5982 27.2202 14.9082 27.9002L15.4882 28.0202L15.9382 28.0002Z" fill="white"/>
<path d="M25.2194 17.7006C25.1478 17.6747 25.0742 17.6547 24.9994 17.6406H24.6894C22.7694 17.6406 20.9794 19.7006 20.5994 22.4306C20.2194 25.1606 21.3794 27.5006 23.1994 27.9806V27.4106C23.1947 27.3607 23.1947 27.3105 23.1994 27.2606C23.0294 27.1206 22.8894 26.9706 22.7394 26.8206C22.4663 26.6516 22.2258 26.4348 22.0294 26.1806C21.3038 25.1008 21.0276 23.7808 21.2594 22.5006C21.5794 20.2206 22.9794 18.5606 24.5894 18.5606H24.8494C25.1801 18.6039 25.4982 18.7151 25.7839 18.8872C26.0695 19.0593 26.3166 19.2886 26.5094 19.5606C26.8398 19.987 27.0782 20.4774 27.2094 21.0006C27.3221 21.463 27.6086 21.8641 28.0094 22.1206C28.0197 21.9374 28.0197 21.7538 28.0094 21.5706C28.0094 21.4706 28.0094 21.3606 28.0094 21.2706C27.969 21.0444 27.9155 20.8207 27.8494 20.6006C27.8352 20.5127 27.8152 20.4259 27.7894 20.3406C27.7194 20.1306 27.6294 19.9406 27.5494 19.7506C27.4694 19.5606 27.4894 19.5906 27.4494 19.5206C27.3548 19.3412 27.2443 19.1705 27.1194 19.0106L26.9994 18.8206C26.8703 18.6766 26.7335 18.5397 26.5894 18.4106L26.4394 18.2706C26.2926 18.1589 26.1352 18.0617 25.9694 17.9806L25.7994 17.8806C25.6125 17.8016 25.4182 17.7413 25.2194 17.7006Z" fill="white"/>
<path d="M19.6092 22.2791C19.7105 21.2497 20.0416 20.2561 20.5782 19.3716C21.1147 18.4872 21.843 17.7345 22.7092 17.1691L17.5592 16.1191H17.2492C15.3292 16.1191 13.5392 18.1791 13.1592 20.9091C12.7792 23.6391 14.0892 26.3091 16.1592 26.5491L20.8492 27.5491C20.2994 26.7989 19.9063 25.9456 19.6933 25.0402C19.4803 24.1348 19.4517 23.1958 19.6092 22.2791Z" fill="white"/>
<path d="M37.1791 32.3506C37.1791 32.2406 37.0591 31.9606 36.9591 31.6406L35.8591 32.6406C35.6865 32.7972 35.495 32.9316 35.2891 33.0406L35.6991 34.1706C35.8373 34.0981 35.9651 34.0073 36.0791 33.9006C36.0791 33.9006 36.5491 33.4906 36.8291 33.2206C36.9635 33.1234 37.0677 32.9901 37.1296 32.8361C37.1915 32.6822 37.2087 32.5139 37.1791 32.3506Z" fill="white"/>
<path d="M25.0788 32.5002L25.3988 32.5702H25.4587L30.5788 33.5702L34.4488 34.3502H34.7188L34.3388 33.2902C34.2421 33.2951 34.1454 33.2951 34.0487 33.2902C33.8704 33.2905 33.6925 33.2704 33.5188 33.2302L24.4688 31.4102C24.5188 31.5702 24.5588 31.7102 24.6088 31.8302C24.5965 31.9791 24.6368 32.1277 24.7227 32.2501C24.8085 32.3725 24.9345 32.4609 25.0788 32.5002Z" fill="white"/>
<path d="M30.8398 28.0793L31.8398 28.2793L32.6998 27.4693C32.8973 27.2866 33.1237 27.1379 33.3698 27.0293L33.0098 26.0293C32.9389 26.0771 32.872 26.1306 32.8098 26.1893L30.8398 28.0793Z" fill="white"/>
<path d="M43.5894 26.3499C43.6344 26.2135 43.6344 26.0663 43.5894 25.9299C43.5894 25.8499 43.4994 25.6499 43.4294 25.4199L42.5394 26.2499C42.2698 26.5016 41.954 26.6986 41.6094 26.8299L41.9694 27.8299C42.1607 27.7512 42.3367 27.6395 42.4894 27.4999L43.2394 26.8199C43.3911 26.6927 43.5109 26.5317 43.5894 26.3499Z" fill="white"/>
<path d="M40.0013 27.7804L40.9113 27.9604H41.0013L40.6513 26.9604C40.4749 26.9756 40.2976 26.9756 40.1213 26.9604L34.3413 25.8004C34.2382 25.7905 34.1343 25.7905 34.0312 25.8004L34.3913 26.8004H34.5813C34.7623 26.8021 34.9429 26.8189 35.1213 26.8504L40.0013 27.7804Z" fill="white"/>
<path d="M29.5399 22.8096C29.5399 22.9422 29.4873 23.0694 29.3935 23.1632C29.2997 23.2569 29.1725 23.3096 29.0399 23.3096C28.4173 23.3582 27.7978 23.1837 27.2921 22.8172C26.7864 22.4508 26.4276 21.9164 26.2799 21.3096C26.2751 21.2798 26.2751 21.2494 26.2799 21.2196C26.0399 20.3196 25.5099 19.6796 24.8099 19.5996H24.6699C24.4301 19.6158 24.1959 19.6799 23.9812 19.7881C23.7665 19.8963 23.5757 20.0464 23.4199 20.2296L23.7699 21.2996C23.8724 21.1707 24.0034 21.0675 24.1527 20.9981C24.302 20.9286 24.4654 20.8949 24.6299 20.8996C25.5799 21.0096 25.7899 22.3996 26.1399 22.9496C26.7699 23.9496 28.2299 24.0496 27.4399 24.8996C27.223 25.1612 26.9891 25.4084 26.7399 25.6396C24.9899 27.0096 22.8499 24.6396 23.1199 22.7696C23.1434 22.5896 23.1836 22.4122 23.2399 22.2396L22.7199 21.3096C22.5278 21.7463 22.3966 22.2072 22.3299 22.6796C22.2546 23.1734 22.2546 23.6758 22.3299 24.1696C22.3486 24.2019 22.3653 24.2353 22.3799 24.2696C22.5584 24.8987 22.8718 25.4814 23.2984 25.977C23.7249 26.4727 24.2544 26.8694 24.8499 27.1396C24.9825 27.1701 25.0976 27.252 25.1698 27.3674C25.242 27.4827 25.2654 27.622 25.2349 27.7546C25.2044 27.8872 25.1225 28.0023 25.0072 28.0745C24.8918 28.1467 24.7525 28.1701 24.6199 28.1396L24.3699 27.9996H24.2999C23.9599 28.9296 23.7299 30.4096 24.4999 30.5796L33.7199 32.4396C33.8297 32.4495 33.9402 32.4495 34.0499 32.4396C34.4673 32.4395 34.8685 32.2783 35.1699 31.9896L36.4099 30.8296C36.4573 30.7857 36.4915 30.7296 36.509 30.6675C36.5264 30.6054 36.5263 30.5396 36.5087 30.4775C36.4911 30.4154 36.4567 30.3594 36.4093 30.3157C36.3618 30.2719 36.3032 30.2421 36.2399 30.2296L30.5699 28.9996C30.4057 28.9527 30.2563 28.8645 30.1358 28.7435C30.0153 28.6224 29.9279 28.4726 29.8817 28.3081C29.8356 28.1437 29.8324 27.9702 29.8723 27.8042C29.9123 27.6381 29.9941 27.4851 30.1099 27.3596L32.1099 25.4296C32.6263 24.9637 33.3051 24.7195 33.9999 24.7496C34.1812 24.7464 34.3623 24.7632 34.5399 24.7996L40.2999 25.9996C40.4197 26.0094 40.5401 26.0094 40.6599 25.9996C41.1116 25.9995 41.5455 25.8238 41.8699 25.5096L42.8699 24.5696C42.9341 24.5089 42.9802 24.4316 43.0033 24.3463C43.0263 24.261 43.0254 24.171 43.0006 24.0863C42.9757 24.0015 42.928 23.9252 42.8626 23.8658C42.7972 23.8064 42.7167 23.7662 42.6299 23.7496L32.8799 21.7496H32.6599C31.5544 21.8324 30.4717 22.1065 29.4599 22.5596C29.5093 22.6339 29.537 22.7205 29.5399 22.8096Z" fill="white"/>
</svg>
