<svg width="24" height="24" viewBox="0 0 24 24" fill="none" xmlns="http://www.w3.org/2000/svg">
<g clip-path="url(#clip0_327_1224)">
<path d="M20.7545 10.5724C21.5871 10.5585 22.6642 10.6025 23.3396 11.1413C23.5838 11.3361 23.5966 11.6389 23.6772 11.905C23.883 12.3828 23.9591 12.4181 23.664 12.9121C24.1668 13.2602 24.0369 13.7203 23.5776 14.0385C23.7346 14.2873 23.7143 14.4672 23.6469 14.7384C23.6131 14.8736 23.5287 15.1541 23.3981 15.2154C23.179 15.3183 23.1625 15.286 23.0483 15.5099C22.8568 15.8857 22.787 16.1368 22.2976 16.0975C22.1254 16.0641 21.951 16.0326 21.7814 15.9895C21.3522 15.9107 20.9288 15.8181 20.4974 15.7427C20.0271 15.6603 19.5047 15.4766 19.0319 15.4238C18.3356 15.3462 17.6676 15.2673 16.975 15.1555L15.8979 14.988C15.4043 14.9091 14.7627 14.8052 14.261 14.8233C13.5728 15.3991 13.1145 15.4406 12.2047 15.3772L5.8184 14.919L3.80129 14.7674C3.07511 14.7192 2.344 14.7055 1.63334 14.5435C1.17986 14.4403 0.943426 14.3555 0.623663 14.0146C0.0839313 13.4396 -0.0478346 12.246 0.0147988 11.4986L0.0342366 11.3096C0.0578248 11.2137 0.0823462 10.8831 0.0937437 10.773C0.12537 10.4623 0.192342 10.1561 0.293513 9.8595L0.342584 9.70765C0.395571 9.61461 0.462475 9.37662 0.509775 9.26925C0.897488 8.38897 1.34884 7.92094 2.36318 7.90846C3.36285 7.89616 4.21948 8.01027 5.19205 8.12056L11.4564 8.80661C12.2051 8.8875 12.9797 8.9229 13.7056 9.12345C14.2477 9.27321 14.4543 9.67612 14.7439 10.1013C15.0368 10.1925 15.1705 10.1554 15.4616 10.1929C16.3299 10.3041 17.2108 10.3785 18.084 10.4445C18.6943 10.4907 19.3135 10.4637 19.9205 10.5579C20.0573 10.5791 20.2308 10.5998 20.3678 10.5949C20.4521 10.609 20.6642 10.5818 20.7545 10.5724Z" fill="#082F49"/>
<path d="M13.411 9.44913C13.8821 9.52318 14.1199 9.78923 14.2921 10.1876C14.1389 10.0745 14.0232 9.92449 13.8462 9.83402C13.606 9.71122 13.3332 9.68987 13.0758 9.76449C12.6642 9.88378 12.3307 10.2908 12.1466 10.6485C11.7137 11.4893 11.5289 12.6882 11.8447 13.5874C11.9951 14.0166 12.2289 14.412 12.6633 14.617C13.0999 14.8231 13.4101 14.7347 13.835 14.5975C13.2939 15.1159 12.7547 14.9796 12.0631 14.9264C11.6245 14.8922 11.1855 14.8609 10.7465 14.8326L4.29789 14.3869L2.17959 14.2523C3.72296 13.6471 4.25165 9.12645 2.73474 8.28366L9.9017 9.05915L12.0827 9.30025C12.5136 9.34709 12.9852 9.38638 13.411 9.44913Z" fill="#FEFEFE"/>
<path d="M11.2877 12.6758C11.3266 12.7038 11.3405 12.9804 11.3541 13.0569C11.4352 13.5125 11.6153 13.9028 11.8914 14.2814C11.5455 14.281 11.1529 14.2413 10.8011 14.2235C10.0258 14.1893 9.25083 14.1484 8.47634 14.1007L3.97351 13.8694C3.81663 13.8606 3.28748 13.8304 3.15306 13.8059C3.48515 13.2942 3.71727 12.7283 3.838 12.1359C4.02208 12.1355 4.32581 12.1661 4.51665 12.1796L5.75131 12.2639C7.01154 12.3488 8.2712 12.4414 9.53021 12.5418C10.1145 12.5862 10.7032 12.643 11.2877 12.6758Z" fill="#082F49"/>
<path d="M2.04327 8.34796C2.25294 8.3872 2.33562 8.41039 2.50701 8.55149C3.66019 9.50093 3.19838 13.9691 1.53409 14.0671C1.34992 14.0319 1.24019 14.0066 1.09034 13.8785C0.622643 13.4786 0.47029 12.645 0.433494 12.0609C0.365744 10.9849 0.603992 9.55881 1.33552 8.71498C1.52808 8.49288 1.7437 8.36451 2.04327 8.34796Z" fill="#FEFEFE"/>
<path d="M1.99952 9.15373C2.21235 9.19785 2.28148 9.25677 2.41148 9.42924C2.98818 10.1943 2.72244 13.1269 1.58984 13.2554C0.403049 12.9438 0.863522 10.0542 1.53049 9.39992C1.69446 9.23907 1.76732 9.17401 1.99952 9.15373Z" fill="#082F49"/>
<path d="M21.6155 11.0294C21.6722 11.0345 21.7137 11.0409 21.7476 11.0862L21.7269 11.1235C21.5799 11.2227 20.9354 11.459 20.7271 11.5375C18.4749 12.3858 16.1193 13.0249 13.7629 13.5413C13.5426 13.5895 13.1798 13.6774 12.9507 13.6953C12.891 13.6998 12.8766 13.6636 12.847 13.6245C12.7608 13.4859 12.7297 13.3619 12.6887 13.2075C13.0026 13.1222 13.476 13.0405 13.8144 12.9613C14.8567 12.722 15.8933 12.4604 16.9235 12.1766C17.6712 11.9716 18.4136 11.7491 19.1501 11.5094C19.6057 11.3594 20.1115 11.1533 20.5769 11.0473C20.8103 10.9942 21.3479 11.0228 21.6155 11.0294Z" fill="#FEFEFE"/>
<path d="M22.9883 12.1001C23.166 12.1514 23.2295 12.4171 23.2931 12.5758C23.04 12.6939 22.3331 12.9056 22.0508 12.9966C20.8967 13.3735 19.727 13.7044 18.5447 13.9886C17.5115 14.2345 16.079 14.5723 15.0316 14.3657C14.9158 14.3474 14.764 14.3093 14.6465 14.2828C14.8894 14.2329 15.1958 14.1986 15.4475 14.157C15.8449 14.0893 16.24 14.0105 16.6327 13.9208C17.6563 13.6897 18.6727 13.4299 19.6805 13.1416C20.7885 12.8105 21.8913 12.4633 22.9883 12.1001Z" fill="#FEFEFE"/>
<path d="M22.6273 11.2C22.8221 11.262 22.9508 11.3682 23.0645 11.5302C22.8428 11.7186 22.0156 11.9977 21.6998 12.111C19.7507 12.823 17.7475 13.3888 15.7077 13.8029C15.0157 13.9397 14.3192 14.0742 13.6129 14.1225C13.3883 14.1389 13.3483 14.1124 13.1699 13.9962C14.0293 13.8572 15.0823 13.5958 15.924 13.3797C17.5398 12.9707 19.1351 12.4902 20.7047 11.9396C21.3733 11.7014 21.979 11.441 22.6273 11.2Z" fill="#FEFEFE"/>
<path d="M19.3345 10.9448C19.4265 10.9565 19.5129 10.9573 19.5726 11.0233L19.552 11.0582C19.4233 11.1354 18.824 11.3202 18.6408 11.3784C16.7391 11.9829 14.7471 12.4447 12.7857 12.8311C12.6921 12.8427 12.6945 12.8586 12.6312 12.8225C12.5555 12.6798 12.6058 12.4823 12.6264 12.3133C13.0829 12.1953 13.5822 12.1012 14.0458 11.9979L16.1516 11.5175C17.171 11.2921 18.2882 10.8851 19.3345 10.9448Z" fill="#FEFEFE"/>
<path d="M23.0827 13.112C23.1983 13.1284 23.317 13.2979 23.371 13.3875L23.364 13.6175C22.9149 13.759 22.4176 13.886 21.9608 14.0121C20.6635 14.3705 19.3276 14.7269 17.9775 14.8212C17.8075 14.833 17.4767 14.754 17.3021 14.7203C17.1622 14.6977 17.0012 14.6575 16.861 14.6256C17.5184 14.5117 18.1126 14.4232 18.7679 14.2788C20.2332 13.9559 21.643 13.5097 23.0827 13.112Z" fill="#FEFEFE"/>
<path d="M22.265 15.1127C22.3869 15.1341 22.5291 15.1691 22.6516 15.1964C22.5919 15.4049 22.5481 15.5144 22.4102 15.6827C21.5208 15.4549 20.5597 15.308 19.6785 15.0774L19.2702 14.977C19.5679 14.9493 19.9695 14.8539 20.225 14.8392C20.8347 14.8043 21.6519 14.9887 22.265 15.1127Z" fill="#FEFEFE"/>
<path d="M17.173 10.8728C17.218 10.8743 17.2158 10.8753 17.2575 10.8929L17.2404 10.916C16.5659 11.178 14.0355 10.9849 13.2081 10.9832C13.173 10.9852 13.1819 10.9835 13.1461 10.9725C13.1647 10.8865 13.3351 10.7041 13.4073 10.6433C13.4537 10.6042 13.6028 10.5796 13.6654 10.5837C14.083 10.6112 14.5138 10.6525 14.93 10.6856C15.6758 10.745 16.4307 10.7855 17.173 10.8728Z" fill="#FEFEFE"/>
<path d="M15.5273 11.3103C15.5388 11.3116 15.563 11.3203 15.5755 11.3242C15.3738 11.4798 13.0983 11.8363 12.7464 11.8842L12.7277 11.885L12.7103 11.8629C12.7307 11.7139 12.8133 11.5294 12.8741 11.3902C13.2141 11.3372 13.5144 11.3395 13.8537 11.3227C14.424 11.2944 14.9574 11.2953 15.5273 11.3103Z" fill="#FEFEFE"/>
<path d="M23.0721 14.322C23.1283 14.3277 23.258 14.3283 23.2502 14.4104C23.2568 14.482 23.1759 14.7922 23.1084 14.8183C23.0137 14.855 22.389 14.7488 22.2837 14.7352C21.9787 14.6989 21.673 14.6668 21.3669 14.639L21.0721 14.5975C21.9779 14.3674 22.0915 14.2113 23.0721 14.322Z" fill="#FEFEFE"/>
</g>
<defs>
<clipPath id="clip0_327_1224">
<rect width="24" height="24" fill="white" transform="matrix(1 0 0 -1 0 24)"/>
</clipPath>
</defs>
</svg>
