<svg width="48" height="48" viewBox="0 0 48 48" fill="none" xmlns="http://www.w3.org/2000/svg">
<path d="M27.2697 6.4205V7.3605C26.2475 7.20201 25.214 7.12842 24.1797 7.14049V6.20049C25.214 6.18842 26.2475 6.26201 27.2697 6.4205Z" fill="white"/>
<path d="M23.5508 7.73055V6.79055C23.5533 6.70866 23.5723 6.62812 23.6066 6.55372C23.6409 6.47933 23.6898 6.41261 23.7505 6.35754C23.8112 6.30248 23.8823 6.2602 23.9597 6.23322C24.037 6.20625 24.119 6.19514 24.2008 6.20055V7.14055C24.119 7.13514 24.037 7.14625 23.9597 7.17322C23.8823 7.2002 23.8112 7.24248 23.7505 7.29754C23.6898 7.35261 23.6409 7.41933 23.6066 7.49372C23.5723 7.56812 23.5533 7.64866 23.5508 7.73055Z" fill="white"/>
<path d="M27.8195 6.99945V7.93945C27.8079 7.78504 27.7361 7.64137 27.6195 7.53945C27.5236 7.44914 27.4006 7.39291 27.2695 7.37945V6.43945C27.4006 6.45291 27.5236 6.50914 27.6195 6.59945C27.7361 6.70137 27.8079 6.84504 27.8195 6.99945Z" fill="white"/>
<path d="M20.1577 7.25989V8.19989C20.1381 8.08811 20.0818 7.98606 19.9977 7.90989C19.9086 7.83574 19.8034 7.78354 19.6905 7.75749C19.5776 7.73144 19.4602 7.73226 19.3477 7.75989V6.81989C19.4625 6.79624 19.5813 6.80023 19.6944 6.83153C19.8074 6.86282 19.9113 6.92053 19.9977 6.99989C20.0763 7.06818 20.1321 7.15892 20.1577 7.25989Z" fill="white"/>
<path d="M27.8203 7V7.94C27.8252 7.98988 27.8252 8.04012 27.8203 8.09V7.15C27.8252 7.10012 27.8252 7.04988 27.8203 7Z" fill="#212C3A"/>
<path d="M23.6273 7.98008L23.6473 8.92008L23.5473 7.77008L23.5273 6.83008L23.6273 7.98008Z" fill="#212C3A"/>
<path d="M23.628 8V8.94C23.6229 9.09658 23.5577 9.24518 23.446 9.35502C23.3343 9.46486 23.1846 9.52752 23.028 9.53C22.4145 9.57584 21.8037 9.65261 21.198 9.76C21.0924 9.78129 20.9833 9.77792 20.8793 9.75017C20.7752 9.72242 20.6789 9.67103 20.598 9.6C20.5087 9.52487 20.4457 9.42331 20.418 9.31V8.37C20.4457 8.48614 20.5085 8.59091 20.598 8.67C20.6794 8.73996 20.7761 8.78995 20.8802 8.81599C20.9844 8.84203 21.0932 8.8434 21.198 8.82C21.7941 8.7203 22.3949 8.65021 22.998 8.61C23.0797 8.61268 23.1612 8.59889 23.2376 8.56944C23.3139 8.53998 23.3835 8.49548 23.4423 8.43856C23.5011 8.38165 23.5478 8.31349 23.5797 8.23815C23.6116 8.16281 23.628 8.08182 23.628 8Z" fill="white"/>
<path d="M16.0898 9.29055V8.35055C16.0893 8.23223 16.1256 8.11668 16.1937 8.01992C16.2618 7.92316 16.3583 7.84998 16.4698 7.81055C17.4041 7.39832 18.3707 7.06386 19.3599 6.81055V7.75055C18.3706 8.00373 17.404 8.3382 16.4698 8.75055C16.3591 8.79123 16.2634 8.86471 16.1955 8.96119C16.1276 9.05768 16.0908 9.17257 16.0898 9.29055Z" fill="white"/>
<path d="M20.4202 8.38977L20.4402 9.32977L20.1802 8.19977L20.1602 7.25977L20.4202 8.38977Z" fill="white"/>
<path d="M27.7987 7.13086L27.8188 8.07086L27.4888 9.20086L27.4688 8.26086L27.7987 7.13086Z" fill="#212C3A"/>
<path d="M16.0898 9.28961V8.34961C16.0931 8.4481 16.1206 8.54426 16.1698 8.62961V9.55961C16.1193 9.47847 16.0917 9.38518 16.0898 9.28961Z" fill="#212C3A"/>
<path d="M27.469 9.35977V8.41977C27.4635 8.36657 27.4635 8.31296 27.469 8.25977V9.18976C27.4641 9.24633 27.4641 9.3032 27.469 9.35977Z" fill="#212C3A"/>
<path d="M27.4688 9.35992V8.41992C27.4706 8.49333 27.4885 8.56543 27.5214 8.63111C27.5542 8.69678 27.6011 8.75442 27.6588 8.79992C27.7419 8.88017 27.8458 8.93559 27.9587 8.95992V9.89992C27.8474 9.8713 27.7445 9.81644 27.6588 9.73992C27.6011 9.69442 27.5542 9.63678 27.5214 9.57111C27.4885 9.50543 27.4706 9.43333 27.4688 9.35992Z" fill="white"/>
<path d="M31.0308 8.04102L31.0508 8.97102L30.5708 10.061L30.5508 9.12102L31.0308 8.04102Z" fill="white"/>
<path d="M34.6 9.08992V10.0299C33.7667 9.50967 32.8979 9.04854 32 8.64992C31.8362 8.58011 31.6519 8.57539 31.4847 8.6367C31.3174 8.69801 31.1799 8.82075 31.1 8.97992L31 7.99992C31.0798 7.84079 31.218 7.71865 31.3857 7.65901C31.5534 7.59938 31.7377 7.60687 31.9 7.67992C32.835 8.07971 33.7376 8.55112 34.6 9.08992Z" fill="white"/>
<path d="M34.6777 9.15984L34.6977 10.0998L34.6177 10.0298L34.5977 9.08984L34.6777 9.15984Z" fill="white"/>
<path d="M16.8184 9.62086L16.8384 10.5609L16.1684 9.56086L16.1484 8.63086L16.8184 9.62086Z" fill="#212C3A"/>
<path d="M39.0675 9.30945L39.0875 10.2395L38.9575 10.1295L38.9375 9.18945L39.0675 9.30945Z" fill="#212C3A"/>
<path d="M30.55 9.12094V10.0609C30.4729 10.2076 30.3457 10.3217 30.1914 10.3823C30.0372 10.4429 29.8663 10.446 29.71 10.3909C29.1499 10.1949 28.5789 10.0313 28 9.90094V8.96094C28.598 9.09372 29.1888 9.25727 29.77 9.45094C29.9182 9.49227 30.076 9.48213 30.2176 9.4222C30.3593 9.36226 30.4765 9.25606 30.55 9.12094Z" fill="white"/>
<path d="M16.9281 10.8411C16.9222 10.7401 16.8875 10.643 16.8281 10.5611V9.62109C16.8805 9.70569 16.9114 9.80182 16.9181 9.90109L16.9281 10.8411Z" fill="#212C3A"/>
<path d="M34.8697 9.56016V10.4902C34.8667 10.4155 34.8483 10.3424 34.8156 10.2752C34.7829 10.2081 34.7366 10.1485 34.6797 10.1002V9.16016C34.7378 9.20961 34.7848 9.27084 34.8176 9.33978C34.8503 9.40873 34.8681 9.48384 34.8697 9.56016Z" fill="white"/>
<path d="M13.3477 11.2406C13.2203 11.1061 13.0476 11.0236 12.863 11.0088C12.6784 10.994 12.4948 11.0481 12.3477 11.1606V10.2206C12.4948 10.1081 12.6784 10.054 12.863 10.0688C13.0476 10.0836 13.2203 10.1661 13.3477 10.3006V11.2406Z" fill="white"/>
<path d="M34.8687 9.56055V10.4905C34.8689 10.6347 34.8155 10.7737 34.7188 10.8805V9.94055C34.814 9.83676 34.8674 9.7014 34.8687 9.56055Z" fill="#212C3A"/>
<path d="M25.4884 8.79102V9.73102C25.3685 10.0122 25.1991 10.2696 24.9884 10.491C24.5082 10.9742 23.8682 11.2658 23.1884 11.311C22.6484 11.311 22.1184 11.421 21.5884 11.511C21.1623 11.5973 20.7219 11.5835 20.302 11.4707C19.882 11.3579 19.494 11.1492 19.1684 10.861C19.066 10.7805 18.9752 10.6863 18.8984 10.581V9.64102C18.9752 9.74629 19.066 9.84051 19.1684 9.92102C19.4947 10.2083 19.8825 10.4172 20.3019 10.5316C20.7214 10.646 21.1614 10.6629 21.5884 10.581C22.1174 10.4809 22.6516 10.4108 23.1884 10.371C23.8729 10.3328 24.5184 10.0404 24.9984 9.55102C25.2077 9.33043 25.3739 9.07267 25.4884 8.79102Z" fill="#212C3A"/>
<path d="M34.7172 9.93945L34.7372 10.8795L33.8872 11.7695L33.8672 10.8295L34.7172 9.93945Z" fill="#212C3A"/>
<path d="M14.1781 11.2708L14.1981 12.2108L13.3481 11.2408L13.3281 10.3008L14.1781 11.2708Z" fill="white"/>
<path d="M16.9097 9.90039V10.8404C16.9063 10.9487 16.8727 11.0538 16.8126 11.144C16.7525 11.2341 16.6683 11.3056 16.5697 11.3504C16.047 11.6297 15.5396 11.9368 15.0497 12.2704C14.917 12.3538 14.7613 12.3929 14.6049 12.3822C14.4486 12.3714 14.2997 12.3112 14.1797 12.2104V11.2704C14.2982 11.3742 14.4474 11.4363 14.6046 11.4471C14.7617 11.4579 14.9181 11.4169 15.0497 11.3304C15.5396 10.9968 16.047 10.6897 16.5697 10.4104C16.6691 10.3666 16.7538 10.2953 16.8141 10.205C16.8743 10.1146 16.9075 10.009 16.9097 9.90039Z" fill="white"/>
<path d="M33.7383 12.1601V11.2201C33.7381 11.076 33.7916 10.9369 33.8883 10.8301V11.7701C33.7916 11.8769 33.7381 12.016 33.7383 12.1601Z" fill="#212C3A"/>
<path d="M31.8278 10.5608V11.5008C31.5801 11.7113 31.2997 11.8802 30.9978 12.0008C30.3508 12.2295 29.6449 12.2295 28.9978 12.0008C28.492 11.8318 27.978 11.6882 27.4578 11.5708C27.0035 11.4868 26.5774 11.2909 26.2178 11.0008C25.8535 10.6667 25.6048 10.2255 25.5078 9.74078V8.80078C25.6028 9.2862 25.8518 9.72805 26.2178 10.0608C26.575 10.3704 27.0052 10.5837 27.4678 10.6808C27.9845 10.7953 28.4951 10.9355 28.9978 11.1008C29.6449 11.3295 30.3508 11.3295 30.9978 11.1008C31.3025 10.968 31.583 10.7855 31.8278 10.5608Z" fill="#212C3A"/>
<path d="M33.9995 12.5912C33.9335 12.535 33.8792 12.4663 33.8398 12.3891C33.8003 12.3118 33.7764 12.2276 33.7695 12.1412V11.2012C33.7764 11.2876 33.8003 11.3718 33.8398 11.4491C33.8792 11.5263 33.9335 11.595 33.9995 11.6512V12.5912Z" fill="white"/>
<path d="M12.3778 11.1607C11.6167 11.7672 10.9075 12.4362 10.2578 13.1607V12.2207C10.9075 11.4962 11.6167 10.8272 12.3778 10.2207V11.1607Z" fill="white"/>
<path d="M10.1094 13.5307V12.5907C10.1113 12.4529 10.1648 12.3209 10.2594 12.2207V13.1607C10.1648 13.2609 10.1113 13.3929 10.1094 13.5307Z" fill="white"/>
<path d="M38.1602 12.9997C38.0237 12.8746 37.8453 12.8052 37.6602 12.8052C37.475 12.8052 37.2966 12.8746 37.1602 12.9997V12.0597C37.2966 11.9346 37.475 11.8652 37.6602 11.8652C37.8453 11.8652 38.0237 11.9346 38.1602 12.0597V12.9997Z" fill="white"/>
<path d="M10.1094 13.5298V12.5898C10.1111 12.6647 10.129 12.7383 10.1618 12.8056C10.1946 12.8729 10.2415 12.9323 10.2994 12.9798V13.9198C10.2415 13.8723 10.1946 13.8129 10.1618 13.7456C10.129 13.6783 10.1111 13.6047 10.1094 13.5298Z" fill="#212C3A"/>
<path d="M10.3773 13.0605L10.3973 14.0005L10.2973 13.9205L10.2773 12.9805L10.3773 13.0605Z" fill="#212C3A"/>
<path d="M35.0788 13.4904C34.7268 13.1688 34.3561 12.8683 33.9688 12.5904V11.6504C34.3621 11.9371 34.7321 12.2371 35.0788 12.5504V13.4904Z" fill="white"/>
<path d="M35.3081 13.7008L35.0781 13.4908V12.5508L35.3081 12.7708V13.7008Z" fill="white"/>
<path d="M31.7383 12.1995V11.2695C31.7487 11.5712 31.8216 11.8673 31.9524 12.1393C32.0833 12.4113 32.2691 12.6531 32.4983 12.8495V13.7895C32.2684 13.5916 32.0821 13.3481 31.9513 13.0744C31.8205 12.8006 31.7479 12.5027 31.7383 12.1995Z" fill="#212C3A"/>
<path d="M37.1805 12L37.2005 12.94L36.2405 13.73L36.2305 12.79L37.1805 12Z" fill="white"/>
<path d="M18.9077 9.83008V10.7701C18.9122 10.9967 18.8818 11.2227 18.8177 11.4401C18.7168 11.7503 18.5552 12.0374 18.3423 12.2846C18.1294 12.5319 17.8695 12.7343 17.5777 12.8801C17.1198 13.1181 16.6757 13.3819 16.2477 13.6701C15.82 13.9449 15.3295 14.1065 14.8222 14.1397C14.3149 14.1729 13.8075 14.0767 13.3477 13.8601V12.9201C13.8075 13.1367 14.3149 13.2329 14.8222 13.1997C15.3295 13.1664 15.82 13.0049 16.2477 12.7301C16.6757 12.4419 17.1198 12.1781 17.5777 11.9401C17.8705 11.7957 18.1312 11.5937 18.3443 11.3463C18.5573 11.0989 18.7183 10.8111 18.8177 10.5001C18.8825 10.2828 18.9128 10.0567 18.9077 9.83008Z" fill="#212C3A"/>
<path d="M32.6605 13.0096L32.6805 13.9496L32.5005 13.7896L32.4805 12.8496L32.6605 13.0096Z" fill="#212C3A"/>
<path d="M36.2208 12.791V13.731C36.0915 13.8384 35.9288 13.8971 35.7608 13.8971C35.5928 13.8971 35.43 13.8384 35.3008 13.731V12.791C35.43 12.8984 35.5928 12.9571 35.7608 12.9571C35.9288 12.9571 36.0915 12.8984 36.2208 12.791Z" fill="white"/>
<path d="M11.4689 13.7105L11.4889 14.6405L10.3989 14.0005L10.3789 13.0605L11.4689 13.7105Z" fill="#212C3A"/>
<path d="M11.5787 13.7809L11.5988 14.7209L11.4887 14.6409L11.4688 13.7109L11.5787 13.7809Z" fill="#212C3A"/>
<path d="M11.7581 14.1713V15.1013C11.7556 15.029 11.7384 14.958 11.7074 14.8926C11.6765 14.8273 11.6325 14.769 11.5781 14.7213V13.7812C11.6337 13.8301 11.6784 13.89 11.7094 13.9572C11.7404 14.0244 11.757 14.0973 11.7581 14.1713Z" fill="#212C3A"/>
<path d="M33.8689 14.0002V14.9402L33.6289 14.7102C33.3289 14.4402 32.9989 14.1802 32.6289 13.9302V12.9902C32.9689 13.2402 33.2989 13.5002 33.6289 13.7702L33.8689 14.0002Z" fill="#212C3A"/>
<path d="M39.998 14.5905V15.5305C39.9909 15.4345 39.9599 15.3417 39.908 15.2605C39.3953 14.4577 38.8131 13.7014 38.168 13.0005V12.0605C38.8008 12.7677 39.3729 13.5271 39.878 14.3305C39.9391 14.4058 39.9803 14.4952 39.998 14.5905Z" fill="white"/>
<path d="M36.6606 14.5705V15.5105C36.1932 15.6651 35.6945 15.6994 35.2103 15.6102C34.7262 15.5211 34.2723 15.3114 33.8906 15.0005V14.0605C34.2714 14.3731 34.7253 14.5838 35.2098 14.673C35.6943 14.7622 36.1935 14.7269 36.6606 14.5705Z" fill="#212C3A"/>
<path d="M39.9977 14.5898V15.5298C39.9931 15.6509 39.9527 15.7678 39.8814 15.8658C39.8102 15.9637 39.7114 16.0382 39.5977 16.0798V15.1398C39.7122 15.0994 39.8117 15.0252 39.8831 14.927C39.9545 14.8288 39.9945 14.7112 39.9977 14.5898Z" fill="#212C3A"/>
<path d="M8.65828 15.65V16.59C8.49581 16.5119 8.30947 16.4995 8.1381 16.5554C7.96672 16.6113 7.8235 16.7311 7.73828 16.89V15.95C7.82528 15.7929 7.96855 15.6746 8.13926 15.619C8.30996 15.5633 8.49542 15.5744 8.65828 15.65Z" fill="white"/>
<path d="M9.82016 16.1704L9.84016 17.1104L8.68016 16.5904L8.66016 15.6504L9.82016 16.1704Z" fill="white"/>
<path d="M39.5494 15.1406L39.5694 16.0806L38.3794 16.5506L38.3594 15.6106L39.5494 15.1406Z" fill="#212C3A"/>
<path d="M11.7603 14.1699V15.0999C11.7637 15.2272 11.7211 15.3515 11.6403 15.4499C11.303 15.9 10.9893 16.3673 10.7003 16.8499C10.6095 16.992 10.4705 17.0965 10.3089 17.1442C10.1472 17.192 9.97372 17.1798 9.82031 17.1099V16.1699C9.97297 16.2443 10.1479 16.2588 10.3108 16.2107C10.4736 16.1626 10.6126 16.0553 10.7003 15.9099C10.9893 15.4273 11.303 14.96 11.6403 14.5099C11.7196 14.4145 11.7621 14.2939 11.7603 14.1699Z" fill="white"/>
<path d="M38 17.0994V16.1594C38.001 16.0388 38.039 15.9215 38.1087 15.8232C38.1784 15.7248 38.2766 15.6502 38.39 15.6094V16.5494C38.2766 16.5902 38.1784 16.6648 38.1087 16.7632C38.039 16.8615 38.001 16.9788 38 17.0994Z" fill="#212C3A"/>
<path d="M13.75 14.1406V15.0706C13.7623 15.5624 13.6033 16.0432 13.3 16.4306C13.0061 16.8231 12.7324 17.2303 12.48 17.6506C12.1544 18.2155 11.6248 18.6342 11 18.8206V17.8806C11.6508 17.7103 12.2079 17.2898 12.55 16.7106C12.8024 16.2903 13.0761 15.8831 13.37 15.4906C13.6484 15.0978 13.7826 14.621 13.75 14.1406Z" fill="#212C3A"/>
<path d="M10.9297 17.8809V18.8209C10.6061 18.9194 10.267 18.9567 9.92969 18.9309L9.99969 18.0009C10.3141 18.011 10.6281 17.9705 10.9297 17.8809Z" fill="#212C3A"/>
<path d="M7.74078 16V16.94C7.34937 17.7764 7.03475 18.6467 6.80078 19.54V18.6C7.03475 17.7067 7.34937 16.8364 7.74078 16Z" fill="white"/>
<path d="M38 17.1002V16.1602C38.0118 16.2387 38.0319 16.3158 38.06 16.3902C38.3148 16.881 38.5353 17.3889 38.72 17.9102V18.8502C38.5353 18.3289 38.3148 17.821 38.06 17.3302C38.0319 17.2558 38.0118 17.1787 38 17.1002Z" fill="white"/>
<path d="M6.80025 19.6208V18.6908C6.79054 18.6446 6.79054 18.5969 6.80025 18.5508V19.4908C6.79136 19.5337 6.79136 19.5779 6.80025 19.6208Z" fill="white"/>
<path d="M40.7578 17.9297L40.7778 18.8697L39.5278 19.2197L39.5078 18.2797L40.7578 17.9297Z" fill="white"/>
<path d="M39.5075 18.2802V19.2202C39.393 19.2542 39.2718 19.2593 39.1548 19.2349C39.0378 19.2104 38.9288 19.1573 38.8375 19.0802C38.7674 19.0186 38.7155 18.9391 38.6875 18.8502V17.9102C38.7155 17.9991 38.7674 18.0786 38.8375 18.1402C38.9288 18.2173 39.0378 18.2704 39.1548 18.2949C39.2718 18.3193 39.393 18.3143 39.5075 18.2802Z" fill="white"/>
<path d="M41.5978 18.3597V19.2997C41.5757 19.1894 41.5156 19.0903 41.4278 19.0197C41.3375 18.9409 41.2288 18.8859 41.1118 18.8597C40.9948 18.8335 40.8731 18.837 40.7578 18.8697V17.9297C40.8731 17.897 40.9948 17.8935 41.1118 17.9197C41.2288 17.9459 41.3375 18.0009 41.4278 18.0797C41.5116 18.1536 41.5709 18.2513 41.5978 18.3597Z" fill="white"/>
<path d="M6.80078 19.6195V18.6895C6.80238 18.7658 6.82014 18.8409 6.85289 18.9098C6.88564 18.9788 6.93264 19.04 6.99078 19.0895C7.09592 19.1839 7.22975 19.2403 7.37078 19.2495V20.1895C7.22949 20.1698 7.09905 20.1028 7.00078 19.9995C6.94366 19.9528 6.89652 19.8951 6.86216 19.8298C6.8278 19.7645 6.80693 19.693 6.80078 19.6195Z" fill="#212C3A"/>
<path d="M8.63984 19.42L8.65984 20.36L7.36984 20.19L7.33984 19.25L8.63984 19.42Z" fill="#212C3A"/>
<path d="M9.19891 19.9999V20.9399C9.20047 20.8592 9.18321 20.7792 9.14849 20.7063C9.11378 20.6334 9.06256 20.5696 8.99891 20.5199C8.89393 20.4315 8.76526 20.3758 8.62891 20.3599V19.4199C8.76746 19.4348 8.89737 19.4945 8.99891 19.5899C9.06237 19.6375 9.11361 19.6995 9.14839 19.7708C9.18316 19.8421 9.20048 19.9206 9.19891 19.9999Z" fill="#212C3A"/>
<path d="M9.18906 20.0801V21.0101C9.10943 21.5503 9.05936 22.0944 9.03906 22.6401V21.7001C9.05881 21.1577 9.10889 20.6169 9.18906 20.0801Z" fill="white"/>
<path d="M9.19922 20V20.94C9.20463 20.9731 9.20463 21.0069 9.19922 21.04V20.11C9.20416 20.0735 9.20416 20.0365 9.19922 20Z" fill="white"/>
<path d="M36 17.1412V16.2012C36.011 16.5218 36.093 16.836 36.24 17.1212C36.4586 17.5483 36.649 17.9892 36.81 18.4412C36.9344 18.8041 37.1516 19.1281 37.44 19.3812C37.8886 19.772 38.4479 20.0132 39.04 20.0712L39 21.0012C38.4079 20.9432 37.8486 20.702 37.4 20.3112C37.114 20.056 36.8973 19.7327 36.77 19.3712C36.611 18.9184 36.4205 18.4774 36.2 18.0512C36.0682 17.7659 36 17.4554 36 17.1412Z" fill="#212C3A"/>
<path d="M11.2003 19.9395V20.8795C11.2202 21.0053 11.2202 21.1336 11.2003 21.2595C11.1268 21.7295 11.0834 22.2038 11.0703 22.6795V21.7395C11.0834 21.2638 11.1268 20.7895 11.2003 20.3195C11.2205 20.1936 11.2205 20.0653 11.2003 19.9395Z" fill="#212C3A"/>
<path d="M42.0003 21.0909V22.0209C41.9474 21.1088 41.8034 20.2043 41.5703 19.3209V18.3809C41.8034 19.2643 41.9474 20.1688 42.0003 21.0809V21.0909Z" fill="white"/>
<path d="M8.37078 22.27L8.39078 23.21L7.08078 23.19L7.05078 22.25L8.37078 22.27Z" fill="white"/>
<path d="M8.99813 21.7012V22.6412C8.98046 22.8038 8.90118 22.9535 8.77657 23.0595C8.65197 23.1655 8.4915 23.2198 8.32812 23.2112V22.2712C8.49208 22.2823 8.65391 22.229 8.77908 22.1225C8.90425 22.016 8.98285 21.8648 8.99813 21.7012Z" fill="white"/>
<path d="M44.7603 21.5105V22.4505C44.6938 20.135 44.1548 17.8576 43.1763 15.7579C42.1978 13.6583 40.8006 11.7807 39.0703 10.2405V9.31055C40.7994 10.8496 42.1959 12.7255 43.1743 14.8233C44.1528 16.9212 44.6924 19.1967 44.7603 21.5105Z" fill="#212C3A"/>
<path d="M3.66976 23.351V22.411C3.63338 19.8927 4.15211 17.3973 5.1891 15.1021C6.22609 12.8069 7.75588 10.7682 9.66976 9.13104C17.8298 2.00104 30.9998 2.00104 38.9398 9.19104V10.131C30.9998 2.94104 17.8498 2.90104 9.71976 10.071C7.79676 11.7035 6.25753 13.74 5.21178 16.0354C4.16604 18.3309 3.63952 20.8288 3.66976 23.351Z" fill="#212C3A"/>
<path d="M41.3491 21.6704L41.3691 22.6104L40.0591 22.5904L40.0391 21.6504L41.3491 21.6704Z" fill="#212C3A"/>
<path d="M42.0003 21.0898V22.0198C41.9966 22.104 41.9759 22.1866 41.9392 22.2624C41.9026 22.3383 41.8509 22.4059 41.7872 22.4611C41.7236 22.5163 41.6494 22.558 41.5691 22.5836C41.4888 22.6091 41.4042 22.6181 41.3203 22.6098V21.6698C41.4036 21.6795 41.488 21.672 41.5683 21.6476C41.6485 21.6232 41.7229 21.5825 41.7867 21.528C41.8505 21.4736 41.9024 21.4066 41.9392 21.3312C41.9759 21.2558 41.9968 21.1736 42.0003 21.0898Z" fill="#212C3A"/>
<path d="M6.39844 23.7801V22.8401C6.40348 22.7564 6.42519 22.6746 6.46228 22.5994C6.49936 22.5242 6.55109 22.4571 6.61442 22.4022C6.67775 22.3472 6.75142 22.3055 6.8311 22.2794C6.91078 22.2533 6.99487 22.2433 7.07844 22.2501V23.1901C6.99459 23.1819 6.90994 23.1908 6.82967 23.2164C6.74939 23.242 6.67517 23.2836 6.61153 23.3389C6.54789 23.3941 6.49618 23.4617 6.45954 23.5375C6.4229 23.6134 6.40211 23.696 6.39844 23.7801Z" fill="white"/>
<path d="M39.9981 21.6513V22.5913C39.8342 22.5801 39.6723 22.6335 39.5472 22.74C39.422 22.8465 39.3434 22.9977 39.3281 23.1613V22.2213C39.3458 22.0586 39.4251 21.9089 39.5497 21.8029C39.6743 21.6969 39.8348 21.6427 39.9981 21.6513Z" fill="#212C3A"/>
<path d="M10.9977 21.7402V22.6802C10.9844 22.996 10.9045 23.3053 10.7631 23.588C10.6218 23.8706 10.4223 24.1202 10.1777 24.3202C9.93315 24.5279 9.65152 24.6874 9.34766 24.7902V23.8502C9.64922 23.7469 9.9302 23.5912 10.1777 23.3902C10.4216 23.1874 10.6206 22.9359 10.7618 22.6518C10.903 22.3676 10.9833 22.0572 10.9977 21.7402Z" fill="#212C3A"/>
<path d="M39.367 22.2207V23.1607C39.3544 23.704 39.3009 24.2455 39.207 24.7807V23.8507C39.3004 23.312 39.3539 22.7672 39.367 22.2207Z" fill="#212C3A"/>
<path d="M39.2305 24.8795V23.9395C39.2314 24.0149 39.2479 24.0894 39.2789 24.1582C39.3098 24.227 39.3546 24.2887 39.4105 24.3395C39.5194 24.4295 39.6507 24.4883 39.7905 24.5095V25.4495C39.6485 25.4292 39.5161 25.3664 39.4105 25.2695C39.3549 25.2206 39.3102 25.1607 39.2792 25.0935C39.2482 25.0263 39.2316 24.9534 39.2305 24.8795Z" fill="white"/>
<path d="M41.0595 24.6698L41.0795 25.6098L39.7895 25.4498L39.7695 24.5098L41.0595 24.6698Z" fill="white"/>
<path d="M6.81063 25.5694V26.5094C6.58158 25.6221 6.44089 24.7143 6.39062 23.7994V22.8594C6.44089 23.7744 6.58158 24.6821 6.81063 25.5694Z" fill="#212C3A"/>
<path d="M41.6286 25.2299V26.1699C41.617 26.0155 41.5452 25.8718 41.4286 25.7699C41.3261 25.6775 41.1961 25.6213 41.0586 25.6099V24.6699C41.1961 24.6813 41.3261 24.7375 41.4286 24.8299C41.5452 24.9318 41.617 25.0755 41.6286 25.2299Z" fill="white"/>
<path d="M8.89844 25.6406L8.91844 26.5806L7.66844 26.9306L7.64844 25.9906L8.89844 25.6406Z" fill="#212C3A"/>
<path d="M7.64813 26.0003V26.9403C7.53483 26.9666 7.41693 26.9658 7.304 26.938C7.19106 26.9102 7.08627 26.8562 6.99813 26.7803C6.91774 26.7076 6.85892 26.6142 6.82812 26.5103V25.5703C6.85867 25.6772 6.91738 25.7739 6.99813 25.8503C7.08716 25.9245 7.19237 25.9767 7.30526 26.0027C7.41816 26.0288 7.5356 26.0279 7.64813 26.0003Z" fill="#212C3A"/>
<path d="M37.2305 24.9107V23.9707C37.2416 24.2775 37.3157 24.5787 37.4482 24.8557C37.5807 25.1327 37.7686 25.3794 38.0005 25.5807C38.1555 25.7086 38.3192 25.8255 38.4905 25.9307V26.8707C38.3168 26.7654 38.1528 26.645 38.0005 26.5107C37.768 26.3122 37.5795 26.0673 37.4469 25.7918C37.3143 25.5164 37.2406 25.2163 37.2305 24.9107Z" fill="#212C3A"/>
<path d="M10.438 27.7699V28.6999C10.4368 28.6227 10.4161 28.547 10.378 28.4799C10.1299 28.0023 9.91607 27.5077 9.73797 26.9999C9.70353 26.9117 9.64871 26.8328 9.57797 26.7699C9.48866 26.6928 9.38133 26.6396 9.26595 26.6151C9.15056 26.5906 9.03087 26.5957 8.91797 26.6299V25.6899C9.03105 25.6575 9.15033 25.6534 9.26538 25.6778C9.38044 25.7022 9.48776 25.7544 9.57797 25.8299C9.64871 25.8928 9.70353 25.9717 9.73797 26.0599C9.92032 26.5853 10.1409 27.0967 10.398 27.5899C10.4233 27.6466 10.4369 27.7078 10.438 27.7699Z" fill="#212C3A"/>
<path d="M10.4391 27.7695V28.6995C10.4359 28.8209 10.3959 28.9385 10.3245 29.0367C10.2531 29.1349 10.1536 29.2091 10.0391 29.2495V28.3095C10.152 28.2697 10.2505 28.197 10.3218 28.1008C10.393 28.0045 10.4339 27.8892 10.4391 27.7695Z" fill="white"/>
<path d="M12.4395 27.7207V28.6607C12.4433 28.9625 12.3854 29.262 12.2695 29.5407V28.6007C12.3854 28.322 12.4433 28.0225 12.4395 27.7207Z" fill="#212C3A"/>
<path d="M10.0394 28.3105L10.0594 29.2505L8.87938 29.7205L8.85938 28.7905L10.0394 28.3105Z" fill="white"/>
<path d="M39.7598 28.27L39.7798 29.21L38.6098 28.69L38.5898 27.75L39.7598 28.27Z" fill="#212C3A"/>
<path d="M41.6273 25.2305V26.1705C41.6315 26.217 41.6315 26.2639 41.6273 26.3105C41.3979 27.2052 41.0831 28.0759 40.6873 28.9105C40.604 29.0686 40.4626 29.1882 40.2929 29.2442C40.1232 29.3001 39.9383 29.2881 39.7773 29.2105V28.2705C39.9383 28.3481 40.1232 28.3601 40.2929 28.3042C40.4626 28.2482 40.604 28.1286 40.6873 27.9705C41.0831 27.1359 41.3979 26.2652 41.6273 25.3705C41.6322 25.3239 41.6322 25.277 41.6273 25.2305Z" fill="#212C3A"/>
<path d="M8.48828 30.2712V29.3312C8.48991 29.2122 8.52692 29.0964 8.59459 28.9984C8.66225 28.9005 8.75753 28.8249 8.86828 28.7812V29.7212C8.75753 29.7649 8.66225 29.8405 8.59459 29.9384C8.52692 30.0364 8.48991 30.1522 8.48828 30.2712Z" fill="white"/>
<path d="M12.27 28.5996V29.5396C12.1424 29.8184 11.9664 30.0724 11.75 30.2896V29.3496C11.9664 29.1324 12.1424 28.8784 12.27 28.5996Z" fill="#212C3A"/>
<path d="M8.48849 30.2701V29.3301C8.48558 29.4263 8.51362 29.521 8.56849 29.6001V30.5401C8.51362 30.461 8.48558 30.3663 8.48849 30.2701Z" fill="#212C3A"/>
<path d="M36.6691 30.7007V29.7607C36.669 29.637 36.7114 29.517 36.7891 29.4207C37.1211 28.9643 37.4282 28.4903 37.7091 28.0007C37.7999 27.8587 37.9389 27.7542 38.1006 27.7064C38.2622 27.6587 38.4357 27.6708 38.5891 27.7407V28.6807C38.4361 28.6086 38.2619 28.5953 38.0996 28.6432C37.9374 28.6912 37.7984 28.797 37.7091 28.9407C37.4214 29.4273 37.1076 29.898 36.7691 30.3507C36.6963 30.4523 36.6609 30.576 36.6691 30.7007Z" fill="#212C3A"/>
<path d="M36.668 30.6998V29.7598C36.6785 29.9094 36.7466 30.0492 36.858 30.1498V31.0898C36.7466 30.9892 36.6785 30.8494 36.668 30.6998Z" fill="white"/>
<path d="M36.9398 30.2204L36.9598 31.1604L36.8598 31.0904L36.8398 30.1504L36.9398 30.2204Z" fill="white"/>
<path d="M13.1197 31.1508V32.0908C12.9873 31.982 12.8211 31.9224 12.6497 31.9224C12.4782 31.9224 12.3121 31.982 12.1797 32.0908V31.1508C12.3121 31.042 12.4782 30.9824 12.6497 30.9824C12.8211 30.9824 12.9873 31.042 13.1197 31.1508Z" fill="#212C3A"/>
<path d="M38.0175 30.8607L38.0375 31.8007L36.9575 31.1607L36.9375 30.2207L38.0175 30.8607Z" fill="white"/>
<path d="M38.1295 30.9394L38.1495 31.8794L38.0395 31.7994L38.0195 30.8594L38.1295 30.9394Z" fill="white"/>
<path d="M34.6797 30.731V29.791C34.6795 30.2253 34.816 30.6486 35.0697 31.001V31.941C34.816 31.5886 34.6795 31.1653 34.6797 30.731Z" fill="#212C3A"/>
<path d="M10.3108 31.9096V32.8496C9.65248 32.1369 9.06318 31.3635 8.55078 30.5396V29.5996C9.06067 30.4252 9.65015 31.1989 10.3108 31.9096Z" fill="#212C3A"/>
<path d="M38.3384 32.2695C38.3343 32.1951 38.3154 32.1223 38.2827 32.0553C38.2501 31.9883 38.2045 31.9286 38.1484 31.8795V30.9395C38.2622 31.0424 38.3305 31.1862 38.3384 31.3395V32.2695Z" fill="white"/>
<path d="M12.1805 31.1309L12.2005 32.0709L11.2505 32.8609L11.2305 31.9209L12.1805 31.1309Z" fill="#212C3A"/>
<path d="M11.2286 31.9199V32.8599C11.0993 32.9673 10.9366 33.026 10.7686 33.026C10.6006 33.026 10.4378 32.9673 10.3086 32.8599V31.9199C10.4378 32.0273 10.6006 32.086 10.7686 32.086C10.9366 32.086 11.0993 32.0273 11.2286 31.9199Z" fill="#212C3A"/>
<path d="M14.5072 32.3204V33.2504C14.0672 32.9304 13.6972 32.6204 13.3372 32.3104L13.1172 32.0904V31.1504C13.1872 31.2304 13.2672 31.3004 13.3372 31.3704C13.6972 31.6904 14.0672 32.0004 14.5072 32.3204Z" fill="#212C3A"/>
<path d="M14.6878 32.7003V33.6403C14.6867 33.5663 14.6701 33.4934 14.6391 33.4263C14.6081 33.3591 14.5634 33.2992 14.5078 33.2503V32.3203C14.5641 32.3663 14.6095 32.4243 14.6406 32.49C14.6718 32.5558 14.6879 32.6276 14.6878 32.7003Z" fill="#212C3A"/>
<path d="M14.7108 33.6607C14.7101 33.7299 14.6956 33.7983 14.6681 33.8618C14.6406 33.9254 14.6007 33.9828 14.5508 34.0307V33.0907C14.6007 33.0428 14.6406 32.9854 14.6681 32.9218C14.6956 32.8583 14.7101 32.7899 14.7108 32.7207V33.6607Z" fill="white"/>
<path d="M34.2872 32.6995V33.6395C34.168 33.5208 34.012 33.4462 33.8447 33.428C33.6775 33.4098 33.5091 33.4491 33.3672 33.5395V32.5995C33.5096 32.5109 33.6777 32.4726 33.8445 32.4907C34.0112 32.5088 34.1671 32.5824 34.2872 32.6995Z" fill="#212C3A"/>
<path d="M16.6998 32.6699V33.6099C16.7025 33.8445 16.6653 34.0778 16.5898 34.2999V33.3599C16.6653 33.1378 16.7025 32.9045 16.6998 32.6699Z" fill="#212C3A"/>
<path d="M14.5392 33.0898L14.5492 34.0298L13.7092 34.9098L13.6992 33.9698L14.5392 33.0898Z" fill="white"/>
<path d="M35.1291 33.6812L35.1491 34.6212L34.3091 33.6412L34.2891 32.7012L35.1291 33.6812Z" fill="#212C3A"/>
<path d="M13.5586 35.3107V34.3707C13.5586 34.2218 13.6159 34.0785 13.7186 33.9707V34.9107C13.6159 35.0185 13.5586 35.1618 13.5586 35.3107Z" fill="white"/>
<path d="M38.3189 31.3398V32.2698C38.3161 32.4086 38.2668 32.5424 38.1789 32.6498C37.5223 33.3747 36.8065 34.0437 36.0389 34.6498C35.9104 34.7546 35.7497 34.8118 35.5839 34.8118C35.4181 34.8118 35.2574 34.7546 35.1289 34.6498V33.7098C35.2574 33.8146 35.4181 33.8718 35.5839 33.8718C35.7497 33.8718 35.9104 33.8146 36.0389 33.7098C36.8065 33.1037 37.5223 32.4347 38.1789 31.7098C38.2668 31.6063 38.3162 31.4756 38.3189 31.3398Z" fill="#212C3A"/>
<path d="M31.5195 35.0006V34.0606C31.5231 33.9537 31.5557 33.8497 31.6139 33.7599C31.672 33.6701 31.7534 33.5977 31.8495 33.5506C32.3795 33.2706 32.8995 32.9606 33.3895 32.6406V33.5806C32.8995 33.9006 32.3895 34.2106 31.8495 34.4906C31.7534 34.5377 31.672 34.6101 31.6139 34.6999C31.5557 34.7897 31.5231 34.8937 31.5195 35.0006Z" fill="#212C3A"/>
<path d="M3.66797 23.3502V22.4102C3.73195 24.7242 4.26785 27.0008 5.24284 29.1003C6.21782 31.1999 7.61134 33.0782 9.33797 34.6202V35.5502C7.60979 34.0116 6.21511 32.1354 5.23994 30.0372C4.26477 27.9389 3.72978 25.6631 3.66797 23.3502Z" fill="white"/>
<path d="M29.5193 35.0005V34.0605C29.5144 34.1305 29.5144 34.2006 29.5193 34.2705V35.2105C29.5144 35.1406 29.5144 35.0705 29.5193 35.0005Z" fill="#212C3A"/>
<path d="M9.45984 34.7311L9.47984 35.6711L9.35984 35.5511L9.33984 34.6211L9.45984 34.7311Z" fill="white"/>
<path d="M31.5195 35.0005V34.0605C31.5236 34.1603 31.5547 34.2571 31.6095 34.3405V35.2805C31.556 35.1965 31.525 35.1001 31.5195 35.0005Z" fill="white"/>
<path d="M13.5586 35.3111V34.3711C13.5597 34.4451 13.5763 34.518 13.6073 34.5851C13.6383 34.6523 13.683 34.7122 13.7386 34.7611V35.7011C13.683 35.6523 13.6383 35.5923 13.6073 35.5251C13.5763 35.458 13.5597 35.3851 13.5586 35.3111Z" fill="#212C3A"/>
<path d="M13.8187 34.8198L13.8387 35.7598L13.7387 35.6998L13.7188 34.7598L13.8187 34.8198Z" fill="#212C3A"/>
<path d="M18.6994 34.4796V35.4196C18.5434 35.3601 18.3709 35.3609 18.2155 35.4219C18.0601 35.483 17.9331 35.5998 17.8594 35.7496V34.8096C17.9331 34.6598 18.0601 34.543 18.2155 34.4819C18.3709 34.4209 18.5434 34.4201 18.6994 34.4796Z" fill="#212C3A"/>
<path d="M20.4692 34.9995V35.9395C19.8692 35.8095 19.2792 35.6395 18.6992 35.4595V34.5195C19.2806 34.7099 19.8713 34.8701 20.4692 34.9995Z" fill="#212C3A"/>
<path d="M44.7805 22.4498C44.8074 24.973 44.2794 27.4712 43.2339 29.7678C42.1885 32.0644 40.651 34.1031 38.7305 35.7398V34.7998C40.6435 33.1597 42.1726 31.1191 43.2095 28.8225C44.2463 26.5258 44.7656 24.0294 44.7305 21.5098C44.7705 21.7998 44.7805 22.1698 44.7805 22.4498Z" fill="white"/>
<path d="M20.9978 35.5209V36.4509C20.9962 36.3746 20.9785 36.2995 20.9457 36.2306C20.913 36.1616 20.866 36.1004 20.8078 36.0509C20.7212 35.9777 20.6184 35.9263 20.5078 35.9009V34.9609C20.6184 34.9863 20.7212 35.0377 20.8078 35.1109C20.8667 35.1619 20.9141 35.2248 20.9469 35.2955C20.9796 35.3662 20.997 35.443 20.9978 35.5209Z" fill="#212C3A"/>
<path d="M32.2498 35.3008L32.2698 36.2308L31.6098 35.2408L31.5898 34.3008L32.2498 35.3008Z" fill="white"/>
<path d="M1.67969 23.3912V22.4512C1.7515 24.9902 2.3401 27.4879 3.40953 29.7918C4.47896 32.0957 6.00678 34.1575 7.89969 35.8512V36.7912C6.00769 35.0967 4.48049 33.0348 3.41113 30.7311C2.34178 28.4273 1.75267 25.93 1.67969 23.3912Z" fill="#212C3A"/>
<path d="M21 35.5195V36.4495C21.0049 36.4994 21.0049 36.5497 21 36.5995V35.6695C21.0046 35.6196 21.0046 35.5694 21 35.5195Z" fill="white"/>
<path d="M28.0005 35.5296V36.4696C27.9748 36.3578 27.9155 36.2566 27.8305 36.1796C27.7489 36.1093 27.6529 36.0577 27.5493 36.0283C27.4456 35.999 27.3368 35.9926 27.2305 36.0096V35.0696C27.3368 35.0552 27.445 35.0628 27.5482 35.092C27.6514 35.1213 27.7475 35.1715 27.8305 35.2396C27.9132 35.3185 27.9721 35.4189 28.0005 35.5296Z" fill="#212C3A"/>
<path d="M8.03844 35.9696L8.04844 36.9096L7.91844 36.7896L7.89844 35.8496L8.03844 35.9696Z" fill="#212C3A"/>
<path d="M17.8589 34.8105L17.8789 35.7505L17.3989 36.8305L17.3789 35.8905L17.8589 34.8105Z" fill="#212C3A"/>
<path d="M32.34 35.5708V36.5108C32.3393 36.4135 32.3078 36.319 32.25 36.2408V35.3008C32.3078 35.379 32.3393 35.4735 32.34 35.5708Z" fill="white"/>
<path d="M24.8008 36.8503V35.9103C24.806 35.752 24.8725 35.602 24.9864 35.4918C25.1002 35.3817 25.2524 35.3202 25.4108 35.3203C26.0208 35.2603 26.6308 35.1903 27.2408 35.0703V36.0103C26.6358 36.1247 26.0248 36.2048 25.4108 36.2503C25.2515 36.2528 25.0993 36.3165 24.9857 36.4282C24.8721 36.5399 24.8059 36.6911 24.8008 36.8503Z" fill="#212C3A"/>
<path d="M17.3803 35.8903V36.8303C17.2988 36.9877 17.1599 37.1076 16.9923 37.1654C16.8248 37.2231 16.6414 37.2141 16.4803 37.1403C15.557 36.7547 14.6673 36.2931 13.8203 35.7603V34.8203C14.6693 35.3524 15.5587 35.8172 16.4803 36.2103C16.643 36.2809 16.8263 36.2871 16.9934 36.2277C17.1604 36.1683 17.2987 36.0477 17.3803 35.8903Z" fill="#212C3A"/>
<path d="M32.3388 35.5703V36.5103C32.3393 36.6285 32.3043 36.7441 32.2383 36.8422C32.1723 36.9403 32.0784 37.0162 31.9688 37.0603V36.1203C32.0784 36.0762 32.1723 36.0003 32.2383 35.9022C32.3043 35.8041 32.3393 35.6885 32.3388 35.5703Z" fill="#212C3A"/>
<path d="M46.7506 21.4707V22.4107C46.7892 25.179 46.2168 27.9217 45.0743 30.4436C43.9318 32.9654 42.2472 35.2043 40.1406 37.0007V36.0607C42.2483 34.2652 43.9336 32.0265 45.0762 29.5044C46.2188 26.9824 46.7906 24.2392 46.7506 21.4707Z" fill="#212C3A"/>
<path d="M20.9494 35.6602L20.9594 36.6002L20.6294 37.7302L20.6094 36.7902L20.9494 35.6602Z" fill="white"/>
<path d="M28.2405 36.6613L28.2605 37.6012L28.0005 36.4713L27.9805 35.5312L28.2405 36.6613Z" fill="#212C3A"/>
<path d="M20.6091 37.881V36.941C20.6042 36.8911 20.6042 36.8409 20.6091 36.791V37.731C20.6042 37.7809 20.6042 37.8311 20.6091 37.881Z" fill="white"/>
<path d="M24.8773 37.0895L24.8973 38.0295L24.7973 36.8795L24.7773 35.9395L24.8773 37.0895Z" fill="white"/>
<path d="M24.8905 37.1309V38.0709C24.8802 38.2362 24.8051 38.3909 24.6816 38.5013C24.558 38.6118 24.396 38.6691 24.2305 38.6609V37.7209C24.396 37.7291 24.558 37.6718 24.6816 37.5613C24.8051 37.4509 24.8802 37.2962 24.8905 37.1309Z" fill="#212C3A"/>
<path d="M31.9994 36.1211V37.0611C31.0617 37.4645 30.0958 37.7987 29.1094 38.0611V37.1211C30.0972 36.8633 31.0635 36.529 31.9994 36.1211Z" fill="#212C3A"/>
<path d="M29.0783 37.1002V38.0402C28.9644 38.0712 28.8446 38.0737 28.7296 38.0475C28.6145 38.0214 28.5076 37.9673 28.4183 37.8902C28.3306 37.8137 28.2678 37.7127 28.2383 37.6002V36.6602C28.2678 36.7727 28.3306 36.8737 28.4183 36.9502C28.5076 37.0273 28.6145 37.0814 28.7296 37.1075C28.8446 37.1337 28.9644 37.1312 29.0783 37.1002Z" fill="#212C3A"/>
<path d="M20.6094 37.8795V36.9395C20.611 37.0158 20.6287 37.0909 20.6615 37.1598C20.6942 37.2288 20.7412 37.29 20.7994 37.3395C20.9027 37.4243 21.0271 37.4796 21.1594 37.4995V38.4395C21.0271 38.4196 20.9027 38.3643 20.7994 38.2795C20.7412 38.23 20.6942 38.1688 20.6615 38.0998C20.6287 38.0309 20.611 37.9558 20.6094 37.8795Z" fill="#212C3A"/>
<path d="M24.2306 37.72V38.66C23.1963 38.6721 22.1628 38.5985 21.1406 38.44V37.5C22.1628 37.6585 23.1963 37.7321 24.2306 37.72Z" fill="#212C3A"/>
<path d="M38.7283 35.7405C30.5983 42.9005 17.4683 42.8605 9.48828 35.6705V34.7305C17.4883 41.9205 30.5983 41.9605 38.7283 34.8005V35.7405Z" fill="white"/>
<path d="M40.1189 36.0003C35.6528 39.8816 29.9154 41.9851 23.9989 41.9103C18.1191 41.9819 12.4204 39.8769 7.9989 36.0003L7.8589 35.8803C-0.6111 28.1103 -0.441099 15.5703 8.2489 7.88034C12.7279 4.01099 18.4706 1.91887 24.3889 2.00034C30.2729 1.96329 35.9634 4.09989 40.3689 8.00034L40.5089 8.13034C48.9989 15.8403 48.8089 28.3903 40.1189 36.0003ZM9.4689 34.7303C17.4689 41.9203 30.5789 41.9603 38.7089 34.8003C46.6389 27.8003 46.7989 16.4003 39.0689 9.31034L38.9389 9.19034C30.9989 2.00034 17.8289 2.00034 9.6989 9.13034C1.7589 16.1303 1.5989 27.5303 9.3389 34.6203L9.4689 34.7303Z" fill="#212C3A"/>
<path d="M38.7083 34.801C30.5783 42.001 17.4483 41.921 9.46834 34.731L9.33834 34.621C1.59834 27.531 1.75834 16.121 9.69834 9.13104C17.8283 2.00104 30.9983 2.00104 38.9383 9.19104L39.0683 9.31104C46.7983 16.401 46.6383 27.801 38.7083 34.801ZM35.9983 33.701C36.7659 33.0949 37.4817 32.4259 38.1383 31.701C38.1894 31.6508 38.23 31.5909 38.2577 31.5248C38.2854 31.4587 38.2997 31.3877 38.2997 31.316C38.2997 31.2444 38.2854 31.1734 38.2577 31.1073C38.23 31.0412 38.1894 30.9813 38.1383 30.931L37.9983 30.861L36.9183 30.221L36.8183 30.151C36.7126 30.0633 36.6459 29.9373 36.6327 29.8005C36.6196 29.6637 36.6612 29.5273 36.7483 29.421C37.094 28.9655 37.4144 28.4915 37.7083 28.001C37.7991 27.859 37.9381 27.7545 38.0998 27.7067C38.2615 27.659 38.4349 27.6712 38.5883 27.741L39.7583 28.261C39.9193 28.3386 40.1042 28.3507 40.2739 28.2948C40.4436 28.2388 40.585 28.1192 40.6683 27.961C41.0641 27.1264 41.3789 26.2558 41.6083 25.361C41.6341 25.2633 41.6308 25.1601 41.5988 25.0642C41.5668 24.9683 41.5076 24.8838 41.4283 24.821C41.3259 24.7286 41.1959 24.6724 41.0583 24.661L39.7683 24.501C39.6286 24.4798 39.4973 24.4211 39.3883 24.331C39.3208 24.2701 39.2691 24.1937 39.2378 24.1083C39.2064 24.0229 39.1963 23.9312 39.2083 23.841C39.3017 23.3024 39.3552 22.7576 39.3683 22.211C39.386 22.0484 39.4653 21.8987 39.5899 21.7927C39.7145 21.6867 39.875 21.6324 40.0383 21.641H41.3483C41.4338 21.6494 41.5201 21.6398 41.6017 21.613C41.6833 21.5863 41.7585 21.5428 41.8224 21.4855C41.8863 21.4281 41.9376 21.3581 41.9731 21.2799C42.0085 21.2017 42.0274 21.1169 42.0283 21.031C41.9755 20.1189 41.8314 19.2144 41.5983 18.331C41.5714 18.2226 41.5121 18.1249 41.4283 18.051C41.338 17.9722 41.2294 17.9172 41.1124 17.891C40.9954 17.8648 40.8737 17.8683 40.7583 17.901L39.5083 18.251C39.3938 18.2851 39.2726 18.2902 39.1556 18.2657C39.0387 18.2413 38.9296 18.1881 38.8383 18.111C38.7682 18.0495 38.7164 17.97 38.6883 17.881C38.4926 17.3692 38.2621 16.8714 37.9983 16.391C37.9645 16.3187 37.9463 16.2401 37.9448 16.1602C37.9433 16.0804 37.9587 16.0011 37.9898 15.9276C38.0209 15.8541 38.0671 15.7879 38.1254 15.7334C38.1837 15.6788 38.2529 15.6371 38.3283 15.611L39.5183 15.141C39.5986 15.1153 39.672 15.0718 39.7331 15.0138C39.7941 14.9557 39.8413 14.8846 39.8711 14.8058C39.9009 14.727 39.9126 14.6425 39.9052 14.5585C39.8977 14.4746 39.8715 14.3934 39.8283 14.321C39.3232 13.5176 38.7512 12.7582 38.1183 12.051C37.9871 11.921 37.8124 11.844 37.6279 11.8347C37.4434 11.8255 37.2619 11.8847 37.1183 12.001L36.1183 12.791C35.9891 12.8984 35.8264 12.9571 35.6583 12.9571C35.4903 12.9571 35.3276 12.8984 35.1983 12.791C35.1233 12.7094 35.0431 12.6325 34.9583 12.561C34.605 12.2544 34.235 11.9544 33.8483 11.661C33.7853 11.6153 33.7326 11.5568 33.6939 11.4892C33.6551 11.4216 33.6312 11.3466 33.6236 11.2691C33.6161 11.1915 33.6251 11.1133 33.65 11.0395C33.6749 10.9657 33.7153 10.8981 33.7683 10.841L34.6183 9.95104C34.6723 9.9014 34.7153 9.84111 34.7448 9.77398C34.7742 9.70685 34.7894 9.63435 34.7894 9.56104C34.7894 9.48773 34.7742 9.41522 34.7448 9.3481C34.7153 9.28097 34.6723 9.22068 34.6183 9.17104L34.5383 9.10104C33.6844 8.57732 32.7918 8.11933 31.8683 7.73104C31.7153 7.66268 31.5426 7.65238 31.3824 7.70207C31.2223 7.75176 31.0858 7.85803 30.9983 8.00104L30.5183 9.08104C30.4429 9.22925 30.3158 9.34467 30.161 9.40548C30.0062 9.46629 29.8345 9.46827 29.6783 9.41104C29.1056 9.24533 28.5248 9.10849 27.9383 9.00104C27.8254 8.9767 27.7215 8.92129 27.6383 8.84104C27.5598 8.77789 27.5018 8.6929 27.4715 8.59679C27.4413 8.50069 27.4402 8.39778 27.4683 8.30104L27.7983 7.17104C27.8249 7.07178 27.822 6.96695 27.79 6.8693C27.7581 6.77166 27.6984 6.6854 27.6183 6.62104C27.5224 6.53072 27.3994 6.4745 27.2683 6.46104C26.2462 6.30255 25.2126 6.22897 24.1783 6.24104C24.0936 6.23692 24.0089 6.25024 23.9295 6.28019C23.8501 6.31013 23.7777 6.35605 23.7167 6.41511C23.6558 6.47416 23.6076 6.5451 23.5752 6.62353C23.5428 6.70195 23.5269 6.7862 23.5283 6.87104L23.6283 8.00104C23.6324 8.08232 23.6199 8.16358 23.5916 8.23987C23.5632 8.31617 23.5197 8.3859 23.4636 8.44483C23.4074 8.50377 23.3399 8.55066 23.2651 8.58267C23.1903 8.61469 23.1097 8.63114 23.0283 8.63104C22.4149 8.67688 21.8041 8.75364 21.1983 8.86104C21.0935 8.88444 20.9847 8.88307 20.8806 8.85703C20.7764 8.83099 20.6798 8.781 20.5983 8.71104C20.5089 8.63195 20.446 8.52718 20.4183 8.41104L20.1583 7.28104C20.1367 7.17286 20.0805 7.07461 19.9983 7.00104C19.9093 6.9269 19.8041 6.87469 19.6912 6.84864C19.5783 6.82259 19.4609 6.82341 19.3483 6.85104C18.3591 7.10435 17.3925 7.43882 16.4583 7.85104C16.379 7.87788 16.3066 7.92219 16.2466 7.9807C16.1867 8.03921 16.1406 8.11044 16.1118 8.18913C16.083 8.26782 16.0722 8.35197 16.0803 8.43538C16.0883 8.51878 16.115 8.59931 16.1583 8.67104L16.8283 9.67104C16.8708 9.73765 16.8982 9.81278 16.9085 9.89113C16.9188 9.96948 16.9118 10.0491 16.888 10.1245C16.8641 10.1998 16.824 10.269 16.7705 10.3272C16.717 10.3853 16.6514 10.431 16.5783 10.461C16.0556 10.7403 15.5482 11.0474 15.0583 11.381C14.9267 11.4676 14.7704 11.5086 14.6132 11.4977C14.4561 11.4869 14.3068 11.4248 14.1883 11.321L13.3383 10.321C13.2109 10.1866 13.0383 10.104 12.8537 10.0892C12.669 10.0745 12.4855 10.1285 12.3383 10.241C11.5772 10.8475 10.8681 11.5165 10.2183 12.241C10.1649 12.2889 10.1221 12.3474 10.0929 12.4129C10.0636 12.4784 10.0485 12.5493 10.0485 12.621C10.0485 12.6928 10.0636 12.7637 10.0929 12.8292C10.1221 12.8946 10.1649 12.9532 10.2183 13.001L10.3183 13.081L11.4083 13.721L11.5183 13.801C11.6204 13.8916 11.6836 14.018 11.6947 14.154C11.7059 14.29 11.6642 14.425 11.5783 14.531C11.241 14.9812 10.9273 15.4485 10.6383 15.931C10.5506 16.0764 10.4116 16.1837 10.2488 16.2318C10.086 16.28 9.91099 16.2654 9.75834 16.191L8.59834 15.671C8.43547 15.5954 8.25002 15.5844 8.07931 15.64C7.90861 15.6957 7.76533 15.814 7.67834 15.971C7.28693 16.8075 6.9723 17.6777 6.73834 18.571C6.71506 18.668 6.71858 18.7695 6.74852 18.8646C6.77847 18.9597 6.83371 19.0449 6.90834 19.111C7.01347 19.2055 7.14731 19.2618 7.28834 19.271L8.57834 19.441C8.71689 19.4559 8.8468 19.5156 8.94834 19.611C9.0197 19.6689 9.0741 19.745 9.10578 19.8313C9.13746 19.9175 9.14526 20.0107 9.12834 20.101C9.05559 20.6316 9.01219 21.1657 8.99834 21.701C8.98306 21.8647 8.90446 22.0158 8.77929 22.1223C8.65412 22.2288 8.49229 22.2822 8.32834 22.271H7.01834C6.93333 22.2626 6.84751 22.2722 6.76644 22.299C6.68536 22.3259 6.61082 22.3695 6.54766 22.427C6.4845 22.4845 6.43412 22.5547 6.39979 22.6329C6.36545 22.7111 6.34792 22.7956 6.34834 22.881C6.3986 23.796 6.53929 24.7038 6.76834 25.591C6.79888 25.6979 6.85759 25.7946 6.93834 25.871C7.03049 25.9466 7.13953 25.9988 7.25618 26.0232C7.37283 26.0475 7.49364 26.0434 7.60834 26.011L8.85834 25.661C8.97141 25.6287 9.0907 25.6245 9.20575 25.6489C9.3208 25.6734 9.42813 25.7256 9.51834 25.801C9.58907 25.864 9.6439 25.9428 9.67834 26.031C9.86069 26.5565 10.0813 27.0678 10.3383 27.561C10.3719 27.6333 10.3896 27.7119 10.3904 27.7916C10.3911 27.8712 10.3749 27.9501 10.3427 28.023C10.3105 28.0959 10.2631 28.1611 10.2037 28.2142C10.1444 28.2673 10.0743 28.3071 9.99834 28.331L8.80834 28.801C8.7301 28.8294 8.65901 28.8745 8.60008 28.9333C8.54114 28.992 8.49579 29.063 8.4672 29.1411C8.4386 29.2193 8.42747 29.3027 8.43458 29.3856C8.44169 29.4685 8.46686 29.5489 8.50834 29.621C9.00787 30.4309 9.58384 31.191 10.2283 31.891C10.3572 32.0253 10.5325 32.1052 10.7184 32.1145C10.9043 32.1238 11.0867 32.0617 11.2283 31.941L12.1783 31.151C12.3076 31.0437 12.4703 30.9849 12.6383 30.9849C12.8064 30.9849 12.9691 31.0437 13.0983 31.151L13.3383 31.381C13.6958 31.7003 14.0696 32.0007 14.4583 32.281C14.5207 32.3275 14.5725 32.3867 14.6103 32.4546C14.6481 32.5226 14.6711 32.5978 14.6777 32.6753C14.6843 32.7528 14.6745 32.8308 14.6487 32.9042C14.6229 32.9776 14.5819 33.0447 14.5283 33.101L13.6983 34.001C13.6454 34.0523 13.6033 34.1137 13.5746 34.1816C13.5459 34.2494 13.5311 34.3224 13.5311 34.396C13.5311 34.4697 13.5459 34.5427 13.5746 34.6105C13.6033 34.6784 13.6454 34.7398 13.6983 34.791L13.7983 34.851C14.6473 35.3832 15.5367 35.8479 16.4583 36.241C16.621 36.3116 16.8043 36.3178 16.9714 36.2584C17.1384 36.199 17.2767 36.0784 17.3583 35.921L17.8383 34.841C17.9121 34.6913 18.0391 34.5744 18.1944 34.5134C18.3498 34.4524 18.5224 34.4515 18.6783 34.511C19.2597 34.7014 19.8505 34.8616 20.4483 34.991C20.5589 35.0164 20.6617 35.0678 20.7483 35.141C20.8273 35.2085 20.886 35.2966 20.9178 35.3955C20.9496 35.4944 20.9532 35.6002 20.9283 35.701L20.5883 36.821C20.5607 36.9193 20.562 37.0236 20.5922 37.1211C20.6223 37.2187 20.68 37.3055 20.7583 37.371C20.8617 37.4559 20.9861 37.5112 21.1183 37.531C22.1405 37.6895 23.174 37.7631 24.2083 37.751C24.2935 37.7567 24.3788 37.7444 24.4589 37.715C24.539 37.6856 24.612 37.6398 24.6733 37.5804C24.7345 37.521 24.7826 37.4495 24.8145 37.3703C24.8464 37.2912 24.8613 37.2063 24.8583 37.121L24.7583 35.971C24.7556 35.8897 24.7695 35.8087 24.799 35.7329C24.8286 35.6571 24.8732 35.5881 24.9303 35.5301C24.9874 35.4722 25.0556 35.4264 25.1309 35.3956C25.2062 35.3648 25.287 35.3496 25.3683 35.351C25.9783 35.291 26.5883 35.221 27.1983 35.101C27.3047 35.0866 27.4128 35.0942 27.5161 35.1235C27.6193 35.1527 27.7154 35.203 27.7983 35.271C27.881 35.3499 27.9399 35.4504 27.9683 35.561L28.2183 36.691C28.2479 36.8036 28.3106 36.9046 28.3983 36.981C28.4876 37.0582 28.5945 37.1123 28.7096 37.1384C28.8247 37.1646 28.9445 37.162 29.0583 37.131C30.0462 36.8732 31.0124 36.5389 31.9483 36.131C32.026 36.1021 32.0963 36.0562 32.1541 35.9968C32.2118 35.9373 32.2557 35.8658 32.2825 35.7873C32.3093 35.7089 32.3183 35.6255 32.309 35.5431C32.2996 35.4607 32.2721 35.3815 32.2283 35.311L31.5683 34.311C31.5272 34.2446 31.5008 34.1702 31.4907 34.0927C31.4806 34.0153 31.4871 33.9365 31.5098 33.8618C31.5325 33.7871 31.5709 33.718 31.6224 33.6593C31.6738 33.6005 31.7372 33.5534 31.8083 33.521C32.3383 33.241 32.8583 32.931 33.3483 32.611C33.4726 32.5185 33.6234 32.4685 33.7783 32.4685C33.9333 32.4685 34.0841 32.5185 34.2083 32.611L35.0583 33.611C35.1832 33.7496 35.3564 33.8351 35.5424 33.85C35.7284 33.8649 35.913 33.808 36.0583 33.691" fill="white"/>
<path d="M38.1302 30.9405C38.1813 30.9907 38.2218 31.0507 38.2495 31.1168C38.2772 31.1829 38.2915 31.2538 38.2915 31.3255C38.2915 31.3972 38.2772 31.4681 38.2495 31.5342C38.2218 31.6003 38.1813 31.6602 38.1302 31.7105C37.4735 32.4354 36.7577 33.1043 35.9902 33.7105C35.8617 33.8153 35.701 33.8725 35.5352 33.8725C35.3694 33.8725 35.2087 33.8153 35.0802 33.7105L34.2402 32.7105C34.1201 32.5933 33.9642 32.5198 33.7974 32.5017C33.6306 32.4836 33.4626 32.5219 33.3202 32.6105C32.8302 32.9305 32.3202 33.2405 31.7802 33.5205C31.7091 33.5528 31.6457 33.6 31.5942 33.6587C31.5427 33.7175 31.5043 33.7865 31.4816 33.8613C31.4589 33.936 31.4524 34.0147 31.4625 34.0922C31.4726 34.1696 31.4991 34.2441 31.5402 34.3105L32.2002 35.3105C32.2439 35.3809 32.2714 35.4602 32.2808 35.5426C32.2902 35.6249 32.2811 35.7083 32.2543 35.7868C32.2275 35.8652 32.1837 35.9368 32.1259 35.9962C32.0681 36.0556 31.9978 36.1015 31.9202 36.1305C30.9843 36.5384 30.018 36.8727 29.0302 37.1305C28.9163 37.1615 28.7965 37.164 28.6814 37.1379C28.5664 37.1117 28.4595 37.0577 28.3702 36.9805C28.2824 36.9041 28.2197 36.803 28.1902 36.6905L28.0002 35.5305C27.9718 35.4198 27.9129 35.3193 27.8302 35.2405C27.7472 35.1724 27.6511 35.1222 27.5479 35.0929C27.4447 35.0637 27.3365 35.056 27.2302 35.0705C26.6202 35.1905 26.0102 35.2605 25.4002 35.3205C25.3188 35.3191 25.238 35.3342 25.1627 35.365C25.0874 35.3958 25.0192 35.4416 24.9621 35.4996C24.9051 35.5576 24.8604 35.6266 24.8308 35.7024C24.8013 35.7782 24.7874 35.8592 24.7902 35.9405L24.8902 37.0905C24.8931 37.1757 24.8782 37.2607 24.8463 37.3398C24.8145 37.4189 24.7663 37.4905 24.7051 37.5499C24.6438 37.6092 24.5708 37.6551 24.4907 37.6845C24.4106 37.7139 24.3253 37.7261 24.2402 37.7205C23.2059 37.7326 22.1723 37.659 21.1502 37.5005C21.0179 37.4807 20.8935 37.4254 20.7902 37.3405C20.7119 37.2749 20.6541 37.1882 20.624 37.0906C20.5938 36.993 20.5925 36.8888 20.6202 36.7905L21.0002 35.6705C21.0251 35.5696 21.0214 35.4639 20.9896 35.365C20.9578 35.2661 20.8992 35.178 20.8202 35.1105C20.7336 35.0373 20.6307 34.9858 20.5202 34.9605C19.9223 34.8311 19.3315 34.6709 18.7502 34.4805C18.5942 34.421 18.4216 34.4218 18.2663 34.4828C18.1109 34.5439 17.9839 34.6607 17.9102 34.8105L17.4302 35.8905C17.3486 36.0479 17.2103 36.1685 17.0432 36.2279C16.8762 36.2872 16.6928 36.281 16.5302 36.2105C15.6085 35.8174 14.7191 35.3526 13.8702 34.8205L13.7702 34.7605C13.7172 34.7092 13.6752 34.6478 13.6464 34.58C13.6177 34.5121 13.6029 34.4392 13.6029 34.3655C13.6029 34.2918 13.6177 34.2189 13.6464 34.151C13.6752 34.0832 13.7172 34.0218 13.7702 33.9705L14.6002 33.0905C14.6539 33.0418 14.6967 32.9823 14.7261 32.916C14.7555 32.8497 14.7706 32.778 14.7706 32.7055C14.7706 32.633 14.7555 32.5613 14.7261 32.495C14.6967 32.4287 14.6539 32.3692 14.6002 32.3205C14.1602 31.9905 13.7902 31.6905 13.4302 31.3705C13.3602 31.3005 13.2802 31.2305 13.2102 31.1505C13.0777 31.0416 12.9116 30.9821 12.7402 30.9821C12.5687 30.9821 12.4026 31.0416 12.2702 31.1505L11.3202 31.9405C11.1909 32.0478 11.0282 32.1066 10.8602 32.1066C10.6921 32.1066 10.5294 32.0478 10.4002 31.9405C9.70662 31.2245 9.08684 30.4405 8.55016 29.6005C8.50869 29.5284 8.48351 29.448 8.47641 29.3651C8.4693 29.2822 8.48043 29.1987 8.50902 29.1206C8.53761 29.0424 8.58297 28.9715 8.64191 28.9127C8.70084 28.854 8.77192 28.8088 8.85016 28.7805L10.0002 28.3105C10.0762 28.2866 10.1462 28.2468 10.2056 28.1936C10.265 28.1405 10.3123 28.0754 10.3445 28.0025C10.3767 27.9296 10.3929 27.8507 10.3922 27.771C10.3914 27.6913 10.3737 27.6128 10.3402 27.5405C10.0963 27.0429 9.8891 26.5282 9.72016 26.0005C9.68573 25.9123 9.6309 25.8335 9.56016 25.7705C9.46995 25.695 9.36263 25.6428 9.24758 25.6184C9.13252 25.594 9.01324 25.5981 8.90016 25.6305L7.65016 26.0005C7.53764 26.0281 7.4202 26.0289 7.3073 26.0029C7.1944 25.9768 7.0892 25.9246 7.00016 25.8505C6.91942 25.7741 6.8607 25.6774 6.83016 25.5705C6.60111 24.6832 6.46043 23.7755 6.41016 22.8605C6.40975 22.7751 6.42728 22.6905 6.46161 22.6123C6.49595 22.5341 6.54633 22.464 6.60949 22.4065C6.67265 22.349 6.74718 22.3054 6.82826 22.2785C6.90934 22.2516 6.99516 22.2421 7.08016 22.2505H8.39016C8.54081 22.2469 8.68519 22.1895 8.79711 22.0886C8.90903 21.9877 8.98107 21.85 9.00016 21.7005C9.01991 21.1581 9.06999 20.6173 9.15016 20.0805C9.17062 19.9928 9.16752 19.9013 9.14117 19.8153C9.11483 19.7292 9.06618 19.6517 9.00016 19.5905C8.89863 19.4951 8.76872 19.4354 8.63016 19.4205L7.34016 19.2505C7.21319 19.233 7.09458 19.1772 7.00016 19.0905C6.92554 19.0244 6.87029 18.9392 6.84035 18.844C6.81041 18.7489 6.80688 18.6475 6.83016 18.5505C7.05729 17.6752 7.36183 16.8218 7.74016 16.0005C7.82716 15.8434 7.97044 15.7252 8.14114 15.6695C8.31184 15.6138 8.4973 15.6249 8.66016 15.7005L9.82016 16.2205C9.97282 16.2949 10.1478 16.3094 10.3106 16.2613C10.4735 16.2132 10.6124 16.1059 10.7002 15.9605C10.9891 15.4779 11.3029 15.0106 11.6402 14.5605C11.726 14.4545 11.7677 14.3194 11.7566 14.1835C11.7454 14.0475 11.6822 13.9211 11.5802 13.8305L11.4702 13.7505L10.3802 13.1105L10.2802 13.0305C10.2267 12.9827 10.184 12.9241 10.1547 12.8586C10.1254 12.7931 10.1103 12.7222 10.1103 12.6505C10.1103 12.5788 10.1254 12.5079 10.1547 12.4424C10.184 12.3769 10.2267 12.3183 10.2802 12.2705C10.9299 11.5459 11.639 10.8769 12.4002 10.2705C12.5294 10.1675 12.6899 10.1113 12.8552 10.1113C13.0205 10.1113 13.1809 10.1675 13.3102 10.2705L14.1602 11.2705C14.2797 11.3916 14.4369 11.4685 14.6059 11.4885C14.7749 11.5085 14.9457 11.4704 15.0902 11.3805C15.58 11.0469 16.0874 10.7398 16.6102 10.4605C16.6833 10.4305 16.7489 10.3848 16.8024 10.3266C16.8559 10.2685 16.896 10.1993 16.9198 10.1239C16.9436 10.0486 16.9507 9.96893 16.9404 9.89058C16.9301 9.81224 16.9027 9.73711 16.8602 9.6705L16.1902 8.6705C16.1468 8.59877 16.1202 8.51824 16.1121 8.43483C16.1041 8.35143 16.1148 8.26728 16.1436 8.18859C16.1724 8.1099 16.2185 8.03867 16.2785 7.98016C16.3384 7.92164 16.4108 7.87733 16.4902 7.85049C17.4244 7.43827 18.391 7.10381 19.3802 6.85049C19.4882 6.82768 19.5999 6.82931 19.7072 6.85526C19.8144 6.88121 19.9145 6.93084 20.0002 7.00049C20.088 7.07517 20.1479 7.17739 20.1702 7.29049L20.4302 8.4205C20.4579 8.53664 20.5207 8.64141 20.6102 8.7205C20.6916 8.79046 20.7883 8.84044 20.8924 8.86648C20.9966 8.89252 21.1054 8.8939 21.2102 8.87049C21.8022 8.75436 22.3996 8.66759 23.0002 8.61049C23.0815 8.6106 23.1621 8.59414 23.2369 8.56213C23.3117 8.53012 23.3793 8.48322 23.4354 8.42429C23.4915 8.36536 23.5351 8.29562 23.5634 8.21933C23.5917 8.14303 23.6042 8.06178 23.6002 7.98049L23.5002 6.83049C23.4987 6.74565 23.5147 6.66141 23.5471 6.58298C23.5795 6.50456 23.6276 6.43362 23.6886 6.37456C23.7495 6.3155 23.8219 6.26958 23.9013 6.23964C23.9807 6.2097 24.0654 6.19638 24.1502 6.20049C25.1845 6.18842 26.218 6.26201 27.2402 6.4205C27.3712 6.43395 27.4942 6.49018 27.5902 6.58049C27.6702 6.64486 27.7299 6.73111 27.7619 6.82876C27.7938 6.92641 27.7967 7.03124 27.7702 7.1305L27.4402 8.2605C27.412 8.35723 27.4131 8.46014 27.4434 8.55625C27.4736 8.65235 27.5317 8.73734 27.6102 8.8005C27.6933 8.88074 27.7972 8.93616 27.9102 8.96049C28.5082 9.09328 29.099 9.25683 29.6802 9.45049C29.8363 9.50772 30.008 9.50574 30.1628 9.44493C30.3176 9.38412 30.4447 9.2687 30.5202 9.12049L31.0002 8.00049C31.0799 7.84136 31.2181 7.71922 31.3858 7.65959C31.5536 7.59995 31.7378 7.60744 31.9002 7.68049C32.8351 8.08029 33.7378 8.55169 34.6002 9.0905L34.6802 9.16049C34.7341 9.21013 34.7772 9.27042 34.8066 9.33755C34.8361 9.40468 34.8513 9.47719 34.8513 9.5505C34.8513 9.6238 34.8361 9.69631 34.8066 9.76344C34.7772 9.83057 34.7341 9.89086 34.6802 9.94049L33.8302 10.8305C33.7762 10.8801 33.7332 10.9404 33.7037 11.0076C33.6743 11.0747 33.659 11.1472 33.659 11.2205C33.659 11.2938 33.6743 11.3663 33.7037 11.4334C33.7332 11.5006 33.7762 11.5609 33.8302 11.6105C34.2602 11.9405 34.6302 12.2405 34.9802 12.5505C35.0615 12.6187 35.1384 12.6922 35.2102 12.7705C35.341 12.8786 35.5054 12.9378 35.6752 12.9378C35.8449 12.9378 36.0093 12.8786 36.1402 12.7705L37.1402 11.9805C37.2694 11.8731 37.4321 11.8144 37.6002 11.8144C37.7682 11.8144 37.9309 11.8731 38.0602 11.9805C38.7154 12.6958 39.3045 13.4689 39.8202 14.2905C39.8633 14.3629 39.8896 14.4441 39.897 14.528C39.9044 14.6119 39.8928 14.6965 39.863 14.7753C39.8332 14.8541 39.786 14.9252 39.7249 14.9832C39.6638 15.0413 39.5904 15.0848 39.5102 15.1105L38.3202 15.5805C38.2447 15.6066 38.1756 15.6483 38.1173 15.7028C38.0589 15.7573 38.0127 15.8235 37.9816 15.8971C37.9505 15.9706 37.9352 16.0499 37.9366 16.1297C37.9381 16.2095 37.9564 16.2882 37.9902 16.3605C38.2449 16.8513 38.4655 17.3592 38.6502 17.8805C38.6782 17.9694 38.7301 18.049 38.8002 18.1105C38.8915 18.1876 39.0005 18.2408 39.1175 18.2652C39.2344 18.2896 39.3556 18.2846 39.4702 18.2505L40.7202 17.9005C40.8355 17.8677 40.9572 17.8643 41.0742 17.8905C41.1912 17.9167 41.2998 17.9717 41.3902 18.0505C41.474 18.1244 41.5333 18.2221 41.5602 18.3305C41.7932 19.2139 41.9373 20.1184 41.9902 21.0305C41.9892 21.1164 41.9704 21.2011 41.9349 21.2793C41.8995 21.3576 41.8481 21.4276 41.7842 21.4849C41.7203 21.5423 41.6451 21.5857 41.5635 21.6125C41.4819 21.6393 41.3956 21.6488 41.3102 21.6405H40.0002C39.8368 21.6319 39.6763 21.6861 39.5517 21.7921C39.4271 21.8982 39.3478 22.0479 39.3302 22.2105C39.317 22.757 39.2635 23.3018 39.1702 23.8405C39.1581 23.9306 39.1682 24.0224 39.1996 24.1077C39.2309 24.1931 39.2826 24.2696 39.3502 24.3305C39.4591 24.4205 39.5904 24.4793 39.7302 24.5005L41.0202 24.6605C41.1577 24.6719 41.2877 24.7281 41.3902 24.8205C41.4694 24.8833 41.5286 24.9678 41.5606 25.0637C41.5926 25.1596 41.5959 25.2627 41.5702 25.3605C41.3407 26.2552 41.0259 27.1259 40.6302 27.9605C40.5469 28.1186 40.4055 28.2382 40.2357 28.2942C40.066 28.3502 39.8812 28.3381 39.7202 28.2605L38.5502 27.7405C38.3968 27.6706 38.2233 27.6584 38.0616 27.7062C37.9 27.754 37.761 27.8585 37.6702 28.0005C37.3824 28.4871 37.0687 28.9578 36.7302 29.4105C36.643 29.5167 36.6015 29.6531 36.6146 29.7899C36.6277 29.9267 36.6944 30.0528 36.8002 30.1405L36.9002 30.2105L37.9802 30.8505L38.1302 30.9405ZM32.1302 31.1905C32.5625 30.9086 33.0602 30.743 33.5752 30.7097C34.0903 30.6765 34.6052 30.7766 35.0702 31.0005C34.788 30.6335 34.635 30.1835 34.635 29.7205C34.635 29.2575 34.788 28.8075 35.0702 28.4405C35.3702 28.0405 35.6402 27.6305 35.8902 27.2205C36.0595 26.9207 36.2876 26.6581 36.5608 26.4484C36.834 26.2388 37.1467 26.0865 37.4802 26.0005C37.8047 25.9064 38.143 25.8692 38.4802 25.8905C38.3089 25.7853 38.1452 25.6684 37.9902 25.5405C37.7099 25.2956 37.4961 24.9838 37.3684 24.6342C37.2408 24.2846 37.2036 23.9084 37.2602 23.5405C37.3409 23.0745 37.3877 22.6033 37.4002 22.1305C37.4133 21.8123 37.4941 21.5005 37.6372 21.216C37.7803 20.9314 37.9825 20.6807 38.2302 20.4805C38.47 20.2768 38.7443 20.1176 39.0402 20.0105C38.448 19.9525 37.8887 19.7113 37.4402 19.3205C37.1518 19.0675 36.9346 18.7434 36.8102 18.3805C36.6492 17.9285 36.4587 17.4876 36.2402 17.0605C36.0984 16.7836 36.0186 16.4791 36.0065 16.1682C35.9945 15.8573 36.0503 15.5476 36.1702 15.2605C36.2941 14.9797 36.4706 14.7251 36.6902 14.5105C36.2161 14.676 35.7072 14.7161 35.213 14.6267C34.7189 14.5373 34.2563 14.3216 33.8702 14.0005L33.6302 13.7705C33.3302 13.5005 33.0002 13.2405 32.6302 12.9905L32.4502 12.8305C32.1239 12.5585 31.8874 12.1945 31.7714 11.7859C31.6554 11.3773 31.6654 10.9433 31.8002 10.5405C31.5578 10.7457 31.2844 10.9111 30.9902 11.0305C30.3431 11.2593 29.6372 11.2593 28.9902 11.0305C28.4844 10.8615 27.9704 10.718 27.4502 10.6005C26.9876 10.5035 26.5573 10.2901 26.2002 9.98049C25.8342 9.64777 25.5852 9.20591 25.4902 8.7205C25.3726 9.00293 25.203 9.26075 24.9902 9.48049C24.5126 9.96762 23.8711 10.2599 23.1902 10.3005C22.6533 10.3403 22.1191 10.4104 21.5902 10.5105C21.1632 10.5924 20.7231 10.5754 20.3036 10.461C19.8842 10.3467 19.4965 10.1378 19.1702 9.8505C19.0677 9.76999 18.9769 9.67577 18.9002 9.57049C18.9283 9.85964 18.9011 10.1515 18.8202 10.4305C18.7208 10.7415 18.5598 11.0293 18.3468 11.2767C18.1337 11.5241 17.873 11.7261 17.5802 11.8705C17.1223 12.1086 16.6783 12.3723 16.2502 12.6605C15.8225 12.9353 15.332 13.0969 14.8247 13.1301C14.3174 13.1633 13.8101 13.0671 13.3502 12.8505C13.6269 13.2217 13.7764 13.6724 13.7764 14.1355C13.7764 14.5986 13.6269 15.0492 13.3502 15.4205C13.0563 15.813 12.7826 16.2202 12.5302 16.6405C12.188 17.2197 11.6309 17.6402 10.9802 17.8105C10.6668 17.9294 10.3353 17.9937 10.0002 18.0005C10.1802 18.0918 10.3454 18.2098 10.4902 18.3505C10.775 18.5918 10.9921 18.9031 11.1201 19.2538C11.2481 19.6045 11.2826 19.9824 11.2202 20.3505C11.1177 20.8087 11.0442 21.273 11.0002 21.7405C10.9858 22.0574 10.9055 22.3679 10.7643 22.652C10.6231 22.9361 10.4241 23.1877 10.1802 23.3905C9.93271 23.5914 9.65173 23.7472 9.35016 23.8505C9.94279 23.9065 10.5027 24.1479 10.9502 24.5405C11.2401 24.7942 11.4604 25.1177 11.5902 25.4805C11.7492 25.9332 11.9396 26.3743 12.1602 26.8005C12.3046 27.0765 12.3859 27.3813 12.398 27.6926C12.4101 28.0039 12.3528 28.3141 12.2302 28.6005C12.1026 28.8793 11.9265 29.1332 11.7102 29.3505C12.1819 29.1967 12.6852 29.1665 13.1719 29.2628C13.6587 29.3591 14.1125 29.5787 14.4902 29.9005L14.7402 30.1305C15.0502 30.4005 15.3702 30.6705 15.7402 30.9105L15.9402 31.0805C16.2622 31.3534 16.496 31.7158 16.6117 32.1217C16.7274 32.5276 16.7199 32.9588 16.5902 33.3605C16.8297 33.1514 17.1038 32.9856 17.4002 32.8705C18.0472 32.6417 18.7531 32.6417 19.4002 32.8705C19.8967 33.0474 20.4045 33.191 20.9202 33.3005C21.3849 33.3913 21.8166 33.6055 22.1702 33.9205C22.5404 34.2513 22.7931 34.6935 22.8902 35.1805C23.0043 34.8992 23.1744 34.644 23.3902 34.4305C23.8681 33.9366 24.5141 33.6404 25.2002 33.6005C25.7302 33.6005 26.2602 33.4905 26.7902 33.4005C27.2179 33.3157 27.6595 33.3302 28.0808 33.4429C28.502 33.5556 28.8918 33.7635 29.2202 34.0505C29.3177 34.1399 29.408 34.2368 29.4902 34.3405C29.4531 34.0521 29.477 33.7591 29.5602 33.4805C29.6536 33.1573 29.8153 32.8579 30.0344 32.6025C30.2535 32.3472 30.5249 32.1419 30.8302 32.0005C31.2869 31.7568 31.7308 31.4898 32.1602 31.2005" fill="#212C3A"/>
<path d="M40.12 36V36.94C35.6558 40.7999 29.931 42.8885 24.03 42.81C18.1462 42.8733 12.4471 40.7575 8.03 36.87L8 36C12.4171 39.8875 18.1162 42.0033 24 41.94C29.9204 42.0065 35.6583 39.8922 40.12 36Z" fill="#212C3A"/>
</svg>
