<svg width="48" height="48" viewBox="0 0 48 48" fill="none" xmlns="http://www.w3.org/2000/svg">
<path d="M24.0008 8C23.3008 8 22.6108 8 21.9208 8.08L3.05078 27C3.73078 34.79 12.8508 41 24.0008 41C35.6008 41 45.0008 34.28 45.0008 26V23C45.0008 14.72 35.6008 8 24.0008 8ZM24.0608 29.5C19.6808 29.5 16.1208 27.37 16.1208 24.75C16.1208 22.13 19.6808 20 24.0608 20C28.4408 20 32.0008 22.13 32.0008 24.75C32.0008 27.37 28.4508 29.5 24.0608 29.5Z" fill="white"/>
<path d="M24.0015 8C35.6015 8 45.0015 14.72 45.0015 23V26C45.0015 34.28 35.6015 41 24.0015 41C12.8515 41 3.73149 34.79 3.05149 27L21.9215 8.08C22.6115 8 23.3015 8 24.0015 8ZM24.0015 6C23.1515 6 22.4315 6 21.7515 6.09C21.2828 6.13145 20.8437 6.33682 20.5115 6.67L1.64149 25.54C1.4358 25.7454 1.27736 25.9931 1.17719 26.266C1.07702 26.5389 1.03754 26.8303 1.06149 27.12C1.83149 36 11.9115 43 24.0015 43C36.6815 43 47.0015 35.37 47.0015 26V23C47.0015 13.63 36.6815 6 24.0015 6Z" fill="#212C3A"/>
<path d="M24.0019 8C35.6019 8 45.0019 14.72 45.0019 23C45.0019 31.28 35.6019 38 24.0019 38C14.0619 38 5.73187 33.06 3.56187 26.44L21.9219 8.08C22.6119 8 23.3019 8 24.0019 8ZM24.0019 7C23.1819 7 22.4919 7 21.8319 7.08H21.4719L21.2119 7.33L2.85187 25.73L2.42188 26.17L2.61187 26.75C5.00187 34 13.7719 39 24.0019 39C36.1319 39 46.0019 31.82 46.0019 23C46.0019 14.18 36.1319 7 24.0019 7Z" fill="#212C3A"/>
<path d="M24 17C29 17 33 19.69 33 23C33 26.31 29 29 24 29C19 29 15 26.31 15 23C15 19.69 19 17 24 17ZM24 16C18.39 16 14 19.07 14 23C14 26.93 18.39 30 24 30C29.61 30 34 26.93 34 23C34 19.07 29.61 16 24 16Z" fill="#212C3A"/>
<mask id="mask0_498_2028" style="mask-type:luminance" maskUnits="userSpaceOnUse" x="15" y="17" width="18" height="12">
<path d="M24 29C28.9706 29 33 26.3137 33 23C33 19.6863 28.9706 17 24 17C19.0294 17 15 19.6863 15 23C15 26.3137 19.0294 29 24 29Z" fill="white"/>
</mask>
<g mask="url(#mask0_498_2028)">
<path d="M24 21C28.13 21 31 23.11 31 25C31 26.89 28.13 29 24 29C19.87 29 17 26.89 17 25C17 23.11 19.87 21 24 21ZM24 19C19 19 15 21.69 15 25C15 28.31 19 31 24 31C29 31 33 28.31 33 25C33 21.69 29 19 24 19Z" fill="#212C3A"/>
</g>
</svg>
