<svg width="48" height="48" viewBox="0 0 48 48" fill="none" xmlns="http://www.w3.org/2000/svg">
<g clip-path="url(#clip0_498_2038)">
<path d="M24 7C12.4 7 3 13.72 3 22V25C3 33.28 12.4 40 24 40C35.6 40 45 33.28 45 25V22C45 13.72 35.6 7 24 7ZM23.84 28.17C19.43 28.17 15.84 26.04 15.84 23.4C15.84 20.76 19.41 18.62 23.84 18.62C28.27 18.62 31.84 20.76 31.84 23.4C31.84 26.04 28.25 28.17 23.84 28.17Z" fill="white"/>
<path d="M24 7C35.6 7 45 13.72 45 22C45 30.28 35.6 37 24 37C12.4 37 3 30.28 3 22C3 13.72 12.4 7 24 7ZM24 6C11.87 6 2 13.18 2 22C2 30.82 11.87 38 24 38C36.13 38 46 30.82 46 22C46 13.18 36.13 6 24 6Z" fill="#212C3A"/>
<path d="M24 7C35.6 7 45 13.72 45 22V25C45 33.28 35.6 40 24 40C12.4 40 3 33.28 3 25V22C3 13.72 12.4 7 24 7ZM24 5C11.32 5 1 12.63 1 22V25C1 34.37 11.32 42 24 42C36.68 42 47 34.37 47 25V22C47 12.63 36.68 5 24 5Z" fill="#212C3A"/>
<path d="M24 7C35.6 7 45 13.72 45 22C45 30.28 35.6 37 24 37C12.4 37 3 30.28 3 22C3 13.72 12.4 7 24 7ZM24 6C11.87 6 2 13.18 2 22C2 30.82 11.87 38 24 38C36.13 38 46 30.82 46 22C46 13.18 36.13 6 24 6Z" fill="#212C3A"/>
<path d="M24 16C29 16 33 18.69 33 22C33 25.31 29 28 24 28C19 28 15 25.31 15 22C15 18.69 19 16 24 16ZM24 15C18.39 15 14 18.07 14 22C14 25.93 18.39 29 24 29C29.61 29 34 25.93 34 22C34 18.07 29.61 15 24 15Z" fill="#212C3A"/>
<mask id="mask0_498_2038" style="mask-type:luminance" maskUnits="userSpaceOnUse" x="15" y="16" width="18" height="12">
<path d="M24 28C28.9706 28 33 25.3137 33 22C33 18.6863 28.9706 16 24 16C19.0294 16 15 18.6863 15 22C15 25.3137 19.0294 28 24 28Z" fill="white"/>
</mask>
<g mask="url(#mask0_498_2038)">
<path d="M24 20C28.13 20 31 22.11 31 24C31 25.89 28.13 28 24 28C19.87 28 17 25.89 17 24C17 22.11 19.87 20 24 20ZM24 18C19 18 15 20.69 15 24C15 27.31 19 30 24 30C29 30 33 27.31 33 24C33 20.69 29 18 24 18Z" fill="#212C3A"/>
</g>
</g>
<defs>
<clipPath id="clip0_498_2038">
<rect width="48" height="48" fill="white"/>
</clipPath>
</defs>
</svg>
