<svg width="48" height="48" viewBox="0 0 48 48" fill="none" xmlns="http://www.w3.org/2000/svg">
<path d="M16.9984 18.7207C16.9326 19.0497 16.9091 19.3857 16.9284 19.7207C18.6289 18.3088 20.7896 17.5719 22.9984 17.6507C23.7908 17.6493 24.5813 17.7263 25.3584 17.8807C26.8222 18.1192 28.2127 18.6869 29.4253 19.5408C30.6378 20.3948 31.6407 21.5128 32.3584 22.8107C32.5033 22.5161 32.6076 22.2033 32.6684 21.8807C32.7781 21.2671 32.7638 20.6378 32.6264 20.0298C32.489 19.4218 32.2313 18.8475 31.8684 18.3407C30.4523 16.4144 28.3514 15.1044 25.9984 14.6807C25.2868 14.5415 24.5635 14.4712 23.8384 14.4707C20.3384 14.4707 17.5284 16.2107 16.9984 18.7207Z" fill="white"/>
<path d="M37.9311 33.1096L38.4311 32.4796L38.6611 32.1396C38.7911 31.9396 38.9211 31.7296 39.0411 31.5096C39.1611 31.2896 39.1711 31.2796 39.2311 31.1496C39.2911 31.0196 39.3311 30.9296 39.3811 30.8196C36.6511 34.3796 31.7211 36.6396 25.9911 36.6396C24.4901 36.633 22.9933 36.4823 21.5211 36.1896C16.4739 35.2852 11.9805 32.4427 9.00109 28.2696C8.29806 27.2128 7.74921 26.0613 7.37109 24.8496C7.56968 26.9665 8.38307 28.9791 9.71109 30.6396C10.8885 32.1398 12.3161 33.4254 13.9311 34.4396C14.8011 35.0004 15.714 35.4919 16.6611 35.9096C18.1778 36.5821 19.764 37.0851 21.3911 37.4096C21.8911 37.5096 22.3911 37.5896 22.8811 37.6596L23.2611 37.7096L24.6011 37.8296H24.7411C25.2111 37.8296 25.6711 37.8296 26.1311 37.8296H26.6611L27.6111 37.7796H28.1411L29.0911 37.6496L29.5611 37.5796C29.9411 37.5096 30.3311 37.4196 30.7011 37.3296H30.9111C31.3411 37.2196 31.7711 37.0896 32.1911 36.9496L32.5411 36.8196C32.8411 36.7096 33.1311 36.5896 33.4111 36.4696L33.8211 36.2796C34.0811 36.1596 34.3311 36.0296 34.5711 35.8996L34.9611 35.6796C35.2111 35.5396 35.4411 35.3896 35.6711 35.2296L36.0011 35.0096C36.3006 34.7996 36.5877 34.5726 36.8611 34.3296L36.9311 34.2696C37.2223 34.0149 37.4994 33.7445 37.7611 33.4596L37.9311 33.1096Z" fill="white"/>
<path d="M40.4111 17.0009C38.8917 14.8144 36.9561 12.9489 34.7152 11.511C32.4743 10.0731 29.9719 9.09097 27.3511 8.62086C25.7542 8.30049 24.1299 8.13638 22.5011 8.13086C13.9311 8.13086 7.29112 12.8109 6.00112 19.7709L5.53112 22.0709C5.24816 23.6158 5.27943 25.2019 5.62305 26.7345C5.96668 28.267 6.61562 29.7146 7.53112 30.9909C10.2811 35.1409 15.1911 38.2009 21.0111 39.3709C22.6204 39.6999 24.2585 39.8674 25.9011 39.8709C34.1211 39.8709 40.7511 35.5709 42.0011 29.4309L42.4811 27.1009C42.8257 25.3643 42.82 23.5765 42.4646 21.8421C42.1091 20.1078 41.411 18.4619 40.4111 17.0009ZM23.0011 19.6509C23.6724 19.6482 24.3423 19.7118 25.0011 19.8409C27.1059 20.2047 28.9916 21.3605 30.2711 23.0709C30.58 23.5281 30.7974 24.0409 30.9111 24.5809C29.4591 25.6321 27.7033 26.18 25.9111 26.1409C25.1858 26.1365 24.4625 26.0628 23.7511 25.9209C21.3853 25.5092 19.2708 24.1975 17.8511 22.2609C17.7911 22.1709 17.7511 22.0809 17.7011 21.9909C18.3388 21.2121 19.1509 20.5944 20.0717 20.1879C20.9924 19.7814 21.996 19.5974 23.0011 19.6509ZM39.1911 31.1509C39.1311 31.2809 39.0711 31.3909 39.0011 31.5109C38.9311 31.6309 38.7511 31.9409 38.6211 32.1409L38.3911 32.4809L37.8911 33.1109L37.6711 33.3709C37.4094 33.6558 37.1323 33.9262 36.8411 34.1809L36.7711 34.2409C36.4978 34.4839 36.2106 34.7109 35.9111 34.9209L35.5811 35.1409C35.3511 35.3009 35.1211 35.4509 34.8711 35.5909L34.4811 35.8109C34.2411 35.9409 33.9911 36.0709 33.7311 36.1909L33.3211 36.3809C33.0411 36.5009 32.7511 36.6209 32.4511 36.7309L32.1011 36.8609C31.6811 37.0009 31.2511 37.1309 30.8211 37.2409H30.6111C30.2411 37.3309 29.8511 37.4209 29.4711 37.4909L29.0011 37.5609L28.0511 37.6909H27.5211L26.5711 37.7409H26.0411H25.7911H24.6511H24.5111L23.1711 37.6209L22.7911 37.5709C22.2911 37.5009 21.7911 37.4209 21.3011 37.3209C19.6741 36.9964 18.0878 36.4933 16.5711 35.8209C15.624 35.4032 14.7112 34.9117 13.8411 34.3509C12.2261 33.3366 10.7985 32.0511 9.62111 30.5509C8.2931 28.8904 7.47971 26.8778 7.28112 24.7609C7.67927 26.0089 8.2588 27.1915 9.00112 28.2709C11.9924 32.455 16.5057 35.2986 21.5711 36.1909C23.0433 36.4836 24.5401 36.6343 26.0411 36.6409C31.7711 36.6409 36.7011 34.3809 39.4311 30.8209L39.1911 31.1509Z" fill="#212C3A"/>
<path d="M30.2685 15.3507C29.0367 14.5463 27.6618 13.9861 26.2185 13.7007C25.4414 13.5463 24.6509 13.4693 23.8585 13.4707C19.9485 13.4707 16.6585 15.4707 16.0385 18.4707C15.2885 22.1107 18.6385 25.8607 23.5285 26.8507C24.3021 27.0078 25.0892 27.0882 25.8785 27.0907C27.8073 27.13 29.702 26.5787 31.3085 25.5107L31.4785 25.3907C31.6585 25.2507 31.8385 25.1107 31.9985 24.9707V25.0007C32.1427 24.8682 32.2795 24.728 32.4085 24.5807L32.5485 24.4207C33.1073 23.7553 33.4921 22.9615 33.6685 22.1107C34.2185 19.5807 32.7985 17.0007 30.2685 15.3507ZM25.8785 26.1407C25.1532 26.1363 24.4299 26.0627 23.7185 25.9207C21.3528 25.5091 19.2383 24.1974 17.8185 22.2607C17.7585 22.1707 17.7185 22.0807 17.6685 21.9907C18.3093 21.2077 19.1262 20.5875 20.0526 20.1808C20.979 19.7741 21.9885 19.5925 22.9985 19.6507C23.6698 19.648 24.3398 19.7117 24.9985 19.8407C27.1033 20.2046 28.989 21.3603 30.2685 23.0707C30.5774 23.528 30.7948 24.0408 30.9085 24.5807C29.4483 25.6383 27.6809 26.1864 25.8785 26.1407Z" fill="#212C3A"/>
<path d="M40.4993 22.4805C40.4993 22.2105 40.3793 21.9505 40.3193 21.6905C40.3193 21.5905 40.3193 21.4805 40.2293 21.3805C38.7793 16.3805 33.5893 11.9605 26.7593 10.5805C25.3544 10.2918 23.9236 10.1477 22.4893 10.1505C19.2406 10.1005 16.0406 10.9446 13.2393 12.5905C12.1422 13.2674 11.1599 14.1147 10.3293 15.1005C10.2193 15.2305 10.1093 15.3705 10.0093 15.5105C9.90928 15.6505 9.72928 15.8805 9.59928 16.0805C9.46928 16.2805 9.38928 16.4105 9.28928 16.5805C9.18928 16.7505 9.06928 16.9705 8.96928 17.1705C8.86928 17.3705 8.79928 17.5105 8.71928 17.6805C8.63928 17.8505 8.51928 18.1705 8.42928 18.4205C8.33928 18.6705 8.31928 18.7105 8.26928 18.8705C8.15253 19.2877 8.06235 19.7119 7.99928 20.1405V20.2505C7.09928 26.8505 13.1093 33.4505 21.7893 35.2505C23.195 35.5341 24.6253 35.6781 26.0593 35.6805C33.2793 35.6805 39.3693 31.9105 40.5293 26.2105C40.7594 24.9769 40.7492 23.7104 40.4993 22.4805ZM33.7093 22.0805C33.5329 22.9314 33.148 23.7251 32.5893 24.3905L32.4493 24.5505C32.3082 24.7092 32.1579 24.8595 31.9993 25.0005C31.8393 25.1405 31.6593 25.2805 31.4793 25.4205L31.3093 25.5405C29.7027 26.6086 27.808 27.1599 25.8793 27.1205C25.09 27.118 24.3028 27.0376 23.5293 26.8805C18.6393 25.8805 15.2893 22.1405 16.0393 18.5005C16.6593 15.5005 19.9493 13.5005 23.8593 13.5005C24.6516 13.4991 25.4421 13.5762 26.2193 13.7305C27.6625 14.016 29.0375 14.5761 30.2693 15.3805C32.7993 17.0005 34.2193 19.5805 33.7093 22.0805Z" fill="white"/>
<path d="M31.9287 18.34C32.2916 18.8468 32.5493 19.4211 32.6867 20.0291C32.8241 20.6371 32.8384 21.2664 32.7287 21.88C32.6679 22.2026 32.5636 22.5154 32.4187 22.81C31.701 21.5121 30.6981 20.3941 29.4856 19.5401C28.2731 18.6862 26.8825 18.1185 25.4187 17.88C24.6219 17.7216 23.8111 17.6446 22.9987 17.65C20.8099 17.5969 18.6767 18.3435 16.9987 19.75C16.9794 19.415 17.0029 19.079 17.0687 18.75C17.5787 16.24 20.3887 14.5 23.9087 14.5C24.6338 14.5005 25.3572 14.5708 26.0687 14.71C28.4135 15.1286 30.5097 16.4271 31.9287 18.34Z" fill="white"/>
</svg>
