<svg width="48" height="48" viewBox="0 0 48 48" fill="none" xmlns="http://www.w3.org/2000/svg">
<g clip-path="url(#clip0_498_2386)">
<path d="M24.5 45C13.75 45 5 38.63 5 30.81V28.17C5 20.35 13.75 14 24.5 14C35.25 14 44 20.35 44 28.17V30.81C44 38.63 35.25 45 24.5 45Z" fill="white"/>
<path d="M24.5 15C34.72 15 43 20.89 43 28.17V30.81C43 38.09 34.72 44 24.5 44C14.28 44 6 38.09 6 30.81V28.17C6 20.89 14.28 15 24.5 15ZM24.5 13C13.2 13 4 19.8 4 28.17V30.81C4 39.18 13.2 46 24.5 46C35.8 46 45 39.18 45 30.81V28.17C45 19.8 35.8 13 24.5 13Z" fill="#212C3A"/>
<path d="M24.5 20.3496C30.3 20.3496 35 23.5496 35 27.4896C35 31.4296 30.3 34.6396 24.5 34.6396C18.7 34.6396 14 31.4396 14 27.4896C14 23.5396 18.7 20.3496 24.5 20.3496ZM24.5 19.3496C18.16 19.3496 13 22.9996 13 27.4896C13 31.9796 18.16 35.6396 24.5 35.6396C30.84 35.6396 36 31.9996 36 27.4896C36 22.9796 30.84 19.3496 24.5 19.3496Z" fill="#212C3A"/>
<mask id="mask0_498_2386" style="mask-type:luminance" maskUnits="userSpaceOnUse" x="14" y="21" width="21" height="15">
<path d="M24.5 35.6398C30.299 35.6398 35 32.4387 35 28.4898C35 24.541 30.299 21.3398 24.5 21.3398C18.701 21.3398 14 24.541 14 28.4898C14 32.4387 18.701 35.6398 24.5 35.6398Z" fill="white"/>
</mask>
<g mask="url(#mask0_498_2386)">
<path d="M24.5 25.25C29.11 25.25 33 27.61 33 30.4C33 33.19 29.11 35.54 24.5 35.54C19.89 35.54 16 33.19 16 30.4C16 27.61 19.89 25.25 24.5 25.25ZM24.5 23.25C18.7 23.25 14 26.45 14 30.4C14 34.35 18.7 37.54 24.5 37.54C30.3 37.54 35 34.34 35 30.4C35 26.46 30.3 23.25 24.5 23.25Z" fill="#212C3A"/>
</g>
<path d="M24.5 14C34.72 14 43 19.83 43 27C43 34.17 34.72 40 24.5 40C14.28 40 6 34.16 6 27C6 19.84 14.28 14 24.5 14ZM24.5 13C13.75 13 5 19.29 5 27C5 34.71 13.75 41 24.5 41C35.25 41 44 34.72 44 27C44 19.28 35.25 13 24.5 13Z" fill="#212C3A"/>
<mask id="mask1_498_2386" style="mask-type:luminance" maskUnits="userSpaceOnUse" x="4" y="2" width="41" height="33">
<rect width="41" height="33" transform="translate(4 2)" fill="white"/>
<path d="M35 19.5C33.58 22.11 29.41 24 24.5 24C19.59 24 15.42 22.11 14 19.5C15.41 16.89 19.58 15 24.5 15C29.42 15 33.59 16.89 35 19.5Z" fill="black"/>
</mask>
<g mask="url(#mask1_498_2386)">
<path d="M24.5 34C13.75 34 5 27.64 5 19.83V17.19C5 9.37 13.75 3 24.5 3C35.25 3 44 9.37 44 17.19V19.83C44 27.64 35.25 34 24.5 34Z" fill="white"/>
<path d="M24.5 4C34.72 4 43 9.91 43 17.19V19.83C43 27.11 34.72 33 24.5 33C14.28 33 6 27.11 6 19.83V17.19C6 9.91 14.28 4 24.5 4ZM24.5 2C13.2 2 4 8.81 4 17.19V19.83C4 28.19 13.2 35 24.5 35C35.8 35 45 28.19 45 19.83V17.19C45 8.81 35.8 2 24.5 2Z" fill="#212C3A"/>
</g>
<path d="M24.5 4C34.72 4 43 9.82 43 17C43 24.18 34.72 30 24.5 30C14.28 30 6 24.18 6 17C6 9.82 14.28 4 24.5 4ZM24.5 3C13.75 3 5 9.28 5 17C5 24.72 13.75 31 24.5 31C35.25 31 44 24.72 44 17C44 9.28 35.25 3 24.5 3Z" fill="#212C3A"/>
<path d="M24.5 9C30.85 9 36 12.38 36 16.51C36 20.64 30.85 24 24.5 24C18.15 24 13 20.65 13 16.51C13 12.37 18.15 9 24.5 9ZM24.5 8C17.61 8 12 11.82 12 16.51C12 21.2 17.61 25 24.5 25C31.39 25 37 21.19 37 16.51C37 11.83 31.39 8 24.5 8Z" fill="#212C3A"/>
<mask id="mask2_498_2386" style="mask-type:luminance" maskUnits="userSpaceOnUse" x="13" y="9" width="23" height="16">
<path d="M24.5 25C30.8513 25 36 21.4183 36 17C36 12.5817 30.8513 9 24.5 9C18.1487 9 13 12.5817 13 17C13 21.4183 18.1487 25 24.5 25Z" fill="white"/>
</mask>
<g mask="url(#mask2_498_2386)">
<path d="M24.5 15C30.1 15 34 18.23 34 21.13C34 24.31 29.65 27 24.5 27C19.35 27 15 24.31 15 21.13C15 18.23 18.9 15 24.5 15ZM24.5 13C18.15 13 13 16.78 13 21.13C13 25.48 18.15 29 24.5 29C30.85 29 36 25.48 36 21.13C36 16.78 30.85 13 24.5 13Z" fill="#212C3A"/>
</g>
</g>
<defs>
<clipPath id="clip0_498_2386">
<rect width="48" height="48" fill="white"/>
</clipPath>
</defs>
</svg>
