<svg width="48" height="48" viewBox="0 0 48 48" fill="none" xmlns="http://www.w3.org/2000/svg">
<path d="M30.5793 30.4904C30.5097 30.5001 30.439 30.5001 30.3693 30.4904L7.36931 25.6904C6.77085 25.5986 6.19691 25.3876 5.68156 25.0698C5.16622 24.752 4.71997 24.3339 4.36931 23.8404C3.19745 22.1353 2.74806 20.0357 3.11931 18.0004C3.60931 14.4204 6.11931 11.7204 8.90931 11.7204C9.08584 11.7104 9.26279 11.7104 9.43931 11.7204C9.58931 11.7204 17.5793 13.3404 33.1993 16.4904C33.4579 16.5448 33.6844 16.6994 33.8293 16.9204C33.9767 17.1406 34.0307 17.4104 33.9793 17.6704L31.5593 29.6704C31.5146 29.9015 31.3898 30.1094 31.2069 30.2576C31.024 30.4057 30.7947 30.4846 30.5593 30.4804L30.5793 30.4904Z" fill="white"/>
<path d="M8.90858 12.7205C9.04507 12.7105 9.1821 12.7105 9.31858 12.7205C9.49858 12.7605 32.9986 17.5005 32.9986 17.5005L30.5786 29.5005L7.57858 24.6905C5.16858 24.3605 3.57858 21.4205 4.07858 18.1505C4.57858 14.8805 6.58858 12.7305 8.87858 12.7305M8.87858 10.7305C5.57858 10.7305 2.65858 13.8005 2.09858 17.8705C1.72023 20.166 2.25893 22.5183 3.59858 24.4205C4.47032 25.6166 5.77799 26.4213 7.23858 26.6605L30.1386 31.4505C30.2748 31.4657 30.4123 31.4657 30.5486 31.4505C31.0179 31.4595 31.4754 31.3031 31.841 31.0088C32.2067 30.7144 32.4571 30.3009 32.5486 29.8405L34.9986 17.9005C35.0512 17.6431 35.0525 17.3778 35.0026 17.1199C34.9526 16.862 34.8524 16.6164 34.7075 16.3973C34.5626 16.1781 34.376 15.9897 34.1583 15.8426C33.9406 15.6956 33.696 15.5929 33.4386 15.5405C9.81858 10.7905 9.65859 10.7705 9.55859 10.7505C9.45859 10.7305 9.12858 10.7505 8.90858 10.7505L8.87858 10.7305Z" fill="#212C3A"/>
<path d="M8.07895 25.22C7.92911 25.2299 7.77879 25.2299 7.62895 25.22C7.07351 25.1456 6.53894 24.9593 6.05764 24.6722C5.57635 24.3852 5.15834 24.0034 4.82895 23.55C3.71598 21.9856 3.26995 20.0432 3.58895 18.15C4.05895 14.78 6.35895 12.25 8.93895 12.25H9.39895C9.95407 12.3255 10.4882 12.5123 10.9694 12.7993C11.4505 13.0862 11.8687 13.4674 12.1989 13.92C13.3034 15.4881 13.7453 17.4283 13.429 19.32C12.999 22.68 10.669 25.22 8.07895 25.22Z" fill="white"/>
<path d="M8.93964 12.7207C9.07279 12.7107 9.2065 12.7107 9.33964 12.7207C11.7796 13.0107 13.3896 15.9207 12.9296 19.2207C12.4996 22.3507 10.3796 24.7007 8.07964 24.7007C7.94983 24.7106 7.81945 24.7106 7.68964 24.7007C5.23964 24.4107 3.62964 21.5007 4.08964 18.2007C4.51964 15.0807 6.64964 12.7307 8.93964 12.7307M8.93964 11.7307C6.10964 11.7307 3.59964 14.4507 3.09964 18.0607C2.9307 19.0627 2.96122 20.0881 3.18945 21.0783C3.41768 22.0684 3.83914 23.0038 4.42964 23.8307C4.79887 24.3381 5.26782 24.7648 5.80775 25.0847C6.34767 25.4045 6.94722 25.6107 7.56964 25.6907C7.73932 25.7056 7.90997 25.7056 8.07964 25.6907C10.9096 25.6907 13.4296 22.9607 13.9296 19.3507C14.2657 17.3258 13.7837 15.2503 12.5896 13.5807C12.2224 13.0736 11.7552 12.647 11.217 12.3271C10.6787 12.0072 10.0806 11.8008 9.45964 11.7207H8.93964V11.7307Z" fill="#212C3A"/>
<path d="M11.0982 25.8294H10.6382C10.0831 25.7539 9.54895 25.5671 9.0678 25.2801C8.58666 24.9931 8.16843 24.6119 7.83822 24.1594C6.73281 22.5917 6.29078 20.6511 6.60822 18.7594C7.07822 15.3994 9.36822 12.8594 11.9582 12.8594H12.4082C12.9643 12.9315 13.4997 13.1169 13.9813 13.4041C14.4629 13.6913 14.8805 14.0743 15.2082 14.5294C16.3212 16.0938 16.7672 18.0362 16.4482 19.9294C15.9982 23.2894 13.6782 25.8294 11.0982 25.8294Z" fill="white"/>
<path d="M11.9996 13.3298H12.3896C14.8396 13.6198 16.4496 16.5398 15.9896 19.8398C15.5596 22.9598 13.4296 25.3098 11.1396 25.3098H10.7396C8.2996 25.0198 6.7396 22.1098 7.1496 18.8098C7.5796 15.6898 9.6996 13.3398 11.9996 13.3398M11.9996 12.3398C9.1696 12.3398 6.6496 15.0598 6.1596 18.6698C5.9893 19.6734 6.01913 20.7007 6.24739 21.6927C6.47564 22.6846 6.89781 23.6217 7.4896 24.4498C7.85813 24.9557 8.3256 25.3814 8.86365 25.7012C9.4017 26.0209 9.9991 26.228 10.6196 26.3098H11.1396C13.9696 26.3098 16.4796 23.5898 16.9796 19.9698C17.148 18.9679 17.1172 17.9425 16.889 16.9524C16.6608 15.9624 16.2396 15.027 15.6496 14.1998C15.2791 13.6937 14.8098 13.2679 14.2702 12.9482C13.7305 12.6285 13.1315 12.4215 12.5096 12.3398H11.9996Z" fill="#212C3A"/>
<path d="M14.1188 26.4403C13.9656 26.4506 13.812 26.4506 13.6588 26.4403C13.1027 26.3683 12.5673 26.1829 12.0857 25.8956C11.6041 25.6084 11.1865 25.2254 10.8588 24.7703C10.307 23.9963 9.91413 23.1204 9.703 22.1935C9.49187 21.2666 9.46665 20.3071 9.6288 19.3703C10.0888 16.0103 12.3888 13.4703 14.9688 13.4703C15.122 13.4604 15.2756 13.4604 15.4288 13.4703C15.9842 13.5447 16.5188 13.7311 17.0001 14.0181C17.4814 14.3052 17.8994 14.687 18.2288 15.1403C18.7806 15.9144 19.1735 16.7903 19.3846 17.7172C19.5957 18.6441 19.6209 19.6036 19.4588 20.5403C18.9988 23.9003 16.6988 26.4403 14.1188 26.4403Z" fill="white"/>
<path d="M14.9997 13.9395H15.3997C17.8397 14.2395 19.4497 17.1495 18.9997 20.4495C18.5697 23.5695 16.4397 25.9195 14.1497 25.9195H13.7497C11.3097 25.6295 9.69971 22.7095 10.1497 19.4095C10.5797 16.2895 12.7097 13.9395 14.9997 13.9395ZM14.9997 12.9395C12.1697 12.9395 9.65971 15.6595 9.15971 19.2695C8.82356 21.2961 9.30158 23.3735 10.4897 25.0495C10.8602 25.5556 11.3295 25.9814 11.8692 26.3011C12.4089 26.6208 13.0078 26.8278 13.6297 26.9095C13.8029 26.9197 13.9765 26.9197 14.1497 26.9095C16.9797 26.9095 19.4897 24.1895 19.9897 20.5795C20.3248 18.5528 19.8468 16.4758 18.6597 14.7995C18.279 14.3022 17.8022 13.8866 17.2576 13.5774C16.713 13.2681 16.1118 13.0716 15.4897 12.9995C15.3165 12.9895 15.1429 12.9895 14.9697 12.9995L14.9997 12.9395Z" fill="#212C3A"/>
<path d="M17.1298 27.0498H16.6699C16.1162 26.9742 15.5835 26.7872 15.104 26.5002C14.6245 26.2132 14.2081 25.8321 13.8799 25.3798C12.7741 23.8198 12.3286 21.8865 12.6399 19.9998C13.1099 16.6298 15.4099 14.0898 17.9899 14.0898H18.4499C19.005 14.1653 19.5391 14.3522 20.0203 14.6391C20.5014 14.9261 20.9196 15.3073 21.2499 15.7598C22.3553 17.3275 22.7973 19.2681 22.4798 21.1598C21.9999 24.5198 19.7198 27.0498 17.1298 27.0498Z" fill="white"/>
<path d="M18.0016 14.5491H18.4016C20.8416 14.8391 22.4516 17.7491 21.9916 21.0491C21.5616 24.1691 19.4416 26.5191 17.1416 26.5191C17.0084 26.5288 16.8747 26.5288 16.7416 26.5191C14.3016 26.2291 12.6916 23.3191 13.1516 20.0091C13.5816 16.8891 15.7016 14.5391 18.0016 14.5391M18.0016 13.5391C15.1716 13.5391 12.6616 16.2691 12.1616 19.8791C11.9932 20.881 12.024 21.9064 12.2522 22.8965C12.4804 23.8865 12.9016 24.8219 13.4916 25.6491C13.8608 26.1565 14.3298 26.5832 14.8697 26.903C15.4096 27.2228 16.0092 27.4291 16.6316 27.5091C16.8014 27.519 16.9717 27.519 17.1416 27.5091C19.9716 27.5091 22.4816 24.7891 22.9816 21.1791C23.1528 20.1771 23.1233 19.1512 22.895 18.1607C22.6667 17.1703 22.2441 16.235 21.6516 15.4091C21.2849 14.9005 20.818 14.4723 20.2798 14.1507C19.7415 13.8291 19.1432 13.621 18.5216 13.5391H18.0016Z" fill="#212C3A"/>
<path d="M20.149 27.6692C19.9958 27.6792 19.8422 27.6792 19.689 27.6692C19.1336 27.5949 18.599 27.4085 18.1177 27.1214C17.6364 26.8344 17.2184 26.4526 16.889 25.9992C15.7836 24.4316 15.3416 22.491 15.659 20.5992C16.119 17.2292 18.419 14.6992 20.999 14.6992H21.459C22.0144 14.7736 22.549 14.9599 23.0303 15.247C23.5116 15.5341 23.9296 15.9158 24.259 16.3692C25.3709 17.9341 25.8169 19.876 25.499 21.7692C24.999 25.1292 22.729 27.6692 20.149 27.6692Z" fill="white"/>
<path d="M21.0019 15.1697C21.1317 15.1597 21.2621 15.1597 21.3919 15.1697C23.8419 15.4597 25.4519 18.3697 24.9919 21.6797C24.5619 24.7997 22.4319 27.1497 20.1419 27.1497C20.0087 27.1596 19.875 27.1596 19.7419 27.1497C17.3019 26.8597 15.6919 23.9497 16.1419 20.6497C16.5819 17.5297 18.7019 15.1797 21.0019 15.1797M21.0019 14.1797C18.1619 14.1797 15.6519 16.8997 15.1519 20.5097C14.9849 21.5123 15.0173 22.538 15.2473 23.5281C15.4772 24.5182 15.9001 25.4533 16.4919 26.2797C16.8586 26.7882 17.3254 27.2165 17.8637 27.538C18.4019 27.8596 19.0003 28.0678 19.6219 28.1497H20.1419C22.9719 28.1497 25.4819 25.4197 25.9819 21.8097C26.1503 20.8077 26.1195 19.7824 25.8913 18.7923C25.6631 17.8022 25.2419 16.8669 24.6519 16.0397C24.2827 15.5323 23.8137 15.1056 23.2738 14.7857C22.7339 14.4659 22.1343 14.2597 21.5119 14.1797H21.0019Z" fill="#212C3A"/>
<path d="M23.1696 28.2802C23.0164 28.2905 22.8627 28.2905 22.7096 28.2802C22.1541 28.2058 21.6196 28.0195 21.1383 27.7324C20.657 27.4454 20.239 27.0636 19.9096 26.6102C19.3577 25.8361 18.9649 24.9603 18.7538 24.0334C18.5427 23.1065 18.5174 22.1469 18.6796 21.2102C19.1396 17.8502 21.4396 15.3102 24.0196 15.3102C24.1727 15.3002 24.3264 15.3002 24.4796 15.3102C25.0373 15.3847 25.5737 15.5732 26.0554 15.8639C26.5371 16.1547 26.9538 16.5414 27.2796 17.0002C28.389 18.566 28.8315 20.5083 28.5096 22.4002C28.0496 25.7402 25.7496 28.2802 23.1696 28.2802Z" fill="white"/>
<path d="M24.0013 15.7807H24.4013C26.8413 16.0707 28.4013 18.9907 28.0013 22.2907C27.5613 25.4107 25.4413 27.7607 23.1513 27.7607C23.0182 27.7709 22.8845 27.7709 22.7513 27.7607C20.3013 27.4707 18.6913 24.5607 19.1513 21.2607C19.5813 18.1407 21.7113 15.7907 24.0013 15.7907M24.0013 14.7907C21.1713 14.7907 18.6613 17.5107 18.1613 21.1207C17.8219 23.1474 18.3002 25.2261 19.4913 26.9007C19.8618 27.4068 20.3311 27.8327 20.8708 28.1523C21.4105 28.472 22.0094 28.679 22.6313 28.7607C22.8045 28.7709 22.9782 28.7709 23.1513 28.7607C25.9813 28.7607 28.4913 26.0407 28.9913 22.4207C29.3274 20.3957 28.8454 18.3202 27.6513 16.6507C27.2828 16.1448 26.8153 15.7191 26.2773 15.3993C25.7392 15.0796 25.1418 14.8725 24.5213 14.7907C24.3482 14.7807 24.1745 14.7807 24.0013 14.7907Z" fill="#212C3A"/>
<path d="M26.1802 28.8899H25.7202C25.1645 28.8167 24.6295 28.6308 24.148 28.3437C23.6666 28.0565 23.2488 27.6741 22.9202 27.2199C21.8148 25.6523 21.3728 23.7117 21.6902 21.8199C22.1602 18.4599 24.4602 15.9199 27.0402 15.9199H27.5002C28.055 15.9965 28.5888 16.1838 29.0698 16.4707C29.5508 16.7576 29.9692 17.1382 30.3002 17.5899C31.4083 19.1602 31.8504 21.1049 31.5302 22.9999C31.0602 26.3499 28.7602 28.8899 26.1802 28.8899Z" fill="white"/>
<path d="M27.0016 16.3909H27.4016C29.8416 16.6809 31.4016 19.5909 30.9916 22.8909C30.5616 26.0109 28.4416 28.3609 26.1416 28.3609H25.7416C23.3016 28.0709 21.6916 25.1509 22.1516 21.8509C22.5816 18.7309 24.7016 16.3809 27.0016 16.3809M27.0016 15.3809C24.1716 15.3809 21.6616 18.1009 21.1616 21.7209C20.9932 22.7228 21.024 23.7482 21.2522 24.7383C21.4804 25.7283 21.9016 26.6637 22.4916 27.4909C22.8614 27.9955 23.3292 28.4203 23.867 28.7399C24.4048 29.0595 25.0016 29.2673 25.6216 29.3509H26.1416C28.9716 29.3509 31.4816 26.6309 31.9816 23.0209C32.3211 20.9941 31.8428 18.9154 30.6516 17.2409C30.2818 16.7362 29.814 16.3114 29.2762 15.9918C28.7384 15.6722 28.1416 15.4644 27.5216 15.3809H27.0016Z" fill="#212C3A"/>
<path d="M33.8992 36.6803C33.3856 36.68 32.8732 36.6298 32.3692 36.5303C31.2657 36.2876 30.222 35.8263 29.2997 35.1737C28.3774 34.521 27.5952 33.6902 26.9992 32.7303C25.0549 29.5343 24.4444 25.7023 25.2992 22.0603C26.5992 15.8403 31.1392 11.3203 36.0992 11.3203C36.6129 11.3197 37.1254 11.3699 37.6292 11.4703C38.7074 11.6941 39.7289 12.1348 40.6314 12.7658C41.5339 13.3967 42.2987 14.2046 42.8792 15.1403C44.8328 18.3816 45.4259 22.2636 44.5292 25.9403C43.1792 32.1603 38.7292 36.6803 33.8992 36.6803Z" fill="white"/>
<path d="M36.0511 12.3203C36.501 12.3189 36.9499 12.3625 37.3911 12.4503C42.2211 13.4503 44.8311 19.3603 43.5011 25.7403C42.2911 31.5303 38.2511 35.6803 33.9011 35.6803C33.4545 35.6817 33.009 35.6381 32.5711 35.5503C27.7411 34.5503 24.9011 28.6403 26.2311 22.2603C27.4411 16.4703 31.6711 12.3203 36.0511 12.3203ZM36.0511 10.3203C30.6211 10.3203 25.6711 15.1703 24.2811 21.8503C23.3593 25.7537 24.0209 29.8634 26.1211 33.2803C26.7991 34.353 27.6843 35.2796 28.7249 36.006C29.7654 36.7323 30.9404 37.2437 32.1811 37.5103C32.7477 37.622 33.3237 37.679 33.9011 37.6803C39.2011 37.6803 44.0611 32.8303 45.4611 26.1503C46.4087 22.2083 45.7656 18.0517 43.6711 14.5803C42.8668 13.282 41.7453 12.2098 40.4122 11.4645C39.0791 10.7193 37.5783 10.3255 36.0511 10.3203Z" fill="#212C3A"/>
<path d="M43.7119 26.0696C42.8662 26.301 42.147 26.8585 41.7119 27.6196C40.9222 28.8878 40.2526 30.2269 39.7119 31.6196L37.7919 31.9096C38.0819 31.3696 38.9219 28.7796 38.0419 27.7296C37.1619 26.6796 33.9219 26.5996 33.9219 26.5996L34.0819 24.1096C34.0819 24.1096 37.5419 24.0296 38.3319 22.9796C39.1219 21.9296 38.8119 19.5296 38.4819 18.3496L40.2919 18.0996C40.2919 18.0996 41.3819 22.2496 41.9219 22.6596C42.2045 22.9183 42.5421 23.1094 42.9094 23.2185C43.2766 23.3277 43.6639 23.352 44.0419 23.2896L43.7119 26.0696Z" fill="#212C3A"/>
</svg>
