<svg width="48" height="48" viewBox="0 0 48 48" fill="none" xmlns="http://www.w3.org/2000/svg">
<path d="M27.7495 30.49H27.5395L6.59952 26.17C6.5268 26.1558 6.45622 26.1323 6.38952 26.1C4.07952 25.04 2.76953 22.1 3.20953 18.89C3.71953 15.25 6.20953 12.5 9.04953 12.5H9.27952H9.41953L30.3595 16.69C30.4894 16.7158 30.6128 16.767 30.7226 16.8408C30.8325 16.9147 30.9266 17.0095 30.9995 17.12C31.1469 17.3402 31.2009 17.61 31.1495 17.87L28.7195 29.67C28.6778 29.8979 28.5583 30.1042 28.3814 30.2538C28.2045 30.4033 27.9812 30.4868 27.7495 30.49Z" fill="white"/>
<path d="M9.05027 13.5H9.23027L30.1703 17.69L27.7403 29.49L6.80027 25.19C4.94027 24.34 3.80027 21.83 4.20027 19.03C4.63027 15.93 6.75027 13.5 9.05027 13.5ZM9.05027 11.5C5.73027 11.5 2.79027 14.62 2.22027 18.75C1.72027 22.37 3.22027 25.75 5.97027 27.01C6.10831 27.0716 6.25243 27.1185 6.40027 27.15L27.3403 31.45C27.4768 31.4598 27.6138 31.4598 27.7503 31.45C28.2096 31.4478 28.6542 31.2875 29.0093 30.9962C29.3644 30.7048 29.6084 30.3001 29.7003 29.85L32.1303 18.05C32.1825 17.791 32.1829 17.5242 32.1314 17.265C32.0799 17.0058 31.9775 16.7594 31.8303 16.54C31.5361 16.0997 31.0794 15.7941 30.5603 15.69L9.62027 11.54H9.33027L9.05027 11.5Z" fill="#212C3A"/>
<path d="M8.23946 25.9004H7.77946C7.22597 25.821 6.69429 25.6304 6.2165 25.3399C5.7387 25.0495 5.3247 24.6652 4.99946 24.2104C3.89203 22.6436 3.44982 20.7022 3.76946 18.8104C4.22946 15.4404 6.52946 12.9004 9.11946 12.9004H9.56946C10.1249 12.9748 10.6595 13.1611 11.1408 13.4482C11.6221 13.7352 12.0401 14.117 12.3695 14.5704C12.9217 15.3497 13.3132 16.2313 13.5209 17.1636C13.7287 18.0959 13.7486 19.0603 13.5795 20.0004C13.1195 23.3704 10.8195 25.9004 8.23946 25.9004Z" fill="white"/>
<path d="M9.08903 13.4006C9.22216 13.3904 9.35589 13.3904 9.48903 13.4006C11.939 13.6906 13.549 16.6006 13.089 19.9006C12.659 23.0206 10.529 25.3706 8.23903 25.3706C8.10588 25.3806 7.97218 25.3806 7.83903 25.3706C5.39903 25.0806 3.83903 22.1606 4.23903 18.8606C4.67903 15.7406 6.79903 13.3906 9.08903 13.3906M9.08903 12.3906C6.25903 12.3906 3.74903 15.1206 3.24903 18.7306C2.91293 20.7556 3.39494 22.8311 4.58903 24.5006C4.95629 25.0078 5.42343 25.4344 5.96171 25.7542C6.49999 26.0741 7.09803 26.2805 7.71903 26.3606C7.89222 26.3706 8.06584 26.3706 8.23903 26.3606C11.069 26.3606 13.579 23.6406 14.079 20.0306C14.248 19.0287 14.2175 18.0032 13.9892 17.013C13.761 16.0229 13.3395 15.0875 12.749 14.2606C12.3803 13.7518 11.9117 13.3235 11.3718 13.0019C10.8319 12.6804 10.2321 12.4724 9.60903 12.3906H9.09903H9.08903Z" fill="#212C3A"/>
<path d="M11.2494 26.5195C11.0996 26.5295 10.9493 26.5295 10.7994 26.5195C10.2416 26.4415 9.70558 26.2505 9.22414 25.9582C8.74269 25.6659 8.32595 25.2785 7.99942 24.8195C7.44759 24.0454 7.05475 23.1696 6.84362 22.2427C6.6325 21.3158 6.60728 20.3562 6.76942 19.4195C7.22942 16.0495 9.52942 13.5195 12.1094 13.5195H12.5694C13.1249 13.5939 13.6594 13.7803 14.1407 14.0673C14.622 14.3544 15.04 14.7362 15.3694 15.1895C16.4779 16.7558 16.9202 18.6977 16.5994 20.5895C16.1394 23.9995 13.8394 26.5195 11.2494 26.5195Z" fill="white"/>
<path d="M12.1104 14C12.2435 13.99 12.3772 13.99 12.5104 14C14.9504 14.29 16.5104 17.2 16.1104 20.5C15.6704 23.67 13.5504 26 11.2504 26C11.1205 26.0099 10.9902 26.0099 10.8604 26C8.41035 25.71 6.80035 22.8 7.26035 19.5C7.69035 16.37 9.82035 14 12.1104 14ZM12.1104 13C9.28035 13 6.77035 15.72 6.27035 19.33C6.09868 20.3351 6.12783 21.3643 6.35611 22.3581C6.58439 23.3518 7.00728 24.2906 7.60035 25.12C7.96978 25.6291 8.43843 26.0581 8.97807 26.3812C9.51772 26.7043 10.1172 26.9148 10.7404 27C10.9102 27.01 11.0805 27.01 11.2504 27C14.0904 27 16.6004 24.27 17.1004 20.66C17.4365 18.6351 16.9544 16.5596 15.7604 14.89C15.3931 14.3829 14.9259 13.9562 14.3877 13.6364C13.8494 13.3165 13.2514 13.1101 12.6304 13.03C12.4572 13.02 12.2835 13.02 12.1104 13.03V13Z" fill="#212C3A"/>
<path d="M14.2683 27.1296H13.8083C13.2491 27.0518 12.7116 26.8609 12.2285 26.5686C11.7454 26.2764 11.3268 25.8888 10.9983 25.4296C9.88857 23.8526 9.44981 21.8998 9.77834 19.9996C10.2483 16.6396 12.5383 14.0996 15.1283 14.0996H15.5883C16.1427 14.173 16.6762 14.359 17.156 14.6462C17.6358 14.9334 18.0518 15.3157 18.3783 15.7696C19.4913 17.334 19.9373 19.2764 19.6183 21.1696C19.1483 24.5896 16.8483 27.1296 14.2683 27.1296Z" fill="white"/>
<path d="M15.1285 14.6306H15.5285C17.9685 14.9206 19.5285 17.8406 19.1185 21.1406C18.6885 24.2606 16.5685 26.6106 14.2685 26.6106H13.8685C11.4285 26.3206 9.86851 23.4106 10.2785 20.1106C10.7085 16.9906 12.8285 14.6406 15.1285 14.6406M15.1285 13.6406C12.2985 13.6406 9.78851 16.3606 9.28851 19.9706C9.1182 20.9742 9.14804 22.0015 9.37629 22.9934C9.60455 23.9854 10.0267 24.9224 10.6185 25.7506C10.987 26.2565 11.4545 26.6822 11.9926 27.002C12.5306 27.3217 13.128 27.5288 13.7485 27.6106H14.2685C17.0985 27.6106 19.6085 24.8906 20.1085 21.2706C20.2769 20.2686 20.2461 19.2433 20.0179 18.2532C19.7897 17.2632 19.3685 16.3278 18.7785 15.5006C18.408 14.9944 17.9388 14.5686 17.3991 14.2489C16.8594 13.9293 16.2604 13.7223 15.6385 13.6406H15.1285Z" fill="#212C3A"/>
<path d="M17.2894 27.7391C17.1363 27.749 16.9826 27.749 16.8294 27.7391C16.2624 27.6626 15.7177 27.4682 15.2303 27.1686C14.7429 26.8689 14.3236 26.4705 13.9994 25.9991C13.4476 25.225 13.0548 24.3492 12.8436 23.4223C12.6325 22.4954 12.6073 21.5358 12.7694 20.5991C13.2294 17.2391 15.5294 14.6991 18.1094 14.6991C18.2626 14.6888 18.4163 14.6888 18.5694 14.6991C19.1249 14.7735 19.6594 14.9598 20.1407 15.2469C20.622 15.5339 21.04 15.9157 21.3694 16.3691C21.9212 17.1432 22.3141 18.019 22.5252 18.9459C22.7363 19.8728 22.7616 20.8324 22.5994 21.7691C22.1694 25.1991 19.8694 27.7391 17.2894 27.7391Z" fill="white"/>
<path d="M18.1395 15.2401H18.5395C20.9795 15.5401 22.5895 18.4501 22.1395 21.7501C21.7095 24.8701 19.5795 27.2201 17.2895 27.2201H16.8895C14.4495 26.9301 12.8395 24.0101 13.2895 20.7101C13.7195 17.5901 15.8495 15.2401 18.1395 15.2401ZM18.1395 14.2401C15.3095 14.2401 12.7995 16.9601 12.2995 20.5801C11.965 22.6035 12.443 24.6772 13.6295 26.3501C14.0013 26.855 14.4708 27.28 15.0103 27.5995C15.5498 27.9191 16.1481 28.1267 16.7695 28.2101C16.9427 28.22 17.1163 28.22 17.2895 28.2101C20.1195 28.2101 22.6295 25.4901 23.1295 21.8801C23.469 19.8533 22.9907 17.7747 21.7995 16.1001C21.429 15.5939 20.9598 15.1681 20.4201 14.8484C19.8804 14.5287 19.2815 14.3218 18.6595 14.2401C18.4864 14.2299 18.3127 14.2299 18.1395 14.2401Z" fill="#212C3A"/>
<path d="M20.3011 28.3491H19.8511C19.2956 28.2748 18.761 28.0884 18.2798 27.8014C17.7985 27.5143 17.3804 27.1325 17.0511 26.6791C15.9391 25.1143 15.4932 23.1723 15.8111 21.2791C16.2811 17.9091 18.5811 15.3691 21.1611 15.3691H21.6211C22.1765 15.4435 22.7111 15.6299 23.1924 15.9169C23.6737 16.204 24.0917 16.5858 24.4211 17.0391C25.5265 18.6068 25.9685 20.5474 25.6511 22.4391C25.1811 25.8191 22.8911 28.3491 20.3011 28.3491Z" fill="white"/>
<path d="M21.1608 15.8498C21.294 15.8399 21.4277 15.8399 21.5608 15.8498C24.0008 16.1398 25.6108 19.0498 25.1508 22.3498C24.7208 25.4698 22.6008 27.8198 20.3008 27.8198C20.171 27.8298 20.0406 27.8298 19.9108 27.8198C17.4608 27.5298 15.8508 24.6198 16.3108 21.3098C16.7408 18.1898 18.8708 15.8398 21.1608 15.8398M21.1608 14.8398C18.3308 14.8398 15.8208 17.5698 15.3208 21.1798C15.1456 22.1897 15.173 23.2243 15.4013 24.2234C15.6296 25.2226 16.0544 26.1664 16.6508 26.9998C17.0201 27.5073 17.489 27.934 18.0289 28.2538C18.5689 28.5736 19.1684 28.7799 19.7908 28.8598C19.9607 28.8698 20.131 28.8698 20.3008 28.8598C23.1308 28.8598 25.6508 26.1398 26.1508 22.5298C26.3178 21.5272 26.2854 20.5015 26.0555 19.5114C25.8255 18.5213 25.4026 17.5863 24.8108 16.7598C24.4441 16.2513 23.9773 15.8231 23.439 15.5015C22.9008 15.1799 22.3025 14.9718 21.6808 14.8898H21.1608V14.8398Z" fill="#212C3A"/>
<path d="M23.3209 28.9993H22.8609C22.3058 28.9238 21.7716 28.737 21.2905 28.45C20.8093 28.163 20.3911 27.7819 20.0609 27.3293C18.9555 25.7616 18.5134 23.821 18.8309 21.9293C19.3009 18.5593 21.5909 16.0293 24.1809 16.0293H24.6309C25.1863 16.1037 25.7209 16.29 26.2022 16.5771C26.6835 16.8641 27.1015 17.2459 27.4309 17.6993C28.5428 19.2641 28.9888 21.2061 28.6709 23.0993C28.2009 26.4293 25.9009 28.9993 23.3209 28.9993Z" fill="white"/>
<path d="M24.1801 16.4705C24.31 16.4605 24.4403 16.4605 24.5701 16.4705C27.0201 16.7605 28.6301 19.6705 28.1701 22.9805C27.7401 26.1005 25.6101 28.4505 23.3201 28.4505H22.9201C20.4801 28.1605 18.8701 25.2505 19.3301 21.9505C19.7601 18.8305 21.8801 16.4805 24.1801 16.4805M24.1801 15.4805C21.3501 15.4805 18.8301 18.2005 18.3401 21.8105C18.169 22.8124 18.1984 23.8383 18.4267 24.8288C18.655 25.8193 19.0777 26.7546 19.6701 27.5805C20.0369 28.089 20.5037 28.5172 21.042 28.8388C21.5802 29.1604 22.1785 29.3685 22.8001 29.4505H23.3201C26.1501 29.4505 28.6601 26.7205 29.1601 23.1105C29.3285 22.1085 29.2978 21.0831 29.0695 20.0931C28.8413 19.103 28.4202 18.1676 27.8301 17.3405C27.4609 16.833 26.992 16.4063 26.452 16.0865C25.9121 15.7667 25.3126 15.5605 24.6901 15.4805H24.1801Z" fill="#212C3A"/>
<path d="M26.3415 29.5793C26.1883 29.5892 26.0346 29.5892 25.8815 29.5793C25.326 29.5049 24.7914 29.3185 24.3101 29.0315C23.8288 28.7444 23.4108 28.3626 23.0815 27.9093C22.5296 27.1352 22.1368 26.2593 21.9257 25.3324C21.7145 24.4055 21.6893 23.446 21.8515 22.5093C22.3115 19.1493 24.6115 16.6093 27.1915 16.6093C27.3446 16.599 27.4983 16.599 27.6515 16.6093C28.2076 16.6813 28.743 16.8667 29.2246 17.154C29.7062 17.4412 30.1238 17.8242 30.4515 18.2793C31.0033 19.0533 31.3961 19.9292 31.6073 20.8561C31.8184 21.783 31.8436 22.7425 31.6815 23.6793C31.2215 26.9993 28.9215 29.5793 26.3415 29.5793Z" fill="white"/>
<path d="M27.1906 17.0801H27.5906C30.0306 17.3701 31.6406 20.2901 31.1906 23.5901C30.7606 26.7101 28.6306 29.0601 26.3406 29.0601H25.9406C23.5006 28.7601 21.8906 25.8501 22.3406 22.5501C22.7706 19.4301 24.9006 17.0801 27.1906 17.0801ZM27.1906 16.0801C24.3606 16.0801 21.8506 18.8001 21.3506 22.4101C21.0155 24.4367 21.4935 26.5137 22.6806 28.1901C23.0511 28.6963 23.5203 29.1221 24.06 29.4418C24.5997 29.7614 25.1986 29.9684 25.8206 30.0501C25.9938 30.0603 26.1674 30.0603 26.3406 30.0501C29.1706 30.0501 31.6806 27.3301 32.1806 23.7101C32.4988 21.7061 32.0215 19.6572 30.8506 18.0001C30.4801 17.4939 30.0108 17.0681 29.4711 16.7484C28.9314 16.4287 28.3325 16.2218 27.7106 16.1401C27.5374 16.1301 27.3638 16.1301 27.1906 16.1401V16.0801Z" fill="#212C3A"/>
<path d="M34.9405 36.7897C34.5077 36.7897 34.0759 36.7495 33.6505 36.6697L25.5605 34.9197C24.6098 34.7139 23.7106 34.3182 22.9167 33.7563C22.1228 33.1944 21.4506 32.4778 20.9405 31.6497C19.1287 28.5873 18.5766 24.9412 19.4005 21.4797C20.6205 15.6097 24.7305 11.3497 29.1505 11.3497C29.5839 11.3474 30.0163 11.391 30.4405 11.4797L38.5405 13.1997C39.4578 13.4003 40.3255 13.7835 41.0917 14.3264C41.8579 14.8693 42.507 15.5608 43.0005 16.3597C44.7505 18.9997 45.3005 22.8097 44.5005 26.6397C43.2805 32.5197 39.2505 36.7897 34.9405 36.7897Z" fill="white"/>
<path d="M29.1501 12.3509C29.5194 12.3523 29.8878 12.3891 30.2501 12.4609L38.3301 14.1809C42.5401 15.0109 44.7601 20.5009 43.5301 26.4409C42.4001 31.8609 38.7701 35.7909 34.9401 35.7909C34.5744 35.7923 34.2094 35.7588 33.8501 35.6909L25.7701 34.0009C21.5601 33.1609 19.1401 27.6709 20.3801 21.7409C21.5101 16.3209 25.2901 12.4009 29.1501 12.4009M29.1501 10.4009C24.2501 10.4009 19.7401 15.0009 18.4201 21.3309C17.536 25.0356 18.1429 28.9394 20.1101 32.2009C20.6933 33.1424 21.4607 33.9564 22.3663 34.5939C23.272 35.2314 24.2971 35.6794 25.3801 35.9109L33.4301 37.6409C33.9267 37.7442 34.4329 37.7945 34.9401 37.7909C39.7301 37.7909 44.1601 33.1909 45.4801 26.8409C46.4014 23.1024 45.8159 19.1515 43.8501 15.8409C43.2803 14.9283 42.5324 14.14 41.6509 13.5231C40.7695 12.9063 39.7727 12.4736 38.7201 12.2509L30.7201 10.5309C30.2194 10.4325 29.7104 10.3823 29.2001 10.3809L29.1501 10.4009Z" fill="#212C3A"/>
<path d="M37.2284 14.0703C37.5977 14.0722 37.966 14.1091 38.3284 14.1803C42.5384 15.0103 44.7584 20.5003 43.5284 26.4403C42.3984 31.8603 38.7684 35.7903 34.9384 35.7903C34.5727 35.7922 34.2076 35.7587 33.8484 35.6903C29.6284 34.8503 27.2184 29.3403 28.4584 23.4103C29.5884 17.9903 33.3684 14.0703 37.2284 14.0703ZM37.2284 12.0703C32.3284 12.0703 27.8184 16.6703 26.4984 23.0003C25.5829 26.7461 26.1907 30.7021 28.1884 34.0003C28.7721 34.9404 29.5399 35.7527 30.4455 36.3885C31.3511 37.0244 32.376 37.4706 33.4584 37.7003C33.9457 37.7969 34.4416 37.8438 34.9384 37.8403C39.7284 37.8403 44.1584 33.2403 45.4784 26.8903C46.3997 23.1518 45.8142 19.201 43.8484 15.8903C43.2786 14.9777 42.5307 14.1894 41.6492 13.5726C40.7677 12.9557 39.7709 12.523 38.7184 12.3003C38.228 12.2005 37.7288 12.1502 37.2284 12.1503V12.0703Z" fill="#212C3A"/>
<path d="M35.869 30.9998C34.6015 30.2673 33.4658 29.3277 32.509 28.2198C32.0831 26.8804 32.0175 25.4525 32.319 24.0798C32.547 22.9814 32.9814 21.9363 33.599 20.9998C34.5392 20.1052 35.6035 19.3508 36.759 18.7598L40.359 21.3398C39.4891 23.338 39.3131 25.5699 39.859 27.6798C38.1835 28.2891 36.7727 29.463 35.869 30.9998Z" fill="#212C3A"/>
<path d="M36.7218 19.3597L39.7218 21.5297C38.9923 23.3969 38.8152 25.4346 39.2118 27.3997C37.7784 28.007 36.5472 29.0093 35.6618 30.2897C34.6624 29.668 33.7652 28.8955 33.0018 27.9997C32.6302 26.7628 32.5785 25.4519 32.8518 24.1897C33.0578 23.1837 33.4477 22.2243 34.0018 21.3597C34.8205 20.5678 35.7462 19.8946 36.7518 19.3597M36.8418 18.1897C35.5119 18.8455 34.2909 19.7022 33.2218 20.7297C32.5522 21.72 32.0802 22.8303 31.8318 23.9997C31.5141 25.4873 31.5934 27.0324 32.0618 28.4797C33.1881 29.7847 34.5438 30.8727 36.0618 31.6897H36.1318C36.5671 30.8053 37.1811 30.0207 37.935 29.3856C38.6889 28.7505 39.5663 28.2786 40.5118 27.9997C39.3418 25.2797 40.5818 21.9997 40.9918 21.1797L36.8118 18.1797L36.8418 18.1897Z" fill="#212C3A"/>
</svg>
