<svg width="48" height="48" viewBox="0 0 48 48" fill="none" xmlns="http://www.w3.org/2000/svg">
<path d="M44.64 25.09L44 20C44 11.16 35 4 24 4C13 4 4 11.16 4 20L3.36 25.09C3.1284 26.0429 3.0076 27.0194 3 28C3 36.84 12.4 44 24 44C35.6 44 45 36.84 45 28C44.9924 27.0194 44.8716 26.0429 44.64 25.09ZM24.25 29.88C20.04 29.88 16.62 26.99 16.62 23.44C16.62 19.89 20 17 24.25 17C28.5 17 31.88 19.88 31.88 23.44C31.88 27 28.46 29.88 24.25 29.88Z" fill="white"/>
<path d="M24 4C35 4 44 11.16 44 20L44.64 25.09C44.8716 26.0429 44.9924 27.0194 45 28C45 36.84 35.6 44 24 44C12.4 44 3 36.84 3 28C3.0076 27.0194 3.1284 26.0429 3.36 25.09L4 20C4 11.16 13 4 24 4ZM24 2C11.92 2 2.09 10 2 19.87L1.39 24.73C1.13573 25.8016 1.00488 26.8987 1 28C1 37.93 11.32 46 24 46C36.68 46 47 37.93 47 28C46.9951 26.8987 46.8643 25.8016 46.61 24.73L46 19.87C45.91 10 36.08 2 24 2Z" fill="#212C3A"/>
<path d="M24 4C35 4 44 11.16 44 20C44 28.84 35 36 24 36C13 36 4 28.84 4 20C4 11.16 13 4 24 4ZM24 3C12.42 3 3 10.63 3 20C3 29.37 12.42 37 24 37C35.58 37 45 29.37 45 20C45 10.63 35.58 3 24 3Z" fill="#212C3A"/>
<path d="M24 7C33.39 7 41 12.82 41 20C41 27.18 33.39 33 24 33C14.61 33 7 27.18 7 20C7 12.82 14.61 7 24 7ZM24 6C14.07 6 6 12.28 6 20C6 27.72 14.07 34 24 34C33.93 34 42 27.72 42 20C42 12.28 33.93 6 24 6Z" fill="#212C3A"/>
<path d="M24 30C28.4183 30 32 27.0899 32 23.5C32 19.9101 28.4183 17 24 17C19.5817 17 16 19.9101 16 23.5C16 27.0899 19.5817 30 24 30Z" stroke="#212C3A" stroke-width="2" stroke-miterlimit="10"/>
</svg>
