<svg width="48" height="48" viewBox="0 0 48 48" fill="none" xmlns="http://www.w3.org/2000/svg">
<path d="M40.5203 16.2409C37.8103 12.1509 32.7603 9.00086 27.0003 7.87086C25.3907 7.54504 23.7526 7.38089 22.1103 7.38086C13.8903 7.38086 7.26032 11.6609 6.01032 17.7809L5.55032 20.1009C5.28531 21.4513 5.28531 22.8404 5.55032 24.1909C4.55032 31.3009 10.9903 38.2609 20.4503 40.1909C21.9845 40.5001 23.5453 40.6575 25.1103 40.6609C32.8203 40.6609 38.9203 36.8909 40.4403 31.2309C41.205 30.0754 41.7351 28.7808 42.0003 27.4209L42.4803 25.1009C42.7646 23.5681 42.7376 21.9938 42.4009 20.4716C42.0642 18.9495 41.4246 17.5107 40.5203 16.2409ZM38.7303 30.0809C36.3903 33.6309 31.5103 35.8209 25.8703 35.8209C24.3623 35.8218 22.8581 35.671 21.3803 35.3709C14.1003 33.9109 8.65032 29.2609 7.54032 24.1409C7.54507 24.0676 7.54507 23.9941 7.54032 23.9209C7.54032 23.7309 7.54032 23.5409 7.46032 23.3609C7.8054 24.3227 8.2654 25.2393 8.83032 26.0909C11.3603 30.0009 16.1703 32.9309 21.6603 34.0009C23.2012 34.3104 24.7687 34.4678 26.3403 34.4709C31.6703 34.4709 36.2703 32.6009 39.0103 29.6009V29.6609L38.7303 30.0809ZM23.2703 9.41086H23.4003L24.4003 9.48086H24.8003L25.1803 9.53086C25.6803 9.59086 26.1803 9.67086 26.6703 9.77086C29.8116 10.372 32.7778 11.6706 35.3503 13.5709C37.1878 14.9201 38.6843 16.6803 39.7203 18.7109C40.6412 20.5427 40.9296 22.6279 40.5403 24.6409C39.4503 29.9609 33.5403 33.4409 26.3903 33.4409C24.8827 33.4358 23.379 33.2851 21.9003 32.9909C12.9003 31.1909 6.72032 24.5309 8.04032 18.1209H8.00032C8.07439 17.7542 8.17464 17.3932 8.30032 17.0409C8.30032 16.9309 8.39032 16.8209 8.43032 16.7009C8.47032 16.5809 8.62032 16.2309 8.74032 16.0109C8.86032 15.7909 8.87032 15.7609 8.93032 15.6409C8.99032 15.5209 9.18032 15.2309 9.31032 15.0209L9.54032 14.6809C9.70032 14.4709 9.86032 14.2709 10.0303 14.0709L10.2603 13.8009C10.522 13.5159 10.7991 13.2455 11.0903 12.9909L11.1803 12.9109C11.447 12.6775 11.727 12.4575 12.0203 12.2509L12.3603 12.0309C12.5803 11.8809 12.8103 11.7309 13.0503 11.5909L13.4603 11.3609C13.7003 11.2309 13.9403 11.1109 14.1903 11.0009L14.6103 10.8009L15.4603 10.4609L15.8303 10.3209C16.2503 10.1809 16.6803 10.0509 17.1103 9.94086L17.3303 9.89086C17.7003 9.80086 18.0803 9.72086 18.4603 9.65086L18.9403 9.57086C19.2403 9.57086 19.5603 9.48086 19.8703 9.45086H20.4103C20.7203 9.45086 21.0403 9.40086 21.4103 9.39086H22.1903L23.2703 9.41086ZM35.5403 35.1809L35.4403 35.2609C35.1903 35.4709 34.9203 35.6809 34.6503 35.8709L34.3303 36.0809C34.1103 36.2309 33.8903 36.3709 33.6603 36.5009L33.2803 36.7109C33.0503 36.8309 32.8203 36.9509 32.5803 37.0609L32.1803 37.2409L31.3503 37.5609L31.0303 37.6809C30.6303 37.8109 30.2303 37.9409 29.8103 38.0409L29.5803 38.0909C29.2403 38.1809 28.8903 38.2509 28.5803 38.3109L28.1403 38.3809C27.8403 38.3809 27.5503 38.4709 27.2503 38.5009H26.7403L25.8403 38.5509H25.1203H24.0203H23.8703C23.4603 38.5509 23.0403 38.4909 22.6303 38.4409H22.2603C21.7903 38.3809 21.3203 38.3109 20.8503 38.2109C20.3803 38.1109 19.8003 37.9809 19.2903 37.8409C16.8926 37.1955 14.6371 36.1068 12.6403 34.6309C12.2703 34.3509 11.9203 34.0609 11.5803 33.7609C10.9277 33.1827 10.3286 32.5468 9.79032 31.8609C9.02589 30.9044 8.4214 29.8305 8.00032 28.6809C7.8158 28.1609 7.67857 27.6254 7.59032 27.0809C7.81868 27.538 8.07241 27.982 8.35032 28.4109C10.9203 32.2809 15.7303 35.2509 21.2203 36.3509C22.7646 36.6601 24.3354 36.8176 25.9103 36.8209C30.0722 36.93 34.1409 35.5785 37.4103 33.0009H37.4603L37.2503 33.3009L37.0203 33.6109C36.8703 33.8109 36.7103 34.0109 36.5403 34.2009C36.3703 34.3909 36.4103 34.3609 36.3303 34.4409C36.0813 34.7024 35.8176 34.9495 35.5403 35.1809Z" fill="#212C3A"/>
<path d="M26.3419 34.5001C24.7693 34.4871 23.2017 34.3197 21.6619 34.0001C16.1719 32.9001 11.3619 29.9301 8.79187 26.0601C8.22696 25.2086 7.76696 24.2919 7.42188 23.3301C7.42188 23.5101 7.42187 23.7001 7.50187 23.8901C7.50662 23.9633 7.50662 24.0368 7.50187 24.1101C8.61187 29.2301 14.0619 33.8801 21.3419 35.3401C22.8197 35.6402 24.3239 35.791 25.8319 35.7901C31.4719 35.7901 36.3519 33.6001 38.6919 30.0501L38.9419 29.6601V29.6001C36.2719 32.6301 31.6719 34.5001 26.3419 34.5001Z" fill="white"/>
<path d="M25.1894 16.7991C24.61 16.6815 24.0205 16.6212 23.4294 16.6191C20.6094 16.6191 18.2494 18.0191 17.8094 20.1491C17.7096 20.7215 17.7358 21.3088 17.886 21.8701C18.0363 22.4313 18.307 22.9531 18.6794 23.3991C19.7843 22.7598 21.043 22.4347 22.3194 22.4591C22.9105 22.4612 23.5 22.5215 24.0794 22.6391C25.8873 22.9583 27.522 23.9122 28.6894 25.3291C29.1876 25.0617 29.6234 24.6917 29.9681 24.2436C30.3129 23.7954 30.5587 23.2793 30.6894 22.7291C31.1894 20.1591 28.7394 17.5091 25.1894 16.7991Z" fill="white"/>
<path d="M21.3511 9.40039C21.0311 9.40039 20.7111 9.40039 20.3511 9.46039H19.8111C19.5011 9.46039 19.1811 9.54039 18.8811 9.58039L18.4011 9.66039C18.0211 9.73039 17.6411 9.81039 17.2711 9.90039L17.1011 10.0004C16.6711 10.1104 16.2411 10.2404 15.8211 10.3804L15.4511 10.5204L14.6011 10.8604L14.1811 11.0604C13.9311 11.1704 13.6911 11.2904 13.4511 11.4204L13.0411 11.6504C12.8011 11.7904 12.5711 11.9404 12.3511 12.0904L12.0111 12.3104C11.7245 12.5171 11.4445 12.7371 11.1711 12.9704L11.0811 13.0504C10.7899 13.3051 10.5128 13.5755 10.2511 13.8604L10.0211 14.1304C9.85112 14.3304 9.69112 14.5304 9.53112 14.7404L9.30112 15.0804C9.17112 15.2904 9.04112 15.4904 8.92112 15.7004C8.80112 15.9104 8.79112 15.9404 8.73112 16.0704C8.67112 16.2004 8.52112 16.5304 8.42112 16.7604C8.32112 16.9904 8.33112 16.9904 8.29112 17.1004C8.16884 17.453 8.07192 17.8139 8.00112 18.1804C6.68112 24.5904 12.8911 31.2504 21.8611 33.0504C23.3398 33.3446 24.8435 33.4953 26.3511 33.5004C33.4711 33.5004 39.4111 30.0204 40.5011 24.7004C40.8904 22.6874 40.602 20.6022 39.6811 18.7704C38.6451 16.7398 37.1486 14.9796 35.3111 13.6304C32.7386 11.7302 29.7724 10.4316 26.6311 9.83039C26.1311 9.73039 25.6311 9.65039 25.1411 9.59039L24.7611 9.54039C24.3111 9.54039 23.8611 9.44039 23.4111 9.42039H23.2811C22.8111 9.42039 22.3511 9.42039 21.8911 9.42039L21.3511 9.40039ZM25.3511 15.8204C27.5422 16.1917 29.4995 17.4092 30.8011 19.2104C31.1773 19.745 31.442 20.3499 31.5795 20.989C31.7169 21.6281 31.7243 22.2884 31.6011 22.9304C31.0811 25.4804 28.3711 27.2604 25.0111 27.2604C24.3392 27.266 23.6686 27.199 23.0111 27.0604C20.8201 26.6891 18.8627 25.4716 17.5611 23.6704C16.8439 22.5909 16.5816 21.2721 16.8311 20.0004C17.3611 17.4504 20.0711 15.6704 23.4311 15.6704C24.0879 15.6512 24.7449 15.7014 25.3911 15.8204H25.3511Z" fill="white"/>
<path d="M36.5408 34.1801C36.7108 33.9901 36.8708 33.7901 37.0208 33.5901L37.2508 33.2801L37.4108 33.0201C34.128 35.5994 30.0438 36.9443 25.8708 36.8201C24.2959 36.8168 22.725 36.6594 21.1808 36.3501C15.6908 35.2501 10.8808 32.2801 8.31078 28.4101C8.03288 27.9812 7.77915 27.5372 7.55078 27.0801C7.65204 27.6259 7.80266 28.1615 8.00078 28.6801C8.42074 29.8221 9.02176 30.8891 9.78078 31.8401C10.319 32.526 10.9181 33.1619 11.5708 33.7401C11.9108 34.0401 12.2608 34.3301 12.6308 34.6101C14.6275 36.086 16.8831 37.1748 19.2808 37.8201C19.7908 37.9601 20.2808 38.0901 20.8408 38.1901C21.4008 38.2901 21.7808 38.3601 22.2508 38.4201H22.6208C23.0308 38.4701 23.4508 38.5101 23.8608 38.5301H24.0008C24.4508 38.5301 24.8908 38.5301 25.3308 38.5301H25.8208L26.7208 38.4801H27.2308C27.5308 38.4801 27.8208 38.4101 28.1208 38.3601L28.5608 38.2901C28.9208 38.2301 29.2708 38.1601 29.5608 38.0701L29.7908 38.0201C30.2108 37.9201 30.6108 37.7901 31.0108 37.6601L31.3308 37.5401L32.1608 37.2201L32.5608 37.0401C32.8008 36.9301 33.0308 36.8101 33.2608 36.6901L33.6408 36.4801C33.8708 36.3501 34.0908 36.2101 34.3108 36.0601L34.6308 35.8501C34.9008 35.6601 35.1708 35.4501 35.4208 35.2401L35.5208 35.1601C35.7986 34.9222 36.0624 34.6685 36.3108 34.4001C36.4108 34.3401 36.4708 34.2601 36.5408 34.1801Z" fill="white"/>
<path d="M16.8281 20.0009C16.7093 20.6437 16.7197 21.3038 16.8587 21.9425C16.9978 22.5812 17.2628 23.1858 17.6381 23.7209C18.9397 25.5222 20.8971 26.7397 23.0881 27.1109C23.7456 27.2495 24.4162 27.3166 25.0881 27.3109C28.4481 27.3109 31.1581 25.5309 31.6781 22.9809C31.8013 22.3389 31.7939 21.6787 31.6565 21.0396C31.519 20.4005 31.2543 19.7956 30.8781 19.2609C29.5765 17.4597 27.6192 16.2422 25.4281 15.8709C24.7706 15.7324 24.1001 15.6653 23.4281 15.6709C20.0681 15.6209 17.3581 17.4009 16.8281 20.0009ZM30.6581 22.7809C30.5275 23.3311 30.2817 23.8472 29.9369 24.2954C29.5922 24.7436 29.1563 25.1135 28.6581 25.3809C27.4908 23.964 25.8561 23.0102 24.0481 22.6909C23.4688 22.5733 22.8793 22.513 22.2881 22.5109C21.0118 22.4865 19.7531 22.8116 18.6481 23.4509C18.2758 23.0049 18.0051 22.4831 17.8548 21.9219C17.7046 21.3606 17.6784 20.7734 17.7781 20.2009C18.2181 18.0709 20.5781 16.6709 23.3981 16.6709C23.9893 16.673 24.5788 16.7333 25.1581 16.8509C28.7381 17.5109 31.1881 20.1609 30.6581 22.7309V22.7809ZM23.2881 26.1309C22.2175 25.9151 21.1987 25.4941 20.2881 24.8909C20.9488 24.6378 21.6506 24.509 22.3581 24.5109C22.815 24.5131 23.2705 24.56 23.7181 24.6509C24.8363 24.8556 25.8753 25.3681 26.7181 26.1309C26.1826 26.2478 25.6363 26.3082 25.0881 26.3109C24.4818 26.2962 23.8787 26.2192 23.2881 26.0809V26.1309Z" fill="#212C3A"/>
</svg>
