<svg width="48" height="48" viewBox="0 0 48 48" fill="none" xmlns="http://www.w3.org/2000/svg">
<path d="M34.4013 28.1695C34.1926 28.1703 33.9846 28.1468 33.7813 28.0995L9.62133 23.3195C7.62133 22.7995 6.85133 20.4495 7.11133 18.3795C7.40133 16.1095 9.20133 14.1895 11.0013 14.1895H11.2213L35.7513 18.9995C36.4391 19.2819 37.032 19.7546 37.4607 20.3622C37.8893 20.9697 38.1358 21.6868 38.1713 22.4295C38.2844 23.1292 38.254 23.8445 38.0821 24.5322C37.9102 25.2198 37.6004 25.8653 37.1713 26.4295C36.8785 26.9302 36.4674 27.3515 35.9741 27.6565C35.4807 27.9616 34.9201 28.1412 34.3413 28.1795L34.4013 28.1695Z" fill="white"/>
<path d="M11.0003 15.1797H11.0903L35.5003 19.9997C36.0051 20.2194 36.4364 20.5792 36.743 21.0365C37.0496 21.4937 37.2187 22.0293 37.2303 22.5797C37.3284 23.1486 37.3061 23.7318 37.1649 24.2916C37.0236 24.8514 36.7666 25.3754 36.4103 25.8297C36.2064 26.1951 35.9189 26.507 35.5713 26.7399C35.2237 26.9728 34.8258 27.1201 34.4103 27.1697C34.2774 27.184 34.1433 27.184 34.0103 27.1697L9.82033 22.3397C8.45033 21.9997 7.89033 20.1597 8.10033 18.5097C8.34033 16.6797 9.76033 15.1797 11.0303 15.1797M11.0303 13.1797C8.68033 13.1797 6.47033 15.4597 6.12033 18.2497C5.80033 20.7597 6.80033 23.6297 9.32033 24.2497H9.38033L33.5603 29.0397C33.8202 29.0936 34.0849 29.1204 34.3503 29.1197C35.0849 29.0883 35.8009 28.879 36.4367 28.5097C37.0725 28.1404 37.6091 27.6222 38.0003 26.9997C38.9925 25.6664 39.4167 23.9947 39.1803 22.3497C39.1193 21.415 38.7922 20.5173 38.2376 19.7625C37.683 19.0077 36.924 18.4273 36.0503 18.0897H35.9503H35.8503L11.5103 13.2297H11.3703H11.0003L11.0303 13.1797Z" fill="#212C3A"/>
<path d="M10.639 21.7294H10.439L6.68904 20.9994C6.52873 20.9625 6.3785 20.8908 6.24904 20.7894L3.52904 18.4994C3.32333 18.3418 3.16504 18.1305 3.07154 17.8888C2.97804 17.6471 2.95295 17.3844 2.99904 17.1294C3.05067 16.8704 3.17063 16.6301 3.34646 16.4331C3.5223 16.2362 3.74761 16.0899 3.99904 16.0094L7.85904 14.9094C7.94845 14.8948 8.03963 14.8948 8.12904 14.9094C8.29656 14.9085 8.46161 14.9498 8.60904 15.0294L11.999 16.7694C12.1992 16.8769 12.3568 17.0493 12.4459 17.2584C12.5349 17.4674 12.5502 17.7005 12.489 17.9194L11.599 20.9994C11.5403 21.2089 11.4147 21.3936 11.2415 21.5254C11.0682 21.6571 10.8567 21.7287 10.639 21.7294Z" fill="white"/>
<path d="M8.19066 15.8707L11.4907 17.6507L10.6407 20.7307L6.88066 20.0007L4.16066 17.7307C4.10452 17.6778 4.06364 17.6108 4.04231 17.5366C4.02097 17.4625 4.01996 17.384 4.03939 17.3094C4.05882 17.2347 4.09796 17.1667 4.15273 17.1124C4.2075 17.0581 4.27586 17.0195 4.35066 17.0007L8.19066 15.9007M8.19066 13.9007C8.00424 13.8979 7.81857 13.9249 7.64066 13.9807L3.80066 15.0507C3.36409 15.1724 2.96964 15.4124 2.66083 15.7442C2.35202 16.0759 2.14087 16.4865 2.05066 16.9307C1.96479 17.3602 1.99763 17.8051 2.14563 18.2174C2.29363 18.6297 2.55121 18.9938 2.89066 19.2707L5.61066 21.5207C5.86595 21.7294 6.16782 21.8735 6.49066 21.9407L10.2507 22.6907C10.3805 22.7005 10.5109 22.7005 10.6407 22.6907C11.0773 22.6888 11.5013 22.5441 11.848 22.2787C12.1947 22.0133 12.445 21.6417 12.5607 21.2207L13.4207 18.1507C13.5413 17.7107 13.5079 17.2428 13.326 16.8245C13.1441 16.4061 12.8247 16.0625 12.4207 15.8507L9.12066 14.0707C8.81395 13.9049 8.46922 13.8221 8.12066 13.8307L8.19066 13.9007Z" fill="#212C3A"/>
<path d="M10.1885 22.8609C10.0273 22.8591 9.86663 22.8424 9.70852 22.8109C8.10852 22.4409 7.20852 20.3909 7.70852 18.1209C8.11852 16.1209 9.81852 14.6809 11.0785 14.6809C11.188 14.6662 11.299 14.6662 11.4085 14.6809C12.9985 15.0009 13.9185 17.1109 13.4585 19.3609C12.9985 21.4109 11.6585 22.8609 10.1885 22.8609Z" fill="white"/>
<path d="M10.9994 15.1805C11.0758 15.1707 11.1531 15.1707 11.2294 15.1805C12.5494 15.4505 13.2894 17.3105 12.8894 19.2705C12.5294 21.0505 11.3494 22.3305 10.1494 22.3305C10.0265 22.3447 9.90236 22.3447 9.77944 22.3305C8.46944 22.0305 7.71944 20.2005 8.11944 18.2305C8.48944 16.4105 9.97944 15.2305 10.9994 15.2305M10.9994 14.2305C9.50944 14.2305 7.59944 15.7805 7.13944 18.0705C6.62944 20.6105 7.68944 22.9205 9.55944 23.3405C9.75241 23.3884 9.95062 23.4119 10.1494 23.4105C11.8494 23.4105 13.4194 21.7905 13.8694 19.5505C14.3894 16.9905 13.3194 14.6705 11.4294 14.2805C11.2883 14.2483 11.1442 14.2315 10.9994 14.2305Z" fill="#212C3A"/>
<path d="M12.4704 23.3203C12.3091 23.3196 12.1483 23.3028 11.9904 23.2703C10.3804 22.9103 9.48036 20.8503 9.94036 18.5803C10.3604 16.5803 12.0104 15.1403 13.3004 15.1403C13.4132 15.1251 13.5275 15.1251 13.6404 15.1403C15.2304 15.4703 16.1504 17.5703 15.6404 19.8203C15.2904 21.8703 13.9304 23.3203 12.4704 23.3203Z" fill="white"/>
<path d="M13.3019 15.6395H13.5419C14.8619 15.9095 15.6019 17.7695 15.2019 19.7295C14.8419 21.5195 13.6719 22.7895 12.4719 22.7895C12.349 22.8047 12.2247 22.8047 12.1019 22.7895C10.7819 22.4895 10.0319 20.6595 10.4319 18.6895C10.8019 16.8795 12.2619 15.6895 13.3019 15.6895M13.3019 14.6895C11.8219 14.6895 9.93189 16.1595 9.45189 18.5395C8.94189 21.0695 10.0019 23.3795 11.8819 23.8095C12.076 23.8497 12.2737 23.8698 12.4719 23.8695C14.1719 23.8695 15.7319 22.2495 16.1819 20.0095C16.7019 17.4495 15.6319 15.1295 13.7419 14.7395C13.5956 14.7242 13.4482 14.7242 13.3019 14.7395V14.6895Z" fill="#212C3A"/>
<path d="M14.74 23.7793C14.5786 23.7821 14.4174 23.7653 14.26 23.7293C12.65 23.3693 11.75 21.3093 12.26 19.0493C12.68 16.9893 14.33 15.5993 15.6 15.5993C15.7228 15.5841 15.8471 15.5841 15.97 15.5993C17.55 15.9393 18.47 18.0393 17.97 20.2893C17.56 22.3293 16.2 23.7793 14.74 23.7793Z" fill="white"/>
<path d="M15.5507 16.1002C15.6371 16.0898 15.7244 16.0898 15.8107 16.1002C17.1307 16.3802 17.8807 18.2302 17.4807 20.2002C17.1207 21.9802 15.9407 23.2502 14.7407 23.2502C14.6178 23.2649 14.4936 23.2649 14.3707 23.2502C13.0507 22.9502 12.3107 21.1202 12.7007 19.1602C13.0907 17.2002 14.4907 16.1602 15.5507 16.1602M15.5507 15.1602C13.8707 15.1602 12.1507 16.8902 11.7207 19.0102C11.2107 21.5402 12.2807 23.8502 14.1507 24.2802C14.3448 24.3204 14.5425 24.3405 14.7407 24.3402C16.4407 24.3402 18.0007 22.7202 18.4607 20.4802C18.9807 17.9302 17.9107 15.6102 16.0207 15.2102C15.866 15.1782 15.7086 15.1614 15.5507 15.1602Z" fill="#212C3A"/>
<path d="M17.001 24.2503C16.8392 24.2498 16.678 24.2296 16.521 24.1903C14.921 23.8303 14.021 21.7703 14.521 19.5103C15.021 17.2503 16.581 16.0603 17.841 16.0603C17.9672 16.045 18.0948 16.045 18.221 16.0603C19.811 16.4003 20.731 18.5003 20.221 20.7503C19.831 22.7903 18.481 24.2503 17.001 24.2503Z" fill="white"/>
<path d="M17.8084 16.5593C17.9015 16.549 17.9954 16.549 18.0884 16.5593C19.4084 16.8393 20.1484 18.6893 19.7484 20.6593C19.3884 22.4393 18.2084 23.7193 17.0084 23.7193C16.8835 23.7174 16.7593 23.7006 16.6384 23.6693C15.3184 23.3793 14.5784 21.5393 14.9784 19.5793C15.3384 17.7693 16.7284 16.5293 17.8084 16.5293M17.8084 15.5293C16.1384 15.5293 14.4284 17.2593 13.9984 19.3793C13.4784 21.9093 14.5484 24.2293 16.4184 24.6493C16.6121 24.6929 16.8099 24.7164 17.0084 24.7193C18.7084 24.7193 20.2784 23.0893 20.7284 20.8593C21.2484 18.2993 20.1784 15.9793 18.2884 15.5793C18.1288 15.5635 17.968 15.5635 17.8084 15.5793V15.5293Z" fill="#212C3A"/>
<path d="M19.2784 24.7095C19.1165 24.709 18.9553 24.6888 18.7984 24.6495C17.1984 24.2895 16.2984 22.2295 16.7984 19.9695C17.1884 18.0695 18.6684 16.5195 20.1084 16.5195C20.2382 16.5091 20.3686 16.5091 20.4984 16.5195C22.0884 16.8595 23.0084 18.9695 22.5484 21.2095C22.1084 23.2495 20.7484 24.7095 19.2784 24.7095Z" fill="white"/>
<path d="M20.0683 17C20.1648 16.9902 20.2619 16.9902 20.3583 17C21.6783 17.29 22.4183 19.13 22.0183 21.1C21.6583 22.88 20.4783 24.16 19.2783 24.16C19.1552 24.1693 19.0315 24.1693 18.9083 24.16C17.5983 23.86 16.8483 22.02 17.2483 20.06C17.6183 18.27 18.9983 17 20.0683 17ZM20.0683 16C18.3783 16 16.7083 17.69 16.2683 19.85C15.7583 22.38 16.8183 24.7 18.6883 25.12C18.8814 25.1673 19.0796 25.1908 19.2783 25.19C20.9883 25.19 22.5483 23.56 22.9983 21.33C23.5183 18.78 22.4483 16.46 20.5683 16.05C20.4036 16.018 20.2362 16.0013 20.0683 16Z" fill="#212C3A"/>
<path d="M21.5603 25.17C21.3991 25.1688 21.2383 25.152 21.0803 25.12C19.4703 24.75 18.5703 22.69 19.0803 20.43C19.4703 18.5 20.9203 16.98 22.3803 16.98C22.5168 16.9702 22.6538 16.9702 22.7903 16.98C24.3703 17.33 25.2903 19.43 24.8403 21.67C24.3803 23.71 23.0003 25.17 21.5603 25.17Z" fill="white"/>
<path d="M22.3317 17.4802C22.4315 17.4704 22.532 17.4704 22.6317 17.4802C23.9517 17.7702 24.6917 19.6202 24.3017 21.5802C23.9317 23.3602 22.7617 24.6402 21.5617 24.6402C21.4389 24.6555 21.3146 24.6555 21.1917 24.6402C19.8717 24.3402 19.1217 22.5002 19.5217 20.5402C19.8917 18.7402 21.2017 17.4902 22.3317 17.4902M22.3317 16.4902C20.6417 16.4902 18.9817 18.1802 18.5417 20.3402C18.0317 22.8702 19.0917 25.1902 20.9717 25.6102C21.1646 25.6588 21.3629 25.6823 21.5617 25.6802C23.2617 25.6802 24.8217 24.0602 25.2817 21.8202C25.7917 19.2702 24.7217 16.9602 22.8417 16.5502C22.6747 16.51 22.5035 16.4899 22.3317 16.4902Z" fill="#212C3A"/>
<path d="M23.8301 25.6293C23.6689 25.6275 23.5082 25.6108 23.3501 25.5793C21.7401 25.2093 20.8501 23.1593 21.3001 20.8893C21.7001 18.9593 23.1401 17.4393 24.5801 17.4393C24.723 17.4239 24.8671 17.4239 25.0101 17.4393C26.6201 17.7893 27.5201 19.8493 27.0101 22.1193C26.6501 24.1793 25.2901 25.6293 23.8301 25.6293Z" fill="white"/>
<path d="M24.5787 17.94C24.6851 17.9297 24.7923 17.9297 24.8987 17.94C26.2187 18.24 26.9687 20.08 26.5687 22.04C26.2087 23.82 25.0287 25.1 23.8287 25.1C23.7058 25.1148 23.5816 25.1148 23.4587 25.1C22.1387 24.79 21.3987 23 21.7987 21C22.1587 19.21 23.4387 18 24.5787 18M24.5787 17C22.8787 17 21.2587 18.66 20.8187 20.85C20.2987 23.38 21.3687 25.7 23.2387 26.12C23.4316 26.1685 23.6299 26.192 23.8287 26.19C25.5287 26.19 27.0887 24.57 27.5487 22.33C28.0587 19.79 26.9987 17.47 25.1187 17.06C24.9415 17.0203 24.7604 17.0002 24.5787 17Z" fill="#212C3A"/>
<path d="M26.0987 26.0904C25.9375 26.0886 25.7768 26.0718 25.6187 26.0404C24.0187 25.6804 23.1187 23.6204 23.6187 21.3504C24.0187 19.3504 25.4187 17.9004 26.8787 17.9004C27.0267 17.9017 27.1742 17.9184 27.3187 17.9504C28.9287 18.3104 29.8287 20.3604 29.3187 22.6304C28.9187 24.6404 27.5687 26.0904 26.0987 26.0904Z" fill="white"/>
<path d="M26.8383 18.4004C26.9511 18.3857 27.0654 18.3857 27.1783 18.4004C28.4983 18.6904 29.2383 20.5304 28.8383 22.4904C28.4783 24.2804 27.2983 25.5504 26.0983 25.5504C25.9753 25.5646 25.8512 25.5646 25.7283 25.5504C24.4083 25.2504 23.6683 23.4204 24.0683 21.4504C24.4283 19.6604 25.6783 18.4004 26.8383 18.4004ZM26.8383 17.4004C25.1483 17.4004 23.5283 19.0604 23.0883 21.2504C22.5683 23.7904 23.6383 26.1004 25.5083 26.5304C25.7025 26.5698 25.9001 26.5899 26.0983 26.5904C27.7983 26.5904 29.3683 24.9704 29.8183 22.7304C30.3383 20.1904 29.2683 17.8804 27.3883 17.4604C27.2077 17.4202 27.0232 17.4001 26.8383 17.4004Z" fill="#212C3A"/>
<path d="M28.3806 26.5494C28.2191 26.5536 28.0578 26.5368 27.9006 26.4994C26.2906 26.1394 25.3906 24.0794 25.9006 21.8194C26.3006 19.8194 27.7006 18.3594 29.1506 18.3594C29.3052 18.3612 29.4592 18.3779 29.6106 18.4094C31.2206 18.7694 32.1106 20.8294 31.6106 23.0894C31.2006 25.0994 29.8406 26.5494 28.3806 26.5494Z" fill="white"/>
<path d="M29.1004 18.8596C29.2166 18.8455 29.3341 18.8455 29.4504 18.8596C30.7704 19.1496 31.5104 20.9896 31.1104 22.9596C30.7504 24.7396 29.5704 26.0096 28.3804 26.0096C28.2538 26.0224 28.1261 26.019 28.0004 25.9996C26.6804 25.6996 25.9304 23.8696 26.3304 21.8996C26.6904 20.1196 27.9004 18.8496 29.0904 18.8496M29.0904 17.8496C27.3704 17.8496 25.8004 19.4696 25.3504 21.7096C24.8404 24.2396 25.9004 26.5496 27.7704 26.9796C27.9679 27.0194 28.1689 27.0395 28.3704 27.0396C30.0704 27.0396 31.6304 25.4196 32.0804 23.1796C32.6004 20.6496 31.5304 18.3296 29.6604 17.9096C29.473 17.8699 29.2819 17.8498 29.0904 17.8496Z" fill="#212C3A"/>
<path d="M30.65 27.0008C30.4882 27.0003 30.327 26.9801 30.17 26.9408C28.56 26.5808 27.66 24.5208 28.12 22.2608C28.53 20.2608 29.89 18.8008 31.35 18.8008C31.5112 18.8026 31.6719 18.8193 31.83 18.8508C33.44 19.2208 34.34 21.2708 33.88 23.5408C33.47 25.5608 32.11 27.0008 30.65 27.0008Z" fill="white"/>
<path d="M31.3516 19.3193C31.4744 19.304 31.5987 19.304 31.7216 19.3193C33.0416 19.6193 33.7816 21.4493 33.3916 23.4193C33.0316 25.1993 31.8516 26.4793 30.6516 26.4793C30.5266 26.4781 30.4023 26.4613 30.2816 26.4293C28.9616 26.1393 28.2216 24.2993 28.6116 22.3393C28.9716 20.5593 30.1516 19.2793 31.3516 19.2793M31.3516 18.2793C29.6516 18.2793 28.0916 19.8993 27.6316 22.1393C27.1216 24.6693 28.1816 26.9893 30.0616 27.4093C30.2553 27.4529 30.453 27.4764 30.6516 27.4793C32.3516 27.4793 33.9116 25.8493 34.3716 23.6193C34.8816 21.0793 33.8216 18.7693 31.9416 18.3393C31.7475 18.2991 31.5498 18.2789 31.3516 18.2793Z" fill="#212C3A"/>
<path d="M37.391 34H37.201L33.451 33.26C33.2937 33.2345 33.1457 33.1691 33.021 33.07L28.021 29.13C27.889 29.0269 27.7851 28.8923 27.7187 28.7385C27.6523 28.5847 27.6255 28.4168 27.641 28.25L28.441 19.52C28.4716 19.2562 28.6 19.0136 28.801 18.84L34.351 14.25C34.5307 14.0915 34.7613 14.0028 35.001 14H35.211L38.921 14.79C39.0313 14.809 39.1367 14.8497 39.231 14.91C39.661 15.18 43.491 17.55 44.651 19.22C44.7314 19.3372 44.786 19.4701 44.811 19.61C45.2756 22.6603 45.0187 25.777 44.061 28.71C44.0404 28.7693 44.0136 28.8263 43.981 28.88C43.921 28.99 42.441 31.46 37.891 33.88C37.7376 33.9629 37.5652 34.0043 37.391 34Z" fill="white"/>
<path d="M35.0015 15.0001L38.7115 15.7901C38.7115 15.7901 42.7115 18.2601 43.8315 19.7901C44.2568 22.6706 44.0104 25.6105 43.1115 28.3801C43.1115 28.3801 41.7715 30.6801 37.4215 32.9801L33.6715 32.2401L28.6715 28.3101L29.4715 19.5701L35.0015 15.0001ZM35.0015 13.0001C34.5377 13.0015 34.0887 13.1641 33.7315 13.4601L28.1715 18.0501C27.9695 18.2189 27.8028 18.4259 27.6809 18.6593C27.5591 18.8927 27.4845 19.1478 27.4615 19.4101L26.6615 28.1401C26.6295 28.4727 26.6814 28.8081 26.8124 29.1156C26.9435 29.423 27.1494 29.6927 27.4115 29.9001L32.4115 33.8401C32.6636 34.0295 32.9535 34.1625 33.2615 34.2301L37.0015 35.0001C37.1277 35.0154 37.2553 35.0154 37.3815 35.0001C37.709 35.0015 38.0317 34.9225 38.3215 34.7701C43.0415 32.2701 44.6315 29.6901 44.8015 29.4001C44.8689 29.2939 44.9227 29.1797 44.9615 29.0601C45.9679 25.9617 46.2417 22.6722 45.7615 19.4501C45.7065 19.1701 45.5941 18.9045 45.4315 18.6701C44.1915 16.8701 40.4315 14.5301 39.7115 14.0801C39.5179 13.9602 39.3046 13.8756 39.0815 13.8301L35.3815 13.0001C35.2552 12.987 35.1279 12.987 35.0015 13.0001Z" fill="#212C3A"/>
<path d="M37.3891 33.4992C37.3282 33.5004 37.2677 33.4896 37.2111 33.4673C37.1544 33.4449 37.1028 33.4116 37.0591 33.3692C35.5235 31.9806 33.8929 30.7008 32.1791 29.5392C32.0818 29.4866 32.0051 29.4027 31.9615 29.301C31.9179 29.1993 31.91 29.0859 31.9391 28.9792C31.9391 28.9292 33.2491 23.9792 32.5091 20.5892C32.4843 20.4791 32.4975 20.3638 32.5465 20.2621C32.5955 20.1604 32.6775 20.0783 32.7791 20.0292C32.7791 20.0292 36.6691 18.0992 38.2491 15.5192C38.2959 15.448 38.3597 15.3896 38.4348 15.3494C38.51 15.3093 38.5939 15.2885 38.6791 15.2892C38.7707 15.2872 38.8609 15.3115 38.9391 15.3592C39.1091 15.4592 43.0891 17.9092 44.2091 19.5292C44.2515 19.5847 44.2791 19.6501 44.2891 19.7192C44.7311 22.6834 44.4777 25.7097 43.5491 28.5592C43.4591 28.7492 42.0491 31.0992 37.6191 33.4392C37.549 33.479 37.4697 33.4997 37.3891 33.4992Z" fill="white"/>
<path d="M38.6792 15.7895C38.6792 15.7895 42.6792 18.2595 43.7992 19.7895C44.2245 22.6701 43.978 25.61 43.0792 28.3795C43.0792 28.3795 41.7392 30.6795 37.3892 32.9795C35.8183 31.5643 34.1473 30.2642 32.3892 29.0895C32.3892 29.0895 33.7492 24.0895 32.9692 20.4595C32.9692 20.4595 36.9692 18.4595 38.6492 15.7695M38.6492 14.7695C38.4793 14.7692 38.312 14.8122 38.1633 14.8944C38.0146 14.9766 37.8893 15.0954 37.7992 15.2395C36.2892 17.6895 32.5592 19.5395 32.5292 19.5595C32.3258 19.6599 32.1626 19.8264 32.0663 20.0317C31.97 20.237 31.9463 20.469 31.9992 20.6895C32.7192 24.0195 31.4492 28.7995 31.4392 28.8495C31.3781 29.0684 31.3933 29.3015 31.4824 29.5105C31.5714 29.7196 31.729 29.892 31.9292 29.9995C33.6205 31.1353 35.225 32.3955 36.7292 33.7695C36.882 33.9034 37.0721 33.9876 37.2739 34.0108C37.4758 34.0341 37.68 33.9952 37.8592 33.8995C42.4092 31.4995 43.8592 29.0295 43.9492 28.8995C43.9818 28.8458 44.0086 28.7889 44.0292 28.7295C44.987 25.7965 45.2438 22.6798 44.7792 19.6295C44.7542 19.4896 44.6996 19.3567 44.6192 19.2395C43.4592 17.5695 39.6192 15.2395 39.1992 14.9295C39.0419 14.8362 38.8621 14.7878 38.6792 14.7895L38.6492 14.7695Z" fill="#212C3A"/>
<path d="M32.0712 29.3297L28.0312 28.4297" stroke="#212C3A" stroke-linejoin="round"/>
<path d="M32.8681 20.3199L28.8281 19.4199" stroke="#212C3A" stroke-linejoin="round"/>
</svg>
