<svg width="48" height="48" viewBox="0 0 48 48" fill="none" xmlns="http://www.w3.org/2000/svg">
<path d="M44.22 16.6196C41.6449 13.0483 37.77 10.6314 33.43 9.88962C32.1496 9.62896 30.8467 9.49498 29.54 9.48962C26.5299 9.4507 23.5699 10.2618 21 11.8296C20.4412 12.2067 19.7841 12.4118 19.11 12.4196C18.9085 12.4198 18.7075 12.3997 18.51 12.3596L6.21 9.85962C6.07705 9.84532 5.94295 9.84532 5.81 9.85962C5.41631 9.86287 5.03153 9.97726 4.7 10.1896C4.25973 10.4837 3.95406 10.9405 3.85 11.4596L2.06 20.2796C2.00742 20.537 2.00606 20.8022 2.05601 21.0602C2.10595 21.3181 2.20623 21.5636 2.35109 21.7828C2.49596 22.002 2.68259 22.1904 2.90031 22.3374C3.11803 22.4845 3.36259 22.5871 3.62 22.6396L15.84 25.1296C16.0099 25.1558 16.1708 25.2232 16.3086 25.3261C16.4463 25.429 16.5567 25.5641 16.63 25.7196C17.5957 27.901 19.1333 29.7807 21.08 31.1596C21.2453 31.2851 21.371 31.4556 21.4419 31.6507C21.5129 31.8458 21.5261 32.0572 21.48 32.2596L21.13 33.9996C21.0775 34.2577 21.0766 34.5236 21.1272 34.7821C21.1777 35.0406 21.2789 35.2865 21.4247 35.5058C21.5706 35.725 21.7584 35.9134 21.9772 36.0599C22.1961 36.2064 22.4417 36.3083 22.7 36.3596L33.29 38.5196C33.4232 38.529 33.5568 38.529 33.69 38.5196C34.1593 38.5286 34.6168 38.3723 34.9825 38.0779C35.3481 37.7836 35.5986 37.37 35.69 36.9096L36 34.9996C36.039 34.7987 36.1324 34.6123 36.2699 34.4607C36.4074 34.309 36.5838 34.198 36.78 34.1396C41.38 32.9996 44.57 29.9996 45.34 26.2496L45.58 25.0496L45.8 23.8996C46.0425 22.6424 46.0275 21.349 45.7559 20.0977C45.4843 18.8465 44.9618 17.6632 44.22 16.6196ZM35.89 32.3796C35.756 32.4382 35.6258 32.505 35.5 32.5796V32.4796C35.5739 32.0965 35.7535 31.7417 36.0186 31.4554C36.2837 31.1691 36.6237 30.9627 37 30.8596C39.1691 30.3429 41.1463 29.219 42.7 27.6196C42.0096 28.7935 41.0822 29.8106 39.9768 30.6061C38.8714 31.4015 37.6124 31.9579 36.28 32.2396C36.1468 32.2767 36.0164 32.3235 35.89 32.3796ZM22.26 29.5396C22.04 29.3796 21.83 29.2196 21.63 29.0496C21.2242 28.7251 20.84 28.3744 20.48 27.9996C20.124 27.6366 19.79 27.2526 19.48 26.8496C19.0803 26.2641 18.7451 25.6371 18.48 24.9796C18.2792 24.5234 17.9703 24.1229 17.58 23.8127C17.1898 23.5026 16.7298 23.2922 16.24 23.1996L4 20.6796L4.28 19.3096L16.5 21.7996C16.8306 21.8577 17.1414 21.998 17.4035 22.2077C17.6656 22.4175 17.8708 22.6898 18 22.9996C18.8959 25.0082 20.3198 26.7362 22.12 27.9996C22.4377 28.2403 22.6799 28.5669 22.8181 28.9407C22.9563 29.3146 22.9847 29.7201 22.9 30.1096V30.1896C22.7201 29.9424 22.5044 29.7233 22.26 29.5396ZM20 14.3196L20.28 14.2596C20.5 14.1996 20.71 14.1296 20.93 14.0496L21.19 13.9496C21.4816 13.833 21.7598 13.6855 22.02 13.5096C22.3373 13.3222 22.6645 13.152 23 12.9996L23.29 12.8596L24.14 12.4896L24.39 12.3896C24.76 12.2596 25.14 12.1396 25.54 12.0396C25.6252 12.0139 25.7121 11.9938 25.8 11.9796C26.12 11.8996 26.45 11.8296 26.8 11.7696L27.16 11.7096C27.55 11.6496 27.96 11.6096 28.37 11.5796H28.44C28.8 11.5796 29.16 11.5796 29.53 11.5796H29.71C30.07 11.5796 30.44 11.5796 30.8 11.6396H31.35C31.9112 11.6893 32.4689 11.7728 33.02 11.8896C40.02 13.2996 44.86 18.5196 43.83 23.5396C43.2 26.6596 40.44 28.9696 36.76 29.9296C36.6171 29.9672 36.4769 30.014 36.34 30.0696C35.8784 30.2696 35.4724 30.579 35.157 30.971C34.8417 31.363 34.6265 31.8259 34.53 32.3196L34.15 34.1996L23.56 31.9996L23.9 30.3096C23.9305 30.1646 23.9505 30.0175 23.96 29.8696C23.9823 29.5777 23.9587 29.2842 23.89 28.9996C23.7402 28.2737 23.327 27.6289 22.73 27.1896C22.299 26.883 21.8881 26.549 21.5 26.1896C20.7592 25.5121 20.1163 24.7346 19.59 23.8796C19.3574 23.4705 19.16 23.0422 19 22.5996C18.799 22.1416 18.4888 21.7399 18.0965 21.4296C17.7043 21.1193 17.242 20.9098 16.75 20.8196L4.48 18.3296L5.81 11.8196L18.08 14.3196C18.4091 14.3865 18.7442 14.42 19.08 14.4196H19.17C19.4487 14.4056 19.726 14.3722 20 14.3196ZM23.37 32.9996L34 35.1396L33.72 36.5096L23.12 34.3496L23.37 32.9996Z" fill="#212C3A"/>
<path d="M42.72 27.6191C41.1608 29.2218 39.1763 30.3459 37 30.8591C36.6237 30.9622 36.2837 31.1686 36.0186 31.4549C35.7535 31.7412 35.5739 32.096 35.5 32.4791V32.5791C35.6258 32.5045 35.756 32.4377 35.89 32.3791C36.0229 32.3221 36.16 32.2753 36.3 32.2391C37.6324 31.9574 38.8914 31.4011 39.9968 30.6056C41.1022 29.8101 42.0296 28.793 42.72 27.6191Z" fill="white"/>
<path d="M33.9698 35.1405H33.9598L23.3698 32.9805L23.0898 34.3505L33.6898 36.5105L33.9698 35.1405Z" fill="white"/>
<path d="M22.92 30.1105C23.0047 29.7211 22.9763 29.3155 22.8381 28.9417C22.6999 28.5678 22.4577 28.2413 22.14 28.0005C20.3324 26.7398 18.9014 25.0116 18 23.0005C17.8708 22.6907 17.6656 22.4184 17.4035 22.2087C17.1414 21.999 16.8306 21.8586 16.5 21.8005L4.3 19.3105L4 20.6805L16.22 23.1705C16.7186 23.265 17.186 23.4816 17.5804 23.801C17.9748 24.1203 18.2839 24.5325 18.48 25.0005C18.7451 25.6581 19.0803 26.285 19.48 26.8705C19.79 27.2735 20.124 27.6576 20.48 28.0205C20.839 28.4056 21.2232 28.7664 21.63 29.1005C21.83 29.2705 22.04 29.4305 22.26 29.5905C22.508 29.7735 22.7271 29.9926 22.91 30.2405L22.92 30.1105Z" fill="white"/>
<path d="M19.1005 14.4203C18.7646 14.4206 18.4296 14.3871 18.1005 14.3203L5.81047 11.8203L4.48047 18.3303L16.7005 20.8203C17.2014 20.9029 17.6739 21.1089 18.0755 21.4196C18.477 21.7303 18.7949 22.1361 19.0005 22.6003C19.1776 23.0377 19.3917 23.4593 19.6405 23.8603C20.1668 24.7153 20.8096 25.4927 21.5505 26.1703C21.9386 26.5297 22.3494 26.8637 22.7805 27.1703C23.3629 27.6231 23.7581 28.2746 23.8905 29.0003C23.9591 29.2849 23.9828 29.5784 23.9605 29.8703C23.951 30.0182 23.9309 30.1653 23.9005 30.3103L23.5605 32.0003L34.1605 34.1603L34.5405 32.2803C34.6325 31.7811 34.8456 31.3122 35.1612 30.9146C35.4768 30.5171 35.8852 30.2031 36.3505 30.0003C36.4873 29.9447 36.6276 29.8979 36.7705 29.8603C40.4505 28.8603 43.2105 26.5903 43.8405 23.4703C44.8405 18.4703 40.0305 13.2303 33.0305 11.8203C32.4793 11.7034 31.9217 11.62 31.3605 11.5703H30.8105C30.4505 11.5703 30.0805 11.5203 29.7205 11.5103C29.3605 11.5003 28.8705 11.5103 28.4505 11.5103H28.3805C27.9705 11.5103 27.5605 11.5803 27.1705 11.6403L26.8105 11.7003C26.4805 11.7603 26.1505 11.8303 25.8105 11.9103C25.7226 11.9245 25.6357 11.9445 25.5505 11.9703C25.1505 12.0703 24.7705 12.1903 24.4005 12.3203L24.1505 12.4203L23.3005 12.7903L23.0005 13.0003C22.6572 13.165 22.3234 13.3486 22.0005 13.5503C21.7403 13.7262 21.462 13.8737 21.1705 13.9903L20.9105 14.0903C20.6905 14.1703 20.4805 14.2403 20.2605 14.3003L19.9805 14.3603C19.7029 14.41 19.4222 14.4401 19.1405 14.4503L19.1005 14.4203ZM38.7505 22.8403C38.2505 25.2703 35.6405 26.9003 32.2405 26.9003C31.5254 26.8993 30.812 26.829 30.1105 26.6903C27.8345 26.3043 25.7938 25.0584 24.4105 23.2103C24.0648 22.7185 23.8205 22.1629 23.6917 21.5757C23.5629 20.9885 23.5523 20.3816 23.6605 19.7903C24.1605 17.3503 26.7805 15.7203 30.1705 15.7203C30.8856 15.7209 31.599 15.7912 32.3005 15.9303C34.5765 16.3163 36.6171 17.5622 38.0005 19.4103C38.3464 19.9039 38.5909 20.4612 38.7196 21.05C38.8484 21.6389 38.8589 22.2474 38.7505 22.8403Z" fill="white"/>
<path d="M32.11 16.9107C31.4711 16.7843 30.8213 16.7207 30.17 16.7207C27.81 16.7207 25.82 17.6307 25 19.0907C26.3691 18.3616 27.8989 17.9868 29.45 18.0007C30.2328 18.0018 31.0134 18.0822 31.78 18.2407C34.1368 18.6582 36.2657 19.9071 37.78 21.7607C37.66 19.6407 35.31 17.5607 32.11 16.9107Z" fill="white"/>
<path d="M32.2999 15.9307C31.5984 15.7916 30.885 15.7213 30.1699 15.7207C26.7799 15.7207 24.1699 17.3507 23.6599 19.7907C23.5517 20.382 23.5623 20.9889 23.6911 21.5761C23.8199 22.1633 24.0642 22.7189 24.4099 23.2107C25.7932 25.0588 27.8339 26.3047 30.1099 26.6907C30.8114 26.8294 31.5247 26.8997 32.2399 26.9007C35.6399 26.9007 38.2399 25.2707 38.7499 22.8407C38.8583 22.2478 38.8478 21.6393 38.719 21.0504C38.5903 20.4616 38.3458 19.9043 37.9999 19.4107C36.6165 17.5626 34.5759 16.3167 32.2999 15.9307ZM32.2399 25.9307C31.5919 25.9304 30.9455 25.8668 30.3099 25.7407C29.4439 25.5711 28.6059 25.2816 27.8199 24.8807C27.4716 24.6954 27.1374 24.4848 26.8199 24.2507L26.3699 23.8907C25.811 23.4343 25.3458 22.874 24.9999 22.2407C24.9163 22.0719 24.8429 21.8982 24.7799 21.7207C25.4056 21.139 26.1406 20.6874 26.9423 20.3922C27.744 20.0969 28.5963 19.9638 29.4499 20.0007C30.0985 19.9989 30.7454 20.066 31.3799 20.2007C34.1399 20.7507 36.2699 22.3707 36.9099 24.2007C36.2838 24.7807 35.5482 25.2298 34.7463 25.5217C33.9444 25.8136 33.0922 25.9425 32.2399 25.9007V25.9307ZM31.7799 18.3007C31.0154 18.122 30.2347 18.0215 29.4499 18.0007C27.8988 17.9868 26.3689 18.3616 24.9999 19.0907C25.8199 17.6307 27.8099 16.7207 30.1699 16.7207C30.8212 16.7207 31.4709 16.7843 32.1099 16.9107C35.3099 17.5607 37.6599 19.6407 37.8199 21.7907C36.2956 19.9289 34.1511 18.6792 31.7799 18.2707V18.3007ZM24.8599 19.3807C24.8722 19.339 24.889 19.2988 24.9099 19.2607C24.8907 19.2892 24.874 19.3193 24.8599 19.3507V19.3807Z" fill="#212C3A"/>
</svg>
