<svg width="48" height="48" viewBox="0 0 48 48" fill="none" xmlns="http://www.w3.org/2000/svg">
<path d="M23.1812 44C13.8812 44 5.6112 40.12 2.1812 34.11C2.09729 33.9566 2.05263 33.7848 2.0512 33.61V27C2.0512 26.7348 2.15655 26.4804 2.34409 26.2929C2.53163 26.1054 2.78598 26 3.0512 26H23.1612C25.3164 26.1391 27.4438 25.4527 29.1112 24.08C27.4514 22.6919 25.3444 21.9529 23.1812 22H3.0012C2.73598 22 2.48163 21.8946 2.29409 21.7071C2.10655 21.5196 2.0012 21.2652 2.0012 21V15.5C1.99143 15.417 1.99143 15.333 2.0012 15.25C1.93501 14.9966 1.97092 14.7273 2.1012 14.5C5.8612 8 13.9212 4 23.1612 4C35.2712 4 45.0512 10.81 45.9212 19.84C45.9212 20.26 46.0012 21.7 46.0112 27.74C46.0012 36.86 36.0012 44 23.1812 44Z" fill="white"/>
<path d="M23.161 5C34.941 5 44.161 11.68 44.921 19.94C44.991 20.15 45.001 27.75 45.001 27.75C45.001 36.29 35.231 43 23.181 43C14.061 43 6.26097 39.24 3.00097 33.61V27H23.161C26.711 27 29.021 25.85 30.471 24.1C29.091 22.25 26.251 21 23.181 21H3.00097V15.5L3.57097 15H3.00097C6.34097 9.21 13.841 5 23.161 5ZM23.161 3C13.571 3 5.16097 7.22 1.27097 14C1.04659 14.3759 0.951743 14.815 1.00097 15.25C0.996028 15.3333 0.996028 15.4167 1.00097 15.5V21C1.00097 21.5304 1.21168 22.0391 1.58676 22.4142C1.96183 22.7893 2.47054 23 3.00097 23H23.181C24.6661 22.9855 26.1298 23.354 27.431 24.07C26.1105 24.7399 24.6404 25.0601 23.161 25H3.00097C2.47054 25 1.96183 25.2107 1.58676 25.5858C1.21168 25.9609 1.00097 26.4696 1.00097 27V33.61C1.00159 33.9613 1.09472 34.3062 1.27097 34.61C4.92097 40.92 13.521 45 23.181 45C36.541 45 47.001 37.42 47.001 27.75C47.001 21.95 47.001 20.34 46.911 19.75C46.001 10.2 35.791 3 23.161 3Z" fill="#212C3A"/>
<path d="M45 19.75V28.75C45 37.29 35.23 44 23.18 44C14.06 44 6.26002 40.24 3.00002 34.61V27L29.63 29.25L35.78 22.25C35.78 22.25 42.95 20.25 43.98 20.25C45.01 20.25 44.98 19.75 44.98 19.75M44.98 18.75C44.8065 18.75 44.6359 18.7952 44.4851 18.8811C44.3344 18.967 44.2085 19.0907 44.12 19.24H44C41.1421 19.7505 38.3145 20.4182 35.53 21.24C35.343 21.2883 35.1754 21.3931 35.05 21.54L29.24 28.16L3.08002 26H3.00002C2.74874 25.9981 2.50597 26.091 2.32002 26.26C2.21825 26.3544 2.13724 26.4689 2.08214 26.5963C2.02705 26.7237 1.99908 26.8612 2.00002 27V34.61C2.00146 34.7848 2.04612 34.9566 2.13002 35.11C5.61002 41.12 13.88 45 23.18 45C36 45 46 37.86 46 28.75V19.75C46 19.4848 45.8947 19.2304 45.7071 19.0429C45.5196 18.8554 45.2652 18.75 45 18.75H44.98Z" fill="#212C3A"/>
<path d="M28.61 9L34.76 11L37.83 23L31.46 26.87C31.46 23.63 27.75 21 23.18 21H3V14.5L8.12 10L28.61 9ZM28.61 8H28.56L8.07 9C7.84425 9.01199 7.62923 9.10011 7.46 9.25L2.34 13.75C2.23333 13.8437 2.14784 13.9591 2.08922 14.0884C2.03059 14.2177 2.00018 14.358 2 14.5V21C2 21.2652 2.10536 21.5196 2.29289 21.7071C2.48043 21.8946 2.73478 22 3 22H23.18C27.18 22 30.46 24.18 30.46 26.87C30.4603 27.0472 30.5077 27.2211 30.5973 27.374C30.6869 27.5269 30.8155 27.6532 30.97 27.74C31.1203 27.8227 31.2885 27.8673 31.46 27.87C31.6438 27.8687 31.8237 27.8168 31.98 27.72L38.35 23.85C38.5328 23.7389 38.6751 23.5721 38.7561 23.3741C38.8371 23.1761 38.8525 22.9574 38.8 22.75L35.72 10.75C35.6787 10.5884 35.5975 10.4396 35.484 10.3174C35.3705 10.1951 35.2281 10.1032 35.07 10.05L28.92 8.05C28.8195 8.01886 28.7152 8.00203 28.61 8Z" fill="#212C3A"/>
<path d="M23.1609 37.5C14.1009 37.5 6.21089 33.57 2.57089 27.25C2.52701 27.174 2.50391 27.0878 2.50391 27C2.50391 26.9122 2.52701 26.826 2.57089 26.75C2.6129 26.673 2.67518 26.609 2.75099 26.565C2.82679 26.5209 2.91322 26.4984 3.00089 26.5H23.1609C27.6309 26.5 31.1609 24.12 31.1609 21.09C31.1609 18.06 27.5909 15.5 23.1609 15.5H3.00089C2.91322 15.5016 2.82679 15.4791 2.75099 15.435C2.67518 15.391 2.6129 15.327 2.57089 15.25C2.52701 15.174 2.50391 15.0878 2.50391 15C2.50391 14.9122 2.52701 14.826 2.57089 14.75C6.21089 8.43 14.1009 4.5 23.1609 4.5C35.4809 4.5 45.5009 11.94 45.5009 21.09C45.5009 30.24 35.6909 37.5 23.1609 37.5Z" fill="white"/>
<path d="M23.1601 5C35.4901 5 45.0001 12.31 45.0001 21.09C45.0001 29.87 35.4901 37 23.1601 37C13.8401 37 6.34007 32.79 3.00007 27H23.1601C27.8401 27 31.6301 24.42 31.6301 21.09C31.6301 17.76 27.8401 15 23.1601 15H3.00007C6.34007 9.21 13.8401 5 23.1601 5ZM23.1601 4C13.9201 4 5.86007 8 2.16007 14.5C2.0723 14.652 2.02609 14.8245 2.02609 15C2.02609 15.1755 2.0723 15.348 2.16007 15.5C2.24559 15.6483 2.36773 15.7721 2.51481 15.8596C2.66188 15.9472 2.82897 15.9955 3.00007 16H23.1601C27.2101 16 30.6301 18.33 30.6301 21.09C30.6301 23.85 27.2801 26 23.1601 26H3.00007C2.82386 25.9993 2.65059 26.0452 2.49781 26.133C2.34504 26.2208 2.21817 26.3474 2.13007 26.5C2.0423 26.652 1.99609 26.8245 1.99609 27C1.99609 27.1755 2.0423 27.348 2.13007 27.5C5.86007 34 13.9201 38 23.1601 38C36.0001 38 46.0001 30.57 46.0001 21.09C46.0001 11.61 36.0001 4 23.1601 4Z" fill="#212C3A"/>
</svg>
