<svg width="48" height="48" viewBox="0 0 48 48" fill="none" xmlns="http://www.w3.org/2000/svg">
<path d="M35.8482 37.2904C35.5884 37.3053 35.328 37.3053 35.0682 37.2904C34.3482 37.2004 13.8282 32.9804 9.71818 32.1304C8.81492 31.9881 7.94908 31.6672 7.17128 31.1865C6.39347 30.7057 5.7193 30.0747 5.18818 29.3304C3.35659 26.6793 2.63846 23.4154 3.18818 20.2404C3.95818 14.6604 7.78818 10.4504 12.0882 10.4504C12.3513 10.4358 12.6151 10.4358 12.8782 10.4504C13.0282 10.4504 15.3082 10.9304 25.6782 13.0504L38.0982 15.5804C39.0285 15.7102 39.9231 16.0258 40.7289 16.5086C41.5346 16.9913 42.235 17.6313 42.7882 18.3904C44.6384 20.9998 45.3792 24.236 44.8482 27.3904C44.0782 33.0204 40.2182 37.2704 35.8482 37.2704V37.2904Z" fill="white"/>
<path d="M12.0585 11.4006C12.2816 11.386 12.5054 11.386 12.7285 11.4006C13.0285 11.4006 37.6185 16.4906 37.9085 16.5306C41.9085 17.0106 44.5785 21.8006 43.8285 27.2406C43.1185 32.3806 39.6285 36.2406 35.8285 36.2406C35.6085 36.2406 35.3885 36.2406 35.1685 36.2406C34.4485 36.1506 9.89847 31.0906 9.89847 31.0906C5.89847 30.5506 3.37847 25.7106 4.12847 20.3106C4.83847 15.1806 8.26847 11.3906 12.0385 11.3906M12.0385 9.39062C7.25847 9.40062 2.99847 14.0006 2.16847 20.0506C1.58887 23.4931 2.39016 27.0252 4.39847 29.8806C5.00689 30.7305 5.77812 31.4511 6.66736 32.0004C7.5566 32.5498 8.54613 32.9169 9.57847 33.0806C16.9985 34.6106 34.2285 38.1506 34.9985 38.2306C35.2968 38.2705 35.5975 38.2906 35.8985 38.2906C40.7285 38.2906 45.0185 33.6706 45.8985 27.5506C46.1818 25.8535 46.1281 24.1172 45.7403 22.4408C45.3526 20.7645 44.6383 19.1809 43.6385 17.7806C43.0045 16.9213 42.2058 16.1967 41.289 15.649C40.3722 15.1013 39.3557 14.7416 38.2985 14.5906C37.6585 14.4706 31.4185 13.1906 25.8985 12.0606C13.7385 9.59063 13.1485 9.48062 12.9985 9.46062C12.7001 9.42073 12.3995 9.40068 12.0985 9.40062L12.0385 9.39062Z" fill="#212C3A"/>
<path d="M10.6999 31.5901C10.4635 31.6047 10.2263 31.6047 9.98991 31.5901C9.11496 31.4673 8.2743 31.1671 7.51943 30.708C6.76456 30.2489 6.11138 29.6405 5.59991 28.9201C3.81257 26.416 3.09315 23.3045 3.59991 20.2701C4.34991 14.8901 7.98991 10.8301 12.0799 10.8301C12.3207 10.8318 12.5612 10.8485 12.7999 10.8801C13.6709 10.9968 14.5091 11.2892 15.2638 11.7396C16.0184 12.19 16.6737 12.7889 17.1899 13.5001C18.9732 16.0059 19.6922 19.1157 19.1899 22.1501C18.4399 27.5301 14.7899 31.5901 10.6999 31.5901Z" fill="white"/>
<path d="M12.1109 11.3291C12.3309 11.3291 12.5509 11.3291 12.7709 11.3291C16.7709 11.8091 19.4409 16.6091 18.6909 22.0391C17.9809 27.1791 14.4809 31.0391 10.6909 31.0391C10.4745 31.0537 10.2573 31.0537 10.0409 31.0391C6.04091 30.5591 3.37091 25.7691 4.12091 20.3291C4.83091 15.1891 8.3309 11.3291 12.1209 11.3291M12.1209 10.3291C7.7809 10.3291 3.92091 14.5791 3.12091 20.2091C2.58993 23.3634 3.33067 26.5997 5.18091 29.2091C5.73771 29.9745 6.44396 30.619 7.25695 31.1037C8.06994 31.5884 8.97279 31.9032 9.91091 32.0291C10.1674 32.0437 10.4244 32.0437 10.6809 32.0291C15.0209 32.0291 18.8809 27.7891 19.6809 22.1591C20.2086 19.0048 19.4681 15.7698 17.6209 13.1591C17.0641 12.3936 16.3579 11.7491 15.5449 11.2644C14.7319 10.7797 13.829 10.4649 12.8909 10.3391C12.6321 10.3075 12.3716 10.2908 12.1109 10.2891L12.1209 10.3291Z" fill="#212C3A"/>
<path d="M14.2998 32.3306C14.0633 32.3455 13.8262 32.3455 13.5898 32.3306C12.717 32.2151 11.8768 31.9233 11.1204 31.4729C10.364 31.0225 9.70712 30.4229 9.18975 29.7106C7.40241 27.2065 6.68299 24.095 7.18975 21.0606C7.92975 15.6806 11.5798 11.6206 15.6698 11.6206C15.9095 11.6056 16.15 11.6056 16.3898 11.6206C17.2612 11.7397 18.0995 12.0341 18.854 12.4861C19.6085 12.9381 20.2636 13.5384 20.7798 14.2506C22.5671 16.7546 23.2865 19.8661 22.7798 22.9006C21.9998 28.2706 18.3898 32.3306 14.2998 32.3306Z" fill="white"/>
<path d="M15.7098 12.0703C15.9295 12.0554 16.15 12.0554 16.3698 12.0703C20.3698 12.5503 23.0398 17.3503 22.2898 22.7803C21.5798 27.9203 18.0798 31.7803 14.2898 31.7803C14.0698 31.7803 13.8598 31.7803 13.6398 31.7803C9.63979 31.3003 6.95979 26.5003 7.70979 21.0703C8.42979 15.9303 11.9198 12.0703 15.7098 12.0703ZM15.7098 11.0703C11.3698 11.0703 7.50979 15.3103 6.70979 20.9403C6.44243 22.5137 6.48947 24.1244 6.8482 25.6795C7.20693 27.2345 7.87023 28.7031 8.79979 30.0003C9.3566 30.7657 10.0628 31.4103 10.8758 31.895C11.6888 32.3797 12.5917 32.6945 13.5298 32.8203C13.7862 32.8356 14.0434 32.8356 14.2998 32.8203C18.6398 32.8203 22.4998 28.5703 23.2998 22.9503C23.8246 19.7947 23.0805 16.5596 21.2298 13.9503C20.6732 13.1879 19.9681 12.5459 19.1569 12.063C18.3458 11.5801 17.4454 11.2662 16.5098 11.1403C16.25 11.1254 15.9896 11.1254 15.7298 11.1403L15.7098 11.0703Z" fill="#212C3A"/>
<path d="M17.8985 33.0593C17.6587 33.0742 17.4182 33.0742 17.1785 33.0593C16.3063 32.9425 15.4672 32.649 14.7124 32.1968C13.9576 31.7446 13.3029 31.1432 12.7885 30.4293C11.9025 29.1899 11.2698 27.7879 10.9266 26.3036C10.5834 24.8193 10.5364 23.2818 10.7885 21.7793C11.5285 16.3993 15.1785 12.3493 19.2685 12.3493C19.5049 12.3341 19.742 12.3341 19.9785 12.3493C20.8606 12.4632 21.71 12.7572 22.4738 13.213C23.2376 13.6689 23.8995 14.2769 24.4185 14.9993C26.2007 17.5056 26.9197 20.615 26.4185 23.6493C25.6385 28.9993 21.9985 33.0593 17.8985 33.0593Z" fill="white"/>
<path d="M19.3109 12.8102C19.5309 12.8102 19.7409 12.8102 19.9609 12.8102C23.9609 13.3002 26.6409 18.0902 25.8909 23.5202C25.1709 28.6602 21.6809 32.5202 17.8909 32.5202C17.6712 32.5351 17.4507 32.5351 17.2309 32.5202C13.2309 32.0402 10.5609 27.2502 11.3109 21.8102C12.0209 16.6802 15.5209 12.8102 19.3109 12.8102ZM19.3109 11.8102C14.9709 11.8102 11.1109 16.0502 10.3109 21.6802C9.78173 24.836 10.5262 28.0728 12.3809 30.6802C12.9366 31.4445 13.6413 32.0884 14.4525 32.573C15.2637 33.0577 16.1646 33.3731 17.1009 33.5002C17.3607 33.5152 17.6212 33.5152 17.8809 33.5002C22.2209 33.5002 26.0809 29.2602 26.8809 23.6302C27.4102 20.4745 26.6657 17.2377 24.8109 14.6302C24.2541 13.8648 23.5479 13.2203 22.7349 12.7356C21.9219 12.2509 21.0191 11.9361 20.0809 11.8102C19.8245 11.795 19.5674 11.795 19.3109 11.8102Z" fill="#212C3A"/>
<path d="M21.5007 33.8C21.2609 33.8149 21.0205 33.8149 20.7807 33.8C19.9097 33.6833 19.0715 33.3908 18.3169 32.9405C17.5622 32.4901 16.9069 31.8912 16.3907 31.18C14.6074 28.6741 13.8884 25.5643 14.3907 22.53C15.1707 17.1 18.8107 13 22.9107 13C23.1407 13 23.3807 13 23.6207 13C24.4966 13.1306 25.3366 13.4382 26.0896 13.9042C26.8427 14.3701 27.4929 14.9845 28.0007 15.71C29.7881 18.214 30.5075 21.3255 30.0007 24.36C29.2307 29.74 25.5907 33.8 21.5007 33.8Z" fill="white"/>
<path d="M22.9105 13.54C23.1269 13.5254 23.3441 13.5254 23.5605 13.54C27.5605 14.02 30.2305 18.82 29.4805 24.25C28.7705 29.39 25.2705 33.25 21.4805 33.25C21.2605 33.25 21.0405 33.25 20.8205 33.25C16.8205 32.77 14.1505 27.97 14.9005 22.54C15.6105 17.4 19.1105 13.54 22.9005 13.54M22.9005 12.54C18.5605 12.54 14.7005 16.78 13.9005 22.41C13.3729 25.5643 14.1133 28.7993 15.9605 31.41C16.5173 32.1754 17.2236 32.82 18.0366 33.3047C18.8496 33.7894 19.7524 34.1042 20.6905 34.23C20.9503 34.2449 21.2107 34.2449 21.4705 34.23C25.8105 34.23 29.6705 29.98 30.4705 24.36C30.9982 21.2057 30.2577 17.9707 28.4105 15.36C27.8528 14.5964 27.1461 13.9538 26.3332 13.4708C25.5202 12.9879 24.6179 12.6746 23.6805 12.55C23.425 12.5187 23.1679 12.502 22.9105 12.5L22.9005 12.54Z" fill="#212C3A"/>
<path d="M25.0886 34.5307C24.8521 34.5454 24.615 34.5454 24.3786 34.5307C23.5047 34.4089 22.6651 34.1091 21.9117 33.6499C21.1584 33.1906 20.5072 32.5817 19.9986 31.8607C19.1134 30.6229 18.4811 29.2226 18.1379 27.74C17.7947 26.2574 17.7474 24.7216 17.9986 23.2207C18.7486 17.8307 22.3886 13.7807 26.4786 13.7807C26.7184 13.7658 26.9588 13.7658 27.1986 13.7807C28.0707 13.8976 28.9098 14.191 29.6647 14.6432C30.4195 15.0955 31.0741 15.6969 31.5886 16.4107C33.3713 18.9131 34.0904 22.0196 33.5886 25.0507C32.8286 30.4807 29.1886 34.5307 25.0886 34.5307Z" fill="white"/>
<path d="M26.4982 14.2793C26.7179 14.2644 26.9384 14.2644 27.1582 14.2793C31.1582 14.7593 33.8282 19.5493 33.0782 24.9893C32.3682 30.1193 28.8682 33.9893 25.0782 33.9893C24.8618 34.0039 24.6446 34.0039 24.4282 33.9893C20.4282 33.5093 17.7582 28.7193 18.5082 23.2793C19.2182 18.1493 22.7182 14.2793 26.5082 14.2793M26.5082 13.2793C22.1682 13.2793 18.3082 17.5193 17.5082 23.1493C16.9761 26.3037 17.7169 29.5404 19.5682 32.1493C20.1244 32.9225 20.8325 33.5741 21.6493 34.0641C22.466 34.5542 23.3742 34.8724 24.3182 34.9993C24.5746 35.014 24.8317 35.014 25.0882 34.9993C29.4282 34.9993 33.2882 30.7593 34.0882 25.1293C34.6158 21.975 33.8754 18.74 32.0282 16.1293C31.4714 15.3639 30.7651 14.7193 29.9521 14.2346C29.1391 13.7499 28.2363 13.4351 27.2982 13.3093C27.0384 13.2944 26.778 13.2944 26.5182 13.3093L26.5082 13.2793Z" fill="#212C3A"/>
<path d="M28.6882 35.2708C28.4482 35.2708 28.2082 35.2708 27.9782 35.2708C27.1055 35.1513 26.2659 34.8568 25.5098 34.4048C24.7537 33.9529 24.0967 33.3529 23.5782 32.6408C21.7949 30.1349 21.0759 27.0251 21.5782 23.9908C22.3182 18.6108 25.9682 14.5508 30.0582 14.5508C30.2982 14.5508 30.5382 14.5508 30.7782 14.5508C31.649 14.6721 32.4865 14.9675 33.2407 15.4193C33.9949 15.8711 34.6504 16.4702 35.1682 17.1808C36.9556 19.6848 37.675 22.7963 37.1682 25.8308C36.4282 31.2108 32.7782 35.2708 28.6882 35.2708Z" fill="white"/>
<path d="M30.1017 15.0001C30.3215 14.9852 30.542 14.9852 30.7617 15.0001C34.7617 15.4801 37.4317 20.2801 36.6817 25.7101C35.9717 30.8501 32.4717 34.7101 28.6817 34.7101C28.4653 34.725 28.2481 34.725 28.0317 34.7101C24.0317 34.2301 21.3517 29.4301 22.1017 24.0001C22.8217 18.8601 26.3117 15.0001 30.1017 15.0001ZM30.1017 14.0001C25.7617 14.0001 21.9017 18.2501 21.1017 23.8701C20.577 27.0257 21.321 30.2609 23.1717 32.8701C23.7295 33.6337 24.4362 34.2763 25.2491 34.7593C26.062 35.2423 26.9644 35.5555 27.9017 35.6801C28.1572 35.7121 28.4143 35.7287 28.6717 35.7301C33.0117 35.7301 36.8717 31.4901 37.6717 25.8601C38.201 22.7044 37.4565 19.4676 35.6017 16.8601C35.0486 16.0934 34.3446 15.4477 33.5329 14.9628C32.7213 14.4778 31.8191 14.1639 30.8817 14.0401C30.6227 14.0119 30.3623 13.9985 30.1017 14.0001Z" fill="#212C3A"/>
<path d="M32.2919 36.0005C32.0522 36.0154 31.8117 36.0154 31.5719 36.0005C30.7009 35.8838 29.8627 35.5913 29.1081 35.141C28.3535 34.6906 27.6982 34.0917 27.1819 33.3805C25.3946 30.8765 24.6752 27.765 25.1819 24.7305C25.9219 19.3505 29.5719 15.2905 33.6619 15.2905C33.8984 15.2756 34.1355 15.2756 34.3719 15.2905C35.2447 15.405 36.0847 15.6976 36.8399 16.1499C37.595 16.6023 38.2492 17.205 38.7619 17.9205C39.6499 19.1589 40.2838 20.5608 40.6271 22.0455C40.9703 23.5301 41.0162 25.068 40.7619 26.5705C40.0019 32.0005 36.3819 36.0005 32.2919 36.0005Z" fill="white"/>
<path d="M33.7016 15.7497C33.918 15.7348 34.1352 15.7348 34.3516 15.7497C38.3516 16.2297 41.0316 21.0197 40.2816 26.4597C39.5616 31.5897 36.0716 35.4597 32.2816 35.4597C32.0618 35.4746 31.8413 35.4746 31.6216 35.4597C27.6216 34.9797 24.9516 30.1897 25.7016 24.7497C26.4116 19.6197 29.9116 15.7497 33.7016 15.7497ZM33.7016 14.7497C29.3616 14.7497 25.5016 18.9897 24.7016 24.6197C24.1724 27.7754 24.9168 31.0122 26.7716 33.6197C27.3272 34.384 28.0319 35.0278 28.8431 35.5125C29.6543 35.9972 30.5552 36.3125 31.4916 36.4397C31.7514 36.4546 32.0118 36.4546 32.2716 36.4397C36.6116 36.4397 40.4716 32.1997 41.2716 26.5697C41.8008 23.4139 41.0563 20.1771 39.2016 17.5697C38.6448 16.8043 37.9385 16.1597 37.1255 15.675C36.3125 15.1903 35.4097 14.8755 34.4716 14.7497C34.2151 14.7345 33.958 14.7345 33.7016 14.7497Z" fill="#212C3A"/>
<path d="M35.8913 36.7408C35.6516 36.7558 35.4111 36.7558 35.1713 36.7408C34.3005 36.6195 33.4631 36.3242 32.7089 35.8723C31.9546 35.4205 31.2991 34.8214 30.7813 34.1108C28.9981 31.605 28.279 28.4952 28.7813 25.4608C29.5613 20.0008 33.2113 16.0008 37.3013 16.0008C37.5345 15.9867 37.7682 15.9867 38.0013 16.0008C38.8727 16.1165 39.7113 16.4084 40.4661 16.8589C41.2209 17.3093 41.8759 17.9088 42.3913 18.6208C44.1787 21.1249 44.8981 24.2364 44.3913 27.2708C43.6213 32.6808 40.0013 36.7408 35.8913 36.7408Z" fill="white"/>
<path d="M37.299 16.4805C37.509 16.4805 37.729 16.4805 37.949 16.4805C41.949 16.9605 44.619 21.7605 43.869 27.1905C43.159 32.3305 39.659 36.1905 35.869 36.1905C35.6492 36.2054 35.4287 36.2054 35.209 36.1905C31.209 35.7105 28.539 30.9105 29.289 25.4805C29.999 20.3405 33.499 16.4805 37.289 16.4805M37.289 15.4805C32.949 15.4805 29.089 19.7305 28.289 25.3505C27.7658 28.5046 28.5058 31.738 30.349 34.3505C30.9067 35.114 31.6134 35.7567 32.4263 36.2396C33.2393 36.7226 34.1417 37.0358 35.079 37.1605C35.3378 37.1921 35.5982 37.2087 35.859 37.2105C40.199 37.2105 44.059 32.9705 44.859 27.3405C45.3911 24.186 44.6502 20.9494 42.799 18.3405C42.2422 17.5751 41.5359 16.9305 40.7229 16.4458C39.9099 15.9611 39.0071 15.6463 38.069 15.5205C37.8125 15.5059 37.5554 15.5059 37.299 15.5205L37.289 15.4805Z" fill="#212C3A"/>
<path d="M41.0002 29.2C39.8002 26.64 40.9202 23.51 41.2902 22.71C41.2902 22.59 41.3402 22.83 41.2902 22.71L37.1502 20C35.8865 20.6542 34.7299 21.4972 33.7202 22.5C33.1121 23.4423 32.6974 24.496 32.5002 25.6C32.2161 27.02 32.3303 28.4909 32.8302 29.85C33.9417 31.0621 35.2672 32.0588 36.7402 32.79H36.8102C37.2205 31.9331 37.8051 31.1712 38.5266 30.5531C39.248 29.9349 40.0905 29.4741 41.0002 29.2Z" fill="#212C3A"/>
</svg>
