<svg width="48" height="48" viewBox="0 0 48 48" fill="none" xmlns="http://www.w3.org/2000/svg">
<path d="M7.90929 21.9999C7.7408 22.0003 7.57289 21.9801 7.40929 21.9399C5.85929 21.5899 4.96929 19.7199 5.40929 17.6699C5.75929 15.8999 6.99929 14.5899 8.43929 14.5899C8.60777 14.5894 8.77568 14.6096 8.93929 14.6498C10.4893 14.9998 11.3793 16.8799 10.9393 18.9199C10.5993 20.7299 9.30929 21.9999 7.90929 21.9999Z" fill="white"/>
<path d="M8.43998 15.5901C8.53303 15.5798 8.62693 15.5798 8.71998 15.5901C9.71998 15.8201 10.28 17.2101 9.97998 18.7001C9.70998 20.0701 8.81998 21.0001 7.90998 21.0001C7.81691 21.0099 7.72305 21.0099 7.62998 21.0001C6.62998 20.7701 6.06998 19.3801 6.36998 17.9001C6.66998 16.4201 7.52998 15.5801 8.43998 15.5801M8.43998 13.5801C6.53998 13.5801 4.87998 15.1901 4.43998 17.5001C3.91998 20.0801 5.13998 22.5001 7.21998 22.9501C7.45651 23.0019 7.69784 23.0288 7.93998 23.0301C9.84998 23.0301 11.5 21.4201 11.94 19.1101C12.47 16.5301 11.25 14.1101 9.15998 13.6601C8.92345 13.6082 8.68212 13.5814 8.43998 13.5801Z" fill="#212C3A"/>
<path d="M32.7604 12.2092C33.58 12.207 34.3899 12.385 35.133 12.7306C35.8761 13.0762 36.5341 13.581 37.0604 14.2092L42.7604 21.6592C43.6478 22.8809 44.0859 24.3717 44.0004 25.8792C43.9556 26.779 43.7214 27.6592 43.313 28.4623C42.9046 29.2653 42.3312 29.973 41.6304 30.5392L36.0904 34.7292L36.0104 34.7892C35.062 35.4385 33.9399 35.787 32.7904 35.7892H32.5404C31.711 35.7509 30.8995 35.5345 30.161 35.1549C29.4226 34.7753 28.7744 34.2414 28.2604 33.5892L23.1904 27.1992C23.1668 27.1682 23.1467 27.1347 23.1304 27.0992C22.6404 26.4192 23.1304 25.2092 24.2404 24.3892C24.7765 23.978 25.4256 23.7408 26.1004 23.7092H26.4004H26.4504H26.5204L26.7204 23.7792L26.8804 23.8492C26.9572 23.9008 27.0277 23.9612 27.0904 24.0292L31.5004 29.5892C31.6422 29.7687 31.8231 29.9133 32.0294 30.0121C32.2356 30.1109 32.4618 30.1612 32.6904 30.1592C33.0148 30.1578 33.3301 30.0527 33.5904 29.8592L37.7904 26.6692C38.1524 26.3715 38.3864 25.9462 38.4441 25.481C38.5018 25.0159 38.3787 24.5464 38.1004 24.1692L35.3604 20.4192L33.7004 18.1992C33.4574 17.8891 33.1029 17.6863 32.7124 17.634C32.3219 17.5817 31.9265 17.684 31.6104 17.9192C24.6704 23.1492 23.6104 23.3892 23.0104 23.5192C22.498 23.6746 21.9659 23.7554 21.4304 23.7592C19.8225 23.6633 18.2381 23.3262 16.7304 22.7592L16.0604 22.5092C15.2604 22.2292 14.6804 20.6792 15.1204 19.3792C15.2506 18.9463 15.514 18.5655 15.873 18.2908C16.2321 18.0161 16.6685 17.8616 17.1204 17.8492C17.2832 17.8465 17.4453 17.8702 17.6004 17.9192L18.3704 17.9792C19.458 18.3354 20.5877 18.5472 21.7304 18.6092H21.8904L22.0304 18.5392C24.556 16.9332 26.9991 15.2011 29.3504 13.3492C29.7975 13.0051 30.2928 12.7288 30.8204 12.5292C31.4445 12.3132 32.1 12.2017 32.7604 12.1992M32.7604 10.1992C31.8744 10.1999 30.9951 10.3521 30.1604 10.6492C29.4392 10.9111 28.7642 11.2857 28.1604 11.7592C24.7304 14.3592 22.5104 15.9092 21.4604 16.5592C20.623 16.5071 19.796 16.3457 19.0004 16.0792C18.8549 16.0301 18.7037 15.9999 18.5504 15.9892L17.9604 15.9392C17.6912 15.8792 17.4162 15.849 17.1404 15.8492C16.271 15.8627 15.4278 16.1489 14.7298 16.6675C14.0318 17.186 13.5143 17.9107 13.2504 18.7392C12.4704 21.0292 13.5004 23.7392 15.4204 24.3992L16.0704 24.6392H16.1304C17.7006 25.2126 19.3369 25.5855 21.0004 25.7492C20.9101 26.1578 20.9017 26.5803 20.9755 26.9922C21.0493 27.4041 21.2039 27.7974 21.4304 28.1492C21.4891 28.2511 21.556 28.3481 21.6304 28.4392L26.6904 34.8292C27.3798 35.7101 28.2495 36.4334 29.2411 36.9508C30.2328 37.4682 31.3236 37.7677 32.4404 37.8292H32.7904C34.3481 37.8285 35.8686 37.3542 37.1504 36.4692L37.2704 36.3792L42.8404 32.1692C43.7764 31.4253 44.5425 30.49 45.0875 29.4258C45.6325 28.3617 45.9437 27.1934 46.0004 25.9992C46.1123 24.0013 45.5215 22.0272 44.3304 20.4192L38.6404 12.9992V12.9292C37.9281 12.0747 37.0367 11.3873 36.0292 10.9155C35.0217 10.4437 33.9229 10.1992 32.8104 10.1992H32.7604ZM28.5004 22.6692C29.5504 21.9392 30.8304 21.0092 32.4104 19.8192L33.8004 21.7092L36.4504 25.3292L32.8204 28.0792L28.7704 22.9992C28.7704 22.9392 28.6804 22.8892 28.6404 22.8392L28.5204 22.7192L28.5004 22.6692Z" fill="#212C3A"/>
<path d="M15.4317 24.4197C15.2233 24.4167 15.0156 24.3933 14.8117 24.3497L9.16173 22.9997H9.05173C7.63173 22.2897 6.83173 20.3697 7.05173 18.3297C7.35173 15.9697 8.91173 14.1797 10.6917 14.1797H11.0017L16.7717 15.4697C17.4762 15.7197 18.0893 16.1756 18.5315 16.7783C18.9737 17.381 19.2246 18.1027 19.2517 18.8497C19.3602 19.5288 19.3273 20.2231 19.1553 20.889C18.9832 21.5549 18.6756 22.1781 18.2517 22.7197C17.9618 23.2208 17.5528 23.6426 17.0609 23.9479C16.569 24.2532 16.0094 24.4324 15.4317 24.4697V24.4197Z" fill="white"/>
<path d="M10.7306 15.1191H10.8206L16.5106 16.3791C17.0134 16.584 17.4438 16.9341 17.7466 17.3848C18.0494 17.8355 18.211 18.3662 18.2106 18.9091C18.3146 19.4603 18.2997 20.0273 18.1669 20.5723C18.0341 21.1173 17.7865 21.6276 17.4406 22.0691C17.2355 22.4335 16.9476 22.7446 16.6002 22.9773C16.2528 23.2101 15.8556 23.358 15.4406 23.4091C15.3026 23.4067 15.1652 23.3899 15.0306 23.3591L9.50061 21.9991C8.93713 21.6043 8.50212 21.0526 8.24966 20.4125C7.99719 19.7725 7.93841 19.0723 8.08061 18.3991C8.31061 16.5591 9.47061 15.1191 10.7306 15.1191ZM10.7306 13.1191C8.45061 13.1191 6.46061 15.2791 6.09061 18.1191C5.78061 20.6191 6.79061 22.9091 8.61061 23.8091L8.81061 23.9091L9.00061 23.9991L14.5306 25.3291C14.8158 25.3958 15.1077 25.4294 15.4006 25.4291C16.137 25.3917 16.8529 25.1743 17.4857 24.796C18.1186 24.4177 18.649 23.89 19.0306 23.2591C19.5155 22.6118 19.8662 21.874 20.0619 21.0892C20.2577 20.3044 20.2947 19.4884 20.1706 18.6891C20.1194 17.7497 19.791 16.8465 19.2268 16.0937C18.6625 15.3408 17.8879 14.772 17.0006 14.4591L11.3106 13.1891H11.1506H10.7806L10.7306 13.1191Z" fill="#212C3A"/>
<path d="M6.43904 20.9091L3.52904 18.4991C3.32333 18.3415 3.16504 18.1302 3.07154 17.8885C2.97804 17.6468 2.95295 17.3841 2.99904 17.1291C3.04866 16.8693 3.1679 16.6279 3.34403 16.4307C3.52015 16.2334 3.74655 16.0877 3.99904 16.0091L7.99904 14.7891L12.619 17.1291L11.299 21.8891L6.43904 20.9091Z" fill="white"/>
<path d="M8.00066 15.8607L11.5307 17.6507L10.6807 20.7307L6.88066 20.0007L4.16066 17.7307C4.10452 17.6778 4.06364 17.6108 4.04231 17.5367C4.02097 17.4626 4.01996 17.3841 4.03939 17.3094C4.05882 17.2348 4.09796 17.1667 4.15273 17.1124C4.2075 17.0581 4.27586 17.0195 4.35066 17.0007L8.00066 15.8607ZM8.18067 13.7207L7.37066 14.0007L3.76066 15.0607C3.33226 15.1869 2.94652 15.4279 2.64513 15.7575C2.34374 16.087 2.13818 16.4927 2.05066 16.9307C1.96479 17.3603 1.99763 17.8051 2.14563 18.2174C2.29363 18.6297 2.55121 18.9938 2.89066 19.2707L5.61066 21.5207L6.00066 21.8407L6.49066 21.9407L10.2507 22.6907L12.0707 23.0507L12.5607 21.2607L13.4207 18.1907L13.8507 16.6107L12.3907 15.8707L8.86066 14.0807L8.14067 13.7207H8.18067Z" fill="#212C3A"/>
<path d="M7.91163 21.5409C7.78205 21.5556 7.65121 21.5556 7.52163 21.5409C6.24163 21.2509 5.52163 19.6309 5.88163 17.8509C6.20163 16.2709 7.28163 15.1309 8.44163 15.1309C8.5731 15.1327 8.70393 15.1495 8.83163 15.1809C10.1116 15.4709 10.8316 17.0909 10.4716 18.8609C10.1516 20.4009 9.08163 21.5409 7.91163 21.5409Z" fill="white"/>
<path d="M8.43987 15.5901C8.53292 15.5798 8.62683 15.5798 8.71988 15.5901C9.71988 15.8201 10.2799 17.2101 9.97987 18.7001C9.70987 20.0701 8.81988 21.0001 7.90987 21.0001C7.8168 21.0099 7.72295 21.0099 7.62988 21.0001C6.62988 20.7701 6.06987 19.3801 6.36987 17.9001C6.66987 16.4201 7.52987 15.5801 8.43987 15.5801M8.43987 14.5801C7.03987 14.5801 5.75988 15.8901 5.43988 17.7001C5.01988 19.7501 5.90988 21.6201 7.43988 21.9701C7.60348 22.0104 7.77139 22.0305 7.93988 22.0301C9.33988 22.0301 10.6299 20.7201 10.9899 18.9101C11.4099 16.9101 10.5199 14.9901 8.98987 14.6401C8.82627 14.5998 8.65836 14.5797 8.48987 14.5801H8.43987Z" fill="#212C3A"/>
<path d="M10.1885 22.8602C10.0273 22.8583 9.86663 22.8416 9.70852 22.8102C8.10852 22.4402 7.20852 20.3902 7.70852 18.1202C8.11852 16.1202 9.46852 14.6602 10.9385 14.6602C11.1004 14.6607 11.2615 14.6808 11.4185 14.7202C13.0185 15.0802 13.9185 17.1402 13.4185 19.4002C12.9985 21.4102 11.6585 22.8602 10.1885 22.8602Z" fill="white"/>
<path d="M10.8985 15.1592C11.0233 15.1617 11.1475 15.1785 11.2685 15.2092C12.5785 15.4992 13.3285 17.3392 12.9285 19.2992C12.5685 21.0792 11.3885 22.3592 10.1885 22.3592C10.0656 22.3734 9.94142 22.3734 9.8185 22.3592C8.5085 22.0592 7.7585 20.2292 8.1585 18.2592C8.5185 16.4792 9.6985 15.1992 10.8985 15.1992M10.8985 14.1992C9.1985 14.1992 7.6285 15.8292 7.1785 18.0592C6.6685 20.5992 7.7285 22.9092 9.5985 23.3292C9.79147 23.3771 9.98968 23.4006 10.1885 23.3992C11.8885 23.3992 13.4585 21.7792 13.9085 19.5392C14.4285 17.0092 13.3585 14.6892 11.4885 14.2692C11.2946 14.2264 11.097 14.203 10.8985 14.1992Z" fill="#212C3A"/>
<path d="M12.15 23.3094C11.9881 23.3104 11.8267 23.2902 11.67 23.2494C10.06 22.8894 9.16004 20.8294 9.62004 18.5694C10.03 16.5694 11.39 15.1094 12.85 15.1094C13.0112 15.1112 13.1719 15.1279 13.33 15.1594C14.94 15.5294 15.83 17.5794 15.33 19.8494C15 21.8494 13.61 23.3094 12.15 23.3094Z" fill="white"/>
<path d="M12.8516 15.6095C12.9745 15.5947 13.0987 15.5947 13.2216 15.6095C14.5416 15.9095 15.2816 17.7395 14.8816 19.7095C14.5216 21.4895 13.3516 22.7695 12.1516 22.7695C12.0285 22.7798 11.9047 22.7798 11.7816 22.7695C10.4616 22.4695 9.71157 20.6295 10.1116 18.6695C10.4716 16.8895 11.6516 15.6095 12.8516 15.6095ZM12.8516 14.6095C11.1516 14.6095 9.58157 16.2295 9.13157 18.4695C8.62157 20.9995 9.68157 23.3195 11.5616 23.7395C11.7553 23.7831 11.953 23.8066 12.1516 23.8095C13.8516 23.8095 15.4116 22.1795 15.8616 19.9495C16.3816 17.4195 15.3116 15.0995 13.4416 14.6795C13.2487 14.631 13.0504 14.6074 12.8516 14.6095Z" fill="#212C3A"/>
<path d="M14.0994 23.7494C13.9382 23.7476 13.7775 23.7308 13.6194 23.6994C12.0094 23.3394 11.1094 21.2794 11.6194 19.0094C12.0294 17.0094 13.3894 15.5594 14.8494 15.5594C15.0088 15.5401 15.1699 15.5401 15.3294 15.5594C16.9394 15.9194 17.8394 17.9794 17.3294 20.2394C16.9194 22.2994 15.5594 23.7494 14.0994 23.7494Z" fill="white"/>
<path d="M14.8001 16.0606C14.9229 16.0453 15.0472 16.0453 15.1701 16.0606C16.4901 16.3606 17.2401 18.1906 16.8401 20.1506C16.4801 21.9406 15.3001 23.2106 14.1001 23.2106C13.9772 23.2253 13.853 23.2253 13.7301 23.2106C12.4101 22.9106 11.6701 21.0806 12.0601 19.1106C12.4301 17.3306 13.6001 16.0606 14.8001 16.0606ZM14.8001 15.0606C13.1001 15.0606 11.5401 16.6806 11.0801 18.9206C10.5701 21.4506 11.6401 23.7606 13.5101 24.1906C13.7042 24.2308 13.9019 24.2509 14.1001 24.2506C15.8001 24.2506 17.3601 22.6306 17.8201 20.3906C18.3301 17.8606 17.2701 15.5506 15.3901 15.1206C15.196 15.0803 14.9983 15.0602 14.8001 15.0606Z" fill="#212C3A"/>
<path d="M16.0518 24.2C15.8906 24.1982 15.7299 24.1815 15.5718 24.15C13.9718 23.78 13.0718 21.72 13.5718 19.46C13.9718 17.46 15.3318 16 16.8018 16C16.963 16.0018 17.1237 16.0185 17.2818 16.05C18.8818 16.42 19.7818 18.48 19.2818 20.74C18.8718 22.74 17.5218 24.2 16.0518 24.2Z" fill="white"/>
<path d="M16.7614 16.5C16.8809 16.4853 17.0018 16.4853 17.1214 16.5C18.4414 16.8 19.1914 18.64 18.7914 20.6C18.4314 22.38 17.2514 23.66 16.0514 23.66C15.9282 23.6698 15.8045 23.6698 15.6814 23.66C14.3614 23.36 13.6214 21.52 14.0214 19.56C14.3814 17.78 15.5614 16.5 16.7614 16.5ZM16.7614 15.5C15.0514 15.5 13.4914 17.12 13.0414 19.36C12.5214 21.89 13.5914 24.21 15.4614 24.63C15.6542 24.6785 15.8525 24.7021 16.0514 24.7C17.7514 24.7 19.3214 23.08 19.7714 20.84C20.2814 18.31 19.2214 15.99 17.3514 15.57C17.1583 15.5227 16.9602 15.4992 16.7614 15.5Z" fill="#212C3A"/>
<path d="M32.5107 36.28C31.6098 36.2371 30.7286 36.0015 29.9265 35.5893C29.1243 35.177 28.4199 34.5975 27.8607 33.89L22.7907 27.51C22.7907 27.51 22.7407 27.42 22.7107 27.38C22.0507 26.48 22.5807 24.98 23.9407 23.99C24.5583 23.5119 25.3101 23.2391 26.0907 23.21C26.2171 23.1997 26.3442 23.1997 26.4707 23.21L26.6707 23.26C26.7534 23.2774 26.834 23.3043 26.9107 23.34C26.9922 23.3698 27.0695 23.4102 27.1407 23.46C27.2534 23.5309 27.3575 23.6148 27.4507 23.71L27.5207 23.8C27.5207 23.8 27.5207 23.8 27.5807 23.87L31.9707 29.41C32.0659 29.5305 32.1876 29.6275 32.3263 29.6934C32.465 29.7593 32.6171 29.7924 32.7707 29.79C32.987 29.79 33.1976 29.7198 33.3707 29.59L37.5707 26.4C37.8295 26.1817 37.9953 25.8729 38.0343 25.5366C38.0733 25.2003 37.9826 24.8617 37.7807 24.59L33.3207 18.51C33.1576 18.3082 32.9225 18.1776 32.665 18.1459C32.4075 18.1142 32.1478 18.1838 31.9407 18.34C24.9407 23.63 23.8107 23.88 23.1507 24.03L23.0007 24C22.5016 24.1334 21.9872 24.2006 21.4707 24.2C19.7634 24.1186 18.0779 23.7815 16.4707 23.2L16.3307 23.12C15.3307 22.62 15.0007 21.18 15.5107 19.69C15.6436 19.1151 15.9431 18.5921 16.3718 18.1866C16.8005 17.781 17.3392 17.5109 17.9207 17.41C18.081 17.4065 18.2405 17.4337 18.3907 17.49H18.4607C19.4029 17.7862 20.3759 17.9741 21.3607 18.05H21.7707C24.2831 16.4938 26.713 14.8082 29.0507 13C29.5363 12.6191 30.0798 12.3187 30.6607 12.11C31.3352 11.8718 32.0453 11.7501 32.7607 11.75C33.6536 11.7496 34.5357 11.9456 35.3444 12.3241C36.1532 12.7025 36.8688 13.2542 37.4407 13.94L43.1607 21.4C44.1136 22.7188 44.5833 24.3256 44.4907 25.95C44.4335 26.9174 44.1744 27.862 43.7301 28.7232C43.2857 29.5843 42.666 30.3429 41.9107 30.95L36.2907 35.2C35.2594 35.9144 34.0352 36.2981 32.7807 36.3L32.5107 36.28Z" fill="white"/>
<path d="M32.7583 12.2099C33.5778 12.2077 34.3878 12.3857 35.1309 12.7313C35.874 13.077 36.532 13.5817 37.0583 14.2099L42.7583 21.6599C43.6457 22.8816 44.0837 24.3724 43.9983 25.8799C43.9535 26.7797 43.7192 27.6599 43.3108 28.463C42.9024 29.266 42.3291 29.9737 41.6283 30.5399L36.0883 34.7299L36.0083 34.7899C35.0598 35.4392 33.9377 35.7877 32.7883 35.7899H32.5383C31.7088 35.7516 30.8974 35.5352 30.1589 35.1556C29.4204 34.7761 28.7722 34.2421 28.2583 33.5899L23.1883 27.1999C23.1647 27.1689 23.1445 27.1354 23.1283 27.0999C22.6383 26.4199 23.1283 25.2099 24.2383 24.3899C24.7744 23.9787 25.4234 23.7415 26.0983 23.7099H26.3983H26.4483H26.5183L26.7183 23.7799C26.7762 23.7963 26.8304 23.8235 26.8783 23.8599C26.9571 23.9047 27.028 23.9622 27.0883 24.0299L31.4983 29.5899C31.7442 29.8963 32.0992 30.0956 32.4889 30.1459C32.8785 30.1962 33.2725 30.0938 33.5883 29.8599L37.7883 26.6699C38.1503 26.3722 38.3842 25.9469 38.4419 25.4818C38.4996 25.0166 38.3766 24.5471 38.0983 24.1699L35.3583 20.4199L33.6983 18.1999C33.4553 17.8898 33.1007 17.687 32.7102 17.6347C32.3198 17.5824 31.9243 17.6847 31.6083 17.9199C24.6683 23.1499 23.6083 23.3899 23.0083 23.5199C22.5069 23.6609 21.9891 23.7349 21.4683 23.7399C19.8166 23.6555 18.1877 23.3183 16.6383 22.7399C15.8383 22.4699 15.5583 21.1799 15.9983 19.8699C16.3883 18.7199 17.2083 17.9299 17.9383 17.9299C18.0435 17.9311 18.148 17.948 18.2483 17.9799C19.3706 18.3204 20.5281 18.5318 21.6983 18.6099H21.8583L21.9983 18.5399C24.5239 16.934 26.967 15.2018 29.3183 13.3499C29.7653 13.0058 30.2606 12.7295 30.7883 12.5299C31.4124 12.3139 32.0679 12.2024 32.7283 12.1999M32.7283 11.1999C31.955 11.2003 31.1874 11.3322 30.4583 11.5899C29.828 11.8269 29.2403 12.1646 28.7183 12.5899C24.9283 15.4599 22.5883 17.0599 21.6383 17.5899H21.3883C20.4482 17.5223 19.5189 17.3478 18.6183 17.0699H18.5283C18.3255 17.0011 18.1124 16.9673 17.8983 16.9699C17.213 17.054 16.5692 17.3436 16.0516 17.8005C15.5339 18.2575 15.1668 18.8604 14.9983 19.5299C14.3783 21.3799 14.9183 23.1899 16.2483 23.6599C17.8979 24.2736 19.6308 24.6344 21.3883 24.7299C21.7538 24.7281 22.1185 24.6946 22.4783 24.6299C22.1286 25.0404 21.914 25.5487 21.8639 26.0856C21.8138 26.6226 21.9306 27.1618 22.1983 27.6299L22.3183 27.8199L27.3783 34.1999C27.9798 34.9614 28.7371 35.5855 29.5994 36.0304C30.4617 36.4754 31.4092 36.7309 32.3783 36.7799H32.6783C34.0316 36.7772 35.3526 36.3659 36.4683 35.5999L36.5683 35.5299L42.1183 31.3199C42.9556 30.6817 43.6461 29.8711 44.143 28.9429C44.6399 28.0147 44.9316 26.9906 44.9983 25.9399C45.1058 24.173 44.589 22.4245 43.5383 20.9999L37.8483 13.5799C37.2302 12.8276 36.4532 12.2214 35.5732 11.8048C34.6932 11.3881 33.7319 11.1713 32.7583 11.1699L32.7283 11.1999ZM26.6183 22.7399C27.8883 21.8999 29.6683 20.6399 32.2083 18.7399C32.2952 18.6756 32.4002 18.6406 32.5083 18.6399C32.5851 18.6387 32.6611 18.6553 32.7305 18.6882C32.7998 18.7212 32.8607 18.7697 32.9083 18.8299L34.5983 21.1399L37.3483 24.8899C37.4664 25.0603 37.5165 25.2686 37.4887 25.474C37.461 25.6795 37.3574 25.867 37.1983 25.9999L32.9983 29.1699C32.8909 29.2487 32.7574 29.2832 32.6253 29.2665C32.4932 29.2498 32.3726 29.183 32.2883 29.0799L27.9983 23.5699L27.8783 23.4399L27.8183 23.3799C27.7043 23.2619 27.5768 23.1578 27.4383 23.0699C27.3439 23.0066 27.2434 22.953 27.1383 22.9099C27.0404 22.8706 26.9402 22.8372 26.8383 22.8099H26.6683L26.6183 22.7399Z" fill="#212C3A"/>
<path d="M31.5685 16.8297C31.0785 16.5397 33.9085 17.1897 34.3085 19.6897C34.8285 22.9397 32.4785 19.3097 32.4785 19.3097C32.4785 19.3097 32.6585 17.4497 31.5685 16.8297Z" fill="#212C3A"/>
<path d="M30.9009 30.3607C30.3409 30.3607 33.1509 31.1007 34.6509 29.0507C36.5909 26.3907 32.8409 28.5607 32.8409 28.5607C32.8409 28.5607 32.1609 30.2907 30.9009 30.3607Z" fill="#212C3A"/>
<path d="M19.561 18.8195C19.001 18.8195 21.811 19.5595 23.311 17.5195C25.251 14.8595 21.501 16.9995 21.501 16.9995C21.501 16.9995 20.821 18.7595 19.561 18.8195Z" fill="#212C3A"/>
</svg>
