<svg width="48" height="48" viewBox="0 0 48 48" fill="none" xmlns="http://www.w3.org/2000/svg">
<path d="M30.5804 30.4904H30.3804L8.6804 26.0004C8.44442 25.9616 8.23281 25.8325 8.0904 25.6404L5.3104 22.1304C4.70064 21.6486 4.23467 21.0088 3.96315 20.2806C3.69163 19.5525 3.62496 18.7638 3.7704 18.0004C3.83469 17.108 4.18292 16.2597 4.76413 15.5795C5.34533 14.8993 6.12899 14.4231 7.0004 14.2204L10.9204 12.4904C11.0492 12.4317 11.1889 12.401 11.3304 12.4004H11.5204L33.2004 16.6904C33.3316 16.7121 33.4567 16.7618 33.5671 16.8359C33.6775 16.9101 33.7707 17.0071 33.8404 17.1204C33.9878 17.3406 34.0418 17.6104 33.9904 17.8704L31.5704 29.6704C31.5281 29.9016 31.4057 30.1106 31.2246 30.2605C31.0436 30.4105 30.8155 30.4919 30.5804 30.4904Z" fill="white"/>
<path d="M11.3214 13.3997L33.0014 17.6897L30.5814 29.4897L8.8714 25.0697L6.0014 21.3997C5.49679 21.0383 5.10935 20.5368 4.88715 19.9573C4.66494 19.3778 4.61774 18.7458 4.7514 18.1397C5.0014 16.4597 6.1114 15.2197 7.3214 15.1997L11.3214 13.4297M11.3214 11.4297C11.0425 11.4293 10.7666 11.4872 10.5114 11.5997L6.7214 13.2497C5.66221 13.5005 4.70998 14.081 4.0019 14.9077C3.29383 15.7344 2.86647 16.7645 2.7814 17.8497C2.61717 18.7705 2.70002 19.7184 3.02149 20.5967C3.34297 21.475 3.89158 22.2525 4.6114 22.8497L7.3014 26.2997C7.59989 26.6649 8.01783 26.9128 8.4814 26.9997L30.1814 31.4197C30.3146 31.4295 30.4482 31.4295 30.5814 31.4197C31.0493 31.4291 31.5057 31.2742 31.8711 30.9818C32.2366 30.6895 32.4879 30.2782 32.5814 29.8197L35.0014 18.0897C35.0539 17.8316 35.0548 17.5657 35.0042 17.3072C34.9537 17.0488 34.8525 16.8028 34.7067 16.5835C34.5608 16.3643 34.373 16.176 34.1542 16.0294C33.9353 15.8829 33.6897 15.781 33.4314 15.7297L11.7014 11.4397C11.5749 11.4303 11.4479 11.4303 11.3214 11.4397V11.4297Z" fill="#212C3A"/>
<path d="M11.0693 25.8999H10.6093C10.0541 25.8244 9.51999 25.6376 9.03884 25.3506C8.5577 25.0637 8.13947 24.6825 7.80925 24.2299C6.70686 22.6609 6.26512 20.7216 6.57925 18.8299C7.04925 15.4599 9.34925 12.9199 11.9293 12.9199H12.3893C12.944 12.9965 13.4778 13.1838 13.9588 13.4707C14.4398 13.7576 14.8582 14.1382 15.1893 14.5899C16.2973 16.1602 16.7394 18.1049 16.4193 19.9999C15.9993 23.3699 13.6493 25.8999 11.0693 25.8999Z" fill="white"/>
<path d="M11.9313 13.4006H12.3313C14.7713 13.6906 16.3313 16.6006 15.9213 19.9006C15.4913 23.0206 13.3713 25.3706 11.0713 25.3706C10.9381 25.3803 10.8044 25.3803 10.6713 25.3706C8.23128 25.0806 6.67128 22.1606 7.08128 18.8606C7.51128 15.7406 9.63128 13.3906 11.9313 13.3906M11.9313 12.3906C9.10128 12.3906 6.59128 15.1206 6.09128 18.7306C5.92289 19.7326 5.95368 20.758 6.18189 21.748C6.4101 22.7381 6.83126 23.6735 7.42128 24.5006C7.78939 25.0069 8.25675 25.4329 8.79488 25.7527C9.333 26.0725 9.93061 26.2793 10.5513 26.3606H11.0713C13.9013 26.3606 16.4113 23.6406 16.9113 20.0306C17.0802 19.0287 17.0497 18.0032 16.8215 17.013C16.5932 16.0229 16.1718 15.0875 15.5813 14.2606C15.2137 13.7529 14.7467 13.3253 14.2086 13.0038C13.6705 12.6823 13.0726 12.4737 12.4513 12.3906H11.9313Z" fill="#212C3A"/>
<path d="M14.0915 26.5208C13.9383 26.5307 13.7846 26.5307 13.6315 26.5208C13.076 26.4464 12.5414 26.2601 12.0601 25.973C11.5788 25.6859 11.1608 25.3042 10.8315 24.8508C10.2796 24.0767 9.88678 23.2009 9.67565 22.274C9.46453 21.3471 9.43931 20.3875 9.60145 19.4508C10.0615 16.0808 12.3615 13.5508 14.9415 13.5508H15.4015C15.9569 13.6251 16.4915 13.8115 16.9728 14.0986C17.4541 14.3856 17.8721 14.7674 18.2015 15.2208C18.7523 15.9954 19.1445 16.8712 19.3556 17.798C19.5667 18.7247 19.5925 19.684 19.4315 20.6208C19.0015 24.0008 16.6715 26.5208 14.0915 26.5208Z" fill="white"/>
<path d="M14.9411 13.9992C15.0742 13.9889 15.208 13.9889 15.3411 13.9992C17.7911 14.2892 19.4011 17.1992 18.9411 20.4992C18.5111 23.6692 16.3811 25.9992 14.0911 25.9992C13.958 26.0091 13.8242 26.0091 13.6911 25.9992C11.2511 25.7092 9.6911 22.7992 10.0911 19.4992C10.5311 16.3792 12.6511 14.0292 14.9411 14.0292M14.9411 13.0292C12.1111 13.0292 9.6011 15.7492 9.1011 19.3592C8.93413 20.3618 8.96654 21.3875 9.19648 22.3776C9.42641 23.3677 9.84936 24.3027 10.4411 25.1292C10.8095 25.6361 11.2768 26.0631 11.8147 26.3845C12.3527 26.7059 12.9501 26.915 13.5711 26.9992C13.7443 27.0091 13.9179 27.0091 14.0911 26.9992C16.9211 26.9992 19.4311 24.2692 19.9311 20.6592C20.0995 19.6572 20.0687 18.6318 19.8405 17.6418C19.6123 16.6517 19.1911 15.7163 18.6011 14.8892C18.2319 14.3817 17.7629 13.955 17.223 13.6352C16.6831 13.3154 16.0835 13.1091 15.4611 13.0292C15.2879 13.0189 15.1143 13.0189 14.9411 13.0292Z" fill="#212C3A"/>
<path d="M17.099 27.1293C16.9491 27.1392 16.7988 27.1392 16.649 27.1293C16.0935 27.0549 15.5589 26.8685 15.0776 26.5815C14.5963 26.2944 14.1783 25.9126 13.849 25.4593C13.2901 24.6771 12.8927 23.7914 12.6798 22.854C12.4669 21.9165 12.4428 20.9461 12.609 19.9993C13.079 16.6393 15.379 14.0993 17.959 14.0993C18.1121 14.0893 18.2658 14.0893 18.419 14.0993C18.9751 14.1713 19.5105 14.3567 19.9921 14.644C20.4737 14.9312 20.8912 15.3142 21.219 15.7693C22.3244 17.3369 22.7664 19.2775 22.449 21.1693C21.999 24.5893 19.689 27.1293 17.099 27.1293Z" fill="white"/>
<path d="M18.0013 14.6306H18.4013C20.8413 14.9206 22.4513 17.8406 22.0013 21.1406C21.5613 24.2606 19.4413 26.6106 17.1413 26.6106C17.0115 26.6205 16.8812 26.6205 16.7513 26.6106C14.3013 26.3206 12.6913 23.4106 13.1513 20.1106C13.5813 16.9906 15.7113 14.6406 18.0013 14.6406M18.0013 13.6406C15.1713 13.6406 12.6613 16.3606 12.1613 19.9706C11.8219 21.9974 12.3002 24.0761 13.4913 25.7506C13.8618 26.2568 14.3311 26.6826 14.8708 27.0023C15.4105 27.322 16.0094 27.5289 16.6313 27.6106C16.8012 27.6206 16.9715 27.6206 17.1413 27.6106C19.9813 27.6106 22.4913 24.8906 22.9913 21.2706C23.3274 19.2457 22.8454 17.1702 21.6513 15.5006C21.2828 14.9947 20.8153 14.569 20.2773 14.2493C19.7392 13.9296 19.1418 13.7225 18.5213 13.6406H18.0013Z" fill="#212C3A"/>
<path d="M20.1217 27.7392H19.6617C19.1003 27.6576 18.5618 27.4609 18.08 27.1615C17.5982 26.8621 17.1834 26.4664 16.8617 25.9992C15.7562 24.4316 15.3142 22.491 15.6317 20.5992C16.1017 17.2392 18.4017 14.6992 20.9817 14.6992H21.4417C21.9953 14.7749 22.528 14.9618 23.0075 15.2488C23.487 15.5359 23.9034 15.917 24.2317 16.3692C25.3446 17.9336 25.7907 19.876 25.4717 21.7692C25.0017 25.1992 22.7017 27.7392 20.1217 27.7392Z" fill="white"/>
<path d="M20.9999 15.2402H21.3999C23.8399 15.5402 25.4499 18.4502 24.9899 21.7502C24.5599 24.8702 22.4399 27.2202 20.1399 27.2202H19.7399C17.2999 26.9302 15.7399 24.0102 16.1499 20.7102C16.5799 17.5902 18.6999 15.2402 20.9999 15.2402ZM20.9999 14.2402C18.1699 14.2402 15.6599 16.9602 15.1599 20.5802C14.9893 21.5822 15.019 22.608 15.2473 23.5984C15.4756 24.5888 15.8979 25.5241 16.4899 26.3502C16.8584 26.8561 17.3259 27.2818 17.8639 27.6016C18.402 27.9213 18.9994 28.1284 19.6199 28.2102H20.1399C22.9699 28.2102 25.4799 25.4902 25.9799 21.8802C26.3194 19.8535 25.8411 17.7748 24.6499 16.1002C24.2794 15.5941 23.8101 15.1683 23.2704 14.8486C22.7308 14.5289 22.1318 14.3219 21.5099 14.2402H20.9999Z" fill="#212C3A"/>
<path d="M23.1411 28.349H22.6811C22.1257 28.2747 21.5911 28.0883 21.1098 27.8012C20.6285 27.5142 20.2105 27.1324 19.8811 26.679C19.3303 25.9044 18.938 25.0286 18.7269 24.1018C18.5158 23.1751 18.4901 22.2158 18.6511 21.279C19.1111 17.909 21.4111 15.369 23.9911 15.369C24.1443 15.3588 24.2979 15.3588 24.4511 15.369C25.0066 15.4434 25.5411 15.6297 26.0224 15.9168C26.5037 16.2039 26.9217 16.5856 27.2511 17.039C27.8029 17.8131 28.1958 18.6889 28.4069 19.6158C28.618 20.5427 28.6433 21.5023 28.4811 22.439C28.0011 25.819 25.7211 28.349 23.1411 28.349Z" fill="white"/>
<path d="M23.9998 15.8498C24.1329 15.8396 24.2667 15.8396 24.3998 15.8498C26.8398 16.1398 28.4498 19.0498 27.9998 22.3498C27.5698 25.4698 25.4398 27.8198 23.1498 27.8198C23.0167 27.8301 22.8829 27.8301 22.7498 27.8198C20.3098 27.5298 18.7498 24.6198 19.1498 21.3098C19.5798 18.1898 21.7098 15.8398 23.9998 15.8398M23.9998 14.8398C21.1698 14.8398 18.6598 17.5698 18.1598 21.1798C17.9859 22.1891 18.0131 23.2227 18.2396 24.2214C18.4661 25.2202 18.8876 26.1644 19.4798 26.9998C19.849 27.5073 20.318 27.934 20.8579 28.2538C21.3978 28.5736 21.9974 28.7799 22.6198 28.8598C22.793 28.8698 22.9666 28.8698 23.1398 28.8598C25.9698 28.8598 28.4798 26.1398 28.9798 22.5298C29.3154 20.5064 28.8373 18.4322 27.6498 16.7598C27.2811 16.251 26.8125 15.8227 26.2726 15.5012C25.7327 15.1796 25.1329 14.9716 24.5098 14.8898C24.3366 14.8796 24.163 14.8796 23.9898 14.8898L23.9998 14.8398Z" fill="#212C3A"/>
<path d="M26.1493 29C25.9994 29.0099 25.8491 29.0099 25.6993 29C25.1438 28.9256 24.6093 28.7393 24.128 28.4522C23.6467 28.1652 23.2287 27.7834 22.8993 27.33C21.7863 25.7656 21.3403 23.8232 21.6593 21.93C22.1293 18.5 24.4293 16 26.9993 16H27.4593C28.0144 16.0755 28.5485 16.2623 29.0297 16.5493C29.5108 16.8362 29.929 17.2174 30.2593 17.67C31.3637 19.2381 31.8056 21.1783 31.4893 23.07C30.9993 26.43 28.7393 29 26.1493 29Z" fill="white"/>
<path d="M26.9982 16.4705C27.1314 16.4608 27.2651 16.4608 27.3982 16.4705C29.8382 16.7605 31.4482 19.6705 30.9882 22.9805C30.5582 26.1005 28.4382 28.4505 26.1382 28.4505C26.0084 28.4604 25.878 28.4604 25.7482 28.4505C23.2982 28.1605 21.6882 25.2505 22.1482 21.9505C22.5782 18.8305 24.7082 16.4805 26.9982 16.4805M26.9982 15.4805C24.1682 15.4805 21.6582 18.2005 21.1582 21.8105C20.9893 22.8124 21.0198 23.8379 21.248 24.8281C21.4763 25.8182 21.8977 26.7536 22.4882 27.5805C22.8569 28.0893 23.3256 28.5176 23.8655 28.8392C24.4054 29.1607 25.0052 29.3687 25.6282 29.4505C25.7981 29.4604 25.9684 29.4604 26.1382 29.4505C28.9682 29.4505 31.4882 26.7205 31.9782 23.1105C32.1488 22.1085 32.1192 21.0827 31.8909 20.0923C31.6626 19.1019 31.2402 18.1666 30.6482 17.3405C30.281 16.8333 29.8138 16.4067 29.2755 16.0868C28.7373 15.767 28.1392 15.5606 27.5182 15.4805H26.9982Z" fill="#212C3A"/>
<path d="M29.1685 29.581H28.7085C28.1534 29.5055 27.6193 29.3187 27.1381 29.0317C26.657 28.7447 26.2387 28.3635 25.9085 27.911C24.8031 26.3433 24.3611 24.4027 24.6785 22.511C25.1485 19.151 27.4385 16.611 30.0285 16.611C30.1784 16.601 30.3287 16.601 30.4785 16.611C31.0346 16.6831 31.57 16.8685 32.0517 17.1557C32.5333 17.4429 32.9508 17.8259 33.2785 18.281C34.3915 19.8454 34.8375 21.7878 34.5185 23.681C34.0485 27.001 31.7485 29.581 29.1685 29.581Z" fill="white"/>
<path d="M30.0016 17.0801H30.3916C32.8416 17.3701 34.4516 20.2901 33.9916 23.5901C33.5616 26.7101 31.4316 29.0601 29.1416 29.0601H28.7416C26.3016 28.7601 24.6916 25.8501 25.1516 22.5501C25.5816 19.4301 27.7016 17.0801 30.0016 17.0801ZM30.0016 16.0801C27.1716 16.0801 24.6516 18.8001 24.1516 22.4101C23.815 24.4382 24.297 26.517 25.4916 28.1901C25.8602 28.696 26.3276 29.1217 26.8657 29.4414C27.4037 29.7612 28.0011 29.9682 28.6216 30.0501H29.1416C31.9716 30.0501 34.4816 27.3301 34.9816 23.7101C35.3139 21.7099 34.8471 19.6593 33.6816 18.0001C33.3111 17.4939 32.8419 17.0681 32.3022 16.7484C31.7625 16.4287 31.1636 16.2218 30.5416 16.1401C30.3718 16.1301 30.2015 16.1301 30.0316 16.1401L30.0016 16.0801Z" fill="#212C3A"/>
<path d="M33.8992 36.6803C33.3856 36.68 32.8732 36.6297 32.3692 36.5303C31.2651 36.2892 30.2208 35.8286 29.2982 35.1758C28.3757 34.523 27.5939 33.6913 26.9992 32.7303C25.0549 29.5343 24.4444 25.7023 25.2992 22.0603C26.5992 15.8403 31.1392 11.3203 36.0992 11.3203C36.6129 11.3202 37.1253 11.3704 37.6292 11.4703C38.7074 11.6941 39.7289 12.1348 40.6314 12.7657C41.5339 13.3967 42.2987 14.2046 42.8792 15.1403C44.8328 18.3816 45.4259 22.2636 44.5292 25.9403C43.1792 32.1603 38.7292 36.6803 33.8992 36.6803Z" fill="white"/>
<path d="M36.051 12.3203C36.5009 12.3189 36.9498 12.3625 37.391 12.4503C42.2211 13.4503 44.831 19.3603 43.501 25.7403C42.291 31.5303 38.2511 35.6803 33.9011 35.6803C33.4545 35.6817 33.0089 35.6381 32.571 35.5503C27.741 34.5503 24.901 28.6403 26.231 22.2603C27.441 16.4703 31.671 12.3203 36.051 12.3203ZM36.051 10.3203C30.621 10.3203 25.6711 15.1703 24.2711 21.8503C23.3578 25.7553 24.0226 29.8628 26.1211 33.2803C26.7991 34.353 27.6842 35.2796 28.7248 36.006C29.7654 36.7323 30.9404 37.2437 32.1811 37.5103C32.7476 37.622 33.3236 37.679 33.9011 37.6803C39.2011 37.6803 44.061 32.8303 45.461 26.1503C46.4086 22.2083 45.7655 18.0517 43.671 14.5803C42.8667 13.282 41.7452 12.2098 40.4121 11.4645C39.0791 10.7193 37.5783 10.3255 36.051 10.3203Z" fill="#212C3A"/>
<path d="M43.7119 26.0696C42.8662 26.301 42.147 26.8585 41.7119 27.6196C40.9222 28.8878 40.2526 30.2269 39.7119 31.6196L37.7919 31.9096C38.0819 31.3696 38.9219 28.7796 38.0419 27.7296C37.1619 26.6796 33.9219 26.5996 33.9219 26.5996L34.0819 24.1096C34.0819 24.1096 37.5419 24.0296 38.3319 22.9796C39.1219 21.9296 38.8119 19.5296 38.4819 18.3496L40.2919 18.0996C40.2919 18.0996 41.3819 22.2496 41.9219 22.6596C42.2045 22.9183 42.5421 23.1094 42.9094 23.2185C43.2766 23.3277 43.6639 23.352 44.0419 23.2896L43.7119 26.0696Z" fill="#212C3A"/>
</svg>
