<svg width="48" height="48" viewBox="0 0 48 48" fill="none" xmlns="http://www.w3.org/2000/svg">
<path d="M24.0585 30.1299C23.9856 30.1403 23.9115 30.1403 23.8385 30.1299L12.6085 27.5999C9.53854 26.7199 7.73854 23.3199 8.16854 19.3099C8.59854 15.2999 11.2685 12.1699 14.3685 12.1699C14.5785 12.1699 14.7785 12.1699 14.9885 12.1699L32.8685 15.8999C33.0313 15.933 33.1833 16.0061 33.3107 16.1126C33.4382 16.2191 33.5371 16.3556 33.5985 16.5099C33.6578 16.6643 33.6779 16.831 33.657 16.995C33.636 17.1591 33.5747 17.3154 33.4785 17.4499L24.8685 29.6999C24.7776 29.831 24.6567 29.9384 24.5157 30.0132C24.3748 30.0881 24.2181 30.1281 24.0585 30.1299Z" fill="white"/>
<path d="M14.37 13.1699H14.87L32.67 16.8899L24.06 29.1299L12.83 26.6199C10.09 25.8399 8.82995 22.6199 9.16995 19.4199C9.52995 16.0099 11.68 13.1699 14.37 13.1699ZM14.37 11.1699C10.76 11.1699 7.66995 14.6199 7.17995 19.1699C6.68995 23.7199 8.78995 27.5199 12.28 28.5199H12.39L23.62 31.0199C23.7646 31.0513 23.912 31.0681 24.06 31.0699C24.3798 31.0689 24.6948 30.9912 24.9784 30.8433C25.262 30.6954 25.506 30.4816 25.69 30.2199L34.3 18.0699C34.482 17.8001 34.5954 17.4899 34.6304 17.1662C34.6654 16.8426 34.6208 16.5153 34.5006 16.2128C34.3804 15.9103 34.1881 15.6417 33.9406 15.4303C33.693 15.2189 33.3976 15.0712 33.08 14.9999L15.27 11.2499H15.12C14.8712 11.2183 14.6207 11.2016 14.37 11.1999V11.1699Z" fill="#212C3A"/>
<path d="M35.9214 36.4492C35.8351 36.4595 35.7478 36.4595 35.6614 36.4492L30.4214 34.9991C30.2809 34.963 30.1508 34.8945 30.0414 34.7991L24.3214 29.9991C24.1949 29.8928 24.0967 29.7568 24.0356 29.6032C23.9746 29.4496 23.9525 29.2833 23.9714 29.1192L25.1214 18.6391C25.1561 18.3772 25.2882 18.138 25.4914 17.9691L32.1614 12.5891C32.34 12.4458 32.5624 12.3682 32.7914 12.3691H33.0114L38.2514 13.5192C39.6214 13.8992 42.9914 17.0092 44.3714 18.3391C44.5278 18.4856 44.6329 18.6784 44.6714 18.8891C45.4078 22.7313 45.0616 26.7024 43.6714 30.3591L43.5814 30.5191C41.8414 33.0492 36.6814 36.1291 36.4614 36.2591C36.3038 36.3737 36.1161 36.4398 35.9214 36.4492Z" fill="white"/>
<path d="M32.7906 13.3906L38.0006 14.5506C39.2306 14.8906 43.6506 19.1106 43.6506 19.1106C44.3249 22.7635 43.9789 26.5316 42.6506 30.0006C41.0106 32.3806 35.8406 35.4506 35.8406 35.4506L30.6806 34.0006L25.0006 29.2506L26.1606 18.7706L32.8306 13.3906M32.8306 11.3906C32.3735 11.3942 31.9305 11.5489 31.5706 11.8306L24.9006 17.2106C24.4897 17.5433 24.2272 18.025 24.1706 18.5506L23.0006 29.0006C22.9639 29.3298 23.0096 29.663 23.1335 29.9702C23.2574 30.2774 23.4557 30.549 23.7106 30.7606L29.4306 35.5206C29.649 35.7062 29.9048 35.8426 30.1806 35.9206L35.4206 37.3406C35.5928 37.391 35.7711 37.4179 35.9506 37.4206C36.3027 37.417 36.6477 37.3204 36.9506 37.1406C37.5206 36.8006 42.5606 33.7706 44.3906 31.1406C44.4531 31.0441 44.5099 30.9439 44.5606 30.8406C46.0362 26.9999 46.417 22.825 45.6606 18.7806C45.5883 18.3568 45.3814 17.9676 45.0706 17.6706C41.8906 14.6706 39.7106 12.9506 38.5806 12.6706H38.4706L33.2306 11.5106C33.0876 11.4959 32.9435 11.4959 32.8006 11.5106L32.8306 11.3906Z" fill="#212C3A"/>
<path d="M19.8916 29.1495C19.066 29.107 18.2659 28.8483 17.5716 28.3995C17.3463 28.431 17.1191 28.4477 16.8916 28.4495H16.6816C15.8579 28.405 15.0608 28.1428 14.3716 27.6895C14.1471 27.7288 13.9196 27.7489 13.6916 27.7495H13.4716C12.8045 27.7098 12.1525 27.5341 11.5557 27.2332C10.959 26.9322 10.4301 26.5124 10.0016 25.9995C9.28747 25.12 8.75454 24.1079 8.43358 23.0215C8.11262 21.935 8.01 20.7958 8.13163 19.6695C8.44163 15.4795 11.1816 12.1895 14.3716 12.1895H14.5916C15.4165 12.2365 16.2153 12.4948 16.9116 12.9395C17.137 12.9079 17.3641 12.8912 17.5916 12.8895H17.8016C18.6281 12.9354 19.4281 13.1975 20.1216 13.6495C20.346 13.6092 20.5736 13.5891 20.8016 13.5895H21.0016C21.6713 13.629 22.3257 13.8056 22.9243 14.1083C23.5229 14.4111 24.0529 14.8335 24.4816 15.3495C25.1975 16.2281 25.7323 17.2399 26.055 18.3264C26.3776 19.4128 26.4819 20.5525 26.3616 21.6795C26.0416 25.8695 23.3016 29.1595 20.1116 29.1595L19.8916 29.1495Z" fill="white"/>
<path d="M14.3589 13.1602H14.5289C15.3116 13.1974 16.0617 13.4848 16.6689 13.9802C16.9656 13.9004 17.2716 13.86 17.5789 13.8602H17.7389C18.5212 13.8994 19.2706 14.1866 19.8789 14.6802C20.1766 14.6054 20.4819 14.5651 20.7889 14.5602H20.9989C23.7089 14.6902 25.6889 17.8302 25.4089 21.5602C25.1289 25.2902 22.7989 28.1102 20.1589 28.1102H19.9889C19.2066 28.0709 18.4571 27.7837 17.8489 27.2902C17.5521 27.3699 17.2462 27.4103 16.9389 27.4102H16.7789C15.9966 27.3709 15.2471 27.0837 14.6389 26.5902C14.3446 26.6651 14.0425 26.7053 13.7389 26.7102H13.5689C10.8589 26.5802 8.87887 23.4402 9.15887 19.7102C9.43887 15.9802 11.7689 13.1602 14.4089 13.1602M14.4089 11.1602C10.6989 11.1602 7.51887 14.8502 7.16887 19.5602C7.0375 20.8218 7.15719 22.097 7.52105 23.3121C7.88491 24.5273 8.48573 25.6583 9.28887 26.6402C9.81152 27.2516 10.4518 27.7517 11.1716 28.1108C11.8914 28.4698 12.676 28.6804 13.4789 28.7302H13.7389H14.1889C14.9528 29.1575 15.8047 29.4039 16.6789 29.4502H16.9389H17.3989C18.1623 29.8789 19.0145 30.1253 19.8889 30.1702H20.1589C23.8689 30.1702 27.0489 26.4802 27.3989 21.7702C27.5302 20.5085 27.4105 19.2334 27.0467 18.0182C26.6828 16.8031 26.082 15.672 25.2789 14.6902C24.7574 14.0799 24.1187 13.5805 23.4007 13.2215C22.6827 12.8625 21.9 12.6512 21.0989 12.6002H20.8389H20.3789C19.6149 12.1728 18.763 11.9265 17.8889 11.8802H17.6289H17.1689C16.4055 11.4515 15.5533 11.205 14.6789 11.1602H14.4089Z" fill="#212C3A"/>
<path d="M20.5887 26.8798C20.5224 26.8896 20.455 26.8896 20.3887 26.8798L5.99866 23.9998H5.82866C5.41789 23.8618 5.04001 23.6405 4.71866 23.3498C4.07801 22.6985 3.59455 21.9095 3.30513 21.043C3.01572 20.1765 2.928 19.2553 3.04866 18.3498C3.24866 15.3498 4.94866 13.1298 7.04866 13.0098H7.32866H7.49866L22.4987 16.0098C22.6277 16.0343 22.7506 16.084 22.8604 16.1561C22.9702 16.2282 23.0648 16.3212 23.1387 16.4298C23.2129 16.5401 23.2645 16.6642 23.2902 16.7947C23.316 16.9252 23.3155 17.0595 23.2887 17.1898L21.4687 26.1898C21.4074 26.3794 21.2909 26.5463 21.1341 26.6693C20.9773 26.7922 20.7874 26.8655 20.5887 26.8798Z" fill="white"/>
<path d="M7.3802 13.8899L22.3802 16.8899L20.5602 25.8899L6.1902 22.9999C5.90917 22.9026 5.65067 22.7495 5.4302 22.5499C4.90548 21.9936 4.5126 21.3263 4.28065 20.5976C4.0487 19.8688 3.98361 19.0972 4.0902 18.3399C4.2602 15.9299 5.5902 14.0099 7.1802 13.9199H7.4002M7.4002 11.9199H6.9702C4.3802 12.1299 2.3402 14.7499 2.1002 18.1999C1.96341 19.2631 2.07261 20.3434 2.41937 21.3577C2.76612 22.372 3.34118 23.293 4.1002 24.0499C4.51187 24.4282 4.99934 24.7146 5.5302 24.8899C5.64079 24.9271 5.75462 24.9539 5.8702 24.9699L20.1802 27.8499C20.3132 27.8642 20.4473 27.8642 20.5802 27.8499C21.0481 27.8594 21.5045 27.7044 21.8699 27.4121C22.2354 27.1197 22.4867 26.7085 22.5802 26.2499L24.4002 17.2499C24.4738 16.7411 24.3486 16.2235 24.0507 15.8046C23.7528 15.3856 23.305 15.0974 22.8002 14.9999L7.8002 11.9999C7.67062 11.9851 7.53978 11.9851 7.4102 11.9999L7.4002 11.9199Z" fill="#212C3A"/>
<path d="M13.4716 27.7295C12.806 27.6923 12.1549 27.5197 11.5582 27.2223C10.9616 26.9248 10.4319 26.5087 10.0016 25.9995C9.28747 25.12 8.75454 24.1079 8.43358 23.0215C8.11262 21.935 8.01 20.7958 8.13163 19.6695C8.44163 15.4795 11.1816 12.1895 14.3716 12.1895H14.5916C15.261 12.2322 15.9149 12.4091 16.5145 12.7097C17.1141 13.0104 17.647 13.4286 18.0816 13.9395C19.5187 15.7224 20.1911 18.002 19.9516 20.2795C19.6416 24.4695 16.8916 27.7595 13.7116 27.7595L13.4716 27.7295Z" fill="white"/>
<path d="M14.3581 13.1599H14.5281C17.2481 13.2899 19.2181 16.4299 18.9381 20.1599C18.6581 23.8899 16.3381 26.7199 13.6981 26.7199H13.5181C10.8081 26.5899 8.82809 23.4499 9.10809 19.7199C9.38809 15.9899 11.7181 13.1699 14.3581 13.1699M14.3581 11.1699C10.6481 11.1699 7.46809 14.8599 7.11809 19.5699C6.98671 20.8316 7.10641 22.1067 7.47027 23.3219C7.83412 24.537 8.43495 25.6681 9.23809 26.6499C9.76074 27.2614 10.401 27.7615 11.1208 28.1205C11.8406 28.4796 12.6252 28.6902 13.4281 28.7399H13.6981C17.4081 28.7399 20.5881 25.0399 20.9381 20.3299C21.0673 19.0692 20.9456 17.7954 20.58 16.5819C20.2144 15.3685 19.6122 14.2394 18.8081 13.2599C18.2866 12.6496 17.6479 12.1502 16.9299 11.7912C16.2119 11.4322 15.4292 11.221 14.6281 11.1699H14.3581Z" fill="#212C3A"/>
<path d="M16.7109 27.9396C16.1063 27.905 15.5153 27.7458 14.975 27.4722C14.4347 27.1987 13.9567 26.8165 13.5709 26.3496C12.2174 24.6596 11.5882 22.5023 11.8209 20.3496C12.1209 16.4096 14.6409 13.3496 17.5709 13.3496H17.7709C18.3787 13.3918 18.971 13.5604 19.5099 13.8445C20.0489 14.1286 20.5226 14.522 20.9009 14.9996C22.2544 16.6896 22.8836 18.8469 22.6509 20.9996C22.3609 24.9396 19.8309 27.9996 16.9009 27.9996L16.7109 27.9396Z" fill="white"/>
<path d="M17.5719 13.8691H17.7419C20.4619 13.9991 22.4319 17.1391 22.1519 20.8691C21.8719 24.5991 19.5519 27.4191 16.9019 27.4191H16.7319C14.0219 27.2891 12.0419 24.1491 12.3219 20.4191C12.6019 16.6891 14.9219 13.8691 17.5719 13.8691ZM17.5719 12.8691C14.3819 12.8691 11.6419 16.1591 11.3219 20.3491C11.2016 21.4761 11.3058 22.6158 11.6285 23.7022C11.9512 24.7887 12.4859 25.8005 13.2019 26.6791C13.6302 27.1955 14.1601 27.6183 14.7588 27.9211C15.3575 28.2238 16.0121 28.4002 16.6819 28.4391H16.9019C20.0919 28.4391 22.8419 25.1491 23.1519 20.9591C23.2721 19.8322 23.1679 18.6925 22.8452 17.606C22.5225 16.5196 21.9878 15.5078 21.2719 14.6291C20.8436 14.1127 20.3136 13.69 19.7149 13.3872C19.1162 13.0844 18.4616 12.9081 17.7919 12.8691H17.5719Z" fill="#212C3A"/>
<path d="M19.9118 28.6505C19.3087 28.6157 18.7192 28.4565 18.1806 28.1829C17.6419 27.9092 17.1657 27.5271 16.7818 27.0605C15.4283 25.3705 14.7991 23.2132 15.0318 21.0605C15.3218 17.1305 17.8518 14.0605 20.7818 14.0605H21.0018C21.6056 14.0993 22.1952 14.2602 22.7349 14.5335C23.2747 14.8068 23.7533 15.1868 24.1418 15.6505C25.4954 17.3406 26.1246 19.4978 25.8918 21.6505C25.5918 25.5905 23.0718 28.6505 20.1418 28.6505H19.9118Z" fill="white"/>
<path d="M20.7791 14.5803H20.9991C23.7091 14.7103 25.6891 17.8503 25.4091 21.5803C25.1291 25.3103 22.7991 28.1303 20.1591 28.1303H19.9891C17.2691 28.0003 15.2991 24.8603 15.5791 21.1303C15.8591 17.4003 18.1791 14.5703 20.8291 14.5703M20.8291 13.5703C17.6391 13.5703 14.8891 16.8603 14.5791 21.0503C14.4597 22.1788 14.5643 23.3198 14.8869 24.4078C15.2096 25.4957 15.7438 26.5093 16.4591 27.3903C16.8891 27.904 17.4196 28.3242 18.0181 28.6252C18.6166 28.9261 19.2703 29.1014 19.9391 29.1403H20.1591C23.3491 29.1403 26.0891 25.8503 26.4091 21.6603C26.5293 20.5333 26.4251 19.3937 26.1024 18.3072C25.7797 17.2207 25.245 16.209 24.5291 15.3303C24.0929 14.812 23.554 14.3898 22.9464 14.0903C22.3389 13.7909 21.6758 13.6206 20.9991 13.5903L20.8291 13.5703Z" fill="#212C3A"/>
<path d="M29.571 37.3803C28.9493 37.3779 28.3307 37.2938 27.731 37.1303L25.001 36.2803C19.861 34.8603 17.231 27.6103 19.161 20.1103C20.841 13.5703 25.501 8.82031 30.231 8.82031C30.8554 8.81997 31.4773 8.90065 32.081 9.06031L34.801 9.91031C39.951 11.3203 42.581 18.5803 40.651 26.0803C39.001 32.6203 34.301 37.3803 29.571 37.3803Z" fill="white"/>
<path d="M30.2297 9.8193C30.7633 9.81954 31.2945 9.89015 31.8097 10.0293L34.5097 10.8593C39.1697 12.1393 41.5097 18.8593 39.6797 25.8593C38.0797 32.0593 33.7797 36.3993 29.5697 36.3993C29.0377 36.3934 28.5092 36.3126 27.9997 36.1593L25.2897 35.3193C20.6397 34.0393 18.2897 27.3193 20.1297 20.3193C21.7297 14.1193 26.0297 9.7793 30.2397 9.7793M30.2397 7.7793C25.0597 7.7793 19.9897 12.8393 18.2397 19.7793C16.0897 27.9993 18.9997 35.6293 24.7197 37.2393L27.4597 38.0893C28.1472 38.2769 28.857 38.3711 29.5697 38.3693C34.7497 38.3693 39.8197 33.3093 41.5697 26.3693C43.6697 18.2193 40.7897 10.5893 35.0197 8.9793L34.3197 8.7693L32.3197 8.1393C31.6321 7.95169 30.9224 7.85751 30.2097 7.8593L30.2397 7.7793Z" fill="#212C3A"/>
<path d="M32.9297 10.6494C33.4633 10.6497 33.9946 10.7203 34.5097 10.8594C39.1697 12.1394 41.5097 18.8594 39.6797 25.8594C38.0797 32.0594 33.7797 36.4094 29.5697 36.4094C29.0373 36.4 28.5088 36.3158 27.9997 36.1594C23.3397 34.8794 20.9997 28.1594 22.8297 21.1594C24.4297 14.9594 28.7297 10.6094 32.9397 10.6094M32.9397 9.6094C28.2097 9.6094 23.5497 14.3594 21.8597 20.9094C19.9297 28.4094 22.5597 35.6694 27.7397 37.0894C28.3395 37.2529 28.9581 37.337 29.5797 37.3394C34.3097 37.3394 38.9697 32.5794 40.6597 26.0394C42.5897 18.5394 39.9597 11.2794 34.7797 9.8594C34.1808 9.6917 33.5617 9.60757 32.9397 9.6094Z" fill="#212C3A"/>
<path d="M35.919 36.0006H35.789L30.549 34.5006C30.4792 34.4814 30.4143 34.4473 30.359 34.4006L24.639 29.6306C24.5763 29.579 24.5272 29.5128 24.4958 29.4379C24.4644 29.363 24.4518 29.2815 24.459 29.2006L25.619 18.7106C25.627 18.6457 25.648 18.5831 25.6806 18.5264C25.7133 18.4697 25.7569 18.4202 25.809 18.3806L32.479 13.0006C32.5673 12.9307 32.6763 12.892 32.789 12.8906H32.899L38.139 14.0506C39.249 14.3606 42.139 16.9606 43.759 18.4906C44.0103 18.7268 44.1757 19.0399 44.229 19.3806C44.8258 22.9672 44.4812 26.6472 43.229 30.0606C43.1867 30.1763 43.1259 30.2844 43.049 30.3806C41.299 32.8106 36.369 35.7406 36.169 35.8706C36.0974 35.9335 36.0116 35.9781 35.919 36.0006Z" fill="white"/>
<path d="M32.7888 13.3906L37.9988 14.5506C38.9988 14.8406 42.4288 17.9606 43.3888 18.8606C43.558 19.0245 43.6702 19.2383 43.7088 19.4706C44.2856 22.9686 43.941 26.5565 42.7088 29.8806C42.6791 29.9612 42.635 30.0358 42.5788 30.1006C40.8788 32.4706 35.8488 35.4506 35.8488 35.4506L30.6788 34.0006L24.9988 29.2506L26.1588 18.7706L32.8288 13.3906M32.8288 12.3906C32.5998 12.3897 32.3774 12.4673 32.1988 12.6106L25.4888 18.0006C25.2852 18.1678 25.1558 18.4086 25.1288 18.6706L23.9988 29.1406C23.9798 29.3048 24.0019 29.4711 24.063 29.6247C24.1241 29.7783 24.2222 29.9143 24.3488 30.0206L29.9988 34.7806C30.1081 34.876 30.2382 34.9445 30.3788 34.9806L35.6188 36.4106C35.7051 36.421 35.7924 36.421 35.8788 36.4106C36.0582 36.4106 36.2344 36.3622 36.3888 36.2706C36.5988 36.1406 41.6188 33.1606 43.3888 30.6506C43.479 30.515 43.556 30.371 43.6188 30.2206C44.8965 26.7227 45.2412 22.9523 44.6188 19.2806C44.5486 18.8295 44.3305 18.4144 43.9988 18.1006C40.9988 15.3306 39.0888 13.8006 38.1888 13.5506L32.9988 12.4206H32.7788L32.8288 12.3906Z" fill="#212C3A"/>
<path d="M38 14.5391C35.7851 16.4669 33.3832 18.1687 30.83 19.6191C30.6486 23.2664 30.2041 26.8958 29.5 30.4791C31.66 32.0491 33.58 33.5891 35.92 35.4791" stroke="#212C3A" stroke-linecap="round" stroke-linejoin="round"/>
<path d="M31.1905 19.8107L25.7305 18.7207" stroke="#212C3A" stroke-miterlimit="10"/>
<path d="M29.8211 30.3498L24.3711 29.2598" stroke="#212C3A" stroke-miterlimit="10"/>
</svg>
