<svg width="48" height="48" viewBox="0 0 48 48" fill="none" xmlns="http://www.w3.org/2000/svg">
<path d="M32.0886 28C32.0222 28.0094 31.9549 28.0094 31.8885 28L17.8286 25.15C17.0609 25.8014 16.0853 26.1562 15.0786 26.15C14.8438 26.1524 14.6094 26.1323 14.3786 26.09L7.30855 24.49C6.23883 24.3691 5.25894 23.8343 4.57855 23C3.45665 21.5881 2.92932 19.7944 3.10855 18C3.36855 14.64 5.58855 12 8.17855 12H8.35855C8.72496 12.0209 9.08592 12.0985 9.42855 12.23L16.9386 13.82C17.0369 13.8423 17.1313 13.8794 17.2185 13.93C18.1916 14.4218 18.9728 15.2242 19.4386 16.21L33.6986 19.1C33.9583 19.1579 34.1868 19.3114 34.3386 19.53C34.4825 19.7517 34.5328 20.0213 34.4785 20.28L33.0686 27.28C33.044 27.409 32.9943 27.532 32.9222 27.6418C32.8501 27.7516 32.7572 27.8461 32.6486 27.92C32.4735 28 32.279 28.0278 32.0886 28Z" fill="white"/>
<path d="M8.17923 13H8.30923C8.6003 13.0216 8.88665 13.0857 9.15923 13.19L16.7292 14.8C17.2027 15.0105 17.6228 15.3247 17.9586 15.7193C18.2944 16.114 18.5372 16.579 18.6692 17.08L33.4992 20.08L32.0892 27.08L17.4992 24.08C17.2017 24.4295 16.8303 24.7086 16.4118 24.8971C15.9933 25.0856 15.5381 25.1788 15.0792 25.17C14.9129 25.1849 14.7456 25.1849 14.5792 25.17L7.45923 23.5C5.38923 23.35 3.89923 20.94 4.10923 18.07C4.31923 15.2 6.12923 13 8.17923 13ZM8.17923 11C5.06923 11 2.40923 14 2.11923 17.93C1.90766 19.9926 2.51857 22.0553 3.81923 23.67C4.66008 24.6731 5.85013 25.32 7.14923 25.48L14.1492 27.06C14.4588 27.1213 14.7737 27.1515 15.0892 27.15C16.1619 27.1613 17.2111 26.836 18.0892 26.22L31.6992 29C31.8288 29.0148 31.9597 29.0148 32.0892 29C32.4837 29.0019 32.8699 28.8871 33.1992 28.67C33.6395 28.3759 33.9452 27.9192 34.0492 27.4L35.4592 20.45C35.5649 19.9313 35.4606 19.3919 35.1692 18.95C35.0245 18.7301 34.8379 18.541 34.6199 18.3934C34.402 18.2458 34.1571 18.1427 33.8992 18.09L20.1092 15.33C19.5323 14.3653 18.7023 13.5768 17.7092 13.05C17.5321 12.9567 17.344 12.8862 17.1492 12.84L9.69923 11.26C9.28391 11.112 8.84947 11.0244 8.40923 11H8.17923Z" fill="#212C3A"/>
<path d="M7.49973 23.9998C7.02037 23.9703 6.55188 23.8444 6.12231 23.6296C5.69275 23.4148 5.31093 23.1156 4.99973 22.7498C4.4706 22.0961 4.0755 21.3446 3.83699 20.5381C3.59848 19.7316 3.52126 18.8861 3.60973 18.0498C3.83973 14.9398 5.84973 12.5098 8.17973 12.5098H8.32973C8.81231 12.5404 9.28363 12.6688 9.71509 12.8871C10.1466 13.1054 10.5292 13.4091 10.8397 13.7798C11.369 14.4331 11.7635 15.1848 12.0004 15.9916C12.2372 16.7983 12.3118 17.644 12.2197 18.4798C11.9997 21.5898 9.99973 23.9998 7.65973 23.9998H7.49973Z" fill="white"/>
<path d="M8.18 13H8.31C10.41 13.1 11.94 15.54 11.73 18.44C11.52 21.34 9.73 23.51 7.66 23.51H7.53C5.42 23.42 3.9 21 4.11 18.08C4.32 15.16 6.13 13 8.18 13ZM8.18 12C5.59 12 3.37 14.63 3.11 18C2.92422 19.8231 3.46703 21.6456 4.62 23.07C4.97182 23.4941 5.40747 23.8409 5.89962 24.0887C6.39177 24.3365 6.92981 24.4799 7.48 24.51H7.66C10.25 24.51 12.47 21.88 12.72 18.51C12.817 17.607 12.7334 16.6938 12.4742 15.8234C12.2149 14.953 11.7852 14.1428 11.21 13.44C10.8593 13.0171 10.4253 12.671 9.93492 12.4233C9.44458 12.1755 8.90847 12.0314 8.36 12H8.18Z" fill="#212C3A"/>
<path d="M10.0011 24.5705C9.51709 24.5401 9.04424 24.4118 8.61113 24.1935C8.17801 23.9753 7.79362 23.6715 7.48114 23.3005C6.95138 22.6475 6.5566 21.8958 6.3197 21.089C6.08281 20.2821 6.00852 19.4363 6.10114 18.6005C6.33114 15.4905 8.33114 13.0605 10.6611 13.0605H10.8211C11.302 13.0925 11.7714 13.2216 12.2011 13.4398C12.6307 13.6581 13.0117 13.9611 13.3211 14.3305C14.3841 15.642 14.8839 17.3213 14.7111 19.0005C14.4811 22.1005 12.4711 24.5305 10.1511 24.5305L10.0011 24.5705Z" fill="white"/>
<path d="M10.6599 13.5605H10.7899C12.8999 13.6605 14.4299 16.1005 14.2099 19.0005C13.9899 21.9005 12.2099 24.0705 10.1499 24.0705H9.99994C7.89994 23.9705 6.36994 21.5405 6.58994 18.6305C6.80994 15.7205 8.58994 13.5605 10.6499 13.5605M10.6499 12.5605C8.05994 12.5605 5.83994 15.2005 5.58994 18.5605C5.49297 19.4635 5.57653 20.3768 5.83576 21.2472C6.095 22.1176 6.52472 22.9278 7.09994 23.6305C7.45626 24.0594 7.89831 24.4091 8.39772 24.6571C8.89714 24.9051 9.44289 25.0459 9.99994 25.0705H10.1899C12.7699 25.0705 14.9999 22.4405 15.2499 19.0705C15.4246 17.242 14.8672 15.4188 13.6999 14.0005C13.345 13.5801 12.9086 13.2357 12.4171 12.9883C11.9256 12.7408 11.3891 12.5953 10.8399 12.5605H10.6499Z" fill="#212C3A"/>
<path d="M12.4717 25.1194C11.9951 25.0874 11.5301 24.9583 11.1053 24.7399C10.6805 24.5215 10.3049 24.2184 10.0017 23.8494C9.47015 23.1971 9.07356 22.4457 8.83494 21.6389C8.59632 20.832 8.52042 19.9858 8.61167 19.1494C8.84167 16.0394 10.8517 13.6094 13.1717 13.6094H13.3317C13.814 13.6412 14.2849 13.7701 14.7162 13.9883C15.1475 14.2065 15.5303 14.5096 15.8417 14.8794C16.9073 16.2046 17.4036 17.8986 17.2217 19.5894C16.9917 22.6894 14.9917 25.1194 12.6617 25.1194H12.4717Z" fill="white"/>
<path d="M13.1387 14.1094H13.2787C15.3787 14.2094 16.9087 16.6494 16.6887 19.5494C16.4687 22.4494 14.6887 24.6194 12.6287 24.6194H12.4887C10.3887 24.5194 8.85875 22.0894 9.07875 19.1894C9.29875 16.2894 11.0787 14.1094 13.1387 14.1094ZM13.1387 13.1094C10.5587 13.1094 8.32875 15.7494 8.07875 19.1094C7.89297 20.9325 8.43578 22.755 9.58875 24.1794C9.94057 24.6034 10.3762 24.9502 10.8684 25.198C11.3605 25.4458 11.8986 25.5893 12.4487 25.6194H12.6287C15.2187 25.6194 17.4387 22.9894 17.6887 19.6194C17.7857 18.7164 17.7022 17.8031 17.4429 16.9327C17.1837 16.0623 16.754 15.2522 16.1787 14.5494C15.8271 14.1283 15.3927 13.7841 14.9024 13.5381C14.4121 13.2921 13.8765 13.1496 13.3287 13.1194L13.1387 13.1094Z" fill="#212C3A"/>
<path d="M15.0007 25.6702C14.5189 25.6422 14.0482 25.515 13.6179 25.2965C13.1877 25.0779 12.8073 24.7727 12.5007 24.4002C11.9709 23.7471 11.5761 22.9954 11.3392 22.1886C11.1023 21.3818 11.028 20.5359 11.1207 19.7002C11.3507 16.5902 13.3507 14.1602 15.6807 14.1602H15.8407C16.3214 14.188 16.7913 14.3142 17.2213 14.5309C17.6513 14.7477 18.0323 15.0503 18.3407 15.4202C19.4099 16.7439 19.9098 18.438 19.7307 20.1302C19.4907 23.2302 17.4907 25.6602 15.1607 25.6602L15.0007 25.6702Z" fill="white"/>
<path d="M15.6296 14.6604H15.7596C17.8596 14.7604 19.3896 17.1904 19.1796 20.0904C18.9696 22.9904 17.1796 25.1604 15.1096 25.1604H14.9996C12.8996 25.0604 11.3696 22.6304 11.5796 19.7304C11.7896 16.8304 13.5796 14.6504 15.6496 14.6504M15.6496 13.6504C13.0596 13.6504 10.8396 16.2904 10.5896 19.6504C10.4934 20.5526 10.5765 21.4649 10.8339 22.335C11.0913 23.2051 11.518 24.0157 12.0896 24.7204C12.4414 25.1445 12.877 25.4913 13.3692 25.7391C13.8613 25.9869 14.3994 26.1303 14.9496 26.1604H15.1296C17.7196 26.1604 19.9396 23.5304 20.1896 20.1604C20.2857 19.2582 20.2026 18.3458 19.9452 17.4758C19.6878 16.6057 19.2611 15.7951 18.6896 15.0904C18.3341 14.6713 17.8974 14.3285 17.4059 14.0828C16.9143 13.837 16.3781 13.6933 15.8296 13.6604L15.6496 13.6504Z" fill="#212C3A"/>
<path d="M32.0902 27.5395H32.0002L16.1302 24.2995H16.0402C15.7541 24.207 15.4913 24.0534 15.2702 23.8495C14.7898 23.3751 14.4253 22.7963 14.205 22.158C13.9847 21.5197 13.9147 20.8393 14.0002 20.1695C14.1402 18.0295 15.3902 16.3595 16.9002 16.2695H17.1902L33.6002 19.5995C33.6646 19.6127 33.7257 19.6383 33.7802 19.6751C33.8346 19.7118 33.8813 19.7589 33.9175 19.8137C33.9537 19.8685 33.9787 19.9299 33.9912 19.9944C34.0037 20.0589 34.0034 20.1252 33.9902 20.1895L32.5802 27.1895C32.5685 27.2542 32.5439 27.3159 32.5078 27.3709C32.4717 27.4259 32.4249 27.473 32.3702 27.5095C32.2812 27.5441 32.1846 27.5545 32.0902 27.5395Z" fill="white"/>
<path d="M17.1204 16.7595L33.5004 20.0895L32.0904 27.0895L16.2004 23.7995C15.9821 23.7239 15.7814 23.6049 15.6104 23.4495C15.1956 23.0253 14.8828 22.5122 14.6957 21.9491C14.5085 21.386 14.452 20.7877 14.5304 20.1995C14.6604 18.3295 15.7304 16.8395 16.9604 16.7695H17.1304M17.1304 15.7695H16.8604C15.1204 15.8995 13.7004 17.7695 13.5404 20.1195C13.4538 20.8691 13.5404 21.6285 13.7935 22.3394C14.0466 23.0502 14.4595 23.6934 15.0004 24.2195C15.268 24.4567 15.581 24.637 15.9204 24.7495H16.1004L31.8904 27.9995H32.0904C32.2899 28 32.4849 27.9408 32.6504 27.8295C32.8676 27.6827 33.0184 27.4565 33.0704 27.1995L34.4804 20.2495C34.5067 20.1208 34.5074 19.9882 34.4824 19.8593C34.4574 19.7303 34.4073 19.6075 34.3349 19.4979C34.2624 19.3884 34.1691 19.2941 34.0603 19.2206C33.9514 19.1471 33.8291 19.0958 33.7004 19.0695L17.3204 15.7795H17.1204L17.1304 15.7695Z" fill="#212C3A"/>
<path d="M37.3484 34.0498C37.1088 34.0696 36.868 34.0696 36.6284 34.0498L30.7384 32.8898C27.1284 32.0898 25.0284 27.6098 25.9384 22.6898C26.7684 18.1598 29.9384 14.6898 33.3484 14.6898C33.647 14.6862 33.9452 14.713 34.2384 14.7698L39.7784 15.8698C42.3084 16.3198 44.2384 18.6298 44.7784 21.8698C44.8047 21.9985 44.8054 22.1311 44.7804 22.26C44.7554 22.389 44.7053 22.5118 44.6329 22.6214C44.5604 22.7309 44.4671 22.8252 44.3582 22.8987C44.2494 22.9722 44.1271 23.0235 43.9984 23.0498C43.6384 23.1298 42.8084 23.2798 42.2284 23.3698C42.0011 24.2029 41.9299 25.0708 42.0184 25.9298L43.5584 26.0898C43.7041 26.1036 43.845 26.1493 43.9712 26.2236C44.0973 26.2979 44.2056 26.399 44.2884 26.5198C44.3704 26.6416 44.4246 26.7801 44.4471 26.9253C44.4696 27.0705 44.4598 27.2188 44.4184 27.3598C43.2784 31.2998 40.3484 34.0498 37.3084 34.0498H37.3484Z" fill="white"/>
<path d="M33.3482 15.6895C33.5861 15.6892 33.8236 15.7092 34.0582 15.7495L39.5982 16.8495C41.7782 17.2395 43.3482 19.3295 43.8182 22.0795C43.2782 22.1995 41.4982 22.4895 41.4982 22.4895C40.9921 23.8858 40.8848 25.3955 41.1882 26.8495L43.4982 27.0795C42.4982 30.5995 39.9582 33.0795 37.3482 33.0795C37.1551 33.094 36.9612 33.094 36.7682 33.0795L30.9282 31.9295C27.9282 31.2495 26.1182 27.2695 26.9282 22.9295C27.6882 18.8095 30.4682 15.7995 33.3582 15.7995M33.3582 13.7995C29.4282 13.7995 25.8982 17.4895 24.9582 22.5695C23.9582 28.0195 26.3982 32.9995 30.5082 33.9195L36.3882 34.9995H36.4882C36.7731 35.039 37.0605 35.059 37.3482 35.0595C40.8882 35.0595 44.1282 32.0595 45.4182 27.6495C45.5004 27.3676 45.5195 27.0711 45.4743 26.7811C45.429 26.491 45.3204 26.2144 45.1562 25.971C44.9921 25.7276 44.7763 25.5234 44.5243 25.3728C44.2723 25.2221 43.9903 25.1288 43.6982 25.0995L42.9982 24.9995C43.005 24.7378 43.0318 24.477 43.0782 24.2195C43.5282 24.1395 43.9782 24.0595 44.2282 23.9995C44.728 23.8864 45.1654 23.5859 45.4501 23.1598C45.7348 22.7336 45.8451 22.2145 45.7582 21.7095C45.1482 17.9995 42.9082 15.4095 39.9982 14.8795L37.1782 14.3195L34.4582 13.7795C34.108 13.7197 33.7534 13.6896 33.3982 13.6895L33.3582 13.7995Z" fill="#212C3A"/>
<mask id="mask0_498_3346" style="mask-type:luminance" maskUnits="userSpaceOnUse" x="26" y="15" width="18" height="19">
<path d="M41.1895 26.8497C40.9107 25.3162 41.0418 23.7362 41.5695 22.2697C42.3223 22.2446 43.0732 22.1812 43.8195 22.0797C43.3495 19.3297 41.8195 17.2397 39.5995 16.8497L34.0695 15.7497C30.9395 15.1997 27.7395 18.3597 26.9195 22.8197C26.0995 27.2797 27.9195 31.1797 30.9195 31.8197L36.7695 32.9997C39.5795 33.3997 42.4095 30.8497 43.4995 27.0697L41.1895 26.8497Z" fill="white"/>
</mask>
<g mask="url(#mask0_498_3346)">
<path d="M38.8802 16.7901C39.1214 16.7902 39.3622 16.8102 39.6002 16.8501C42.7302 17.4101 44.6002 21.4701 43.7802 25.9301C43.0302 30.0501 40.2402 33.0601 37.3502 33.0601C37.1123 33.0596 36.8748 33.0395 36.6402 33.0001C33.5102 32.4401 31.6402 28.3801 32.4502 23.9201C33.2102 19.8001 36.0002 16.7901 38.8802 16.7901ZM38.8802 15.7901C35.4902 15.7901 32.3002 19.2101 31.4702 23.7901C30.8998 26.4694 31.3909 29.2655 32.8402 31.5901C33.2507 32.2144 33.7828 32.7496 34.4048 33.1637C35.0267 33.5778 35.7258 33.8622 36.4602 34.0001C36.7535 34.056 37.0516 34.0828 37.3502 34.0801C40.7502 34.0801 43.9302 30.6601 44.7602 26.0801C45.3282 23.402 44.841 20.608 43.4002 18.2801C42.9898 17.6506 42.4569 17.1102 41.8332 16.691C41.2096 16.2718 40.508 15.9824 39.7702 15.8401C39.477 15.7833 39.1788 15.7565 38.8802 15.7601V15.7901Z" fill="#212C3A"/>
</g>
<mask id="mask1_498_3346" style="mask-type:luminance" maskUnits="userSpaceOnUse" x="26" y="15" width="18" height="19">
<path d="M41.1895 26.8497C40.9107 25.3162 41.0418 23.7362 41.5695 22.2697C42.3223 22.2446 43.0732 22.1812 43.8195 22.0797C43.3495 19.3297 41.8195 17.2397 39.5995 16.8497L34.0695 15.7497C30.9395 15.1997 27.7395 18.3597 26.9195 22.8197C26.0995 27.2797 27.9195 31.1797 30.9195 31.8197L36.7695 32.9997C39.5795 33.3997 42.4095 30.8497 43.4995 27.0697L41.1895 26.8497Z" fill="white"/>
</mask>
<g mask="url(#mask1_498_3346)">
<path d="M30.138 26.9116C29.9984 25.5705 30.1034 24.2151 30.448 22.9116L32.848 23.3416H34.738C37.8092 23.4307 40.8809 23.1825 43.898 22.6016L43.598 26.2516C41.248 26.5216 38.368 26.6216 35.338 26.7216C33.618 26.7616 31.848 26.8216 30.138 26.9116Z" fill="white"/>
<path d="M43.348 23.2106L43.128 25.7906C40.878 26.0306 38.128 26.1106 35.318 26.2106C33.758 26.2606 32.148 26.3106 30.588 26.3906C30.5291 25.4009 30.6099 24.4078 30.828 23.4406L32.758 23.8006H32.918H34.738C37.6209 23.8562 40.5028 23.6486 43.348 23.1806M44.458 21.8906C44.458 21.8906 41.998 22.8006 34.738 22.8006H32.938L30.088 22.2806C29.5837 23.9485 29.4573 25.7078 29.718 27.4306C34.648 27.1406 40.168 27.1806 44.058 26.6806L44.458 21.9106V21.8906Z" fill="#212C3A"/>
</g>
<path d="M29.9219 27.0009L32.6219 28.0009C32.6219 28.0009 40.9819 28.4409 44.8219 26.9409L42.8219 26.1309" fill="#212C3A"/>
<path d="M29.9219 27.0009L32.6219 28.0009C32.6219 28.0009 40.9819 28.4409 44.8219 26.9409L42.8219 26.1309" stroke="#212C3A" stroke-linejoin="round"/>
</svg>
