<svg width="48" height="48" viewBox="0 0 48 48" fill="none" xmlns="http://www.w3.org/2000/svg">
<path d="M39.6697 20.1605C39.2891 19.3762 38.8301 18.6324 38.2997 17.9405C36.4478 15.643 34.0617 13.8337 31.3497 12.6705C29.8359 11.9994 28.2531 11.4964 26.6297 11.1705C26.1297 11.0705 25.6297 10.9905 25.1397 10.9305H24.7497C24.2997 10.8805 23.8497 10.8305 23.4097 10.8105H23.2697C22.7997 10.8105 22.3397 10.8105 21.8797 10.8105H21.3497C21.0297 10.8105 20.7097 10.8105 20.3497 10.8705H19.8197C19.4997 10.8705 19.1897 10.9405 18.8797 10.9905L18.3997 11.0705C18.0197 11.1405 17.6397 11.2205 17.2697 11.3105L17.0597 11.3605C16.6197 11.4672 16.1897 11.5972 15.7697 11.7505L15.4197 11.8805C15.1197 11.9905 14.8297 12.1005 14.5497 12.2205L14.1297 12.4205L13.3997 12.7905C13.2597 12.8605 13.1297 12.9405 12.9997 13.0205C12.8697 13.1005 12.5197 13.3105 12.2997 13.4605L11.9597 13.6805C11.6697 13.9005 11.3897 14.1205 11.1197 14.3505L11.0297 14.4205C10.7359 14.676 10.4587 14.9499 10.1997 15.2405C10.1211 15.3226 10.0476 15.4094 9.97969 15.5005C9.79969 15.7105 9.63969 15.9105 9.47969 16.1205L9.24969 16.4605C9.11969 16.6705 8.98969 16.8805 8.86969 17.0905L8.67969 17.4505C8.56969 17.6805 8.46969 17.9205 8.36969 18.1605L8.23969 18.4905C8.13399 18.841 8.05379 19.1986 7.99969 19.5605C6.66969 26.0005 12.8797 32.6905 21.8497 34.5005C23.3317 34.7953 24.8387 34.946 26.3497 34.9505C33.4597 34.9505 39.3497 31.4605 40.4897 26.1105C40.7397 24.9202 40.7397 23.6909 40.4897 22.5005C40.3088 21.6912 40.0335 20.9058 39.6697 20.1605ZM30.3697 24.0605C29.9597 26.0605 27.8197 27.4305 25.0397 27.4305C24.4656 27.428 23.893 27.3711 23.3297 27.2605C21.4862 26.9453 19.8351 25.9317 18.7197 24.4305C18.4297 24.0218 18.2253 23.5586 18.1187 23.0688C18.0122 22.5791 18.0057 22.0729 18.0997 21.5805C18.5097 19.5805 20.6497 18.2205 23.4197 18.2205C23.9974 18.2176 24.5738 18.2746 25.1397 18.3905C26.9832 18.7058 28.6342 19.7194 29.7497 21.2205C30.0368 21.6288 30.2396 22.0904 30.3461 22.578C30.4525 23.0657 30.4606 23.5697 30.3697 24.0605Z" fill="white"/>
<path d="M19.0781 21.8007C19.9071 21.236 20.8471 20.8547 21.8352 20.6822C22.8233 20.5098 23.8369 20.5502 24.8081 20.8007C26.6176 21.1015 28.2541 22.0549 29.4081 23.4807C29.4781 21.6907 27.5981 19.9107 24.9381 19.3707C24.4373 19.2728 23.9284 19.2225 23.4181 19.2207C21.2081 19.2207 19.4181 20.2207 19.0781 21.7807V21.8007Z" fill="white"/>
<path d="M37.9992 32.5207C38.1692 32.3207 38.3392 32.1107 38.4992 31.9007L38.7292 31.5607C38.8292 31.4007 38.9192 31.2407 39.0092 31.0807C36.2792 34.0807 31.6892 35.9507 26.3792 35.9507C24.801 35.9474 23.2268 35.79 21.6792 35.4807C16.2092 34.3707 11.3992 31.4007 8.82922 27.4807C8.26078 26.619 7.79748 25.6925 7.44922 24.7207C7.99922 29.0007 11.4892 33.0007 16.6492 35.3307C18.163 36.0018 19.7458 36.5048 21.3692 36.8307C21.8692 36.9307 22.3692 37.0107 22.8492 37.0707H23.2392C23.6892 37.1207 24.1392 37.1707 24.5792 37.1907H24.7192C25.1892 37.1907 25.6492 37.1907 26.1092 37.1907H26.6392C26.9592 37.1907 27.2792 37.1907 27.6392 37.1307L28.1692 37.0807C28.4892 37.0807 28.8092 37.0107 29.1192 36.9607L29.5792 36.8807C29.9692 36.8107 30.3592 36.7307 30.7292 36.6407L30.9292 36.5907C31.3692 36.484 31.7992 36.354 32.2192 36.2007L32.5692 36.0707C32.8592 35.9607 33.1592 35.8507 33.4392 35.7207L33.8492 35.5307L34.5992 35.1607L34.9992 35.0007L35.7092 34.5507L36.0392 34.3307C36.3292 34.1107 36.6192 33.8907 36.8892 33.6507L36.9692 33.5907C37.2606 33.3327 37.5377 33.0589 37.7992 32.7707C37.8292 32.7007 37.8892 32.6107 37.9992 32.5207Z" fill="white"/>
<path d="M40.5096 17.6007C37.7496 13.4407 32.8396 10.3807 26.9996 9.2107C25.39 8.88488 23.7518 8.72074 22.1096 8.7207C13.9096 8.7207 7.28957 13.0007 5.99957 19.1607L5.51957 21.4907C5.23432 23.0321 5.26171 24.6151 5.60012 26.1457C5.93854 27.6763 6.58107 29.1233 7.48957 30.4007C10.2496 34.5607 15.1596 37.6207 20.9796 38.7907C22.5892 39.1165 24.2273 39.2807 25.8696 39.2807C34.0896 39.2807 40.7096 34.9907 41.9696 28.8407L42.4496 26.5107C42.7391 24.9713 42.7166 23.3895 42.3833 21.8589C42.0501 20.3284 41.4129 18.8804 40.5096 17.6007ZM40.5096 26.1107C39.3996 31.4607 33.4596 35.0007 26.3496 35.0007C24.8386 34.9962 23.3316 34.8455 21.8496 34.5507C12.8796 32.6907 6.66957 26.0007 7.99957 19.5607C8.07234 19.1904 8.17261 18.8261 8.29957 18.4707L8.42957 18.1407C8.52957 17.9007 8.62957 17.6607 8.73957 17.4307L8.92957 17.0707C9.04957 16.8607 9.17957 16.6507 9.30957 16.4407L9.53957 16.1007C9.69957 15.8907 9.85957 15.6907 10.0396 15.4807C10.1075 15.3896 10.1809 15.3027 10.2596 15.2207C10.5186 14.93 10.7958 14.6562 11.0896 14.4007L11.1796 14.3307C11.4496 14.1007 11.7296 13.8807 12.0196 13.6607L12.3596 13.4407C12.5796 13.2907 12.8096 13.1407 13.0596 13.0007C13.3096 12.8607 13.3196 12.8407 13.4596 12.7707L14.1896 12.4007L14.6096 12.2007C14.8896 12.0807 15.1796 11.9707 15.4796 11.8607L15.8296 11.7307C16.2496 11.5774 16.6796 11.4474 17.1196 11.3407L17.3296 11.2907C17.6996 11.2007 18.0796 11.1207 18.4596 11.0507L18.9396 10.9707C19.2496 10.9207 19.5596 10.8807 19.8796 10.8507H20.4096C20.7196 10.8507 21.0396 10.8007 21.4096 10.7907H22.1896H23.3296H23.4696C23.9196 10.7907 24.3596 10.8607 24.8096 10.9107H25.1996C25.6896 10.9707 26.1996 11.0507 26.6896 11.1507C28.313 11.4766 29.8958 11.9796 31.4096 12.6507C34.1216 13.8139 36.5077 15.6232 38.3596 17.9207C38.89 18.6125 39.349 19.3563 39.7296 20.1407C40.0865 20.8869 40.355 21.6722 40.5296 22.4807C40.7693 23.6803 40.7556 24.9167 40.4896 26.1107H40.5096ZM36.8596 33.6607C36.5896 33.9007 36.2996 34.1207 36.0096 34.3407L35.6796 34.5607L34.9996 35.0007L34.6096 35.2207L33.8596 35.5907L33.4496 35.7807C33.1696 35.9107 32.8696 36.0207 32.5796 36.1307L32.2296 36.2607C31.8096 36.414 31.3796 36.544 30.9396 36.6507L30.7396 36.7007C30.3696 36.7907 29.9796 36.8707 29.5896 36.9407L29.1296 37.0207C28.8196 37.0207 28.4996 37.1107 28.1796 37.1407L27.6496 37.1907C27.3396 37.1907 27.0196 37.1907 26.6496 37.2507H25.8696C25.4896 37.2507 25.1096 37.2507 24.7296 37.2507H24.5896C24.1496 37.2507 23.6996 37.1807 23.2496 37.1307H22.8596C22.3696 37.0707 21.8596 36.9907 21.3796 36.8907C19.7561 36.5648 18.1733 36.0618 16.6596 35.3907C11.4896 33.0007 7.99957 29.0007 7.41957 24.7607C7.76784 25.7325 8.23113 26.659 8.79957 27.5207C11.3696 31.4007 16.1796 34.3707 21.6496 35.5207C23.1972 35.83 24.7713 35.9874 26.3496 35.9907C31.6596 35.9907 36.2496 34.1307 38.9796 31.1207L38.6696 31.6207L38.4396 31.9607C38.2796 32.1707 38.1096 32.3807 37.9396 32.5807C37.7696 32.7807 37.7996 32.7607 37.7196 32.8407C37.458 33.1289 37.1809 33.4027 36.8896 33.6607H36.8596Z" fill="#212C3A"/>
<path d="M25.1411 18.3908C24.5752 18.2749 23.9988 18.2179 23.4211 18.2208C20.6511 18.2208 18.5111 19.5708 18.1011 21.5808C18.0072 22.0731 18.0136 22.5794 18.1202 23.0691C18.2267 23.5589 18.4311 24.022 18.7211 24.4308C19.8366 25.932 21.4877 26.9456 23.3311 27.2608C23.8945 27.3713 24.467 27.4283 25.0411 27.4308C27.8211 27.4308 29.9611 26.0808 30.3711 24.0608C30.462 23.57 30.454 23.066 30.3475 22.5783C30.2411 22.0906 30.0383 21.6291 29.7511 21.2208C28.6357 19.7196 26.9846 18.7061 25.1411 18.3908ZM23.4211 19.2208C23.9314 19.2226 24.4404 19.2729 24.9411 19.3708C27.6011 19.9108 29.4811 21.6908 29.4111 23.4808C28.2571 22.055 26.6206 21.1016 24.8111 20.8008C23.8399 20.5503 22.8263 20.5099 21.8382 20.6823C20.8501 20.8548 19.9101 21.2361 19.0811 21.8008C19.4011 20.2208 21.2111 19.2208 23.4211 19.2208ZM25.0011 26.4308C24.4942 26.4294 23.9885 26.3792 23.4911 26.2808C22.0265 26.028 20.6964 25.2709 19.7311 24.1408C19.9511 23.0808 21.9011 22.2508 24.3711 22.7508C25.7253 22.9625 26.95 23.6766 27.8011 24.7508C27.9818 24.9959 28.0893 25.2871 28.1111 25.5908C27.1791 26.1694 26.0977 26.4615 25.0011 26.4308Z" fill="#212C3A"/>
</svg>
