<svg width="48" height="48" viewBox="0 0 48 48" fill="none" xmlns="http://www.w3.org/2000/svg">
<path d="M27.3307 8.21C25.7929 7.90353 24.2287 7.74945 22.6607 7.75C14.8807 7.75 8.2907 11.58 6.1207 17.32C6.05736 17.4284 6.00382 17.5421 5.9607 17.66C5.57469 18.926 5.25426 20.211 5.0007 21.51C4.67022 23.1592 4.67705 24.8581 5.02078 26.5046C5.3645 28.151 6.038 29.7108 7.0007 31.09C9.8807 35.43 15.0007 38.59 21.0007 39.76C22.6483 40.0795 24.3224 40.2436 26.0007 40.25C32.2007 40.25 37.4707 37.97 40.4607 34C40.523 33.9207 40.5798 33.8371 40.6307 33.75C41.3632 32.1637 41.8617 30.4795 42.1107 28.75V28.57V28.45C42.1581 28.2835 42.1883 28.1126 42.2007 27.94V27.89C42.3023 27.4253 42.2349 26.9395 42.0107 26.52C42.2042 26.2761 42.3501 25.9979 42.4407 25.7L42.5107 25.46C42.7576 24.7575 42.9253 24.0297 43.0107 23.29C43.6107 16.43 36.9407 10.07 27.3307 8.21ZM22.6407 30.35C17.5307 29.12 13.8207 25.78 13.5407 22.19V22.05C14.2207 19.29 18.3407 17.13 22.9207 17.13C23.8738 17.1296 24.8248 17.22 25.7607 17.4C30.1707 18.26 33.6807 20.81 34.3707 23.64C34.3707 23.8 34.4407 23.94 34.4707 24.08C34.5007 24.22 34.5907 24.54 34.6807 24.53C34.5025 24.946 34.3943 25.3887 34.3607 25.84C33.6107 30.36 28.7107 30.84 26.6307 30.84C25.2862 30.8319 23.9472 30.6675 22.6407 30.35Z" fill="#212C3A"/>
<path d="M26.8203 36.7798C25.0138 36.7731 23.2121 36.5922 21.4403 36.2398C15.8703 35.1598 11.1503 32.2398 8.44031 28.2398C7.73664 27.192 7.1908 26.0464 6.82031 24.8398C7.38031 30.7598 13.3003 36.2498 21.4503 37.8398L22.6203 38.0398C23.7595 38.2056 24.9091 38.2891 26.0603 38.2898C31.6003 38.2898 36.3503 36.2898 38.9203 32.8398C39.0603 32.5798 39.1803 32.2898 39.3003 31.9998C36.7703 34.9398 32.2203 36.7798 26.8203 36.7798Z" fill="white"/>
<path d="M26.1681 14.0595C25.1798 13.8664 24.1751 13.7693 23.1681 13.7695C18.6581 13.7695 14.8881 15.7695 13.3281 18.6795C15.3781 16.5195 18.9981 15.1295 22.9981 15.1295C24.0789 15.1295 25.1572 15.2334 26.2181 15.4395C30.8381 16.3295 34.4081 18.8295 35.8581 21.7495C35.8581 21.5495 35.9681 21.3595 36.0081 21.2295C35.2981 17.9995 31.2281 14.9995 26.1681 14.0595Z" fill="white"/>
<path d="M36.6613 25.2202C36.5788 25.3174 36.5236 25.4347 36.5013 25.5602C36.4667 25.6947 36.4432 25.8319 36.4313 25.9702C36.4286 26.0069 36.4286 26.0436 36.4313 26.0802C35.7213 30.6402 31.6613 32.8402 26.7113 32.8402C25.5906 32.835 24.4726 32.7279 23.3713 32.5202C22.9813 32.4502 22.6013 32.3702 22.2213 32.2802C15.3113 30.6202 10.6213 25.4602 11.7413 20.1802C12.6813 15.7202 17.5113 12.7602 23.1913 12.7602C24.272 12.761 25.3503 12.8648 26.4113 13.0702C31.5713 14.0702 35.9413 17.0702 36.9013 20.6702C38.398 21.1946 39.8495 21.8401 41.2413 22.6002C41.2413 16.7702 34.9913 11.7102 27.0013 10.1602C25.5879 9.88429 24.1514 9.74366 22.7113 9.74023C15.2113 9.74023 8.8513 13.6202 7.6113 19.4502C6.1413 26.3802 12.4413 33.4502 21.6813 35.2502C23.3911 35.5863 25.1288 35.7604 26.8713 35.7702C34.2213 35.7702 39.2913 32.3902 40.3913 27.9702C40.3913 27.9702 40.5513 27.4402 40.3413 27.3002C39.1766 26.5026 37.9454 25.8067 36.6613 25.2202Z" fill="white"/>
<path d="M36.3789 23.3899C36.3789 23.5399 36.3789 23.7099 36.8789 23.9199L38.1189 24.5099L39.1189 24.9999L40.0189 25.4199C40.0848 25.434 40.153 25.434 40.2189 25.4199C40.3181 25.4209 40.415 25.3905 40.4959 25.333C40.5767 25.2755 40.6373 25.1939 40.6689 25.0999C40.7489 24.8099 40.8689 24.4499 40.9589 24.0999C40.9589 23.9499 41.0389 23.8099 41.0689 23.6699C39.7102 22.8798 38.2847 22.2105 36.8089 21.6699C36.6989 22.2699 36.4189 23.2399 36.3789 23.3899Z" fill="white"/>
</svg>
