<svg width="48" height="48" viewBox="0 0 48 48" fill="none" xmlns="http://www.w3.org/2000/svg">
<path d="M23.5 7C12.73 7 4 9.73 4 17C4 26.94 12.73 43 23.5 43C34.27 43 43 26.94 43 17C43 9.73 34.27 7 23.5 7ZM23.5 31.62C19.5 32.12 16.25 24.88 15.5 22.38C14.75 19.88 23.5 20.25 23.5 20.25C22.75 20.38 31.25 19.62 31 22C30.38 27.84 27.5 31.12 23.5 31.62Z" fill="white"/>
<path d="M23.5 7C34.27 7 43 9.73 43 17C43 26.94 34.27 43 23.5 43C12.73 43 4 26.94 4 17C4 9.73 12.73 7 23.5 7ZM23.5 5C4.79 5 2 12.52 2 17C2 28.06 11.63 45 23.5 45C35.37 45 45 28.06 45 17C45 12.52 42.21 5 23.5 5Z" fill="#212C3A"/>
<path d="M23.4981 7C32.8481 7 39.9181 9.34 39.9181 16C39.9181 25.11 32.8481 40 23.4981 40C14.1481 40 7.07812 25.11 7.07812 16C7.07812 9.34 14.1481 7 23.4981 7ZM23.4981 6C9.09813 6 6.07812 11.44 6.07812 16C6.07812 25.83 13.5581 41 23.4981 41C33.4381 41 40.9181 25.83 40.9181 16C40.9181 11.44 37.9181 6 23.4981 6Z" fill="#212C3A"/>
<path d="M23.5013 17C28.3213 17 32.2213 18.07 32.2213 20.9C32.2213 24.77 28.3213 31 23.5013 31C18.6813 31 14.7812 24.77 14.7812 20.9C14.7812 18.07 18.6813 17 23.5013 17ZM23.5013 16C15.0413 16 13.7812 19.07 13.7812 20.9C13.7812 25.28 18.1313 32 23.5013 32C28.8713 32 33.2213 25.28 33.2213 20.9C33.2213 19.07 31.9613 16 23.5013 16Z" fill="#212C3A"/>
<mask id="mask0_498_2055" style="mask-type:luminance" maskUnits="userSpaceOnUse" x="14" y="17" width="19" height="14">
<path d="M32.3197 20.9C32.3197 24.77 28.3697 31 23.4997 31C18.6297 31 14.6797 24.77 14.6797 20.9C14.6797 18.07 18.6297 17 23.4997 17C28.3697 17 32.3197 18.07 32.3197 20.9Z" fill="white"/>
</mask>
<g mask="url(#mask0_498_2055)">
<path d="M23.6011 21C28.0111 21 30.3211 22 30.3211 22.9C30.3211 25.95 27.0611 31 23.6011 31C20.1411 31 16.8711 26 16.8711 22.9C16.8711 21.96 19.1811 21 23.6011 21ZM23.6011 19C18.7811 19 14.8711 20.07 14.8711 22.9C14.8711 26.77 18.7811 33 23.6011 33C28.4211 33 32.3211 26.77 32.3211 22.9C32.3211 20.07 28.4111 19 23.6011 19Z" fill="#212C3A"/>
</g>
</svg>
