<svg width="48" height="48" viewBox="0 0 48 48" fill="none" xmlns="http://www.w3.org/2000/svg">
<path d="M3 6V40H45V6H3ZM24 27.62C19.65 27.62 16.12 25.5 16.12 22.88C16.12 20.26 19.65 18.12 24 18.12C28.35 18.12 31.88 20.25 31.88 22.88C31.88 25.51 28.35 27.62 24 27.62Z" fill="white"/>
<path d="M45 6V40H3V6H45ZM45 4H3C2.46957 4 1.96086 4.21071 1.58579 4.58579C1.21071 4.96086 1 5.46957 1 6V40C1 40.5304 1.21071 41.0391 1.58579 41.4142C1.96086 41.7893 2.46957 42 3 42H45C45.5304 42 46.0391 41.7893 46.4142 41.4142C46.7893 41.0391 47 40.5304 47 40V6C47 5.46957 46.7893 4.96086 46.4142 4.58579C46.0391 4.21071 45.5304 4 45 4Z" fill="#212C3A"/>
<path d="M45 6V36H3V6H45ZM45 5H3C2.73478 5 2.48043 5.10536 2.29289 5.29289C2.10536 5.48043 2 5.73478 2 6V36C2 36.2652 2.10536 36.5196 2.29289 36.7071C2.48043 36.8946 2.73478 37 3 37H45C45.2652 37 45.5196 36.8946 45.7071 36.7071C45.8946 36.5196 46 36.2652 46 36V6C46 5.73478 45.8946 5.48043 45.7071 5.29289C45.5196 5.10536 45.2652 5 45 5Z" fill="#212C3A"/>
<path d="M24 15C29 15 33 17.69 33 21C33 24.31 29 27 24 27C19 27 15 24.31 15 21C15 17.69 19 15 24 15ZM24 14C18.39 14 14 17.07 14 21C14 24.93 18.39 28 24 28C29.61 28 34 24.93 34 21C34 17.07 29.61 14 24 14Z" fill="#212C3A"/>
<mask id="mask0_498_2449" style="mask-type:luminance" maskUnits="userSpaceOnUse" x="15" y="15" width="18" height="12">
<path d="M24 27C28.9706 27 33 24.3137 33 21C33 17.6863 28.9706 15 24 15C19.0294 15 15 17.6863 15 21C15 24.3137 19.0294 27 24 27Z" fill="white"/>
</mask>
<g mask="url(#mask0_498_2449)">
<path d="M24 19C28.13 19 31 21.11 31 23C31 24.89 28.13 27 24 27C19.87 27 17 24.89 17 23C17 21.11 19.87 19 24 19ZM24 17C19 17 15 19.69 15 23C15 26.31 19 29 24 29C29 29 33 26.31 33 23C33 19.69 29 17 24 17Z" fill="#212C3A"/>
</g>
</svg>
