<svg width="48" height="48" viewBox="0 0 48 48" fill="none" xmlns="http://www.w3.org/2000/svg">
<path d="M25.6199 36.1C23.9779 36.095 22.3402 35.9309 20.7298 35.61C17.4923 34.969 14.4258 33.6539 11.7299 31.75L11.3599 33.56C10.6099 37.32 14.2399 41.22 19.4798 42.28C20.3491 42.4536 21.2334 42.5407 22.1199 42.54C26.2599 42.54 29.7099 40.54 30.3899 37.43C30.3899 37.43 30.5399 36.68 30.7899 35.43C29.0993 35.8581 27.3637 36.083 25.6199 36.1Z" fill="white"/>
<path d="M40.7585 12.3097C37.9985 8.14969 33.0885 5.08969 27.2685 3.91969C25.6589 3.59387 24.0208 3.42972 22.3785 3.42969C14.1585 3.42969 7.53852 7.71969 6.27852 13.8597L5.27852 18.2797C4.9834 19.8231 5.00219 21.4101 5.33378 22.9461C5.66537 24.4821 6.30297 25.9355 7.20852 27.2197C8.0063 28.3678 8.94346 29.4124 9.99852 30.3297L9.41852 33.1597V33.2697C8.49852 38.1597 12.7485 42.9797 19.1285 44.2697C20.1165 44.4666 21.1212 44.567 22.1285 44.5697C27.3385 44.5697 31.4385 41.9097 32.3385 37.9497V37.8797C32.3385 37.8797 32.3385 37.8797 32.9585 34.8797C37.5685 33.1797 40.8985 29.8797 41.7485 25.6997L42.7485 21.2897C43.0413 19.7361 43.0159 18.1392 42.6738 16.5957C42.3318 15.0522 41.6802 13.5942 40.7585 12.3097ZM40.7585 20.8197C39.6685 26.1597 33.7585 29.6597 26.6185 29.6597C25.1069 29.6566 23.5995 29.5025 22.1185 29.1997C13.1185 27.3897 6.93852 20.7097 8.25852 14.2597C8.33259 13.893 8.43285 13.5321 8.55852 13.1797C8.55852 13.0597 8.64852 12.9497 8.68852 12.8397C8.72852 12.7297 8.88852 12.3697 8.99852 12.1397L9.18852 11.7797C9.30852 11.5597 9.43852 11.3597 9.56852 11.1497L9.79852 10.8097C9.95852 10.5997 10.1185 10.3897 10.2985 10.1897L10.5185 9.91969C10.7802 9.63477 11.0573 9.36437 11.3485 9.10969L11.4185 8.99969C11.6852 8.77302 11.9652 8.55302 12.2585 8.33969L12.5985 8.11969C12.8227 7.95594 13.0565 7.80567 13.2985 7.66969L13.6985 7.44969C13.9385 7.31969 14.1785 7.18969 14.4285 7.07969L14.8485 6.87969L15.7085 6.53969L16.0685 6.39969C16.4885 6.25969 16.9185 6.12969 17.3485 6.01969H17.5685C17.9385 5.92969 18.3185 5.83969 18.6985 5.77969L19.1685 5.69969L20.1185 5.56969H20.6485H21.6485H22.1785H22.4285H23.5685H23.7085C24.1485 5.56969 24.5985 5.62969 25.0485 5.68969H25.4285C25.9185 5.74969 26.4285 5.82969 26.9185 5.92969C35.8485 7.68969 42.0585 14.3797 40.7385 20.8197H40.7585ZM30.3585 37.4597C29.6785 40.5497 26.2285 42.5697 22.0885 42.5697C21.2021 42.5704 20.3178 42.4833 19.4485 42.3097C14.2085 41.2497 10.5785 37.3097 11.3285 33.5897L11.6985 31.7797C14.3945 33.6836 17.4609 34.9987 20.6985 35.6397C22.3089 35.9606 23.9465 36.1247 25.5885 36.1297C27.3199 36.13 29.0453 35.9252 30.7285 35.5197C30.4785 36.7297 30.3285 37.5197 30.3285 37.5197L30.3585 37.4597ZM38.2185 28.7097C38.0585 28.9297 37.8885 29.1297 37.7185 29.3397C37.5485 29.5497 37.5785 29.5197 37.4985 29.5997C37.2369 29.8879 36.9599 30.1616 36.6685 30.4197L36.5985 30.4797C36.3185 30.7097 36.0385 30.9397 35.7385 31.1597L35.4085 31.3697C35.1785 31.5297 34.9485 31.6797 34.6985 31.8197L34.3085 32.0397C34.0585 32.1797 33.8185 32.2997 33.5585 32.4197C32.7969 32.7789 32.0077 33.0765 31.1985 33.3097L30.6385 33.4797H30.4385C30.0685 33.5797 29.6785 33.6597 29.2885 33.7297L28.8285 33.7997C28.5185 33.7997 28.1985 33.8997 27.8785 33.9297L27.3485 33.9797C27.0385 33.9797 26.7185 33.9797 26.3485 34.0397H25.5685C25.1885 34.0397 24.8085 34.0397 24.4285 34.0397H24.2885L22.9985 33.9397H22.6085C22.1185 33.8697 21.6085 33.7997 21.1185 33.6997C12.1185 31.8897 5.93852 25.1997 7.25852 18.7597L7.33852 18.3897C7.6737 19.7743 8.25273 21.0881 9.04852 22.2697C11.6185 26.1497 16.4285 29.1297 21.8985 30.2697C23.4451 30.5872 25.0197 30.748 26.5985 30.7497C32.2885 30.7497 37.1585 28.5997 39.7985 25.1997V25.3497C39.7231 25.7194 39.6229 26.0835 39.4985 26.4397L39.3685 26.7697C39.2685 27.0097 39.1685 27.2497 39.0585 27.4797L38.8685 27.8397C38.7485 28.0497 38.6185 28.2597 38.4885 28.4697L38.2185 28.7097Z" fill="#212C3A"/>
<path d="M26.88 5.87953C26.38 5.77953 25.88 5.69953 25.39 5.63953H25.01C24.56 5.57953 24.11 5.53953 23.67 5.51953H23.53C23.06 5.51953 22.6 5.51953 22.14 5.51953H21.61H20.61H20.08L19.13 5.64953L18.66 5.72953C18.28 5.78953 17.9 5.87953 17.53 5.96953H17.31C16.88 6.07953 16.45 6.20953 16.03 6.34953L15.67 6.48953L14.81 6.82953L14.39 7.02953C14.14 7.13953 13.9 7.26953 13.66 7.39953L13.26 7.61953C13.0179 7.75552 12.7842 7.90578 12.56 8.06953L12.22 8.28953C11.9333 8.50286 11.6533 8.72286 11.38 8.94953L11.29 9.02953C10.9988 9.28421 10.7217 9.55462 10.46 9.83953L10.24 10.1095C10.06 10.3095 9.89999 10.5195 9.73999 10.7295L9.50999 11.0695C9.37999 11.2795 9.24999 11.4795 9.12999 11.6995L8.99999 12.1395C8.88999 12.3695 8.78999 12.5995 8.68999 12.8395C8.58999 13.0795 8.59999 13.0595 8.55999 13.1795C8.43432 13.5319 8.33406 13.8928 8.25999 14.2595C6.91999 20.7095 13.13 27.3895 22.1 29.1995C23.5809 29.5024 25.0884 29.6565 26.6 29.6595C33.71 29.6595 39.6 26.1595 40.74 20.8195C42.06 14.3795 35.85 7.68953 26.88 5.87953ZM32.13 15.3195C32.5204 15.8652 32.7983 16.4831 32.9477 17.1371C33.097 17.7912 33.1148 18.4685 33 19.1295C32.44 21.8495 29.5 23.6795 25.68 23.6795C24.8669 23.68 24.0559 23.5962 23.26 23.4295C20.6907 23.0026 18.3864 21.5978 16.83 19.5095C16.4435 18.9624 16.1709 18.3433 16.0283 17.6888C15.8857 17.0343 15.8761 16.3578 16 15.6995C16.55 12.9795 19.5 11.1495 23.32 11.1495C24.1298 11.149 24.9375 11.2328 25.73 11.3995C28.2884 11.8337 30.5808 13.2378 32.13 15.3195Z" fill="white"/>
<path d="M24.5919 17.8498C23.8612 17.7006 23.1176 17.6236 22.3719 17.6198C20.6995 17.5771 19.0557 18.0597 17.6719 18.9998C19.0812 20.8494 21.1464 22.0879 23.4419 22.4598C24.1719 22.6134 24.9159 22.6904 25.6619 22.6898C27.3332 22.7355 28.9769 22.2564 30.3619 21.3198C28.9543 19.4664 26.8888 18.2243 24.5919 17.8498Z" fill="white"/>
<path d="M25.4989 12.3804C24.7723 12.2268 24.0316 12.1497 23.2889 12.1504C20.0589 12.1504 17.4089 13.6204 16.9489 15.9004C16.8089 16.6413 16.8924 17.4071 17.1889 18.1004C18.724 17.0897 20.5316 16.5733 22.3689 16.6204C23.1818 16.6249 23.9923 16.7086 24.7889 16.8704C27.2877 17.2992 29.5372 18.6432 31.0989 20.6404C31.5402 20.1567 31.85 19.568 31.9989 18.9304C32.5689 16.1504 29.6589 13.2104 25.4989 12.3804Z" fill="white"/>
<path d="M39.0003 27.3908C39.1103 27.1608 39.2103 26.9208 39.3103 26.6808L39.4403 26.3508C39.5647 25.9946 39.665 25.6304 39.7403 25.2608V25.1108C37.1003 28.5108 32.2303 30.6608 26.5403 30.6608C24.9615 30.6591 23.3869 30.4983 21.8403 30.1808C16.3703 29.0808 11.5603 26.1008 8.99034 22.1808C8.19455 20.9992 7.61551 19.6854 7.28034 18.3008L7.20034 18.6708C5.88034 25.1108 12.0903 31.8008 21.0603 33.6108C21.5603 33.7108 22.0603 33.7808 22.5503 33.8508H22.9403L24.2803 33.9708H24.4203C24.8003 33.9708 25.1803 33.9708 25.5603 33.9708H26.3403C26.6603 33.9708 26.9803 33.9708 27.3403 33.9108L27.8703 33.8608C28.1903 33.8608 28.5103 33.7808 28.8203 33.7308L29.2803 33.6608C29.6703 33.5908 30.0603 33.5108 30.4303 33.4108H30.6303L31.1903 33.2408C31.9995 33.0076 32.7887 32.71 33.5503 32.3508C33.8103 32.2308 34.0503 32.1108 34.3003 31.9708L34.6903 31.7508C34.9403 31.6108 35.1703 31.4608 35.4003 31.3008L35.7303 31.0908C36.0303 30.8708 36.3103 30.6408 36.5903 30.4108L36.6603 30.3508C36.9517 30.0927 37.2288 29.819 37.4903 29.5308C37.5703 29.4508 37.6303 29.3608 37.7103 29.2708C37.7903 29.1808 38.0503 28.8608 38.2103 28.6408L38.4403 28.3108C38.5703 28.1008 38.7003 27.8908 38.8203 27.6808L39.0003 27.3908Z" fill="white"/>
<path d="M23.2909 11.1504C19.4709 11.1504 16.5209 12.9804 15.9709 15.7004C15.8484 16.3593 15.8597 17.0362 16.004 17.6907C16.1483 18.3452 16.4227 18.964 16.8109 19.5104C18.3673 21.5987 20.6717 23.0035 23.2409 23.4304C24.0368 23.5971 24.8478 23.6809 25.6609 23.6804C29.4809 23.6804 32.4209 21.8504 32.9809 19.1304C33.0986 18.4707 33.0841 17.7942 32.9381 17.1401C32.7922 16.4861 32.5178 15.8675 32.1309 15.3204C30.5745 13.2321 28.2702 11.8273 25.7009 11.4004C24.9084 11.2337 24.1008 11.1499 23.2909 11.1504ZM32.0009 18.9304C31.852 19.5679 31.5422 20.1567 31.1009 20.6404C29.5392 18.6432 27.2897 17.2992 24.7909 16.8704C23.9943 16.7086 23.1838 16.6249 22.3709 16.6204C20.5337 16.5733 18.726 17.0897 17.1909 18.1004C16.9112 17.402 16.8451 16.6364 17.0009 15.9004C17.4609 13.6204 20.1109 12.1504 23.3409 12.1504C24.0836 12.1497 24.8243 12.2268 25.5509 12.3804C29.6609 13.2104 32.5709 16.1504 32.0009 18.9304ZM23.4409 22.4504C21.147 22.081 19.082 20.8463 17.6709 19.0004C19.0559 18.0638 20.6996 17.5847 22.3709 17.6304C23.1167 17.6342 23.8602 17.7112 24.5909 17.8604C26.8864 18.2323 28.9516 19.4708 30.3609 21.3204C28.9759 22.257 27.3323 22.7361 25.6609 22.6904C24.9146 22.6877 24.1706 22.6073 23.4409 22.4504Z" fill="#212C3A"/>
</svg>
