<svg width="48" height="48" viewBox="0 0 48 48" fill="none" xmlns="http://www.w3.org/2000/svg">
<path d="M34.9983 27.2001H34.7983L27.4983 25.6901C27.2145 26.1004 26.8274 26.4284 26.3761 26.6409C25.9248 26.8534 25.4253 26.9428 24.9283 26.9001C24.1274 26.8937 23.3344 26.7412 22.5883 26.4501C22.2235 26.2905 21.886 26.0745 21.5883 25.8101C21.2175 25.9147 20.8335 25.9652 20.4483 25.9601C19.654 25.952 18.8679 25.7995 18.1283 25.5101C17.7635 25.3505 17.426 25.1345 17.1283 24.8701C16.7597 24.967 16.3792 25.0108 15.9983 25.0001C15.204 24.992 14.4179 24.8395 13.6783 24.5501C13.3115 24.3942 12.9734 24.1779 12.6783 23.9101C12.3075 24.0147 11.9235 24.0652 11.5383 24.0601C10.7408 24.0519 9.95143 23.8994 9.20827 23.6101C8.47415 23.2532 7.85676 22.6948 7.42827 22.0001L5.82827 21.6001C5.58282 21.5341 5.36963 21.3813 5.22827 21.1701L3.15827 18.0001C3.02064 17.7889 2.96786 17.5334 3.01051 17.285C3.05316 17.0365 3.18808 16.8133 3.38827 16.6601L5.82827 14.8101C6.00282 14.6746 6.21732 14.6008 6.43827 14.6001C6.50458 14.5904 6.57195 14.5904 6.63827 14.6001L7.42827 14.7601C7.65171 14.4057 7.95965 14.1124 8.32444 13.9065C8.68922 13.7005 9.09944 13.5884 9.51827 13.5801C10.0706 13.6246 10.5984 13.8276 11.0383 14.1646C11.4782 14.5016 11.8115 14.9584 11.9983 15.4801H12.1083C12.3363 15.1979 12.6241 14.9699 12.951 14.8126C13.2778 14.6552 13.6355 14.5724 13.9983 14.5701C14.5335 14.6089 15.0467 14.7986 15.4786 15.1172C15.9104 15.4358 16.2432 15.8702 16.4383 16.3701L16.5983 16.4201C16.8224 16.1436 17.1039 15.919 17.4233 15.7619C17.7427 15.6048 18.0924 15.5189 18.4483 15.5101C18.9768 15.5445 19.4847 15.7282 19.9131 16.0397C20.3414 16.3512 20.6727 16.7779 20.8683 17.2701H21.0383C21.2618 17.0001 21.5411 16.7817 21.8569 16.6298C22.1728 16.4779 22.5178 16.3961 22.8683 16.3901C23.3914 16.4253 23.894 16.6072 24.3185 16.915C24.743 17.2227 25.0721 17.6438 25.2683 18.1301L36.2083 20.4001C36.4668 20.4545 36.6933 20.6091 36.8383 20.8301C36.9857 21.0503 37.0396 21.3201 36.9883 21.5801L35.9983 26.4001C35.9515 26.6294 35.8258 26.835 35.6431 26.9811C35.4604 27.1273 35.2322 27.2048 34.9983 27.2001Z" fill="white"/>
<path d="M9.52104 14.6309C10.251 14.6309 10.891 15.3209 11.281 16.3609L11.751 16.4509L11.641 18.5309C11.6987 18.7074 11.7794 18.8755 11.881 19.0309C12.001 17.0309 12.881 15.5409 13.971 15.5409C14.691 15.5409 15.331 16.2109 15.711 17.2209L16.221 17.3209L16.101 19.5009C16.1603 19.6623 16.2375 19.8166 16.331 19.9609C16.451 18.0109 17.331 16.4809 18.421 16.4809C19.131 16.4809 19.761 17.1309 20.141 18.1209L20.691 18.2309L20.571 20.4809C20.6305 20.6259 20.7007 20.7663 20.781 20.9009C20.901 18.9509 21.781 17.4209 22.871 17.4209C23.581 17.4209 24.201 18.0609 24.581 19.0409L36.001 21.3809L35.001 26.2009L26.801 24.5209C26.801 24.5809 26.801 24.6209 26.801 24.6409C26.651 25.6409 25.801 25.9009 24.901 25.9009C24.2508 25.891 23.6075 25.7658 23.001 25.5309C22.5484 25.3181 22.1513 25.0032 21.841 24.6109C21.4309 24.8648 20.9527 24.987 20.471 24.9609C19.814 24.9538 19.1636 24.8285 18.551 24.5909C18.0962 24.3817 17.6983 24.0662 17.391 23.6709C16.9729 23.9218 16.4873 24.0371 16.001 24.0009C15.3451 23.9922 14.6956 23.8704 14.081 23.6409C13.6279 23.4243 13.2309 23.1061 12.921 22.7109C12.5109 22.9648 12.0327 23.087 11.551 23.0609C10.8946 23.0573 10.2442 22.9353 9.63104 22.7009C8.95788 22.3667 8.40816 21.8274 8.06104 21.1609L6.06104 20.6509L4.00104 17.4809L6.44104 15.6209L7.94104 15.9409C8.33104 15.1009 8.88104 14.6309 9.52104 14.6309ZM9.52104 12.6309C9.05895 12.6332 8.60224 12.7302 8.17912 12.9159C7.75601 13.1017 7.37547 13.3722 7.06104 13.7109H6.85104C6.71646 13.6801 6.57906 13.6633 6.44104 13.6609C6.01165 13.6412 5.58735 13.7604 5.23104 14.0009L2.79104 15.8909C2.38906 16.1959 2.11724 16.6416 2.03007 17.1386C1.94291 17.6356 2.04684 18.1472 2.32104 18.5709L4.40104 21.7609C4.67377 22.1822 5.09498 22.4856 5.58104 22.6109L6.83104 22.9209C7.34828 23.6254 8.03663 24.1864 8.83104 24.5509C9.70089 24.8933 10.6263 25.0729 11.561 25.0809C11.8592 25.0836 12.157 25.0602 12.451 25.0109C12.7129 25.1952 12.9907 25.3558 13.281 25.4909C14.149 25.8252 15.0709 25.9981 16.001 26.0009C16.3004 26.0279 16.6016 26.0279 16.901 26.0009C17.1629 26.1852 17.4407 26.3458 17.731 26.4809C18.6009 26.8233 19.5263 27.0029 20.461 27.0109C20.759 27.009 21.0564 26.9856 21.351 26.9409C21.6107 27.1257 21.8889 27.2832 22.181 27.4109C23.0555 27.7625 23.9885 27.9457 24.931 27.9509C25.4806 27.9822 26.0306 27.8998 26.5468 27.7088C27.063 27.5178 27.5343 27.2223 27.931 26.8409L34.651 28.2109C34.784 28.2256 34.9181 28.2256 35.051 28.2109C35.5189 28.2203 35.9753 28.0654 36.3408 27.773C36.7062 27.4807 36.9575 27.0694 37.051 26.6109L38.051 21.7909C38.1036 21.5335 38.105 21.2682 38.055 21.0103C38.0051 20.7524 37.9048 20.5068 37.7599 20.2877C37.6151 20.0685 37.4285 19.8801 37.2107 19.733C36.993 19.586 36.7485 19.4833 36.491 19.4309L25.911 17.3009C25.6108 16.7618 25.1774 16.3087 24.6522 15.9849C24.127 15.661 23.5275 15.4771 22.911 15.4509C22.3094 15.4501 21.7199 15.62 21.211 15.9409C20.8938 15.5068 20.4805 15.1519 20.0035 14.9038C19.5265 14.6558 18.9986 14.5213 18.461 14.5109C17.8594 14.5101 17.2699 14.68 16.761 15.0009C16.4417 14.5666 16.0266 14.2117 15.548 13.9637C15.0693 13.7157 14.54 13.5813 14.001 13.5709C13.3994 13.5701 12.8099 13.74 12.301 14.0609C11.9827 13.6279 11.5692 13.2738 11.0924 13.0259C10.6156 12.7779 10.0883 12.6428 9.55104 12.6309H9.52104Z" fill="#212C3A"/>
<path d="M8.76944 21.8491H8.64944L5.99944 21.1491C5.87606 21.1205 5.76854 21.0453 5.69944 20.9391L3.57944 17.7491C3.51116 17.6429 3.48557 17.5148 3.50783 17.3906C3.53009 17.2663 3.59854 17.155 3.69944 17.0791L6.12944 15.2291C6.21779 15.1592 6.32679 15.1206 6.43944 15.1191H6.53944L9.07944 15.6591C9.19582 15.6828 9.29998 15.7471 9.37327 15.8406C9.44656 15.934 9.48419 16.0505 9.47944 16.1691L9.26944 21.3591C9.26574 21.4332 9.24593 21.5056 9.21138 21.5712C9.17684 21.6368 9.1284 21.6942 9.06944 21.7391C8.98314 21.8058 8.87838 21.8442 8.76944 21.8491Z" fill="white"/>
<path d="M6.44142 15.6191L9.00142 16.1691L8.79142 21.3591L6.09142 20.6691L4.00142 17.4791L6.44142 15.6191ZM6.44142 14.6191C6.22047 14.6198 6.00597 14.6937 5.83142 14.8291L3.39142 16.6791C3.19654 16.8317 3.06514 17.0511 3.02266 17.2949C2.98017 17.5387 3.02962 17.7897 3.16142 17.9991L5.23142 21.1891C5.37279 21.4004 5.58597 21.5532 5.83142 21.6191L8.52142 22.2991C8.60448 22.3087 8.68837 22.3087 8.77142 22.2991C8.98779 22.2991 9.19833 22.229 9.37142 22.0991C9.49036 22.0101 9.58798 21.8957 9.65717 21.7643C9.72636 21.6328 9.76539 21.4876 9.77142 21.3391L10.0014 16.2091C10.0061 15.9752 9.92867 15.747 9.7825 15.5643C9.63632 15.3816 9.4307 15.2559 9.20142 15.2091L6.67142 14.6691H6.46142L6.44142 14.6191Z" fill="#212C3A"/>
<path d="M11.5699 23.5809C10.8386 23.5742 10.1142 23.4388 9.42986 23.1809C8.62186 22.7212 7.95801 22.0453 7.51287 21.2292C7.06772 20.4131 6.8589 19.4891 6.90986 18.5609C6.90986 16.0809 8.05986 14.1309 9.51986 14.1309C10.9799 14.1309 12.1199 16.0409 12.1399 18.4909C12.2399 18.7109 12.6399 19.3609 12.9499 19.8509C13.9499 21.3909 14.0199 21.6209 13.9499 21.8509C13.8799 22.5309 13.4299 23.5809 11.5699 23.5809Z" fill="white"/>
<path d="M9.52019 14.6309C10.6902 14.6309 11.6402 16.3909 11.6402 18.5609C11.6402 18.8409 13.5202 21.5609 13.4802 21.8309C13.3302 22.8309 12.4802 23.0809 11.5702 23.0809C10.9074 23.0758 10.2507 22.9539 9.63019 22.7209C8.91001 22.3024 8.32076 21.6914 7.9286 20.9566C7.53645 20.2217 7.35692 19.3921 7.41019 18.5609C7.41019 16.3909 8.35019 14.6309 9.52019 14.6309ZM9.52019 13.6309C7.75019 13.6309 6.41019 15.7509 6.41019 18.5609C6.35515 19.5857 6.59063 20.6053 7.08952 21.5023C7.58841 22.3992 8.33044 23.137 9.23019 23.6309C9.97691 23.9199 10.7695 24.0723 11.5702 24.0809C13.1802 24.0809 14.2602 23.3009 14.4702 21.9809C14.5502 21.5009 14.3602 21.1809 13.3702 19.5809C13.1302 19.1909 12.7802 18.6309 12.6402 18.3709C12.5802 15.6609 11.2602 13.6309 9.52019 13.6309Z" fill="#212C3A"/>
<path d="M15.9987 24.5203C15.2694 24.5176 14.547 24.3786 13.8687 24.1103C13.0605 23.6527 12.3956 22.979 11.9487 22.1648C11.5019 21.3505 11.2906 20.4279 11.3387 19.5003C11.3387 17.0203 12.4887 15.0703 13.9487 15.0703C15.4087 15.0703 16.5487 16.9803 16.5687 19.4303C16.6687 19.6503 17.0687 20.3003 17.3787 20.7903C18.3787 22.3303 18.4487 22.5603 18.3787 22.8403C18.3287 23.4703 17.8887 24.5203 15.9987 24.5203Z" fill="white"/>
<path d="M14.0007 15.5703C15.1707 15.5703 16.1207 17.3303 16.1207 19.5003C16.1207 19.7703 18.0007 22.5003 17.9607 22.7603C17.8107 23.7603 16.9607 24.0203 16.0507 24.0203C15.3915 24.0114 14.7387 23.8897 14.1207 23.6603C13.3978 23.244 12.8059 22.6338 12.4118 21.8986C12.0177 21.1635 11.8372 20.3327 11.8907 19.5003C11.8907 17.3303 12.8307 15.5703 14.0007 15.5703ZM14.0007 14.5703C12.2307 14.5703 10.8907 16.6903 10.8907 19.5003C10.8356 20.5252 11.0711 21.5448 11.57 22.4417C12.0689 23.3387 12.8109 24.0765 13.7107 24.5703C14.4429 24.8467 15.218 24.9922 16.0007 25.0003C17.6107 25.0003 18.6907 24.2203 18.9007 22.9003C18.9807 22.4103 18.7907 22.1003 17.8007 20.5003C17.5607 20.1103 17.2107 19.5503 17.0707 19.2903C17.0007 16.5903 15.7107 14.5703 14.0007 14.5703Z" fill="#212C3A"/>
<path d="M20.4714 25.46C19.742 25.4573 19.0196 25.3183 18.3414 25.05C17.5331 24.5924 16.8683 23.9187 16.4214 23.1045C15.9745 22.2902 15.7633 21.3676 15.8114 20.44C15.8114 18 17.0014 16 18.4214 16C19.8414 16 21.0014 17.92 21.0014 20.37C21.1014 20.58 21.5014 21.24 21.8114 21.73C22.7614 23.27 22.8814 23.5 22.8114 23.78C22.7814 24.41 22.3414 25.46 20.4714 25.46Z" fill="white"/>
<path d="M18.4219 16.5098C19.5919 16.5098 20.5419 18.2698 20.5419 20.4398C20.5419 20.7098 22.4219 23.4398 22.3819 23.6998C22.2319 24.6998 21.3819 24.9598 20.4719 24.9598C19.8116 24.9537 19.1577 24.8284 18.5419 24.5898C17.8183 24.1769 17.2255 23.5688 16.8311 22.8349C16.4368 22.1011 16.2569 21.2711 16.3119 20.4398C16.3119 18.2698 17.2519 16.5098 18.4219 16.5098ZM18.4219 15.5098C16.6519 15.5098 15.3119 17.6298 15.3119 20.4398C15.259 21.4655 15.4965 22.4853 15.9971 23.3821C16.4977 24.279 17.2411 25.0164 18.1419 25.5098C18.8848 25.8002 19.6744 25.9527 20.4719 25.9598C22.0819 25.9598 23.1619 25.1698 23.3719 23.8598C23.4519 23.3698 23.2619 23.0598 22.2719 21.4598C22.0319 21.0698 21.6819 20.4598 21.5419 20.2498C21.4819 17.5298 20.1619 15.5098 18.4219 15.5098Z" fill="#212C3A"/>
<path d="M24.9306 26.4009C24.199 26.3972 23.4741 26.2617 22.7906 26.0009C21.9823 25.5433 21.3175 24.8697 20.8706 24.0554C20.4238 23.2411 20.2125 22.3185 20.2606 21.3909C20.2606 18.9109 21.4106 16.9609 22.8706 16.9609C24.3306 16.9609 25.4706 18.8709 25.4906 21.3209C25.5906 21.5309 26.0006 22.1909 26.3006 22.6709C27.2506 24.2209 27.3706 24.4509 27.3006 24.7309C27.2306 25.3509 26.7906 26.4009 24.9306 26.4009Z" fill="white"/>
<path d="M22.869 17.4492C23.999 17.4492 24.999 19.2092 24.999 21.3792C24.999 21.6492 26.879 24.3792 26.839 24.6392C26.689 25.6392 25.839 25.8992 24.939 25.8992C24.2752 25.8942 23.6179 25.7688 22.999 25.5292C22.2761 25.1155 21.6839 24.5072 21.2897 23.7735C20.8955 23.0399 20.7151 22.2103 20.769 21.3792C20.769 19.2092 21.709 17.4492 22.879 17.4492M22.879 16.4492C21.109 16.4492 19.769 18.5692 19.769 21.3792C19.7161 22.4049 19.9536 23.4248 20.4542 24.3216C20.9547 25.2184 21.6981 25.9559 22.599 26.4492C23.3451 26.7404 24.1381 26.8929 24.939 26.8992C25.5974 26.9822 26.2627 26.8112 26.7995 26.4211C27.3364 26.031 27.7045 25.4511 27.829 24.7992C27.909 24.3092 27.719 23.9992 26.729 22.3992C26.489 22.0092 26.139 21.3992 25.999 21.1792C25.939 18.4692 24.619 16.4492 22.879 16.4492Z" fill="#212C3A"/>
<path d="M11.7506 16.4498L10.0606 16.0898C10.0606 16.0898 8.17058 17.9298 10.1906 21.0898L11.4906 21.4398" stroke="#212C3A" stroke-linejoin="round"/>
<path d="M16.2199 17.35L14.5299 17C14.5299 17 12.6499 18.85 14.6699 22L15.9599 22.33" stroke="#212C3A" stroke-linejoin="round"/>
<path d="M20.6893 18.2602L18.9993 17.9102C18.9993 17.9102 17.1293 19.7602 19.1493 22.9102L20.4293 23.2302" stroke="#212C3A" stroke-linejoin="round"/>
<path d="M23.4716 18.8203C23.4716 18.8203 21.6316 20.7203 23.6316 23.8203L35.0016 26.2003L36.0016 21.3803L23.4716 18.8203Z" fill="white" stroke="#212C3A" stroke-linejoin="round"/>
<path d="M37.6413 32.3499C37.4282 32.3649 37.2144 32.3649 37.0013 32.3499L34.7813 31.9599C34.0821 31.8517 33.4119 31.6038 32.8106 31.231C32.2092 30.8581 31.6892 30.3681 31.2813 29.7899C30.6324 28.8223 30.1847 27.7341 29.9648 26.59C29.7449 25.4458 29.7573 24.2692 30.0013 23.1299C30.7113 19.0499 33.6913 15.9699 36.9213 15.9699C37.1344 15.9553 37.3482 15.9553 37.5613 15.9699L39.7713 16.3699C40.4716 16.4751 41.1435 16.7207 41.7467 17.0919C42.3498 17.463 42.8718 17.9522 43.2813 18.5299C43.9291 19.4925 44.3779 20.575 44.6012 21.7136C44.8244 22.8522 44.8177 24.024 44.5813 25.1599C43.8713 29.2399 40.9013 32.3099 37.6713 32.3099L37.6413 32.3499Z" fill="white"/>
<path d="M36.8893 17.0007C37.0591 16.9908 37.2294 16.9908 37.3993 17.0007L39.5593 17.3907C42.4493 17.7607 44.2393 21.1807 43.5593 25.0307C42.9293 28.6407 40.3393 31.3507 37.6293 31.3507C37.4594 31.3607 37.2891 31.3607 37.1193 31.3507L34.9993 30.9307C32.1093 30.5607 30.3193 27.1407 30.9993 23.3007C31.6293 19.6807 34.2193 16.9707 36.9293 16.9707M36.9293 14.9707C33.2193 14.9707 29.8193 18.4007 29.0293 22.9707C28.7693 24.2389 28.7663 25.5463 29.0205 26.8157C29.2747 28.085 29.781 29.2905 30.5093 30.3607C30.9966 31.0489 31.6181 31.6314 32.3365 32.0731C33.0549 32.5147 33.8552 32.8065 34.6893 32.9307C36.8293 33.3107 36.8493 33.3207 36.9093 33.3207C37.1642 33.3576 37.4217 33.3743 37.6793 33.3707C41.3893 33.3707 44.7793 29.9407 45.5793 25.3707C45.8293 24.1023 45.8227 22.7967 45.56 21.5309C45.2972 20.2651 44.7835 19.0647 44.0493 18.0007C43.5618 17.3135 42.9401 16.7324 42.2216 16.2923C41.5031 15.8523 40.7029 15.5626 39.8693 15.4407L39.3593 15.3407L37.6493 15.0007C37.3961 14.9858 37.1424 14.9858 36.8893 15.0007L36.9293 14.9707Z" fill="#212C3A"/>
<path d="M39.05 17.3608C39.2199 17.3509 39.3902 17.3509 39.56 17.3608C42.45 17.7308 44.24 21.1508 43.56 25.0008C42.93 28.6108 40.34 31.3208 37.63 31.3208C37.4602 31.3308 37.2899 31.3308 37.12 31.3208C34.23 30.9508 32.44 27.5308 33.12 23.6908C33.75 20.0708 36.34 17.3608 39.05 17.3608ZM39.05 16.3608C35.82 16.3608 32.85 19.4408 32.13 23.5108C31.8979 24.6476 31.8942 25.8192 32.1191 26.9574C32.344 28.0956 32.793 29.1777 33.44 30.1408C33.855 30.7252 34.3847 31.219 34.9968 31.5921C35.6088 31.9651 36.2904 32.2097 37 32.3108C37.2131 32.326 37.4269 32.326 37.64 32.3108C40.87 32.3108 43.84 29.2408 44.55 25.1608C44.7864 24.0248 44.7931 22.8531 44.5699 21.7145C44.3466 20.5758 43.8979 19.4934 43.25 18.5308C42.8341 17.9472 42.3042 17.454 41.6923 17.081C41.0805 16.7081 40.3993 16.463 39.69 16.3608C39.4769 16.3459 39.2631 16.3459 39.05 16.3608Z" fill="#212C3A"/>
<path d="M42.0386 24.5498L42.0586 22.9198L40.1886 23.2498L39.1886 22.2998L39.1286 19.8398L37.8286 20.0698L37.8786 22.5898L36.8886 23.8098L35.0786 24.1298L35.0586 25.7498L37.0186 25.4098L37.9786 26.3498L38.0286 28.8898L39.3386 28.6598L39.2786 26.0198L40.0786 24.8898L42.0386 24.5498Z" fill="#212C3A"/>
</svg>
