<svg width="48" height="48" viewBox="0 0 48 48" fill="none" xmlns="http://www.w3.org/2000/svg">
<path d="M27.7495 30.49H27.5395L6.59952 26.17C6.5268 26.1558 6.45622 26.1323 6.38952 26.1C4.07952 25.04 2.76953 22.1 3.20953 18.89C3.71953 15.25 6.20953 12.5 9.04953 12.5H9.27952H9.41953L30.3595 16.69C30.4894 16.7158 30.6128 16.767 30.7226 16.8408C30.8325 16.9147 30.9266 17.0095 30.9995 17.12C31.1469 17.3402 31.2009 17.61 31.1495 17.87L28.7195 29.67C28.6778 29.8979 28.5583 30.1042 28.3814 30.2538C28.2045 30.4033 27.9812 30.4868 27.7495 30.49Z" fill="white"/>
<path d="M9.05027 13.5H9.23027L30.1703 17.69L27.7403 29.49L6.80027 25.19C4.94027 24.34 3.80027 21.83 4.20027 19.03C4.63027 15.93 6.75027 13.5 9.05027 13.5ZM9.05027 11.5C5.73027 11.5 2.79027 14.62 2.22027 18.75C1.72027 22.37 3.22027 25.75 5.97027 27.01C6.10831 27.0716 6.25243 27.1185 6.40027 27.15L27.3403 31.45C27.4768 31.4598 27.6138 31.4598 27.7503 31.45C28.2096 31.4478 28.6542 31.2875 29.0093 30.9962C29.3644 30.7048 29.6084 30.3001 29.7003 29.85L32.1303 18.05C32.1825 17.791 32.1829 17.5242 32.1314 17.265C32.0799 17.0058 31.9775 16.7594 31.8303 16.54C31.5361 16.0997 31.0794 15.7941 30.5603 15.69L9.62027 11.54H9.33027L9.05027 11.5Z" fill="#212C3A"/>
<path d="M32.9018 43.3704C32.2664 43.3669 31.6318 43.3235 31.0018 43.2404C27.1118 42.7404 24.2318 37.9804 22.5018 34.0704C21.9418 32.8104 21.4018 31.6904 20.8718 30.6104C19.3118 27.4204 18.0718 24.8904 18.3418 22.0304C18.5818 19.4304 20.0418 17.4604 21.5818 15.3904C22.3657 14.3673 23.0934 13.3024 23.7618 12.2004C26.0018 8.34036 29.1018 5.88036 32.2018 5.47036C33.1046 5.36422 34.0128 5.3108 34.9218 5.31036C35.5241 5.29938 36.1263 5.33953 36.7218 5.43036C38.5095 5.94376 40.0642 7.06035 41.1218 8.59036C42.2087 10.1618 43.0203 11.9067 43.5218 13.7504C44.0541 15.6287 44.4254 17.549 44.6318 19.4904C44.82 21.1503 44.9101 22.8198 44.9018 24.4904C44.9018 24.9304 44.9018 25.3804 44.9018 25.8204C44.819 27.5844 44.6017 29.3395 44.2518 31.0704C43.827 33.2434 43.1105 35.3492 42.1218 37.3304C41.1587 39.3345 39.6645 41.0362 37.8018 42.2504C37.5161 42.4299 37.2187 42.5902 36.9118 42.7304H36.8018C35.5443 43.1505 34.2276 43.3666 32.9018 43.3704Z" fill="white"/>
<path d="M34.9212 6.30977C35.4634 6.29979 36.0054 6.33659 36.5412 6.41977C38.0769 6.88084 39.4078 7.85514 40.3112 9.17977C41.3278 10.648 42.0885 12.2777 42.5612 13.9998C43.078 15.8187 43.4361 17.679 43.6312 19.5598C43.8164 21.1865 43.9066 22.8226 43.9012 24.4598C43.9012 24.8864 43.9012 25.3164 43.9012 25.7498C43.827 27.4572 43.6163 29.1559 43.2712 30.8298C42.8773 32.9106 42.2045 34.9287 41.2712 36.8298C40.3735 38.6746 38.9908 40.2405 37.2712 41.3598C37.0154 41.5134 36.7517 41.6536 36.4812 41.7798C35.3315 42.1506 34.1293 42.3329 32.9212 42.3198C32.326 42.318 31.7314 42.2779 31.1412 42.1998C27.9412 41.7798 25.2712 37.7498 23.4412 33.6198C21.1912 28.5398 19.0412 25.5198 19.3512 22.0698C19.6612 18.6198 22.5212 16.2798 24.6412 12.6598C26.7612 9.03977 29.5612 6.77977 32.3512 6.40977C33.211 6.31013 34.0758 6.26004 34.9412 6.25977M34.9412 4.25977C33.9887 4.26073 33.0371 4.3175 32.0912 4.42977C28.6812 4.87977 25.3412 7.51976 22.9212 11.6498C22.2717 12.7201 21.5605 13.7519 20.7912 14.7398C19.2412 16.8398 17.6312 19.0098 17.3612 21.8898C17.0712 25.0198 18.3612 27.6598 19.9912 30.9998C20.5112 32.0698 21.0512 33.1798 21.6112 34.4298C24.2812 40.4298 27.4012 43.7298 30.8912 44.1798C31.5542 44.2699 32.2222 44.3166 32.8912 44.3198C34.3132 44.332 35.7278 44.1159 37.0812 43.6798C37.1584 43.6602 37.2325 43.6299 37.3012 43.5898C37.646 43.4355 37.9801 43.2585 38.3012 43.0598C40.3228 41.7731 41.9493 39.9528 43.0012 37.7998C44.0405 35.7401 44.7877 33.5457 45.2212 31.2798C45.5915 29.5008 45.8189 27.695 45.9012 25.8798C45.9012 25.4198 45.9012 24.9598 45.9012 24.4998C45.9069 22.7891 45.8134 21.0796 45.6212 19.3798C45.4096 17.381 45.0282 15.4039 44.4812 13.4698C43.9527 11.5131 43.09 9.66257 41.9312 7.99977C40.76 6.30874 39.0448 5.06998 37.0712 4.48977H36.9112C36.2503 4.38159 35.5808 4.33472 34.9112 4.34977L34.9412 4.25977Z" fill="#212C3A"/>
<path d="M8.24164 25.9003H7.78164C7.22815 25.8209 6.69647 25.6303 6.21868 25.3398C5.74089 25.0493 5.32688 24.6651 5.00164 24.2103C4.4513 23.4354 4.05935 22.5596 3.84828 21.6329C3.63721 20.7062 3.61116 19.747 3.77164 18.8103C4.23164 15.4403 6.53164 12.9003 9.11164 12.9003C9.2648 12.89 9.41848 12.89 9.57164 12.9003C10.1271 12.9746 10.6617 13.161 11.143 13.4481C11.6242 13.7351 12.0423 14.1169 12.3716 14.5703C12.9239 15.3496 13.3153 16.2312 13.5231 17.1635C13.7308 18.0958 13.7508 19.0602 13.5816 20.0003C13.1216 23.3703 10.8216 25.9003 8.24164 25.9003Z" fill="white"/>
<path d="M9.08903 13.4006C9.22216 13.3904 9.35589 13.3904 9.48903 13.4006C11.939 13.6906 13.549 16.6006 13.089 19.9006C12.659 23.0206 10.529 25.3706 8.23903 25.3706C8.10588 25.3806 7.97218 25.3806 7.83903 25.3706C5.39903 25.0806 3.83903 22.1606 4.23903 18.8606C4.67903 15.7406 6.79903 13.3906 9.08903 13.3906M9.08903 12.3906C6.25903 12.3906 3.74903 15.1206 3.24903 18.7306C2.91293 20.7556 3.39494 22.8311 4.58903 24.5006C4.95629 25.0078 5.42343 25.4344 5.96171 25.7542C6.49999 26.0741 7.09803 26.2805 7.71903 26.3606C7.89222 26.3706 8.06584 26.3706 8.23903 26.3606C11.069 26.3606 13.579 23.6406 14.079 20.0306C14.248 19.0287 14.2175 18.0032 13.9892 17.013C13.761 16.0229 13.3395 15.0875 12.749 14.2606C12.3803 13.7518 11.9117 13.3235 11.3718 13.0019C10.8319 12.6804 10.2321 12.4724 9.60903 12.3906H9.09903H9.08903Z" fill="#212C3A"/>
<path d="M11.2494 26.5195C11.0996 26.5295 10.9493 26.5295 10.7994 26.5195C10.2416 26.4415 9.70558 26.2505 9.22414 25.9582C8.74269 25.6659 8.32595 25.2785 7.99942 24.8195C7.44759 24.0454 7.05475 23.1696 6.84362 22.2427C6.6325 21.3158 6.60728 20.3562 6.76942 19.4195C7.22942 16.0495 9.52942 13.5195 12.1094 13.5195H12.5694C13.1249 13.5939 13.6594 13.7803 14.1407 14.0673C14.622 14.3544 15.04 14.7362 15.3694 15.1895C16.4779 16.7558 16.9202 18.6977 16.5994 20.5895C16.1394 23.9995 13.8394 26.5195 11.2494 26.5195Z" fill="white"/>
<path d="M12.1104 14C12.2435 13.99 12.3772 13.99 12.5104 14C14.9504 14.29 16.5104 17.2 16.1104 20.5C15.6704 23.67 13.5504 26 11.2504 26C11.1205 26.0099 10.9902 26.0099 10.8604 26C8.41035 25.71 6.80035 22.8 7.26035 19.5C7.69035 16.37 9.82035 14 12.1104 14ZM12.1104 13C9.28035 13 6.77035 15.72 6.27035 19.33C6.09868 20.3351 6.12783 21.3643 6.35611 22.3581C6.58439 23.3518 7.00728 24.2906 7.60035 25.12C7.96978 25.6291 8.43843 26.0581 8.97807 26.3812C9.51772 26.7043 10.1172 26.9148 10.7404 27C10.9102 27.01 11.0805 27.01 11.2504 27C14.0904 27 16.6004 24.27 17.1004 20.66C17.4365 18.6351 16.9544 16.5596 15.7604 14.89C15.3931 14.3829 14.9259 13.9562 14.3877 13.6364C13.8494 13.3165 13.2514 13.1101 12.6304 13.03C12.4572 13.02 12.2835 13.02 12.1104 13.03V13Z" fill="#212C3A"/>
<path d="M14.2683 27.1296H13.8083C13.2491 27.0518 12.7116 26.8609 12.2285 26.5686C11.7454 26.2764 11.3268 25.8888 10.9983 25.4296C9.88857 23.8526 9.44981 21.8998 9.77834 19.9996C10.2483 16.6396 12.5383 14.0996 15.1283 14.0996H15.5783C16.1345 14.1717 16.6699 14.3571 17.1515 14.6443C17.6331 14.9316 18.0506 15.3146 18.3783 15.7696C19.4913 17.334 19.9373 19.2764 19.6183 21.1696C19.1483 24.5896 16.8483 27.1296 14.2683 27.1296Z" fill="white"/>
<path d="M15.1285 14.6306H15.5285C17.9685 14.9206 19.5285 17.8406 19.1185 21.1406C18.6885 24.2606 16.5685 26.6106 14.2685 26.6106H13.8685C11.4285 26.3206 9.86851 23.4106 10.2785 20.1106C10.7085 16.9906 12.8285 14.6406 15.1285 14.6406M15.1285 13.6406C12.2985 13.6406 9.78851 16.3606 9.28851 19.9706C9.1182 20.9742 9.14804 22.0015 9.37629 22.9934C9.60455 23.9854 10.0267 24.9224 10.6185 25.7506C10.987 26.2565 11.4545 26.6822 11.9926 27.002C12.5306 27.3217 13.128 27.5288 13.7485 27.6106H14.2685C17.0985 27.6106 19.6085 24.8906 20.1085 21.2706C20.2769 20.2686 20.2461 19.2433 20.0179 18.2532C19.7897 17.2632 19.3685 16.3278 18.7785 15.5006C18.408 14.9944 17.9388 14.5686 17.3991 14.2489C16.8594 13.9293 16.2604 13.7223 15.6385 13.6406H15.1285Z" fill="#212C3A"/>
<path d="M17.2894 27.7391C17.1363 27.749 16.9826 27.749 16.8294 27.7391C16.2624 27.6626 15.7177 27.4682 15.2303 27.1686C14.7429 26.8689 14.3236 26.4705 13.9994 25.9991C13.4476 25.225 13.0548 24.3492 12.8436 23.4223C12.6325 22.4954 12.6073 21.5358 12.7694 20.5991C13.2294 17.2391 15.5294 14.6991 18.1094 14.6991C18.2626 14.6888 18.4163 14.6888 18.5694 14.6991C19.1249 14.7735 19.6594 14.9598 20.1407 15.2469C20.622 15.5339 21.04 15.9157 21.3694 16.3691C21.9212 17.1432 22.3141 18.019 22.5252 18.9459C22.7363 19.8728 22.7616 20.8324 22.5994 21.7691C22.1694 25.1991 19.8694 27.7391 17.2894 27.7391Z" fill="white"/>
<path d="M18.1395 15.2401H18.5395C20.9795 15.5401 22.5895 18.4501 22.1395 21.7501C21.7095 24.8701 19.5795 27.2201 17.2895 27.2201H16.8895C14.4495 26.9301 12.8395 24.0101 13.2895 20.7101C13.7195 17.5901 15.8495 15.2401 18.1395 15.2401ZM18.1395 14.2401C15.3095 14.2401 12.7995 16.9601 12.2995 20.5801C11.965 22.6035 12.443 24.6772 13.6295 26.3501C14.0013 26.855 14.4708 27.28 15.0103 27.5995C15.5498 27.9191 16.1481 28.1267 16.7695 28.2101C16.9427 28.22 17.1163 28.22 17.2895 28.2101C20.1195 28.2101 22.6295 25.4901 23.1295 21.8801C23.469 19.8533 22.9907 17.7747 21.7995 16.1001C21.429 15.5939 20.9598 15.1681 20.4201 14.8484C19.8804 14.5287 19.2815 14.3218 18.6595 14.2401C18.4864 14.2299 18.3127 14.2299 18.1395 14.2401Z" fill="#212C3A"/>
<path d="M20.3005 28.3491H19.8505C19.2951 28.2748 18.7605 28.0884 18.2792 27.8014C17.7979 27.5143 17.3799 27.1325 17.0505 26.6791C15.9396 25.1138 15.4937 23.1723 15.8105 21.2791C16.2805 17.9091 18.5805 15.3691 21.1605 15.3691H21.6205C22.176 15.4435 22.7105 15.6299 23.1918 15.9169C23.6731 16.204 24.0911 16.5858 24.4205 17.0391C25.5259 18.6068 25.9679 20.5474 25.6505 22.4391C25.1805 25.8191 22.8905 28.3491 20.3005 28.3491Z" fill="white"/>
<path d="M21.1608 15.8498C21.294 15.8399 21.4277 15.8399 21.5608 15.8498C24.0008 16.1398 25.6108 19.0498 25.1508 22.3498C24.7208 25.4698 22.6008 27.8198 20.3008 27.8198C20.171 27.8298 20.0406 27.8298 19.9108 27.8198C17.4608 27.5298 15.8508 24.6198 16.3108 21.3098C16.7408 18.1898 18.8708 15.8398 21.1608 15.8398M21.1608 14.8398C18.3308 14.8398 15.8208 17.5698 15.3208 21.1798C15.1456 22.1897 15.173 23.2243 15.4013 24.2234C15.6296 25.2226 16.0544 26.1664 16.6508 26.9998C17.0201 27.5073 17.489 27.934 18.0289 28.2538C18.5689 28.5736 19.1684 28.7799 19.7908 28.8598C19.9607 28.8698 20.131 28.8698 20.3008 28.8598C23.1308 28.8598 25.6508 26.1398 26.1508 22.5298C26.3178 21.5272 26.2854 20.5015 26.0555 19.5114C25.8255 18.5213 25.4026 17.5863 24.8108 16.7598C24.4441 16.2513 23.9773 15.8231 23.439 15.5015C22.9008 15.1799 22.3025 14.9718 21.6808 14.8898H21.1608V14.8398Z" fill="#212C3A"/>
<path d="M32.8997 42.8705C32.2845 42.8704 31.6698 42.8303 31.0597 42.7505C27.4097 42.2705 24.6397 37.6605 22.9597 33.8705C22.3997 32.6005 21.8197 31.4305 21.3197 30.4005C19.7897 27.2705 18.5797 24.7905 18.8297 22.0805C19.0597 19.6105 20.4797 17.7105 21.9797 15.6905C22.7759 14.6558 23.5137 13.5775 24.1897 12.4605C26.3797 8.72055 29.3197 6.36055 32.2697 5.96055C33.1498 5.8632 34.0344 5.81313 34.9197 5.81055C35.4922 5.79893 36.0645 5.8391 36.6297 5.93055C38.2986 6.42821 39.7438 7.48823 40.7197 8.93055C41.7728 10.4525 42.5575 12.1437 43.0397 13.9305C43.5663 15.7753 43.931 17.6624 44.1297 19.5705C44.3196 21.2303 44.4098 22.9 44.3997 24.5705C44.3997 25.0105 44.3997 25.4405 44.3997 25.8805C44.3127 27.6023 44.0887 29.3144 43.7297 31.0005C43.3132 33.1289 42.6102 35.191 41.6397 37.1305C40.7239 39.0541 39.2947 40.6875 37.5097 41.8505C37.2386 42.0195 36.9581 42.1731 36.6697 42.3106C35.4507 42.6959 34.1781 42.8849 32.8997 42.8705Z" fill="white"/>
<path d="M34.9206 6.30977C35.4628 6.29979 36.0048 6.33659 36.5406 6.41977C38.0763 6.88084 39.4072 7.85514 40.3106 9.17977C41.3271 10.648 42.0879 12.2777 42.5606 13.9998C43.0774 15.8187 43.4354 17.679 43.6306 19.5598C43.8158 21.1865 43.906 22.8226 43.9006 24.4598C43.9006 24.8864 43.9006 25.3164 43.9006 25.7498C43.8264 27.4572 43.6157 29.1559 43.2706 30.8298C42.8767 32.9106 42.2039 34.9287 41.2706 36.8298C40.3729 38.6746 38.9902 40.2405 37.2706 41.3598C37.0148 41.5134 36.7511 41.6536 36.4806 41.7798C35.3309 42.1506 34.1287 42.3329 32.9206 42.3198C32.3253 42.318 31.7308 42.2779 31.1406 42.1998C27.9406 41.7798 25.2706 37.7498 23.4406 33.6198C21.1906 28.5398 19.0406 25.5198 19.3506 22.0698C19.6606 18.6198 22.5206 16.2798 24.6406 12.6598C26.7606 9.03977 29.5606 6.77977 32.3506 6.40977C33.2104 6.31012 34.0751 6.26004 34.9406 6.25977M34.9406 5.25977C34.0316 5.2602 33.1234 5.31362 32.2206 5.41977C29.1206 5.82977 26.0506 8.28977 23.7806 12.1498C23.1122 13.2518 22.3845 14.3167 21.6006 15.3398C20.0606 17.4098 18.6006 19.3398 18.3606 21.9798C18.0906 24.8398 19.3606 27.3598 20.8906 30.5598C21.4206 31.6398 21.9606 32.7598 22.5206 34.0198C24.2506 37.9298 27.1306 42.6898 31.0206 43.1898C31.6506 43.2729 32.2852 43.3163 32.9206 43.3198C34.2337 43.3289 35.5399 43.1298 36.7906 42.7298H36.9006C37.2065 42.5875 37.5037 42.4272 37.7906 42.2498C39.6534 41.0356 41.1475 39.3339 42.1106 37.3298C43.0994 35.3486 43.8158 33.2428 44.2406 31.0698C44.5912 29.3423 44.8085 27.5905 44.8906 25.8298C44.8906 25.3798 44.8906 24.9298 44.8906 24.4898C44.8943 22.8194 44.8041 21.1501 44.6206 19.4898C44.4142 17.5484 44.0429 15.6281 43.5106 13.7498C43.0092 11.9061 42.1976 10.1612 41.1106 8.58977C40.0753 7.08099 38.5541 5.97273 36.8006 5.44977H36.7206C36.1251 5.35893 35.5229 5.31879 34.9206 5.32977L34.9406 5.25977Z" fill="#212C3A"/>
<path d="M31.6909 7.56069C32.0452 7.55719 32.3993 7.57724 32.7509 7.62069C35.1509 7.92069 38.3609 10.7407 39.5009 17.7107C40.233 22.3663 40.0633 27.1192 39.0009 31.7107C38.4483 34.7751 37.0647 37.6289 35.0009 39.9607C33.9184 41.1932 32.4195 41.9836 30.7909 42.1807H30.7009C28.2709 42.1807 25.7009 38.8207 24.9009 37.4607L24.4209 36.4007L25.5609 10.9707L27.6909 7.97069C29.0159 7.77544 30.3519 7.66522 31.6909 7.64069M31.6909 6.64069C30.1771 6.6748 28.6672 6.80842 27.1709 7.04069L24.6209 10.6607L23.4609 36.6607L24.0609 38.0007C24.0609 38.0007 27.1809 43.2507 30.7509 43.2507H30.8809C32.7742 43.0703 34.5253 42.1679 35.7709 40.7307C37.9609 38.2251 39.4237 35.1681 40.0009 31.8907C41.0875 27.1876 41.2641 22.3201 40.5209 17.5507C39.8809 13.6507 37.6709 7.22069 32.9009 6.62069C32.509 6.57868 32.1151 6.55865 31.7209 6.56069L31.6909 6.64069Z" fill="#212C3A"/>
</svg>
