<svg width="48" height="48" viewBox="0 0 48 48" fill="none" xmlns="http://www.w3.org/2000/svg">
<path d="M23.9982 27.48H23.7982L6.05824 23.83C5.98202 23.812 5.90819 23.7852 5.83824 23.75C3.83824 22.83 2.68824 20.26 3.06824 17.5C3.50824 14.34 5.69824 12 8.15824 12H8.35824H8.50824L26.2182 15.54C26.4768 15.5945 26.7033 15.7491 26.8482 15.97C26.9956 16.1902 27.0496 16.46 26.9982 16.72L24.9982 26.68C24.9515 26.9093 24.8258 27.1149 24.6431 27.2611C24.4604 27.4072 24.2322 27.4847 23.9982 27.48Z" fill="white"/>
<path d="M8.16123 13H8.31123L26.0012 16.5L24.0012 26.48L6.26123 22.85C4.69123 22.12 3.74123 20 4.06123 17.63C4.43123 15 6.22123 13 8.16123 13ZM8.16123 11C5.16123 11 2.59123 13.76 2.08123 17.41C1.64123 20.6 3.02123 23.61 5.43123 24.71C5.56714 24.7792 5.71179 24.8296 5.86123 24.86L23.5712 28.49C23.7044 28.4999 23.8381 28.4999 23.9712 28.49C24.4391 28.4994 24.8955 28.3445 25.261 28.0521C25.6264 27.7598 25.8777 27.3486 25.9712 26.89L28.0012 16.9C28.0537 16.6419 28.0547 16.376 28.0041 16.1175C27.9535 15.8591 27.8524 15.6131 27.7065 15.3939C27.5606 15.1746 27.3729 14.9863 27.154 14.8397C26.9352 14.6932 26.6896 14.5913 26.4312 14.54L8.70123 11H8.42123H8.16123Z" fill="#212C3A"/>
<path d="M7.44168 23.5895C7.31187 23.5994 7.18149 23.5994 7.05168 23.5895C6.57174 23.526 6.10972 23.3657 5.69369 23.1181C5.27767 22.8706 4.91634 22.541 4.63168 22.1495C4.15578 21.4832 3.81701 20.7291 3.63504 19.9308C3.45307 19.1326 3.43153 18.3061 3.57168 17.4995C4.00168 14.6095 6.00168 12.4395 8.17168 12.4395H8.56168C9.04768 12.5033 9.51525 12.6668 9.93512 12.9198C10.355 13.1727 10.7181 13.5096 11.0017 13.9095C11.9341 15.2561 12.2937 16.9178 12.0017 18.5295C11.6417 21.4095 9.67168 23.5895 7.44168 23.5895Z" fill="white"/>
<path d="M8.17186 12.9395H8.51187C10.5719 13.1895 11.9319 15.6495 11.5119 18.4395C11.0919 21.2295 9.34187 23.0695 7.40187 23.0695H7.07187C5.00187 22.8195 3.64187 20.3595 4.07187 17.5695C4.50187 14.7795 6.23186 12.9395 8.17186 12.9395ZM8.17186 11.9395C5.70186 11.9395 3.51186 14.2995 3.08186 17.4295C2.93512 18.2975 2.96117 19.1861 3.15851 20.0441C3.35585 20.9021 3.72061 21.7127 4.23186 22.4295C4.5628 22.8709 4.97803 23.2422 5.45352 23.522C5.929 23.8018 6.45528 23.9845 7.00186 24.0595C7.1517 24.0694 7.30203 24.0694 7.45186 24.0595C9.92186 24.0595 12.1119 21.6995 12.5519 18.5695C12.6972 17.7007 12.6695 16.8118 12.4705 15.9538C12.2714 15.0957 11.9049 14.2855 11.3919 13.5695C11.0602 13.1342 10.6437 12.7707 10.1676 12.5008C9.69153 12.231 9.1657 12.0604 8.62186 11.9995C8.47203 11.9895 8.3217 11.9895 8.17186 11.9995V11.9395Z" fill="#212C3A"/>
<path d="M10.0014 24.1095C9.86823 24.1197 9.7345 24.1197 9.60137 24.1095C9.12143 24.0461 8.65941 23.8857 8.24338 23.6382C7.82736 23.3906 7.46603 23.061 7.18136 22.6695C6.70288 22.0007 6.36266 21.2432 6.18064 20.4413C5.99863 19.6394 5.97847 18.8093 6.12136 17.9995C6.52136 15.1295 8.50136 12.9995 10.7214 12.9995C10.8545 12.9898 10.9882 12.9898 11.1214 12.9995C11.5999 13.063 12.0604 13.2235 12.4748 13.4711C12.8891 13.7187 13.2487 14.0482 13.5314 14.4395C14.0037 15.1037 14.3404 15.8545 14.5223 16.6489C14.7042 17.4434 14.7277 18.2659 14.5914 19.0695C14.1914 21.9295 12.2214 24.1095 10.0014 24.1095Z" fill="white"/>
<path d="M10.7202 13.4607C10.8333 13.4511 10.9471 13.4511 11.0602 13.4607C13.1202 13.7007 14.4802 16.1707 14.0602 18.9607C13.6402 21.7507 11.9402 23.6107 10.0002 23.6107H9.67019C7.60019 23.3607 6.24019 20.9007 6.67019 18.1007C7.03019 15.4707 8.83019 13.4807 10.7702 13.4807M10.7702 12.4807C8.30019 12.4807 6.11019 14.8407 5.68019 17.9707C5.39049 19.7238 5.80371 21.5204 6.83019 22.9707C7.15998 23.411 7.57363 23.7817 8.04732 24.0615C8.52101 24.3412 9.04537 24.5245 9.59019 24.6007C9.74003 24.6106 9.89036 24.6106 10.0402 24.6007C12.5202 24.6007 14.7002 22.2407 15.1402 19.1107C15.2855 18.242 15.2578 17.3531 15.0588 16.495C14.8597 15.637 14.4932 14.8267 13.9802 14.1107C13.6541 13.6657 13.2416 13.2911 12.7674 13.0093C12.2931 12.7275 11.7669 12.5443 11.2202 12.4707H10.7702V12.4807Z" fill="#212C3A"/>
<path d="M12.5506 24.6195C12.4174 24.6297 12.2837 24.6297 12.1506 24.6195C11.6706 24.5561 11.2086 24.3957 10.7926 24.1482C10.3766 23.9006 10.0152 23.571 9.73056 23.1795C8.7817 21.8358 8.40083 20.1722 8.67056 18.5495C9.07056 15.6695 11.0506 13.4995 13.2706 13.4995C13.4037 13.4898 13.5374 13.4898 13.6706 13.4995C14.1502 13.564 14.6118 13.7248 15.0276 13.9723C15.4435 14.2197 15.8051 14.5487 16.0906 14.9395C16.5612 15.6044 16.8961 16.3555 17.0763 17.15C17.2564 17.9444 17.2783 18.7666 17.1406 19.5695C16.7406 22.4495 14.7706 24.6195 12.5506 24.6195Z" fill="white"/>
<path d="M13.2685 13.9995C13.3816 13.9899 13.4953 13.9899 13.6084 13.9995C15.6684 14.2395 17.0285 16.7095 16.6085 19.4995C16.1885 22.2895 14.4485 24.1195 12.5085 24.1195C12.3953 24.1298 12.2816 24.1298 12.1685 24.1195C10.0985 23.8795 8.73845 21.4095 9.16845 18.6195C9.59845 15.8295 11.3285 13.9995 13.2685 13.9995ZM13.2685 12.9995C10.7985 12.9995 8.60845 15.3595 8.17845 18.4895C7.88432 20.2427 8.29792 22.041 9.32845 23.4895C9.65653 23.9325 10.0696 24.3056 10.5434 24.5872C11.0173 24.8688 11.5425 25.0531 12.0885 25.1295H12.5485C15.0185 25.1295 17.2084 22.7695 17.6384 19.6395C17.7849 18.7708 17.7578 17.8816 17.5587 17.0235C17.3596 16.1653 16.9924 15.355 16.4784 14.6395C16.1535 14.1956 15.7426 13.8217 15.2702 13.54C14.7977 13.2582 14.2734 13.0744 13.7284 12.9995C13.5753 12.9897 13.4216 12.9897 13.2685 12.9995Z" fill="#212C3A"/>
<path d="M36.7215 31.0901H36.5215L15.2315 26.7001C15.1542 26.692 15.0793 26.6682 15.0115 26.6301C12.7115 25.5801 11.4215 22.5101 11.8815 19.1701C12.3915 15.5001 14.8815 12.8301 17.7015 12.8301H17.9415H18.0815L39.3815 17.0901C39.6413 17.148 39.8697 17.3015 40.0215 17.5201C40.1655 17.7418 40.2158 18.0114 40.1615 18.2701L37.7015 30.2701C37.6595 30.4996 37.5385 30.7073 37.3596 30.857C37.1806 31.0068 36.9549 31.0892 36.7215 31.0901Z" fill="white"/>
<path d="M17.7003 13.8301H17.8903L39.1803 18.0901L36.7203 30.0901L15.4303 25.7201C13.5303 24.8501 12.4803 22.1501 12.8703 19.3101C13.3103 16.1601 15.3703 13.8301 17.7003 13.8301ZM17.7003 11.8301C14.3303 11.8301 11.4703 14.8301 10.8903 19.0301C10.3703 22.8001 11.8903 26.3001 14.5903 27.5401C14.7266 27.6061 14.8713 27.6532 15.0203 27.6801L36.3203 32.0501C36.4533 32.0644 36.5874 32.0644 36.7203 32.0501C37.1882 32.0595 37.6446 31.9046 38.01 31.6122C38.3755 31.3199 38.6268 30.9086 38.7203 30.4501L41.1803 18.4501C41.2608 17.9423 41.1426 17.423 40.8503 17.0001C40.7056 16.7802 40.519 16.5911 40.301 16.4435C40.0831 16.2959 39.8382 16.1928 39.5803 16.1401L18.2803 11.8801C18.1873 11.8702 18.0934 11.8702 18.0003 11.8801L17.7003 11.8301Z" fill="#212C3A"/>
<path d="M35.8283 33.9999C35.4557 33.9978 35.0841 33.961 34.7183 33.8899L27.8683 32.4099C27.0451 32.2325 26.2664 31.8903 25.5789 31.404C24.8915 30.9176 24.3096 30.2971 23.8683 29.5799C22.314 26.9583 21.8372 23.836 22.5383 20.8699C23.5883 15.8699 27.1283 12.1699 30.9383 12.1699C31.3149 12.1692 31.6905 12.2094 32.0583 12.2899L38.9083 13.7399C39.7076 13.9117 40.4641 14.2428 41.1325 14.7136C41.8009 15.1844 42.3674 15.7851 42.7983 16.4799C44.3448 19.1418 44.8033 22.2981 44.0783 25.2899C42.9983 30.3399 39.5583 33.9999 35.8283 33.9999Z" fill="white"/>
<path d="M30.94 13.1699C31.2527 13.1685 31.5647 13.2021 31.87 13.2699L38.7 14.7199C42.27 15.4299 44.14 20.0699 43.1 25.0899C42.1 29.6699 39.1 32.9999 35.83 32.9999C35.5212 32.9992 35.2131 32.9691 34.91 32.9099L28.08 31.4399C24.52 30.7299 22.48 26.0899 23.52 21.0699C24.52 16.4899 27.68 13.1699 30.94 13.1699ZM30.94 11.1699C26.65 11.1699 22.71 15.1699 21.56 20.6599C20.7768 23.8832 21.2941 27.2852 23 30.1299C23.5155 30.9616 24.1942 31.6801 24.9951 32.2422C25.796 32.8042 26.7026 33.198 27.66 33.3999L34.46 34.8599C34.9004 34.9539 35.3496 35.0008 35.8 34.9999C40 34.9999 43.88 30.9999 45.03 25.4899C45.8244 22.239 45.3109 18.8061 43.6 15.9299C43.0986 15.1206 42.4374 14.422 41.6568 13.8769C40.8761 13.3319 39.9925 12.9518 39.06 12.7599L32.26 11.3099C31.8156 11.2196 31.3635 11.1727 30.91 11.1699H30.94Z" fill="#212C3A"/>
<path d="M37.7713 14.631C38.0835 14.6311 38.3949 14.6613 38.7013 14.721C42.2713 15.431 44.1413 20.071 43.1013 25.091C42.1013 29.6709 39.1013 33.0009 35.8313 33.0009C35.5225 33.0002 35.2145 32.9701 34.9113 32.9109C31.3513 32.201 29.3113 27.541 30.3513 22.531C31.3513 17.941 34.5113 14.631 37.7713 14.631ZM37.7713 12.631C33.4913 12.631 29.5413 16.631 28.4013 22.121C27.6172 25.3542 28.1457 28.7665 29.8713 31.611C30.3887 32.44 31.0681 33.1561 31.8688 33.7162C32.6696 34.2764 33.5752 34.6692 34.5313 34.8709C34.9591 34.9587 35.3947 35.0023 35.8313 35.0009C40.0313 35.0009 43.9113 31.0009 45.0613 25.4909C45.8558 22.24 45.3423 18.8071 43.6313 15.931C43.13 15.1216 42.4687 14.423 41.6881 13.878C40.9075 13.3329 40.0239 12.9528 39.0913 12.761C38.657 12.6722 38.2147 12.6286 37.7713 12.631Z" fill="#212C3A"/>
<path d="M36.6586 27.3192C35.9582 26.9076 35.3298 26.384 34.7986 25.7692C34.5543 24.9715 34.5198 24.1242 34.6986 23.3092C34.8304 22.6539 35.0922 22.0316 35.4686 21.4792C35.9988 20.9665 36.602 20.5352 37.2586 20.1992L39.2586 21.6492C38.7863 22.8492 38.6955 24.1657 38.9986 25.4192C38.0391 25.7921 37.2206 26.4567 36.6586 27.3192Z" fill="#212C3A"/>
<path d="M37.2282 20.7891L38.6982 21.8391C38.3268 22.8974 38.2237 24.0313 38.3982 25.1391C37.671 25.4939 37.0296 26.0023 36.5182 26.6291C36.0489 26.319 35.622 25.9493 35.2482 25.5291C35.0572 24.8411 35.0366 24.1169 35.1882 23.4191C35.3002 22.8522 35.521 22.3123 35.8382 21.8291C36.2599 21.4415 36.7265 21.1058 37.2282 20.8291M37.3082 19.6591C36.4794 20.0637 35.72 20.5969 35.0582 21.2391C34.6525 21.8458 34.3673 22.5248 34.2182 23.2391C34.0214 24.1548 34.0662 25.106 34.3482 25.9991C35.0453 26.8081 35.8819 27.4855 36.8182 27.9991C37.094 27.4515 37.4797 26.9664 37.9511 26.5742C38.4224 26.182 38.9695 25.8909 39.5582 25.7191C39.1046 24.3204 39.2121 22.8001 39.8582 21.4791L37.2582 19.6191L37.3082 19.6591Z" fill="#212C3A"/>
</svg>
