<svg width="48" height="48" viewBox="0 0 48 48" fill="none" xmlns="http://www.w3.org/2000/svg">
<path d="M29.2003 30.2993C28.2657 30.2893 27.3407 30.1098 26.4703 29.7693C26.0221 29.5853 25.6093 29.3247 25.2503 28.9993C24.7914 29.1455 24.3119 29.2164 23.8303 29.2093C22.8997 29.2018 21.9781 29.0256 21.1103 28.6893C20.6632 28.4859 20.2513 28.2124 19.8903 27.8793C19.4298 28.0171 18.951 28.0846 18.4703 28.0793C17.5397 28.0718 16.6181 27.8956 15.7503 27.5593C15.2998 27.3619 14.887 27.0879 14.5303 26.7493C14.0716 26.8962 13.5919 26.9671 13.1103 26.9593C12.1797 26.9518 11.2581 26.7756 10.3903 26.4393C9.50823 26.0168 8.76561 25.3506 8.2503 24.5193L7.7503 24.3793C7.59277 24.3349 7.44855 24.2525 7.3303 24.1393L3.9003 20.8193C3.67198 20.5917 3.50467 20.3102 3.41379 20.0008C3.32291 19.6915 3.31139 19.3643 3.3803 19.0493C3.44523 18.7401 3.58621 18.4521 3.7905 18.2111C3.99479 17.9701 4.25593 17.7839 4.5503 17.6693L7.8503 16.6093L8.0003 16.5393C8.23035 16.0315 8.59735 15.5978 9.06014 15.2869C9.52292 14.976 10.0632 14.8002 10.6203 14.7793C11.2607 14.8328 11.8719 15.0711 12.3795 15.4651C12.8872 15.8592 13.2696 16.3922 13.4803 16.9993C13.5855 17.0196 13.6868 17.0568 13.7803 17.1093C14.0317 16.7506 14.3632 16.4554 14.7486 16.2471C15.1339 16.0388 15.5625 15.9232 16.0003 15.9093C16.6219 15.9638 17.2152 16.1939 17.711 16.5728C18.2068 16.9517 18.5846 17.4638 18.8003 18.0493H18.8903C18.9979 18.0771 19.102 18.1174 19.2003 18.1693C19.4498 17.8227 19.7748 17.5373 20.1507 17.3346C20.5266 17.1319 20.9436 17.0173 21.3703 16.9993C21.9833 17.0424 22.5708 17.2616 23.0622 17.6306C23.5536 17.9996 23.928 18.5026 24.1403 19.0793H24.2903C24.4006 19.0982 24.506 19.139 24.6003 19.1993C24.8512 18.8684 25.1724 18.5972 25.5407 18.4053C25.909 18.2133 26.3153 18.1054 26.7303 18.0893C27.9803 18.0893 29.0703 19.0293 29.7303 20.6593L32.4003 27.1993C32.4945 27.4128 32.5291 27.6478 32.5003 27.8793C32.3903 28.5793 31.8403 30.2293 29.2103 30.2293L29.2003 30.2993Z" fill="white"/>
<path d="M10.6498 15.7793C11.5298 15.7793 12.2998 16.5993 12.7598 17.8493L13.3298 17.9593L13.1998 20.4593C13.2705 20.6677 13.368 20.866 13.4898 21.0493C13.6398 18.6993 14.6998 16.8693 16.0098 16.8693C16.8798 16.8693 17.6398 17.6693 18.0998 18.8693L18.7098 18.9893L18.5798 21.5993C18.6482 21.7956 18.7388 21.9835 18.8498 22.1593C18.9998 19.8693 20.0598 17.9993 21.3698 17.9993C22.2298 17.9993 22.9798 18.7793 23.4398 19.9993L24.0998 20.1193L23.9998 22.8293C24.0632 23.0083 24.1471 23.1795 24.2498 23.3393C24.3998 20.9893 25.4598 19.1593 26.7698 19.1593C27.6198 19.1593 28.3598 19.9293 28.8298 21.0993L31.4998 27.6493C31.5098 27.6954 31.5098 27.7432 31.4998 27.7893C31.3198 28.9593 30.2698 29.2993 29.1998 29.2993C28.4036 29.2878 27.6154 29.1389 26.8698 28.8593C26.327 28.6016 25.8512 28.2217 25.4798 27.7493C24.9847 28.0524 24.4096 28.1988 23.8298 28.1693C23.0363 28.1631 22.2505 28.014 21.5098 27.7293C20.9652 27.479 20.4886 27.1018 20.1198 26.6293C19.6208 26.9222 19.0478 27.0646 18.4698 27.0393C17.6775 27.0302 16.8927 26.8848 16.1498 26.6093C15.6069 26.3516 15.1312 25.9717 14.7598 25.4993C14.2647 25.8024 13.6896 25.9488 13.1098 25.9193C12.3163 25.9131 11.5305 25.764 10.7898 25.4793C9.97784 25.0811 9.31529 24.4325 8.8998 23.6293L7.9998 23.3793L4.5898 20.0893C4.4857 19.9807 4.40981 19.8483 4.36876 19.7036C4.32772 19.559 4.32277 19.4064 4.35435 19.2594C4.38593 19.1123 4.45307 18.9753 4.54991 18.8602C4.64674 18.7451 4.77031 18.6555 4.9098 18.5993L8.1598 17.5993L8.7398 17.3893C9.20979 16.3893 9.8798 15.8193 10.6498 15.8193M10.6498 13.8193C9.98457 13.8378 9.33488 14.0245 8.76132 14.362C8.18776 14.6995 7.70903 15.1768 7.3698 15.7493L4.2998 16.7493H4.1798C3.7363 16.9288 3.34371 17.2146 3.03656 17.5814C2.72942 17.9483 2.51713 18.385 2.41836 18.8532C2.31959 19.3213 2.33738 19.8066 2.47015 20.2662C2.60293 20.7259 2.84662 21.1459 3.1798 21.4893L3.2398 21.5493L6.6698 24.8393C6.90451 25.0606 7.18927 25.2219 7.4998 25.3093L7.6598 25.3593C8.25238 26.226 9.06765 26.9169 10.0198 27.3593C11.0134 27.7528 12.0711 27.9595 13.1398 27.9693C13.5324 27.9702 13.9242 27.9334 14.3098 27.8593C14.6394 28.1122 14.9988 28.3238 15.3798 28.4893C16.3742 28.8789 17.4318 29.0823 18.4998 29.0893C18.8926 29.0952 19.2849 29.0583 19.6698 28.9793C19.9992 29.2353 20.3585 29.4502 20.7398 29.6193C21.7345 30.0078 22.7919 30.2111 23.8598 30.2193C24.244 30.2019 24.6257 30.1483 24.9998 30.0593C25.3294 30.3122 25.6888 30.5238 26.0698 30.6893C27.0673 31.0815 28.128 31.2883 29.1998 31.2993C31.9798 31.2993 33.1998 29.6393 33.4798 28.0993C33.5392 27.6922 33.4838 27.2766 33.3198 26.8993L30.6398 20.3493C29.8498 18.3493 28.3898 17.1593 26.7298 17.1593C25.9507 17.1598 25.1941 17.4202 24.5798 17.8993C24.2447 17.3409 23.7757 16.8747 23.2153 16.543C22.6548 16.2113 22.0206 16.0244 21.3698 15.9993C20.5925 16.0007 19.8372 16.2572 19.2198 16.7293C18.875 16.1837 18.4005 15.732 17.8386 15.4145C17.2768 15.0969 16.645 14.9233 15.9998 14.9093C15.2229 14.9129 14.4683 15.1691 13.8498 15.6393C13.5099 15.0883 13.0389 14.6301 12.4788 14.3055C11.9186 13.9809 11.2868 13.8002 10.6398 13.7793L10.6498 13.8193Z" fill="#212C3A"/>
<path d="M9.73955 24.3501H9.60955L7.88955 23.8801C7.80768 23.8582 7.73224 23.8171 7.66955 23.7601L4.14955 20.3101C4.12115 20.2883 4.09735 20.2611 4.07955 20.2301C3.87082 19.9161 3.78978 19.5343 3.85297 19.1627C3.91615 18.791 4.1188 18.4574 4.41955 18.2301L4.56955 18.1501L7.99955 17.0801H8.14955L9.99955 17.1401C10.1324 17.1467 10.2576 17.2039 10.3496 17.3001C10.3943 17.3483 10.4288 17.405 10.4512 17.4669C10.4735 17.5287 10.4831 17.5944 10.4796 17.6601L10.2296 23.8901C10.228 23.9646 10.2091 24.0377 10.1744 24.1037C10.1397 24.1696 10.0901 24.2266 10.0296 24.2701C9.94241 24.3237 9.84184 24.3514 9.73955 24.3501Z" fill="white"/>
<path d="M8.15911 17.5605L9.98911 17.6205L9.73911 23.8505L7.99911 23.3805L4.48911 20.0005C4.36299 19.7929 4.31677 19.5464 4.3591 19.3072C4.40142 19.068 4.5294 18.8523 4.71911 18.7005L8.15911 17.6105M8.15911 16.6105C8.0535 16.6068 7.94819 16.6238 7.84911 16.6605L4.41911 17.7005C4.31014 17.7301 4.20815 17.7811 4.11911 17.8505C3.72671 18.156 3.46218 18.5967 3.37713 19.0867C3.29208 19.5766 3.39261 20.0807 3.65911 20.5005C3.70023 20.5616 3.74711 20.6185 3.79911 20.6705L7.32911 24.1005C7.44797 24.2181 7.59663 24.3011 7.75911 24.3405L9.47911 24.8105C9.56523 24.8244 9.65299 24.8244 9.73911 24.8105C10.0043 24.8105 10.2587 24.7052 10.4462 24.5177C10.6338 24.3301 10.7391 24.0758 10.7391 23.8105L10.9991 17.6605C11.0052 17.5293 10.9853 17.3982 10.9407 17.2747C10.8961 17.1511 10.8276 17.0376 10.7391 16.9405C10.5541 16.7499 10.3043 16.6357 10.0391 16.6205L8.19911 16.5605L8.15911 16.6105Z" fill="#212C3A"/>
<path d="M13.1211 26.4193C12.2558 26.4122 11.3989 26.2496 10.5911 25.9393C9.63069 25.4057 8.83992 24.6125 8.30935 23.6504C7.77879 22.6883 7.52988 21.5963 7.59113 20.4993C7.59113 17.5793 8.93113 15.2793 10.6411 15.2793C12.3511 15.2793 13.6411 17.5793 13.6411 20.4993C13.7011 20.5993 14.2311 21.4993 14.6411 22.0893C15.7611 23.8993 15.9111 24.1893 15.8611 24.4893C15.7211 25.7293 14.7311 26.4193 13.1211 26.4193Z" fill="white"/>
<path d="M10.6488 15.7798C12.0588 15.7798 13.1988 17.8998 13.1988 20.4998C13.1988 20.8198 15.4688 24.1098 15.4188 24.4098C15.2388 25.5898 14.1888 25.9198 13.1188 25.9198C12.3221 25.9132 11.533 25.7642 10.7888 25.4798C9.91722 24.9818 9.20297 24.2492 8.7274 23.3652C8.25182 22.4812 8.03402 21.4815 8.09881 20.4798C8.09881 17.8798 9.2388 15.7598 10.6488 15.7598M10.6488 14.7598C8.6488 14.7598 7.09881 17.2198 7.09881 20.4798C7.03528 21.6733 7.31045 22.8605 7.89257 23.9044C8.47468 24.9484 9.34003 25.8065 10.3888 26.3798C11.2601 26.716 12.1849 26.8921 13.1188 26.8998C15.7488 26.8998 16.2988 25.2498 16.4088 24.5498C16.4888 24.0498 16.3188 23.7398 15.1088 21.8098C14.7988 21.3098 14.3588 20.5898 14.1988 20.2998C14.1988 17.1298 12.6388 14.7598 10.6488 14.7598Z" fill="#212C3A"/>
<path d="M18.4781 27.5502C17.6285 27.5387 16.7881 27.3726 15.9981 27.0602C15.036 26.5284 14.2439 25.7356 13.7131 24.773C13.1823 23.8105 12.9344 22.7175 12.9981 21.6202C12.9981 18.7002 14.3381 16.4102 16.0481 16.4102C17.7581 16.4102 19.0481 18.7002 19.0481 21.6202L20.0481 23.2202C21.1681 25.0202 21.3181 25.3102 21.2681 25.6102C21.0781 26.8602 20.0881 27.5502 18.4781 27.5502Z" fill="white"/>
<path d="M15.9997 16.9104C17.4097 16.9104 18.5497 19.0204 18.5497 21.6204C18.5497 21.9504 20.8197 25.2304 20.7697 25.5404C20.5897 26.7104 19.5397 27.0504 18.4697 27.0504C17.6735 27.0389 16.8853 26.89 16.1397 26.6104C15.2697 26.1107 14.5568 25.3777 14.0815 24.4941C13.6061 23.6106 13.3873 22.6117 13.4497 21.6104C13.4497 19.0104 14.5897 16.9004 15.9997 16.9004M15.9997 15.9004C13.9997 15.9004 12.4497 18.3604 12.4497 21.6104C12.3886 22.8036 12.6648 23.9898 13.2467 25.0333C13.8285 26.0768 14.6925 26.9353 15.7397 27.5104C16.6102 27.8509 17.5352 28.0304 18.4697 28.0404C21.0997 28.0404 21.6497 26.3904 21.7597 25.6804C21.8397 25.1904 21.6697 24.8804 20.4597 22.9404C20.1497 22.4504 19.7097 21.7304 19.5497 21.4304C19.5497 18.2704 17.9897 15.9004 15.9997 15.9004Z" fill="#212C3A"/>
<path d="M23.8402 28.6691C22.9749 28.662 22.118 28.4994 21.3102 28.1891C20.349 27.6564 19.5575 26.8634 19.0269 25.9011C18.4962 24.9387 18.2478 23.8462 18.3102 22.7491C18.3102 19.8291 19.6502 17.5391 21.3602 17.5391C23.0702 17.5391 24.4102 19.8291 24.4102 22.7491C24.4702 22.8491 25.0002 23.7491 25.4102 24.3391C26.5302 26.1491 26.6802 26.4391 26.6302 26.7391C26.4402 27.9991 25.4502 28.6691 23.8402 28.6691Z" fill="white"/>
<path d="M21.3708 18.0005C22.7808 18.0005 23.9208 20.1105 23.9208 22.7105C23.9208 23.0405 26.1908 26.3205 26.1408 26.6205C25.9608 27.8005 24.9108 28.1305 23.8408 28.1305C23.0441 28.1239 22.255 27.9749 21.5108 27.6905C20.6393 27.1925 19.925 26.4599 19.4494 25.5759C18.9738 24.6919 18.756 23.6922 18.8208 22.6905C18.8208 20.0905 19.9608 17.9805 21.3708 17.9805M21.3708 16.9805C19.3708 16.9805 17.8208 19.4305 17.8208 22.6905C17.7597 23.8836 18.0359 25.0699 18.6178 26.1134C19.1996 27.1569 20.0636 28.0153 21.1108 28.5905C21.9821 28.9267 22.907 29.1028 23.8408 29.1105C26.4708 29.1105 27.0208 27.4705 27.1308 26.7605C27.2108 26.2605 27.0408 25.9505 25.8308 24.0205C25.5208 23.5205 25.0808 22.8105 24.9208 22.5105C24.8708 19.4005 23.3608 17.0005 21.3708 17.0005V16.9805Z" fill="#212C3A"/>
<path d="M29.1993 29.8002C28.334 29.7931 27.477 29.6305 26.6693 29.3202C25.7088 28.7866 24.918 27.9934 24.3875 27.0313C23.8569 26.0692 23.608 24.9771 23.6693 23.8802C23.6693 20.9502 25.0093 18.6602 26.7193 18.6602C28.4293 18.6602 29.7793 20.9502 29.7793 23.8802L30.7793 25.4702C31.8993 27.2702 32.0493 27.5602 32.0093 27.8602C31.7993 29.1102 30.8093 29.8002 29.1993 29.8002Z" fill="white"/>
<path d="M26.7306 19.1606C28.1406 19.1606 29.2906 21.2706 29.2906 23.8806C29.2906 24.2006 31.5506 27.4806 31.5006 27.7906C31.3206 28.9606 30.2706 29.3006 29.2006 29.3006C28.4044 29.2891 27.6162 29.1403 26.8706 28.8606C25.9991 28.3627 25.2848 27.63 24.8092 26.7461C24.3337 25.8621 24.1159 24.8623 24.1806 23.8606C24.1806 21.2506 25.3206 19.1406 26.7306 19.1406M26.7306 18.1406C24.7306 18.1406 23.1806 20.6006 23.1806 23.8606C23.1178 25.0527 23.3934 26.2383 23.9756 27.2805C24.5577 28.3226 25.4227 29.179 26.4706 29.7506C27.3411 30.0911 28.2661 30.2707 29.2006 30.2806C31.8306 30.2806 32.3806 28.6306 32.4906 27.9206C32.5706 27.4306 32.4006 27.1206 31.1906 25.1806C30.8906 24.6906 30.4406 23.9706 30.2806 23.6706C30.2306 20.5106 28.7206 18.1406 26.7306 18.1406Z" fill="#212C3A"/>
<path d="M13.33 18.0004L12.14 17.7504C11.8651 17.6901 11.578 17.7221 11.3231 17.8414C11.0682 17.9607 10.8598 18.1607 10.73 18.4104C10.4049 19.1705 10.2758 19.9999 10.3544 20.8228C10.433 21.6457 10.7169 22.4357 11.18 23.1204C11.3536 23.4088 11.6338 23.6172 11.96 23.7004L13 24.0004" stroke="#212C3A" stroke-linejoin="round"/>
<path d="M18.7107 19.0497L17.5307 18.7997C17.2546 18.7384 16.966 18.7711 16.7106 18.8924C16.4552 19.0138 16.2476 19.217 16.1207 19.4697C15.7956 20.228 15.6664 21.0559 15.7451 21.8772C15.8237 22.6985 16.1076 23.4868 16.5707 24.1697C16.655 24.3168 16.7686 24.4451 16.9045 24.5466C17.0404 24.6481 17.1957 24.7206 17.3607 24.7597L18.3607 25.0297" stroke="#212C3A" stroke-linejoin="round"/>
<path d="M24.1015 20.1309L22.9115 19.8909C22.6368 19.8303 22.3498 19.8634 22.0961 19.9848C21.8424 20.1062 21.6366 20.309 21.5115 20.5609C21.1976 21.3254 21.0781 22.1557 21.1636 22.9776C21.2491 23.7995 21.537 24.5875 22.0015 25.2709C22.0855 25.4203 22.2002 25.5502 22.3381 25.6519C22.476 25.7536 22.634 25.8248 22.8015 25.8609L23.8015 26.1109" stroke="#212C3A" stroke-linejoin="round"/>
<path d="M33.2315 38.35C32.7211 38.3501 32.212 38.2999 31.7115 38.2C30.5974 37.9644 29.5426 37.5053 28.611 36.8505C27.6794 36.1956 26.8903 35.3586 26.2915 34.39C24.3364 31.2017 23.725 27.3683 24.5915 23.73C25.8915 17.5 30.4315 13 35.3815 13C35.8985 13.0001 36.4142 13.0504 36.9215 13.15C37.9974 13.3764 39.0168 13.8172 39.9188 14.446C40.8208 15.0748 41.5869 15.8788 42.1715 16.81C44.117 20.058 44.7062 23.9411 43.8115 27.62C42.5115 33.83 38.0615 38.35 33.2315 38.35Z" fill="white"/>
<path d="M35.3801 14.0006C35.83 13.9987 36.2789 14.0423 36.7201 14.1306C41.5501 15.1306 44.1601 21.0306 42.8301 27.4106C41.6201 33.2006 37.5801 37.4106 33.2301 37.4106C32.7838 37.4065 32.3387 37.363 31.9001 37.2806C27.0701 36.2806 24.2301 30.3706 25.5701 23.9906C26.7701 18.1406 31.0001 14.0006 35.3801 14.0006ZM35.3801 12.0006C30.0001 12.0006 25.0001 16.8406 23.6101 23.5206C22.6933 27.4209 23.3546 31.5255 25.4501 34.9406C26.128 36.0143 27.013 36.9423 28.0534 37.6703C29.0939 38.3983 30.269 38.9117 31.5101 39.1806C32.0767 39.2915 32.6527 39.3485 33.2301 39.3506C38.5301 39.3506 43.4001 34.5006 44.7901 27.8106C45.7371 23.8718 45.094 19.7185 43.0001 16.2506C42.3456 15.2062 41.4863 14.3053 40.4739 13.6024C39.4616 12.8994 38.3173 12.4089 37.1101 12.1606C36.5405 12.0475 35.9607 11.9939 35.3801 12.0006Z" fill="#212C3A"/>
<path d="M43.0517 27.7295C42.2078 27.9702 41.4906 28.5296 41.0517 29.2895C40.2602 30.5567 39.5905 31.896 39.0517 33.2895L37.1417 33.5795C37.4317 33.0395 38.2617 30.4395 37.3917 29.3995C36.5217 28.3595 33.2617 28.2695 33.2617 28.2695L33.4317 25.7795C33.4317 25.7795 36.8917 25.6895 37.6817 24.6495C38.4717 23.6095 38.1617 21.1895 37.8217 20.0195L39.6417 19.7695C39.6417 19.7695 40.7217 23.9095 41.2617 24.3295C41.5451 24.5898 41.8847 24.7812 42.2542 24.8887C42.6236 24.9963 43.0129 25.0171 43.3917 24.9495L43.0517 27.7295Z" fill="#212C3A"/>
</svg>
