<svg width="48" height="48" viewBox="0 0 48 48" fill="none" xmlns="http://www.w3.org/2000/svg">
<path d="M8.42122 15C9.06122 15 9.61122 15.66 9.90122 16.62L10.3012 16.7L10.2112 18.37L10.3112 18.54C10.4112 16.98 11.1112 15.75 11.9912 15.75C12.6112 15.75 13.1512 16.39 13.4512 17.33L13.8712 17.41L13.7912 19.14C13.7912 19.14 13.8412 19.23 13.8712 19.29C13.9712 17.73 14.6812 16.51 15.5512 16.51C16.1712 16.51 16.7012 17.12 17.0012 18.04L17.4512 18.13L17.3612 19.91C17.3884 19.9512 17.4118 19.9947 17.4312 20.04C17.5312 18.48 18.2412 17.26 19.1112 17.26C19.7212 17.26 20.2512 17.86 20.5512 18.75L21.0312 18.84L20.9412 20.68C20.9592 20.721 20.9792 20.761 21.0012 20.8C21.1012 19.23 21.8012 18.01 22.6712 18.01C23.2712 18.01 23.8012 18.59 24.1012 19.46L24.6112 19.56L24.5112 21.46V21.55C24.6112 19.98 25.3212 18.76 26.1912 18.76C26.7812 18.76 27.3012 19.32 27.6012 20.17L28.1412 20.27L28.0412 22.27V22.34C28.1412 20.77 28.8512 19.55 29.7212 19.55C30.3012 19.55 30.8112 20.09 31.1212 20.91L31.6812 21.02L31.5812 23.02C32.1021 23.7493 32.5764 24.5109 33.0012 25.3C32.8812 26.08 32.1812 26.3 31.4712 26.3C30.9408 26.293 30.4159 26.1914 29.9212 26C29.5582 25.8284 29.2399 25.5752 28.9912 25.26C28.6616 25.4632 28.2779 25.5609 27.8912 25.54C27.368 25.5357 26.8497 25.4375 26.3612 25.25C25.9965 25.0813 25.6775 24.8276 25.4312 24.51C25.0964 24.7095 24.7106 24.8068 24.3212 24.79C23.7982 24.7834 23.2804 24.6852 22.7912 24.5C22.4297 24.326 22.1119 24.0732 21.8612 23.76C21.5293 23.9576 21.1472 24.0549 20.7612 24.04C20.2381 24.0346 19.72 23.9365 19.2312 23.75C18.8658 23.5778 18.5469 23.3207 18.3012 23C17.9716 23.2032 17.5879 23.3009 17.2012 23.28C16.6686 23.2814 16.1401 23.1866 15.6412 23C15.2762 22.8272 14.9575 22.5701 14.7112 22.25C14.3778 22.4529 13.991 22.5504 13.6012 22.53C13.0789 22.5258 12.5612 22.431 12.0712 22.25C11.711 22.074 11.3962 21.8173 11.1512 21.5C10.8178 21.7029 10.431 21.8004 10.0412 21.78C9.5176 21.7796 8.99868 21.6812 8.51122 21.49C8.17833 21.3379 7.88429 21.1122 7.65122 20.83L5.65122 20.26L4.00122 17.45L5.88122 16L7.13122 16.2C7.44122 15.48 7.90122 15 8.42122 15ZM8.42122 13C8.00522 13.005 7.59482 13.0965 7.21608 13.2687C6.83734 13.4408 6.49854 13.6899 6.22122 14H5.91122C5.46129 13.9998 5.02442 14.1513 4.67122 14.43L2.79122 15.93C2.41362 16.2299 2.1571 16.6562 2.0689 17.1303C1.9807 17.6044 2.06675 18.0943 2.31122 18.51L3.97122 21.33C4.23265 21.774 4.65535 22.1 5.15122 22.24L6.64122 22.66C6.9691 22.9546 7.34004 23.1974 7.74122 23.38C8.48401 23.6706 9.27363 23.8231 10.0712 23.83C10.2776 23.8456 10.4848 23.8456 10.6912 23.83C10.8845 23.9605 11.0886 24.0743 11.3012 24.17C12.044 24.4606 12.8336 24.6131 13.6312 24.62C13.8376 24.636 14.0449 24.636 14.2512 24.62C14.4456 24.7544 14.6534 24.8683 14.8712 24.96C15.612 25.2574 16.4029 25.4102 17.2012 25.41C17.4112 25.41 17.6212 25.41 17.8212 25.41C18.0146 25.5375 18.2187 25.6479 18.4312 25.74C19.1718 26.0392 19.9625 26.1953 20.7612 26.2C20.9712 26.2 21.1812 26.2 21.3812 26.2C21.5746 26.3275 21.7787 26.4379 21.9912 26.53C22.7318 26.8292 23.5225 26.9853 24.3212 26.99C24.5278 27.0006 24.7347 27.0006 24.9412 26.99C25.1381 27.1174 25.3455 27.2278 25.5612 27.32C26.3012 27.6213 27.0922 27.7775 27.8912 27.78C28.0976 27.7952 28.3048 27.7952 28.5112 27.78C28.7068 27.9068 28.9106 28.0204 29.1212 28.12C29.8703 28.4143 30.6665 28.5701 31.4712 28.58C31.8983 28.6184 32.3288 28.5719 32.7379 28.4432C33.1469 28.3144 33.5264 28.106 33.8546 27.8299C34.1827 27.5538 34.4529 27.2156 34.6497 26.8346C34.8465 26.4536 34.966 26.0374 35.0012 25.61C35.1312 24.77 34.8112 24.25 33.9512 22.88L33.7412 22.53L33.8112 21.12C33.8328 20.7129 33.7294 20.3089 33.5149 19.9621C33.3005 19.6154 32.9851 19.3425 32.6112 19.18C32.3288 18.6943 31.9271 18.2887 31.4441 18.0017C30.9611 17.7147 30.4128 17.5558 29.8512 17.54C29.4125 17.5394 28.979 17.6349 28.5812 17.82C28.1448 17.3261 27.5607 16.9864 26.9156 16.8512C26.2706 16.7161 25.5991 16.7928 25.0012 17.07C24.7098 16.7535 24.3557 16.5012 23.9614 16.329C23.5672 16.1569 23.1414 16.0687 22.7112 16.07C22.2725 16.0693 21.839 16.1649 21.4412 16.35C21.1498 16.0335 20.7957 15.7812 20.4014 15.609C20.0072 15.4369 19.5814 15.3487 19.1512 15.35C18.7125 15.3493 18.279 15.4449 17.8812 15.63C17.5902 15.3131 17.2362 15.0604 16.8418 14.8882C16.4475 14.716 16.0215 14.628 15.5912 14.63C15.1491 14.6279 14.712 14.7235 14.3112 14.91C13.8813 14.41 13.2986 14.0656 12.6533 13.93C12.008 13.7945 11.336 13.8753 10.7412 14.16C10.4509 13.8448 10.0985 13.5932 9.70602 13.4211C9.31359 13.2489 8.88974 13.16 8.46122 13.16L8.42122 13Z" fill="#212C3A"/>
<path d="M7.82104 21.3809H7.68104L5.52104 20.7709C5.39898 20.7333 5.29549 20.6512 5.23104 20.5409L3.57104 17.7109C3.50852 17.6065 3.48622 17.4829 3.50831 17.3633C3.5304 17.2436 3.59537 17.1361 3.69104 17.0609L5.57104 15.5709C5.65938 15.501 5.76839 15.4624 5.88104 15.4609H6.00104L8.10104 15.7909C8.22109 15.8103 8.32996 15.8728 8.40727 15.9667C8.48458 16.0606 8.52502 16.1794 8.52104 16.3009L8.32104 20.9009C8.31974 20.9653 8.30577 21.0288 8.27994 21.0877C8.2541 21.1467 8.21691 21.1999 8.17048 21.2445C8.12404 21.2891 8.06929 21.3241 8.00933 21.3475C7.94937 21.3709 7.88539 21.3823 7.82104 21.3809Z" fill="white"/>
<path d="M5.87895 16L7.97895 16.33L7.81895 20.92L5.65895 20.31L3.99895 17.45L5.87895 16ZM5.87895 15C5.65339 15.0013 5.43489 15.0788 5.25895 15.22L3.37895 16.67C3.17982 16.8215 3.0447 17.0421 3.00027 17.2883C2.95584 17.5345 3.00532 17.7885 3.13895 18L4.79895 20.78C4.9287 21.0039 5.14018 21.1688 5.38895 21.24L7.54895 21.85C7.63869 21.8598 7.72922 21.8598 7.81895 21.85C8.03078 21.8508 8.23737 21.7842 8.40895 21.66C8.53102 21.571 8.63133 21.4554 8.70234 21.3221C8.77336 21.1887 8.81322 21.041 8.81895 20.89L8.99895 16.33C9.00204 16.0903 8.91892 15.8575 8.76474 15.6739C8.61056 15.4904 8.39558 15.3683 8.15895 15.33L5.99895 15H5.87895Z" fill="#212C3A"/>
<path d="M10.0589 22.3003C9.46209 22.3093 8.86873 22.2076 8.30895 22.0003C7.64283 21.6285 7.09463 21.077 6.72686 20.4086C6.35909 19.7403 6.18656 18.982 6.22895 18.2203C6.22895 16.1703 7.22895 14.5703 8.41895 14.5703C9.60895 14.5703 10.5889 16.1303 10.6189 18.1403C10.7089 18.3203 11.0289 18.8403 11.2489 19.2003C12.0389 20.4703 12.1289 20.6503 12.0889 20.9103C11.9389 21.7803 11.2089 22.3003 10.0589 22.3003Z" fill="white"/>
<path d="M8.41824 15.0002C9.35824 15.0002 10.1182 16.4102 10.1182 18.1502C10.1182 18.3702 11.6182 20.5602 11.5882 20.7602C11.4682 21.5502 10.7682 21.7602 10.0582 21.7602C9.52747 21.757 9.0019 21.6553 8.50824 21.4602C7.93073 21.1287 7.45778 20.6418 7.14313 20.055C6.82848 19.4681 6.68474 18.8047 6.72824 18.1402C6.72824 16.4002 7.48824 14.9902 8.41824 14.9902M8.41824 13.9902C6.88824 13.9902 5.72824 15.7802 5.72824 18.1402C5.68573 18.9993 5.88653 19.853 6.30755 20.603C6.72857 21.3531 7.35272 21.9691 8.10824 22.3802C8.74552 22.63 9.42376 22.7589 10.1082 22.7602C10.6645 22.8231 11.2244 22.6781 11.6803 22.3533C12.1362 22.0284 12.456 21.5465 12.5782 21.0002C12.6482 20.5202 12.4582 20.2202 11.6682 18.9402C11.4882 18.6502 11.2282 18.2302 11.1182 18.0202C11.0482 15.7102 9.90824 14.0002 8.41824 14.0002V13.9902Z" fill="#212C3A"/>
<path d="M13.6318 23.0493C13.0291 23.0463 12.4322 22.931 11.8718 22.7093C11.2049 22.3384 10.656 21.787 10.2881 21.1185C9.92023 20.4499 9.74821 19.6912 9.79178 18.9293C9.79178 16.9293 10.7918 15.2793 11.9918 15.2793C13.1918 15.2793 14.1618 16.8393 14.1818 18.8493C14.2718 19.0393 14.5918 19.5493 14.8118 19.9093C15.6018 21.1793 15.6918 21.3593 15.6518 21.6193C15.5118 22.5293 14.7718 23.0493 13.6318 23.0493Z" fill="white"/>
<path d="M11.9983 15.7795C12.9283 15.7795 13.6883 17.1895 13.6883 18.9295C13.6883 19.1495 15.1983 21.3395 15.1583 21.5395C15.0383 22.3295 14.3483 22.5395 13.6383 22.5395C13.1053 22.5344 12.5774 22.4362 12.0783 22.2495C11.5023 21.9137 11.0309 21.4246 10.7166 20.8366C10.4024 20.2487 10.2575 19.585 10.2983 18.9195C10.2983 17.1795 11.0583 15.7695 11.9983 15.7695M11.9983 14.7695C10.4583 14.7695 9.29826 16.5595 9.29826 18.9195C9.25694 19.7784 9.45825 20.6316 9.87914 21.3814C10.3 22.1313 10.9235 22.7475 11.6783 23.1595C12.3157 23.4089 12.9938 23.5377 13.6783 23.5395C14.2538 23.61 14.8344 23.4577 15.3012 23.1137C15.7679 22.7697 16.0853 22.2601 16.1883 21.6895C16.2683 21.2095 16.0783 20.9095 15.2783 19.6295C15.0983 19.3395 14.8483 18.9295 14.7283 18.7095C14.6583 16.4495 13.5283 14.7695 12.0383 14.7695H11.9983Z" fill="#212C3A"/>
<path d="M17.1903 23.7991C16.5921 23.7925 15.9997 23.6808 15.4403 23.4691C14.7707 23.0978 14.2194 22.5453 13.8497 21.8749C13.48 21.2045 13.3069 20.4434 13.3503 19.6791C13.3503 17.6791 14.3503 16.0391 15.5503 16.0391C16.7503 16.0391 17.7203 17.5991 17.7403 19.5991C17.8303 19.7891 18.1503 20.2991 18.3703 20.6591C19.1703 21.9391 19.2503 22.1091 19.2103 22.3691C19.0703 23.2791 18.3303 23.7991 17.1903 23.7991Z" fill="white"/>
<path d="M15.5491 16.5393C16.4891 16.5393 17.2391 17.9393 17.2391 19.6793C17.2391 19.8993 18.7491 22.0893 18.7191 22.2893C18.5891 23.0793 17.8991 23.2893 17.1891 23.2893C16.6594 23.2844 16.1347 23.1862 15.6391 22.9993C15.0605 22.6657 14.5864 22.1773 14.2702 21.589C13.954 21.0007 13.8082 20.3359 13.8491 19.6693C13.8491 17.9293 14.6091 16.5293 15.5491 16.5293M15.5491 15.5293C14.0091 15.5293 12.8491 17.3093 12.8491 19.6693C12.8075 20.5294 13.0098 21.3838 13.4327 22.1339C13.8555 22.8841 14.4817 23.4995 15.2391 23.9093C15.8743 24.1662 16.5539 24.2954 17.2391 24.2893C17.8158 24.3601 18.3977 24.208 18.8661 23.8642C19.3344 23.5204 19.6538 23.0107 19.7591 22.4393C19.8291 21.9693 19.6391 21.6593 18.8491 20.3793C18.6691 20.0893 18.4091 19.6793 18.2891 19.4593C18.2291 17.1993 17.0891 15.5293 15.5991 15.5293H15.5491Z" fill="#212C3A"/>
<path d="M20.7506 24.5491C20.1524 24.5425 19.56 24.4308 19.0006 24.2191C18.3336 23.8456 17.7851 23.2923 17.4173 22.6222C17.0496 21.9521 16.8774 21.1922 16.9206 20.4291C16.9206 18.4291 17.9206 16.7891 19.1106 16.7891C20.3006 16.7891 21.2806 18.3491 21.3106 20.3491C21.4006 20.5391 21.7206 21.0591 21.9406 21.4091C22.7306 22.6891 22.8106 22.8591 22.7706 23.1191C22.6306 23.9991 21.9006 24.5491 20.7506 24.5491Z" fill="white"/>
<path d="M19.1095 17.2893C20.0495 17.2893 20.8095 18.6993 20.8095 20.4293C20.8095 20.6493 22.3095 22.8393 22.2795 23.0393C22.1595 23.8293 21.4595 24.0393 20.7495 24.0393C20.2199 24.0334 19.6954 23.9352 19.1995 23.7493C18.6228 23.4144 18.1508 22.9254 17.8364 22.3372C17.522 21.749 17.3776 21.0849 17.4195 20.4193C17.4195 18.6893 18.1695 17.2793 19.1095 17.2793M19.1095 16.2793C17.5695 16.2793 16.4195 18.0593 16.4195 20.4193C16.3775 21.2797 16.5784 22.1345 16.9993 22.886C17.4201 23.6376 18.044 24.2556 18.7995 24.6693C19.4217 24.9101 20.0825 25.0355 20.7495 25.0393C21.3266 25.1126 21.9098 24.9615 22.3787 24.6172C22.8477 24.273 23.1665 23.7618 23.2695 23.1893C23.3395 22.7193 23.1495 22.4093 22.3595 21.1393C22.1795 20.8393 21.9195 20.4293 21.7995 20.2093C21.7395 17.9593 20.5995 16.2793 19.1095 16.2793Z" fill="#212C3A"/>
<path d="M24.3189 25.3003C23.7192 25.3044 23.1235 25.2028 22.5589 25.0003C21.8928 24.6285 21.3446 24.077 20.9769 23.4086C20.6091 22.7403 20.4366 21.982 20.4789 21.2203C20.4789 19.1703 21.4789 17.5703 22.6689 17.5703C23.8589 17.5703 24.8489 19.1303 24.8689 21.1303C24.9589 21.3203 25.2789 21.8403 25.4989 22.1903C26.2889 23.4703 26.3789 23.6403 26.3389 23.9003C26.1989 24.7803 25.4589 25.3003 24.3189 25.3003Z" fill="white"/>
<path d="M22.6711 17.9997C23.6111 17.9997 24.3711 19.4097 24.3711 21.1497C24.3711 21.3597 25.8811 23.5497 25.8411 23.7597C25.7211 24.5397 25.0311 24.7597 24.3211 24.7597C23.7882 24.7545 23.2603 24.6564 22.7611 24.4697C22.1967 24.1352 21.7345 23.6529 21.4243 23.0748C21.1141 22.4968 20.9678 21.8449 21.0011 21.1897C21.0011 19.4497 21.7611 18.0397 22.6911 18.0397M22.6911 17.0397C21.1411 16.9997 20.0011 18.8197 20.0011 21.1897C19.961 22.0484 20.1628 22.9011 20.5835 23.6507C21.0043 24.4004 21.6272 25.0167 22.3811 25.4297C23.0193 25.6752 23.6973 25.8006 24.3811 25.7997C24.9398 25.8558 25.4994 25.7029 25.9519 25.3704C26.4044 25.038 26.7177 24.5496 26.8311 23.9997C26.9111 23.5297 26.7211 23.2197 25.9211 21.9497L25.3711 20.9997C25.3011 18.7397 24.1711 17.0597 22.6711 17.0597L22.6911 17.0397Z" fill="#212C3A"/>
<path d="M27.8813 26.0491C27.2831 26.0425 26.6908 25.9308 26.1313 25.7191C25.4551 25.355 24.896 24.8065 24.519 24.1375C24.142 23.4684 23.9625 22.7061 24.0013 21.9391C24.0013 19.8891 25.0013 18.2891 26.2013 18.2891C27.4013 18.2891 28.3713 19.8491 28.3913 21.8591C28.4813 22.0391 28.8013 22.5591 29.0213 22.9091C29.8113 24.1891 29.9013 24.3691 29.8613 24.6291C29.7613 25.5291 29.0013 26.0491 27.8813 26.0491Z" fill="white"/>
<path d="M26.2402 18.7891C27.1702 18.7891 27.9302 20.1991 27.9302 21.9391C27.9302 22.1491 29.4402 24.3391 29.4102 24.5491C29.2802 25.3291 28.5902 25.5491 27.8802 25.5491C27.3505 25.5442 26.8258 25.446 26.3302 25.2591C25.7516 24.928 25.2773 24.4415 24.961 23.8548C24.6446 23.268 24.4988 22.6044 24.5402 21.9391C24.5402 20.1991 25.3002 18.7891 26.2402 18.7891ZM26.2402 17.7891C24.7002 17.7891 23.5402 19.5691 23.5402 21.9391C23.4998 22.799 23.7026 23.6529 24.1254 24.4028C24.5481 25.1528 25.1736 25.7684 25.9302 26.1791C26.552 26.4209 27.213 26.5464 27.8802 26.5491C28.4557 26.6196 29.0364 26.4672 29.5031 26.1232C29.9698 25.7792 30.2872 25.2696 30.3902 24.6991C30.4702 24.2291 30.2802 23.9291 29.4902 22.6491C29.3102 22.3591 29.0502 21.9391 28.9302 21.7291C28.8602 19.4691 27.7302 17.7891 26.2402 17.7891Z" fill="#212C3A"/>
<path d="M31.4394 26.8091C30.84 26.8053 30.2466 26.69 29.6894 26.4691C29.0222 26.0977 28.4727 25.5466 28.1032 24.8783C27.7337 24.2101 27.5592 23.4516 27.5994 22.6891C27.5994 20.6391 28.5994 19.0391 29.7994 19.0391C30.9994 19.0391 31.9994 20.5991 31.9994 22.6091C32.0894 22.7891 32.4094 23.3091 32.6294 23.6591C33.4194 24.9391 33.4994 25.1191 33.4594 25.3791C33.3194 26.2791 32.5794 26.8091 31.4394 26.8091Z" fill="white"/>
<path d="M29.7991 19.5393C30.7391 19.5393 31.4991 20.9493 31.4991 22.6893C31.4991 22.8993 32.9991 25.0893 32.9691 25.2993C32.8491 26.0793 32.1491 26.2993 31.4391 26.2993C30.9087 26.2923 30.3838 26.1907 29.8891 25.9993C29.3097 25.6691 28.8347 25.1828 28.5183 24.5958C28.2018 24.0089 28.0565 23.3448 28.0991 22.6793C28.0991 20.9393 28.8591 19.5293 29.7991 19.5293M29.7991 18.5293C28.2591 18.5293 27.0991 20.3093 27.0991 22.6793C27.0575 23.5394 27.2598 24.3938 27.6827 25.1439C28.1055 25.8941 28.7317 26.5095 29.4891 26.9193C30.1261 27.17 30.8045 27.2989 31.4891 27.2993C32.0642 27.3673 32.6436 27.214 33.1098 26.8704C33.5759 26.5269 33.8939 26.0188 33.9991 25.4493C34.0691 24.9793 33.8791 24.6793 33.0891 23.3993C32.9091 23.1093 32.6491 22.6893 32.5291 22.4793C32.4691 20.2193 31.3291 18.5393 29.8391 18.5393L29.7991 18.5293Z" fill="#212C3A"/>
<path d="M10.2996 16.7309L8.9096 16.4609C8.9096 16.4609 7.5696 17.7609 8.9996 20.0009L10.1196 20.2709" stroke="#212C3A" stroke-linejoin="round"/>
<path d="M13.8716 17.4397L12.4916 17.1797C12.4916 17.1797 11.1516 18.4697 12.5816 20.6997L13.7016 20.9997" stroke="#212C3A" stroke-linejoin="round"/>
<path d="M17.4498 18.1606L16.0698 17.8906C16.0698 17.8906 14.7298 19.1806 16.1598 21.4206L17.2698 21.6806" stroke="#212C3A" stroke-linejoin="round"/>
<path d="M21.0005 18.8696L19.6205 18.5996C19.6205 18.5996 18.2805 19.8996 19.7105 22.1296L20.8205 22.3996" stroke="#212C3A" stroke-linejoin="round"/>
<path d="M24.6088 19.5903L23.2288 19.3203C23.2288 19.3203 21.8888 20.6103 23.3088 22.8403L24.4288 23.1103" stroke="#212C3A" stroke-linejoin="round"/>
<path d="M28.1902 20.3L26.8002 20C26.8002 20 25.4602 21.3 26.8902 23.53L28.0102 23.8" stroke="#212C3A" stroke-linejoin="round"/>
<path d="M31.7605 21.0002L30.3805 20.7402C30.3805 20.7402 29.0005 22.0002 30.4705 24.2702L31.5905 24.5402" stroke="#212C3A" stroke-linejoin="round"/>
<path d="M37.6413 32.3499C37.4282 32.3652 37.2144 32.3652 37.0013 32.3499L34.7813 31.9599C34.0821 31.8517 33.4119 31.6038 32.8106 31.231C32.2092 30.8581 31.6892 30.3681 31.2813 29.7899C30.6324 28.8223 30.1847 27.7341 29.9648 26.59C29.7449 25.4458 29.7573 24.2692 30.0013 23.1299C30.7113 19.0499 33.6913 15.9699 36.9213 15.9699C37.1344 15.9553 37.3482 15.9553 37.5613 15.9699L39.7713 16.3699C40.4706 16.4742 41.1414 16.7194 41.743 17.0907C42.3446 17.462 42.8646 17.9516 43.2713 18.5299C43.9229 19.4908 44.3747 20.5729 44.5997 21.7119C44.8248 22.8508 44.8185 24.0234 44.5813 25.1599C43.8713 29.2399 40.9013 32.3099 37.6713 32.3099L37.6413 32.3499Z" fill="white"/>
<path d="M36.8893 17.0007C37.0591 16.9908 37.2294 16.9908 37.3993 17.0007L39.5593 17.3907C42.4493 17.7607 44.2393 21.1807 43.5593 25.0307C42.9293 28.6407 40.3393 31.3507 37.6293 31.3507C37.4594 31.3607 37.2891 31.3607 37.1193 31.3507L34.9993 30.9307C32.1093 30.5607 30.3193 27.1407 30.9993 23.3007C31.6293 19.6807 34.2193 16.9707 36.9293 16.9707M36.9293 14.9707C33.2193 14.9707 29.8193 18.4007 29.0293 22.9707C28.7693 24.2389 28.7663 25.5463 29.0205 26.8157C29.2747 28.085 29.781 29.2905 30.5093 30.3607C30.9966 31.0489 31.6181 31.6314 32.3365 32.0731C33.0549 32.5147 33.8552 32.8065 34.6893 32.9307C36.8293 33.3107 36.8493 33.3207 36.9093 33.3207C37.1642 33.3576 37.4217 33.3743 37.6793 33.3707C41.3893 33.3707 44.7793 29.9407 45.5793 25.3707C45.8293 24.1023 45.8227 22.7967 45.56 21.5309C45.2972 20.2651 44.7835 19.0647 44.0493 18.0007C43.5618 17.3135 42.9401 16.7324 42.2216 16.2923C41.5031 15.8523 40.7029 15.5626 39.8693 15.4407L39.3593 15.3407L37.6493 15.0007C37.3961 14.9858 37.1424 14.9858 36.8893 15.0007L36.9293 14.9707Z" fill="#212C3A"/>
<path d="M39.05 17.3608C39.2199 17.3509 39.3902 17.3509 39.56 17.3608C42.45 17.7308 44.24 21.1508 43.56 25.0008C42.93 28.6108 40.34 31.3208 37.63 31.3208C37.4602 31.3308 37.2899 31.3308 37.12 31.3208C34.23 30.9508 32.44 27.5308 33.12 23.6908C33.75 20.0708 36.34 17.3608 39.05 17.3608ZM39.05 16.3608C35.82 16.3608 32.85 19.4408 32.13 23.5108C31.8979 24.6476 31.8942 25.8192 32.1191 26.9574C32.344 28.0956 32.793 29.1777 33.44 30.1408C33.855 30.7252 34.3847 31.219 34.9968 31.5921C35.6088 31.9651 36.2904 32.2097 37 32.3108C37.2131 32.326 37.4269 32.326 37.64 32.3108C40.87 32.3108 43.84 29.2408 44.55 25.1608C44.7864 24.0248 44.7931 22.8531 44.5699 21.7145C44.3466 20.5758 43.8979 19.4934 43.25 18.5308C42.8341 17.9472 42.3042 17.454 41.6923 17.081C41.0805 16.7081 40.3993 16.463 39.69 16.3608C39.4769 16.3459 39.2631 16.3459 39.05 16.3608Z" fill="#212C3A"/>
<path d="M42.0386 24.5498L42.0586 22.9198L40.1886 23.2498L39.1886 22.2998L39.1286 19.8398L37.8286 20.0698L37.8786 22.5898L36.8886 23.8098L35.0786 24.1298L35.0586 25.7498L37.0186 25.4098L37.9786 26.3498L38.0286 28.8898L39.3386 28.6598L39.2786 26.0198L40.0786 24.8898L42.0386 24.5498Z" fill="#212C3A"/>
</svg>
