<svg width="48" height="48" viewBox="0 0 48 48" fill="none" xmlns="http://www.w3.org/2000/svg">
<path d="M39.6697 20.1605C39.2891 19.3762 38.8301 18.6324 38.2997 17.9405C36.4478 15.643 34.0617 13.8337 31.3497 12.6705C29.8359 11.9994 28.2531 11.4964 26.6297 11.1705C26.1297 11.0705 25.6297 10.9905 25.1397 10.9305H24.7497C24.2997 10.8805 23.8497 10.8305 23.4097 10.8105H23.2697C22.7997 10.8105 22.3397 10.8105 21.8797 10.8105H21.3497C21.0297 10.8105 20.7097 10.8105 20.3497 10.8705H19.8197C19.4997 10.8705 19.1897 10.9405 18.8797 10.9905L18.3997 11.0705C18.0197 11.1405 17.6397 11.2205 17.2697 11.3105L17.0597 11.3605C16.6197 11.4672 16.1897 11.5972 15.7697 11.7505L15.4197 11.8805C15.1197 11.9905 14.8297 12.1005 14.5497 12.2205L14.1297 12.4205L13.3997 12.7905C13.2597 12.8605 13.1297 12.9405 12.9997 13.0205C12.8697 13.1005 12.5197 13.3105 12.2997 13.4605L11.9597 13.6805C11.6697 13.9005 11.3897 14.1205 11.1197 14.3505L11.0297 14.4205C10.7359 14.676 10.4587 14.9499 10.1997 15.2405C10.1211 15.3226 10.0476 15.4094 9.97969 15.5005C9.79969 15.7105 9.63969 15.9105 9.47969 16.1205L9.24969 16.4605C9.11969 16.6705 8.98969 16.8805 8.86969 17.0905L8.67969 17.4505C8.56969 17.6805 8.46969 17.9205 8.36969 18.1605L8.23969 18.4905C8.13399 18.841 8.05379 19.1986 7.99969 19.5605C6.66969 26.0005 12.8797 32.6905 21.8497 34.5005C23.3317 34.7953 24.8387 34.946 26.3497 34.9505C33.4597 34.9505 39.3497 31.4605 40.4897 26.1105C40.7397 24.9202 40.7397 23.6909 40.4897 22.5005C40.3088 21.6912 40.0335 20.9058 39.6697 20.1605ZM22.9097 15.8305C23.8064 15.8317 24.7009 15.9222 25.5797 16.1005C28.4232 16.5769 30.9734 18.1314 32.6997 20.4405C33.125 21.0384 33.4264 21.7154 33.5861 22.4316C33.7459 23.1477 33.7607 23.8886 33.6297 24.6105C33.0197 27.6105 29.7697 29.6105 25.5597 29.6105C24.6593 29.6065 23.7615 29.5127 22.8797 29.3305C20.0363 28.8607 17.4849 27.3091 15.7597 25.0005C15.333 24.4035 15.0315 23.7262 14.8734 23.0096C14.7153 22.293 14.7038 21.5517 14.8397 20.8305C15.4497 17.8305 18.6897 15.8305 22.9097 15.8305Z" fill="white"/>
<path d="M37.9992 32.5207C38.1692 32.3207 38.3392 32.1107 38.4992 31.8907L38.7292 31.5607C38.8292 31.4007 38.9192 31.2407 39.0092 31.0807C36.2792 34.0807 31.6892 35.9507 26.3792 35.9507C24.801 35.9474 23.2268 35.79 21.6792 35.4807C16.2092 34.3707 11.3992 31.4007 8.82922 27.4807C8.26078 26.619 7.79748 25.6925 7.44922 24.7207C7.72876 26.6575 8.51533 28.4859 9.72922 30.0207C9.99922 30.3707 10.2992 30.7207 10.6092 31.0207C11.2484 31.7388 11.9476 32.4012 12.6992 33.0007C13.0892 33.3007 13.4892 33.5907 13.9192 33.8607C16.1966 35.311 18.7223 36.3281 21.3692 36.8607C21.8692 36.9607 22.3692 37.0407 22.8492 37.1007H23.2392C23.6892 37.1507 24.1392 37.2007 24.5792 37.2207H24.7192C25.1892 37.2207 25.6492 37.2207 26.1092 37.2207H26.6392C26.9592 37.2207 27.2792 37.2207 27.6392 37.1607L28.1692 37.1107C28.4892 37.1107 28.8092 37.0407 29.1192 36.9907L29.5792 36.9107C29.9692 36.8407 30.3592 36.7607 30.7292 36.6707L30.9292 36.6207C31.3692 36.514 31.7992 36.384 32.2192 36.2307L32.5692 36.1007C32.8592 35.9907 33.1592 35.8807 33.4392 35.7507L33.8492 35.5607L34.5992 35.1907L34.9992 35.0007L35.7092 34.5507L36.0392 34.3307C36.3292 34.1107 36.6192 33.8907 36.8892 33.6507L36.9692 33.5907C37.2606 33.3327 37.5377 33.0589 37.7992 32.7707C37.8292 32.7007 37.8892 32.6107 37.9992 32.5207Z" fill="white"/>
<path d="M16.2812 19.8309C18.0913 18.7457 20.1713 18.1945 22.2812 18.2409C23.2484 18.2438 24.2129 18.3409 25.1612 18.5309C28.1019 19.0521 30.7569 20.6139 32.6412 22.9309C32.5084 22.2368 32.2362 21.5769 31.8412 20.9909C31.5873 20.6308 31.2993 20.2959 30.9812 19.9909C30.0707 19.0992 28.9981 18.3898 27.8212 17.9009C27.0328 17.5642 26.2118 17.3095 25.3713 17.1409C24.5548 16.976 23.7241 16.8923 22.8912 16.8909C19.9012 16.8309 17.3513 18.0009 16.2812 19.8309Z" fill="white"/>
<path d="M40.5096 17.6007C37.7496 13.4407 32.8396 10.3807 26.9996 9.2107C25.39 8.88488 23.7518 8.72074 22.1096 8.7207C13.9096 8.7207 7.28957 13.0007 5.99957 19.1607L5.51957 21.4907C5.23432 23.0321 5.26171 24.6151 5.60012 26.1457C5.93854 27.6763 6.58107 29.1233 7.48957 30.4007C10.2496 34.5607 15.1596 37.6207 20.9796 38.7907C22.5892 39.1165 24.2273 39.2807 25.8696 39.2807C34.0896 39.2807 40.7096 34.9907 41.9696 28.8407L42.4496 26.5107C42.7391 24.9713 42.7166 23.3895 42.3833 21.8589C42.0501 20.3284 41.4129 18.8804 40.5096 17.6007ZM40.5096 26.1107C39.3996 31.4607 33.4596 35.0007 26.3496 35.0007C24.8386 34.9962 23.3316 34.8455 21.8496 34.5507C12.8796 32.6907 6.66957 26.0007 7.99957 19.5607C8.07234 19.1904 8.17261 18.8261 8.29957 18.4707L8.42957 18.1407C8.52957 17.9007 8.62957 17.6607 8.73957 17.4307L8.92957 17.0707C9.04957 16.8607 9.17957 16.6507 9.30957 16.4407L9.53957 16.1007C9.69957 15.8907 9.85957 15.6907 10.0396 15.4807C10.1075 15.3896 10.1809 15.3027 10.2596 15.2207C10.5186 14.93 10.7958 14.6562 11.0896 14.4007L11.1796 14.3307C11.4496 14.1007 11.7296 13.8807 12.0196 13.6607L12.3596 13.4407C12.5796 13.2907 12.8096 13.1407 13.0596 13.0007C13.3096 12.8607 13.3196 12.8407 13.4596 12.7707L14.1896 12.4007L14.6096 12.2007C14.8896 12.0807 15.1796 11.9707 15.4796 11.8607L15.8296 11.7307C16.2496 11.5774 16.6796 11.4474 17.1196 11.3407L17.3296 11.2907C17.6996 11.2007 18.0796 11.1207 18.4596 11.0507L18.9396 10.9707C19.2496 10.9207 19.5596 10.8807 19.8796 10.8507H20.4096C20.7196 10.8507 21.0396 10.8007 21.4096 10.7907H22.1896H23.3296H23.4696C23.9196 10.7907 24.3596 10.8607 24.8096 10.9107H25.1996C25.6896 10.9707 26.1996 11.0507 26.6896 11.1507C28.313 11.4766 29.8958 11.9796 31.4096 12.6507C34.1216 13.8139 36.5077 15.6232 38.3596 17.9207C38.89 18.6125 39.349 19.3563 39.7296 20.1407C40.0865 20.8869 40.355 21.6722 40.5296 22.4807C40.7693 23.6803 40.7556 24.9167 40.4896 26.1107H40.5096ZM36.8596 33.6607C36.5896 33.9007 36.2996 34.1207 36.0096 34.3407L35.6796 34.5607L34.9996 35.0007L34.6096 35.2207L33.8596 35.5907L33.4496 35.7807C33.1696 35.9107 32.8696 36.0207 32.5796 36.1307L32.2296 36.2607C31.8096 36.414 31.3796 36.544 30.9396 36.6507L30.7396 36.7007C30.3696 36.7907 29.9796 36.8707 29.5896 36.9407L29.1296 37.0207C28.8196 37.0207 28.4996 37.1107 28.1796 37.1407L27.6496 37.1907C27.3396 37.1907 27.0196 37.1907 26.6496 37.2507H25.8696C25.4896 37.2507 25.1096 37.2507 24.7296 37.2507H24.5896C24.1496 37.2507 23.6996 37.1807 23.2496 37.1307H22.8596C22.3696 37.0707 21.8596 36.9907 21.3796 36.8907C18.7327 36.3581 16.207 35.341 13.9296 33.8907C13.4996 33.6207 13.0996 33.3307 12.7096 33.0307C11.9508 32.458 11.2417 31.8224 10.5896 31.1307C10.2796 30.7907 9.97957 30.4407 9.70957 30.1307C8.49569 28.5959 7.70912 26.7675 7.42957 24.8307C7.77972 25.7778 8.23952 26.6806 8.79957 27.5207C11.3696 31.4007 16.1796 34.3707 21.6496 35.5207C23.1972 35.83 24.7713 35.9874 26.3496 35.9907C31.6596 35.9907 36.2496 34.1307 38.9796 31.1207L38.6696 31.6207L38.4396 31.9507C38.2796 32.1707 38.1096 32.3807 37.9396 32.5807C37.7696 32.7807 37.7996 32.7607 37.7196 32.8407C37.458 33.1289 37.1809 33.4027 36.8896 33.6607H36.8596Z" fill="#212C3A"/>
<path d="M15.7586 24.9998C17.4821 27.3121 20.0337 28.8675 22.8786 29.3398C23.7604 29.522 24.6582 29.6158 25.5586 29.6198C29.7686 29.6198 33.0186 27.6198 33.6286 24.6198C33.7596 23.8979 33.7448 23.157 33.5851 22.4408C33.4254 21.7247 33.124 21.0477 32.6986 20.4498C30.9724 18.1407 28.4221 16.5862 25.5786 16.1098C24.6998 15.9315 23.8054 15.841 22.9086 15.8398C18.6886 15.8398 15.4486 17.8398 14.8386 20.8398C14.7042 21.5595 14.7164 22.2988 14.8744 23.0137C15.0325 23.7285 15.3333 24.404 15.7586 24.9998ZM22.9086 16.8398C23.7415 16.8413 24.5722 16.925 25.3886 17.0898C26.2292 17.2585 27.0502 17.5132 27.8386 17.8498C29.0147 18.3358 30.0872 19.0418 30.9986 19.9298C31.3167 20.2349 31.6047 20.5697 31.8586 20.9298C32.2536 21.5158 32.5258 22.1758 32.6586 22.8698C30.7743 20.5529 28.1193 18.9911 25.1786 18.4698C24.2303 18.2799 23.2658 18.1827 22.2986 18.1798C20.1887 18.1334 18.1087 18.6846 16.2986 19.7698C17.3486 17.9998 19.8986 16.8298 22.9086 16.8298V16.8398ZM25.5586 28.6198C24.7254 28.6154 23.8947 28.5283 23.0786 28.3598C19.3586 27.6098 16.5386 25.3598 15.8886 22.8998C17.0586 21.2398 19.4786 20.2298 22.2986 20.2298C23.1315 20.2308 23.9623 20.3146 24.7786 20.4798C28.4986 21.2298 31.3186 23.4798 31.9686 25.9498C30.7986 27.5998 28.3786 28.6098 25.5586 28.6098V28.6198Z" fill="#212C3A"/>
</svg>
