<svg width="48" height="48" viewBox="0 0 48 48" fill="none" xmlns="http://www.w3.org/2000/svg">
<g clip-path="url(#clip0_498_2459)">
<path d="M24 8C13.25 8 3.53 20.87 3 27V31C3.55 36.65 13.26 41 24 41C34.74 41 44.43 36.65 45 31V27C44.47 20.87 34.75 8 24 8ZM34.12 29.25C33.88 29.88 31.25 31.5 24.12 31.62C16.99 31.74 14.12 29.5 14.12 29.5C16.62 18.75 23.75 18.12 23.75 18.12C30.38 18 34.38 28.62 34.12 29.25Z" fill="white"/>
<path d="M23.9997 8C34.7497 8 44.4697 20.87 44.9997 27V31C44.4597 36.65 34.7597 41 23.9997 41C13.2397 41 3.55971 36.65 2.99971 31V27C3.52971 20.87 13.2497 8 23.9997 8ZM23.9997 6C11.9997 6 1.60971 19.88 0.999713 26.83C0.994887 26.8866 0.994887 26.9434 0.999713 27V31C0.999713 31.06 0.999713 31.13 0.999713 31.19C1.72971 38.58 13.2597 43 23.9997 43C34.7397 43 46.2497 38.58 46.9997 31.19C47.0052 31.1268 47.0052 31.0632 46.9997 31V27C47.0047 26.9401 47.0047 26.8799 46.9997 26.82C46.3897 19.88 35.9997 6 23.9997 6Z" fill="#212C3A"/>
<path d="M24 8C35 8 45 21.61 45 27.5C45 33.39 35.05 38 24 38C12.95 38 3 33.39 3 27.5C3 21.61 13 8 24 8ZM24 7C12.41 7 2 20.92 2 27.5C2 33.84 11.87 39 24 39C36.13 39 46 33.84 46 27.5C46 20.92 35.59 7 24 7Z" fill="#212C3A"/>
<mask id="mask0_498_2459" style="mask-type:luminance" maskUnits="userSpaceOnUse" x="13" y="15" width="22" height="16">
<path d="M35 26.79C35 30.35 29.79 31 24 31C18.21 31 13 30.35 13 26.79C13 23.23 18.21 15 24 15C29.79 15 35 23.22 35 26.79Z" fill="white"/>
</mask>
<g mask="url(#mask0_498_2459)">
<path d="M24 19C28.52 19 33 26.2 33 28.79C33 29.61 31.83 31 24 31C16.17 31 15 29.61 15 28.79C15 26.2 19.48 19 24 19ZM24 17C18.21 17 13 25.22 13 28.79C13 32.36 18.21 33 24 33C29.79 33 35 32.35 35 28.79C35 25.23 29.79 17 24 17Z" fill="#212C3A"/>
</g>
<path d="M24 15C29.79 15 35 23.22 35 26.79C35 30.36 29.79 31 24 31C18.21 31 13 30.35 13 26.79C13 23.23 18.21 15 24 15ZM24 14C17.68 14 12 22.69 12 26.79C12 32 20.41 32 24 32C27.59 32 36 32 36 26.79C36 22.69 30.32 14 24 14Z" fill="#212C3A"/>
</g>
<defs>
<clipPath id="clip0_498_2459">
<rect width="48" height="48" fill="white"/>
</clipPath>
</defs>
</svg>
