<svg width="48" height="48" viewBox="0 0 48 48" fill="none" xmlns="http://www.w3.org/2000/svg">
<g clip-path="url(#clip0_498_2015)">
<path d="M24 43C11.87 43 2 35.82 2 27V24C2 15.18 11.87 8 24 8C36.13 8 46 15.18 46 24V27C46 35.82 36.13 43 24 43Z" fill="white"/>
<path d="M24 9C35.6 9 45 15.72 45 24V27C45 35.28 35.6 42 24 42C12.4 42 3 35.28 3 27V24C3 15.72 12.4 9 24 9ZM24 7C11.32 7 1 14.63 1 24V27C1 36.37 11.32 44 24 44C36.68 44 47 36.37 47 27V24C47 14.63 36.68 7 24 7Z" fill="#212C3A"/>
<path d="M24 9C35.6 9 45 15.72 45 24C45 32.28 35.6 39 24 39C12.4 39 3 32.28 3 24C3 15.72 12.4 9 24 9ZM24 8C11.87 8 2 15.18 2 24C2 32.82 11.87 40 24 40C36.13 40 46 32.82 46 24C46 15.18 36.13 8 24 8Z" fill="#212C3A"/>
<path d="M24 18C29 18 33 20.69 33 24C33 27.31 29 30 24 30C19 30 15 27.31 15 24C15 20.69 19 18 24 18ZM24 17C18.39 17 14 20.07 14 24C14 27.93 18.39 31 24 31C29.61 31 34 27.93 34 24C34 20.07 29.61 17 24 17Z" fill="#212C3A"/>
<path d="M24 22C26.71 22 29 23.37 29 25C29 26.63 26.71 28 24 28C21.29 28 19 26.63 19 25C19 23.37 21.29 22 24 22ZM24 21C20.69 21 18 22.79 18 25C18 27.21 20.69 29 24 29C27.31 29 30 27.21 30 25C30 22.79 27.31 21 24 21Z" fill="#212C3A"/>
<path d="M24 27C25.6569 27 27 26.1046 27 25C27 23.8954 25.6569 23 24 23C22.3431 23 21 23.8954 21 25C21 26.1046 22.3431 27 24 27Z" fill="#212C3A"/>
</g>
<defs>
<clipPath id="clip0_498_2015">
<rect width="48" height="48" fill="white"/>
</clipPath>
</defs>
</svg>
