<svg width="48" height="48" viewBox="0 0 48 48" fill="none" xmlns="http://www.w3.org/2000/svg">
<path d="M12.7814 10.8994C13.1168 10.8989 13.4515 10.9291 13.7814 10.9894L16.2114 11.4994C16.9552 11.6465 17.6581 11.9536 18.2714 12.3994C19.7482 13.5695 20.7646 15.2233 21.1414 17.0694L22.2714 17.2994C24.6314 17.7594 25.8814 20.9094 25.1914 24.2994C25.0246 25.1191 24.7488 25.9128 24.3714 26.6594C23.4214 28.5594 21.8914 29.7894 20.3014 29.7894C20.1071 29.7872 19.9133 29.7705 19.7214 29.7394C19.5157 29.6958 19.3148 29.6321 19.1214 29.5494L18.5914 29.4394C18.4714 29.5894 18.3614 29.7494 18.2414 29.8894C17.6847 30.558 17.0386 31.1468 16.3214 31.6394C15.8806 31.9354 15.4076 32.1803 14.9114 32.3694C13.9583 32.7451 12.9189 32.8456 11.9114 32.6594L9.44144 32.1394C5.44144 31.3294 3.13144 25.9794 4.31144 20.1394C5.40144 14.7694 9.06144 10.8594 12.7814 10.8594M12.7814 8.85938C8.00144 8.89937 3.63144 13.4794 2.35144 19.7794C1.48348 23.4605 2.07484 27.3348 4.00144 30.5894C4.555 31.4845 5.2829 32.2591 6.14185 32.8673C7.00081 33.4754 7.97328 33.9046 9.00144 34.1294L11.4814 34.6494C11.9327 34.7376 12.3916 34.7811 12.8514 34.7794C13.7784 34.7767 14.697 34.6039 15.5614 34.2694C16.2019 34.0263 16.8125 33.711 17.3814 33.3294C18.0643 32.866 18.6917 32.3258 19.2514 31.7194C19.5811 31.7816 19.916 31.8117 20.2514 31.8094C22.5914 31.8094 24.7814 30.2294 26.1114 27.5794C26.5693 26.6743 26.9056 25.7126 27.1114 24.7194C27.676 22.3332 27.2848 19.8209 26.0214 17.7194C25.6441 17.1264 25.1528 16.6142 24.5761 16.2125C23.9993 15.8108 23.3485 15.5276 22.6614 15.3794C22.0697 13.5575 20.9315 11.9619 19.4014 10.8094C18.5581 10.1911 17.5882 9.7676 16.5614 9.56938L14.1514 8.99938C13.7002 8.91115 13.2413 8.86761 12.7814 8.86938V8.85938Z" fill="#212C3A"/>
<path d="M30.3301 30.0692C30.1214 30.0701 29.9134 30.0466 29.7101 29.9992L20.3301 28.1192C18.3301 27.6092 17.5501 25.2392 17.8101 23.1692C18.1001 20.8792 19.9101 18.9492 21.7501 18.9492H22.0001L31.7101 20.8792H31.7601C32.4516 21.1587 33.0487 21.6301 33.4811 22.2379C33.9134 22.8456 34.1629 23.5643 34.2001 24.3092C34.3144 25.0089 34.2846 25.7246 34.1126 26.4123C33.9407 27.1001 33.6302 27.7456 33.2001 28.3092C32.9069 28.8125 32.4946 29.2362 31.9994 29.5431C31.5043 29.8499 30.9414 30.0306 30.3601 30.0692H30.3301Z" fill="white"/>
<path d="M21.7495 20H21.8395L31.4395 21.9C31.9485 22.1207 32.3832 22.4832 32.6918 22.9442C33.0003 23.4052 33.1696 23.9453 33.1795 24.5C33.2766 25.0705 33.2538 25.655 33.1126 26.2163C32.9714 26.7775 32.715 27.3033 32.3595 27.76C32.1537 28.1247 31.8658 28.4366 31.5187 28.6709C31.1716 28.9052 30.7748 29.0555 30.3595 29.11C30.2245 29.1126 30.0898 29.0957 29.9595 29.06L20.5595 27.18C19.1895 26.83 18.6195 25 18.8395 23.33C18.9995 21.45 20.4695 20 21.7495 20ZM21.7495 18C19.3895 18 17.1795 20.28 16.8195 23.09C16.4995 25.6 17.4995 28.48 20.0295 29.09H20.1395L29.5395 31C29.7994 31.0539 30.0641 31.0807 30.3295 31.08C31.0742 31.0451 31.7988 30.827 32.439 30.445C33.0792 30.063 33.6152 29.5288 33.9995 28.89C34.496 28.2306 34.8561 27.4789 35.0587 26.6788C35.2613 25.8787 35.3024 25.0462 35.1795 24.23C35.1088 23.2949 34.7717 22.3995 34.2082 21.6499C33.6446 20.9003 32.8782 20.3278 31.9995 20H31.8995H31.7995L22.2295 18H22.0895H21.7495Z" fill="#212C3A"/>
<path d="M12.8993 33.7808C12.5035 33.7789 12.1086 33.7421 11.7193 33.6708L9.23929 33.1508C8.33569 32.9453 7.48249 32.5606 6.73016 32.0196C5.97784 31.4785 5.34167 30.7921 4.85929 30.0008C3.09316 26.9844 2.54587 23.4073 3.32929 20.0008C4.50929 14.1408 8.48929 9.90084 12.7793 9.90084C13.1882 9.89607 13.5966 9.92955 13.9993 10.0008C13.9993 10.0008 15.7393 10.3408 16.4293 10.5208C17.3083 10.7059 18.1408 11.0671 18.8764 11.5827C19.612 12.0983 20.2355 12.7576 20.7093 13.5208C22.4293 16.0808 22.9793 19.8908 22.2093 23.7308C20.9993 29.5408 17.0893 33.7808 12.8993 33.7808Z" fill="white"/>
<path d="M12.7814 10.8992C13.1168 10.8988 13.4515 10.9289 13.7814 10.9892L16.2114 11.4992C20.2114 12.2792 22.3814 17.6592 21.2114 23.4992C20.1214 28.8692 16.6214 32.7692 12.9214 32.7692C12.5861 32.7696 12.2513 32.7395 11.9214 32.6792L9.45144 32.1592C5.45144 31.3492 3.14144 25.9992 4.32144 20.1592C5.41144 14.7892 9.07144 10.8792 12.7914 10.8792M12.7914 8.87919C8.00144 8.89919 3.63144 13.4792 2.35144 19.7792C1.48348 23.4603 2.07484 27.3346 4.00144 30.5892C4.555 31.4843 5.2829 32.2589 6.14185 32.8671C7.00081 33.4752 7.97328 33.9044 9.00144 34.1292L11.4814 34.6492C11.9327 34.7374 12.3916 34.781 12.8514 34.7792C17.5114 34.7792 21.8514 30.2092 23.1014 23.8992C23.9314 19.8192 23.3114 15.7192 21.4514 12.9492C20.9065 12.078 20.1903 11.3266 19.3463 10.7404C18.5023 10.1543 17.5481 9.74561 16.5414 9.53919L14.1514 8.99919C13.7002 8.91097 13.2413 8.86742 12.7814 8.86919L12.7914 8.87919Z" fill="#212C3A"/>
<path d="M15.2102 11.4104C15.5456 11.41 15.8803 11.4401 16.2102 11.5004C20.2102 12.2804 22.3802 17.6604 21.2102 23.5004C20.1202 28.8704 16.6202 32.7704 12.9202 32.7704C12.5849 32.7708 12.2502 32.7407 11.9202 32.6804C7.92025 31.9004 5.56025 26.5304 6.75025 20.6804C7.84025 15.3104 11.5002 11.4004 15.2202 11.4004M15.2202 10.4004C10.9302 10.4004 6.95025 14.6404 5.77025 20.4804C4.95465 23.9194 5.50682 27.5407 7.31025 30.5804C7.80022 31.3651 8.44321 32.0432 9.20088 32.5741C9.95855 33.1049 10.8154 33.4778 11.7202 33.6704C12.1096 33.7417 12.5044 33.7785 12.9002 33.7804C17.0902 33.7804 20.9902 29.5404 22.1702 23.7104C22.9402 19.8704 22.3902 16.0604 20.6702 13.5004C20.1042 12.558 19.3038 11.7781 18.347 11.2366C17.3902 10.6951 16.3096 10.4105 15.2102 10.4104L15.2202 10.4004Z" fill="#212C3A"/>
<path d="M20.3012 30.26C20.0762 30.2565 19.852 30.233 19.6312 30.19L12.6312 28.77C12.1172 28.6573 11.6311 28.4426 11.2016 28.1386C10.7722 27.8345 10.4082 27.4473 10.1312 27C9.09748 25.2427 8.78222 23.1541 9.25119 21.17C9.92119 17.85 12.2512 15.34 14.6912 15.34C14.9197 15.338 15.1478 15.3615 15.3712 15.41L22.3712 16.82C22.8737 16.9252 23.3498 17.1309 23.7708 17.4248C24.1918 17.7186 24.5491 18.0946 24.8212 18.53C25.8634 20.3137 26.1752 22.4315 25.6912 24.44C25.0012 27.82 22.7512 30.27 20.3212 30.27L20.3012 30.26Z" fill="white"/>
<path d="M14.6892 15.8303C14.8874 15.8308 15.085 15.8509 15.2792 15.8903L22.2792 17.3003C24.6392 17.7603 25.8892 20.9103 25.1992 24.3003C24.5592 27.4403 22.4892 29.7303 20.3192 29.7303C20.1243 29.7296 19.93 29.7095 19.7392 29.6703L12.7392 28.2503C10.3892 27.7803 9.03919 24.6503 9.73919 21.2503C10.3692 18.1103 12.5192 15.8203 14.6892 15.8203M14.6892 14.8203C11.9792 14.8203 9.48919 17.4403 8.75919 21.0603C8.27837 23.1785 8.63678 25.4007 9.75919 27.2603C10.0725 27.7686 10.4858 28.2079 10.974 28.5517C11.4622 28.8955 12.0151 29.1366 12.5992 29.2603L19.5992 30.6803H19.6592C19.9002 30.7234 20.1444 30.7468 20.3892 30.7503C23.0492 30.7503 25.5192 28.1303 26.2492 24.5203C26.7542 22.3807 26.4177 20.1288 25.3092 18.2303C24.9988 17.7417 24.5939 17.3202 24.1182 16.9904C23.6425 16.6607 23.1056 16.4295 22.5392 16.3103L18.7592 15.5503L15.5492 14.9003C15.2958 14.8484 15.0379 14.8216 14.7792 14.8203H14.6892Z" fill="#212C3A"/>
<path d="M21.6416 17.3103C21.8365 17.3099 22.0309 17.33 22.2216 17.3703C24.5916 17.8203 25.8416 20.9703 25.1416 24.3703C24.5116 27.5203 22.4516 29.8003 20.2916 29.8003C20.0973 29.7981 19.9035 29.7814 19.7116 29.7503C17.3516 29.2903 15.9916 26.1503 16.7116 22.7503C17.3516 19.6103 19.4916 17.3203 21.7116 17.3203M21.7116 16.3203C19.0016 16.3203 16.5016 18.9403 15.7716 22.5503C15.2897 24.675 15.648 26.9038 16.7716 28.7703C17.0883 29.2778 17.5038 29.7163 17.9934 30.0599C18.483 30.4035 19.0367 30.6451 19.6216 30.7703C19.8754 30.8185 20.1333 30.8419 20.3916 30.8403C23.0416 30.8403 25.4916 28.2203 26.2216 24.6103C26.7377 22.4744 26.4005 20.2215 25.2816 18.3303C24.9745 17.838 24.5706 17.4131 24.0945 17.0814C23.6183 16.7496 23.0799 16.5179 22.5116 16.4003C22.2572 16.3567 21.9997 16.3333 21.7416 16.3303L21.7116 16.3203Z" fill="#212C3A"/>
<path d="M21.2597 27.7291C21.0985 27.7273 20.9379 27.7105 20.7797 27.6791C19.1697 27.3091 18.2797 25.2491 18.7297 22.9891C19.1497 20.9891 20.8397 19.5491 22.0997 19.5491C22.2095 19.5383 22.32 19.5383 22.4297 19.5491C24.0197 19.8791 24.9397 21.9891 24.4897 24.2391C24.0797 26.2691 22.7197 27.7291 21.2597 27.7291Z" fill="white"/>
<path d="M22.1002 20.0494H22.3302C23.6602 20.3294 24.4002 22.1894 24.0002 24.1494C23.6402 25.9294 22.4602 27.2094 21.2602 27.2094C21.1373 27.2241 21.0131 27.2241 20.8902 27.2094C19.5702 26.9094 18.8302 25.0794 19.2202 23.1094C19.6102 21.1394 21.0902 20.1094 22.1002 20.1094M22.1002 19.1094C20.6202 19.1094 18.7102 20.6494 18.2402 22.9494C17.7302 25.4794 18.8002 27.7994 20.6702 28.2194C20.8631 28.2679 21.0614 28.2914 21.2602 28.2894C22.9602 28.2894 24.5202 26.6694 24.9802 24.4294C25.5002 21.8594 24.4302 19.5494 22.5402 19.1494C22.3938 19.1391 22.2467 19.1391 22.1002 19.1494V19.1094Z" fill="#212C3A"/>
<path d="M23.5206 28.1899C23.3587 28.1894 23.1975 28.1692 23.0406 28.1299C21.4406 27.7699 20.5406 25.7099 21.0406 23.4499C21.4606 21.3899 23.1106 19.9999 24.3906 19.9999C24.507 19.9896 24.6241 19.9896 24.7406 19.9999C26.3306 20.3299 27.2506 22.4399 26.7906 24.6899C26.3406 26.7299 25.0006 28.1899 23.5206 28.1899Z" fill="white"/>
<path d="M24.3501 20.5007C24.4332 20.4909 24.5171 20.4909 24.6001 20.5007C25.9201 20.7807 26.6601 22.6307 26.2601 24.6007C25.9001 26.3807 24.7201 27.6607 23.5201 27.6607C23.3953 27.6582 23.2712 27.6414 23.1501 27.6107C21.8301 27.3207 21.0901 25.4807 21.4901 23.5207C21.8901 21.5607 23.3001 20.4707 24.3501 20.4707M24.3501 19.4707C22.6601 19.4707 20.9401 21.2007 20.5101 23.3207C19.9901 25.8507 21.0601 28.1707 22.9301 28.5907C23.124 28.6335 23.3216 28.6569 23.5201 28.6607C25.2201 28.6607 26.7901 27.0307 27.2401 24.8007C27.7601 22.2407 26.6901 19.9207 24.8001 19.5207C24.6522 19.4887 24.5014 19.472 24.3501 19.4707Z" fill="#212C3A"/>
<path d="M25.7908 28.6407C25.6295 28.6399 25.4687 28.6232 25.3108 28.5907C23.7008 28.2207 22.8008 26.1707 23.3108 23.9007C23.8208 21.6307 25.3708 20.4607 26.6408 20.4607C26.7636 20.4454 26.8879 20.4454 27.0108 20.4607C28.6008 20.8007 29.5208 22.9007 29.0608 25.1407C28.6108 27.1907 27.2508 28.6407 25.7908 28.6407Z" fill="white"/>
<path d="M26.5883 20.9995C26.678 20.9897 26.7686 20.9897 26.8583 20.9995C28.1783 21.2795 28.9183 23.1295 28.5183 25.0895C28.1583 26.8695 26.9783 28.1495 25.7883 28.1495C25.6654 28.1648 25.5412 28.1648 25.4183 28.1495C24.0983 27.7995 23.3483 25.9995 23.7483 23.9995C24.1183 22.1995 25.4983 20.9995 26.5883 20.9995ZM26.5883 19.9995C24.9083 19.9995 23.1983 21.7195 22.7683 23.8395C22.2583 26.3795 23.3183 28.6895 25.1983 29.1195C25.3924 29.1598 25.5901 29.1799 25.7883 29.1795C27.4883 29.1795 29.0483 27.5595 29.4983 25.3195C29.9983 22.7295 28.9983 20.4095 27.0683 19.9995C26.9109 19.9635 26.7497 19.9467 26.5883 19.9495V19.9995Z" fill="#212C3A"/>
<path d="M28.0488 29.0997C27.887 29.0992 27.7258 29.0791 27.5688 29.0397C25.9588 28.6797 25.0688 26.6197 25.5188 24.3597C25.9188 22.4297 27.3688 20.9097 28.8288 20.9097C28.962 20.8999 29.0957 20.8999 29.2288 20.9097C30.8088 21.2597 31.7288 23.3597 31.2788 25.5997C30.8688 27.6397 29.5088 29.0997 28.0488 29.0997Z" fill="white"/>
<path d="M28.8293 21.4099C28.9257 21.3996 29.0229 21.3996 29.1193 21.4099C30.4393 21.6999 31.1893 23.5499 30.7893 25.5099C30.4293 27.2899 29.2493 28.5699 28.0493 28.5699C27.9262 28.5797 27.8024 28.5797 27.6793 28.5699C26.3593 28.2699 25.6193 26.4299 26.0093 24.4699C26.3793 22.6699 27.7093 21.4199 28.8293 21.4199M28.8293 20.4199C27.1393 20.4199 25.4693 22.1099 25.0293 24.2699C24.5193 26.7999 25.5893 29.1199 27.4593 29.5399C27.6522 29.5885 27.8504 29.612 28.0493 29.6099C29.7493 29.6099 31.3093 27.9799 31.7693 25.7499C32.2793 23.1999 31.2193 20.8799 29.3293 20.4799C29.1657 20.4397 28.9978 20.4195 28.8293 20.4199Z" fill="#212C3A"/>
<path d="M30.3096 29.5494C30.1482 29.5521 29.987 29.5354 29.8296 29.4994C28.2296 29.1394 27.3296 27.0794 27.8296 24.8194C28.2196 22.8794 29.6596 21.3594 31.0996 21.3594C31.2443 21.3604 31.3885 21.3772 31.5296 21.4094C33.1396 21.7594 34.0396 23.8194 33.5796 26.0994C33.1296 28.0994 31.7796 29.5494 30.3096 29.5494Z" fill="white"/>
<path d="M31.0592 21.8594C31.169 21.8496 31.2794 21.8496 31.3892 21.8594C32.7092 22.1494 33.4492 23.9894 33.0492 25.9594C32.6892 27.7394 31.5092 29.0094 30.3092 29.0094C30.1863 29.0236 30.0621 29.0236 29.9392 29.0094C28.6192 28.7094 27.8792 26.8794 28.2792 24.9194C28.6392 23.1194 29.9192 21.8594 31.0592 21.8594ZM31.0592 20.8594C29.3592 20.8594 27.7392 22.5194 27.2992 24.7194C26.7792 27.2494 27.8492 29.5594 29.7192 29.9894C29.9134 30.0288 30.111 30.0489 30.3092 30.0494C32.0092 30.0494 33.5792 28.4294 34.0292 26.1894C34.5492 23.6494 33.4792 21.3394 31.5992 20.9194C31.4221 20.8786 31.2409 20.8585 31.0592 20.8594Z" fill="#212C3A"/>
<path d="M32.5797 29.9999C32.4201 30.0157 32.2593 30.0157 32.0997 29.9999C30.4897 29.6299 29.5897 27.5799 30.0497 25.3099C30.4497 23.3099 31.8497 21.8599 33.2997 21.8599C33.4546 21.8561 33.6093 21.8729 33.7597 21.9099C35.3697 22.2699 36.2597 24.3199 35.7597 26.5899C35.3997 28.5599 33.9997 29.9999 32.5797 29.9999Z" fill="white"/>
<path d="M33.3013 22.3201C33.4177 22.3098 33.5348 22.3098 33.6513 22.3201C34.9713 22.6201 35.7113 24.4601 35.3113 26.4201C34.9513 28.2001 33.7713 29.4801 32.5813 29.4801C32.4584 29.4953 32.3341 29.4953 32.2113 29.4801C30.8913 29.1801 30.1413 27.3501 30.5413 25.3801C30.9013 23.5901 32.1313 22.3301 33.3013 22.3301M33.3013 21.3301C31.5913 21.3301 30.0113 22.9501 29.5613 25.1801C29.0513 27.7201 30.1113 30.0301 31.9913 30.4501C32.1841 30.4986 32.3824 30.5221 32.5813 30.5201C34.2813 30.5201 35.8413 28.9001 36.2913 26.6601C36.8113 24.1201 35.7413 21.8101 33.8713 21.3901C33.6839 21.3504 33.4928 21.3302 33.3013 21.3301Z" fill="#212C3A"/>
<path d="M34.8415 30.4695C34.6797 30.469 34.5185 30.4489 34.3615 30.4095C32.7515 30.0495 31.8515 27.9895 32.3615 25.7295C32.7715 23.7295 34.1315 22.2695 35.5915 22.2695C35.7528 22.2708 35.9135 22.2875 36.0715 22.3195C37.6815 22.6895 38.5815 24.7395 38.0715 27.0095C37.6615 28.9995 36.3015 30.4695 34.8415 30.4695Z" fill="white"/>
<path d="M35.5384 22.77C35.6612 22.7547 35.7855 22.7547 35.9084 22.77C37.2284 23.07 37.9784 24.9 37.5784 26.87C37.2184 28.69 35.9984 30 34.8384 30C34.7152 30.0098 34.5915 30.0098 34.4684 30C33.1484 29.7 32.4084 27.86 32.7984 25.9C33.1684 24.12 34.3384 22.84 35.5384 22.84M35.5384 21.84C33.8384 21.84 32.2784 23.46 31.8184 25.7C31.3084 28.23 32.3784 30.55 34.2484 30.97C34.4421 31.0136 34.6398 31.037 34.8384 31.04C36.5384 31.04 38.0984 29.41 38.5584 27.18C39.0684 24.65 38.0084 22.33 36.1284 21.91C35.9355 21.8614 35.7372 21.8379 35.5384 21.84Z" fill="#212C3A"/>
<path d="M34.1392 38.66C32.7733 38.6627 31.4304 38.309 30.2431 37.6338C29.0558 36.9586 28.0652 35.9853 27.3692 34.81C25.4679 31.7081 24.8746 27.9788 25.7192 24.44C26.9992 18.39 31.3992 14 36.2192 14C36.723 13.9994 37.2255 14.0496 37.7192 14.15C38.7681 14.3685 39.7618 14.7975 40.6402 15.4111C41.5185 16.0248 42.2632 16.8102 42.8292 17.72C44.7299 20.8744 45.3051 24.6529 44.4292 28.23C43.1692 34.27 38.8392 38.66 34.1392 38.66Z" fill="white"/>
<path d="M36.2191 15C36.6558 14.9982 37.0915 15.0417 37.5191 15.13C42.2091 16.06 44.7491 21.83 43.4491 28.02C42.2791 33.64 38.3591 37.67 34.1391 37.67C33.7031 37.6693 33.2679 37.6291 32.8391 37.55C28.1591 36.62 25.3991 30.84 26.6991 24.65C27.8691 19 31.9991 15 36.2191 15ZM36.2191 13C30.9291 13 26.0991 17.73 24.7391 24.24C23.8419 28.0408 24.4855 32.0422 26.5291 35.37C27.192 36.4182 28.0568 37.3241 29.0731 38.0348C30.0895 38.7456 31.2371 39.247 32.4491 39.51C33.0059 39.6182 33.5719 39.6718 34.1391 39.67C39.3091 39.67 44.0491 34.95 45.4091 28.43C46.3326 24.5939 45.7075 20.5484 43.6691 17.17C43.0256 16.1517 42.1842 15.273 41.1947 14.5859C40.2053 13.8988 39.088 13.4173 37.9091 13.17C37.3527 13.058 36.7867 13.0011 36.2191 13Z" fill="#212C3A"/>
<path d="M43.6597 28.3298C42.8445 28.563 42.1522 29.1047 41.7297 29.8398C40.9641 31.0562 40.3146 32.3419 39.7897 33.6798L37.9297 33.9998C38.2197 33.4698 39.0297 30.9998 38.1797 29.9398C37.3297 28.8798 34.1797 28.8398 34.1797 28.8398L34.3497 26.4298C34.3497 26.4298 37.6997 26.3498 38.4697 25.3298C39.2397 24.3098 38.9297 21.9798 38.6097 20.8398L40.3697 20.5898C40.3697 20.5898 41.3697 24.5898 41.9497 25.0198C42.2245 25.2665 42.5521 25.447 42.9074 25.5476C43.2628 25.6481 43.6364 25.666 43.9997 25.5998L43.6597 28.3298Z" fill="#212C3A"/>
</svg>
