<svg width="24" height="24" viewBox="0 0 24 24" fill="none" xmlns="http://www.w3.org/2000/svg">
<g clip-path="url(#clip0_327_1220)">
<path d="M12.8569 14.5655C12.7063 14.4333 12.5427 14.3154 12.3684 14.2134L12.3141 14.2086L12.1609 14.1479L12.0496 14.1067L11.7522 13.9443C11.8464 14.0628 11.9543 14.1707 12.0738 14.2659C12.1269 14.3064 12.1844 14.3413 12.2451 14.37C12.3929 14.4401 12.5338 14.5227 12.6664 14.6167C12.9757 14.834 13.2618 15.0803 13.5203 15.3518L13.1483 14.7954C13.0558 14.7135 12.9585 14.6367 12.8569 14.5655Z" fill="white"/>
<path d="M16.5529 16.8711C17.4717 16.9126 18.3886 16.7802 19.2512 16.4815C20.1559 16.1929 20.9809 15.7152 21.6667 15.0827C22.2641 14.5126 22.482 13.9037 22.2534 13.3966C22.0247 12.8896 21.3246 12.5188 20.3476 12.4324C19.5229 12.3817 18.6955 12.4209 17.8814 12.5493C17.3381 12.6397 16.7847 12.6646 16.2339 12.6235C15.884 12.5874 15.5364 12.5322 15.1928 12.4582L15.1223 12.4519L14.9292 12.4087L14.8315 12.4001C14.4758 12.3 14.1445 12.1318 13.8578 11.9056C13.5161 11.6557 13.2764 11.299 13.1812 10.8983C13.0887 10.398 12.8322 10.0194 12.4456 9.93805L12.3805 9.93229C12.2494 9.92799 12.119 9.94949 11.9973 9.99546C11.8756 10.0414 11.7653 10.1109 11.6731 10.1995L11.8149 10.7617C11.8727 10.707 11.9416 10.6642 12.0175 10.6358C12.0933 10.6074 12.1745 10.5941 12.2561 10.5966L12.2995 10.6004C12.5492 10.6225 12.694 10.9023 12.7986 11.1419C12.8286 11.2214 12.8543 11.3023 12.8756 11.3843C12.9646 11.6627 13.1002 11.9258 13.2772 12.1631C13.3586 12.2813 13.3961 12.4221 13.3837 12.5626C13.3712 12.7031 13.3096 12.835 13.2087 12.9371C13.1152 13.0224 13.0034 13.0871 12.8809 13.1269C12.7584 13.1667 12.6282 13.1805 12.4992 13.1675C12.4281 13.1714 12.3568 13.1651 12.2875 13.1488L12.2169 13.1426C12.0041 13.0526 11.8174 12.9138 11.6735 12.7385C11.5296 12.5632 11.433 12.3568 11.3923 12.1378C11.3345 11.8433 11.3613 11.5398 11.47 11.26L11.2354 10.7576C11.1098 10.9627 11.0131 11.183 10.9478 11.4127C10.8667 11.6682 10.8443 11.9378 10.8822 12.2032C10.9201 12.4686 11.0174 12.7234 11.1673 12.9503C11.3041 13.1215 11.4785 13.2621 11.6779 13.3619L11.899 13.46L12.1901 13.5695L12.413 13.6468L12.5025 13.6861C13.3848 14.1686 14.054 14.943 14.3831 15.8626C14.6388 16.4349 15.3965 16.7741 16.368 16.86L16.5529 16.8711ZM15.773 15.6086C15.7103 15.4768 15.6768 15.3342 15.6745 15.1899C15.6722 15.0455 15.7012 14.9024 15.7597 14.7698C16.1795 14.029 16.883 13.4742 17.7235 13.2212C18.3564 12.961 19.044 12.8428 19.7341 12.8755C19.9831 12.8708 20.2292 12.931 20.446 13.0498C20.6629 13.1686 20.8425 13.3414 20.9654 13.5497C21.0469 13.7158 21.0798 13.8997 21.0606 14.0816C21.0493 14.1939 21.023 14.3041 20.9823 14.4097C20.8815 14.6375 20.737 14.8448 20.5563 15.0212C20.1145 15.4238 19.5899 15.7338 19.0153 15.9319C18.6432 16.0774 18.2541 16.18 17.8561 16.2377C17.575 16.2795 17.2896 16.2894 17.0056 16.2672C16.7486 16.2516 16.4975 16.1848 16.2681 16.0712C16.0556 15.9719 15.8819 15.8096 15.773 15.6086Z" fill="white"/>
<path d="M23.7375 14.3654C23.658 13.9356 23.5379 13.5132 23.3787 13.1035C23.2431 12.7939 23.0331 12.5188 22.766 12.3007L22.7334 12.2978C22.6254 12.202 22.5108 12.1132 22.3905 12.0319L22.2562 11.9416L22.1993 11.9051C22.1244 11.8612 22.0452 11.8244 21.9629 11.7952C21.475 11.5851 20.9528 11.4592 20.4205 11.4232C19.5167 11.3653 18.6099 11.4081 17.7181 11.5507C17.2507 11.6255 16.775 11.645 16.3017 11.6087C15.9363 11.5767 15.5756 11.5044 15.2268 11.3933C15.2798 9.68088 14.3472 8.28967 12.9404 7.99252L10.8496 7.38885C10.7865 7.30449 10.7188 7.22337 10.6468 7.14581L10.5917 7.08859C10.1677 6.62724 9.61766 6.28836 9.00444 6.11064C8.62607 5.93584 5.61613 5.02579 4.9618 4.87893C4.83369 4.85107 4.70395 4.83086 4.57333 4.81841C2.69005 4.65187 0.863643 6.25455 0.316866 8.54099C-0.229911 10.8274 0.796573 13.075 2.7512 13.6719L6.36883 14.7613C6.50544 14.8133 6.64645 14.8538 6.79024 14.8823L6.85537 14.8881C6.96392 14.8977 7.07789 14.9078 7.19187 14.9178C7.7666 14.9644 8.3426 14.8616 8.85911 14.6203C11.067 15.2605 11.1045 15.269 11.1638 15.2795L11.2072 15.2834C11.2898 15.2959 11.3732 15.3033 11.4568 15.3054C11.5875 15.3187 11.7189 15.3216 11.8499 15.314C12.7131 15.9224 13.4314 16.6999 13.9565 17.5943C14.2959 18.1478 15.0265 18.7935 16.5732 18.9302C17.7458 18.9997 18.9184 18.8304 20.0139 18.4335C22.5549 17.5955 24.0991 15.9051 23.7375 14.3654ZM3.10036 12.6924C1.748 12.2744 0.906576 10.6557 1.3352 8.77761C1.38687 8.55916 1.45519 8.34475 1.53961 8.13608C1.5488 8.0322 1.62265 7.93926 1.6644 7.83826C1.76876 7.64974 1.88533 7.46773 2.01343 7.29328C2.07008 7.20929 2.13217 7.12579 2.19379 7.04748C2.31266 6.89208 2.44446 6.74618 2.5879 6.61118C2.65946 6.54422 2.73056 6.48245 2.8012 6.42588C2.9288 6.31392 3.06585 6.21224 3.21097 6.12184L3.4504 6.01214C3.75841 5.88205 4.09588 5.82735 4.43262 5.85295C4.5144 5.85498 4.59599 5.8622 4.67685 5.87455L5.03543 5.96384L5.56898 6.11572L6.55558 6.40189L7.35498 6.6401C6.66807 6.91295 6.06475 7.34671 5.60005 7.90181C5.13536 8.45691 4.82408 9.11569 4.69462 9.81804C4.54142 10.3809 4.50583 10.9681 4.58989 11.5459C4.67394 12.1237 4.876 12.6809 5.18449 13.1855C5.22828 13.247 5.27842 13.2986 5.32267 13.3548L3.10036 12.6924ZM7.26469 13.9087L7.0476 13.8895L6.7329 13.7988C5.50499 13.3343 4.85086 11.7007 5.26165 9.96241C5.67244 8.22408 7.06599 6.93911 8.42282 7.05909L8.65077 7.07925C8.97626 7.14818 9.27925 7.29374 9.53225 7.5027L8.80111 7.2967L8.56773 7.27607C7.23803 7.15848 5.94326 8.31609 5.55113 9.96706C5.30027 10.8982 5.44461 11.8895 5.95271 12.7247C6.10062 12.9591 6.29577 13.163 6.52666 13.3246C6.75756 13.4861 7.01953 13.6021 7.29713 13.6655L7.50513 13.7258L7.95864 13.8549C7.72745 13.9132 7.48684 13.9309 7.24841 13.9072L7.26469 13.9087ZM7.4299 13.1538C6.35546 12.9331 5.73852 11.5594 6.06076 10.0802C6.38696 8.67989 7.4585 7.69624 8.49512 7.7879C8.55334 7.78785 8.61149 7.79299 8.6688 7.80326L11.4125 8.56937C10.9116 8.82812 10.4793 9.19281 10.1483 9.63597C9.81731 10.0791 9.59619 10.5892 9.50159 11.1278C9.25085 12.0566 9.39336 13.0454 9.8982 13.8798L7.4299 13.1538ZM11.2434 14.2553C10.26 13.9327 9.74655 12.6257 10.0669 11.2301C10.3872 9.83456 11.4646 8.8462 12.5071 8.93315L12.7242 8.95234C12.8189 8.97524 12.9114 9.00619 13.0005 9.04483C13.7183 9.40146 14.14 10.3235 14.0743 11.3751C13.9086 11.2229 13.7877 11.0315 13.7241 10.8206C13.6874 10.5215 13.5821 10.2333 13.4158 9.97673C13.3236 9.82615 13.2001 9.69521 13.053 9.59211C12.9058 9.48902 12.7383 9.416 12.5608 9.37763L12.4251 9.36563C11.5513 9.28837 10.7207 10.0839 10.4314 11.2519C10.2468 11.9057 10.3361 12.6047 10.6803 13.2004C10.7233 13.2666 10.7727 13.3288 10.828 13.3862C10.9618 13.691 11.1348 13.9789 11.3429 14.2431L11.2434 14.2553ZM13.5347 15.374C13.2762 15.1025 12.9901 14.8562 12.6808 14.6389C12.5483 14.5449 12.4073 14.4623 12.2596 14.3923C12.1988 14.3635 12.1414 14.3286 12.0883 14.2881C11.9687 14.1929 11.8608 14.085 11.7667 13.9665L12.0479 14.0647L12.1591 14.1059L12.3124 14.1666L12.3666 14.1714C12.5435 14.2865 12.7078 14.4186 12.8569 14.5655C12.9699 14.6603 13.076 14.7624 13.1745 14.871L13.5464 15.4274L13.5347 15.374ZM14.4048 15.8645C14.0782 14.947 13.4131 14.1731 12.5351 13.689L12.4456 13.6496L12.2227 13.5723L11.9315 13.4628L11.7105 13.3648C11.511 13.265 11.3367 13.1244 11.1999 12.9532C11.0441 12.7283 10.9408 12.4742 10.8973 12.2082C10.8537 11.9422 10.871 11.6708 10.9478 11.4127C11.0056 11.1706 11.098 10.9374 11.2224 10.7198L11.4569 11.2222C11.3482 11.502 11.3214 11.8055 11.3793 12.1C11.42 12.319 11.5166 12.5254 11.6605 12.7007C11.8043 12.876 11.991 13.0148 12.2039 13.1048L12.2744 13.111C12.3437 13.1273 12.415 13.1336 12.4861 13.1297C12.6151 13.1427 12.7453 13.1289 12.8678 13.0891C12.9903 13.0493 13.1021 12.9846 13.1957 12.8993C13.2965 12.7972 13.3582 12.6653 13.3706 12.5248C13.383 12.3843 13.3455 12.2435 13.2641 12.1253C13.0872 11.888 12.9515 11.6249 12.8626 11.3465C12.8413 11.2645 12.8156 11.1836 12.7855 11.1041C12.6972 10.8659 12.5501 10.6121 12.2864 10.5626L12.243 10.5588C12.1614 10.5563 12.0803 10.5696 12.0044 10.598C11.9286 10.6264 11.8597 10.6692 11.8018 10.7239L11.6601 10.1617C11.7522 10.0731 11.8626 10.0036 11.9842 9.95766C12.1059 9.91169 12.2363 9.89019 12.3674 9.89449L12.4325 9.90025C12.8192 9.98156 13.0756 10.3602 13.1681 10.8605C13.2566 11.2485 13.4805 11.597 13.8027 11.8484C14.0894 12.0746 14.4207 12.2428 14.7764 12.3428L14.8741 12.3515L15.0672 12.3947L15.1377 12.401C15.4813 12.4749 15.8289 12.5301 16.1788 12.5663C16.7296 12.6074 17.283 12.5824 17.8263 12.4921C18.6403 12.3637 19.4678 12.3244 20.2925 12.3752C21.2695 12.4616 21.943 12.7619 22.1983 13.3394C22.4535 13.9169 22.1818 14.453 21.6116 15.0255C20.9476 15.6721 20.1416 16.1693 19.2512 16.4815C18.3938 16.7787 17.4827 16.9115 16.5692 16.8726L16.3956 16.8572C15.3965 16.7741 14.6497 16.4358 14.3831 15.8626L14.4048 15.8645ZM19.6325 17.4889C18.6853 17.834 17.6712 17.9833 16.6565 17.9273C16.3157 17.9292 15.9786 17.8545 15.6722 17.7092C15.3659 17.5639 15.0989 17.3521 14.8926 17.0907L14.8149 16.9792C15.2925 17.2086 15.8122 17.3453 16.3437 17.3813C17.0086 17.4352 17.6773 17.3956 18.3287 17.2637C18.7085 17.1922 19.0825 17.0959 19.4482 16.9753C19.7849 16.8593 20.1131 16.7222 20.4307 16.5649C21.3943 16.1544 22.191 15.4554 22.7019 14.5723C22.7253 14.6744 22.7326 14.7791 22.7236 14.883C22.6201 15.8057 21.4028 16.8916 19.6216 17.488L19.6325 17.4889Z" fill="#171717"/>
<path d="M4.71495 9.83554C4.84441 9.13319 5.15569 8.47442 5.62038 7.91932C6.08508 7.36421 6.6884 6.93045 7.37531 6.6576L6.57591 6.41939L5.58931 6.13322L5.05576 5.98134L4.69719 5.89205C4.61632 5.8797 4.53473 5.87248 4.45295 5.87046C4.11622 5.84486 3.77874 5.89955 3.47073 6.02964L3.21097 6.12184C3.05099 6.20905 2.89936 6.3095 2.75778 6.42204C2.68714 6.47861 2.61604 6.54038 2.54448 6.60734C2.40104 6.74234 2.26925 6.88824 2.15037 7.04364C2.08875 7.12195 2.02666 7.20545 1.97001 7.28944C1.86351 7.46037 1.76751 7.63716 1.68252 7.81892C1.64077 7.91993 1.59405 8.01526 1.55773 8.11675C1.46619 8.33121 1.3918 8.55213 1.3352 8.77761C0.890294 10.6543 1.73172 12.273 3.06779 12.6895L5.32672 13.3709C5.28247 13.3146 5.23233 13.2631 5.18854 13.2016C4.57139 12.1807 4.40104 10.9699 4.71495 9.83554Z" fill="#FACC15"/>
<path d="M7.28131 13.6589C7.0037 13.5954 6.74173 13.4795 6.51084 13.3179C6.27995 13.1564 6.0848 12.9524 5.93689 12.7181C5.42879 11.8828 5.28445 10.8916 5.53531 9.96043C5.92744 8.30945 7.22221 7.15185 8.55191 7.26943L8.78528 7.29007L9.51643 7.49606C9.26343 7.2871 8.96044 7.14155 8.63495 7.07261L8.407 7.05245C7.05017 6.93247 5.66526 8.18157 5.24583 9.95577C4.82639 11.73 5.4946 13.3281 6.71708 13.7922L7.03178 13.8829L7.24887 13.9021C7.48248 13.9218 7.71756 13.9018 7.94328 13.8431L7.48976 13.714L7.28131 13.6589Z" fill="#FACC15"/>
<path d="M9.50159 11.1278C9.60458 10.5982 9.83023 10.0983 10.162 9.66473C10.4937 9.23118 10.9231 8.87499 11.4188 8.62228L8.67506 7.85617C8.61775 7.84589 8.55961 7.84075 8.50138 7.84081C7.46476 7.74914 6.39322 8.73279 6.06702 10.1331C5.71764 11.6099 6.3183 12.9822 7.43616 13.2067L9.93565 13.9512C9.66952 13.531 9.49395 13.0646 9.41938 12.5795C9.34481 12.0945 9.37277 11.6008 9.50159 11.1278Z" fill="#FACC15"/>
<path d="M10.6658 13.241C10.3196 12.6458 10.2283 11.9467 10.4115 11.292C10.6899 10.1231 11.5314 9.32848 12.4052 9.40575L12.5408 9.41775C12.7183 9.45611 12.8859 9.52913 13.033 9.63223C13.1801 9.73532 13.3037 9.86627 13.3958 10.0168C13.5622 10.2734 13.6674 10.5616 13.7041 10.8608C13.7677 11.0717 13.8886 11.263 14.0544 11.4152C14.1191 10.374 13.682 9.44013 12.9805 9.08494C12.8914 9.0463 12.799 9.01535 12.7043 8.99246L12.4872 8.97326C11.4451 8.88112 10.3785 9.87044 10.0469 11.2703C9.71528 12.6701 10.24 13.9729 11.2234 14.2954L11.3211 14.304C11.113 14.0398 10.94 13.7519 10.8062 13.4471C10.7523 13.383 10.7053 13.3139 10.6658 13.241Z" fill="white"/>
<path d="M22.7009 14.5827C22.1886 15.4664 21.3899 16.1653 20.4244 16.5748C20.1068 16.7321 19.7785 16.8692 19.4418 16.9852C19.0762 17.1058 18.7022 17.2021 18.3224 17.2736C17.671 17.4055 17.0022 17.4451 16.3374 17.3912C15.8129 17.3497 15.3012 17.2102 14.8312 16.9806L14.9089 17.0922C15.1151 17.3535 15.3822 17.5653 15.6885 17.7106C15.9949 17.8559 16.332 17.9306 16.6727 17.9287C17.6875 17.9848 18.7016 17.8354 19.6488 17.4904C21.4028 16.8916 22.6201 15.8057 22.6991 14.9123C22.7082 14.8084 22.7008 14.7036 22.6774 14.6015L22.7009 14.5827Z" fill="white"/>
<path d="M20.3235 13.8803L20.5081 13.8967C20.5012 13.854 20.4883 13.8123 20.4698 13.7729C20.3832 13.6505 20.2653 13.5513 20.1274 13.485C19.9895 13.4187 19.8364 13.3875 19.6828 13.3944C19.079 13.3679 18.4777 13.4703 17.9224 13.6942C16.7638 14.1152 16.0169 14.892 16.2587 15.3741C16.2993 15.4512 16.3592 15.5177 16.433 15.5675C16.883 14.9332 17.5375 14.4582 18.2975 14.2142C18.9358 13.9546 19.6292 13.8404 20.3235 13.8803Z" fill="white"/>
<path d="M17.8547 16.2533C18.2527 16.1956 18.6418 16.0929 19.014 15.9475C19.5885 15.7494 20.1132 15.4394 20.5549 15.0368C20.7356 14.8604 20.8801 14.6531 20.9809 14.4253C21.0216 14.3197 21.0479 14.2094 21.0592 14.0972C21.0785 13.9153 21.0456 13.7314 20.964 13.5653C20.8411 13.357 20.6616 13.1842 20.4447 13.0654C20.2278 12.9466 19.9817 12.8864 19.7328 12.891C19.0427 12.8584 18.3551 12.9766 17.7221 13.2367C16.8816 13.4898 16.1781 14.0445 15.7583 14.7854C15.6998 14.918 15.6708 15.0611 15.6731 15.2054C15.6754 15.3498 15.7089 15.4924 15.7716 15.6242C15.8799 15.8328 16.0575 16.0014 16.2762 16.1033C16.5056 16.2169 16.7567 16.2837 17.0137 16.2994C17.2952 16.3154 17.5774 16.2999 17.8547 16.2533ZM18.7943 15.4622C18.4345 15.5983 18.059 15.6934 17.6753 15.7454C17.977 15.508 18.3169 15.3188 18.6821 15.1853C19.0389 15.0451 19.4153 14.9549 19.7997 14.9177C19.4914 15.1409 19.1533 15.324 18.7943 15.4622ZM16.4271 15.5722C16.3534 15.5224 16.2935 15.4559 16.2528 15.3788C16.011 14.8967 16.7561 14.1407 17.9165 13.6989C18.4718 13.475 19.0731 13.3726 19.6769 13.3991C19.8305 13.3922 19.9836 13.4234 20.1215 13.4897C20.2594 13.556 20.3773 13.6552 20.4639 13.7776C20.4824 13.8171 20.4953 13.8587 20.5022 13.9014L20.3176 13.8851C19.6257 13.8501 18.9358 13.9682 18.3016 14.2303C17.5453 14.4728 16.8934 14.9442 16.4434 15.5736L16.4271 15.5722Z" fill="#171717"/>
</g>
<defs>
<clipPath id="clip0_327_1220">
<rect width="24" height="24" fill="white"/>
</clipPath>
</defs>
</svg>
