<svg width="81" height="173" viewBox="0 0 81 173" fill="none" xmlns="http://www.w3.org/2000/svg">
<path d="M76.8686 0.5L0.5 25.3754V170.276L3.42621 172.5L80.5 147.322V3.13054L76.8686 0.5Z" fill="#CAD5E2"/>
<path fill-rule="evenodd" clip-rule="evenodd" d="M79.6924 3.33285L3.82909 27.3976V172.5" fill="#CAD5E2"/>
<path d="M11.1964 32.5566C10.1926 32.5566 9.37884 31.741 9.37884 30.7349C9.37884 29.7288 10.1926 28.9132 11.1964 28.9132C12.2002 28.9132 13.0139 29.7288 13.0139 30.7349C13.0139 31.741 12.2002 32.5566 11.1964 32.5566Z" fill="#CAD5E2"/>
<path d="M7.56132 169.267C6.55753 169.267 5.7438 168.451 5.7438 167.445C5.7438 166.439 6.55753 165.623 7.56132 165.623C8.56511 165.623 9.37884 166.439 9.37884 167.445C9.37884 168.451 8.56511 169.267 7.56132 169.267Z" fill="#CAD5E2"/>
<path d="M75.3545 12.9424C74.3507 12.9424 73.537 12.1268 73.537 11.1207C73.537 10.1146 74.3507 9.29898 75.3545 9.29898C76.3583 9.29898 77.172 10.1146 77.172 11.1207C77.172 12.1268 76.3583 12.9424 75.3545 12.9424Z" fill="#CAD5E2"/>
<path d="M77.172 85.9453C76.1682 85.9453 75.3545 85.1297 75.3545 84.1236C75.3545 83.1175 76.1682 82.3019 77.172 82.3019C78.1758 82.3019 78.9895 83.1175 78.9895 84.1236C78.9895 85.1297 78.1758 85.9453 77.172 85.9453Z" fill="#CAD5E2"/>
<path d="M7.46193 106.27C6.45814 106.27 5.64441 105.454 5.64441 104.448C5.64441 103.442 6.45814 102.627 7.46193 102.627C8.46572 102.627 9.27945 103.442 9.27945 104.448C9.27945 105.454 8.46572 106.27 7.46193 106.27Z" fill="#CAD5E2"/>
<path d="M77.172 146.009C76.1682 146.009 75.3545 145.193 75.3545 144.187C75.3545 143.181 76.1682 142.365 77.172 142.365C78.1758 142.365 78.9895 143.181 78.9895 144.187C78.9895 145.193 78.1758 146.009 77.172 146.009Z" fill="#CAD5E2"/>
<path d="M0.5 25.3754L76.8686 0.5L80.5 3.13054V147.322L3.42621 172.5L0.5 170.276V25.3754ZM0.5 25.3754L3.92983 27.3975M79.6924 3.33285L3.82909 27.3976V172.5M11.1964 32.5566C10.1926 32.5566 9.37884 31.741 9.37884 30.7349C9.37884 29.7288 10.1926 28.9132 11.1964 28.9132C12.2002 28.9132 13.0139 29.7288 13.0139 30.7349C13.0139 31.741 12.2002 32.5566 11.1964 32.5566ZM7.56132 169.267C6.55753 169.267 5.7438 168.451 5.7438 167.445C5.7438 166.439 6.55753 165.623 7.56132 165.623C8.56511 165.623 9.37884 166.439 9.37884 167.445C9.37884 168.451 8.56511 169.267 7.56132 169.267ZM75.3545 12.9424C74.3507 12.9424 73.537 12.1268 73.537 11.1207C73.537 10.1146 74.3507 9.29898 75.3545 9.29898C76.3583 9.29898 77.172 10.1146 77.172 11.1207C77.172 12.1268 76.3583 12.9424 75.3545 12.9424ZM77.172 85.9453C76.1682 85.9453 75.3545 85.1297 75.3545 84.1236C75.3545 83.1175 76.1682 82.3019 77.172 82.3019C78.1758 82.3019 78.9895 83.1175 78.9895 84.1236C78.9895 85.1297 78.1758 85.9453 77.172 85.9453ZM7.46193 106.27C6.45814 106.27 5.64441 105.454 5.64441 104.448C5.64441 103.442 6.45814 102.627 7.46193 102.627C8.46572 102.627 9.27945 103.442 9.27945 104.448C9.27945 105.454 8.46572 106.27 7.46193 106.27ZM77.172 146.009C76.1682 146.009 75.3545 145.193 75.3545 144.187C75.3545 143.181 76.1682 142.365 77.172 142.365C78.1758 142.365 78.9895 143.181 78.9895 144.187C78.9895 145.193 78.1758 146.009 77.172 146.009Z" stroke="black" stroke-linecap="round" stroke-linejoin="round"/>
</svg>
