<svg width="81" height="154" viewBox="0 0 81 154" fill="none" xmlns="http://www.w3.org/2000/svg">
<path fill-rule="evenodd" clip-rule="evenodd" d="M80.5 15.8377V138.482L26.0831 152.5L0.501592 138.482V15.6748L54.1158 1.82009L80.5 15.8377Z" fill="#C1CCDC"/>
<path fill-rule="evenodd" clip-rule="evenodd" d="M80.5 14.9915L26.0831 29.0079V151.981L80.5 137.965V14.9915Z" fill="#C1CCDC"/>
<path fill-rule="evenodd" clip-rule="evenodd" d="M73.8872 70.7032L73.3298 70.8467V86.1262L75.241 85.6338C75.6606 85.5257 76.0252 85.3199 76.2834 85.0453C76.5417 84.7707 76.6807 84.4412 76.6808 84.1032V72.2338C76.681 71.9772 76.6011 71.7243 76.4478 71.4959C76.2944 71.2675 76.072 71.0703 75.799 70.9206C75.526 70.7709 75.2102 70.673 74.8777 70.635C74.5453 70.597 74.2057 70.6199 73.8872 70.702V70.7032ZM80.5 15.3186L26.0831 29.0079L0.5 14.6171L54.1158 1.30097L80.5 15.3186Z" fill="#C1CCDC"/>
<path fill-rule="evenodd" clip-rule="evenodd" d="M4.98975 135.796L21.7399 131.978Z" fill="#C1CCDC"/>
<path fill-rule="evenodd" clip-rule="evenodd" d="M80.5 17.8181L26.0831 31.9512L0.5 17.8193" fill="#C1CCDC"/>
<path fill-rule="evenodd" clip-rule="evenodd" d="M0.5 14.6171L26.0831 28.6346V151.981L0.501592 137.965L0.5 14.6171Z" fill="#C1CCDC"/>
<path fill-rule="evenodd" clip-rule="evenodd" d="M4.99134 24.1959L21.7399 33.3724V144.973L4.98975 135.796L4.99134 24.1959ZM11.8558 11.0063C12.7306 11.4397 13.4495 12.0333 13.9472 12.7329C14.4448 13.4325 14.7053 14.2161 14.7051 15.0122V15.4109C14.705 15.6645 14.6153 15.9133 14.4455 16.1312C14.2756 16.3491 14.0319 16.528 13.74 16.649C13.4481 16.77 13.1188 16.8286 12.7869 16.8187C12.455 16.8088 12.1328 16.7307 11.8542 16.5927C10.9796 16.1593 10.2608 15.566 9.76316 14.8666C9.26553 14.1672 9.00487 13.3839 9.00488 12.588V12.188C9.00493 11.9344 9.0946 11.6856 9.26445 11.4677C9.43429 11.2498 9.67801 11.0709 9.96991 10.9499C10.2618 10.8289 10.5911 10.7703 10.923 10.7802C11.2549 10.7902 11.5771 10.8682 11.8558 11.0063ZM25.2549 17.9446C26.13 18.3779 26.8493 18.9713 27.3472 19.671C27.8451 20.3706 28.1059 21.1542 28.1058 21.9505V22.3492C28.1058 22.6028 28.0161 22.8516 27.8462 23.0695C27.6764 23.2874 27.4327 23.4663 27.1408 23.5873C26.8489 23.7083 26.5196 23.7669 26.1877 23.757C25.8558 23.7471 25.5335 23.669 25.2549 23.5309C24.38 23.0978 23.6609 22.5045 23.163 21.805C22.6651 21.1056 22.4042 20.3223 22.404 19.5263V19.1263C22.4041 18.8727 22.4938 18.6239 22.6636 18.406C22.8335 18.1881 23.0772 18.0092 23.3691 17.8882C23.661 17.7672 23.9902 17.7086 24.3221 17.7185C24.6541 17.7284 24.9763 17.8065 25.2549 17.9446ZM67.8908 7.61921C68.7657 8.05239 69.4848 8.64568 69.9827 9.3451C70.4806 10.0445 70.7415 10.8279 70.7417 11.6239V12.0239C70.7416 12.2774 70.652 12.5263 70.4821 12.7442C70.3123 12.9621 70.0685 13.1409 69.7766 13.2619C69.4847 13.3829 69.1555 13.4416 68.8236 13.4316C68.4917 13.4217 68.1694 13.3436 67.8908 13.2056C67.016 12.7721 66.297 12.1786 65.7994 11.479C65.3018 10.7793 65.0412 9.9958 65.0415 9.19969V8.80092C65.0416 8.54737 65.1312 8.29853 65.3011 8.08063C65.4709 7.86274 65.7146 7.68386 66.0065 7.56287C66.2984 7.44187 66.6277 7.38324 66.9596 7.39316C67.2915 7.40308 67.6122 7.48117 67.8908 7.61921ZM55.4058 0.727135C56.2806 1.16057 56.9996 1.75411 57.4972 2.45375C57.9949 3.15339 58.2554 3.93692 58.2551 4.73303V5.13179C58.2551 5.38534 58.1654 5.63419 57.9956 5.85208C57.8257 6.06998 57.582 6.24886 57.2901 6.36985C56.9982 6.49085 56.6689 6.54948 56.337 6.53956C56.0051 6.52964 55.6829 6.45154 55.4042 6.3135C54.5296 5.88018 53.8109 5.28683 53.3132 4.58742C52.8156 3.88801 52.5549 3.10473 52.5549 2.30882V1.90884C52.555 1.65529 52.6447 1.40645 52.8145 1.18855C52.9844 0.970656 53.2281 0.79178 53.52 0.670785C53.8119 0.549791 54.1412 0.491161 54.4731 0.501079C54.805 0.510996 55.1272 0.589093 55.4058 0.727135Z" fill="#C1CCDC"/>
<path d="M80.5 15.8377H81V15.5371L80.7346 15.3961L80.5 15.8377ZM80.5 138.482L80.6247 138.967L81 138.87V138.482H80.5ZM26.0831 152.5L25.8428 152.938L26.0163 153.034L26.2078 152.984L26.0831 152.5ZM0.501592 138.482H0.0015918V138.779L0.26132 138.921L0.501592 138.482ZM0.501592 15.6748L0.376494 15.1907L0.0015918 15.2875V15.6748H0.501592ZM54.1158 1.82009L54.3504 1.37854L54.1788 1.28739L53.9907 1.336L54.1158 1.82009ZM80.5 14.9915H81C81 14.8369 80.9285 14.691 80.8063 14.5963C80.6841 14.5016 80.525 14.4688 80.3753 14.5073L80.5 14.9915ZM26.0831 151.981L25.8429 152.419C25.9543 152.48 26.0848 152.497 26.2078 152.465L26.0831 151.981ZM80.5 137.965L80.6247 138.449C80.8456 138.392 81 138.193 81 137.965H80.5ZM73.8872 70.7032L74.0118 71.1874C74.2328 71.1306 74.3872 70.9314 74.3872 70.7032H73.8872ZM73.3298 70.8467L73.2052 70.3624C72.9842 70.4193 72.8298 70.6185 72.8298 70.8467H73.3298ZM73.3298 86.1262H72.8298C72.8298 86.2808 72.9013 86.4267 73.0235 86.5214C73.1457 86.6161 73.3048 86.6489 73.4545 86.6104L73.3298 86.1262ZM75.241 85.6338L75.3657 86.118H75.3657L75.241 85.6338ZM76.6808 84.1032L77.1808 84.1033V84.1032H76.6808ZM76.6808 72.2338L76.1808 72.2334V72.2338H76.6808ZM73.8872 70.702L73.7625 70.2178C73.5416 70.2747 73.3872 70.4739 73.3872 70.702H73.8872ZM80.5 15.3186L80.622 15.8034C80.8226 15.753 80.9714 15.5842 80.9963 15.3789C81.0213 15.1736 80.9173 14.974 80.7346 14.877L80.5 15.3186ZM0.5 14.6171L0.379481 14.1318C0.15653 14.1872 -2.98023e-06 14.3873 0 14.6171L0.5 14.6171ZM54.1158 1.30097L54.3504 0.859417C54.2414 0.801546 54.115 0.78598 53.9953 0.815711L54.1158 1.30097ZM4.98975 135.796H4.48975C4.48974 135.978 4.58932 136.146 4.74949 136.234L4.98975 135.796ZM21.851 132.466C22.1202 132.404 22.2888 132.136 22.2274 131.867C22.166 131.598 21.898 131.429 21.6288 131.491L21.7399 131.978L21.851 132.466ZM80.6257 18.3021C80.893 18.2327 81.0534 17.9597 80.9839 17.6924C80.9145 17.4252 80.6416 17.2648 80.3743 17.3342L80.5 17.8181L80.6257 18.3021ZM26.0831 31.9512L25.8414 32.3889C25.9534 32.4508 26.0849 32.4673 26.2088 32.4352L26.0831 31.9512ZM0.741762 17.3817C0.500046 17.2482 0.195856 17.3359 0.0623345 17.5776C-0.071187 17.8193 0.0165219 18.1235 0.258238 18.257L0.5 17.8193L0.741762 17.3817ZM26.0831 28.6346H26.5831C26.5831 28.452 26.4835 28.2839 26.3234 28.1962L26.0831 28.6346ZM0.501592 137.965L0.0015918 137.965C0.00159416 138.147 0.101171 138.315 0.261336 138.403L0.501592 137.965ZM4.99134 24.1959L5.23159 23.7575C5.07668 23.6726 4.88849 23.6757 4.73651 23.7658C4.58454 23.8558 4.49134 24.0193 4.49134 24.1959L4.99134 24.1959ZM21.7399 33.3724H22.2399C22.2399 33.1898 22.1403 33.0217 21.9801 32.9339L21.7399 33.3724ZM21.7399 144.973L21.4996 145.412C21.6545 145.497 21.8427 145.493 21.9947 145.403C22.1467 145.313 22.2399 145.15 22.2399 144.973H21.7399ZM11.8558 11.0063L12.0777 10.5583L12.0777 10.5583L11.8558 11.0063ZM14.7051 15.0122L14.2051 15.012V15.0122H14.7051ZM14.7051 15.4109L15.2051 15.411V15.4109H14.7051ZM11.8542 16.5927L11.6322 17.0407L11.6322 17.0407L11.8542 16.5927ZM9.00488 12.588L9.50488 12.588V12.588H9.00488ZM9.00488 12.188L8.50488 12.1879V12.188H9.00488ZM25.2549 17.9446L25.0329 18.3926L25.0331 18.3927L25.2549 17.9446ZM28.1058 21.9505L27.6058 21.9504V21.9505H28.1058ZM28.1058 22.3492L28.6058 22.3493V22.3492H28.1058ZM25.2549 23.5309L25.4769 23.0829L25.4768 23.0829L25.2549 23.5309ZM22.404 19.5263H21.904V19.5264L22.404 19.5263ZM22.404 19.1263L21.904 19.1262V19.1263H22.404ZM67.8908 7.61922L67.6688 8.06724L67.6689 8.0673L67.8908 7.61922ZM70.7417 11.6239H71.2417V11.6238L70.7417 11.6239ZM70.7417 12.0239L71.2417 12.024V12.0239H70.7417ZM67.8908 13.2056L67.6688 13.6536V13.6536L67.8908 13.2056ZM65.0415 9.19969L65.5415 9.19986V9.19969H65.0415ZM65.0415 8.80092L64.5415 8.80083V8.80092H65.0415ZM55.4058 0.727135L55.6278 0.27911V0.27911L55.4058 0.727135ZM58.2551 4.73303L57.7551 4.73286V4.73303H58.2551ZM58.2551 5.13179L58.7551 5.13189V5.13179H58.2551ZM55.4042 6.3135L55.1823 6.76153V6.76153L55.4042 6.3135ZM52.5549 2.30882L53.0549 2.30883V2.30882H52.5549ZM52.5549 1.90884L52.0549 1.90875V1.90884H52.5549ZM80.5 15.8377H80V138.482H80.5H81V15.8377H80.5ZM80.5 138.482L80.3753 137.998L25.9584 152.016L26.0831 152.5L26.2078 152.984L80.6247 138.967L80.5 138.482ZM26.0831 152.5L26.3234 152.062L0.741863 138.044L0.501592 138.482L0.26132 138.921L25.8428 152.938L26.0831 152.5ZM0.501592 138.482H1.00159V15.6748H0.501592H0.0015918V138.482H0.501592ZM0.501592 15.6748L0.62669 16.1589L54.2409 2.30419L54.1158 1.82009L53.9907 1.336L0.376494 15.1907L0.501592 15.6748ZM54.1158 1.82009L53.8812 2.26164L80.2654 16.2792L80.5 15.8377L80.7346 15.3961L54.3504 1.37854L54.1158 1.82009ZM80.5 14.9915L80.3753 14.5073L25.9584 28.5237L26.0831 29.0079L26.2078 29.4921L80.6247 15.4757L80.5 14.9915ZM26.0831 29.0079H25.5831V151.981H26.0831H26.5831V29.0079H26.0831ZM26.0831 151.981L26.2078 152.465L80.6247 138.449L80.5 137.965L80.3753 137.48L25.9584 151.497L26.0831 151.981ZM80.5 137.965H81V14.9915H80.5H80V137.965H80.5ZM73.8872 70.7032L73.7626 70.219L73.2052 70.3624L73.3298 70.8467L73.4544 71.3309L74.0118 71.1874L73.8872 70.7032ZM73.3298 70.8467H72.8298V86.1262H73.3298H73.8298V70.8467H73.3298ZM73.3298 86.1262L73.4545 86.6104L75.3657 86.118L75.241 85.6338L75.1162 85.1496L73.205 85.642L73.3298 86.1262ZM75.241 85.6338L75.3657 86.118C75.8629 85.9899 76.3153 85.7412 76.6476 85.3879L76.2834 85.0453L75.9193 84.7027C75.735 84.8986 75.4582 85.0615 75.1162 85.1496L75.241 85.6338ZM76.2834 85.0453L76.6476 85.3879C76.9822 85.0322 77.1807 84.5837 77.1808 84.1033L76.6808 84.1032L76.1808 84.1031C76.1807 84.2988 76.1012 84.5093 75.9193 84.7027L76.2834 85.0453ZM76.6808 84.1032H77.1808V72.2338H76.6808H76.1808V84.1032H76.6808ZM76.6808 72.2338L77.1808 72.2342C77.1811 71.8709 77.0674 71.5218 76.8629 71.2172L76.4478 71.4959L76.0327 71.7746C76.1348 71.9267 76.1809 72.0835 76.1808 72.2334L76.6808 72.2338ZM76.4478 71.4959L76.8629 71.2172C76.6593 70.9141 76.3733 70.6653 76.0394 70.4822L75.799 70.9206L75.5586 71.359C75.7708 71.4754 75.9295 71.621 76.0327 71.7746L76.4478 71.4959ZM75.799 70.9206L76.0394 70.4822C75.7054 70.2991 75.3265 70.183 74.9345 70.1382L74.8777 70.635L74.8209 71.1317C75.0938 71.1629 75.3466 71.2428 75.5586 71.359L75.799 70.9206ZM74.8777 70.635L74.9345 70.1382C74.5424 70.0934 74.1413 70.1202 73.7625 70.2178L73.8872 70.702L74.012 71.1862C74.2702 71.1196 74.5482 71.1005 74.8209 71.1317L74.8777 70.635ZM73.8872 70.702H73.3872V70.7032H73.8872H74.3872V70.702H73.8872ZM80.5 15.3186L80.378 14.8337L25.9611 28.523L26.0831 29.0079L26.2051 29.4928L80.622 15.8034L80.5 15.3186ZM26.0831 29.0079L26.3283 28.5721L0.745135 14.1813L0.5 14.6171L0.254865 15.0529L25.838 29.4437L26.0831 29.0079ZM0.5 14.6171L0.620519 15.1023L54.2363 1.78623L54.1158 1.30097L53.9953 0.815711L0.379481 14.1318L0.5 14.6171ZM54.1158 1.30097L53.8812 1.74252L80.2654 15.7601L80.5 15.3186L80.7346 14.877L54.3504 0.859417L54.1158 1.30097ZM4.98975 135.796L5.10085 136.283L21.851 132.466L21.7399 131.978L21.6288 131.491L4.87864 135.308L4.98975 135.796ZM80.5 17.8181L80.3743 17.3342L25.9574 31.4673L26.0831 31.9512L26.2088 32.4352L80.6257 18.3021L80.5 17.8181ZM26.0831 31.9512L26.3249 31.5135L0.741762 17.3817L0.5 17.8193L0.258238 18.257L25.8414 32.3889L26.0831 31.9512ZM0.5 14.6171L0.25974 15.0556L25.8429 29.0731L26.0831 28.6346L26.3234 28.1962L0.74026 14.1786L0.5 14.6171ZM26.0831 28.6346H25.5831V151.981H26.0831H26.5831V28.6346H26.0831ZM26.0831 151.981L26.3234 151.542L0.741847 137.526L0.501592 137.965L0.261336 138.403L25.8429 152.419L26.0831 151.981ZM0.501592 137.965H1.00159L1 14.6171L0.5 14.6171L0 14.6171L0.0015918 137.965L0.501592 137.965ZM4.99134 24.1959L4.75109 24.6344L21.4996 33.8109L21.7399 33.3724L21.9801 32.9339L5.23159 23.7575L4.99134 24.1959ZM21.7399 33.3724H21.2399V144.973H21.7399H22.2399V33.3724H21.7399ZM21.7399 144.973L21.9802 144.535L5.23001 135.357L4.98975 135.796L4.74949 136.234L21.4996 145.412L21.7399 144.973ZM4.98975 135.796L5.48975 135.796L5.49134 24.196L4.99134 24.1959L4.49134 24.1959L4.48975 135.796H4.98975ZM11.8558 11.0063L11.6338 11.4543C12.4449 11.8562 13.0961 12.399 13.5397 13.0227L13.9472 12.7329L14.3546 12.4431C13.8029 11.6675 13.0162 11.0232 12.0777 10.5583L11.8558 11.0063ZM13.9472 12.7329L13.5397 13.0227C13.9821 13.6447 14.2053 14.3281 14.2051 15.012L14.7051 15.0122L15.2051 15.0124C15.2054 14.104 14.9075 13.2204 14.3546 12.4431L13.9472 12.7329ZM14.7051 15.0122H14.2051V15.4109H14.7051H15.2051V15.0122H14.7051ZM14.7051 15.4109L14.2051 15.4109C14.205 15.5429 14.1591 15.6854 14.0511 15.8239L14.4455 16.1312L14.8398 16.4386C15.0716 16.1413 15.205 15.7861 15.2051 15.411L14.7051 15.4109ZM14.4455 16.1312L14.0511 15.8239C13.9417 15.9643 13.7722 16.0944 13.5486 16.1871L13.74 16.649L13.9315 17.1109C14.2916 16.9616 14.6096 16.734 14.8398 16.4386L14.4455 16.1312ZM13.74 16.649L13.5486 16.1871C13.3253 16.2797 13.0668 16.3269 12.8019 16.3189L12.7869 16.8187L12.772 17.3185C13.1709 17.3304 13.5709 17.2604 13.9315 17.1109L13.74 16.649ZM12.7869 16.8187L12.8019 16.3189C12.5369 16.311 12.286 16.2486 12.0761 16.1446L11.8542 16.5927L11.6322 17.0407C11.9796 17.2128 12.3731 17.3066 12.772 17.3185L12.7869 16.8187ZM11.8542 16.5927L12.0761 16.1446C11.2652 15.7429 10.6142 15.2002 10.1706 14.5767L9.76316 14.8666L9.35575 15.1564C9.90741 15.9318 10.6939 16.5758 11.6322 17.0407L11.8542 16.5927ZM9.76316 14.8666L10.1706 14.5767C9.72818 13.9549 9.50487 13.2717 9.50488 12.588L9.00488 12.588L8.50488 12.588C8.50487 13.4961 8.80288 14.3794 9.35575 15.1564L9.76316 14.8666ZM9.00488 12.588H9.50488V12.188H9.00488H8.50488V12.588H9.00488ZM9.00488 12.188L9.50488 12.1881C9.5049 12.056 9.55088 11.9136 9.6588 11.7751L9.26445 11.4677L8.8701 11.1603C8.63833 11.4577 8.50495 11.8128 8.50488 12.1879L9.00488 12.188ZM9.26445 11.4677L9.6588 11.7751C9.76826 11.6347 9.93768 11.5046 10.1614 11.4118L9.96991 10.9499L9.77846 10.488C9.41834 10.6373 9.10032 10.865 8.8701 11.1603L9.26445 11.4677ZM9.96991 10.9499L10.1614 11.4118C10.3846 11.3193 10.6432 11.2721 10.9081 11.28L10.923 10.7802L10.9379 10.2805C10.539 10.2685 10.139 10.3386 9.77846 10.488L9.96991 10.9499ZM10.923 10.7802L10.9081 11.28C11.173 11.2879 11.424 11.3504 11.6338 11.4543L11.8558 11.0063L12.0777 10.5583C11.7303 10.3861 11.3368 10.2924 10.9379 10.2805L10.923 10.7802ZM25.2549 17.9446L25.0331 18.3927C25.8445 18.7944 26.496 19.3372 26.9398 19.9609L27.3472 19.671L27.7546 19.3811C27.2026 18.6055 26.4156 17.9613 25.4768 17.4965L25.2549 17.9446ZM27.3472 19.671L26.9398 19.9609C27.3825 20.5829 27.6059 21.2664 27.6058 21.9504L28.1058 21.9505L28.6058 21.9505C28.6059 21.0421 28.3078 20.1584 27.7546 19.3811L27.3472 19.671ZM28.1058 21.9505H27.6058V22.3492H28.1058H28.6058V21.9505H28.1058ZM28.1058 22.3492L27.6058 22.3491C27.6058 22.4812 27.5598 22.6237 27.4519 22.7621L27.8462 23.0695L28.2406 23.3769C28.4724 23.0796 28.6057 22.7244 28.6058 22.3493L28.1058 22.3492ZM27.8462 23.0695L27.4519 22.7621C27.3424 22.9026 27.173 23.0327 26.9493 23.1254L27.1408 23.5873L27.3322 24.0492C27.6923 23.8999 28.0104 23.6723 28.2406 23.3769L27.8462 23.0695ZM27.1408 23.5873L26.9493 23.1254C26.7261 23.2179 26.4675 23.2651 26.2026 23.2572L26.1877 23.757L26.1728 24.2568C26.5717 24.2687 26.9717 24.1986 27.3322 24.0492L27.1408 23.5873ZM26.1877 23.757L26.2026 23.2572C25.9377 23.2493 25.6867 23.1869 25.4769 23.0829L25.2549 23.5309L25.0329 23.979C25.3804 24.1511 25.7739 24.2449 26.1728 24.2568L26.1877 23.757ZM25.2549 23.5309L25.4768 23.0829C24.6656 22.6812 24.0142 22.1386 23.5703 21.5151L23.163 21.805L22.7557 22.095C23.3077 22.8704 24.0945 23.5143 25.0331 23.979L25.2549 23.5309ZM23.163 21.805L23.5703 21.5151C23.1277 20.8933 22.9042 20.21 22.904 19.5262L22.404 19.5263L21.904 19.5264C21.9042 20.4346 22.2025 21.318 22.7557 22.095L23.163 21.805ZM22.404 19.5263H22.904V19.1263H22.404H21.904V19.5263H22.404ZM22.404 19.1263L22.904 19.1264C22.9041 18.9943 22.95 18.8518 23.058 18.7134L22.6636 18.406L22.2693 18.0986C22.0375 18.3959 21.9041 18.7511 21.904 19.1262L22.404 19.1263ZM22.6636 18.406L23.058 18.7134C23.1674 18.5729 23.3368 18.4428 23.5605 18.3501L23.3691 17.8882L23.1776 17.4263C22.8175 17.5756 22.4995 17.8032 22.2693 18.0986L22.6636 18.406ZM23.3691 17.8882L23.5605 18.3501C23.7838 18.2576 24.0423 18.2104 24.3072 18.2183L24.3221 17.7185L24.3371 17.2187C23.9381 17.2068 23.5382 17.2769 23.1776 17.4263L23.3691 17.8882ZM24.3221 17.7185L24.3072 18.2183C24.5722 18.2262 24.8231 18.2886 25.0329 18.3926L25.2549 17.9446L25.4769 17.4965C25.1295 17.3244 24.7359 17.2307 24.3371 17.2187L24.3221 17.7185ZM67.8908 7.61922L67.6689 8.0673C68.4802 8.46895 69.1315 9.01158 69.5754 9.63507L69.9827 9.3451L70.39 9.05513C69.8381 8.27978 69.0512 7.63583 68.1127 7.17113L67.8908 7.61922ZM69.9827 9.3451L69.5754 9.63507C70.018 10.2569 70.2415 10.9402 70.2417 11.624L70.7417 11.6239L71.2417 11.6238C71.2415 10.7156 70.9432 9.83218 70.39 9.05513L69.9827 9.3451ZM70.7417 11.6239H70.2417V12.0239H70.7417H71.2417V11.6239H70.7417ZM70.7417 12.0239L70.2417 12.0238C70.2417 12.1558 70.1957 12.2983 70.0878 12.4368L70.4821 12.7442L70.8765 13.0516C71.1082 12.7542 71.2416 12.399 71.2417 12.024L70.7417 12.0239ZM70.4821 12.7442L70.0878 12.4368C69.9783 12.5772 69.8089 12.7073 69.5852 12.8L69.7766 13.2619L69.9681 13.7238C70.3282 13.5746 70.6462 13.3469 70.8765 13.0516L70.4821 12.7442ZM69.7766 13.2619L69.5852 12.8C69.3619 12.8926 69.1034 12.9398 68.8385 12.9319L68.8236 13.4316L68.8086 13.9314C69.2076 13.9433 69.6075 13.8733 69.9681 13.7238L69.7766 13.2619ZM68.8236 13.4316L68.8385 12.9319C68.5736 12.9239 68.3226 12.8615 68.1128 12.7576L67.8908 13.2056L67.6688 13.6536C68.0162 13.8257 68.4098 13.9195 68.8086 13.9314L68.8236 13.4316ZM67.8908 13.2056L68.1128 12.7576C67.3016 12.3557 66.6505 11.8128 66.2069 11.1892L65.7994 11.479L65.392 11.7688C65.9436 12.5444 66.7303 13.1886 67.6688 13.6536L67.8908 13.2056ZM65.7994 11.479L66.2069 11.1892C65.7645 10.5672 65.5413 9.88376 65.5415 9.19986L65.0415 9.19969L64.5415 9.19952C64.5412 10.1078 64.8391 10.9915 65.392 11.7688L65.7994 11.479ZM65.0415 9.19969H65.5415V8.80092H65.0415H64.5415V9.19969H65.0415ZM65.0415 8.80092L65.5415 8.80102C65.5415 8.66897 65.5875 8.52647 65.6954 8.38802L65.3011 8.08063L64.9067 7.77324C64.675 8.07058 64.5416 8.42577 64.5415 8.80083L65.0415 8.80092ZM65.3011 8.08063L65.6954 8.38802C65.8049 8.24759 65.9743 8.11748 66.198 8.02476L66.0065 7.56286L65.8151 7.10097C65.455 7.25024 65.137 7.47788 64.9067 7.77324L65.3011 8.08063ZM66.0065 7.56286L66.198 8.02476C66.4212 7.93222 66.6798 7.88502 66.9447 7.89294L66.9596 7.39316L66.9745 6.89338C66.5756 6.88146 66.1756 6.95152 65.8151 7.10097L66.0065 7.56286ZM66.9596 7.39316L66.9447 7.89294C67.2092 7.90084 67.4587 7.96311 67.6688 8.06724L67.8908 7.61922L68.1128 7.17119C67.7657 6.99923 67.3738 6.90531 66.9745 6.89338L66.9596 7.39316ZM55.4058 0.727135L55.1839 1.17516C55.995 1.57704 56.6462 2.11989 57.0898 2.74356L57.4972 2.45375L57.9047 2.16394C57.353 1.38832 56.5663 0.744091 55.6278 0.27911L55.4058 0.727135ZM57.4972 2.45375L57.0898 2.74356C57.5322 3.36551 57.7554 4.04896 57.7551 4.73286L58.2551 4.73303L58.7551 4.7332C58.7554 3.82488 58.4576 2.94127 57.9047 2.16394L57.4972 2.45375ZM58.2551 4.73303H57.7551V5.13179H58.2551H58.7551V4.73303H58.2551ZM58.2551 5.13179L57.7551 5.1317C57.7551 5.26375 57.7091 5.40624 57.6012 5.5447L57.9956 5.85208L58.3899 6.15947C58.6217 5.86213 58.7551 5.50694 58.7551 5.13189L58.2551 5.13179ZM57.9956 5.85208L57.6012 5.5447C57.4917 5.68513 57.3223 5.81524 57.0986 5.90796L57.2901 6.36985L57.4815 6.83174C57.8416 6.68248 58.1597 6.45483 58.3899 6.15947L57.9956 5.85208ZM57.2901 6.36985L57.0986 5.90796C56.8754 6.0005 56.6168 6.0477 56.3519 6.03978L56.337 6.53956L56.3221 7.03933C56.721 7.05125 57.121 6.98119 57.4815 6.83174L57.2901 6.36985ZM56.337 6.53956L56.3519 6.03978C56.087 6.03186 55.836 5.96943 55.6262 5.86548L55.4042 6.3135L55.1823 6.76153C55.5297 6.93366 55.9232 7.02742 56.3221 7.03933L56.337 6.53956ZM55.4042 6.3135L55.6262 5.86548C54.8153 5.4637 54.1642 4.92102 53.7206 4.29756L53.3132 4.58742L52.9058 4.87729C53.4575 5.65264 54.244 6.29666 55.1823 6.76153L55.4042 6.3135ZM53.3132 4.58742L53.7206 4.29756C53.2783 3.67579 53.0549 2.99255 53.0549 2.30883L52.5549 2.30882L52.0549 2.30882C52.0549 3.21691 52.353 4.10023 52.9058 4.87729L53.3132 4.58742ZM52.5549 2.30882H53.0549V1.90884H52.5549H52.0549V2.30882H52.5549ZM52.5549 1.90884L53.0549 1.90894C53.055 1.77689 53.1009 1.6344 53.2089 1.49594L52.8145 1.18855L52.4202 0.881164C52.1884 1.1785 52.055 1.53369 52.0549 1.90875L52.5549 1.90884ZM52.8145 1.18855L53.2089 1.49594C53.3183 1.35551 53.4878 1.2254 53.7114 1.13268L53.52 0.670785L53.3285 0.208893C52.9684 0.358161 52.6504 0.585801 52.4202 0.881164L52.8145 1.18855ZM53.52 0.670785L53.7114 1.13268C53.9347 1.04014 54.1932 0.992941 54.4581 1.00086L54.4731 0.501079L54.488 0.00130159C54.0891 -0.0106188 53.6891 0.059441 53.3285 0.208893L53.52 0.670785ZM54.4731 0.501079L54.4581 1.00086C54.7231 1.00877 54.974 1.07121 55.1839 1.17516L55.4058 0.727135L55.6278 0.27911C55.2804 0.106981 54.8869 0.01322 54.488 0.00130159L54.4731 0.501079Z" fill="black"/>
</svg>
