<svg width="83" height="88" viewBox="0 0 83 88" fill="none" xmlns="http://www.w3.org/2000/svg">
<path d="M74.8627 0.384057C76.8162 -0.119592 78.2586 -0.256702 80.1 0.777306C81.0968 1.33702 81.9706 1.21474 82.2046 2.85761C82.4523 4.59697 82.3124 6.47638 82.3221 8.25708L82.4147 19.1848L82.5472 46.6508C82.5656 50.9032 82.6666 55.1687 82.6437 59.4222C82.6403 60.0747 82.4887 61.3931 82.1692 61.9728C81.9174 62.4296 81.072 62.8842 80.5776 63.0858C78.9184 63.7625 77.1817 64.2808 75.4862 64.8731L64.5932 68.6591L15.2257 85.8932C13.5652 86.4727 10.9537 87.293 9.40192 87.923C8.42976 87.6296 6.96167 87.1338 6.46016 86.1785C6.12713 85.5443 6.23784 84.6862 6.13719 83.9811C6.08011 83.5816 5.51552 82.8698 5.47947 82.5462C5.29209 80.8648 5.18819 78.9407 5.1241 77.2528C4.49188 76.9519 2.71707 76.0702 2.71565 75.3172L2.65796 75.0424C2.51912 73.9956 2.51415 72.3513 2.46631 71.2343L2.13877 63.225L0.914844 38.5802C0.857665 37.4938 0.708774 36.4127 0.64286 35.3256C0.539672 33.624 -0.233117 19.2879 0.0700472 18.8529C0.383571 18.403 0.940945 18.4154 1.4123 18.3117C2.68802 18.031 1.83805 16.0709 2.67116 14.8448C3.13876 14.1565 3.89286 13.9238 4.66392 13.767C5.61252 13.4927 6.93476 13.4344 7.94876 13.1744C11.7913 12.1892 16.3 11.8591 20.0789 10.8145C20.975 10.7562 22.7371 10.3328 23.8623 10.1998C24.0594 10.1014 24.2742 10.0738 24.4924 10.03C25.5666 9.87335 26.706 9.58785 27.7812 9.37528L34.0912 8.15034L50.9405 5.00007C53.155 4.59413 56.6674 3.72556 58.8129 3.53026C59.9821 3.31088 61.1412 3.026 62.3085 2.80236C63.2754 2.61721 64.1955 2.51565 65.1592 2.2916C66.858 2.10849 68.8365 1.40852 70.4426 1.36454C70.8501 1.167 73.4663 0.704588 74.1666 0.563314L74.8627 0.384057Z" fill="#202328"/>
<path d="M70.4426 1.36454C70.8501 1.167 73.4663 0.704588 74.1666 0.563314C74.5621 0.651166 74.8781 0.646901 75.1059 0.908831C75.0039 0.975456 74.9031 1.04401 74.8038 1.1146C74.948 1.20326 74.9314 1.21006 75.0911 1.25191C75.741 1.20692 77.0704 1.04543 77.6323 0.760143C78.6954 0.803002 79.2272 0.814885 80.2631 1.13135C73.0343 2.7918 65.7828 4.03878 58.5017 5.45406L29.7883 11.0583L14.636 13.9696L9.60179 14.9495C8.13228 15.2253 5.91355 15.2693 5.02386 16.6302C4.74111 17.0628 4.76041 18.0038 4.73959 18.5246C4.70506 22.0067 4.98293 25.4458 5.15498 28.9171L5.96027 44.4175L7.3013 73.788C7.46888 76.9327 7.74137 80.0361 7.70907 83.1973C7.70217 83.8792 8.06647 86.5652 7.89574 86.9382C7.51488 86.9516 6.89789 86.1545 6.62875 85.8496C6.23083 82.1266 6.36743 78.5894 6.05949 74.8756C5.93995 73.4337 5.90116 71.9623 5.84662 70.5149C5.89953 70.2283 5.67904 67.5298 5.56234 67.3196L5.38217 67.3176C5.18636 66.7125 5.1952 65.0324 5.18758 64.3176C5.26172 61.1685 4.64229 57.947 4.73299 54.786C4.76833 53.5565 3.92556 47.8164 4.60959 47.0432C4.66413 46.7498 4.31485 42.9039 4.28631 42.3356L3.90525 34.364C3.70558 29.1382 3.41501 23.9565 3.09306 18.739C2.92314 15.9858 3.32807 15.2074 5.95915 14.4679C5.73632 14.3103 5.43753 14.3213 5.15122 14.2958L5.1433 14.1842C4.81972 14.0813 4.43033 14.1433 4.08339 14.1717C4.35253 14.0223 4.43226 13.9574 4.66392 13.767C5.61252 13.4927 6.93476 13.4344 7.94876 13.1744C11.7913 12.1892 16.3 11.8591 20.0789 10.8145C20.975 10.7562 22.7371 10.3328 23.8623 10.1998C24.0594 10.1014 24.2742 10.0738 24.4924 10.03C25.5666 9.87335 26.706 9.58785 27.7812 9.37528L34.0912 8.15034L50.9405 5.00007C53.155 4.59413 56.6674 3.72556 58.8129 3.53026C59.9821 3.31088 61.1412 3.026 62.3085 2.80236C63.2754 2.61721 64.1955 2.51565 65.1592 2.2916C66.858 2.10849 68.8365 1.40852 70.4426 1.36454Z" fill="#90A1B9"/>
<path d="M58.8129 3.53026C60.1402 3.53534 59.9624 3.8646 60.9138 3.99044L35.9096 8.81476C32.6564 9.43978 28.3646 10.103 25.2119 10.8413C25.4855 10.6471 25.6578 10.6773 25.9529 10.3565L25.9293 10.1799C25.5624 10.0912 24.8912 10.0606 24.4924 10.03C25.5666 9.87335 26.706 9.58785 27.7812 9.37528L34.0912 8.15034L50.9405 5.00007C53.155 4.59413 56.6674 3.72556 58.8129 3.53026Z" fill="#4D585F"/>
<path d="M29.2441 9.26915C29.5585 9.25828 30.2215 9.20303 30.4876 9.29383L30.4833 9.38575C30.3036 9.47096 30.2808 9.52123 30.1478 9.67967L30.1046 9.73197C29.6976 9.86431 29.3762 9.97592 29.0086 9.70709L29.0008 9.53474L29.2441 9.26915Z" fill="#5E666F"/>
<path d="M35.5467 8.05111C35.8901 8.0242 36.2446 7.95229 36.5558 8.1152L36.5661 8.03517L36.6384 8.08331C36.5797 8.55953 36.5153 8.21412 36.4991 8.55496C36.124 8.6421 35.8483 8.70761 35.4911 8.55791C35.387 8.28267 35.3942 8.40607 35.5467 8.05111Z" fill="#5E666F"/>
<path d="M4.66392 13.767C5.61252 13.4927 6.93476 13.4344 7.94876 13.1744C11.7913 12.1892 16.3 11.8591 20.0789 10.8145C19.948 11.269 19.7276 11.5417 19.2866 11.7961L19.2635 11.9235C17.2003 12.4543 14.831 12.8608 12.7293 13.2493C11.5765 13.4625 6.86651 14.4933 5.95915 14.4679C5.73632 14.3103 5.43753 14.3213 5.15122 14.2958L5.1433 14.1842C4.81972 14.0813 4.43033 14.1433 4.08339 14.1717C4.35253 14.0223 4.43226 13.9574 4.66392 13.767Z" fill="#616D74"/>
<path d="M58.8129 3.53026C59.9821 3.31088 61.1412 3.026 62.3085 2.80236C63.2754 2.61721 64.1955 2.51565 65.1592 2.2916C65.7298 2.27129 66.0474 2.20822 66.5064 2.55587L66.4845 2.59914C66.7225 2.78642 66.9231 2.74985 67.2233 2.74559C66.2515 2.9154 65.4627 3.18982 64.5516 3.38421C64.0602 3.48903 63.5192 3.62502 63.0219 3.64492C62.3451 3.74425 61.5723 3.84074 60.9138 3.99044C59.9624 3.8646 60.1402 3.53534 58.8129 3.53026Z" fill="#3C454A"/>
<path d="M63.0219 3.64492C63.1961 3.12056 63.2763 2.85406 63.8574 2.688C64.1764 2.71532 64.2229 2.71664 64.4766 2.90768C64.5106 3.07648 64.5297 3.21339 64.5516 3.38421C64.0602 3.48903 63.5192 3.62502 63.0219 3.64492Z" fill="#4D585F"/>
<path d="M5.18758 64.3176C5.26172 61.1685 4.64229 57.947 4.73299 54.786C4.76833 53.5565 3.92556 47.8164 4.60959 47.0432L5.11588 58.2576C5.27878 61.4175 5.47571 64.0935 5.56234 67.3196L5.38217 67.3176C5.18636 66.7125 5.1952 65.0324 5.18758 64.3176Z" fill="#202328"/>
<path d="M23.8623 10.1998C24.0594 10.1014 24.2742 10.0738 24.4924 10.03C24.8912 10.0606 25.5624 10.0912 25.9293 10.1799L25.9529 10.3565C25.6578 10.6773 25.4855 10.6471 25.2119 10.8413C24.7563 10.9453 24.072 11.1231 23.6286 11.1995C22.8912 11.324 19.8274 11.8992 19.2635 11.9235L19.2866 11.7961C19.7276 11.5417 19.948 11.269 20.0789 10.8145C20.975 10.7562 22.7371 10.3328 23.8623 10.1998Z" fill="#5E666F"/>
<path d="M23.8623 10.1998C24.0594 10.1014 24.2742 10.0738 24.4924 10.03C24.8912 10.0606 25.5624 10.0912 25.9293 10.1799L25.9529 10.3565C25.6578 10.6773 25.4855 10.6471 25.2119 10.8413C24.7563 10.9453 24.072 11.1231 23.6286 11.1995L23.5763 11.0022C23.2352 11.0144 22.9117 11.0599 22.6058 10.9189L22.6375 10.7411L22.9107 10.573C23.2212 10.5183 23.5684 10.3357 23.8623 10.1998Z" fill="#525D63"/>
<path d="M22.9107 10.573C23.2908 10.5391 23.6237 10.4737 23.9745 10.6172L23.9443 10.7847C23.8305 10.8531 23.691 10.9422 23.5763 11.0022C23.2352 11.0144 22.9117 11.0599 22.6058 10.9189L22.6375 10.7411L22.9107 10.573Z" fill="#8B8E92"/>
<path d="M65.1592 2.2916C66.858 2.10849 68.8365 1.40852 70.4426 1.36454L70.0075 1.54583C70.3465 1.55304 70.8035 1.51374 71.0558 1.70325C70.9544 1.87174 70.9441 1.8751 70.8106 2.00642L70.8509 2.16181C69.6028 2.49595 68.469 2.45725 67.2233 2.74559C66.9231 2.74985 66.7225 2.78642 66.4845 2.59914L66.5064 2.55587C66.0474 2.20822 65.7298 2.27129 65.1592 2.2916Z" fill="#4D585F"/>
<path d="M70.4426 1.36454C70.8501 1.167 73.4663 0.704588 74.1666 0.563314C74.5621 0.651166 74.8781 0.646901 75.1059 0.908831C75.0039 0.975456 74.9031 1.04401 74.8038 1.1146C74.948 1.20326 74.9314 1.21006 75.0911 1.25191L70.8509 2.16181L70.8106 2.00642C70.9441 1.8751 70.9544 1.87174 71.0558 1.70325C70.8035 1.51374 70.3465 1.55304 70.0075 1.54583L70.4426 1.36454Z" fill="#3C454A"/>
<path d="M2.65796 75.0424C2.51912 73.9956 2.51415 72.3513 2.46631 71.2343L2.13877 63.225L0.914844 38.5802C0.857665 37.4938 0.708774 36.4127 0.64286 35.3256C0.539672 33.624 -0.233117 19.2879 0.0700472 18.8529C0.383571 18.403 0.940945 18.4154 1.4123 18.3117C2.68802 18.031 1.83805 16.0709 2.67116 14.8448C3.13876 14.1565 3.89286 13.9238 4.66392 13.767C4.43226 13.9574 4.35253 14.0223 4.08339 14.1717C4.43033 14.1433 4.81972 14.0813 5.1433 14.1842L5.15122 14.2958C5.43753 14.3213 5.73632 14.3103 5.95915 14.4679C3.32807 15.2074 2.92314 15.9858 3.09306 18.739C3.41501 23.9565 3.70558 29.1382 3.90525 34.364L4.28631 42.3356C4.31485 42.9039 4.66413 46.7498 4.60959 47.0432C3.92556 47.8164 4.76833 53.5565 4.73299 54.786C4.64229 57.947 5.26172 61.1685 5.18758 64.3176L4.81038 64.454C4.63386 59.9711 4.26986 55.3797 4.01088 50.8884L3.20254 34.7564C3.05852 31.9819 2.9919 29.2446 2.73941 26.4669C2.58524 24.7714 2.85103 22.9749 2.43046 21.2715L2.19768 21.1819C2.24531 21.9352 2.46845 24.2994 2.22358 24.9017C1.77223 24.9379 1.81123 24.5972 1.43647 24.7465C1.27945 25.2042 1.41291 29.7666 1.67402 30.5005C1.77356 30.7802 2.34088 31.0066 2.64009 31.1301C2.7902 33.0925 3.77769 50.9412 3.59163 51.3969C3.06472 51.5036 3.12748 51.2113 2.667 51.4031C2.34078 51.9307 2.66934 52.7941 2.6022 53.1622C2.34637 54.5647 3.85792 54.9879 3.90749 55.6449C4.43845 62.6865 4.5126 69.8713 5.14533 76.8989C4.18567 76.4867 3.06604 75.3737 2.71565 75.3172L2.65796 75.0424Z" fill="#BFC5CD"/>
<path d="M2.65796 75.0424C2.51912 73.9956 2.51415 72.3513 2.46631 71.2343L2.13877 63.225L0.914844 38.5802C0.857665 37.4938 0.708774 36.4127 0.64286 35.3256C0.539672 33.624 -0.233117 19.2879 0.0700472 18.8529C0.383571 18.403 0.940945 18.4154 1.4123 18.3117C2.68802 18.031 1.83805 16.0709 2.67116 14.8448C3.13876 14.1565 3.89286 13.9238 4.66392 13.767C4.43226 13.9574 4.35253 14.0223 4.08339 14.1717C4.43033 14.1433 4.81972 14.0813 5.1433 14.1842L5.15122 14.2958C5.43753 14.3213 5.73632 14.3103 5.95915 14.4679C3.32807 15.2074 2.92314 15.9858 3.09306 18.739C3.41501 23.9565 3.70558 29.1382 3.90525 34.364L4.28631 42.3356C4.31485 42.9039 4.66413 46.7498 4.60959 47.0432C3.92556 47.8164 4.76833 53.5565 4.73299 54.786C4.64229 57.947 5.26172 61.1685 5.18758 64.3176L4.81038 64.454C4.63386 59.9711 4.26986 55.3797 4.01088 50.8884L3.20254 34.7564C3.05852 31.9819 2.9919 29.2446 2.73941 26.4669C2.58524 24.7714 2.85103 22.9749 2.43046 21.2715L2.19768 21.1819C1.89716 20.3641 2.21952 19.1133 1.69555 18.7455C1.2563 18.6899 0.196391 18.832 0.177297 19.4441C0.0988909 21.959 0.558969 24.478 0.655453 26.971L1.2953 41.1386C1.64325 49.2317 2.11582 57.3154 2.51466 65.4104C2.54492 66.0248 2.63338 69.547 2.75709 69.8433C3.17156 70.3026 3.67369 70.2312 3.93501 71.0107L3.80095 71.3072C3.88616 71.6322 3.90566 71.8621 3.71634 72.1658C3.90962 72.382 3.85691 72.2748 3.89256 72.592C3.87041 72.9033 3.92059 72.9226 3.74854 73.1395C3.95756 73.4342 3.97533 73.4005 3.90545 73.7898C3.86432 73.9558 3.83274 74.1161 3.76672 74.2734C3.94669 74.625 3.95065 74.5196 3.93734 74.8844C3.56004 75.2324 3.148 75.1022 2.65796 75.0424Z" fill="#757D88"/>
<path d="M4.08339 14.1717C4.43033 14.1433 4.81972 14.0813 5.1433 14.1842L5.15122 14.2958C2.95341 15.0329 2.63582 16.6259 2.48693 18.6911C2.01477 16.8551 2.35896 15.1347 4.08339 14.1717Z" fill="#90A1B9"/>
<path d="M3.71634 72.1658C2.66639 71.5595 2.72195 71.4271 2.75028 70.286C3.54775 70.7838 3.2845 70.8129 3.80095 71.3072C3.88616 71.6322 3.90566 71.8621 3.71634 72.1658Z" fill="#90A1B9"/>
<path d="M3.76672 74.2734C3.43989 74.6496 3.55872 74.6281 3.14668 74.7186L3.08676 74.6068C3.20772 74.4518 3.30644 74.3399 3.39592 74.1654C3.22478 73.9248 3.10352 73.781 2.91085 73.5613L2.98631 73.4532C3.53587 73.4522 3.36717 73.4473 3.90545 73.7898C3.86432 73.9558 3.83274 74.1161 3.76672 74.2734Z" fill="#90A1B9"/>
<path d="M3.74854 73.1395C3.35529 72.9571 2.91481 72.7904 2.81955 72.3278L3.03405 72.2468C3.3429 72.3141 3.60686 72.4564 3.89256 72.592C3.87041 72.9033 3.92059 72.9226 3.74854 73.1395Z" fill="#90A1B9"/>
<path d="M5.56234 67.3196C5.67904 67.5298 5.89953 70.2283 5.84662 70.5149L5.64136 70.6272C5.34236 73.0303 5.73551 74.5207 5.95031 76.8054C6.00536 77.391 6.05838 82.1559 5.94452 82.5466L5.79431 82.5451C5.29016 81.8814 5.69021 77.8244 5.53665 76.8234C5.10145 73.987 5.26172 71.0589 4.97064 68.2432L5.15457 68.2164C5.37395 67.9944 5.35597 67.6399 5.38217 67.3176L5.56234 67.3196Z" fill="#BFC5CD"/>
<path d="M74.8627 0.384057C75.9965 0.482166 76.9016 0.116744 77.6323 0.760143C77.0704 1.04543 75.741 1.20692 75.0911 1.25191C74.9314 1.21006 74.948 1.20326 74.8038 1.1146C74.9031 1.04401 75.0039 0.975456 75.1059 0.908831C74.8781 0.646901 74.5621 0.651166 74.1666 0.563314L74.8627 0.384057Z" fill="#4D585F"/>
<path d="M4.81038 64.454L5.18758 64.3176C5.1952 65.0324 5.18636 66.7125 5.38217 67.3176C5.35597 67.6399 5.37395 67.9944 5.15457 68.2164L4.97064 68.2432C4.8638 66.8594 4.83038 65.8487 4.81038 64.454Z" fill="#8B8E92"/>
<path d="M5.12268 23.181C4.95784 21.7291 5.05677 20.218 4.96973 18.7752C4.84227 16.6616 5.54325 15.9484 7.58029 15.566C10.9209 14.939 14.2566 14.276 17.5978 13.6474L30.8855 11.0979L58.1106 5.84203C64.3516 4.6377 70.5872 3.37842 76.8398 2.24082C77.4724 2.12565 78.5078 1.92791 79.1048 1.69574C81.224 0.8028 82.0698 2.34553 82.0072 4.28426C81.9218 6.93189 82.129 9.61903 82.1493 12.2661C82.2207 21.5372 82.1427 30.9001 82.1991 40.1667C82.2239 44.3784 82.2806 48.5898 82.3694 52.8006C82.4076 55.1549 82.4537 57.5423 82.3878 59.8829C82.3664 60.6401 82.0793 61.7895 81.4786 62.2108C79.9647 63.2726 77.1488 63.9593 75.4198 64.5763L60.3377 69.8591L27.5824 81.2635L15.9831 85.3172C15.3113 85.5516 8.72002 88.2744 8.46195 87.1025C7.85573 84.3491 7.94784 80.9882 7.84455 78.139L7.41149 68.4757L6.18909 44.0628L5.37496 28.1598C5.31534 26.9183 5.16564 25.4496 5.13192 24.2538C5.1111 23.8851 5.1173 23.55 5.12268 23.181Z" fill="#D2D5DB"/>
<path d="M5.12268 23.181C5.16909 22.625 5.20332 22.0682 5.22536 21.5108C5.36653 22.807 5.79827 23.1934 5.13192 24.2538C5.1111 23.8851 5.1173 23.55 5.12268 23.181Z" fill="#90A1B9"/>
<path d="M6.75052 22.4811C6.74606 21.7408 6.52506 20.4631 7.46542 20.2501C15.855 18.35 24.3008 16.682 32.7056 14.8614L62.6184 8.46447L74.9993 5.8404C76.0017 5.62489 80.193 4.5335 81.0203 4.79553C81.4285 5.26211 81.3238 10.8967 81.329 11.991L81.4166 20.6656C81.504 26.3373 81.5469 32.0097 81.5455 37.6822C81.5279 44.5754 81.3903 51.6971 81.5181 58.5736C80.5943 59.4571 76.6659 60.5789 75.2535 61.0692L64.9651 64.6255L40.207 73.1428L21.8033 79.5201C20.4047 80.0079 10.8821 83.514 10.1429 83.1991C9.77495 82.2453 9.43959 73.9786 9.37378 72.5007L7.89727 44.3013L7.49081 35.563C7.45588 34.8196 7.40063 32.3555 7.28241 31.7207C7.26209 32.0035 7.24625 32.1309 7.18409 32.4073L7.12214 32.3033L7.17567 32.3508C6.85341 31.7653 7.3922 28.2391 6.64703 27.8494L6.38094 28.007C6.22992 27.8449 6.27694 27.524 6.26567 27.2431L6.18665 27.3052C6.04954 26.97 5.73774 24.7595 5.9039 24.5344L6.05076 24.6075C6.25927 24.9642 6.20422 25.5084 6.34265 26.0081L6.49195 25.9524C7.06019 24.9972 6.40704 25.5035 6.5798 24.5287C6.76596 23.4781 6.58285 22.6278 6.48778 21.5859L6.55319 21.627C6.62276 21.9107 6.68857 22.1955 6.75052 22.4811Z" fill="#202328"/>
<path d="M7.28241 31.7207C7.26209 32.0035 7.24625 32.1309 7.18409 32.4073L7.12214 32.3033L7.17567 32.3508C6.85341 31.7653 7.3922 28.2391 6.64703 27.8494L6.38094 28.007C6.22992 27.8449 6.27694 27.524 6.26567 27.2431L6.18665 27.3052C6.04954 26.97 5.73774 24.7595 5.9039 24.5344L6.05076 24.6075C6.25927 24.9642 6.20422 25.5084 6.34265 26.0081L6.49195 25.9524C7.06019 24.9972 6.40704 25.5035 6.5798 24.5287C6.76596 23.4781 6.58285 22.6278 6.48778 21.5859L6.55319 21.627C6.62276 21.9107 6.68857 22.1955 6.75052 22.4811C6.98077 25.237 7.19435 27.9812 7.25702 30.7479C7.26413 31.0589 7.3015 31.417 7.28241 31.7207Z" fill="#90A1B9"/>
<path d="M80.1049 5.08457C80.4007 5.03054 80.4472 5.01896 80.7393 5.08213C81.038 5.52738 80.9052 8.84137 80.9032 9.63498C80.9139 11.4628 80.937 13.2905 80.9724 15.118L81.2024 26.0221C81.2567 30.63 81.2136 35.293 81.2042 39.9046L81.2071 51.8211C81.215 53.8866 81.3149 56.5546 81.1962 58.5541C80.422 59.0408 78.2603 59.7245 77.3173 60.0431C75.508 60.6511 73.7027 61.2707 71.9011 61.9015L38.1763 73.5246L13.9039 81.9461C12.7986 82.3266 11.4373 82.8349 10.323 83.068L10.1983 80.9936C9.52938 70.4301 9.12536 59.7911 8.53569 49.2305L7.61909 31.5702C7.44948 28.2262 7.16927 24.0297 7.11798 20.7084C7.8864 20.4087 8.85886 20.2638 9.68223 20.0848C11.2641 19.726 12.8511 19.3903 14.4428 19.0777L62.6979 8.77241L75.5215 6.06181C77.0594 5.74493 78.5557 5.36204 80.1049 5.08457Z" fill="#90A1B9"/>
<path d="M78.1739 9.344L78.2778 9.39143C78.5656 9.75868 78.4554 13.9927 78.4554 14.7703L78.4506 24.3892L78.3256 53.8871C76.5833 54.7824 72.6738 55.8527 70.625 56.4891L58.5264 60.3128L28.8243 69.9593C23.6659 71.6472 18.0212 73.3399 12.952 75.1228C12.8442 74.2908 12.7921 73.6058 12.7441 72.767C12.5087 69.0616 12.3973 65.0002 12.2283 61.2659L11.3596 45.3711C11.2127 42.8766 11.1059 40.3716 10.9539 37.8914C10.6918 33.6164 10.1831 28.7714 10.231 24.5137C15.5757 23.476 21.1632 22.0636 26.4971 20.8602L63.5438 12.5952C68.342 11.536 73.3859 10.2943 78.1739 9.344Z" fill="#757D88"/>
<path d="M74.2103 12.2825C74.6237 12.1458 75.2977 11.8538 75.6791 11.8989C75.8291 12.017 75.8471 11.9869 75.8588 12.1366C75.9722 13.5771 75.9338 15.1269 75.9355 16.5766L75.9468 24.6007L76.0277 52.4653C72.4646 53.464 68.4363 54.8326 64.8689 55.9477L23.0646 69.0457C21.3667 69.5909 17.2656 70.7698 15.8516 71.3951L15.7096 70.1656C15.7345 66.881 15.4177 62.3863 15.2184 59.0966L14.3864 44.7407L13.8749 34.4858C13.7742 32.1745 13.6517 28.6708 13.3447 26.4732C16.6345 25.5325 20.2899 24.8466 23.6296 24.0382C27.1541 23.1849 30.6846 22.3897 34.2122 21.5622L74.2103 12.2825Z" fill="#1B1F23"/>
<path d="M74.2103 12.2825C74.6237 12.1458 75.2977 11.8538 75.6791 11.8989C75.8291 12.017 75.8471 11.9869 75.8588 12.1366C75.9722 13.5771 75.9338 15.1269 75.9355 16.5766L75.9468 24.6007L76.0277 52.4653C72.4646 53.464 68.4363 54.8326 64.8689 55.9477L23.0646 69.0457C21.3667 69.5909 17.2656 70.7698 15.8516 71.3951L15.7096 70.1656C16.0514 70.1295 17.93 69.4546 18.4287 69.3007L27.2633 66.552L57.3495 57.4021C61.756 56.0255 66.176 54.7119 70.5694 53.2924C71.7591 52.9081 73.1635 52.4488 74.3843 52.197C74.4707 50.0498 74.4087 47.5008 74.4103 45.3237L74.4104 19.867C74.4102 18.787 74.5237 12.9012 74.2103 12.2825Z" fill="#202328"/>
<path d="M74.3408 58.2037C74.8664 58.0146 74.7117 58.0593 75.213 58.0807C76.0802 58.1176 75.7169 57.2434 76.8422 57.1449C77.0761 57.5095 77.0797 57.5672 77.4402 57.6854C77.3843 57.896 77.4047 57.8274 77.1519 57.9795C76.6892 57.9828 76.8957 57.9203 76.5403 57.6809C76.3311 57.5401 75.5781 58.4776 75.4119 58.4824C74.7762 58.5005 74.615 58.4527 73.9807 58.6216L74.3408 58.2037Z" fill="#5E666F"/>
<path d="M72.6893 58.7912C72.8258 58.7956 72.8278 58.8107 72.9621 58.8585C72.77 59.1136 72.0189 59.3668 71.6007 59.6057L71.4228 59.6532L71.3204 59.5222L71.4038 59.2828C71.7833 58.9754 72.2161 58.9083 72.6893 58.7912Z" fill="#202328"/>
<path d="M73.9807 58.6216C73.6153 58.9207 73.6665 58.9665 73.267 59.0001L73.2707 58.8263C73.5081 58.4579 73.6906 58.3588 74.0519 58.1045L74.3408 58.2037L73.9807 58.6216Z" fill="#202328"/>
<path d="M11.4096 15.441C13.2893 15.3526 13.329 18.548 10.7341 19.0172C9.9011 18.5661 9.8039 18.3636 9.29619 17.588C9.51262 16.3325 10.0691 15.513 11.4096 15.441Z" fill="#202328"/>
<path d="M10.0071 18.0668C8.60211 16.817 11.8436 14.3596 12.3365 16.513C12.4228 16.8902 12.4087 16.9845 12.2174 17.3087C11.861 17.4044 12.011 17.4016 11.6465 17.3119C11.5874 16.9479 11.9038 16.9078 12.0177 16.3569C11.7654 16.1962 11.8507 16.2451 11.4932 16.2632C11.2546 16.4863 11.3721 16.8058 11.1369 17.2889C10.8149 17.4781 10.9582 17.4445 10.5963 17.4278L10.5517 17.2408C10.6939 16.9821 10.7897 16.8562 10.7861 16.5549L10.6595 16.4815L10.4158 16.6737C10.1737 17.2975 9.95634 17.3923 10.0712 17.9114L10.0071 18.0668Z" fill="#90A1B9"/>
<path d="M10.0712 17.9114C10.4306 17.6927 11.9644 17.4553 12.1955 17.8319C11.9733 18.2715 11.2723 18.6304 10.8339 18.8801C10.5915 18.6438 10.2247 18.3087 10.0071 18.0668L10.0712 17.9114Z" fill="#90A1B9"/>
<path d="M19.5014 14.3836L19.7257 14.297C20.2952 14.4901 20.6388 15.3726 20.2307 15.9464C19.9563 16.1643 19.5014 16.1662 19.1388 16.2035L18.8287 15.7826C18.8661 15.3049 18.8636 14.9809 19.2279 14.6507C19.3747 14.8726 19.3842 14.9137 19.6061 15.0443C19.7616 14.9462 19.7136 14.9653 19.7808 14.7302L19.506 14.5283L19.5014 14.3836Z" fill="#5E666F"/>
<path d="M15.1 15.1297L15.3118 15.1958C15.7202 15.6361 15.6042 16.4006 15.591 17.024C15.4403 16.9945 15.3814 16.9507 15.2503 16.8771C15.1139 16.5302 15.1283 15.5944 15.1 15.1297Z" fill="#4D585F"/>
<path d="M14.1448 15.4544L14.3134 15.555C14.2523 16.1007 14.4377 16.2782 14.3754 16.7488C14.008 16.8934 13.9253 16.9266 13.63 17.1924L13.5648 17.2519C13.4898 17.2977 13.5311 17.2798 13.4072 17.2538C14.0402 16.2744 13.7645 16.2641 14.1448 15.4544Z" fill="#5E666F"/>
<path d="M23.5419 13.6464C23.7795 13.8724 24.0246 14.7436 23.8558 15.0724C23.7252 15.3271 23.5167 15.4618 23.2896 15.6218L23.1571 15.5668C23.9676 14.4682 23.1123 15.0712 23.5419 13.6464Z" fill="#202328"/>
<path d="M25.9986 13.844L26.1053 13.9485C26.0347 14.2772 25.5234 15.386 25.3635 15.7382L25.254 15.6022C25.472 14.8233 25.5794 14.5196 25.9986 13.844Z" fill="#3C454A"/>
<path d="M1.7307 25.0849C1.95058 25.1264 1.93971 25.1243 2.12679 25.2495C2.46184 25.8767 2.59713 30.008 2.6085 30.92C2.0822 30.5551 1.90995 30.2451 1.86293 29.6022C1.75599 28.1404 1.68428 26.5486 1.7307 25.0849Z" fill="#BFC5CD"/>
<path d="M2.89166 51.7003L3.27424 51.8717C3.67511 52.3018 3.58868 53.9637 3.59081 54.6171C3.20518 54.4809 3.06198 54.4376 3.01272 53.9907C2.93279 53.265 2.87185 52.4251 2.89166 51.7003Z" fill="#BFC5CD"/>
</svg>
