<svg width="1000" height="1000" viewBox="0 0 1000 1000" fill="none" xmlns="http://www.w3.org/2000/svg">
<rect width="1000" height="1000" rx="150" fill="#EDBA3A"/>
<path d="M160.401 400.245L160.749 400.238C206.272 399.568 252.403 400.56 297.857 400.221C322.575 400.475 361.996 406.686 360.773 439.241C360.217 454.03 351.474 473.386 346.43 487.693C341.957 500.383 336.641 517.756 330.612 529.171C326.381 537.078 320.983 544.301 314.601 550.597C288.455 576.884 250.62 588.363 214.45 590.354C203.394 590.962 190.19 590.662 179.002 590.65L125 590.636L175.552 449.156L233.33 449.14C221.736 482.174 209.814 515.092 197.564 547.888C221.296 547.956 252.263 550.664 269.535 531.016C272.236 527.924 274.468 524.451 276.161 520.708C277.009 518.851 278.772 514.555 279.219 512.678C283.317 495.484 299.814 465.756 298.753 449.281C293.631 441.147 284.641 440.371 275.635 440.021C265.528 439.629 255.206 439.926 245.067 439.922L180.695 439.987C176.106 429.083 166.172 411.249 160.401 400.245Z" fill="black"/>
<path d="M752.925 418.076C760.407 417.194 786.838 417.79 795.327 417.784L827.634 417.782C890.128 417.824 879.169 439.618 860.072 487.57C844.031 527.862 845.731 563.006 794.095 569.129C783.643 570.414 771.06 569.838 760.364 569.895C741.26 569.71 721.906 570.326 702.827 569.664C691.737 569.28 675.271 566.191 671.101 554.282C669.87 550.88 669.457 544.331 670.633 540.933C681.622 509.511 692.4 477.852 703.989 446.649C711.003 427.759 734.633 419.751 752.925 418.076Z" fill="black"/>
<path d="M764.127 450.59C779.23 450.544 800.672 449.269 815.719 452.109C818.825 453.316 819.126 457.559 818.25 459.956C809.642 483.616 801.866 507.923 792.101 531.082C790.595 534.653 784.662 536.522 781.28 537.341C772.235 537.477 734.421 539.336 728.332 535.904C726.988 535.143 726.194 534.021 725.925 532.468C725.663 530.959 725.863 529.358 726.275 527.896C728.626 519.597 749.818 460.25 752.856 456.291C755.844 452.395 759.545 451.383 764.127 450.59Z" fill="#EDBA3A"/>
<path d="M576.857 418.087C582.589 417.319 605.113 417.784 612.252 417.798C630.13 418.362 649.366 416.782 667.063 418.449C691.206 421.517 696.463 432.231 688.592 453.898C678.634 481.324 677.64 487.426 647.759 493.46C671.57 498.088 669.432 506.318 663.231 526.497C653.792 557.246 641.858 565.979 609.382 569.474C602.95 570.35 578.645 570.579 571.65 569.917C548.564 567.731 479.846 580.89 494.084 538.43C503.186 511.275 506.449 497.722 536.655 493.595C531.729 492.483 525.253 491.163 521.32 487.991C518.857 486.01 517.326 483.09 517.107 479.934C516.613 473.645 519.689 469.336 521.258 463.733C529.716 433.49 544.113 420.921 576.857 418.087Z" fill="black"/>
<path d="M564.817 508.084C578.207 508.01 591.81 507.822 605.2 507.992C613.158 508.093 617.922 509.978 614.671 518.784C610.645 529.689 611.427 534.139 599.018 537.337C590.541 537.644 551.452 539.991 547.938 533.199C547.351 528.829 552.446 517.288 554.515 513.027C558.078 510.27 560.547 509.262 564.817 508.084Z" fill="#EDBA3A"/>
<path d="M587.009 450.575C596.461 450.324 606.082 450.532 615.552 450.416C620.891 450.35 632.781 449.492 636.007 454.32C636.551 459.035 631.868 469.629 629.662 474.069C626.23 476.594 624.035 477.33 620.028 478.589C607.082 478.683 584.227 479.78 572.45 477.353C567.355 476.304 570.068 453.181 587.009 450.575Z" fill="#EDBA3A"/>
<path d="M376.224 417.841L449.843 417.794C456.683 417.793 463.691 417.862 470.659 417.796C493.946 417.579 526.859 417.443 514.132 450.681C503.311 478.939 505.805 485.917 472.999 493.398C497.872 498.121 492.883 511.597 485.426 529.552C483.435 534.337 482.352 539.563 479.858 544.326C463.997 574.615 420.276 569.929 391.428 569.902L318.142 569.827C314.241 569.837 310.237 569.735 306.327 569.683C319.293 561.84 331.388 550.867 338.892 537.587C353.293 537.312 421.768 539.413 428.776 535.34C434.743 531.872 438.018 521.748 439.289 515.281C439.735 513.011 439.347 512.117 438.175 510.297C432.35 506.48 389.109 508.028 379.494 508.06C383.229 500.224 387.658 487.316 390.871 478.736C402.693 478.583 440.332 480.555 448.862 476.87C455.512 473.998 456.993 467.597 459.343 461.365C460.377 458.624 461.457 456.341 460.175 453.522C453.892 449.157 431.99 450.504 423.751 450.512L371.845 450.529C376.64 439.878 376.302 429.186 376.224 417.841Z" fill="black"/>
<path d="M284.941 581.262L824.827 581.28C822.289 587.421 819.544 593.628 816.913 599.743C802.566 600.234 786.25 599.869 771.753 599.879L228.002 599.778C246.343 596.612 268.325 589.681 284.941 581.262Z" fill="black"/>
</svg>
