<svg width="2046" height="572" viewBox="0 0 2046 572" fill="none" xmlns="http://www.w3.org/2000/svg">
<g id="SolarTurbines-Light">
<path d="M6.01955 333.804C96.4087 335.021 189.361 333.902 279.904 333.904L2038.53 333.781C2038.19 344.188 2038.45 355.847 2038.44 366.349L89.411 366.282C63.5848 366.281 31.4446 365.46 6.01929 366.68L6.01955 333.804Z" fill="#FEC215"/>
<path d="M570.928 425.912L590.91 425.913L588.545 443.989L568.548 443.965C569.263 437.937 570.055 431.919 570.928 425.912Z" fill="black"/>
<path d="M1059.74 452.3C1070.99 451.286 1075.51 452.838 1081.89 461.897L1082.63 461.288C1088.8 456.23 1094.91 451.001 1103.34 451.793C1126.56 453.974 1122.26 470.488 1120.22 488.005C1118.15 505.81 1116.06 523.872 1114.07 541.759C1107.52 541.842 1100.68 541.699 1094.11 541.653C1094.86 530.578 1104.37 478.028 1099.22 470.452C1098.06 468.757 1096.58 468.012 1094.57 467.68C1092.05 467.266 1089.34 468.039 1087.36 469.607C1078.07 476.955 1075.94 526.259 1074.59 538.768C1074.47 540.195 1074.24 540.286 1073.22 541.402C1067.79 542.47 1059.84 541.849 1054.15 541.637C1055.63 529.722 1062.49 480.532 1060.3 471.708C1058.65 469.62 1057.82 468.614 1054.99 468.161C1052.21 467.714 1048.47 467.932 1046.19 469.693C1038.69 475.477 1035.9 529.216 1034.44 541.752L1014.32 541.672C1018.04 512.955 1021.05 483.275 1024.31 454.44C1030.47 454.314 1036.62 454.295 1042.78 454.383C1045.12 456.249 1043.17 457.11 1043.95 461.838C1050.53 456.102 1051.5 454.399 1059.74 452.3Z" fill="black"/>
<path d="M53.0705 425.92L82.4841 425.885C85.8537 464.06 92.2459 503.423 95.3325 541.705L72.2913 541.757C71.6381 531.603 70.9794 522.312 69.7835 512.17L53.7238 512.117L44.8204 512.157L35.5314 541.794C27.903 541.854 20.2742 541.767 12.6492 541.535L53.0705 425.92ZM52.7243 495.084L68.4751 495.077C67.7489 483.313 67.0306 471.569 66.4433 459.804C66.264 456.213 66.2067 442.493 65.6133 439.723C64.1379 446.592 50.7642 493.277 50.8603 494.717L52.7243 495.084Z" fill="black"/>
<path d="M520.635 452.256C548.121 450.255 544.055 472.219 542.543 492.151C541.91 500.486 540.481 508.785 539.372 516.988C536.297 539.706 513.983 557.501 498.213 532.581L494.326 567.764C494.183 568.645 493.491 569.572 492.993 570.361C488.082 571.36 480.119 570.799 474.885 570.63C479.634 532.179 483.563 493.017 488.021 454.426L507.869 454.419C507.693 456.546 507.566 458.714 507.419 460.847C508.921 461.135 513.709 454.925 520.635 452.256ZM512.824 528.182C520.56 519.671 527.009 477.433 521.451 469.549C518.723 467.419 515.308 467.804 511.809 468.003C505.925 473.81 503.902 482.683 503.573 490.728C503.099 502.352 494.14 529.196 512.824 528.182Z" fill="black"/>
<path d="M1176.62 452.154C1206.79 451.355 1197.87 479.513 1196.76 499.735C1195.77 517.684 1190.43 548.885 1165.75 543.355C1159.27 541.906 1156.4 537.634 1153.19 532.256L1149.61 565.775C1149.49 567.782 1149.28 568.108 1148.41 569.874C1143.89 571.77 1135.36 570.844 1130.09 570.622C1133.12 532.643 1139.25 492.763 1142.79 454.429L1161.59 454.245C1163.92 456.336 1161.23 458.492 1163 461.46C1168.39 456.078 1169.42 454.274 1176.62 452.154ZM1167.68 528.29C1176.08 519.705 1182.7 476.018 1175.03 468.544C1171.54 467.667 1170.54 467.725 1167.06 467.866C1160.84 473.604 1159.23 482.125 1158.7 490.318C1158.11 499.485 1150.41 528.041 1165.44 528.308C1166.18 528.319 1166.93 528.313 1167.68 528.29Z" fill="black"/>
<path d="M970.431 452.275C991.577 450.731 1003.61 457.315 1002.35 480.426C1001.4 497.835 1000.61 518.287 991.838 533.739C988.029 540.448 978.828 542.636 971.955 543.848C949.51 544.471 936.615 540.344 938.701 514.74C940.805 488.914 939.249 457.297 970.431 452.275ZM972.356 528.13C977.163 524.695 978.358 520.751 978.997 514.863C980.081 504.854 984.906 478.887 981.461 470.711C977.079 467.02 974.986 467.667 969.025 468.026C960.619 475.193 955.897 516.875 959.492 525.267C963.045 529.161 967.49 528.352 972.356 528.13Z" fill="black"/>
<path d="M187.917 423.313C218.427 421.53 224.222 433.768 222.933 461.865L201.63 461.894C201.756 458.015 202.111 446 199.778 444.179C170.692 421.478 172.202 498.848 170.208 512.929C170.077 518.403 175.988 527.565 181.442 528.254C194.242 529.87 195.974 502.418 198.983 500.179L219.157 500.257C215.983 517.982 211.563 539.759 190.607 543.393C174.585 546.733 150.147 542.371 148.994 521.338C147.633 496.48 150.308 458.3 163.043 436.02C167.707 427.862 179.576 424.594 187.917 423.313Z" fill="black"/>
<path d="M893.859 423.293C924.14 421.53 930.363 433.938 928.9 461.863L907.497 461.891C907.552 456.069 908.846 441.403 901.296 440.616C879.922 438.387 880.178 469.987 878.308 483.666C876.53 496.666 870.539 535.842 895.01 524.842C900.462 522.391 902.483 505.61 903.317 500.188L925.092 500.249C921.876 518.117 917.798 539.201 896.489 543.401C870.697 548.388 850.705 536.459 854.689 508.141C859.224 475.905 852.05 429.82 893.859 423.293Z" fill="black"/>
<path d="M715.679 452.336C755.874 450.347 749.483 469.928 745.796 500.465C744.221 513.502 741.551 528.818 742.657 541.762C736.893 541.941 730.774 542.381 725.145 541.253C722.201 538.756 723.951 538.909 723.092 533.308C721.134 535.367 719.024 537.275 716.778 539.014C706.079 547.199 693.434 545.434 685.339 534.727C670.295 482.542 739.822 494.285 727.155 469.483C726.376 468.86 725.14 467.615 724.269 467.528C713.289 466.433 709.643 471.455 707.737 480.198L688.949 480.155C691.144 461.643 697.715 455.378 715.679 452.336ZM705.995 527.329C717.585 529.487 721.907 525.742 724.342 513.641C724.932 510.715 726.106 498.553 725.643 496.007C712.871 503.475 698.301 509.722 705.995 527.329Z" fill="black"/>
<path d="M1242.64 452.296C1254.66 451.815 1273.27 452.157 1274.72 468.574C1276.7 490.893 1266.2 519.815 1269.17 541.765C1265.33 541.792 1252.61 542.519 1250.12 540.87L1249.36 534.812C1243.44 534.722 1227.36 557.364 1211.74 534.489C1209.77 528.413 1209.61 516.872 1211.48 510.883C1216.42 495.027 1232.82 492.02 1245.91 485.831C1249.52 484.124 1254.05 480.041 1255.06 476.015C1255.83 472.968 1255.14 472.219 1253.87 469.85C1249.2 466.274 1243.95 466.859 1239.04 469.764C1235.36 471.945 1234.96 476.274 1234.13 480.198L1215.08 480.091C1218.42 461.314 1223.65 455.238 1242.64 452.296ZM1232.51 527.396C1244.3 529.556 1248.55 525.13 1250.85 513.178C1251.42 510.244 1252.59 498.444 1252.1 495.941C1239.34 503.472 1224.52 509.857 1232.51 527.396Z" fill="black"/>
<path d="M262.651 452.319C301.783 450.466 295.186 470.656 291.658 500.711C290.157 513.489 287.467 529.027 288.091 541.717C282.302 541.862 276.511 541.869 270.722 541.738C268.938 539.407 269.943 538.062 269.569 534.123C265.419 535.801 262.127 539.091 258.279 541.415C247.657 547.828 237.526 544.001 231.375 533.744C229.536 526.445 229.576 517.802 231.639 510.286C237.531 488.81 266.474 493.508 275.094 476.246C276.174 474.084 274.521 471.654 273.34 469.788C263.984 463.314 255.977 469.78 254.211 480.194L235.197 480.16C237.702 461.332 244.238 455.157 262.651 452.319ZM252.193 527.25C263.176 529.546 267.768 526.225 270.507 514.915C271.19 512.095 272.423 498.513 271.981 496.085C258.465 503.909 245.493 509.108 252.193 527.25Z" fill="black"/>
<path d="M383.58 452.247C422.074 451.099 416.805 472.287 413.532 502.134L373.225 502.254C372.205 511.082 369.375 524.773 379.342 529.577C388.853 529.225 391.069 519.803 392.13 511.997C396.773 511.93 408.845 511.247 412.211 513.243C410.365 525.998 404.92 539.869 390.716 542.75C376.947 546.319 354.574 543.138 352.845 524.974C351.381 509.611 353.69 478.298 361.691 464.451C366.122 456.782 375.602 453.718 383.58 452.247ZM375.104 486.584L391.059 486.688L394.016 486.376C397.658 481.662 397.948 472.759 392.501 469.119C389.699 467.246 384.788 467.839 381.481 468.075C375.571 473.797 375.999 478.466 375.104 486.584Z" fill="black"/>
<path d="M1332.73 452.16C1335.05 452.136 1337.45 452.085 1339.75 452.396C1343.79 452.944 1348.23 454.65 1350.73 458.043C1357.86 467.714 1348.28 527.488 1345.98 541.774L1326.02 541.669C1328.97 522.801 1330.81 501.605 1332.81 482.466C1333.22 478.52 1332.07 473.697 1329.77 470.367C1323.56 467.102 1319.98 470.266 1316.26 475.248C1313.51 483.58 1309.21 529.948 1307.99 541.761C1301.42 541.832 1294.62 541.7 1288.03 541.657C1290.37 513.495 1294.44 482.706 1297.65 454.433L1316.03 454.342C1319.11 456.406 1315.74 457.419 1317.87 461.166C1324.04 455.773 1324.99 454.216 1332.73 452.16Z" fill="black"/>
<path d="M322.348 430.473L340.756 430.579C339.874 437.477 338.455 446.615 338.513 453.335L340.289 454.999C342.177 455.07 343.487 455.019 345.368 454.909C346.407 456.599 346.366 458.023 346.243 459.939C345.36 473.687 340.36 466.851 337.673 469.505C334.105 473.031 330.975 516.724 330.743 523.802C333.543 527.399 333.208 524.354 337.918 526.627C338.03 527.309 338.104 527.996 338.139 528.686C338.243 531.216 337.371 540.026 335.636 541.961C289.718 548.327 318.6 500.966 315.749 473.72C314.906 465.669 313.882 472.648 309.129 466.739C308.252 462.417 308.854 460.195 309.599 455.857C312.909 452.293 313.658 456.086 317.917 453.387C318.416 448.464 318.987 432.847 322.348 430.473Z" fill="black"/>
<path d="M613.819 425.913L633.68 425.91C628.562 464.029 625.563 503.4 620.414 541.742C614.074 541.909 606.853 541.697 600.441 541.646C605.788 503.828 608.174 463.68 613.819 425.913Z" fill="black"/>
<path d="M656.442 425.915L676.461 425.898L663.4 541.743C657.048 541.904 649.817 541.699 643.396 541.66L656.442 425.915Z" fill="black"/>
<path d="M806.519 452.8C807.91 452.859 808.776 453.236 810.083 453.674C811.791 458.361 809.223 471.273 808.378 476.602C786.173 477.179 787.798 485.04 785.201 505.387C783.667 517.414 782.587 529.709 781.217 541.771L761.337 541.793L762.302 532.872C764.491 507.563 768.233 479.955 770.975 454.423L790.263 454.507L788.411 470.794C793.702 460.71 796.325 457.62 806.519 452.8Z" fill="black"/>
<path d="M472.721 452.726C474.48 452.871 474.681 452.972 476.192 453.892C477.171 459.238 475.105 470.894 474.285 476.759C454.606 476.522 452.835 485.627 451.048 503.325C449.76 516.072 448.502 529.001 447.174 541.753L427.117 541.804L427.925 533.764C431.606 509.428 433.989 479.527 437.026 454.426L456.084 454.507C455.659 459.59 454.879 465.286 454.298 470.41C459.924 460.403 462.276 457.442 472.721 452.726Z" fill="black"/>
<path d="M567.536 454.455L587.482 454.519C584.07 483.559 581.322 512.75 577.552 541.744C571.155 541.896 564.014 541.695 557.556 541.641C561.617 514.98 564.295 481.727 567.536 454.455Z" fill="black"/>
<path d="M1411.08 454.45L1431.01 454.531C1421 488.997 1406.13 526.19 1393.43 559.918C1390.19 568.517 1382.99 570.022 1375.02 572H1371.43C1367.21 571.116 1366.94 571.811 1364.62 568.922C1363.53 565.021 1365.38 559.925 1365.76 555.326C1369.53 555.364 1373.32 555.81 1376.55 553.991C1380.94 548.261 1369.88 489.47 1369.26 478.035C1369.02 473.559 1366.79 458.875 1365.91 454.46L1387.1 454.481C1389.2 478.872 1391.36 500.424 1391.23 524.867C1395.87 502.66 1404.4 476.603 1411.08 454.45Z" fill="black"/>
<path d="M1294.47 7.7974C1313.66 7.0717 1336.99 7.72319 1356.5 7.73742L1356.55 77.5939C1386.01 42.8893 1449.55 48.0762 1451.87 99.4241C1453.29 131.016 1452.01 163.341 1452.34 195.024C1452.55 215.348 1454.71 236.648 1440.96 252.994C1440.77 253.153 1440.59 253.311 1440.4 253.467C1427.2 264.373 1412.42 267.976 1395.48 266.331C1376.96 264.531 1367.12 255.626 1356 242.018L1355.89 262.928L1294.49 262.93L1294.47 7.7974ZM1375.72 225.806C1380.2 224.957 1384.69 224.206 1387.53 220.217C1393.53 211.816 1391.72 116.453 1389.17 103.707C1388.6 100.829 1387.07 98.7559 1384.63 97.13C1380.27 94.221 1374.28 94.8136 1369.31 95.1226C1363.01 98.614 1359.33 101.992 1357.32 109.103C1353.84 121.438 1353.66 206.508 1359.12 215.978C1361.71 220.5 1366.17 223.614 1371.19 224.939C1372.68 225.332 1374.2 225.587 1375.72 225.806Z" fill="black"/>
<path d="M265.39 54.4126L265.834 54.377C309.138 51.1075 343.315 71.1603 344.659 117.236C346.894 141.223 344.289 166.056 344.866 189.882C346.02 237.505 327.14 263.355 276.962 266.978C184.336 269.118 192.706 219.241 192.802 147.262C192.82 133.361 191.715 118.208 194.691 104.588C196.848 94.4883 201.479 85.0835 208.169 77.2189C223.027 59.9234 243.986 55.9942 265.39 54.4126ZM274.375 228.42C278.081 225.665 282.222 222.663 282.704 217.614C283.715 206.814 283.7 195.778 283.762 184.917C283.914 158.672 283.156 132.388 282.933 106.147C282.834 94.4918 273.134 92.3709 263.843 93.0345C259.265 96.6407 255.993 99.6544 255.285 105.784C253.665 119.81 252.166 216.163 258.122 223.621C260.593 226.714 264.607 228.501 268.517 228.801C270.432 228.948 272.473 228.661 274.375 228.42Z" fill="black"/>
<path d="M1659.69 55.264C1662.02 55.1101 1664.36 55.0167 1666.69 54.9839C1686.8 54.8198 1706.48 68.6682 1709.44 88.8613C1712.43 109.167 1711.28 131.637 1711.28 152.28L1711.2 263.711C1690.53 263.836 1669.87 263.825 1649.21 263.679L1649.29 166.205C1649.3 149.814 1649.78 133.25 1648.59 116.911C1647.67 104.189 1634.04 98.5914 1624.83 107.736C1618.26 114.26 1619.09 123.336 1619.19 131.872L1619.15 263.076L1556.72 263.049C1555.88 241.469 1556.6 214.219 1556.59 192.183L1556.68 58.2129L1617.43 58.2301L1618.1 80.7488C1618.89 79.5851 1619.69 78.4278 1620.5 77.277C1630.6 62.9391 1643.11 58.1404 1659.69 55.264Z" fill="black"/>
<path d="M990.798 58.6133L1053.31 58.6884L1053.29 155.717C1053.28 171.74 1052.71 189.012 1053.9 204.889C1055.31 223.896 1081.45 220.261 1082.87 201.833C1084.07 186.192 1083.52 170.625 1083.51 154.955L1083.47 58.6487L1145.46 58.6888V263.717C1125.47 263.843 1105.48 263.825 1085.48 263.663L1085.22 240.658C1082.64 244.123 1079.96 247.306 1077.03 250.59C1052.94 277.656 999.39 272.697 992.907 232.82C989.476 211.71 990.759 188.18 990.755 166.647L990.798 58.6133Z" fill="black"/>
<path d="M508.996 54.3635C540.048 51.8458 588.674 56.5145 594.745 95.7453C597.389 112.829 595.895 137.341 595.845 155.114L595.871 263.095L536.701 263.039L536.674 247.09C509.864 271.085 472.751 276.824 450.181 244.321C442.936 229.173 443.135 217.61 443.961 201.672C446.069 161.044 469.174 150.592 503.22 138.444C511.047 135.652 520.438 132.741 526.9 127.059C532.556 122.053 536.008 115.015 536.505 107.476C536.773 102.782 535.642 98.0979 532.43 94.5486C529.98 91.7894 526.528 90.1269 522.845 89.9325C506.116 89.1315 505.334 110.344 504.97 121.824C486.424 121.814 467.879 121.601 449.339 121.184C446.462 77.5047 467.617 59.4971 508.996 54.3635ZM511.267 231.209C521.859 235.429 530.387 231.468 533.257 221.025C537.79 204.528 536.252 178.469 535.713 161.459L534.653 159.916C529.372 163.33 515.971 171.326 512.854 175.912C505.05 187.395 504.591 219.932 511.267 231.209Z" fill="black"/>
<path d="M1800.56 54.4141C1822.73 52.9696 1851.69 57.1512 1867.94 73.506C1873.79 79.3848 1878.07 86.6436 1880.39 94.6138C1884.68 109.329 1883.12 153.565 1883.06 170.865L1792.59 170.976C1793.45 186.681 1791.37 202.359 1793.75 217.675C1794.84 221.932 1797.85 225.916 1801.93 227.429C1828.48 237.302 1824.4 202.225 1824.23 187.417C1843.93 187.128 1864.24 187.405 1883.99 187.436L1884.14 202.018C1883.84 216.99 1881.29 232.452 1871.1 244.123C1844.39 274.587 1780.3 274.012 1749.95 249.513C1726.76 230.793 1730.94 195.368 1731.24 168.357C1731.45 149.042 1729.24 118.176 1733.16 99.9179C1734.93 91.2759 1738.86 83.2249 1744.59 76.5201C1758.85 59.9725 1780.04 55.9695 1800.56 54.4141ZM1792.8 131.693L1811.62 131.791L1824.46 131.785C1824.79 115.323 1829.23 91.404 1806.39 91C1786.74 97.8234 1793.94 115.217 1792.8 131.693Z" fill="black"/>
<path d="M836.416 6.99326L996.154 6.99121C996.328 23.0642 996.16 39.4435 996.16 55.5439C981.207 55.1804 964.912 55.5272 949.856 55.5561L949.821 263.729L882.893 263.751C881.59 195.922 882.844 123.872 882.845 55.6938L836.365 55.4414L836.416 6.99326Z" fill="black"/>
<path d="M1964.78 54.4023C2000.73 50.6191 2043.28 63.0324 2044.58 106.669C2044.72 111.277 2044.28 116.088 2043.98 120.698C2026.88 121.049 2006.77 120.271 1989.44 120.05C1989.43 116.892 1989.37 113.734 1989.28 110.578C1989.08 104.492 1987.49 99.1621 1982.95 94.8235C1973.87 86.1363 1958.88 92.5838 1960.18 105.583C1961.61 119.865 1976.71 127.211 1986.89 134.865C2010.7 153.441 2044.68 172.133 2045.9 206.506C2047.45 249.968 2013.21 265.272 1976.84 267.581C1956.94 269.422 1927.74 264.285 1913.81 249.234C1899.07 233.329 1898.89 216.609 1899.26 196.484C1917.92 196.25 1936.99 196.483 1955.69 196.515C1955.78 206.84 1955.19 219.429 1963.74 226.924C1969.57 232.03 1978.35 230.676 1983.08 224.847C1985.8 221.435 1987.02 217.066 1986.45 212.74C1984.24 194.466 1944.63 173.844 1930.69 162.514C1911.41 147.592 1899.06 130.284 1903.21 104.544C1908.66 70.665 1933.54 57.7504 1964.78 54.4023Z" fill="black"/>
<path d="M364.9 7.73047L427.81 7.73417C428.862 91.9308 427.852 178.693 427.857 263.081L364.914 263.064L364.9 7.73047Z" fill="black"/>
<path d="M1266.36 55.1509L1278.53 54.6084V119.005C1222.71 120.94 1230.41 140.876 1230.62 188.377L1230.68 263.728C1209.98 263.884 1189.29 263.853 1168.59 263.634L1168.57 238.5L1168.61 58.2091L1228.32 58.2561L1228.39 98.1499C1235.48 77.0505 1242.96 60.695 1266.36 55.1509Z" fill="black"/>
<path d="M716.348 55.2308L729.511 54.5732L729.521 119.001C674.404 120.831 681.406 139.143 681.545 186.909L681.575 263.725C660.903 263.838 640.231 263.82 619.56 263.671L619.561 58.2102L679.003 58.2393L679.086 98.7199C685.76 77.6249 693.461 61.397 716.348 55.2308Z" fill="black"/>
<path d="M1472.27 58.2245L1534.71 58.2197C1535.3 80.9026 1534.81 105.68 1534.81 128.49L1534.76 262.75C1528.65 263.794 1481.12 263.077 1472.26 263.045L1472.27 58.2245Z" fill="black"/>
<path d="M1473.18 5.43969C1493.24 5.06482 1514.52 5.44668 1534.68 5.46121C1535.09 17.8689 1534.77 32.0041 1534.73 44.5525C1517.37 45.4278 1490.73 44.7096 1473.17 44.5949L1473.18 5.43969Z" fill="black"/>
<path d="M64.9678 176.129C65.0688 188.252 63.2435 207.775 72.3909 216.633C81.2538 225.216 97.7042 224.744 106.26 215.738C109.94 211.857 111.911 206.662 111.731 201.315C111.442 191.951 105.368 183.512 98.879 177.559C67.0829 148.187 6.24443 129.557 4.16348 79.3823C3.41696 61.3827 7.76865 41.018 20.557 27.3844C50.837 -4.89704 122.964 -5.22447 155.986 22.9005C168.837 33.846 172.784 52.1956 173.184 68.6535C173.312 75.6947 173.338 82.7374 173.263 89.7793C153.34 89.7862 130.949 90.3211 111.239 89.7341C111.341 80.8854 112.639 58.6881 104.868 53.3247C79.2884 35.669 50.7066 62.0812 79.4543 88.2854C114.042 119.813 176.022 139.502 177.556 193.221C178.983 243.133 140.707 268.204 95.3726 268.038C47.2479 268.162 9.61894 259.218 0 204.7V175.957L64.9678 176.129Z" fill="black"/>
<path d="M746.922 0H754.452C756.706 0.493589 758.897 1.23966 760.984 2.22411C784.252 12.9795 777.867 43.7579 759.687 49.5299C729.606 59.0804 706.656 12.4939 746.922 0ZM755.298 22.46C755.649 18.557 756.131 19.3456 754.515 16.1339C751.713 14.3051 746.673 14.9029 743.129 14.9933C743.114 19.2952 742.374 19.7273 744.644 22.6639C748.063 23.6414 751.726 22.8904 755.298 22.46ZM755.537 27.1555C759.157 32.1386 761.91 35.8759 764.946 41.2973C748.433 40.1425 756.432 28.9079 744.447 28.4338C741.173 31.4634 745.289 34.928 741.641 40.7885L737.681 41.1694C744.773 49.7097 756.946 46.9239 764.946 41.2973C785.689 21.6982 756.371 -9.63935 737.05 9.86824C744.41 9.62539 765.623 6.98712 762.219 20.2277C761.218 24.12 759.22 25.7444 755.537 27.1555ZM736.836 10.6701C726.54 14.951 728.307 34.7867 736.688 40.7641L736.836 10.6701Z" fill="black"/>
<path d="M737.05 9.86824C744.41 9.62539 765.623 6.98712 762.219 20.2277C761.218 24.12 759.22 25.7444 755.537 27.1555C759.157 32.1386 761.91 35.8759 764.946 41.2973C748.433 40.1425 756.432 28.9079 744.447 28.4338C741.173 31.4634 745.289 34.928 741.641 40.7885L737.681 41.1694L736.688 40.7641L736.836 10.6701L737.05 9.86824ZM755.298 22.46C755.649 18.557 756.131 19.3456 754.515 16.1339C751.713 14.3051 746.673 14.9029 743.129 14.9933C743.114 19.2952 742.374 19.7273 744.644 22.6639C748.063 23.6414 751.726 22.8904 755.298 22.46Z" fill="black"/>
</g>
</svg>
